<svg id="Layer_2" xmlns="http://www.w3.org/2000/svg" viewBox="0 0 975.18 2012.2"><defs><style>.cls-1{fill:#752e19;}</style></defs><g id="_Ñëîé_1"><path class="cls-1" d="M72.79,11.62c4.08,14.97,8.12,29.95,12.04,44.96,1.7,6.52,3.69,13.06,4.49,19.71,1.78,14.98,5.3,29.59,9.03,44.15,1.1,4.3,1.44,9.23,5.72,12.62,5.31,4.21,10.31,8.87,14.98,13.77,12.82,13.46,25.6,26.96,37.96,40.82,6.6,7.4,12.7,15.32,18.31,23.48,6.76,9.85,12.71,20.23,19.09,30.33,12.81,20.26,17.66,23.4,23.97,37.65,5.5,12.42,6.16,19.14,5.55,24.75-.49,4.45-1.04,2.92-4.43,16.87-1.74,7.17-3.74,15.38-5.09,25.96-.52,4.06-.12,5.55-1.23,9.44-1.44,5.06-2.41,10.25-3.66,15.7,3.32.51,4.91-1.54,5.8-4.16,3.73-11.06,7.1-22.37,7.38-33.98.31-12.96,2.86-7.7,7.09-28.58,0-.02,2.43-11.97,7.81-16.56,4.38-3.74,8.91-3.97,8.91-3.97.12,0,.22,0,.29-.01,4.67-.15,10.75,2.04,11.73,5.98.44,1.75-.15,3.39-1.84,6.05-3.13,4.95-7.05,9.41-10.23,14.33-2.81,4.34-4.4,6.62-5.24,8.21-1.5,2.84-2.41,5.12-2.93,6.44-6.2,15.78-7.59,26.96-11.33,40.85-.29,1.07-.11,2.27-.15,3.41,1.83-1,2.91-2.17,3.37-3.53,2.06-6.17,3.98-12.39,5.89-18.6,1.65-5.34,2.65-10.96,4.95-16,7.06-15.5,17.81-28.15,19.45-29.87,5.94-6.24,11.82-10.72,10.47-14.72-.53-1.57-1.22-2.56-5.63-6.82-1.45-1.4-2.52-3.2-3.6-4.92-5.64-8.97-11.16-18.01-16.84-26.96-5.2-8.2-10.66-16.24-15.79-24.48-5.84-9.37-11.2-19.03-17.2-28.29-7.97-12.3-16.13-24.51-24.64-36.46-11.12-15.64-22.57-31.05-34.03-46.45-10.66-14.33-21.68-28.4-32.2-42.81-5.18-7.09-9.54-14.76-14.41-22.09-9.96-14.98-22.07-28.6-29.48-45.23C76.5,1.23,73.92-.04,72.3,0c-2.21.06-2.99,3.3-1.85,6.04.78,1.86,1.81,3.65,2.34,5.58ZM229.87,284.89c-4.67-6.94-9.46-13.75-13.92-20.76-8.71-13.67-17.2-27.48-25.85-41.2-4.68-7.43-9.18-15.01-14.33-22.12-4.35-6-9.45-11.48-14.36-17.06-4.02-4.56-8.28-8.9-12.39-13.38-6.58-7.15-13.11-14.34-19.69-21.49-6.42-6.98-13.08-13.77-19.23-20.97-2.41-2.83-4.41-6.39-5.4-9.94-3.37-12.1-6.32-24.31-9.16-36.54-.85-3.65-.81-7.5-1.35-13.01,4.06,5.06,7.72,8.64,10.2,12.88,10.85,18.63,24.96,34.81,38.85,51.19,7.89,9.3,15.34,18.97,22.84,28.59,5.83,7.48,11.66,14.98,17.09,22.75,13.59,19.42,27.6,38.6,40.14,58.66,6.77,10.84,13.04,22.07,19.62,33.08.32.53.24,1.29.38,2.11-4.34,2.33-8.67,4.65-13.42,7.19ZM84.82,26.09c5.67,8.42,11.12,16.99,16.91,25.33,7.46,10.74,15.08,21.39,22.8,31.95,12.12,16.59,24.37,33.08,36.6,49.6,8.46,11.43,17.45,22.52,25.37,34.31,15.59,23.2,31.17,46.43,44.71,70.92,4.66,8.44,10.77,16.1,16.12,24.18,3.81,5.75,7.45,11.6,11.67,18.21-6.76-.7-11.09-2.11-14.09-7.77-5.26-9.91-11.99-18.99-16.97-29.16-3.63-7.42-9.1-13.97-13.79-20.87-7.35-10.81-14.46-21.79-22.18-32.34-10.4-14.2-21.01-28.26-32.03-42-10.31-12.86-21.53-25.02-31.83-37.89-5.77-7.21-10.48-15.23-15.66-22.89-4.42-6.53-8.49-13.34-13.36-19.54-6.43-8.2-10.14-17.52-13.13-27.22-1.76-5.73-3.18-11.56-4-17.84.97,1,2.1,1.89,2.87,3.02Z"/><path class="cls-1" d="M86.77,314.97c-2.35,1.57-5.79,3.92-9.95,6.96-4.75-2.95-10.36-6.16-11.14-5.22-.2.25-.21.94,2.78,4.65,10.48,13.01,22.53,19.36,23.53,19.86.11.06.71.35,1.5.8.75.43,1.67.99,2.68,1.71,1.85,1.32,3.22,2.44,3.72,3.11,6.19,8.29,13.66,14.99,22.59,20.22,2.31,1.35,4.59,2.86,7.59,1.51-.07-.87.15-1.79-.2-2.11-3.47-3.2-6.82-6.59-10.63-9.34-4.8-3.47-9.94-6.51-13.01-11.76-.99-1.68-2.13-3.13-3.41-4.39-3.37-3.29-5.91-2.55-9.83-5.59-.49-.38-.58-.52-1.27-1.13-2.2-1.98-5.54-4.73-10.39-7.87,1.6-1.98,14.39-17.45,24.91-14.29,3.92,1.18,7.06,6.83,13.36,18.15,3.45,6.2,9.49,18.29,11.26,23.77.78,2.41,1.3,5.07,4.94,7.64-1.16-9.6-3.55-17.25-5.62-22.58,0,0-5.52-14.24-28.79-39.23-.3-.32-1.64-1.81-3.84-2.84-.54-.25-1.11-.46-1.73-.62-1.32-.35-3.41.62-4.5,1.66-.41.39-.2,1.25,1.38,3.91.63,1.06,1.14,1.81,1.55,2.38,1.45,1.98,1.54,1.95,1.64,2.29.6,2.08-4.28,5.12-9.13,8.37Z"/><path class="cls-1" d="M71.86,369.67c3.31.32,12.77,1.53,19.22,4.18,2.08.86,4.13,1.85,6.14,3,1.95,1.11,4.15,2.02,6.35,2.42,6.06,1.1,12.21,1.59,16.94,6.36.79.8,3.27-.02,4.97-.1.3-1.18.61-3.23-.44-5.02-.77-1.32-1.95-2-2.45-2.2-7.79-3.18-15.66-6.17-23.45-9.35-10.32-4.21-18.47-6.6-27.56-11.5-8.54-4.6-15.25-9.64-20.27-13.96.07-.03.12-.06.19-.1-2.13.15-2.54.29-2.8,2.61-.14,1.21-.13,2.44-.07,3.68.02-.02.05-.04.07-.07,12.9,6.8,26.9,14.61,26.16,16.23-1.07,2.35-32.01-9.83-32.5-8.6-.34.86,13.22,10.85,29.5,12.41Z"/><path class="cls-1" d="M180.75,270.2c-.85-2.5-2.67-3.41-5.22-3.53-1.36-.07-2.45.19-3.25.83-.79.64-1.14,1.53-1.32,2.27-2.19,8.82-.04,21.85-.04,21.85,0,0,1.65,8.14,1.23,17.45-.59,13-1.82,25.98-2.72,38.97-.07,1.07.36,2.17.55,3.26,8.85-19.26,6.41-39.82,8.31-60.15,4.46.49,8.38.93,12.44,1.38-.07,1.91-.05,3.03-.16,4.14-.54,5.82-1.14,11.63-1.64,17.45-.21,2.48-.19,4.97,3.23,5.32,2.1-9.05,4.15-17.87,6.28-27.03-.14-1.78-.23-3.65-.24-5.59,0-.66,0-1.32.01-1.96-5.03-.48-10.1-.51-15.26.43-4,.73-5.31-1.38-3.5-5.35,1.46-3.2,2.46-6.25,1.28-9.72Z"/><path class="cls-1" d="M148.53,288.7c-1.03-.75-2.39-.49-2.53-.56-.53-.24-1.71,1.19-2.69,1.61-4.92,2.08-9.85,4.2-15.2,4.28-1.13-2.49-1.93-4.58-2.99-6.53-1.35-2.49-3.9-3.64-6.36-2.76-2.12.76-4.32,2.48-5.47,4.38-.38.62-.54,1.21-.54,1.76,0,1.94,1.8,3.38,3.14,4.47,8.61,7,9.72,10.2,10.05,11.48.21.81.27,1.5.29,1.89.06.12.13.24.19.36,4.12,8.52,8.25,16.99,15.1,23.87,1.49,1.49,2.15,3.87,2.94,5.93,2.26,5.88,4.1,11.93,6.65,17.68,2.04,4.58,3.74,9.06,4.04,14.15.13,2.22,1.53,4.65,3.03,6.43,1.64,1.92,4.33.85,4.25-1.67-.17-5.11.32-10.4-2.54-15.1-9.93-16.27-12.62-33.92-10.47-52.51,0-.02,0-.05,0-.07-.78-2.1-1.11-4.23-1.05-6.38.07-2.55,1.01-3.17,1.32-6.49.22-2.39.44-5.05-1.16-6.22ZM140.93,323.94c-3.36-3.8-9.38-17.63-10.12-23.91,4.19-1.02,8-1.95,12.6-3.07,1.22,9.91-.11,18.42-2.48,26.98Z"/><path class="cls-1" d="M366.66,202.54c1.1,7.55,1.72,14.25,3.13,20.79,1.75,8.11,3.76,16.2,6.4,24.06,1.81,5.39,4.94,6.78,9.88,6.2-1.11-1.51-2.38-2.96-3.55-4.45-4.18-7.26-17.06-31.33-8.16-48.65.7-1.36,3.44-6.7,5.9-6.31,5.44.86,5.69,29.17,6.54,29.09,1.46-.14.88-28.65,7.06-29.86.87-.17,2.69-.2,5.32-1.06,1.32-.43,2.86-1.09,3.61-2.14,2.22-3.08,3.4-3.36,4.79-.28,1.84,4.08,3.56,8.26,4.79,12.55,1.85,6.48,2.99,13.15,4.85,19.62,3.28,11.44,6.7,22.85,10.44,34.15,1.25,3.78,3.56,7.26,5.66,10.72.62,1.02,2.18,1.5,4.3,2.86-.57-2.19-.67-3.08-1.02-3.85-2.89-6.35-6.7-12.44-8.57-19.06-3.77-13.36-6.57-26.98-9.58-40.54-.77-3.49-2.01-7.54-.91-10.59,1.42-3.93,2.61-7.69,2.01-12.34.65.29,1.75.71,3.15.9,5.74.74,8.31-3.66,11.01-3.16,6.95,1.28,9.11,34,9.25,45.79.02,1.72.69,6.22,2.28,11.88.86,3.06,1.64,6.46,5.29,8.52.14-1.15.38-1.8.27-2.39-1.87-9.92-3.98-19.79-5.62-29.74-2.28-13.83-3.48-20.73-3.48-26.01,0-10.93,2.74-15.42.37-16.86-2.28-1.39-7.94,1.28-19.28,6.61-1.23.58-4.33,1.63-6.81,1.01-.93-.23-1.86-.69-2.81-1.47-2.48-2.03-4.59-.4-6.41,1.65-4.33,4.89-10.67,4.9-16.61,7.49-.33-2.36-.15-3.88-.79-4.9-.84-1.35-2.17-2.85-3.58-3.22-.82-.22-2.61,1.43-3.26,2.61-1.76,3.24-.93,4.81-2.31,6.32-2.27,2.47-6.84-.58-10.18,1.25-2.09,1.15-3.92,4.33-3.4,12.85Z"/><path class="cls-1" d="M460.58,184.08c.57.7,1.45.97,2.23,2.32,1.13,1.95.99,4.2.86,6.64-.46,8.53-.73,17.06-.92,25.6-.04,1.54-.79,3.8,2.57,4.25.27-1.18.72-2.37.81-3.59.55-7.39.82-14.81,1.62-22.18.58-5.3,1.73-4.15,2.91-9.98,1.75-8.65,1.71-20.66-1.37-21.45-3.7-.94-12.12,14.21-8.7,18.39Z"/><path class="cls-1" d="M501.67,184.72c1.02-.74,2.94-2.37,3.6-4.99,1.35-5.33-3.27-11.56-6.76-11.36-3.03.17-6.38,5.24-6.4,12.63.17.08.34.15.5.24-.6,1.58-.96,2.86-1.55,4.03-5.12,10.05-9.82,20.27-11.57,31.51-.62,3.99-.47,8.14-1.48,12.01-3.3,12.64-2.66,25.48-1.99,38.24.3,5.72,2.47,11.36,4.01,16.98.44,1.62,1.26,3.58,4.34,2.52-.12-1.12-.19-2.4-.41-3.65-.89-5.08-2.54-10.15-2.61-15.24-.18-12.33-.51-24.69,1.34-36.97,4.08-27.11,18.99-45.95,18.99-45.95Z"/><path class="cls-1" d="M577.78,218.45c-2.05.31-4.46.61-8.43-1.14-6.97-3.08-13.48-7.17-20.6-11.03,1.32-1.32,2.7-2.24,3.37-3.53.63-1.19.97-2.93.54-4.1-.25-.68-2.29-1-3.51-.98-1.07.02-2.17.66-3.18,1.16-2.85,1.4-5.2.48-6.24-2.12-1.96-4.9-5.78-7.42-9.98-9.55-2.77,4.05-5.94,7.84-9.23,11.5-.97,1.08-2.27,1.69-3.65,1.91-1.7,1.86-3.36,3.69-4.98,5.55-12.3,14.16-21.25,29.67-20.95,49.12.16,10.14-.91,20.17-4.23,29.89-.37,1.09.29,2.53.47,3.81.49.01.99.03,1.48.04,1.14-4.28,2.72-8.49,3.32-12.84,1.11-7.98,1.82-16.02,2.38-24.06,1.23-17.48,9.01-31.81,21.49-43.89,3.58-3.47,6.87-6.72,13.1-6.43,3.8.18,5.2.77,6.3,3.66-12.25,12.71-16.22,19.29-15.04,25.46,1.9-1.53,3.72-2.79,5.29-4.3,3.91-3.75,7.91-7.44,11.48-11.48,5.3-5.99,11.83-4.01,18.15-3.03,1.46.23,2.69,1.91,4.51,3.29-3.32,1.85-6.21,2.87-8.3,4.75-6.22,5.58-12.47,11.22-18.01,17.43-2.39,2.68-3.25,6.77-4.39,10.34-.27.86,1.11,2.24,2.1,4.05,1.52-3.71,2.34-6.48,3.72-8.94,4.1-7.3,11.41-11.4,17.63-16.58.99-.82,2.51-1.02,3.78-1.53,3.12-1.26,6.46-2.19,9.31-3.91,3.13-1.89,4.86-1.09,6.96,1.96-15.49,12.89-29.22,26.97-40.2,43.48,6.99-6.04,13.31-12.69,19.83-19.16,6.89-6.83,13.41-14.08,22.06-18.98,2.79-1.58,4.08-2.34,5.37-2.14,1.67-1.43,3.54-2.64,5.53-3.66,2.93-5.68,3.03-7.44,2.44-7.89-1.09-.83-4.18,3.05-9.7,3.88Z"/><path class="cls-1" d="M912.88,934.37c-3.15-10.78-7.16-21.33-10.33-32.11-3.55-12.05-7.48-24-8.47-36.69-.95-12.27-2.04-24.58-4.13-36.7-3.2-18.54-6.81-37.05-11.18-55.36-3.44-14.42-8.41-28.44-15.84-41.51-2.99-5.26-5.75-10.79-7.65-16.5-4.23-12.69-10.53-24.41-17.59-35.6-7.78-12.33-13.59-25.53-18.67-38.9-6.87-18.07-12.02-36.76-17.95-55.18-1.93-5.99-3.54-12.14-6.08-17.88-7.1-16.05-14.28-32.08-22.06-47.81-5.08-10.26-11.24-20.01-16.99-29.95-8.35-14.43-20.87-25.47-32.22-37.36-10.71-11.21-22.57-21.35-33.81-32.09-13.92-13.3-10.46-10.93-16.7-16.72-21.78-20.21-34.96-26.37-39.06-42.28-.94-3.64-1.12-6.71-1.16-8.5,2.77-.04,5.4-.38,7.89-1.08-.04-.75-.24-2.18-1.25-3.49-.7-.91-1.73-1.69-3.68-2.33-4.48-1.47-6.55.44-8.09-.65-5.53-3.95,4-18.21-.65-35.64-1.08-4.06-2.64-7.19-3.72-9.09-1.07.94-2.04,1.98-2.88,3.16.12.38.26.76.36,1.16-.77.46-1.55.9-2.34,1.34-.65.35-1.29.7-1.94,1.04-10.07,5.27-20.92,9.04-28.25,18.27,5.93-2.02,11.73-4.35,17.32-7.08,5.63-2.75,10.87-6.46,18.33-6.3-.35,11.7-.69,23.4-1.04,35.1-.74.36-1.49.83-2.31,1.1-13.6,4.49-27.23,8.9-40.8,13.47-2.78.94-5.5,2.23-7.97,3.79-2.06,1.3-3.76,3.22-2.4,6.23,17.99-8.98,36.57-15.27,56.87-18-.38,2.39-.64,6,.43,10.09,1.53,5.85,4.93,9.44,10.66,15.11,11.12,11.01,15.04,14.19,21.43,20.65,4.42,4.47,8.11,9.66,12.52,14.14,7.45,7.56,14.67,15.51,23,22.04,12.37,9.7,23.03,21.07,34.33,31.8,8.33,7.91,15.75,16.82,21.28,27.03,1.71,3.15,4.04,5.98,5.95,9.03,10.56,16.85,19.67,34.44,26.95,52.88,5.12,12.97,9.99,26.05,14.56,39.22,6.13,17.64,11.41,35.57,17.96,53.05,3.85,10.27,8.83,20.25,14.39,29.75,8.44,14.42,16.37,28.97,22.24,44.64,3.3,8.82,8.12,17.08,11.85,25.76,6.7,15.57,11.42,31.71,13.98,48.48,1.7,11.09,4.32,22.05,5.99,33.14,1.63,10.87,2.36,21.87,3.86,32.76,2.82,20.5,6.87,40.72,14.86,60,.94,2.26,1.46,4.68,1.42,7.71-.95-1.2-2.22-2.27-2.79-3.62-1.58-3.73-2.86-7.58-4.26-11.38-4.92-13.26-9.72-26.56-14.82-39.75-1.85-4.79-4.25-9.4-6.73-13.92-5.3-9.66-10.83-19.2-16.23-28.8-1.76-3.13-3.41-6.33-5.17-9.47-3.19-5.69-6.37-11.38-9.66-17.02-11.53-19.74-13.26-22.1-18.49-31.44-5.58-9.96-9.17-17.34-13.55-26.33-8.71-17.88-9.81-22.01-24.24-54.87-11.42-26.01-12.38-27.98-18.68-42.68-3.72-8.68-6.71-17.68-10.57-26.29-5.43-12.12-10.75-24.37-17.3-35.9-5.08-8.93-11.92-16.9-18.1-25.21-4.16-5.59-8.59-10.99-12.79-16.55-7.61-10.09-15.26-20.17-22.67-30.41-5.82-8.04-9.98-14.24-16.57-23.92-7.42-10.89-11.13-16.34-13.58-20.2-14.84-23.38-20.71-33.09-26.82-48.42-2.06-5.17-5.24-9.92-7.82-14.9-.74-1.42-1.19-2.99-2.02-5.11l5.68-9.1c-2.31-1.92-5.77-4.22-10.42-5.37-1.48-.37-2.6-.5-3.37-.59-10.18-1.17-20.36-2.38-30.55-3.42-2-.2-4.12.07-6.09.52-.97.22-1.73,1.35-3.16,2.55,8.63.89,16.35,1.21,23.86,2.58,7.61,1.39,16.07.58,22.29,6.43-1.2,1.79-2.69,3.19-3.13,4.85-1.18,4.52-1.42,9.31-2.94,13.7-2.01,5.82-3.42,12.07-9.11,17.89-.99-1.65-1.67-3.08-2.63-4.31-6.4-8.21-12.94-16.31-19.27-24.56-5.54-7.23-13.11-10.97-21.82-12.89-1.91-.42-4.1-1.23-5.6,2.35,2.49.92,4.86,2.08,7.36,2.68,6.02,1.44,10.96,4.45,14.73,9.25,7.25,9.24,14.51,18.48,21.61,27.83,1.29,1.69,1.84,3.93,2.98,6.45-4.83,2.96-9.16,5.62-13.57,8.32-1.64,7.95-7.88,13.28-13.01,20.5-7.13-8.14-13.66-15.55-20.11-23.03-.87-1-1.42-2.31-1.96-3.54-2.44-5.57-4.77-11.19-7.25-16.74-3.49-7.79-10.23-11.84-17.66-15.5-1.4,3.55.65,5.02,2.53,6.1,8.12,4.66,11.24,12.43,14.57,20.5,3.76,9.11,8.43,17.9,16.36,24.56,3.39,2.85,6.82,5.99,7.85,9.65-.4.57-.97,1.54-1.13,2.83-.31,2.46.93,5.19,2.35,5.72,1.63.61,4.87-1.16,11.89-11.34,2.48-3.04,4.55-5.59,6.89-8.45.93,1.8,1.78,3.12,2.34,4.56,6.57,16.78,13.48,33.41,22.53,49.09,2.47,4.29,4.96,8.57,7.56,12.78,4.25,6.91,8.35,13.91,12.94,20.59,5.36,7.79,10.99,15.43,16.87,22.86,7.7,9.73,15.84,19.12,23.62,28.79,5.1,6.32,10.29,12.63,14.75,19.38,6.46,9.79,12.39,19.92,18.37,30,11.27,19.02,16.5,28.75,18.47,32.24,19,33.76,41.23,72.96,58.42,93.82.51.62,2.25,2.67,4.75,5.77,7.51,9.32,15.42,18.36,22.41,28.04,8.05,11.15,15.02,23.04,22.91,34.31,11.3,16.14,20.82,33.23,29.62,50.77,7.38,14.72,8.54,14.76,9.55,16.34,14.56,22.75,33.02,42.95,37.19,40.52.72-.42.91-2.69,1.28-7.23.37-4.6.41-8.41-.06-10ZM621.04,411.19c.49,1.2.91,2.42,1.47,3.58,3.71,7.7,7.28,15.48,11.24,23.06,5.81,11.1,10.91,19.17,11.38,19.94,17.13,28.16,37.66,56.45,37.66,56.45,25.1,34.57,44.11,59.07,44.11,59.07,9.27,13.01,18.07,26.45,23.91,41.46.72,1.84,1.86,3.52,2.17,5.91-.79-.73-1.8-1.34-2.32-2.22-6-10.08-11.55-20.44-17.95-30.26-11.84-18.17-25.01-35.36-40.76-50.51-1.61-1.55-2.92-3.4-4.4-5.08-5.61-6.43-11.63-12.56-16.76-19.34-7.34-9.72-14.46-19.66-20.91-29.97-10.05-16.05-19.61-32.41-29.09-48.8-5.84-10.1-5.6-10.23.25-23.29ZM896.05,928.11c-1.92-2.39-4.02-4.65-5.73-7.18-10.32-15.25-18.2-26.68-20.68-30.98-26.78-46.4-44.75-77.52-62.55-97.06-3.38-3.7-10.23-9.31-17.27-19.92,0,0-7.92-9.71-15.22-19.81-7.82-10.81-22.28-33.04-45.88-79.99-1.28-2.55-26.52-46.42-38.11-65.99-2.5-4.22-6.12-7.84-9.51-11.48-5.05-5.45-10.56-10.5-15.48-16.07-4.31-4.87-8.12-10.18-12.05-15.37-2.86-3.78-5.64-7.62-8.31-11.53-1.77-2.59-3.22-5.38-4.92-8.01-3.3-5.11-6.67-10.17-10.03-15.24-.37-.56-1-.97-1.31-1.55-5.76-10.68-11.99-21.16-17.1-32.14-5.21-11.21-9.38-22.89-13.83-34.42-1.45-3.77-2.73-7.79,1.71-11.48,4.68,2.83,8.43,2.29,11.52-1.63q-2.61-9.99,2.56-16.28c2.84,3.31,6.06,6.2,8.19,9.73,5.83,9.65,10.77,19.84,16.86,29.32,8.54,13.28,17.76,26.13,26.76,39.11,12.67,18.28,29.65,32.93,43.66,50.08,11.74,14.38,22.35,29.55,31.54,45.65,3.58,6.27,7.11,12.56,10.8,18.76,12.16,20.42,20.61,42.57,30.94,63.85,8.06,16.59,14.07,34.14,22.04,50.78,9.04,18.89,18.93,37.41,29.03,55.78,11.29,20.51,22.81,40.93,35.08,60.89,7.06,11.5,11.79,23.69,15.96,36.32,3.23,9.79,7.26,19.32,10.85,28.99.75,2.01,1.16,4.14,1.72,6.21-.42.22-.85.44-1.27.67Z"/><path class="cls-1" d="M578.73,243.65c-4.6,3.66-9.25,7.26-13.81,10.96-4.12,3.33-7.53,7.27-9.01,12.43-.4,1.4.05,3.04.11,4.58,6.68-11.5,26.21-26.86,37.58-28.58,1.37,2.01,3.13,4.1,4.33,6.45,4.44,8.66,3.64,11.61-4.04,17.62-14.31,11.19-27.95,23.1-40.02,36.66-.56.63-.74,1.61-1.1,2.42,15.32-13.97,30.85-27.14,49.35-37.28,4.96-.42,8.89-1.35,11.61-2.15,4.08-1.2,5.23-2.04,5.71-3.22.68-1.65.12-3.79-1.77-6.15-3.36-4.2-5.82-4.33-10.05-.59-.62.55-1.42.91-2.69,1.71-3.45-7.52-6.72-15-10.84-21.92-4.07,3.11-8.55,5.63-13.53,6.85-.55.14-1.19.2-1.84.2Z"/><path class="cls-1" d="M351.86,226.1c-2.91-5.69-3.65-7.01-3.7-6.98-.28.13,15.49,31.34,36.38,60.33,5.45,7.56,18.61,13.93,31.29,22.98.79.57,2.31.15,3.49.19-5.36-3.68-12.26-8.88-19.65-15.82-8.36-7.86-17.75-16.69-25.39-30.45-3.59-6.46-17.66-33.59-19.78-40.7-.06-.21-.28-.95-.92-1.61-2.57-2.64-8.97-1.01-12.85,1.09-6.54,3.54-10.06,10.68-8.93,11.79.94.93,4.39-3.06,10.53-3.35,3.87-.18,7.17,1.18,9.54,2.53Z"/><path class="cls-1" d="M286.05,312.89c4.19,2.93,5.46,3.72,7.34,3.62,1.41-.08,2.32-.7,3.61-.22,1.62.6,2.55,2.27,3.53,4.05-6.38,6.29-12.46,12.35-18.62,18.33-6.03,5.86-12.34,11.47-17.45,19.79,5.95.57,9-1.94,11.84-4.69,3.9-3.78,7.53-7.84,11.52-11.52,6.44-5.94,13.09-11.66,20.07-17.84,3.12,3.67,5.65,6.66,8.18,9.64.46-.23.92-.47,1.38-.7-.53-1.44-1.03-2.9-1.58-4.34,0,0-.33-.85-.6-1.49-1.13-2.73-7.27-12.07-16.21-15.02-.33-.11-1.97-1.04-4.4-1.64-2.51-.62-3.3-1.85-5.25-2.95-4.76-2.67-5.78-1.81-7.33-3.28-4.03-3.8-2.26-14.42,1.82-15.76,1.55-.51,3.07.44,5.61,2.06,10.95,7.02,14.59,9.82,19.16,12.51,5.17,3.04,8.52,6.04,14.01,6.51,2.88.25,3.85,1.08,7.93,2.48,6.07,2.08,6.99,2.88,10.54,3.97,5.85,1.8,12.72,2.54,12.98,1.63.46-1.58-18.73-10.49-28.79-12.42-2.44-.47-5.43-1.74-9.48-3.71-4.98-2.42-8.1-4.73-12.97-8.24-3.62-2.6-9.02-6.45-15.91-11.21,1.06-6.7,3.29-11.67,4.94-14.72,6.53-12.09,16.7-17.7,22.18-20.63,4.33-2.31,6.5-3.47,8.31-3.12,7.18,1.4,10.91,15.51,18.62,27.13.26.39.49.73.51.75,4.16,6.1,8.94,10.45,8.94,10.45,4.02,3.61,8.99,6.63,9.43,6.12.4-.47-3.25-3.66-7.68-8.97-4.42-5.3-7.5-10.16-9.52-13.69-.76-3.45-5.7-24.77-18.85-27.95-15.44-3.74-37.91,18.52-40.07,35.82,0,0-2.38,18.95-7.4,30.48,0,0-.02.04-.03.09-.41,1.22,1.15,2.72,9.7,8.7Z"/><path class="cls-1" d="M56.09,468.24c11.42-4.2,20.89-6.38,29.21-6.36,10.14.03,20.27-.54,30.42-.85-.38-1.49-1.19-3.59-3.07-5.05-2.55-1.99-5.37-1.17-10.12-1.3-7.94-.21-15.9-.19-23.84-.08-1.77.02-3.53.81-5.3,1.22-1.54.36-3.08.71-4.63,1.02-8.45,1.68-17.01,2.96-25.32,5.14-8.35,2.19-16.42,5.36-24.67,7.92-4.01,1.24-6.72-.98-6.63-5.13.05-2.49.97-2.9.9-4.72-.14-3.63-4.61-4.72-4.75-7.18-.09-1.64,1.72-4.05,10.49-7.33,3.17-.7,5.51-1.54,7.88-1.68,5.91-.35,11.84-.47,17.76-.52,4.54-.04,9.09.24,13.63.25,4.56.02,9.13.04,13.68-.23,2.37-.14,4.66-1.27,4.75-3.97.1-2.88-2.36-2.76-4.44-2.9-9.08-.6-18.15-1.27-27.24-1.81-1.57-.09-3.19.22-4.75.52-6.26,1.2-12.52,2.44-18.77,3.74-4.35.9-8.04.16-11.1-4.03.49-3.32,1.26-7.99,2.46-13.55,2.25-10.38,3.46-12.02,4.24-12.88,3.49-3.85,8.96-3.83,19.11-3.65,5.94.11,26.52.98,34.42,4.31,3.06,1.29,6.42,1.62,9.59-.98-17-10.73-34.98-14.05-54.37-6.63-.03-.04-.05-.07-.08-.11-3.23-4.36-5.66-5.13-7.3-5-8.25.67-13.26,25.56-11.78,33.5.57,3.09.09,6.46,1.42,9.31,1.29,2.76.68,5.17-2.65,6.53-2.68,1.1-4.16,2.78-4.81,3.85-.92,1.49-.7,4.46,4.36,10.94.24,1.83.59,4.82.84,8.56.34,5.13-.52,7,.71,8.2,1.84,1.79,5.9.2,11.66-1.75,10.7-3.63,21.01-6.4,21.24-5.87.19.44-6.54,3.27-14.58,7.76-11.11,6.2-22.23,14.24-21.57,15.37.83,1.44,20.69-8.17,23.47-9.51,17.95-8.68,18.69-11.08,29.55-15.07Z"/><path class="cls-1" d="M69.98,502.21c-2.12.79-4.04,1.82-5.31,3.35-5.91,7.13-11.73,14.33-17.41,21.64-5.72,7.36-10.56,8.37-18.7,3.55-.39-.23-.79-.46-1.17-.71-4.82-3.23-5.17-4.86-1.41-9.08,10.01-11.23,16.35-15.61,17.14-16.07,24.17-14.12,46.75-24.44,45.87-27.16-.47-1.43-7.4-.74-9.24-.13-9.25,3.07-18.24,6.42-26.63,11.89-10.03,6.55-19.03,13.76-26.34,23.1-1.32,1.68-2.99,3.1-4.68,4.82-3.45-6.87-2.82-12.29,2-16.09,4.25-3.35,8.78-6.41,13.42-9.22,3.87-2.35,8.18-4.01,12.12-6.25,2.29-1.3,5.53-3.02,3.72-6.16-1.7-2.96-4.49-.79-6.55.38-2.55,1.45-3.65,1.61-5.72,2.5-5.97,2.57-16.59,10.41-16.59,10.41-13,10.47-19.49,15.76-18.86,18.41,1.02,4.3,9.27,4.55,10.74,11.07.44,1.92-.09,2.83.85,4.94,1.21,2.73,3.58,4.59,6.36,6.27,2.51,1.53,5.45,2.4,7.88,4.02,3.84,2.56,3.95,5.58,6.42,5.73,1.75.11,3.23-1.16,4.24-2.03,1.05-.9,1.96-2.33,3.72-5.16.56-.9.71-1.45,1.33-2.2,5.82-6.88,11.36-14,17.14-20.91,2.67-3.19,5.42-6.26,5.62-10.94Z"/><path class="cls-1" d="M101.28,538.5c5.12-4,9.96-8.35,14.9-12.52-3.24-4.03-4.25-4.54-7.61-1.63-7.19,6.2-14.39,12.47-20.84,19.39-4.72,5.06-8.45,11.07-12.22,16.91-1.77,2.74-2.59,6.07-3.91,9.3-4.46-1.55-9.7-.27-12.53-5.96,2.97-3.23,6.12-6.42,8.98-9.85,2.13-2.55,3.96-5.35,5.76-8.14,1.41-2.19,2.49-4.59,3.89-6.8.83-1.32,2.21-2.33,2.89-3.7.41-.82.29-2.74-.19-2.98-1.03-.51-2.96-.8-3.63-.2-2.53,2.24-4.78,4.81-6.99,7.38-4.28,4.96-8.4,10.06-12.74,14.97-.63.72-1.27,1.57-2.09,2.15,0,.01-.02.02-.02.03-2.34,3.28-3.71,7.82-3.16,14.17.64-.75,2.06-2.2,3.89-2.14.83.03,1.45.36,1.77.55,5.01,3.03,10.5,5.58,12.5,11.76.4,1.23,1.13,2.36,1.42,2.96.03,0,.05,0,.08,0,2.58-2.36,4.38-5.44,5.01-9.44.04-.23.09-.44.15-.65-.02-1.51-.23-2.76.21-3.73,5.58-12.51,13.53-23.26,24.49-31.82Z"/><path class="cls-1" d="M971.12,1220.58c-2.83-4.33-5.8-8.62-9.23-12.49-17.11-19.3-34.41-38.44-51.6-57.67-2.86-3.2-5.38-6.69-8.25-9.88-9.99-11.08-20.07-22.08-30.11-33.12-1.67-1.84-3.23-3.79-5-5.52-12.45-12.14-21.73-26.55-30.17-41.47-3.41-6.02-4.94-13.08-8.44-19.03-3.87-6.57-5.57-13.63-7.56-20.75-2.05-7.35-5.1-14.43-7.13-21.78-3.9-14.1-8.35-27.81-16.55-40.3-6.65-10.13-12.07-21.03-17.98-31.63-5.38-9.65-10.97-19.2-15.91-29.06-4.72-9.44-9.68-18.94-12.8-28.94-4.28-13.71-8.48-27.3-14.88-40.29-5.45-11.07-9.32-22.88-14.31-34.19-3.36-7.61-7.25-15.02-11.26-22.33-5.07-9.25-10.25-18.46-15.83-27.42-5.59-8.98-10.79-18.46-17.85-26.24-12.63-13.92-22.27-24.06-38.06-37.79-13.31-11.57-19.96-17.35-27.24-21.82-10.69-6.55-18.3-10.85-31.26-19.43-4.24-2.81-7.6-6.9-11.96-10.96.65-.28,7.85-3.47,8.77-10.07.33-2.38-.27-4.43-.68-5.52-1.79-4.66-5.28-4.65-7.6-7.89-4.55-6.38-2.44-17.2,1.42-30.69.34-1.18.13-2.83-.47-3.91-1.96-3.54-3.68-7.43-6.46-10.27-7.76-7.95-16.22-15.22-26.5-19.97-7.81-3.61-15.68-7.1-23.65-10.36-2.16-.89-4.8-.57-7.15-1.13-1.95-.47-3.78-1.41-6.17-2.34,7.08-5.61,8.83-5.55,13.28-.02,1.76,2.19,3.8,3.25,6.53,2.2,2.69-1.03,4.29-4.5,3.32-7.34-.4-1.19-1.39-2.2-2.21-3.42,3.09-3.64,6.12-5.96,11.22-5.53,4.34.37,6.71-.75,8.82-2.27.2-.14,2.78-2.05,3.55-5.08,1.14-4.51-2.44-8.77-5.12-12.37-6.8-9.15-.71-8.41-13.27-24.02-4.78-5.94-8.37-12.81-13.16-18.75-6.1-7.57-12.85-14.63-19.39-21.85-1.1-1.22-2.56-2.13-3.93-3.24-2.49,3.45-.85,5.57,1.09,7.64,4.95,5.29,9.94,10.55,14.83,15.9,1.52,1.66,2.89,3.46,4.16,5.31,3.43,5.02,6.62,10.21,10.19,15.14,5.43,7.5,11.49,14.63,13.93,23.77.53,1.99.68,4.55-.14,6.33-1.44,3.11-3.78,5.82-5.92,8.95-2.93.94-6.32,2.03-10.15,3.26-4.42-13.45-6.6-22.74-7.78-28.89-.34-1.8-.55-4.4-1.77-7.83-2.04-5.71-4.63-11.24-6.46-17.01-1.04-3.28-2.93-5.26-6.49-7.52-.61,4.91,1.36,8.15,3.31,11.26,2.76,4.41,3.18,8.97,2.17,14.32-7.94-6.8-9.7-17.62-18.62-23.1-.5,1.65-.68,3.19-.07,4.33,1.81,3.39,3.63,6.09,4.44,6.79,6.31,5.46,19.35,24.87,20.97,43.57.21,2.41.34,6.09-.3,10.68-3.03.61-5.84,1.51-8.69,1.67-6.35.35-9.95-4.09-12.61-8.65-6.24-10.69-11.9-21.71-17.78-32.61-1.5-2.78-2.73-5.73-4.5-8.32-3.29-4.82-7.12-9.18-12.82-11.64-2.55,2.85-.4,4.41,1.14,5.86,5.93,5.55,9.51,12.48,12.97,19.66,4.1,8.49,8.92,16.66,13.63,24.85,2.89,5.02,6.18,9.82,9.4,14.9-2.34.61-3.29,1.62-3.73,2.44-.82,1.56-.03,2.98-.05,6.06-.01,1.93-.34,3.51-.62,4.56,1.01,1.17,1.97,2.67,3.01,4.55,2.16,3.94,3.78,8.15,5.76,12.19,2.37,4.83,4.87,9.6,7.29,14.4.8,1.59,1.96,3.14,2.27,4.83,2.34,12.71,10.37,22.11,18.49,31.52,4.48,5.18,3.35,3.94,7.05,9.1,7.91,11.03,9.36,16.1,15.75,18.91,2.16.95,1.36.09,7.63,1.89,8.21,2.36,12.32,3.54,15.42,6.5,1.98,1.89,2.82,3.58,6.09,5.86,1.34.94,2.8,1.76,4.39,2.47,3.69,1.65,6.82,4.48,10.35,6.53,6.86,3.98,13.56,8.38,20.81,11.5,8.23,3.53,13.94,10.07,21.01,14.93,13.96,9.6,24.81,22.48,37.2,33.73,3.97,3.6,7.09,8.22,10.12,12.69,6.06,8.94,12.34,17.8,17.56,27.22,11.14,20.12,22.34,40.26,32.2,60.99,6.16,12.95,10.13,26.93,14.74,40.56,5.49,16.21,10.74,32.51,18.88,47.67,5.11,9.52,11.05,18.61,16.44,27.99,7.17,12.49,14.24,25.03,21.22,37.63,5.84,10.52,9,22.06,12.54,33.42,4.95,15.91,10.97,31.41,16.83,47,7.31,19.44,19.44,35.49,32.84,50.86,11.45,13.13,23.38,25.85,35,38.82,2.56,2.85,4.58,6.17,7.13,9.03,2.57,2.88,4.54,5.15,5.76,6.45,14.91,15.89,35.94,34.13,52.15,58.31,2.14,3.19,5.57,8.54,9.31,15.6-3.25,1.29-5.66-.43-8.1-2-8.64-5.53-15.5-8.89-20.54-13.19-9.85-8.39-13.42-8.95-23.55-16.24-17.42-12.53-52.95-44.06-100.21-99.64-3.29-3.87-21.73-25.65-40.93-53.32,0,0,0,0,0,0-11.75-17.82-18.65-33.44-25.9-50.91-10.54-25.36-18.69-48.03-23.99-63.45-4.93-12.56-9.79-25.15-15.16-37.53-4.77-10.98-12.48-29.73-24.25-52.67-3.4-6.62-6.64-12.65-9.61-18.01-.53-1.05-1.09-2.09-1.68-3.11-.72-1.24-1.44-2.48-2.16-3.71-1.81-3.18-3.48-6.04-4.96-8.55,0,0,.01.02.02.03-9.98-17.18-20.02-34.34-30.27-51.36-6.39-10.61-13.69-20.69-20.25-31.2-6.7-10.73-15.41-19.88-23.33-29.64-3.99-4.92-7.61-10.19-12.06-14.66-13.46-13.52-14.37-10.78-23.73-22.26-2.99-3.67-6.3-8.3-12.7-10.65-3.15-1.15-6.01-1.37-7.93-1.38-2.15-3.27-6.8-7.52-9.25-14.24-2.78-7.63-7.75-13.59-12.44-19.86-14.04-18.81-29.58-40.31-36.11-48.12-4.35-5.21-7.16-11.49-10.92-17.12-.76-1.13-2.57-3.87-2.98-7.76-.15-1.43-.08-2.93.27-4.56.5-.11,1.24-.28,2.14-.47,1.45-.3,1.76-.34,2.21-.44,1.41-.34,3.78-1.3,3.73-2.03-.09-1.4-8.97-1.98-13.24-2.26-2.58-.17-4.71-.23-6.14-.26-1.4-3.99-9.56-27.35-14.34-48.55-.43-1.91-.94-9.93-1.92-25.98-.21-3.45.61-6.61,3.06-9.35,2.4-2.69,4.4-5.72,6.77-8.44,2.05-2.35,2.94-4.47-.39-7.29-8.26,7.16-14.11,15.16-13.3,26.56.16,2.24.74,4.55.36,6.7-1.76,10.12.95,17.85,2.12,26.03,2.85,19.95,12.82,36.21,8.96,38.69-.58.37-1.52.67-3.2,1.69-1.66,1-3.71,3.1-3.29,4.15.72,1.81,8.11-1.22,17.57,1.78.78.25,1.4.48,1.79.63,1.1,2.61,2.82,6.69,4.96,11.69,7.52,17.59,9.55,21.61,12.8,30.26.83,2.21,2.5,7.41,5.98,17.78,3.14,9.37,6.74,18.65,8.98,28.22,2.24,9.59,3.06,19.5,4.47,29.28.25,1.78.71,3.66.34,5.35-.33,1.52-1.35,3.56-2.61,4.08-1.43.59-1.78.95-2.31,1.48-2.49,2.49,2.76,11.1,2.76,11.1,8.41,13.81,29.42,35.28,36.33,43.92,6.48,8.11,13.01,16.36,18.03,25.36,9.1,16.32,17.27,33.17,25.46,49.97,3.65,7.48,6.7,15.28,9.51,23.11,5.69,15.87,10.94,31.9,16.58,47.79,1.95,5.49,4.47,10.79,6.81,16.15,4.68,10.72,9.34,21.45,14.14,32.12,5.82,12.95,11.25,26.1,17.78,38.7,8.72,16.81,19.27,32.54,31.06,47.52,11.24,14.28,22.7,28.47,37.19,39.46,18.04,13.69,33.55,29.79,48.86,46.1,12.69,13.53,24.09,28.22,36.47,42.04,8.28,9.25,16.15,19.07,26.75,25.97,9.89,6.44,19.98,12.6,30.21,18.49,6.49,3.74,13.86,6.1,20.02,10.24,27.6,18.55,31.36,26,57.09,39.71,20.82,11.09,45.29,17.52,48.94,11.93,1.69-2.58-.48-8.13-3.47-12.71ZM536.3,546.49c7.39,4.67,14.57,10.05,20.61,16.28,5.21,5.38,9.23,12.21,6.44,21-.8-.6-1.34-.88-1.71-1.3-3.16-3.56-7.66-5.53-10.06-10.27-2.24-4.42-6.67-7.76-10.14-11.58-3.34-3.67-6.51-7.52-10.1-10.95-3-2.87-6.48-5.26-9.75-7.85,6.03-2.07,10.52,2.02,14.71,4.66ZM488.55,530.83c2.42-2.59,4.47-2.09,6.44-.59,4.86,3.69,9.62,7.53,14.52,11.18,2.71,2.02,5.51,3.99,8.48,5.61,6.68,3.66,12.36,8.23,16.94,14.38,3.48,4.67,8.01,8.56,11.83,13,2.67,3.11,2.34,5.84,4.91,8.37,3.61,3.55,8.44,4.59,11.95,4.91.58,6.91.3,12.96-2.59,19.04-6.46-1.21-10.61-5.61-15.38-8.84-11.54-7.81-18.95-19.16-26.58-30.34-2.89-4.23-6.23-8.2-9.65-12.04-4.96-5.57-10.31-10.8-15.24-16.4-2.18-2.47-3.74-5.46-5.62-8.28ZM561.35,625.3c-3.8.3-5.2,2.07-5.48,5.11-2.4-1.08-4.53-1.97-6.6-2.97-1.16-.56-2.49-1.08-3.31-2-3.9-4.34-7.73-8.75-11.44-13.26-4-4.87-7.54-10.15-11.83-14.75-3.37-3.61-5.74-7.59-7.03-12.16-1.37-4.86-4.08-8.92-6.79-13.09-3.8-5.82-7.23-11.88-10.81-17.84.46-.36.92-.72,1.38-1.07.85.68,1.86,1.23,2.52,2.06,6.88,8.63,14.36,16.74,19.49,26.74,5.93,11.57,16.61,18.89,27.39,25.72,5.72,3.63,11.85,6.62,17.8,9.9-.54,6.25-.83,7.25-5.29,7.6ZM602.42,710.72c7.46,9.55,11.79,17.84,20.71,29.95,15.05,20.43,18.07,30.48,33.93,56.73,4.86,8.04,12.33,20.2,21.94,34.99,7.54,15.83,16.52,35.06,23.26,50.66,3,6.94,5.57,13,5.57,13,7.32,15.48,12.42,28.56,15.82,37.97,5.6,15.51,7.45,23.52,7.22,23.59-.74.24-5.35-9.84-7.13-13.74,0,0-11.7-25.58-36.92-78.43,0,0-4.36-9.14-12.43-24.61-12.81-24.57-22.79-42.03-34.71-62.66-21.24-36.76-30.87-51.38-38.71-61.93-4.9-6.59-10.5-13.6-10.5-13.6-11.37-14.23-17.05-21.35-20.39-23.8-6.32-4.62-9.81-9.77-14-13.67-8.79-8.21-14.4-12.77-14.39-12.78.03-.03,32.19,21.82,60.73,58.35ZM511.22,617.67c9.06,10.41,14.28,22.23,20.59,35.17-4.03-4.15-6.77-7.22-9.78-10.02-4.8-4.48-11.3-18.78-10.82-25.15ZM500.96,662.1c-3.53-.91.56-16.45-3.45-33.22-1.21-5.05-2.41-9.58-3.46-14.69-1.29-6.25-1.09-6.83-2.96-10.58-3.95-7.96-7.16-16.28-11.23-25.68,2.05.91,3.05,1.03,3.46,1.58,5.84,8.01,11.76,15.97,17.29,24.19,1.56,2.31,2.73,5.4,2.7,8.12-.13,13.17,6.88,23.45,13.47,33.95,1.2,1.92,2.74,3.83,2.74,3.83-2.99,1.19-7.49,3.32-12.05,7.15-4.18,3.51-5.14,5.7-6.5,5.36ZM938.67,1221.53c-12.04-4.39-20.42-9.75-24.28-12.27-33.35-21.79-41.17-35.7-60.14-42.42-2.94-1.04-11.57-5.19-22.67-11.06-2.96-1.57-5.63-3.8-8.11-6.07-6.17-5.64-11.79-11.93-18.32-17.12-8.52-6.78-13.52-16.23-20.54-24.09-12.59-14.09-25.55-27.85-38.24-41.84-8.78-9.67-18.44-18.5-28.77-26.4-5.67-4.34-11.2-8.89-16.7-13.39-6.04-4.93-11.3-10.91-16.38-16.85-7.47-8.74-14.61-17.76-21.61-26.87-1.68-2.18-3.04-5.05-6.08-10.44-4.59-8.1-11.24-19.87-19.72-36.61-6.85-13.52-10.22-21.55-15.47-32.87-1.78-3.84-3.01-7.92-4.57-11.87-5.03-12.72-9.57-25.65-15.28-38.06-5.74-12.48-8.48-25.92-14.05-38.43-5.19-11.67-9.75-23.62-14.29-35.56-6.9-18.14-17.24-34.49-27.41-50.88-4.23-6.81-10.05-12.67-15.07-19.01-9.39-11.86-18.03-24.33-28.07-35.67-.69-.78-1.08-1.25-1.36-1.78,0,0-.17-.32-.29-.64-.43-1.12,1.45-6.99,8.68-12.65,2.39-1.87,6.26-4.42,11.81-6.24,1.18,1.48,2.01,2.38,2.81,2.9,3.52,2.28,5.99.07,12.28,1.79,2.31.63,3.83,1.43,5.87,2.51,6.69,3.53,11.73,8.32,29.75,27.34h0c14.24,15.76,16.44,18.15,20.55,23.51,3.54,4.61,1.26,1.76,14.29,20.49,18.73,26.92,19.75,29.49,22.03,33.15-.58.31,41.25,69.71,67.22,130.53.93,2.18,2.47,5.82,4.64,10.6,5.96,13.11,10.31,20.83,15.18,30.04,0,0,12.18,23.07,23.37,48.18,0,.02,0,.04.01.06,0,0,0,0,.01,0,0,0,0,0,0,0l-.02.02s.02,0,.03,0c1.32,2.97,2.63,5.98,3.91,8.97.16.39,1.74,4.05,3.83,8.82,0,.01,0,.02,0,.02,2.94,6.83,7.39,16.57,13.5,27.91,4.38,8.14,21.65,39.43,55.21,76.81,23.83,26.54,55.14,55.32,62.36,63.64,2.13,2.45,5.33,5.79,9.39,9.65,1.1,1.05,2.23,2.06,3.41,3.02,9.32,7.55,18.91,14.8,28.63,21.84,7.71,5.58,15.81,10.64,23.7,16,1.61,1.1,3.03,2.48,5.53,4.56-2.5-.65-6.2-1.69-10.56-3.28Z"/><path class="cls-1" d="M353.79,503.08c1.48,2.43,2.71,5.12,4.55,7.29,2.08,2.44,1.42,4.33,2.98,5.38,2.09,1.4,5.18,1.08,7.29-.04,1.81-.96,2.01-2.03,4.55-6.04,3.77-5.95,5.57-6.34,7.2-10.99.59-1.67.89-3.52,1.8-4.99,3.22-5.16,6.38-10.4,10.06-15.24,5.74-7.54,11.91-14.77,17.87-22.15,1.34-1.65,3.36-3.09,2.27-6.94-20.39,17.59-33.68,39.56-48.19,60.93-.82-.95-1.53-1.54-1.95-2.29-2.19-3.86-2.67-7.97-2.39-12.37.2-3.18,1.52-7.05-2.02-9.33-1.15-.74-1.81-1.54-2.12-2.41-.58-1.6.02-3.19.36-4.01,2.35-5.79,3.53-8.68,4.35-9.83,14.65-20.59,22.93-29.72,30.22-36.42,5.84-5.37,11.87-10.53,17.76-15.84.81-.73,1.3-1.82,1.93-2.74-.33-.36-.66-.72-.99-1.08-3.74,2.38-7.77,4.41-11.17,7.19-11.63,9.51-21.85,20.39-31.39,31.91-1.81,2.19-3.98,4.09-6.7,6.85-1.85-3.26-3.21-5.65-4.45-7.83-10.4,3.95-21.51,2.81-32.17,4.5-10.63,1.68-21.47,2.07-32.21,3.02.03.44.06.89.09,1.33,11.43.55,22.75,2.59,34.35.58,5.48-.95,11.15-1.01,16.89.48,7.05,1.83,8.02,2.51,8,9.77-.02,6.71.43,13.43.54,20.14.02,1.27-.22,2.81-.94,3.79-4.19,5.69-4.33,12.66-6.31,19.02-.9,2.88-.51,5.74,3.13,7.23,1.32.54,2.44,2.02,3.21,3.32,3.22,5.43,6.41,10.89,9.36,16.46,7.64,14.42,12.47,29.89,17.46,45.32,5.68,17.57,11.03,35.22,12.33,53.71.46,6.61,1.44,12.95,4.38,18.9,2.15,4.35,5.67,8.06,5.48,13.45-.05,1.51,1.56,3.09,2.34,4.51,6.3.18,6.1-4.57,7.46-7.96-.45-.6-.63-1.15-.99-1.29-7.81-3.23-9.69-9.9-10.67-17.26-1.41-10.58-2.24-21.33-4.81-31.65-3.24-13.01-5.77-26.33-11.97-38.51-1.1-2.17-1.44-4.71-2.16-7.07-1.25-4.08-2.13-8.33-3.87-12.2-5.52-12.3-11.21-24.54-17.2-36.63-1.7-3.44-4.62-6.29-7.52-10.12q1.17-9.32,4.01-11.85Z"/><path class="cls-1" d="M777.3,1454.84c-5.3-19.98-11.65-39.73-18.3-59.33-7.88-23.23-16.48-46.23-24.9-69.27-4.32-11.83-8.46-23.77-13.55-35.29-6.39-14.48-11.67-29.28-15.86-44.48-4.57-16.56-4.45-18.12-7.65-29.28-8.24-28.73-18.56-47.06-21.66-52.39-1.18-2.03-1.19-1.64-2.77-4.65-6.08-11.54-12.43-22.96-18.07-34.7-4.77-9.92-8.59-20.26-13.03-30.34-4.16-9.45-9.26-18.56-12.71-28.24-5.36-15.03-14.41-28-22.18-41.7-.33-.58-.85-1.06-1.25-1.61-7.38-9.98-14.84-19.89-22.1-29.95-7.12-9.86-13.65-20.16-21.13-29.75-10.47-13.41-19.49-27.67-27.7-42.46-3.94-7.1-7.64-14.32-11.35-21.54-2.57-5.01-5.16-10.02-7.41-15.17-5.94-13.61-11.67-27.3-17.53-40.94-4.61-10.73-9.95-21.21-13.81-32.19-5.96-16.95-10.93-34.23-16.34-51.36-2.09-6.63-3.61-13.52-6.51-19.8-2.42-5.23-3.66-10.52-4.63-16.06-1.59-9.08-3.55-13.37-3.83-17.09-.32-4.34-.17-10.86,2.5-18.95,5.38,4.36,7.56,9.24,7.18,15.27-.24,3.72,0,7.23,4.44,8.56,2.25-1.77,3.57-3.63,4.05-5.65.77-3.21-.64-6.07-1.42-7.54-7.09-13.55-19.43-25.04-16.97-31.78.25-.67.14-1.74.89-3.04,1.88-3.25-1.23-5.73-3-8.31-1.63-2.37-3.57-2.41-6.68-.96-2.04-5.09-4.61-9.9-5.88-15.03-1.76-7.14-2.23-14.58-3.81-21.77-2.83-12.88-4.01-26.17-10.62-38.13-3.8-6.89-7.07-14.15-9.69-21.55-2.52-7.1-3.88-14.6-5.79-22.07l13.24.47c.91,3,1.62,6.25,2.87,9.29,6.9,16.83,5.72,25.17,8.73,36.58,1.13,4.29,4.53,16.37,11.33,30.05,3.02,6.08,5.03,2.26,19.13,31.46,3.67,7.6,11.44,23.67,10.85,31.52-.23,3.03.02,4.68.5,7.97.12.81.71,3.08,1.94,5.73,1.33,2.85,4.15,3.45,6.91,3.36.99-.03,2.45-1.38,2.79-2.42.86-2.62-.31-4.81-2.52-6.44-.18-.13-.39-.24-.61-.3-1.53-.4-2.49-1.39-2.7-1.55-1.68-1.18-1.13-5.22-1.1-5.46.97-7.45-18.87-44.51-30.01-68.13-7.69-16.31-11.57-24.65-13.34-33.92-1.11-5.83-2.2-15.03-4.63-23.04-1.58-5.2-2.62-10.26-2.88-16.42-.09-1.81-1.21-3.42-2.88-4.16-1.63-.72-3.55-.51-4.98.56.46-3.29.8-5.9,1.19-8.51.59-3.97.54-8.19,1.95-11.86,4.36-11.34,3.07-23.03,3.04-34.66,0-.5-.71-1-1.52-2.07-.85,1.35-1.88,2.27-2,3.3-.41,3.57-.64,7.17-.68,10.76-.08,6.79-.85,13.34-3.52,19.76-1.86,4.46-3.31,9.11-2.46,14.38.94,5.8-4.1,9.49-9.94,8.04-1.52-.38-2.99-.97-5.29-1.73.87-1.73,1.21-3.82,2.39-4.51,5.04-2.92,4.76-7.04,3.61-11.57-4.1-1.49-6.42.46-7.9,3.57-1.97,4.13-3.65,8.39-5.57,12.86-1.77-1.09-3.65-2.23-5.76-3.53,2.1-12.15,6.29-23.33,11.97-33.77,5.6-10.29,12.48-19.9,18.8-29.81l-1.31-.78c-4.62,5.44-11.37,13.89-18.5,24.94-11.69,18.11-22.36,40.06-17.04,44.63,1.81,1.55,7.13,2.54,10.07,2.83,2.38.24,4.12.1,6.04,1.35,1.57,1.01,2.87,2.58,3.62,4.69.98,2.75,2.29,5.41,3.12,8.2,3.51,11.83,7.37,23.44,12.67,34.72,5.84,12.41,9.31,25.74,11.26,39.42,2.2,15.47,9.9,28.67,19.15,53.42,1.55,4.15,2.84,7.55,3.68,9.77-1.55,5.8-3.59,15.43-3.36,27.35.21,11.31,3.99,19.41,13.08,53.7,2.77,10.44,5.2,17.33,9.91,30.82,8.35,23.94,13.79,35.09,22.84,57.25,7.19,17.62,12.36,32.11,22.81,61.03,12.32,34.08,15.12,44.57,25.61,68.18,5.45,12.25,11.33,24.48,13.17,28.15,8.18,16.32,16.59,32.53,24.97,48.75,4.45,8.62,9.53,16.95,13.41,25.8,7.41,16.89,14.52,33.92,21.1,51.14,5.94,15.54,10.47,31.6,16.56,47.07,8.3,21.09,12.19,43.26,17.89,64.99,3.76,14.35,7.9,28.6,11.56,42.97,3.27,12.84,6.11,25.78,8.12,39.08-1.44-3.78-3.07-7.51-4.3-11.35-2.12-6.59-4.21-13.19-6.29-19.79.52-.37-17.54-57.98-26.59-96.57-.05-.21-.2-1-.47-2.25,0,0-1.98-9.19-5.09-18.45-5.08-15.11-25.74-66.14-32.36-82.72-9.04-22.68-11.21-29.62-18.48-43.43-2.71-5.14-3.64-6.53-14.12-25.22-5.68-10.13-11.48-20.37-17.07-30.7-8.56-15.83-20.28-37.5-30.84-65.48-6.69-17.73-5.64-18.7-12.05-33.94-7.15-17.01-20.18-43.64-23.73-42.42-3.93,1.34,8.04,35.11,17.96,97.14,3.44,21.53,4.52,38.6,7.94,61.22,1.74,11.47,6.96,43.55,6.82,76.38-.06,15.01.4,30.05,1.37,45.03.85,13.12,1.66,24.63,4.69,53.68,7.92,76.08,10.36,82.85,10.64,106.46.06,5.15.12,19.8,1.06,40.1.29,6.22.59,12.22,1.38,24.2,1.05,16.11,2.05,32.22,3.2,48.32.89,12.53,1.47,25.12,3.09,37.56,2.81,21.6,6.16,43.11,11.54,64.3,3.76,14.81,6.21,29.93,9.82,44.77,2.35,9.67,6.03,24.17,12.42,46.24,13.63,47.06,24.54,76.56,24.07,76.72-.44.15-9.4-25.96-27.03-74.96-1.95-5.43-6.22-18.98-11.77-37.17-1.58-5.16-2.8-10.43-3.99-15.69-4.12-18.19-8.59-36.32-12.09-54.63-3.62-18.96-6.39-38.08-9.31-57.17-2.31-15.1-4.53-30.23-6.32-45.39-.78-6.63-.34-13.39-.5-20.09-.17-7.18-.55-14.36-.53-21.53.04-11.68.53-23.35.5-35.03-.04-14.37.13-28.77-.78-43.09-.97-15.22-2.76-30.41-4.84-45.53-1.98-14.44-5.3-28.71-7.11-43.16-1.98-15.81-3.14-31.73-4.24-47.62-1.27-18.37-2.18-36.76-3.07-55.15-.18-3.64-.28-6.78-.34-9.54-.17-8.06-.12-13.94-.11-14.61.13-15.67-16.43-145.45-23.07-144.67-3.2.38,5.63,29.96-6.48,71.19-3.06,10.43-3.35,8.62-19.49,52.48-4.04,10.98-7.87,22.02-11.8,33.04-4.61,12.93-9.13,25.89-13.86,38.77-3.8,10.34-7.98,20.54-11.79,30.88-3.66,9.91-7.47,19.79-10.5,29.89-11.4,37.91-22.79,75.82-33.6,113.89-5.22,18.37-9.07,37.12-13.66,55.66-3.4,13.75-7.42,27.36-10.42,41.18-6.78,31.24-15.61,61.89-26.7,91.9-11.47,31.03-22.95,62.07-35.05,92.87-4.1,10.43-9.93,20.22-15.27,30.13-6.94,12.89-13.58,26-21.49,38.3-7.91,12.3-17.25,23.71-25.92,35.54-3.86,5.28-7.57,10.67-11.41,15.96-9.46,13.07-21.03,24.19-33.29,34.68-4.3,3.67-8.38,7.61-12.36,11.62-26.23,26.4-39.32,40.16-39.32,40.16-2.65,2.97-6.68,7.55-7.53,6.99-1.03-.68,3.67-8.24,9.32-24.15.56-1.59.43-1.7.89-2.55,8.05-14.83,15.95-29.73,27.45-42.45,3.92-4.33,6.89-9.48,10.6-14.01,5.7-6.97,12.07-13.44,17.36-20.68,3.67-5.03,6.53-10.81,8.84-16.61,5.82-14.63,10.65-29.66,16.77-44.16,5.23-12.41,11.58-24.38,17.65-36.43,7.52-14.93,13.67-30.29,17.48-46.6,2.19-9.39,5.82-18.45,8.01-27.84,4.34-18.56,9.13-37,11.29-56.06,1.46-12.87,5.43-25.45,7.79-38.25,3.69-19.97,11.79-38.63,17.5-57.99,2.71-9.19,7-17.95,10.87-26.78,6.77-15.45,13.82-30.79,20.67-46.21,3.09-6.96,5.95-14.02,9.03-20.99,2.54-5.76,5.26-11.44,7.9-17.16,1.89-4.08,3.71-8.2,5.72-12.22,2-4,4.23-7.88,6.29-11.84,1.86-3.58,3.58-7.24,5.46-10.82,0,0,5.33-10.79,15.67-30.57,7.38-14.11,7.61-12.82,30.72-52.22,15.51-26.45,14.38-24.7,18.35-31.25,10.7-17.63,13.07-20.39,19.34-34.16,5.29-11.63,9-23.95,13.95-35.74,4.69-11.15,7.31-22.93,11.53-34.21,1.05-2.82,1-5.17,1.24-6.6,3.67-21.77,2.63-42.01,2.19-55.71-.89-27.83.76-24.85-.14-43.81-1.65-34.75-6.89-38.89-19.88-109.66-3.64-19.86-9.07-34.53-11.92-44.89-1.77-6.45-5.24-12.43-7.72-18.71-.71-1.79-.94-3.89-.85-5.82.03-.73.47-2.38,1.81-3.42,1.88-1.47,3.88-.26,5.24-.89,4.19-1.95-.56-20.15-3.75-34.25-1.94-8.56-3.32-15.7-4.23-20.66-3.45,3.91-3.77,3.95-3.36,7.48.65,5.56,1.52,11.13,2.75,16.6,1.91,8.51,4.19,16.93,6.45,25.91-2.58.8-4.85,1.5-7.13,2.2-3.69-4.77-4.46-9.87-5.24-14.96-1.32-8.65-2.69-17.3-3.87-25.97-1.76-12.88-3.66-25.76-4.93-38.69-.82-8.25-2.57-15.92-8.03-22.48-1.29-1.55-2.34-3.35-3.18-5.18-7.4-15.93-15.54-31.58-19.11-48.96-.46-2.22-1.68-4.28-2.55-6.42-.16.04-.33.09-.49.13-.34.37-.69.73-1.07,1.08,0,1.39-.06,2.78.18,4.13.84,4.64,2,9.23,2.77,13.88,2.63,16.06,10.24,30.24,17.93,44.25,3.1,5.64,5.87,11.12,6.72,17.41,2.23,16.47,4.03,33,6.57,49.43,1.85,11.94,4.61,23.73,7.04,36.03-.33.24-.81.61-1.36,1.06-3.66,2.99-7.15,7.04-8.49,10.12-1.85,4.26-.29,8.28,1.09,13.21,4.19,14.99,3.78,28.16,3.44,38.13-.19,5.59-1.15,11.16-1.73,16.74-1.35,12.95-2.18,25.97-4.14,38.82-2.81,18.39-6.19,36.7-9.79,54.95-3.73,18.93-8.09,37.67-8.46,57.15-.32,17.05-1.63,34.12-3.35,51.09-.81,7.95-2.98,15.93-5.68,23.5-6.56,18.44-15.82,35.74-24.34,53.35-5.38,11.13-9.82,22.71-14.37,34.21-3.88,9.8-7.29,19.77-11,29.64-1,2.67-2.34,5.21-4.84,7.67-.09-1.34-.55-2.77-.22-4.01,5.06-19.35,8.95-38.91,11.81-58.71,2.21-15.29,5.55-30.42,7.62-45.73,1.38-10.21,1.27-20.61,2.09-30.91,1.87-23.48,3.39-47,6.08-70.39,1.37-11.93,5.12-23.59,7.53-35.42,2.1-10.33,3.99-20.71,5.69-31.11,2.82-17.26,5.23-34.59,8.18-51.83,2.68-15.69,6.32-31.23,8.65-46.96,0,0,2.03-7.37,3.3-38.21.02-.55.1-3.19-1.2-6.02-.56-1.21-1.01-2.19-2.05-2.82-1.98-1.19-3.9.49-5.64-.67-1.06-.72-1.71-2.05-2.48-4.38-2.82-8.53-6.8-16.8-8.21-25.65-.46-2.88-6.34-39-15.07-58.61-1.09-2.46-4.55-9.86-6.64-20.54-.8-4.09.11-3.83-1.12-7.12-3.53-9.47-7.4-18.82-10.94-28.29-1.29-3.46-2.02-7.11-3.3-11.76,1.53-2.82,2.5-7.39,7.28-9.55,4.54,1.72,5.17,5.93,6.56,9.64,1.79,4.79,2.92,9.97,5.51,14.31,11.61,19.46,19.85,39.85,20.05,62.79.02,2.23.4,4.48.78,6.69,4.23,24.89,9.46,49.45,22.77,71.6,2.27,3.77,3.09,8.38,4.67,12.56.68,1.8,1.59,3.51,2.53,5.53,2.36-1.65,5.25-4.18,4.94-6.87-.3-2.61-3.46-4.18-4.55-4.8-2.35-1.33-7.71-5.4-16.62-43.39-.79-3.38-3.04-13.36-5.5-26.36-1.21-6.39-1.72-12.93-3.33-19.21-2.34-9.12-4.98-18.13-5.25-27.64-.07-2.61-.68-5.42-1.85-7.75-4.35-8.65-9.63-16.88-13.45-25.74-4.15-9.6-8.83-19.29-7.93-30.24.26-3.17-1.34-4.68-4.06-6.21-5.5-3.1-10.92-6.46-15.91-10.29-7.55-5.79-14.72-12.05-22.02-18.16-2.95-2.47-6.35-4.65-8.61-7.65-9.57-12.69-22.6-10.99-36.11-9.43.7,3.47,2.75,3.94,5.19,3.3,7.16-1.88,13.35,1.8,19.83,3.45,2.44.62,4.53,2.92,6.55,4.7,7.3,6.41,14.41,13.03,21.77,19.38,7.2,6.21,14.62,12.17,21.91,18.27.49.41.75,1.1,1.28,1.89-.58.87-1.03,1.94-1.81,2.67-4.66,4.39-8.33,9.42-10.97,15.23-.92,2.03-2.34,3.85-3.56,5.75-1.69,2.63-4.43,3.15-6.41,1.27-2.85-2.71-5.62-5.94-7.03-9.49-1.18-2.96,3.13-3.01,3.83-6.53.78-3.87-2.05-7.68-4.92-11.55-1.97-2.65-4.01-4.24-4.46-5.04-3.83-6.85-10.11-10.87-16.65-14.64-6.68-3.86-13.29-7.9-20.2-11.32-4.41-2.18-9.28-3.52-14.04-4.89-1.08-.31-2.58.81-4.83,1.6,1.96,1.44,2.9,2.39,4.03,2.91,3.28,1.52,6.79,2.61,9.94,4.35,4.95,2.73,9.4,6.44,14.54,8.67,11.39,4.92,19.36,13.31,26.15,23.1.64.92.54,2.34.76,3.44-1.32-.14-3.2-.3-5.48-.31-3.19-.01-4.79-.02-5.03.35-1.62,2.55,15.15,17.46,20.02,25.99,0,0,0,0,0,0,0,0,1.31,3.83,1.92,7.91.85,5.7.86,16.47.86,16.47,0,8.29,2.83,15.16,8.15,29.04,2.32,6.06,4.82,12.08,7.72,17.89,3.5,7,5.36,14.36,5.88,22.03,1.04,15.46,1.63,30.94,2.78,46.39.6,8.03,2.05,16.01,3.01,24.02.31,2.55-.04,4.74-1.06,6.47.28,1.63.77,3.97,1.62,6.73.95,3.08,2.35,7.62,3.83,7.54,1.16-.06,1.99-2.51,2.28-3.39,1.71-5.13.37-9.89-.07-11.51-1.58-5.87-2.5-11.96-2.61-18.02-.08-4.59-.27-11.55-.76-20.48,12.72,24.82,18.54,34.85,20.86,37.65.56.68,1.91,2.12,2.57,4.46,1.01,3.58-.55,5.78.6,7.05.72.79,2.56,1.29,7.92-.8-.72,3.1-1.79,7.84-2.92,13.64-4.8,24.54-3.28,31.86-6.69,52.1-3.09,18.37-7.59,36.51-11.19,54.81-1.51,7.7-2.57,15.52-3.33,23.33-1.21,12.51-2.14,25.05-2.94,37.59-1.21,18.83-1.92,37.7-3.37,56.51-1.54,20.14-3.38,40.27-5.71,60.34-1.13,9.78-3.73,19.39-5.58,29.09-2.7,14.12-5.3,28.25-7.99,42.37-.45,2.38-1.17,4.72-2.08,8.31-2.73-4.22-2.12-7.75-2.21-11.06-.12-4.48-.17-8.98.1-13.46.79-13.2,1.65-26.39,2.68-39.57.79-10.07,2.65-20.12,2.67-30.19.05-22.18.28-44.41-4.71-66.3-1.89-8.27-2.74-16.76-4.16-25.13-1.57-9.27-3.32-18.52-4.84-27.8-.47-2.86-.34-5.81-.65-8.7-.84-7.97-1.95-15.93-2.58-23.92-.39-4.91-.26-9.87-.1-14.81.44-13.46.82-26.93,1.6-40.38.25-4.37.2-1.77,2.9-27.24.02-.22.04-.35.04-.35,1.3-12.13,5.1-28.67,7.66-46.27.79-5.41,1.17-8.92.03-9.35-1.36-.51-4.24,3.64-6.23,6.84-2.33.42-4.65.84-6.98,1.26-3.27-1.99-4-5.02-4.25-8.58-.24-3.53-.64-7.21-1.92-10.47-7.37-18.67-9.81-38.16-10.87-57.95-.57-10.76-1.58-21.51-2.45-32.25-.97-12.08-1.99-24.16-3.02-36.24-.19-2.21-.57-4.41-.95-7.23,2.73-1.68,5.74-3.52,9.24-5.67,1.4,3.51,2.56,6.84,4.04,10.03,1.42,3.06,3.18,5.97,4.77,8.95.21.39.37.84.42,1.28,1.14,10.23,2.33,20.45,3.35,30.68.58,5.8,1.06,11.62,1.25,17.44.18,5.37-.11,10.76-.17,16.15-.02,2.01-.3,4.1.12,6.02,2.53,11.61,5.27,23.17,7.82,34.77.32,1.45-.06,3.04-.11,4.56-.06,2.11-.61,4.39.01,6.29.41,1.25,2.53,2.72,3.88,2.72,1.4,0,3.63-1.39,4.02-2.63.64-1.99.65-4.56-.1-6.52-5.1-13.39-6.34-27.55-8.95-41.43-.32-1.73-.12-3.57-.03-5.36.35-6.99.01-13.84-2.21-20.62-1.07-3.26-.24-4.24-.46-8.26-.34-6.11-1.08-14.91-2.86-26.04,5.2,12.85,10.44,29.7,12.83,49.86,1.27,10.72,1.51,20.55,1.21,29.23,6.92.23,8.21-.73,7.74-5.9-1.41-15.34-2.74-30.68-7.93-45.42-1.63-4.64-1.98-9.7-3.44-14.4-2.33-7.51-4.91-14.96-7.79-22.28-1.54-3.9-2.28-2.45-4.84-6.38-2.23-3.43-6.72-10.52-7.9-20.42-.48-4.01.13-3.9-.54-6.01-1.31-4.11-4.44-7.08-12.86-12.56-6.96-4.54-6.92-4.37-11.07-6.7-9.2-5.18-15.91-12.61-20.95-21.69-1.41-2.54-3.47-4.74-5.03-7.21-1.47-2.34-2.68-4.84-4.16-7.54-2.73,2.53-1.19,4.39-.44,6.06,6.36,14.26,14.81,26.82,29.22,34.55,2.8,1.5,5.31,3.5,7.93,5.31,4.67,3.22,7.54,7.69,9.49,12.9.94,2.51.48,4.34-1.68,5.86-4.06,2.86-12.31,3.99-15.44,6.74-3.21,2.82-1.81,8-.42,17.88.91,6.47-1.51,18.27,2.61,40.9,1.11,6.11,1.17,12.55.65,18.76-.82,9.9-.95,19.73.63,29.53,1.21,7.54,2.85,15.02,3.96,22.57.33,2.27-.2,4.79-.94,7-.2.61-3.34,1.19-3.82.65-3.78-4.2-8.08-7.72-8.4-14.48-.55-11.83-2.74-23.59-3.83-35.41-.57-6.2-.5-12.49-.29-18.73.27-7.85,1.95-15.77,1.25-23.5-.72-7.9-1.24-15.98-4.31-23.68-1.95-4.9-3.4-10.54-2.98-15.67.45-5.53-.94-10.11-3.07-14.79-1.12-2.46-2.45-4.83-3.79-7.18-3.35-5.86-6.64-11.75-10.18-17.5-2.11-3.43-4.78-6.54-6.96-9.94-4.13-6.45-7.95-13.1-12.19-19.48-1.95-2.93-4.34-5.76-9.51-6.02.41,2.54.53,4.63,1.12,6.59,1.42,4.71,3.14,9.34,4.61,14.04,2.27,7.27,3.59,14.98,6.92,21.74,2.7,5.49,4.53,11.18,6.81,16.76.51,1.25.7,2.65,1.33,3.82,1.04,1.93,1.99,4.2,5.92,3.42-1.95-6.85-3.29-13.86-5.96-20.33-2.74-6.65-7.27-12.59-8.59-20.86,1.31,1.11,1.9,1.45,2.27,1.95,8.04,10.69,15.3,21.87,20.5,34.16,1.42,3.36,1.1,7.47,1.31,11.24.05.93-.68,2.3-1.49,2.81-8.41,5.32-17.03,10.21-27.84,11.11-.08-2.36-.12-4.35-.21-6.33-.46-10.53-.4-21-8.73-29.53-6-6.14-9.01-9.87-11.03-13.55-1.24-2.25-3.59-6.81-4.99-12.89-3.29-14.31,1.01-26.45.1-26.65-.3-.07-1.05,1.24-2.99,7.42h0c-.35.8-.72,1.71-1.07,2.72-3.17,8.01-8.08,20.11-14.32,33.9-3.29,7.28-4.6,9.81-6.45,15.15-1.86,5.37-3.22,9.43-4.48,13.7-1.45,4.91-1.36,5.42-4.01,15.36-2.18,8.19-2.65,9.4-4.07,10.13-2.68,1.37-6.69-.58-14.61-4.54-3.6-1.8-6.51-3.47-8.57-4.71.78-1.51,1.52-3.02,2.12-4.26,4.2-8.61,8.63-17.11,12.84-25.71,1.51-3.09,3.01-6.19,4.46-9.3,2.36-5.03,4.19-10.43,5.33-15.85.92-4.36-.62-5.26-6.42-5.03,1.54,8.48-2.42,15.69-5.87,22.95-4.43,9.33-9.26,18.47-13.87,27.71-1.4,2.8-2.77,3.85-4.01,4.6-7.51,4.56-19.77-3.39-22.55-5.26,3.71-8.25,7.94-13.91,11.25-17.64,3.38-3.81,7.33-8.53,13.59-16,1.09-1.31,1.92-2.83,2.88-4.27-4.8-2.8-6.27-2.82-9.33,1.35-4.93,6.72-9.53,13.68-14,20.71-2.8,4.41-10.15,6.44-12.46,2.62-.69-1.15-.95-1.63-2.68-3.17-2.52-2.25-5.44-2.81-6.72-3.05-2.54-.46-7.25-.66-7.61.59-.61,2.14,12.64,4.26,16.26,13.38,1.58,3.97.87,7.72.13,10.15-3.63,11.95-4.73,24.22-6.77,36.36-3.12,18.59-5.79,37.26-8.09,55.97-1.72,14.04-3.31,28.17-3.6,42.28-.31,15.23.72,30.51,1.59,45.75.69,12.09,2.05,24.14,3.06,36.21,1.42,17.08,4.85,33.76,10.27,50.05,6.6,19.85,13.16,39.69,17.99,60.08,6.85,28.95,8.13,58.14,6.37,87.69-1.54,25.78-2.39,51.6-3.31,77.41-.43,12.11-.19,24.25-.48,36.37,0,0,.1,16.44,4.81,52.88,1.14,8.79,2.93,21.41,8.35,22.47,1.79.35,4.56-.44,6.49-2.04,2.29-1.89,2.99-4.51,3.31-6.03,1.65-7.88,3.24-15.78,4.91-23.66.79-3.73,1.36-7.56,2.62-11.13,6.69-18.95,15.87-36.62,27.71-53,2.57-3.55,4.46-7.83,5.62-12.06,2.84-10.36,5.56-20.75,7.72-31.32,1.7-8.29,4.27-16.52,5.19-24.97,1.85-16.95,3.03-33.96,4.79-50.92,1.18-11.37,2.82-22.69,4.41-34.01,1.65-11.74,3.69-23.43,5.21-35.19,1.15-8.88,1.56-17.84,2.65-26.73,1.15-9.34,2.94-18.6,4.04-27.94,1.94-16.47,3.63-32.96,5.29-49.46,1.41-14.03,2.97-28.05,3.82-42.11.78-12.76.14-25.52-1.63-38.26-1.23-8.85-1.25-17.87-1.78-26.81-.19-3.13.33-6.47-.59-9.37-2.76-8.74-2.97-17.68-3.3-26.66-.57-15.7-1.74-31.4.07-47.08.38-3.24.8-7.29,2.87-9.34,2.91-2.88,7.17-5.17,11.22-6.04,5.77-1.24,10.57-4.02,15.59-6.62,6.3-3.26,7.61-2.78,10.36,3.39,4.3,9.68,5.63,19.77,5.06,30.28-.6,10.98-1.46,22.03-.8,32.97.68,11.16,3.07,22.23,4.7,33.33.81,5.55,1.5,11.12,2.44,16.65.64,3.76,1.28,7.6,5.03,9.91,9.05,5.57,18.33,10.85,24.8,19.62.89,1.21,2.55,1.86,3.78,2.86,2.76,2.27,5.44,2.3,7.78-.44,2.45-2.87,5.41-2.76,9.65-1.89-.72,3.34-1.52,6.46-2.05,9.62-1.76,10.38-3.45,20.78-5.14,31.17-1.08,6.64-2.7,13.26-3.05,19.94-1.06,20.2-2.21,40.42-2.17,60.64.02,12.51,1.67,25.07,3.39,37.5,2.67,19.34,6.06,38.59,9.07,57.88,1.35,8.65,3,17.29,3.71,26,1.91,23.4,0,46.69-2.91,69.92-1.14,9.13-2.5,18.29-2.66,27.46-.05,3.16-.53,15.26,1.46,30.86,1.8,14.06,3.01,21.9,6.39,22.56,4.76.93,11.41-12.99,14.77-20.03,5.34-11.2,5.07-16.28,11.93-32.22,8.43-19.57,17.5-38.88,26.18-58.35,2.38-5.34,3.94-11.05,6.55-16.26,6.03-12.06,9.36-24.81,10.45-38.09,1.96-23.96,3.29-47.97,5.4-71.92.8-9.12,2.85-18.15,4.65-27.17,2.55-12.72,5.71-25.33,8.01-38.09,1.79-9.94,2.73-20.03,3.95-30.06,1.43-11.82,2.65-23.66,4.17-35.46,2.18-16.91,1.73-25.52.38-32.21-2.51-12.5-7.46-19.61-3.94-29.45,1.13-3.16,4.02-9.08,7.04-8.85,4.12.31,5.44,11.87,12.37,38.9,2.86,11.16,2.37,8.13,5.33,19.65,7.76,30.2,15.08,58.69,19.44,91.16,5.31,39.6,4.24,70.46,3.86,79.4-.88,21.07-2.73,50.49-12.97,81.25-3.12,9.38-7.23,18.43-10.73,27.69-11.14,29.47-26.5,56.62-46,81.51-1.8,2.3-3.92,4.41-5.36,6.9-9.16,15.88-16.45,26.9-22.63,40-5.67,12.03-11.62,23.93-17.37,35.93-15.55,32.47-16.45,34.23-20.95,43.91-5.5,11.84-10.72,23.82-15.97,35.77-7.15,16.28-14.63,32.44-21.22,48.93-9.1,22.79-16.44,46.2-22.39,69.98-3.76,15.04-7.87,30.08-10.14,45.36-2.68,18.04-5.52,35.98-10.36,53.57-4.54,16.47-8.48,33.16-14.28,49.2-5.78,16-13.05,31.54-20.57,46.86-8.54,17.38-17.93,34.32-22.61,53.3-2.69,10.92-8.82,20.09-16.41,28.39-5.32,5.82-10.63,11.67-15.54,17.81-4.57,5.71-7.63,10.31-11.01,15.37-24.27,36.37-28.75,47.18-31.06,53.36-4.27,11.48-7.25,19.64-3.67,22.76,5.69,4.98,25.81-6.05,37-14.15.51-.37,1.89-1.98,5.38-4.16,10.23-6.39,19.69-13.62,28.24-22.17,11.35-11.37,23.27-22.14,38.97-27.82,7.68-2.78,15.11-6.23,22.64-9.42,1.25-.53,2.36-1.37,3.59-1.94,11.79-5.39,21.1-13.99,30.29-22.72,5.08-4.83,10.84-9.23,14.86-14.81,7.48-10.38,14.17-21.36,20.74-32.34,6.82-11.4,13.14-23.09,19.63-34.68,5.39-9.64,10.86-19.24,16.02-29,4.19-7.94,8.78-15.83,11.72-24.23,4-11.43,7.11-23.22,9.68-35.06,3.14-14.47,5.91-29.07,7.73-43.75,1.63-13.19,2.87-26.35,7.41-38.96,2.58-7.18,5.25-14.33,7.77-21.53,3.56-10.18,6.96-20.41,10.55-30.58,3.82-10.81,7.65-21.63,11.71-32.36,7.4-19.54,11.49-40.11,19.5-59.48,4.37-10.58,7.2-21.77,11.18-32.52,4.76-12.84,9.66-25.59,12.75-38.98,5.15-22.34,10.87-44.53,9.72-67.77-.34-6.79.07-14.72-.27-30.3-.55-25-1.37-45.32-2-58.88-1.22-13.41-.21-26.29,2.93-38.9,6.58-26.46,10.27-30.9,13.02-49.43,1.59-10.72,1.32-17.03,2.27-17.06,1.57-.05,3.31,17.19,5.43,38.16,1.33,13.12,2.66,25.4,3.31,42.38.3,7.83.48,15.67.65,23.51.34,15.26.73,30.52,1.44,45.77.7,15.01,1.67,30.02,2.85,45.01.97,12.28,2.04,24.57,3.76,36.76,1.75,12.45,4.65,24.74,6.51,37.18,3.81,25.38,5.34,50.93,5.53,76.6.29,40.32-2.17,80.36-9.1,120.15-4.02,23.05-5.03,46.42-5.6,69.82-.69,28.37-.52,56.66,4.15,84.73,3.17,19.05,6.11,38.18,10.4,57,5.97,26.24,17.33,50.65,29.31,74.68,9.45,18.95,19.3,37.73,29.49,56.31,11.17,20.37,17.96,42.3,24.15,64.37,4.28,15.27,9.99,29.84,17.42,43.8,6.89,12.93,14.53,25.5,20.95,38.65,9.88,20.25,23.3,38.07,37.32,55.58,9.27,11.57,11.85,14.58,14.52,18.06,3.91,5.09,5.17,8.09,9.11,12.51,4.08,4.58,11.69,13.12,16.09,11.55,4.05-1.44,4.01-10.95,3.67-21.07-.87-25.75-.61-38.76-5.11-58.99-3.62-16.25-7.24-32.46-9.2-48.99-.74-6.22-1.2-12.48-1.63-18.73-.36-5.15-.3-10.33-.74-15.47-1.03-12.08-2.34-24.14-3.36-36.22-1.13-13.39-2.11-26.79-3.1-40.2-1.56-21.22-7.06-41.61-13.28-61.87-6.68-21.76-12.5-43.75-15.58-66.31-2.59-18.97-5.96-37.74-12.24-55.9-2.65-7.65-5.88-15.1-8.49-22.76-4.43-13-9.15-25.85-16.53-37.6-4.31-6.88-8.18-14.03-12.56-20.86-11.21-17.47-22.34-34.99-33.99-52.17-9.24-13.63-16.25-27.98-19.35-44.18-4.69-24.56-3.51-27.26-11.75-57.29-5.66-20.63-8.29-22.04-12.37-40.6-1.99-9.05-3.27-19.94-5.5-41.39-2.18-20.99-3.92-42.02-5.75-63.04-.76-8.7-1.16-17.42-1.94-26.12-1.53-16.99-3.67-33.95-4.71-50.96-.99-16.13-.81-32.32-1.3-48.48-.34-11.17-.54-22.37-1.55-33.5-.91-10.02-2.84-19.95-4.35-29.91-1.05-6.93-2.17-13.86-3.22-20.79-.62-4.09-1.02-7.02-1.13-7.83-3.16-22.16-10.48-52.1-8.89-52.55,1.36-.39,7.84,20.95,21.22,54.81,11.42,28.9,13.15,27.11,20.01,48.63,6.62,20.79,12.86,41.71,18.55,62.77,2.62,9.7,3.62,19.83,5.21,29.79.71,4.43.8,8.97,1.66,13.36,3.68,18.73,7.31,37.46,11.42,56.1,2.32,10.51,5.05,20.98,8.46,31.19,6.48,19.41,13.55,38.63,20.44,57.91,2.04,5.72,4.05,11.47,6.5,17.03,6.11,13.8,12.4,27.53,18.74,41.23,3.97,8.59,7.97,17.18,12.3,25.6,7.32,14.22,15.15,28.18,22.29,42.49,3.92,7.85,7.22,16.04,10.13,24.3,2.77,7.84,4.5,16.01,6.99,23.95,4.9,15.65,6.16,31.92,5.88,47.95-.36,21.06,2.13,41.63,5.66,62.24,1.32,7.74,2.4,15.52,3.74,23.26,2.39,13.76,3.01,27.64,3.46,41.57.7,21.77,4.78,43.34,4.4,65.2-.02,1.11.31,2.22.39,3.34.96,13.22,2.55,26.43,2.64,39.65,0,.92,1.96,11.17,5.75,31.66.37,2.02,1.27,6.58,3.93,7.31,3.02.83,7.27-3.55,9.39-5.74,1.67-1.73,2.74-3.2,3.09-3.73,5.4-8.07,10.78-16.11,13.2-25.7,1.32-5.25,3.09-7.52,3.5-8.77,2.71-8.27,2.92-13.83,4.53-28.33.22-1.99.7-5.98,1.67-13.94,2.77-22.85,3.74-28.6,4.43-32.37.83-4.56,1.68-8.3,3.37-15.78,6.08-26.93,8.52-32.15,11.22-48.94.82-5.09,1.05-10.29,2.07-15.33,2.44-12.1,5.25-24.13,7.79-36.21,3.73-17.72,5.4-35.67,2.88-53.61-2.18-15.54-4.99-31.1-9.01-46.27ZM357.55,709.22c-1.75-4.14-3.19-8.41-5.05-12.5-6.23-13.65-9.2-28.11-11.23-42.8-1.27-9.21-3.7-18.05-8.95-25.86-8.01-11.92-11.5-25.21-13.02-39.19-.7-6.44-1.65-12.85-2.52-19.45,4.93-.97,9.09-2.22,8.11-8.33.67.84,1.58,1.58,1.97,2.53,4.17,10.19,8.7,20.27,12.21,30.68,2.27,6.73,2.7,14.04,4.5,20.95,1.4,5.35,3.6,10.51,5.54,15.72,3.19,8.58,7.34,16.78,8.82,25.98,1.67,10.39,3.93,20.69,6.05,31,1.49,7.21,3.27,14.36,4.76,21.57.93,4.49-2.57,6.61-6.29,10.48-2-4.39-3.53-7.55-4.9-10.78ZM374.38,738.37c-1.7-2.79-3.55-5.52-5.54-8.12-1.3-1.7-2.97-3.14-4.69-4.91,2.3-2.38,3.99-4.44,6.01-6.13,2.65-2.21,5.53-1.32,5.92,2.09.56,4.84.41,9.77.49,14.66.04,2.42-.07,4.83-.12,7.25-.67-1.63-1.17-3.36-2.07-4.84ZM359.21,861.27c4.72-29.83,10.36-57.58,14.58-76.19,0,0,0,0,0,0,.35-23.94,8.17-46.67,6.28-70.17-.02-.29,1.03-.66,2.53-1.56.57,2.65,1.6,4.92,1.45,7.1-.96,13.77-1.91,27.55-4.11,41.15,0,0,0,0,0,0,.36.07-.62,7.48-6.83,41.03-.96,3.63-2.23,7.21-2.83,10.89-2.72,16.6-5.07,33.25-7.92,49.83-1.8,10.49-4.26,20.86-6.42,31.29-.48-.08-.95-.16-1.43-.23,1.06-8.31,2.6-19.68,4.72-33.13ZM173.56,582.07s0,0,0,0c6.75-12.21,12.2-28.17,15.96-41.22.1.88.24,1.77.44,2.67.43,1.95.63,3.34,1.87,5.57,4.9,8.84,8.06,18.69,15.5,26.09,1.08,1.07,1.61,2.7,2.29,4.12,3.65,7.61,2.79,15.31,1.99,23.25-.18,1.76-.5,4.43-1.12,7.69-10.68,5.58-13.92,5.54-14.88,4.44-1.34-1.55,2.15-4.8.94-10.49-.25-1.19-1.27-5.1-2.48-6.84-.14-.2-.7-1.05-1.19-2.29-.14-.36-.26-.76-.37-1.31-1.08-5.52,1.54-13.13,1.98-14.43.17-.5.83-1.98.08-3.25-.57-.98-1.87-1.83-3.01-2.07-.52-.11-1.97,1.32-2.01,2.1-.44,7.23-.51,21.4-.51,21.4.44,2.56.78,4.33,1.06,5.66.58,2.76,1.16,3.35.91,4.33-.3,1.18-1.59,2.81-8.36,4.24-8.85,1.88-13.27,2.81-15.72.6-7.01-6.33,6.6-30.27,6.6-30.27ZM158.3,628.75c.88-2.72,3-2.95,5.67-1.95.1,1,.32,1.86.27,2.71-1.22,17.68-2.36,35.37-3.74,53.04-.84,10.74-2.51,21.43-2.96,32.17-.64,15.2-.54,30.44-.67,45.66-.05,5.99.12,11.99.18,17.99-.53-.05-1.07-.1-1.6-.15-.44-6.2-1.11-12.4-1.27-18.61-.53-20.18-1.25-40.37-1.17-60.55.05-12.99,1.35-25.98,2.11-38.97.46-7.84.87-15.68,1.51-23.51.22-2.64.85-5.3,1.68-7.83ZM124.26,1146.94c-.33,2.19-.71,4.38-1.07,6.57-.54.04-1.08.08-1.62.12-.13-2.83-.41-5.66-.37-8.49.43-29.86,1.43-59.72,1.19-89.58-.16-20.02,3.09-39.78,3.03-59.74-.04-13.46.95-26.93-2.56-40.21-1.02-3.87-.86-8.03-1.45-12.03-.68-4.66-1.57-9.28-2.4-13.92-.75-4.19-1.53-8.38-2.34-12.56-.47-2.42-.83-4.88-1.55-7.23-5.8-18.68-12.24-37.19-17.38-56.04-4.9-17.97-8.94-36.17-9.05-55.02-.06-10.75-1.96-21.48-2.11-32.23-.16-11.18-2.24-22.27-.96-33.55.93-8.22.52-16.58.9-24.87.19-4.01.77-8.01,1.29-11.99,2.27-17.35,4.21-34.75,6.98-52.03,2.27-14.12,3.46-28.51,8.63-42.06.23-.61.62-1.16,1.01-1.88,2.84,1.71,6.93,4.04,12.01,6.48,4.89,2.35,9,3.99,17.13,6.99,6.12,2.26,14.01,5.1,23.36,8.27-.63,4.44-1.52,10.93-2.52,18.78-2,15.74-3.55,28.39-4.5,41.6-.74,10.32-1.13,22.84-.58,38.32.66,18.41,1.19,36.82,2.18,55.21,1.25,23.31,2.96,46.6,4.39,69.91,1.51,24.68.91,49.37.43,74.07-.57,29.01-3.54,57.81-7.08,86.59-2.88,23.45-8.38,46.38-13.11,69.47-2.97,14.52-5.32,29.16-7.79,43.77-1.53,9.06-2.74,18.17-4.1,27.25ZM213.81,728.33c.74,8.94,1.87,17.89,1.99,26.84.16,12.56.2,25.18-.89,37.67-1.68,19.21-4.38,38.34-6.63,57.5-2.85,24.31-5.67,48.62-8.54,72.93-.47,4.01-1.2,8-1.73,12.01-2.69,20.24-5.54,40.47-7.98,60.75-2.09,17.38-3.67,34.83-5.56,52.24-.36,3.33-.92,6.68-1.76,9.93-3.19,12.38-6.2,24.81-9.98,37.02-1.49,4.79-4.36,9.38-7.43,13.44-9.19,12.15-16.7,25.2-21.6,39.51-4.5,13.14-8.05,26.59-12.04,39.89-.24.8-.64,1.56-.97,2.34-.63-.01-1.26-.03-1.9-.04-.43-7.1-.98-14.2-1.24-21.31-.21-5.83-.4-11.69.01-17.5.56-7.82,1.44-15.63,2.66-23.38,2.41-15.3,4.92-30.59,7.82-45.81,2.48-13,5.95-25.83,8.3-38.85,2.72-15.02,5.14-30.13,6.88-45.29,3.65-31.82,5.73-56.58,6.26-64.99,2.87-45.27.2-58.25,0-141.6-.08-33.71-.01-70.66-.01-70.66,0-1.35-.11-2.71,0-4.04,2.38-27.05,4.77-54.1,7.21-81.14.13-1.47,1.28-4.53,1.37-8.65.04-1.91-.05-5.59-.48-8.57-.07-.48-.15-.61-.11-.81.26-1.59,4.75-3.2,24.05-3.12.02,4.09-.32,6,.94,6.97,1.76,1.35,6.22.51,17.68-8.27-.15,2.31-.3,4.62-.24,6.93.03,1.08-.31,1.84-.34,1.98-3.53,17.73.76,65.84.76,65.84s.8,7.7,3.49,40.25ZM300.54,745.3c-7.26-2.56-6.88-10.44-13.1-12.96,3.37-5.23,2.42-10.23.92-15.6-2.4-8.59-3.33-17.6-5.98-26.1-2.89-9.29-.95-18.06.55-27.09.64-3.89.58-8.04.02-11.95-2.01-14.03-3.29-28.07-2.54-42.24.17-3.29.24-6.58.36-9.87.43-.07.86-.14,1.29-.21.5,5.93.96,11.87,1.52,17.79,1.08,11.37,2.22,22.74,3.32,34.11.24,2.45.5,4.9.64,7.35.77,13.85.68,27.8,2.54,41.5,1.25,9.21,5.23,18.06,7.97,27.07,1.11,3.65,2.49,7.25,3.17,10.97.39,2.14-.37,4.48-.67,7.22ZM354.21,1370.28c4.1-16.57,8.1-33.16,12.42-49.68,5.85-22.36,11.7-44.72,18.02-66.94,5.64-19.84,11.81-39.53,17.95-59.23,4.86-15.61,9.83-31.2,15.12-46.68,3.77-11.03,8.25-21.82,12.23-32.78,4.89-13.46,9.52-27.02,14.4-40.48,5.73-15.81,11.61-31.57,17.42-47.35,1.56,8.51-1.85,15.96-4.64,23.44-5.74,15.35-12.34,30.4-17.78,45.85-7.54,21.4-14.42,43.03-21.43,64.61-4.44,13.67-8.79,27.38-12.81,41.17-3.26,11.21-5.87,22.6-8.95,33.86-4.79,17.56-9.53,35.14-14.65,52.6-5.69,19.39-11.87,38.65-17.69,58-2.98,9.9-5.59,19.91-8.47,29.85-1.11,3.81-2.5,7.55-3.76,11.32-.46-.12-.93-.25-1.39-.37,1.34-5.73,2.61-11.47,4.02-17.19ZM453.56,1220.16c-5.26,20.11-12.94,39.27-19.83,58.76-5.77,16.32-10.88,32.86-16.52,49.22-11.3,32.73-22.56,65.47-34.25,98.06-5.99,16.69-8.99,33.87-10.5,51.37-1.45,16.83-4.95,33.28-8.37,49.78-4.46,21.45-14.52,40.54-25.17,59.42-4.09,7.26-7.9,14.68-11.76,22.07-11.26,21.58-23.12,42.81-37.97,62.27-1.5,1.97-3.07,3.93-4.88,5.62-6.64,6.16-12.94,12.79-20.23,18.1-7.82,5.69-16.35,10.57-25.04,14.92-9.93,4.98-20.8,8.24-30.45,13.64-7.83,4.38-14.57,10.72-21.61,16.41-3.34,2.7-6.11,6.06-9.39,8.82-5.19,4.36-10.39,8.76-15.98,12.59-8,5.5-16.28,10.63-24.6,15.66-1.88,1.14-4.41,1.25-7.84,2.16,1.06-2.38,1.31-3.51,1.97-4.31,12.19-14.88,26.04-28.15,40.4-40.99,14.33-12.82,28.65-25.74,40.27-41.15,6.11-8.11,11.64-16.66,17.96-24.6,9.02-11.31,18.01-22.61,25.3-35.11,2.27-3.89,4.61-7.74,6.71-11.72,8.72-16.52,17.66-32.94,25.9-49.69,5.05-10.26,9.17-20.99,13.4-31.62,4.82-12.12,9.18-24.41,13.97-36.54,6.1-15.45,12.56-30.77,18.58-46.25,2.6-6.69,4.55-13.64,6.63-20.52,2.2-7.3,3.98-14.72,6.3-21.97,5.74-17.96,11.74-35.85,17.52-53.8,1.71-5.32,2.93-10.79,4.54-16.15,2.33-7.71,4.95-15.34,7.19-23.08,3.12-10.77,5.9-21.63,9-32.4,3.53-12.26,7.38-24.43,10.85-36.71,2.01-7.11,3.34-14.41,5.34-21.52,4.06-14.45,8.41-28.83,12.54-43.26,2.59-9.04,4.7-18.22,7.56-27.17,5.94-18.59,12.14-37.1,18.43-55.57,3.59-10.53,5.19-11.99,13.67-32.93,3.75-9.27,6.77-16.94,8.79-22.1-.86,6.88-1.4,12.91-1.74,17.85-.59,8.55-.47,22.15-.33,39.03.05,5.8.99,11.59,1.47,17.38.48,5.81,1.08,11.61,1.31,17.43,1.09,26.66-2.39,52.7-9.16,78.59ZM689.18,1975.79c-.81-.74-1.76-1.38-2.4-2.25-9.66-13.06-19.56-25.98-28.81-39.32-5.26-7.58-9.71-15.74-14.07-23.87-10.24-19.08-20.63-38.1-30.12-57.54-4.11-8.43-6.21-17.81-9.14-26.79-3.69-11.33-6.96-22.81-11.04-34-3.08-8.43-6.9-16.62-10.83-24.71-9.37-19.24-18.71-38.48-29.47-57.06-6.64-11.46-11.04-24.15-16.89-36.08-6-12.23-10.49-25.01-13.39-38.16-4.12-18.65-7.35-37.49-10.53-56.33-1.72-10.17-2.88-20.46-3.7-30.74-1.66-21.05-2.22-42.14-.65-63.24.62-8.29.33-16.67,1.26-24.91,2.01-17.85,4.55-35.64,6.87-53.45.75-5.76,1.49-11.52,3.3-17.51.37,1.25.9,2.48,1.07,3.75,1.98,15.13,3.76,30.28,5.89,45.38,1.79,12.68,3.69,25.36,6.08,37.94,2.89,15.22,6.4,30.34,9.56,45.51,2.29,10.99,3.96,22.14,6.81,32.99,4,15.21,8.42,30.35,13.44,45.26,8.68,25.8,17.82,51.45,27.06,77.06,4.12,11.43,9.49,22.44,13.32,33.95,4.7,14.16,5.92,20.71,11.04,38.94,7.47,26.59,7.84,22.96,13.29,43.02,7.72,28.42,8.62,35.31,15.62,62.15,1.7,6.5,4.33,12.77,6.57,19.13,4.48,12.74,8.69,25.59,13.58,38.18,4.64,11.95,9.88,23.68,15.06,35.42,3.91,8.84,8.14,17.55,12.22,26.31-.34.32-.68.64-1.02.95ZM532.1,1326.7c.79-.12,3.14,7.12,7.75,21.64,5.33,16.81,7.4,25.23,8.72,30.03.92,3.33,1.85,7.2,2.84,12.22,3.23,16.32,1.58,17.34,4.71,29.21,1.07,4.05,4.23,15.17,14.45,33.76,14.02,25.49,19.11,24.64,35.76,52.77,6.82,11.52,10.16,17.63,18.12,31.66,1.89,3.33,4.1,6.54,5.58,10.05,2.62,6.2,4.95,12.54,7.13,18.91,4.37,12.75,9.18,25.4,12.65,38.39,3.53,13.21,6.07,26.71,8.33,40.2,4.31,25.73,9.95,51.13,17.99,75.99,5.07,15.68,8.95,31.55,10.29,48,2.35,28.66,5.66,57.27,7.06,85.97.82,16.89,2.89,33.54,5.32,50.18,1.36,9.31,4.27,18.39,5.91,27.68,1.75,9.94,3.3,19.95,4.07,30,.8,10.51.6,21.09.77,31.64.02,1.47-.36,2.94-.7,5.48-1.52-1.72-2.57-2.52-3.12-3.58-3.96-7.56-7.79-15.19-11.7-22.77-4.24-8.22-8.92-16.24-12.71-24.65-6.66-14.78-13.11-29.66-19.03-44.73-5.18-13.19-9.65-26.66-14.15-40.1-2.14-6.38-3.72-12.95-5.39-19.47-5.01-19.6-9.66-39.3-14.99-58.83-5.68-20.8-11.98-41.43-18.01-62.14-4.72-16.19-9.16-32.47-14.23-48.55-5.2-16.51-11.33-32.75-16.46-49.28-5.06-16.32-9.76-32.76-13.91-49.32-5.07-20.25-9.47-40.67-14.04-61.04-2.76-12.28-5.63-24.55-7.82-36.93-1.99-11.27-3.13-22.68-4.61-34.04-.84-6.45-1.96-12.89-2.36-19.37-.54-8.74-.29-17.52-.8-26.26-.23-3.92-.47-6.68-.64-8.76-2.69-32.68-5.22-63.53-2.79-63.91ZM726.13,1773.15c-.74,2.67-1.62,4.79-2.25,6.16-3.93-8.07-6.5-14.84-7.08-22.18-.78-9.86-.45-19.87-2.09-29.57-2.08-12.3-1.64-24.61-2.2-36.92-.13-2.91-.76-5.79-1.02-8.7-1.81-19.86-3.63-39.73-5.36-59.6-1.93-22.14-3.54-44.28-8.57-66.07-1.7-7.38-1.77-15.17-2.12-22.79-.56-12.33-.09-24.74-1.25-37.01,0,0-1.14-18.52-6.3-39.05-4.77-18.97-10.98-31.32-22.03-53.39-19.41-38.78-29.12-58.17-31.22-62.55-4.17-8.69-24.07-50.54-40.98-107.58-7.18-24.2-12.08-40.74-16.01-64.49-6.36-38.46-8.22-52.56-8.22-52.56-2.98-15.84-6.32-29.36-9.25-40.02-6.83-24.81-11.58-42.03-21.3-61.3-3.2-6.34-7.54-15.63-13.62-29.37-2.35-5.3-3.89-10.94-6.06-16.32-5.02-12.45-8.9-21.44-10.43-24.88-11.18-25.1-23.21-62.52-21.88-63.02.99-.37,9.89,19.85,15.24,32.81,8.67,21.01,9.6,26.75,15.23,40.54,5.41,13.25,7.69,14.22,27.29,50.56,10.17,18.86,20.77,37.5,30.31,56.66,9.66,19.39,16.12,35.21,21.51,48.06,6.32,15.07,12.15,28.98,18.56,47.17,8.38,23.82,9.58,31.67,23.79,79.13,3.13,10.47,6.34,20.93,9.25,30.26-.17-.33-.35-.65-.52-.98,2.38,9.08,4.39,18.27,7.22,27.21,7.57,23.97,15.45,47.85,23.31,71.73,2.03,6.18,4.46,12.23,6.67,18.36,5.94,16.46,11.89,32.92,17.74,49.41,1.7,4.79,2.64,8.4,3.79,12.21,1.42,4.68,6.91,22.86,10.76,38.05,2.99,11.81,7.2,30.49,10.83,55.73,1.01,15.39,1.76,30.81,2.59,46.21.07,1.34-.21,2.7-.12,4.04,1.65,24.96-1.14,49.8-1.87,74.7-.14,4.7.42,9.43.39,14.14-.05,8.98-.32,17.96-.44,26.94-.14,10.53-.82,44.14-.78,56.61,0,1.66.03,6.13-1.5,11.66ZM727.14,1530.09c.22,1.98.41,3.96.54,5.95.05.75.09,1.51.14,2.27-.2-2.82-.43-5.55-.68-8.21ZM779.92,1542.78c-3.19,16.76-6.94,33.43-10.01,50.21-2.38,13.02-3.82,26.2-6.19,39.22-1.04,5.68-3.33,11.14-5.11,16.69-.62,1.92-1.59,3.75-2.04,5.71-1.9,8.3-3.83,16.6-5.41,24.96-.91,4.83-1.2,9.79-1.74,14.69-1.47,13.15-2.12,26.45-4.66,39.39-.63,3.21-2.35,10.46-9.56,27.99-1.62,3.94-3.92,9.36-6.85,15.78.74-8.18,1.65-20.08,2.18-34.77.09-2.38.16-4.02.22-7.31.27-14.58.24-29.16.23-43.75,0-3.59-.61-7.18-.55-10.76.18-10.54.53-21.07.85-31.61.13-4.48.33-8.96.49-13.44.19-5.15.44-10.3.55-15.46.16-6.96.24-13.92.3-20.87.03-3.6-.02-7.19-.1-10.79-.23-9.41-.22-18.84-.84-28.22-.38-5.69-1.01-17.94-3.18-32.83-1.71-11.69-3.54-19.68-6.51-32.62-9.69-42.18-20.75-72.54-20.75-72.54,0,0,0,0,0,0-11.87-35.1-17.76-52.66-19.73-59.5-6.27-21.82-11.01-44.07-16.52-66.11-2.89-11.55-6.11-23.03-9.03-34.58-4.4-17.43-8.34-34.98-13.11-52.31-3.94-14.29-8.57-28.42-13.32-42.48-4.75-14.05-9.62-28.09-15.17-41.85-6.14-15.21-12.74-30.28-19.83-45.09-9.69-20.27-19.94-40.29-30.14-60.32-4.19-8.23-8.96-16.16-13.31-24.31-3.28-6.16-5.73-12.56-7.57-19.38-3.62-13.41-8.45-23.25-10.29-28.49-3.09-8.81-7.07-20.26-11.66-33.8,1.77,2.79,3.13,4.92,4.48,7.06,5.75,9.16,10.8,18.84,17.46,27.31,5.14,6.53,8.9,13.87,14.27,20.24,13.63,16.18,24.83,34.16,37.71,50.89,12.08,15.7,21.55,32.82,29.74,50.61,5.17,11.24,8.96,23.09,13.62,34.56,3.46,8.52,7.01,17.04,11.1,25.28,9.18,18.54,19.7,36.5,27.83,55.46,7.41,17.27,16.07,34.21,19.21,53.16,3.03,18.26,10.8,35.16,17.42,52.38,9.05,23.53,17.97,47.11,26.41,70.85,8.82,24.79,17.55,49.65,25.28,74.78,4.81,15.64,9.61,31.41,11.35,47.85.9,8.48,2.25,16.92,3.76,25.31,1.99,11.07.79,21.97-1.28,32.81Z"/><path class="cls-1" d="M276.67,475.24c.39-1.13-3.25-3.59-6.14-4.8-3.78-1.6-6.44-1.15-10.88-1.63-5.36-.58-8.38-1.97-11.66-2.96-5.48-1.67-15.11-3.28-33.33-3.04.16-1.76.67-4.18,2.28-6.4,3.56-4.89,9.82-5.74,16.27-6.78,4.21-.68,9.46-3.78,20.11-9.27,13.3-6.86,14.95-9.69,33.15-19.88,5.63-3.15,8.17-5.43,12.44-6.66,11.86-3.42,23.32-7.59,34.35-13.13,5.85-2.94,12.27-4.79,18.5-6.96,2.25-.78,4.85-.89,5.56,2.09,1.6,6.75,3.5,13.5,4.19,20.36.77,7.56.81,15.23-2.37,22.58-1,2.32-1.82,5.48.7,7.36,6.24-7.19,11.79-14.25,18.08-20.59,3.93-3.96,8.96-6.86,13.55-10.18,1.94-1.4,5.51-2.49,3.67-5.34-2.19-3.39-4.96-.28-6.88,1.11-5.32,3.86-10.37,8.07-15.5,12.17-1.55,1.23-3.04,2.53-4.96,4.13-2.31-5.53-.66-10.7-1.2-15.7-.27-2.51.77-4.17,2.32-6,6.55-7.69,14.71-13.35,23.41-18.34,4.53-2.6,9.21-4.94,13.73-7.55,1.13-.65,1.92-1.89,2.86-2.85-.31-.44-.62-.88-.93-1.32-7.84,2.52-14.79,7.01-21.93,10.96-7.13,3.94-14.02,8.3-20.87,14.12-.46-3.7-.66-6.31-1.13-8.88-.45-2.45-1.17-4.85-1.91-7.81,5.99-3.51,12.01-7.61,18.53-10.68,6.57-3.1,13.65-5.17,20.5-7.69-.11-.49-.21-.98-.32-1.46-1.24-.04-2.52-.31-3.71-.1-12.28,2.13-23.72,6.55-34.47,12.64-3.35,1.9-6.32,4.56-5.55,9.91-11.97,1.21-21.85,5.71-31.27,11.38-1.35.81-2.93,1.24-4.38,1.89-20.6,9.34-28.52,11.92-35.15,14.86-14.86,6.59-33.41,17.44-45.53,26.32-3.3,2.42-13.93,2.82-23.79,8.08-.3.16-.86-.13-2.23-.39-.56-1.81-1.83-4.04-1.85-6.27-.06-7.7,2.92-13.88,10.02-17.91,3.9-2.21,7.15-5.6,12.06-5.85.68-.04,1.31-1.03,2.14-1.73-1.83-4.01-5.1-4-8.1-2.84-3.14,1.21-6.09,3.07-8.84,5.03-3.32,2.36-6.39,5.08-9.49,7.74-2.05,1.76-4.15,2.59-6.87,1.55-2.08-.8-4.28-1.29-6.37-1.9.68-6.16,4.12-12.61,9.65-16.56,8.12-5.8,13.47-13.96,19.72-21.36,1.36-1.61,3.12-3.86.64-5.91-2.6-2.15-4.09.2-5.58,1.84-.91,1-1.64,2.16-2.55,3.17-3.76,4.2-7.06,8.97-11.45,12.4-6.64,5.2-11.55,11.39-15,18.89-.56,1.23-1.06,2.6-1.98,3.51-.86.85-2.26,1.68-3.4,1.64-4.26-.12-7.92-5.05-6.63-9.11,1.71-5.39,3.96-10.56,9.26-13.71.85-.51,1.47-1.38,2.2-2.08-1.87-.95-3.38-1.07-4.55-.49-5.17,2.53-10.36,5.54-12.3,11.1-1.4,4-1.12,8.56-1.68,13.72-2.2,1.07-5.62,2.36-8.67.17-3.61-2.59-6.53-6.1-9.98-8.93-3.77-3.09-6.15-7.4-10.8-9.87-6.76-3.59-12.86-8.37-19.26-12.63-2.05-1.36-3.78-1.19-5.57,1.89,2.74,2.64,5.38,5.69,8.53,8.09,3.94,2.99,8.99,4.8,12.32,8.28,4.91,5.13,10.44,9.33,16.09,13.48,1.25.92,2.54,1.79,4.12,2.9-2.67,2.95-4.58,4.84-6.23,6.93-2.25,2.86-4.8,3.15-8.39,2.51-5.77-1.02-10.89-3.23-15.89-6-3.22-1.78-6.49-2.38-9.49.31-.7.63-1.46,2.24-1.14,2.73.61.93,2.37,2.16,2.98,1.88,3.74-1.74,6.62.47,9.76,1.57,3.87,1.35,7.76,2.63,11.6,4.06,1.19.44,2.22,1.29,3.22,1.89-1.79,7.38-1.8,7.28-8.56,8.09-3.11.37-6.32.98-8.11,5.37,3.17.43,5.92.8,8.67,1.17.79,7.57.36,9.02-5.91,10.54-11.94,2.89-20.89,10.63-30.57,17.23-.25.17-.15.83-.21,1.3,1.32,2.55,3.49,1.83,5.3,1,3.92-1.78,8.02-3.41,11.45-5.9,5.01-3.64,11.04-4.36,17.25-8.23-1.5,4.06-5.65,6.7-.16,9.17.99-.67,2.16-1.33,3.18-2.17,2.09-1.73,3.95-3.77,6.2-5.25.76-.5,2.57.01,3.54.62.43.27.09,1.96-.15,2.94-.15.6-.75,1.11-1.2,1.62-6.42,7.29-12.84,14.59-19.28,21.86-1.45,1.64-3.36,3.09-1.99,6.75,1.96-1.27,3.77-2.03,5.02-3.31,4.57-4.69,8.89-9.61,13.44-14.32,3.46-3.58,6.82-7.37,12.35-9.63-.12,7.63-6.65,13.4-3.04,21.23,1.39-1.21,2.66-1.87,3.22-2.9,1.5-2.76,2.67-5.69,4.01-8.53,2.26-4.79,3.7-5.29,8.36-2.98,2.16,1.07,4.32,2.12,6.79,3.32-1.47,2.79-2.91,5.08-3.93,7.55-.92,2.24-1.86,4.66-1.92,7.02-.1,3.61,1.65,4.74,5.94,4.85.25-2.41.07-4.94.82-7.17,2.59-7.75,7.21-14.04,14.94-17.55,4.57-2.08,7.62-5.5,10.25-9.53,1.05-1.6,2.44-2.99,4.02-4.9,6.17,7.91,10,16.56,17,23.93,1.95-4.95-.19-7.94-1.86-11.02-2.84-5.21-5.7-10.42-9.16-16.73,6.91.37,16.93,1.06,28.99,2.44,20.19,2.3,34.21,6.52,34.94,4.42ZM206.06,460.41c-.18.57-1.43,4.33-3.7,7.55-5.01,7.11-13.28,9.32-17.66,10.51-6.63,1.79-11.9,3.22-17.52.71-8.7-3.88-10.91-13.94-11.22-15.45,0,0,0,0,0,0s0,0,0,0t0,0c-2.72-5.48-4.4-11.63-2.01-14.81,1.96-2.61,6.97-3.67,8.33-7.95.23-.74.74-2.87,2.36-3.45.77-.28,1.47-.12,1.78-.07,3.14.53,7.06-3.6,7.86-4.36,6.14-5.93,26.48-4.8,30.24,2.5.62,1.2,0,1.02,1.09,6.86,1.11,5.9,1.8,6.35,1.88,9.42.1,3.65-.78,6.45-1.43,8.53Z"/><path class="cls-1" d="M197.61,446.49c-.18-2.77-.33-3.71-.74-4.9-1.23-3.62-9.32-5.12-15.7-4.4-9,1.01-19.95,7.03-20.54,14.31-.26,3.18,1.64,4.34,3.58,13.27.65,2.99,1.01,5.47,1.21,7.1,5.69,3.6,11.56,5.14,16.38,3.59,5.8-1.87,13.13-9.2,13.81-9.89.65-.66,1.19-2.13,3.45-3.83,4.49-3.38,4.24-6.23.65-10.68-1.04-1.29-2.01-3-2.11-4.57ZM191.36,457.05c-.59,4.45-3.31,10.52-7.83,11.54-2.19.49-2.85-.63-8.79-1.14-2.15-.18-3.91-.2-5.04-.18-1.28-1.97-2.65-4.81-3.07-8.38-.28-2.42-.83-7.08,2.03-9.86.34-.33.93-.83,5.55-2.29,5.41-1.71,8.11-2.56,9.75-2.14,4.68,1.21,6.67,6.49,6.84,6.95.83,2.3.72,4.34.56,5.49Z"/><path class="cls-1" d="M456.01,324.59c-4.26-8.73-4.99-10.4-7.34-13.59-1.7-2.31-4.98-3.61-7.74-4.97-.33-.16-2.47.38-2.96,1.71-.94,2.56,5.7,4.53,9.44,11.34,2.5,4.55.55,5.14,3.71,15.73,1.12,3.76,2.05,5.89,1.28,6.55-.81.68-3.26-1.81-8.95-4.44-2.39-1.11-4.37-1.68-5.69-2.23-10-4.16-19.71-2.75-29.16,1.64-4.25,1.98-7.74,4.87-8.29,10.15,3.02-1.18,5.62-2.82,8.19-4.5,1.69-1.1,3.46-1.95,5.28-2.56,3.5-1.17,6.45-1.19,7.94-1.18,3.64.03,18.18.92,19.81,7.08,1.28,4.86-5.7,12.24-13.15,15.05-9.21,3.47-17.49-.55-22.05,4.65-1.4,1.6-1.84,3.48-2.01,4.68,3.8-1.2,6.52-2.06,9.41-2.98,5.93-2.78,11.45-.92,12.46,1.64.94,2.37-1.43,6.77-6.54,9.11-2.32,1.96-4.51,3.86-6.77,5.7-4.12,3.35-5.82,7.97-6.87,12.87-.42,1.93.09,3.61,2.65,3.64,4.72-10.3,5.65-11.4,13.44-15.9,4.06-2.34,7.62-1.71,10.97,1.94,2.31,2.52,2,5.45-.63,9.12-2.49,3.47-5.02,6.95-7.05,10.68-1.02,1.87-1.25,4.3-1.24,6.47,0,.87,1.6,1.74,2.84,2.97,3.79-12.24,7.65-18.82,15.46-15.61-1.99,2.81-3.92,5.48-5.79,8.19-5.26,7.59-10.65,15.11-15.68,22.85-2.48,3.83-4.44,8.06-2.54,13.72,8.48-20.19,23.43-39.24,33.04-41.66-2.01,8.51-8.43,16.99.11,24.96.64-2.39.61-4.78.38-7.14-.48-4.86,1.66-8.73,4.6-12.3,1.51-1.84,3.29-3.19,5.91-2.2,2.69,1.01,3.71,2.9,3.67,5.77-.03,2.86-.1,5.99.96,8.56,2.37,5.74,5.43,11.21,8.37,17.11,2.94-1.95,3.2-4.38,1.99-7.06-1.57-3.49-3.39-6.88-4.99-10.36-2.42-5.26-1.23-10.47,3.18-14.36,4.56,1.99,7.8,5.2,9.79,9.77.88,2.03,1.62,4.82,5.56,3.61-.37-1.3-.55-2.34-.97-3.28-1.82-4.11-3.93-8.11-5.53-12.3-1.77-4.64,1.52-8.34,6.31-6.98,2.97.85,6,2.35,8.33,4.34,7.78,6.64,15.31,13.59,19.27,23.32.33.82.74,1.61,1.11,2.42.62-.24,1.23-.48,1.85-.72.04-1.26.57-2.77.05-3.74-2.21-4.16-4.22-8.59-7.25-12.13-6.11-7.14-12.36-14.29-21.9-18.58,2.69-2.42,5.26-2.77,7.96-2.08,9.06,2.3,18.25,4.28,27.09,7.23,5.08,1.7,9.59,5.05,14.38,7.62.86.46,1.84.71,2.76,1.06.32-.34.64-.68.96-1.02-.88-1.34-1.47-3.1-2.7-3.95-3.16-2.18-6.39-4.56-9.97-5.79-10.1-3.46-20.4-6.35-30.59-9.55-1.61-.51-3.07-1.49-4.28-2.1.98-5.3,1.82-9.87,2.55-13.83,8.97-6.37,17.53-12.47,26.29-18.69-2.2-2.61-4.95-2.01-7.3-.68-2.73,1.55-5.24,3.56-7.62,5.61-3.92,3.38-7.88,6.62-12.82,8.34-5.4-8.33-5.37-11.46.19-18.52,1.39-1.77,3.63-3.05,4.56-4.98,4.21-8.7,12.51-12.75,20.07-17.66,1.8-1.17,3.58-2.35,6.34-4.17-2.21-.9-3.34-1.81-4.06-1.56-3.2,1.08-6.52,2.11-9.36,3.85-8.84,5.42-12.95,13.01-19.66,19.43-4.36,4.17-9.89,9.11-12.15,7.76-2.34-1.4-.09-9.02,1.09-13,2.98-10.05,7.6-17.09,9.11-19.3,8.32-12.22,12.98-19.06,16.39-22.24.45-.42,1.88-1.71,1.74-3.28-.09-.99-.84-1.99-2.58-3.07-1.53,1.29-3.23,2.67-4.87,4.11-4.73,4.15-6.99,9.83-9.91,15.16-4.66,8.49-9.79,16.73-14.81,25.03-.5.83-1.58,1.32-2.17,1.8-4.16-2.42.14-8.47-5.77-10.41-.19,2.03-.41,5.24-.26,9.18.27,7.09,1.46,9.97-.41,11.86-1.84,1.85-5.82,1.94-8.21.33-2.62-1.76-1.93-4.61-4.45-11.24-.69-1.81-.51-1-3.83-7.81ZM476.11,354.62c2.55,2.54,6.69,3.53,9.64,4.97,1.78,3.33,2.77,6.07,4.52,8.22,2.38,2.94,2.24,5.58.64,8.69-1.43,2.79-2.76,5.67-3.69,8.65-1.61,5.12-4.98,8.5-9.87,10.47-3.16,1.27-6.71,3.59-9.62,3.04-6.79-1.28-13.93-2.99-19.7-6.5-4.49-2.73-7.63-8.14-10.45-12.89-2.8-4.72.44-9.53,1.69-14.17.74-2.74,1.82-5.52,3.37-7.88,1.28-1.94,3.26-3.71,5.34-4.8,4.87-2.55,9.87-6.04,15.49-1.33.33.28.84.35,1.25.53,3.58,1.6,7.86-.54,11.38,2.98Z"/><path class="cls-1" d="M288.65,356.59c-8.8,5.41-16.31,12.23-21.17,21.47-.54,1.02-.76,2.22-1.12,3.33.42.28.84.57,1.27.85,1.8-1.82,3.63-3.62,5.4-5.48,3.9-4.08,7.1-9.27,11.78-12.08,11.02-6.6,21.09-14.9,34.1-18.19,7.22-1.83,16.24,1.2,17.99,8.46,1.18,4.91,3.05,8.62,8.13,11.02-8.39,4.54-16.41,8.29-23.76,13.03-7.44,4.8-15.58,9.01-21.41,16.62,4.12,2.24,6.86,1.11,9.57-.86,3.29-2.4,6.48-5.03,10.06-6.94,6.79-3.62,13.87-6.7,20.73-10.18,4.83-2.45,9.56-5.02,15.17-4.44,1.01-5.63-4.75-7.51-6.34-12.01,12.02-6.84,26.23-3.48,38.36-8.69-2.55-4.23-2.6-4.26-7.7-3.57-7.45,1-14.88,2.09-22.34,3.01-4.99.62-10.02.98-14.32,6.94.4-9.13-6.66-11.84-9.91-16.93.45-.59.65-1.14.99-1.25,13.61-4.39,26.92-10.14,41.77-9.11,1.36.09,2.83.19,4.07-.24.98-.34,1.68-1.47,3.11-2.82-7.47-1.77-14.07-1.87-20.51-.68-6.93,1.28-13.8,3.09-20.5,5.25-3.74,1.2-7.19,1.69-10.45.68-2.21-.68-2.57-2.4-4.87-2.82-2.08-.38-5.39.07-7,2.63-1.6,2.54-.43,5.43-.29,5.77-2.5,1.32-4.53,2.33-6.5,3.44-8.12,4.55-16.36,8.9-24.28,13.77Z"/><path class="cls-1" d="M282.16,453c4.57-6.04,10.68-10.02,17.47-13.65,7.57-4.05,15.54-6.5,23.69-8.44,6.79-1.62,13.86-2.11,21.12-3.14.87,2.33,1.24,3.64,1.83,4.85.59,1.2,1.23,2.45,2.14,3.41,2.44,2.57,6.11,2.24,7.39-.51,1.58-3.42.54-8.51-2.32-11.11-3.05-2.77-6.76-3.62-10.77-3.27-16.96,1.45-33.52,4.63-48.32,13.32-5.99,3.52-11.45,8.05-16.69,12.63-2.37,2.07-4.85,4.82-4.33,8.73,3.94,1.73,6.46.27,8.79-2.81Z"/><path class="cls-1" d="M469.73,620.16c.32,2.21,1.96,3.59,4.39,3.19,2.48-.41,4.45-3.55,3.88-6.1-.73-3.27-1.58-6.53-2.49-9.76-1.27-4.5-2.12-9.2-4.08-13.39-3.8-8.13-8.48-15.86-12.37-23.95-4.07-8.46-7.7-17.12-11.44-25.73-1.25-2.87-1.94-6.06-5.61-7.62-3.9,2.01-4.56,4.5-2.68,7.96,3,5.52,5.83,11.12,8.68,16.71,5.9,11.6,11.76,23.22,17.66,34.81.82,1.6,1.81,3.11,2.67,4.69,2.18,3.98,4.12,7.83,1.6,12.6-.94,1.77-.52,4.42-.2,6.59Z"/><path class="cls-1" d="M58.18,381.15c18.7,6.78,36.41,15.5,53.33,25.83.96.59,1.91,1.41,2.96,1.6.99.18,2.65,0,3.03-.62.6-.97.73-2.54.38-3.66-.28-.91-1.45-1.68-2.39-2.25-7.21-4.32-14.22-9.03-21.74-12.73-9.37-4.61-19.02-8.79-28.85-12.36-6.58-2.39-13.63-3.61-20.56-4.91-4.5-.84-8.65.81-11.84,4.02-.99,1-1.09,2.86-1.6,4.33.53.32,1.06.64,1.59.96,8.6-5.11,17.08-3.32,25.69-.2Z"/><path class="cls-1" d="M348.18,303.22c-1.25-1.71-3.38-3.45-5.38-3.86-4.45-.89-8.2-2.54-11.29-5.03-3.75-3.01-2.25-5.31-6.82-8.9-.27-.21-3.96-3.05-7.26-2.75-1.47.13-2.74.73-2.74.73-2.79,1.06-3.32,3.52-3.05,6.1.26,2.47,1.9,3.12,4.36,3.12,4.67,0,8.72,1.55,12.32,4.76,2.48,2.21,5.58,4.04,8.72,5.18,4.18,1.52,7.76,3.37,10.64,6.9,1.27,1.56,3.77,2.43,5.89,2.99,14.52,3.84,29.08,7.54,43.65,11.16,1.04.26,2.33-.47,3.51-.73-.42-1.14-.5-2.86-1.32-3.32-2.74-1.54-5.62-3.09-8.65-3.82-10.62-2.55-21.32-4.8-32.01-7.08-4.06-.87-7.88-1.79-10.57-5.45Z"/><path class="cls-1" d="M257.34,414.13c2.46-2.32,4.84-4.74,7.09-7.26,4.21-4.7,8.01-9.79,12.51-14.2,9.27-9.08,20.7-15.38,31.29-22.77,4.35-3.04,8.26-4.98,12.16.4,4.07-3.35,6.92-7.06,8.21-11.72.31-1.13.14-2.98-.61-3.65-.74-.67-2.76-.79-3.72-.26-2.33,1.28-4.45,2.98-6.51,4.67-1.53,1.25-2.61,3.2-4.3,4.06-14.45,7.36-27.67,16.51-40.39,26.42-8.75,6.82-15.54,15.33-22.19,24.02,2.45,2.22,4.56,2.09,6.45.3Z"/><path class="cls-1" d="M255.59,345.69c-8.42,15.57-15.02,32.11-25.71,46.47-.2.26.07.86.16,1.59,2.96,1.91,5.24,1.51,7.02-1.87,5.01-9.52,10.09-19.01,15.18-28.5,5.2-9.7,10.19-19.54,15.8-29.01,2.21-3.74,5.79-6.72,8.88-9.92,2.77-2.87,4.94-5.81,3.36-9.98-7.04-.97-8.31-.05-9.85,5.68-.62,2.3-2.03,4.43-3.28,6.52-3.82,6.36-8.02,12.52-11.55,19.03Z"/><path class="cls-1" d="M409.19,304.68c-5.42-6.37-11.88-8.7-19.67-9-8.89-.34-17.79-.59-26.68-.69-2.13-.03-4.27.66-6.41,1.02.04.55.08,1.1.12,1.65,1.25.38,2.48.99,3.75,1.11,6.35.62,12.76.78,19.06,1.71,11.27,1.66,22.47,3.44,30.78,12.6,4.84,5.33,10.54,9.91,15.78,14.9,2.01,1.91,3.9,3.08,6.25.69-.09-3.69-2.11-5.79-4.73-7.91-6.31-5.11-13.05-9.98-18.25-16.08Z"/><path class="cls-1" d="M108.01,549.13c-2.88,2.03-4.93,4.31-3.74,7.77.47,1.39.24,2.19.35,2.44.67,1.45,2.58,2.38,4.34,2.35,2-.04,3.32-1.31,3.63-1.62,1.29-1.33,1.48-3.27,1.86-5.43.44-2.53,1.27-5.15,2.57-7.37,7.78-13.32,19.48-22.69,32.48-30.71,1.88-1.16,3.63-2.52,5.77-4.03-3.77-5.19-3.68-5.03-7.71-2.84-14.36,7.8-24.57,19.52-33.07,33.01-1.58,2.51-4.01,4.69-6.48,6.43Z"/><path class="cls-1" d="M43.53,418.87c-6,.02-11.43,1.93-16.09,5.6.05.69.1,1.37.15,2.06,1.82.09,3.74.59,5.46.22,13.14-2.8,26.3-.76,39.41-.03,4.67.26,9.21,2.36,13.86,3.42,3.69.85,7.46,1.64,11.11-.36.03-3.47-1.23-4.96-4.57-5.77-16.23-3.91-32.71-5.2-49.33-5.15Z"/><path class="cls-1" d="M200.01,335.81c2.61-1.19,3.63-1.48,4.79-3.02,1.22-1.61,1.38-4.4-.05-6.36-1.74-2.38-5.01-2.39-6.94-1.85-.25.07-3.01.89-4.37,3.56-1.53,3,.62,4.58.5,9.11-.13,5.16-3.14,5.91-4.58,13.95-.31,1.72-.53,3.47-.66,5.25-.61,8.27-1.66,16.51-2.51,24.77-.09.89-.25,1.79-.23,2.68.06,2.54,1.08,4.41,3.94,4.52,2.57.1,3.61-1.8,3.61-5.07,0-14.81-.05-29.65,3.96-44.1.36-1.31,1.38-2.92,2.54-3.45Z"/><path class="cls-1" d="M538.63,370.87c2.45-2.33,4.54-5.13,7.27-7.08,11.27-8.06,23.74-13.16,37.76-14.54,3.75-.37,7.46-1.86,10.99-3.29.87-.35.97-2.52,1.43-3.85-1.19-.35-2.46-1.15-3.57-.97-2.44.38-4.78,1.73-7.2,1.83-7.67.31-14.7,2.71-21.82,5.22-10.36,3.65-18.99,9.8-26.51,17.4-2.59,2.62-5.75,5.62-5.53,11.75,3.07-2.75,5.17-4.56,7.18-6.47Z"/><path class="cls-1" d="M430.36,297.65c-1.69-4.37-3.52-8.73-5.77-12.84-2.8-5.11-6.43-9.8-9.09-14.97-4.5-8.77-9.77-17.22-12.27-26.9-.84-3.24-1.94-6.44-3.2-9.55-1.02-2.51-3.3-4.07-5.96-3.48-1.33.29-2.89,2.14-3.23,3.55-.66,2.66,1.17,4.15,3.8,4.5,2.99.4,3.9,2.53,4.89,4.94,3.68,8.92,7.47,17.81,11.4,26.63,3.38,7.58,6.97,15.08,10.58,22.57,1.73,3.58,3.71,7.03,5.67,10.72,3.54-1.15,3.94-3.24,3.19-5.18Z"/><path class="cls-1" d="M455.73,263.63c.35.18.52.71.91,1.27.09.91.23,2.02.32,3.13,1.15,13.67,3.08,27.21,7.2,40.36.87,2.78,1.06,6.37,5.89,6.79.07-1.98.78-4,.08-5.27-4.1-7.51-4.75-15.89-6.65-23.94-2.58-10.9-5.25-21.83-1.15-33,.28-.76-.31-2.35-1.01-2.81-.74-.48-2.33-.46-3.12.02-1.51.93-2.75,2.32-4.05,3.57-5.49,5.24-5.29,6.41,1.58,9.88Z"/><path class="cls-1" d="M122.96,492.02c-2.17-2.73-4.43-.77-6.69.11-9.79,3.83-18.81,9.06-27.32,15.08-6.26,4.43-12.22,9.3-18.19,14.12-1.17.95-1.76,2.6-2.62,3.93.42.42.83.83,1.25,1.25,3.33-2.12,6.71-4.15,9.96-6.36,5.59-3.81,10.84-8.18,16.72-11.48,7.29-4.09,15.07-7.35,22.66-10.93,3.95-1.87,5.62-3.96,4.22-5.72Z"/><path class="cls-1" d="M183.93,521.4c.68-2.5,2.15-5.88-1.69-6.76-3.29-.75-3.55,2.57-4.15,4.95-1.88,7.54-3.84,15.07-5.68,22.62-.62,2.56-1.97,4.99-2.06,8.75-.04,1.51-.16,6.28,1.69,6.92,2.01.69,6.28-3.51,6.79-7.93.18-1.56.45-1.99-.38-4.47-.77-2.3.2-5.31.85-7.88,1.38-5.43,3.16-10.77,4.62-16.19Z"/><path class="cls-1" d="M543.58,457.28c-2.31-2.51-5.34-5.49-5.34-5.49-3.07-2.94-5.5-4.88-10.76-9.78-3.46-3.22-7.04-6.32-10.61-9.42-.82-.72-1.83-1.23-3.34-2.22-.59,1.41-1.61,2.66-1.31,3.39.46,1.13,1.75,1.99,2.82,2.81,5.81,4.44,10.86,9.48,15.14,15.16.82,1.09,2.96,4.54,7.16,11.5,2.67,4.43,4.2,6.22,9.87,14.29,10.87,15.46,11.28,16.43,11.73,16.24,2.21-.92-5.42-25.69-15.35-36.48Z"/><path class="cls-1" d="M308.15,476.7c.35.96.38,1.48.67,1.74.84.74,1.68,1.56,2.68,2.01,9.09,4.13,18.02,8.37,25.16,15.65,2.59,2.64,4.53,1.9,7.67-1.45-5.7-7.5-26.69-19.7-36.18-17.95Z"/><path class="cls-1" d="M90.23,412.07c6.08-.29,11.42.76,16.37,4.97,6.12,5.21,15.86,6.1,23.67,2.44-2.36-1.15-3.57-2.07-4.93-2.36-7.3-1.57-14.5-3-21.14-6.98-6.15-3.69-13.17-3.05-20.28-1.53,1.19,4.11,3.92,3.57,6.31,3.46Z"/><path class="cls-1" d="M534.58,345.28c3.39-2.58,6.25-5.16,9.49-7.15,7.71-4.72,15.59-9.15,23.41-13.7,1.37-.8,3.08-1.3,4.04-2.42.82-.95.78-2.61,1.12-3.95-1.24-.09-2.71-.65-3.68-.2-3.49,1.63-7.02,3.31-10.16,5.5-7.41,5.19-14.66,10.59-21.83,16.1-1.84,1.41-3.89,3.28-2.39,5.82Z"/><path class="cls-1" d="M92.34,445.22c6.98.84,13.97,1.63,20.97,2.2,3.38.28,6.82.29,10.19-.05,1.17-.12,2.6-1.46,3.11-2.6.26-.59-1-2.46-1.95-2.83-1.82-.72-3.9-1.05-5.89-1.08-7.94-.15-15.88-.18-23.82-.11-1.81.02-3.62.64-5.43.98.02.65.03,1.31.05,1.96.92.53,1.8,1.41,2.77,1.53Z"/><path class="cls-1" d="M525.7,293.32c5.51-5.84,11.82-10.98,18.07-16.09,1.81-1.48,3.29-2.64,2-4.82-1.5-2.55-3.7-1.28-5.25-.08-8.06,6.2-16.06,12.52-20.56,21.93-1.59,3.32-2.29,6.76.6,10.38,1.87-4.31,2.6-8.64,5.14-11.33Z"/><path class="cls-1" d="M157.83,396.55c-2.96-2.77-6.19-5.3-9.51-7.65-3.64-2.59-7.51-4.86-11.54-7.43-2.47,3.43-.11,4.54,1.21,5.81,7.32,7.06,14.69,14.06,22.11,21.01.71.66,1.89.83,3.44,1.47,1.28-6.26-2.15-9.87-5.72-13.21Z"/><path class="cls-1" d="M601.86,302.3c.82.45,2.66.32,3.25-.28,1.57-1.58,3.5-3.4,3.97-5.36.02-.09.05-.18.07-.27.44-2.67-2.55-3.65-4.7-3.78-2.13-.12-4.68.31-6.42,1.43-6.41,4.13-12.58,8.63-18.79,13.06-.32.23-.08,1.2-.16,3.5,4.48-2.33,8.06-3.76,11.12-5.9,3.65-2.55,6.94-4.99,11.65-2.41Z"/><path class="cls-1" d="M511.45,259.15c3.58-5.07,7.13-10.15,10.69-15.23-.46-.55-.91-1.11-1.37-1.66-1.24.58-2.96.83-3.64,1.79-5.7,8.07-11.46,16.12-16.68,24.5-2.67,4.29-1.62,7.18,3.53,12.04-2.77-8.4,1.85-13.41,5.36-18.8.61-.94,1.45-1.72,2.1-2.64Z"/><path class="cls-1" d="M566.76,436.99c3.6,2.38,6.8,5.35,7.17,10.15.08,1.05.67,2.07,1.25,3.75,4.04-6.79,3.59-10.58-1.33-14.55-4.21-3.4-8.75-6.55-13.55-9.05-3.38-1.76-7.1-3.96-13.16-2.35,2.34,1.67,3.31,2.49,4.4,3.13,5.08,2.98,10.33,5.7,15.23,8.94Z"/><path class="cls-1" d="M206.4,485.11c.04-1.03-1.68-2.47-2.92-3.02-.5-.23-2.48,1.22-2.73,2.18-1.21,4.52-2.33,9.09-2.95,13.72-.26,1.9.42,3.5.82,5.31,1.92,8.72,5.56,18.06,6.6,17.8.88-.23-1.07-6.93-.83-18.79.08-3.8.04-5.72.44-7.36.79-3.22,1.44-6.53,1.57-9.83Z"/><path class="cls-1" d="M683.51,866.37c.02.12.04.25.06.37,0,0,.07-.06.11-.1l-.12.1c.1.14.2.29.29.43-.05-.19-.09-.37-.15-.56-.07-.08-.13-.17-.2-.25Z"/><path class="cls-1" d="M452.44,358.61c-2.5,2.18-4.74,4.85-6.43,7.69-3.49,5.88-2.72,12.32.02,18.01,2.81,5.83,8.64,7.54,15.04,7.21,3.17-.27,6.4-.25,9.49-.88,5.43-1.1,9.95-2.97,12.55-8.87,1.72-3.89,2.22-7,1.82-11.19-.83-8.83-1.37-10.01-9.98-10.47-1.81-.1-3.66.02-5.43-.28-1.44-.24-2.98-.71-4.17-1.51-4.56-3.08-8.81-3.29-12.92.28ZM471.2,368.37c1.14-.95,3.28-.74,5.15-1.09.8,3.39,1.26,5.56,1.83,7.69,1.06,3.99-.86,7.9-4.88,8.86-3.75.89-7.62,1.4-11.46,1.74-4.34.38-6.11-.9-6.14-5.16-.03-4.37.84-8.76,1.41-13.99,2.31.76,4.1.99,5.47,1.87,2.96,1.9,5.53,2.67,8.63.08Z"/></g></svg>