<svg id="Layer_2" xmlns="http://www.w3.org/2000/svg" viewBox="0 0 1058.53 2066.71"><defs><style>.cls-1{fill:#752e19;}</style></defs><g id="_Ñëîé_1"><path class="cls-1" d="M753.74,92.26c-1.21-.92-3.81-1.57-4.83-.91-6.06,3.96-11.37,8.68-12.17,16.59-.44,4.34-1.5,8.71-1.31,13.02.75,16.99-3.3,33.3-6.3,49.79-3.48,19.09-12.33,35.49-24.77,50.08-2.89,3.39-5.93,6.91-12.03,7.81,1.25-3.68,1.99-6.73,3.28-9.52,9.93-21.37,9.1-33.85,9.1-33.85.38-14.17-6.14-27.15-14.07-35.23-3.43-3.5-9.01-7.82-16.43-9.25-4.15-.8-9.09,2.1-13.58,3.61-1.7.57-3.1,1.97-4.72,2.82-1.26.66-2.66,1.07-4.76,1.88,1.31-6.9,3.55-12.27,6.42-17.54,3.5-6.43,7.39-12.89,9.45-19.83,3.68-12.35,2.52-24.17-8.21-33.28-4.56-3.87-6.15-3.97-11.69-.93-.94.52-2.02.8-3.89,1.53-.56-2.49-1.22-4.57-1.49-6.71-1.13-8.64-2.1-17.29-3.2-25.93-1.61-12.62-5.29-24.72-10.03-36.44-1.19-2.94-3.82-6.26-6.61-7.41-9.66-3.98-14.91-3.61-21.43,3.12-5.57,5.75-10.71,12.02-13.6,19.72-2.18,5.81-4.64,11.53-6.53,17.43-2.31,7.2-4.52,14.48-6.11,21.86-.76,3.54-1.6,12.1.45,22.4.71,3.58,2.04,8.58,12.22,27.85,2.88,5.45,6.8,12.67,11.67,21.09-1.71-1.88-4.4-4.51-8.24-6.78-3.13-1.85-6.64-3.2-10.14-4.23-5.48-1.61-11.04-3.18-16.68-3.98-6.03-.86-12.27-1.75-18.13,1.26-4.29,2.2-8.74,4.13-12.83,6.65-3.47,2.14-7.02,4.53-9.69,7.55-12.16,13.75-18.22,30.11-19.63,48.29-.45,5.84.75,11.13,3.59,16.5,3.16,5.98,8.25,9.75,12.72,14.32,6.33,6.48,12.96,10.17,19.95,11.06,11.09,1.41,19.75-4.12,22.16-5.74,8.48-5.7,11.76-13.47,14.67-20.34,2.71-6.4,5.64-13.08,3.8-21.33-1.09-4.92-3.6-9.59-7.54-13.62-2.27-2.32-5.74-4.47-8.85-4.79-8.63-.87-15.95,2.85-20.68,9.92-4.28,6.39-4.08,13.92-2.15,21.27.22.83,1.02,1.51,1.55,2.25,4.31,5.93,10.3,7.06,17.15,6.33,5.37-.57,6.12.66,4.43,5.82-2.38,7.24-7.8,11.31-14.69,13.38-7.79,2.34-15.17-.73-21.46-4.43-4.92-2.89-8.6-8.2-12.26-12.88-4.18-5.34-6.14-11.42-5.75-18.56.61-10.87,3.94-20.73,9.12-30.06,1.61-2.89,3.82-6.43,7.6-10.49,3.06-3.28,13.77-14.76,30.29-15.98,8.17-.6,14.45,1.78,20.14,3.43,8.19,2.38,14.42,6.85,18.76,14.08,11.87,19.78,12.38,40.64-1.51,58.01-11.39,14.24-14.59,29.62-11.94,47.1,1.41,9.27,1.85,18.69,2.94,28.01.69,5.91,1.8,11.77,2.71,17.66.4,2.57.76,5.15,1.25,8.48-4.69-2.9-8.22-5.27-11.93-7.33-3.35-1.85-4.61-3.43-5.88-4.84-4.58-5.11-3.94-9.29-8.83-23.1,0,0-.97-2.23-2.02-5.39-4.16-12.43-12.81-21.18-22.89-28.47-14.64-10.58-31.52-14.57-49.44-14.4-18.26.17-32.99,7.59-43.38,22.55-6.93,9.97-10.7,21.59-11.63,33.55-.77,9.96.94,20.06.32,30.19-.2,3.31-.71,5.37-2.74,7.73-3.58,4.16-7.75,8.2-10.01,13.06-6.09,13.11-11.95,26.39-15.06,40.63-.29,1.31-.29,2.67-.38,3.52-8.08-3.94-14.61-7.72-21.57-10.39-18.21-6.99-36.35-14.06-56.33-14.87-15.8-.64-29.33,3.87-40.87,14.44-1.05.96-1.68,3.67-1.1,4.9,2.38,5.05,5.3,9.52,11.89,10.13,7.78.73,15.09-1.82,20.85-3.2,10-2.39,18.39-1.61,25.37-.97,3.13.29,8.57.82,15.43,2.77,4.81,1.37,10.93,4.37,23.16,10.36,6.66,3.26,9.51,4.8,12.97,7.36,2.14,1.59,3.4,4.13,8.68,7.84,8.91,6.26,14.66,15.16,20.49,23.95,3.09,4.66,5.52,9.78,6.18,16.57-2.93-1.07-5.05-1.7-7.06-2.59-21.41-9.54-54.45-3.32-66.11,16.92-.34.59-.88,1.06-1.31,1.6-10.01,12.48-13.61,27.03-12.32,42.57.85,10.24,3.36,20.34,5.06,30.52.24,1.47.08,3.01.12,5.4-16.24-5.45-27.64-13.07-34.52-18.48-6.24-4.9-12.74-10.62-19.07-19.77-5.87-8.48-10.01-17.68-10.47-28-.55-12.19-4.72-23.32-8.57-34.61-.51-1.5-1.27-2.74-2.27-3.73,0,0-1.55-1.54-3.89-2.3-4.08-1.31-8.96.48-11.08,2.06-7.9,5.87-2.63,26.85,0,33.44,5.07,12.66,9.92,25.57,18.02,37,11.56,16.3,24.33,31.06,42.14,40.79,2.21,1.21,4.52,2.33,6.53,3.82,3.98,2.96,8.44,4.52,13.25,5.43,7,1.32,13.99,2.72,20.92,4.34,2.63.62,5.47,1.44,7.57,3.03,7.4,5.59,14.98,10.59,25.2,11.16-1.01,4.61-1.87,8.52-2.86,13.02-9.01-5.87-18.27-7.91-27.91-9.1-7.96-.98-15.81-2.79-23.72-4.17-2.93-.51-5.93-1.37-8.82-1.14-4.28.34-14.41-.66-26.62,2.9-9.19,2.68-15.53,6.4-16.8,7.16-12.29,7.33-18.08,17.18-25.25,26.18-7.69,9.64-14.31,19.83-15.26,32.55-.49,6.62-.97,13.35-.31,19.92.98,9.72,1.59,19.52,7.35,28.28,9.53,14.5,21.43,25.96,38.44,30.41,10.59,2.77,21.77,4.8,32.59.98,5.98-2.11,11.4-5.77,17.11-8.67,4.28-2.17,7.14-5.57,9.38-9.76,4.31-8.07,6.36-16.52,6.61-25.73.17-6.13-.11-11.9-2.83-17.41-1.96-3.96-5.54-6.18-9.29-5.86-3.56.31-6.81,3.41-7.32,8.07-.76,7.03-1.52,14.15-1.24,21.19.28,7.14-2.17,12.55-7.51,16.86-10.6,8.57-23.26,9.02-35.32,6.18-9.67-2.28-18.4-7.83-23.64-17.59-5.26-9.78-8.42-19.98-7.82-30.97.2-3.62.6-10.74,3.56-18.9,10.71-29.5,42.17-41.53,48.88-44.09,4.05-1.55,10.17-3.91,18.67-4.87,13.62-1.53,27.09,1.23,40.23,7.12,8.99,4.03,16.55,10.56,19.87,20.77,2.55,7.85,5.65,15.52,8.53,23.25,1.01,2.71,2.09,5.4,3.38,8.7-4.09,1.59-7.55,2.38-10.38,4.17-4.4,2.78-9.06,5.65-12.4,9.53-11.79,13.65-16.66,29.59-15.58,47.79.98,16.5,4.05,32.36,10.7,47.44,4.99,11.3,11.41,21.55,23.44,26.81,1.19.52,2.21,1.41,3.25,2.09-.3.64-.35.96-.5,1.03-.61.27-1.24.58-1.89.66-9.5,1.14-17.33,5.38-24.15,12.06-5.84,5.72-9.65,12.74-14.12,19.41-7.88,11.74-10.5,24.27-8.59,38.04,1.57,11.33,4.62,22.54,11.77,31.25,6.41,7.8,14.05,15.13,23.8,19.28,15.6,6.64,28.47,5.93,31.12,5.63.22-.02.59-.06,1.1-.14,2.8-.39,14.93-2.1,18.13-9.17,1.86-4.12-.28-7.92,2.86-10.68.82-.72,1.68-1.09,2.26-1.29,2.11,2.56,3.62,5.34,5.95,6.95,2.34,1.62,5.49,2.08,8.01,2.94-2.99,2.61-7.57,6.24-13.68,9.65-23.48,13.09-47.05,10.45-54.87,9.46-19.48-2.45-33.43-9.79-41.09-14.76-10.65-6.9-20.88-14.14-30.3-22.56-4.96-4.43-10.04-8.81-14.46-13.75-9.33-10.42-18.24-21.2-27.36-31.81-3.74-4.34-7.13-9.11-11.42-12.82-9.91-8.56-21.28-14.95-32.83-21.1-11.66-6.21-24.38-10.47-34.03-20.44-5.29-5.46-10.32-10.89-11.64-18.23-1.7-9.47-8.29-14.5-15.12-19.57-4.2-3.12-9.47-.95-10.25,4.17-1.21,8.03-.89,15.89,1.71,23.8,3.56,10.8,11.45,18.12,19.08,25.73,10.12,10.1,23.14,15.58,35.48,22.17,7.89,4.21,16.38,7.82,23.17,13.43,8.42,6.96,15.5,15.57,22.88,23.73,4.31,4.76,7.75,10.31,12.13,14.99,8.47,9.05,17.55,17.52,25.95,26.63,5.59,6.06,12.32,10.41,19.44,14.05,31.03,15.88,58.22,20.9,63.79,21.37,8.46.71,20.64.95,35.26-1.53-4.22,8.77-6.84,16.55-8.51,22.45-1.07,3.79-5.28,19.56-5.14,40.93.06,8.41.21,12.59,1.44,18.06,2.17,9.63,6.56,18.55,12.92,26.87,2.58,3.37,4.47,7.25,7.31,11.94-4.92,1.17-8.57,2.3-12.3,2.88-9.62,1.49-19.62,2.25-28.65-1.17-15.14-5.74-30.55-10.95-43.83-21.07-12.12-9.23-23.8-18.6-32.93-30.93-3.11-4.2-7.28-7.63-10.33-11.87-5.62-7.81-10.75-15.97-16.12-23.96-4.21-6.26-7.71-13.21-12.87-18.57-9.68-10.06-20.29-19.23-30.62-28.67-1.85-1.69-4.05-3.06-6.26-4.27-5.03-2.76-10-5.69-15.28-7.89-6.55-2.72-13.32-5.44-20.66-3.64-6.92,1.7-8.48,5.46-5.17,11.57,7.95,14.71,21.64,23.5,34.52,33.01,9.03,6.67,19.15,11.93,27.83,18.99,12.74,10.37,21.74,24.26,31.63,37.19,9.87,12.89,18.06,27.12,31.8,36.7,8.1,5.65,15.97,11.68,25.5,14.79,12.66,4.14,25.31,8.33,38.1,12.04,6.34,1.84,12.97,3.58,19.5,3.71,14.42.29,28.78-.12,43.1-3.3,11.4-2.54,21.99-6.04,31.66-12.65,8.83-6.04,14.69-7.5,20.01-11.94,19.5-16.29,21.31-40.34,24-39.79,2.74.56-.79,25.19-3.77,62.21-2.58,32.07-3.24,54.76-3.45,63.89-.33,14.11.18,12.1-.3,32.37-.5,21.11-1.58,42.21-1.68,63.32-.08,16.77.51,33.57,1.59,50.3,1.23,19.02,3.09,38.01,5.15,56.96,1.66,15.28,3.81,30.52,6.12,45.72,1.82,12.02,4.23,23.94,6.32,35.92,4.19,23.97,8.1,47.99,12.6,71.9,3.82,20.28,10.79,39.84,14,60.31,1.08,6.89,4.44,21.97,8.77,48.76,7.56,46.75,15.12,104.64,12.9,105.01-1.34.23-4.73-20.9-17.72-64-2.53-8.4-3.88-14.51-7.03-22.32-5.19-12.88-10.72-29.99-27.97-67.43-15.51-33.67-23.27-50.51-29.47-59.54-7.19-10.47-17.92-24.14-31.89-41.94-6-7.64-9.97-12.36-16.93-21.73-7.39-9.96-14.32-20.26-21.87-30.09-5.76-7.51-11.2-15.1-15.18-23.75-3.36-7.3-6.85-14.6-10.96-21.5-11.96-20.08-17.19-42.56-22.86-64.74-4.77-18.68-8.58-37.58-16.17-55.42-6.2-14.58-11.92-29.38-18.59-43.75-5.01-10.78-11.08-21.07-16.86-31.48-1.7-3.06-4.31-12.67-12.47-21.38-2.29-2.44-6.21-6.55-8.48-5.54-3.33,1.47-1.23,13.08-.12,18.9,5.37,28.11,12.99,50.17,16.37,63.4,4.95,19.36,9.65,38.78,14.64,58.13,2.76,10.68,5.79,21.28,8.9,31.87,5.5,18.74,10.33,37.73,16.94,56.08,9.21,25.57,22.01,49.58,35.99,72.84,12.3,20.46,25.79,40.18,40.84,58.81,9.38,11.6,17.57,24.16,26.82,35.86,18.41,23.29,35.77,47.24,49.9,73.45,10.6,19.67,19.74,39.94,26.48,61.23,1.23,3.9,1.54,4.99,2.23,7.21,0,0,.61,1.99,1.53,4.85,2,6.21,29.28,58.06,40.15,99.21,3.1,11.76,6.34,28.22,4.15,28.95-3.25,1.09-14.5-33.71-42.24-83.78-12.49-22.54-12.06-17.21-29.64-49.65-17.69-32.64-30.47-46.62-43.92-59.87-15.76-15.52-28.53-23.15-44.61-45.78-2.21-3.12-4.72-8.44-11.51-17.9-11.55-16.1-20.47-33.75-30.49-50.75-10.84-18.39-20.82-37.31-33.39-54.63-9.98-13.75-19.97-27.49-30.33-40.95-6.28-8.16-13.5-15.61-19.89-23.69-6.83-8.64-13.05-17.75-19.78-26.47-14.73-19.08-29.59-38.08-44.47-57.05-5.25-6.69-10.75-13.17-16.09-19.79-7.78-9.65-16.22-18.85-23.09-29.11-9.69-14.48-18.58-29.54-27.13-44.74-8.54-15.2-16.46-30.76-24.24-46.37-9.01-18.08-17.46-36.36-23.37-55.85-3.14-10.35-4.58-21.71-12.75-30.51-8.96-2.55-11.5-.52-11.42,9.36.04,5.28-.81,10.64-.18,15.83,2.21,18.23,3.83,36.63,7.69,54.52,4.25,19.72,10.57,39,20.74,56.73,7.99,13.93,15.48,28.15,23.71,41.92,5.51,9.23,11.83,17.99,17.97,26.84,10.33,14.89,19.87,30.33,32.31,43.71,9.66,10.4,18.13,21.95,28.12,32,12.34,12.42,22.57,26.55,34.26,39.47,4.46,4.93,8.74,10.04,13.28,14.9,9.09,9.73,18.52,19.14,27.4,29.05,8.57,9.57,16.72,19.53,24.86,29.48,6.4,7.82,12.88,15.62,18.67,23.88,11.33,16.15,18.31,26.78,24.32,36.75,4.22,6.99,10.24,17.04,9.25,17.75-.8.57-4.73-5.86-13.09-13.01-5.23-4.48-14.44-9.53-32.88-19.6-10.59-5.78-12.98-7.39-18.46-10.53-14.57-8.36-41.61-14.9-74.88-24.19-36.98-10.32-45.74-14.02-52.68-17.32-13.02-6.19-21.6-12.19-34.36-20.29-19.76-12.54-38.52-26.32-55.79-42.33-12.9-11.97-27.62-22-41.68-32.68-11.14-8.46-22.57-16.53-33.77-24.91-2.74-2.05-5.01-4.72-7.63-6.96-2.96-2.54-6.02-4.98-9.12-7.35-2.89-2.22-5.72-.85-8.38.55-2.73,1.43-1.95,3.71-1.22,6,.83,2.62,1.46,5.31,2.17,7.98,3.76,14.08,12.56,25.61,20.39,37.32,16.76,25.06,26.48,36.66,39.23,49.57,2.67,2.7,11.63,11.67,24.5,22.12,12.02,9.76,20.59,15.24,37.35,25.96,2.21,1.41,5.61,4.13,10.85,5.94,17.77,6.15,35.68,11.92,53.51,17.91,9.35,3.14,18.67,6.38,27.97,9.69,5.6,1.99,10.98,4.87,16.73,6.15,11.84,2.64,23.78,5.21,35.82,6.49,19.61,2.09,37.24,9.82,54.77,17.8,10.63,4.84,20.79,10.8,30.88,16.72,5.3,3.11,10.29,6.91,14.93,10.97,7.77,6.79,14.98,14.22,22.72,21.05,13.59,12.01,27.4,23.78,41.12,35.64,11.85,10.25,21.72,18.79,23.43,20.28,44.88,39.25,84.9,111.57,84.2,112.03-.3.19-8.11-12.57-24.42-31.74-9.88-11.62-13.76-14.86-15.18-16.02-10.93-8.91-21.26-12.91-32.39-16.39-14.54-4.55-29.35-7.28-44.27-9.53-12.44-1.87-25.09-2.41-37.63-3.62-5.93-.58-11.81-1.59-17.75-2.01-10.74-.77-21.51-1.09-32.25-1.87-19.19-1.4-38.34-3.45-57.55-4.39-13.41-.66-26.4-2.9-39.19-6.68-3.07-.91-6.09-2.1-8.98-3.46-9.55-4.49-18.97-9.24-28.56-13.63-4.16-1.9-8.53-3.5-12.97-4.58-2.78-.68-5.97-.65-8.76,0-3.85.9-5.12,4.93-2.71,7.98,3.68,4.67,7.14,9.71,11.6,13.54,10.42,8.96,21.02,17.79,32.22,25.73,8.39,5.94,17.69,10.65,26.81,15.47,13.43,7.1,27.07,13.8,42.92,13.2.9-.03,1.82.18,2.73.34,14.25,2.48,28.61,4.06,43.06,3.79,15.59-.29,31.17-1.35,46.76-1.95,13.53-.52,27.07-1.33,40.58-1.09,8.41.15,17.18.8,25.11,3.34,18.16,5.84,34.93,14.92,51.16,25,21.15,13.13,35.5,33.12,51.44,51.36,7.45,8.52,12.64,19.18,18.01,29.32,5.01,9.46,8.12,17.06,13.32,29.52,5.12,12.25,9.13,23.03,10.97,28.21,11.4,32.17,15.38,67.63,17.5,87.3,2.52,23.4,6.17,66.3,6.2,72.03.18,28.07,3.39,35.5,6.14,35.85,5.73.74,14.81-30.34,16.33-35.55.86-2.93.52-1.36,6.78-26.67,1.54-6.23,2.58-12.63,4.62-18.69,3.38-10.03,4.74-20.06,2.41-30.49-2.14-9.61-4.21-19.24-6.21-28.88-2.33-11.23-4.7-22.45-6.81-33.73-3.5-18.7-7.22-37.37-10.07-56.18-2.92-19.26-4.88-38.67-7.31-58.01-.77-6.15-1.49-12.31-2.59-18.41-4.56-25.29-9.28-50.56-13.89-75.84-.78-4.28-1.5-8.58-1.9-12.9-.9-9.6-1.77-19.2-2.33-28.82-.91-15.33-3.09-30.62-1.59-46.06.78-8,1.53-16.05,1.56-24.07.04-16.05,3-31.54,8.68-46.43,9.34-24.53,19.81-48.54,35.91-69.6,1.67-2.18,3.24-4.49,5.22-6.36,14.66-13.81,32.16-22.67,50.94-29.49,11.21-4.07,22.38-8.43,33.08-13.65,4.85-2.36,8.9-3.95,12.64-5.13,7.82-2.45,13.93-3.34,16.28-3.67,26.78-3.73,42.82-5.97,58.63-12.17,9.07-3.56,16.2-7.81,30.46-16.31,16.43-9.79,13.55-9.76,23.7-15.22,21.47-11.54,41.91-15.75,50.32-17.49,4.11-.85,7.96-1.26,10.05-1.83,14.36-3.92,28.56-3.96,42.83.36,6.8,2.06,13.86,3.33,20.56,5.68,13.03,4.56,23.71-1.23,34.32-7.23,3.36-1.9,3.37-5.05-.05-7.07-2.84-1.67-6.35-2.28-9.63-3.1-5.76-1.44-11.62-2.46-17.33-4.07-4.4-1.24-8.65-3.04-12.93-4.71-6.23-2.43-10.71-4.45-12.03-5.03-8.44-3.71-22.52-8.89-36.98-12.31-3.55-.84-15.56-5.04-31.86-4.68-17.33.38-32.23-2.18-50.11,3.35-2.45.76-14.79,4.68-28.32,13.68-9.18,6.1-15.38,11.41-33.99,25.09-1.67,1.22-3.26,2.67-5.12,3.5-15.72,7.02-31.43,14.08-47.3,20.76-5.9,2.48-12.35,3.65-18.31,6.01-18.83,7.46-29.39,10.25-42,17.33-14.54,8.17-24.79,16.85-27.24,18.95-2.24,1.93-2.53,1.78-14.33,13.17-9.94,9.59-19.93,19.24-21.3,18.09-.89-.74,2.26-5.62,6.39-12.48,16.58-27.52,15.3-30.03,26.47-46.67,5.37-8,10.9-15.81,18.27-22.32,10.65-9.41,21.17-18.86,32.49-27.57,14.92-11.49,29.03-24.01,45.29-33.68,11.44-6.8,22.94-13.52,34.47-20.17,9.33-5.38,18.78-10.55,28.11-15.91,4.57-2.63,9.04-5.42,13.49-8.25,5.62-3.57,11.53-6.81,16.67-10.99,15.16-12.31,30.42-24.44,46.79-35.12.96-.62,1.79-1.43,2.72-2.1,8.89-6.47,17.45-13.46,26.77-19.24,10.32-6.39,20.97-12.39,32.61-16.28,1.08-.36,2.12-.92,3.1-1.51,17.95-10.78,35.77-21.77,50.86-36.5,6.39-6.23,13.56-12.05,18.45-19.34,9.59-14.29,16.98-29.94,23.53-45.88,2.06-5.02,4.25-10.24,2.38-16.02-1.84-5.71-4.31-7.01-9.72-4.14-2.59,1.37-5.09,3.26-7.03,5.44-5.47,6.17-10.47,12.75-15.94,18.92-8.5,9.6-17.19,19.04-25.88,28.48-12.17,13.23-25.77,24.86-40.34,35.37-3.35,2.41-6.77,4.79-10.41,6.71-20.76,10.95-41.78,21.11-64.89,26.56-17.27,4.07-33.24,12.01-49.5,19.03-18.4,7.95-36,17.33-52.99,27.88-7.4,4.6-14.26,10.04-21.64,14.66-14.28,8.95-27.4,19.35-39.43,31.07-15.95,15.56-25.82,28.52-42.62,52.26-20.67,29.2-27.14,43.6-29.94,42.42-4.36-1.83,6.35-38.86,17.05-66.48,6.07-15.68,12.16-34.22,26.33-55.25,9.23-13.7,17.24-28.22,26.6-41.82,6.33-9.2,10.51-19.35,15.02-29.32,4.23-9.34,6.9-19.38,10.18-29.14,4.73-14.09,1.19-16.08,5.16-31.87,2.76-10.99,5.22-15.86,3.22-17.37-3.19-2.4-14.15,6.35-20.2,12.39-4.93,4.93-7.98,9.29-8.49,10.24-8.57,15.98-17.32,31.89-25.2,48.21-6.32,13.08-13.33,25.64-21.78,37.45-4.94,6.9-9.8,13.88-14.26,21.1-4.46,7.21-8.16,14.88-12.58,22.12-5.44,8.9-9.78,18.16-12.08,28.4-1.41,6.26-3.12,12.49-5.26,18.54-6.26,17.64-10.19,35.8-12.31,54.33-.69,6.08.37,12.33.08,18.48-.42,8.94-1.25,17.87-2.07,26.79-.42,4.57-.79,9.2-1.89,13.63-3.36,13.59-6.96,27.13-10.68,40.63-2.07,7.52-4.4,14.99-6.87,22.39-4.95,14.82-9.58,29.66-11.24,45.33-.66,6.24-1.34,12.68-4.18,18.38-3.79.08-3.84-2.33-4.2-4.64-.86-5.45-1.67-10.91-2.78-16.31-2.67-13.04-5.79-25.99-8.21-39.07-5.02-27.07-9.81-54.18-14.46-81.31-1.78-10.38-3.02-20.85-4.28-31.3-.85-7.03-1.39-14.1-1.95-21.17-1.15-14.62-2.6-29.23-3.21-43.88-.8-19.21-4.51-38.2-2.84-57.63,1.17-13.63.2-27.46.08-41.2-.14-16.49-.91-32.99-.45-49.46.55-19.92,1.73-39.84,3.49-59.69.46-5.23,4.05-10.18,6.21-15.26,1.64,2.64,1.96,5.11,2.58,7.49,1.73,6.67,2.89,13.95,9.07,18.04,6.76,4.47,11.92,9.27,22.19,12.25,25.76,7.47,39.97,11.59,61.09,9.84,25.93-2.15,44.16-11.64,54.93-17.39,23.24-12.41,37.82-27.7,42.48-32.81,11.01-12.08,10.81-15.86,27.82-35.86,3.17-3.72,10.87-15.59,25.01-26.44,12.67-9.72,24.41-20.65,39.9-26.25,6.79-2.45,12.31-2.09,18.1,2.02,3.14,2.23,6.72,4.05,10.35,5.31,4.85,1.68,11.3-1.73,12.06-6.36.82-5.03.59-10.12-3.11-14.31-1.82-2.06-3.38-4.4-5.42-6.21-8.36-7.42-16.88-14.58-29.31-9.17-.82.36-1.81.3-2.7.52-10.08,2.44-18.69,7.36-26.06,14.72-15.15,15.12-29.24,31.17-42.48,47.98-7.67,9.74-14.77,20.04-23.31,28.94-14.39,15-31.55,26.68-49.65,36.8-7.38,4.13-15.44,7-23.08,10.67-5.02,2.42-10.02,4.53-15.74,4.55-3.43.01-6.92.14-10.28.76-10.52,1.94-20.9,2.42-31.14-1.41-1.7-.64-3.63-.65-5.38-1.17-8.14-2.41-16.32-4.7-24.34-7.46-2.85-.98-5.28-3.16-8.63-5.25,14.31-8.48,20.29-22.13,27.64-34.83,16.6,1.23,27.94,3.51,35.37,5.45,3.47.9,12.7,2.27,25.13,4.25,2.25.36,4.58.36,6.86.26,14.27-.58,25.6-8.11,36.45-16.21,6.97-5.21,13.24-11.35,19.71-17.2,2.01-1.82,3.88-3.89,5.42-6.12,5.25-7.54,10.21-15.27,15.49-22.79,7.52-10.72,15.15-21.38,20.47-33.43,8.44-19.1,17.57-37.85,27.19-56.4,13.32-25.69,31.23-47.41,52.84-66.34,3.8-3.33,7.66-6.59,11.46-9.92,5.05-4.43,5.99-10.03,4.7-16.34-1.61-7.86-7.84-10.8-14.35-6.1-10.63,7.68-20.87,15.9-29.09,26.26-14.74,18.57-27.84,38.34-39.22,59.06-12.15,22.13-22.81,45.08-34.12,67.67-.61,1.23-1.25,2.46-2,3.6-10.15,15.34-20.69,30.32-33.36,43.81-11.21,11.94-23.2,22.2-39.51,26.06-4.65,1.1-9.47,2.17-14.2,2.12-11.46-.11-22.83-1.34-34-4.21-5.04-1.29-10.22-2.04-15.83-3.13.49-5.48.3-10.41,1.52-14.96,1.27-4.74-1.82-9.87,1.15-14.26,2.33,1.78,4.11,3.67,6.29,4.69,4.79,2.23,9.65,4.5,14.71,5.89,11.04,3.01,22.3,4.27,33.04-1.04,11.99-5.93,21.81-14.61,28.64-26.13,5.28-8.9,8.8-18.66,10.77-28.86,1.35-6.96,2.1-14.04,3.41-21,1.21-6.47.81-12.79-.84-19.09-2.3-8.78-6.84-16.46-11.52-24.14-4.15-6.81-9.94-10.74-17.7-11.62-3.83-.43-7.75-.25-11.62-.1-4.52.17-9.03.62-13.44.94-.31-.64-.68-1.04-.66-1.42.56-15.45-1.97-30.15-10.16-43.59-1.91-3.12-3.38-6.53-4.89-9.87-2.02-4.48-2.23-8.82,1.09-12.95,1.27-1.58,2.11-3.52,3.16-5.28,4.01-6.69,7.97-13.27,14.28-18.33,2.48-1.99,8.22-8.81,17.58-16.41,3.82-3.1,18.12-14.46,37.53-22.68,4.12-1.75,8.43-2.95,14.02-3.54,5.84-.62,11.53.31,16.63,3.35,6.89,4.1,13.65,8.41,20.44,12.68,7.9,4.96,12.29,12.1,13.38,21.4,1.48,12.64,1.74,25.25-1.12,37.73-2.11,9.21-4.36,18.71-11.25,25.55-7.14,7.1-14.99,13.61-23.13,19.55-7.77,5.67-16.71,7.52-26.15,3.87-4.72-1.83-9.83-3.04-14.03-5.69-6.14-3.88-12.68-7.96-17.11-13.51-1.73-2.17-7.45-11.47-5.73-23.08,2.49-16.89,19.44-28.18,23.52-25.96,1.11.6,3.18,3.08,3.96,4.49.55,1,.96,2.19,1.76,2.94,5.52,5.13,5.81,11.38,3.27,17.74-3.81,9.56.47,16.51,6.69,22.85,3.25,3.32,7.74,4.05,10.66,2.21,5.23-3.29,8.43-8.07,8.08-14.29-.26-4.76-1.43-9.5-2.54-14.16-1.96-8.22-6.81-15.07-11.45-21.87-2.81-4.12-7.1-7.51-12.4-8.9-4.85-1.27-8.92-.41-11.19.11-10.2,2.35-20.3,10.51-24.9,21.87-4.99,12.3-1.33,23.38-.16,27.91,2.27,8.78,5.11,17.29,14.24,21.63,1.01.48,1.83,1.38,2.75,2.07,8.59,6.55,18.53,10.48,28.88,12.48,10.85,2.1,20.92-1.18,29.4-8.57,3.11-2.71,5.99-5.75,9.34-8.13,15.63-11.12,21.84-27.51,24.64-45.34,1.7-10.84,2.2-21.97,2.17-32.97-.04-16.8-2.38-33.13-15.19-45.86-.44-.43-.51-1.23-1.06-2.63,3.55-4.11,7.38-8.33,10.97-12.73,9.99-12.26,19.88-24.61,29.81-36.92.43-.54.98-1,1.34-1.57,7.15-11.22,14.45-22.34,21.35-33.7,6.72-11.06,14.6-21.09,23.75-30.25,4.68-4.69,9.86-8.33,16.04-10.35,6.27-2.05,10.73-5.96,14.15-11.42,3.25-5.19,3.42-7.47-.99-11.47-2.24-2.03-5.52-3.94-8.39-4.03-7.92-.27-15.32,1.6-21.69,7.1-13.94,12.03-24.62,26.53-33.56,42.46-2.58,4.61-5.03,9.31-7.88,13.74-9.05,14.09-18.07,28.21-27.49,42.06-5.81,8.54-12.15,16.74-21.81,21.56-1.72.86-2.94,2.73-4.39,4.14.98-2.23,1.84-4.52,2.95-6.69,1.98-3.87,4.78-7.45,6.05-11.53,5.49-17.6,7.08-35.56,3.26-53.75-1.56-7.46-3.61-14.86-9.09-20.52-3.82-3.94-8.1-7.44-12.28-11.01-2.04-1.74-4.31-3.2-6.85-5.06,1.34-1.78,2.18-3.07,3.19-4.21,9.1-10.26,19.72-19.05,27.42-30.71,8.05-12.18,15.76-24.28,18.19-38.98,3.07-18.57,7.05-36.99,8.62-55.8.84-10.04,2.52-20,3.43-30.03.39-4.31-.01-8.73-.45-13.06-.43-4.29-2.45-7.78-6.31-10.15-2.37-1.46-4.37-1.56-5.94.82-2.76,4.17-6.03,7.91-7.55,13-2.8,9.4-3.63,18.92-3.7,28.61-.08,11.02-.05,22.05-.24,33.07-.08,4.8-1.15,24.74-10.57,46.16,0,0-13.14,29.89-46.39,52.61-12.65,8.65-22.35,8.01-24.53,8.78-.57.2-1.3-.04-1.76-.06-5.8-9.72-11.47-19.23-17.51-29.34,2.53-.65,4.24-1.14,5.96-1.52,8.51-1.86,14.59-3.15,15.59-3.35,13.64-2.74,27.61-32.17,29.24-35.61,10.87-22.91,10.93-42.17,10.68-48.96-.13-3.38.22-6.69-1.1-10.88-4.18-13.32-10.68-25.62-20.61-35.41-6.12-6.03-13.7-10.71-21.02-15.37-10.14-6.46-21.2-10.08-33.4-7.14-6.68,1.61-13.27,3.65-19.86,5.63-1.23.37-2.59,1.24-4.25,2.26-13.74,8.39-14.3,21.42-28.55,31.48-1.2.85-2.19,1.46-2.68,1.75.18-2.59.27-4.41.44-6.22,1.45-15.06,3.42-30.1,4.25-45.2,1.19-21.73,4.82-42.8,12.07-63.41,3.66-10.41,10.35-17.08,19.66-21.84,3.68-1.88,7.5-3.52,11.33-5.08,15.91-6.47,25.54.43,28.17,17.19.11.68.21,1.37.24,2.06.62,15.99,2.15,25.85,1.06,34.39-1.49,11.64-7.91,31.39-19.84,33.77-4.7.94-11.5-.57-13.88-4.72-1.23-2.14-1.27-4.57-.77-7.85.59-3.85,1.78-7.61,2.5-11.45,1.59-8.41-3.31-13.09-11.78-12.21-8.25.86-21.18,15.12-18.89,26.28.51,2.47,1.37,4.86,2.13,7.28,1.96,6.28,3.85,9.77,6.63,11.73,3.34,2.36,7.08,2.6,10.66,2.53,16.9-.35,32.34-.66,47.92-12.22,2.17-1.61,6.34-4.29,10.08-9.34,7.52-10.17,10.52-22.33,15.02-33.83.5-1.27.7-2.67.96-4.02,2.82-14.63,3.64-29.42-.88-43.67-2.6-8.2-.53-14.2,4.19-20.26.28-.36.49-.78.75-1.16,5.31-7.59,11.97-9.45,20.38-5.75,9.91,4.36,17.92,10.83,24.18,19.81,4.4,6.32,6.58,13.22,6.96,20.56.4,7.76-.49,15.57-.44,23.36.1,16.87-8.23,29.72-19.42,41.14-5.26,5.37-5.49,5.16-12.01,1.69-9.11-4.83-10.59-4.28-14.95,5.11-1.86,4.01-1.77,8,1.51,10.77,5.23,4.41,10.84,8.66,18.36,8.02,7.08-.6,13.45-2.63,17.95-8.8,1.87-2.57,4.66-4.44,6.74-6.89,3.25-3.83,6.56-7.67,9.28-11.87,6-9.28,10.68-18.98,12.95-30.14,2.87-14.16,6.56-27.94,4.72-42.7-1.42-11.38-4.39-22.16-10.06-31.93-8.16-14.06-20.01-22.25-37.23-21.48-7.99.36-16.31-.85-25.85,2.95-10.1,4.01-16.61,10.79-20.23,15.41-4.1-2.41-7.5-4.26-10.74-6.36-3.04-1.96-3.07-4.46-.21-6.56.91-.67,2-1.17,3.08-1.53,7.02-2.37,12.33-7.42,17.01-12.58,6.12-6.75,11.43-14.38,16.23-22.17,7.63-12.36,13.35-25.54,16.23-40.01,1.97-9.87,5.66-19.39,8.6-29.06,2.87-9.43,6.21-18.74,8.51-28.31,1.99-8.31.15-16.1-7.12-21.59ZM553.26,192.85c-2.01-.35-4.31-2.55-5.33-4.5-3.23-6.22.93-17.07,7.3-20.13,5.27-2.53,10.76-1.15,14.67,3.68,4.93,6.1,4.97,13.7.16,22.19-6.04-.38-11.5-.33-16.8-1.24ZM407.6,393.05c-.4.32-.8.64-1.19.96-1.75-1.59-3.67-3.04-5.23-4.8-2.37-2.68-5-4.9-7.99-6.62-2.39-1.38-4.36-2.09-5.52-2.49-26.93-9.25-30.59-12.98-43.33-14.19-11.74-1.11-32.22-.18-37.76,2.2-.63.27-3.5,1.58-6.38.6-.93-.32-1.83-.88-2.7-1.78-.32-3.19,1.92-4.91,4.16-6.45,5.99-4.1,12.66-6.48,19.9-7.02,14.89-1.12,29.19,1.22,42.94,7.2,7.96,3.46,16.29,6.08,24.15,9.73,4.51,2.1,8.61,5.25,12.53,8.39,4.53,3.63,5.61,8.97,6.43,14.27ZM319.77,534.42c-11.92-8.15-21.22-18.62-30.54-29.5-9.91-11.57-17.21-24.29-22.85-38.13-3.39-8.32-5.71-16.99-3.76-26.16.24-1.12.34-2.36.93-3.27.7-1.07,1.93-2.64,2.8-2.56,1.3.12,3.15,1.23,3.59,2.38,1.24,3.21,2.36,5.08,5.18,15.67h0c2.11,7.92,2.69,13.9,2.84,15.17.8,6.78,5.68,15.04,8.22,21.25,11.91,29.07,38.26,44.24,45.22,46.81,13.74,5.07,15.81,5.25,15.81,5.25,4.16.47,5.87,1.89,8.41,6.45-13.72-1.66-25.2-6.05-35.86-13.33ZM711.37,786.63c-.72-1.12-1.3-2.32-1.95-3.49.34-.26.67-.53,1.01-.79,1.09.77,2.58,1.3,3.21,2.35,5.82,9.72,13.37,18.78,12.79,31.13-.15,3.12.5,6.68-3.47,8.12-2.47.9-6.43-1.1-8.33-4.74-.98-1.88-1.2-4.35-1.13-6.53.07-2.48.45-5.1,1.38-7.38,2.88-7.07.2-12.92-3.51-18.67ZM652.09,388.26c-6.51,2.83-13.36,2.77-17.49-.8-2.4-2.08-3.4-4.97-4.25-7.29-.53-1.46-2.13-6.27-.83-11.39,2.61-10.31,15.46-15.69,17.19-14.02.22.21.17,1.48.06,4.01-.02.43-.02,2.57-.25,3.86-1.31,7.4-3.37,9.96-3.06,14.05.23,2.98,1.94,7.03,8.62,11.59ZM707.03,266.99c2.07-13.51,28.49-21.34,45.59-19.88,6.45.55,10.53,2.33,12.83,3.56,3.84,2.04,7.2,4.91,10.11,8.59,6.99,8.83,10.78,19.24,12.9,30.13,1.99,10.22,1.23,20.57-.55,30.79-.86,4.97-2.13,9.87-3.08,14.83-3.74,19.56-14.06,35.17-28.8,48.13-5.49,4.83-11.69,7.65-18.93,4.61-2.3-.97-4.26-3.29-5.71-5.45-.64-.95.41-3.03.66-4.4,4.63,1.28,8.25,2.78,12,3.2,6.3.72,9.89-4.39,13.88-7.94,3.36-3,5.93-6.95,8.6-10.65,6.37-8.83,9.27-18.96,9.9-29.63.58-9.8,1.13-19.7.41-29.46-1.19-16.14-9.49-28.54-22.98-37.25-4.59-2.96-9.75-5.15-14.83-7.24-11.55-4.74-21.74-1.47-28.56,8.82-.74,1.11-1.5,2.21-3.37,3.17-.19-1.04-.31-2.39-.07-3.93ZM580.17,80.19c-.59-6.09-.55-11.34.08-14.32,3.1-14.61,7.2-28.98,14.24-42.27,2.13-4.02,4.97-7.75,7.99-11.17,1.74-1.98,4.33-3.46,6.82-4.49,6.18-2.54,12.63-.11,14.47,6.29,3.99,13.88,7.62,27.89,10.59,42.01,1.45,6.89,1.26,14.15,1.46,21.26.2,7.07-4.98,11.43-7.06,14.31-5.63,7.78-13.18,19.04-22.66,35.51-.33.07-.65.14-.98.21-8.79-8.56-22.77-25.07-24.94-47.35ZM610.32,170.9c-.19-3.63-1.38-7.19-1.78-10.82-.67-6.12-1.1-12.27-1.53-18.41-.06-.86.42-1.55.77-2.57,5.86-17.13,16.06-30.25,16.06-30.26,8.39-10.81,8.84-9.56,15.26-16.68,2.29-2.53,4.39-5.39,7.12-7.34,6.56-4.68,12.52-2.43,14.63,5.43,2.61,9.72,1.39,18.99-3.55,27.9-4.33,7.79-8.33,15.78-12.11,23.85-1.63,3.49-2.24,7.44-3.48,11.12-2.55,7.58-5.16,15.15-7.85,22.68-2.31,6.45-4.77,12.85-7.17,19.26-.69,1.85-1.42,3.69-2.35,6.1-4.87-4.42-5.87-12.41-13.83-11.61-.03-6.41.15-12.55-.18-18.66ZM581.04,307.16c2.84,3.58,5.23,8.56,5.66,9.46.77,1.6,1.47,3.25,2.1,4.97,5.57,15.04,3.22,34.66,3.22,34.66-1.21,10.03-2.82,23.29-10.16,25.82-1.14.39-2.41.86-4.84.44-.06-.01-.12-.02-.18-.03,2.24-2.07,4.71-5.09,6.37-8.68,3.33-7.22,2.1-13.79,1.19-17.94-.65-2.95-1.38-4.21-2.11-5.11-1.87-2.31-4.81-3.6-8.43-4-14.54-1.62-25.5,8.4-24.89,23.09.28,6.81,4.51,11.29,9.73,14.96,6.09,4.28,13.21,4.9,20.32,5.48,1.55.13,3.09.27,4.86.42-.6,32.91-4.7,65.08-10.64,97.4-.41-1.06-1.02-2.09-1.21-3.2-2.13-12.18-3.66-24.5-6.44-36.52-3-12.97-9.87-23.11-22.72-29.19-7.74-3.66-15.13-8.95-21.2-14.99-4.88-4.85-7.36-12.04-11.23-17.98-6.38-9.82-6.19-20.87-4.09-31.31,1.01-5.04,1.51-11.59,4.06-18.84.63-1.81,14.64-40.02,39.26-41.69,5.38-.36,10.45,1.07,12.62,1.68,3.98,1.12,12.83,3.62,18.76,11.08ZM572.93,381.79c-6.89-1.23-10.44-2-11.03-2.56-5.61-5.29-4.59-19.42,3.7-24.54,4.5-2.79,9.6-1.95,11.51-1.53.45.56,1.27,1.69,1.94,3.26,3.82,9.01-3.06,19.82-6.12,25.37ZM557.98,502.98c-5.4-7.32-9.23-15.79-16.57-21.75-2.84-2.31-4.48-5.68-5.62-9.74-3.66-13.03-11.56-23.38-23.47-30.22-4.73-2.72-9.46-5.65-15.31-5.66-1.46,0-2.92-1.04-5.31-1.96,3.55-3.77,6.44-7.22,9.74-10.23,2.71-2.46,4.17-5.27,4.86-8.81.87-4.46,2.17-8.84,3.4-13.75,1.28.85,2.27,1.16,2.68,1.82,6.75,11.2,18.55,16.05,28.85,22.65,9.54,6.12,15.95,13.59,18.28,25.21,3.99,19.87,5.56,40,7.79,60.06.4,3.57-.27,7.26-.47,11.49-.87-.7-1.63-1.01-1.68-1.41-.81-6.55-3.33-12.51-7.16-17.71ZM542.84,734.75c-1.5-1.43-2.34-1.92-2.72-2.64-5.22-9.88-13.94-15.63-23.76-19.98-8.27-3.67-9.17-5.71-7.8-14.86.81-5.42,2.81-9.46,7.88-11.91,5.56-2.69,10.94-2.45,15.42,1.63,11.35,10.35,17.16,23.09,14.72,38.7-.45,2.91-2.27,5.6-3.75,9.06ZM546.95,741.4c-.41,2.33-.74,4.04-1,5.75-1.93,12.7-3.81,25.41-5.76,38.1-1.04,6.8-2.09,13.61-3.34,20.38-.4,2.18-1.46,4.24-2.41,6.87-7.96-4.55-14.6-10.57-23.86-10.82-8.46-.23-17.15-2.27-25.31-.92-8.38,1.38-16.25,5.9-24.22,9-7.78-7.25-15.57-14.52-23.85-22.24,13.61-5.57,24.84-14.32,35.11-25.18,2.7,1.14,5.62,2.38,8.53,3.61,7.05,2.98,14.16,3.47,21.5.89,7.14-2.5,14.39-4.65,21.57-7.04,6.66-2.21,11.7-6.56,14.46-12.92,1.66-3.82,4.41-4.66,8.57-5.48ZM526.37,677.28c-4.65-1.44-9.17-1.34-13.53.05-4.03,1.29-7.13,4.2-8.36,8.53-1.07,3.76-2.06,7.54-2.99,11.34-2.68,10.98,1.02,18.11,11.33,22.56,4.41,1.9,8.75,4.04,12.9,6.44,3.76,2.17,5.78,5.78,6.8,9.98,1.2,4.91-.26,9.49-4.75,11.76-11.13,5.62-22.88,9.97-35.26,11.07-4.78.43-10.3-2.21-14.72-4.76-4.03-2.33-7.44-6.12-10.39-9.85-4.11-5.21-8.03-10.7-11.09-16.57-1.94-3.71-2.81-8.28-3.04-12.53-.37-6.63-.06-13.33.46-19.96.28-3.63,1.04-2.58,2.8-8.89,1.86-6.68,1.97-9.05,3.52-14.54,0,0,1.1-4.29,3.89-11.03,10.69-25.82,32.41-35.09,32.41-35.09,11.64-4.97,22.17-4.51,26.22-4.33,7.48.33,12.37,2.15,14.13,2.64,10.39,2.86,15.3,11.04,16.85,20.66,2.54,15.72,1.87,27.34,1.88,27.34-1.68,12.28-3.13,22.9-4.35,31.91-4.67-12.47-14.45-23.51-24.71-26.7ZM466.17,627.05c.51.76,1.03,1.53,1.45,2.34,3.63,6.95,3.04,9.27-3.79,14.49-.73-.2-1.05-.19-1.15-.34-9.43-13.8-17.66-27.98-13.61-45.76,1.4-6.15,4.03-8.49,9.61-9.1,4.62-.51,7.95,1.87,10.7,5.06,1.83,2.12,1.52,6.18-1.15,8.05-3.99,2.79-5.76,6.44-6.01,10.95-.28,5.15,1.05,9.98,3.94,14.33ZM523.13,614.79c.88-5.43,1.16-9.73,2.35-13.76,1.22-4.12,1.48-7.93.3-12.11-1.93-6.84-3.42-13.79-9.27-19.51,1.66-1.85,3.12-3.48,4.58-5.11,4.08-4.57,8.13-9.18,12.26-13.72,3.23-3.55,6.4-7.19,9.94-10.41.99-.9,3.65-1.17,4.81-.49,7.33,4.32,12.95,9.5,13.05,19.33.11,11.05-.2,21.82-3,32.64-1.69,6.53-1.46,13.57-1.9,20.4-.33,5.13.64,10.39-2.18,16.95-7.87-11.02-17.81-15.3-30.94-14.22ZM494.79,495.53c-1.48.46-2.68,2.32-3.67,3.77-1.13,1.66-1.87,3.57-2.95,5.7-.75-.69-1.41-1.02-1.6-1.52-3.67-9.97.2-25.24,8.8-31.22,7.91-5.51,16.71-4.52,24.63.23,11.37,6.82,20.14,16.46,27.7,27.31,5.85,8.4,10.43,17.23,11.49,27.57.22,2.15.32,4.32.47,6.48-.47.15-.93.3-1.4.46-1.09-1.31-2.49-2.46-3.22-3.95-4.66-9.52-11.79-16.17-21.81-19.84-1.75-.64-3.17-2.41-4.52-3.87-2.16-2.33-4.13-4.84-6.2-7.26-6.96-8.16-20.49-6.11-27.72-3.85ZM517.21,525.28c-5.15,2.73-10.58,2.83-16.12,1.66-3.32-.7-5.04-2.97-5.68-5.87-2.37-6.73.16-14.47,5.61-17.74,6.97-4.18,13.64-2.91,18.94,3.59.44.53.97.99,1.37,1.55,4.95,6.89,3.49,12.79-4.12,16.81ZM485.08,398.63c-2.15-2.93-4.11-6-6.03-9.09-2.36-3.79-3.02-7.78-.01-11.49,1.98-2.45,9.27-2.38,12.93-.1,5.07,3.16,8.55,7.39,9.46,13.56,1,6.73.33,13.38-1.96,19.58-2.2,5.94-7.44,9.64-13.78,12.73.83-3.73,1.39-7.55,2.55-11.17,1.73-5.41-.03-9.78-3.15-14.03ZM508.51,305.05c-4.94-2.98-10.09-5.25-15.97-5.81-6.37-.61-12.7-2.28-19.06-2.34-6.76-.06-13.53,1.22-20.68,1.96-1.33-4.78.32-9.69.9-14.56.86-7.15,2.64-12.34,2.99-13.43,2.81-8.89,7.2-22.77,19.27-29.29,5.62-3.04,10.76-3.84,15.24-3.56,12.18.77,24.42,3.86,34.66,11.62,7.12,5.4,11.19,13.24,16,20.44,2.41,3.6,4.16,7.65,6.05,11.58,2.29,4.76,1.32,6.55-3.87,7.69-2.44.54-4.94.92-7.29,1.73-7.1,2.42-13.1,6.51-17.89,12.34-1.3,1.58-2.73,3.06-4.55,5.07-2.28-1.35-4.04-2.39-5.8-3.45ZM439.87,297.85c-.04-3.89,0-7.81-.4-11.67-1.27-11.89,2.01-23.13,7.35-33.12,4.69-8.76,12.76-15.38,22-20.02,11.46-5.75,23.22-7.26,36.07-5.56,5.67.75,18.84,2.8,30.94,12.65,6.95,5.66,11.33,13.22,20.07,28.34.95,1.64,2.01,4.52,3.64,8.16,1.39,3.11,2.53,6.26,1.67,10.05-4.06-.58-5.38-3.53-6.88-6.28-4.28-7.85-8.82-15.57-12.75-23.59-3.23-6.6-8.53-10.92-14.7-13.97-6.71-3.31-20.11-13.89-38.02-11.41-12.19,1.69-26.5,9.03-33.1,21.54-5.58,10.57-8.9,17.15-10.15,46.13-.09,2-1.17,3.96-1.98,6.58-3.5-2.46-3.71-5.06-3.73-7.83ZM435.24,320.56c4.86-4.05,8.78-9.13,14.84-11.91,14.54-6.67,29.59-6.17,44.55-3.13,5.31,1.08,10.07,5.18,14.85,8.26.91.58,1.43,3.07.98,4.24-1.7,4.41-3.87,8.64-6.1,13.44-22.84-13.43-45.84-15.95-71.03-5.57.85-2.52.9-4.5,1.9-5.33ZM415.36,394.7c-.81-3.29-3.01-9.36-3.11-17.68-.06-4.49-.06-14.65,5.73-25.28,7.67-14.09,20.51-19.81,25.16-21.79,13.76-5.89,25.86-4.37,31.67-3.54,8.45,1.2,15.72,4.81,22.91,8.89,2.21,1.25,4.38,2.72,4.1,5.8-1,10.93-2.02,21.86-3.11,33.68-5.29-2.32-9.57-5.4-15.37-4.48-4.39.7-7.33,1.77-9.21,3.86-2.7,2.99-2.77,6.83-2.79,8.37-.07,7.33,5.02,14.7,7.97,18.98,1.05,1.52,2.99,4.17,2.94,7.78-.02,1.64-.62,2.84-.89,4.04-2.58,11.75-9.22,16.91-21.2,17.41-7.11.29-13.46-2.31-20.1-3.92-.43-.1-.84-.39-1.18-.68-10.22-8.73-20.22-18.07-23.51-31.45ZM459.45,436.99c-5.18,3.53-10.5,7.16-16.87,11.5-1.96-1.48-4.28-3.23-6.62-5-.08-3.68-.15-7.24-.24-11.31,8.27,1.68,16.24,3.29,23.73,4.81ZM459.32,447.68c1.73-.85,4.07-1.61,5.7-2.34,8.32-3.72,16.45-5.5,25.93-3.13,10.47,2.61,20.17,5.77,28.15,13.26,3.59,3.37,4.62,4.85,6.26,11.47-4.08-1.56-7.8-3.16-11.63-4.42-11.57-3.81-23.46,1.66-29.67,12.09-7.14,11.99-5.86,24.12-2.61,36.57.92,3.54,2.42,6.93,3.49,10.45,3.27,10.78,11.89,14.07,21.05,14.42,9.66.37,17.46-3.14,22.83-11.47.98-1.53,2.2-3.03,3.63-4.1.94-.7,2.87-1.27,3.68-.78,4.23,2.55,8.92,4.85,9.96,11.07-9.35,1.66-14.4,8.22-18.88,15.61-1.89,3.12-4.31,5.93-6.63,8.77-5.79,7.09-13.2,9.69-22.37,9.01-10.84-.8-21.23-3.44-31.65-6.16-7.87-2.05-13.41-6.7-16.52-14.26-.6-1.46-1.56-2.76-2.31-4.16-1.62-2.99-3.84-5.82-4.7-9.01-2.09-7.73-4.43-15.57-5.04-23.49-.74-9.7-1.38-21.83,3.98-36.02,2.18-5.78,6.88-18.21,17.33-23.37ZM365.98,548.2c-4.73-5.48-7.49-10.28-9.08-15.09-4.83-14.63-8.32-29.65-6.83-45.31.04-.46,0-.95.16-1.37,4.01-10.12,6.71-20.89,15.34-28.6,4.41-3.93,8.25-8.16,13.65-11.25,7.58-4.34,15.58-5.41,23.71-6.38,8.09-.96,15.31,2.71,22.23,6.32,3.83,1.99,7.07,5.07,10.66,7.55,2.69,1.86,3.12,4.3,2.34,7.23-.76,2.89-1.27,5.86-2.21,8.68-6.29,18.89-6,37.88-1.03,56.96.62,2.36,1.27,4.72,1.95,7.2-4.95,1.47-8.63,2.56-13.08,3.88-.48-3.48-.96-6.77-1.39-10.07-.42-3.19-.82-6.38-1.16-9.58-.6-5.53-2.99-10.05-7.42-13.47-2.73-2.1-5.27-4.5-8.16-6.33-7.07-4.47-14.12-.87-14.66,7.58-.6,9.36,1.91,17.69,9.04,24.29,4.08,3.78,7.68,7.89,8.48,13.8.3,2.24.13,3.9-1.66,5.53-2.54,2.32-4.84,4.91-7.16,7.45-1.64,1.79-4.87,3.9-8,4.82-11.01,3.21-23.95-11.77-25.73-13.84ZM414.69,520.94c.45,5.24,1.37,10.44,2.02,15.66.22,1.75.29,3.52.42,5.28-.48.14-.96.28-1.44.42-.49-.68-1.15-1.3-1.45-2.06-2.18-5.66-5.65-10.38-9.88-14.72-6.01-6.16-8.35-13.41-5.58-21.96,9.44,2.17,15.15,8.72,15.9,17.38ZM396.75,586.38c1.96-9.56,6.54-23.04,17.84-33.59,1.87-1.75,15.95-14.9,23.62-10.85.57.3,1.47.93,2.81,2.61,3.43,4.29,6.51,8.89,10.23,12.91,4.24,4.59,9.26,7.92,15.84,8.97,8.81,1.4,17.47,3.77,26.24,5.46,5.35,1.03,10.78,1.89,16.21,2.2,3.98.22,5.88,2.41,6.92,5.56,2.61,7.93,3.93,16.06,2.57,24.43-1.07,6.54-4.27,9.14-10.68,10.48-4.39.91-8.72,2.68-12.71,4.77-4.03,2.11-7.59,5.13-11.41,7.66-5.06,3.36-9.15,1.7-10.65-4.36-1.09-4.41-1.97-8.88-3.09-13.95.29-.34,1.03-1.17,1.72-2.04,8.14-10.28,2.89-17.52-5.87-21.42-11.91-5.3-22.65,1.32-24.44,14.34-1.81,13.17,2.67,24.82,8.8,36.01,2.74,5.01,5.93,9.77,8.86,14.68.33.55.62,1.41.43,1.95-2.19,6.43-3.48,13.22-7.56,20.09-3.14-3.6-5.81-6.59-8.41-9.64-7.03-8.26-15.74-13.67-26.28-16.41-2.43-.63-5.22-2.39-6.49-4.45-3.99-6.52-7.75-11.77-9.24-17.7-4.54-18.05-6.82-27.08-5.27-37.68ZM368.23,584.48c-20.79-7-41.65-8.51-62.12,1.76-4.08,2.05-8.72,3.01-12.78,5.1-2.62,1.35-7.64,4.08-12.59,8.07-14.64,11.78-20.33,27.59-21.99,32.39-1.25,3.62-3.32,9.77-3.83,18.18-.7,11.44,1.93,20.97,4.47,27.39,0,0,0,0,0,0-.06.05,4.21,6.72,8.31,11.39,4.98,5.66,10.12,8.82,12.62,10.33,4.13,2.49,15.94,9.38,31.3,8.12,3.99-.33,12.17-1,19.75-6.81,4.05-3.1,7.38-7.27,9.83-12.51,1.6-3.43,1-8.07.76-12.12-.41-6.93,1.19-13.43,2.78-21.23,1.74,1.81,3.05,2.55,3.32,3.57.8,3.08,1.41,6.24,1.72,9.41.74,7.49-1.1,14.7-3.67,21.56-2.22,5.94-5.18,11.42-11.77,14.52-4.2,1.97-7.93,4.88-12.49,6.62-4.46,1.71-8.69,2.78-13.33,2.19-1.5-.19-8.19.12-16.32-2.37-16.63-5.09-27.17-17.94-28.45-19.54-15.82-19.77-15.99-47.15-7.7-65.96,2.2-4.98,4.36-8.08,8.57-14.07,8.33-11.85,19.9-28.29,39.59-34.25,11.13-3.37,22.09-2.45,23.24-2.45,6.53,0,13.07,1.79,19.6,2.79,4.29.65,8.59,1.26,12.87,1.96,9.76,1.61,19.61,3.09,26.85,10.85,1.47,1.57,2.57,3.49,4.56,6.25-8.82-4.31-15.67-8.61-23.13-11.12ZM386.19,756.77c-2.64-3.99-4.39-8.56-7.14-14.05-5.13-13.55-8.66-28.54-6.33-44.48.49-3.38.14-6.87.59-10.26,1.36-10.44,7.08-19.07,13.51-26.69,1.49-1.76,3.15-3.28,4.97-4.55,7.57-5.29,16.01-4.86,19.21-4.66,10.24.63,17.26,5.68,21.71,8.87.53.38,4.95,4.81,9.21,8.84.33.31.49.79.81,1.11,6.38,6.41,7.53,13.64,5.71,22.58-1.72,8.43-1.44,17.32-1.46,26.01-.02,10.61,6.38,18.91,11.09,27.75,1.18,2.21,2.9,4.13,4.37,6.18,2.9,4.03,2.86,6.72-1.03,9.99-6.14,5.16-12.53,10.04-18.9,14.92-3.88,2.98-8.5,3.43-13.11,2.76-5.21-.76-10.37-1.94-15.51-3.12-12.44-2.84-20.93-11.03-27.68-21.21ZM432.16,894.56c-3.19,7.99-11.15,10.03-18.25,9.86-11.51-.28-22.77-3.01-31.27-12.06-1.17-1.25-3.16-2.4-5.27-4.43-16.13-15.58-16.72-37.77-16.74-39.46-.2-17.31,7.28-29.78,10.41-33.35,5.26-6,11.05-11.61,17.1-16.82,6.24-5.37,13.57-8.56,22.17-7.7,2.97.3,5.96.29,8.95.43,16.65.79,27.08,10.81,35.48,23.87,1.51,2.35,1.73,4.61-.14,6.97-5.59,7.07-7.33,15.68-9.49,24.12-.38,1.49-.95,2.93-1.9,5.81-2.27-3.38-3.65-5.43-5.04-7.48-3.91-5.76-9.38-9.3-16.03-11.12-3.54-.97-7.07-2.02-10.66-2.79-11.65-2.49-18.15,1.4-20.58,12.99-1.41,6.74-1.62,13.4,3.01,19.71,5.53,7.54,13.46,10.37,22.12,6.56,7.93-3.49,11.18-2.69,15.02,4.93,3.17,6.32,3.75,13.36,1.11,19.95ZM440.31,875.59c-.13.67-.16,1.36-.23,2.04-1.8-5.52-4.57-10.49-9.64-13.61-5.16-3.16-10.61-3.73-16.29-.54-5.62,3.15-10.8,2.63-13.86-.8-3.27-3.65-3.83-10.76-1.22-15.4.45-.8.91-1.58,1.33-2.39,4.57-8.92,6.25-9.67,15.66-6.97.22.06.44.14.66.2,6.76,1.62,13.45,3.39,17.29,10.01,4.93,8.5,8.22,17.39,6.31,27.47ZM454.4,888.93c-1.59-2.17-2.16-4.35-3.3-8.7-2.93-11.16-1.65-20.51-.63-27.37.8-5.39,1.79-11.32,5.09-18.52,2.6-5.69,6.52-14.24,15.54-20.28,9.66-6.47,19.81-6.6,27.65-6.48,5.24.09,10.51,1.19,15.69,2.22,10.52,2.1,17.07,8.44,19.36,19.02.19.89.61,1.83.49,2.69-1.12,8.14-2.32,16.28-3.53,24.41-.06.41-.47.77-1.41,2.25-2.74-2.54-5.06-4.66-7.35-6.83-9.74-9.21-23.3-7.56-30.58,3.71-6.08,9.42-4.81,24.46,2.76,32.77,5.42,5.95,13.93,4.84,17.57-2.27,1.66-3.24,3.38-6.44,4.95-9.45,8.67.86,12.48,6.54,10.66,15.17-1.63,7.73-10.47,14.63-18.67,11.92-6.84-2.26-8.08-.84-28.42-5.02-15.25-3.13-21.57-3.37-25.87-9.26ZM528.03,871.29c-3.14-1.46-4.92-2.6-6.86-3.14-5.27-1.48-8.69.26-11.11,5.27-1.29,2.68-2.43,5.48-4.04,7.96-2.18,3.35-4.51,3.35-7.24.43-3.85-4.12-5.18-14.8-1.94-19.47,1.92-2.77,4.46-5.29,7.19-7.28,4.22-3.07,7.76-2.74,11.93.57,4.95,3.93,10.27,7.63,12.08,15.67ZM380.58,925.95c-32.73-3.25-55.7-19.23-63.97-25.6-8.42-6.49-14.19-12.72-23.29-22.55-13.22-14.28-16.43-19.33-30.54-35.39-6.63-7.55-13.38-15.2-22.06-20.36-9.23-5.49-18.79-10.64-28.72-14.69-17.11-6.98-29.76-18.51-38.5-34.52-4.01-7.36-4.63-13.91-2.66-21.88,4.6,2.9,7.54,6.17,8.7,10.91.38,1.56,1.1,3.04,1.43,4.6,1.74,8.38,7.3,13.82,13.45,19.33,13.81,12.37,31.08,18.48,46.96,27.1,9.78,5.31,18.55,11.77,25.81,20.25,11.63,13.59,22.93,27.5,35.1,40.6,10.92,11.75,23.85,25.09,44.8,34.98,19.19,9.06,36.79,11.15,44.99,12.06,20.94,2.32,35.6-.42,35.68.35.09.94-21.26,7.4-47.17,4.83ZM427.15,937.29c9.14-9.58,17.17-20.42,29.14-26.84,4.18-2.24,8.72-4.63,13.3-5.15,6.88-.77,13.87-2.46,20.98.55,4.75,2.01,10.22,2.36,15.37,3.44,8.74,1.83,14.3,6.42,17.26,15.47,4.71,14.4,3.22,28.45-.64,43-.78-1.6-1.7-3.14-2.3-4.8-4.36-12-12.75-20.48-23.36-27.12-10.4-6.51-21.69-6.64-33.25-4.92-4.99.74-9.91,2.04-14.92,2.59-8.33.92-15.44,4.09-21.25,10.17-.6.62-1.47.98-2.74,1.8-1.13-3.66.35-6.05,2.41-8.2ZM422.95,1063.62c-10.6.7-18.32-.3-27.56-1.56-8.48-1.15-31.32-4.4-51.36-14.67-2.73-1.4-5.05-2.69-5.38-2.94-7.38-5.45-14.97-10.68-21.9-16.66-4.46-3.85-8.16-8.68-11.77-13.4-5.86-7.65-11.31-15.61-17.05-23.36-13.62-18.39-29.08-34.7-49.51-45.89-7.99-4.38-15.83-9.55-22.51-15.69-5.89-5.41-11.79-11.49-14.71-20.81,2.83.02,5.14-.54,6.99.15,11.63,4.35,23.02,9.23,32.4,17.74,3.57,3.24,7.15,6.49,10.9,9.51,8.84,7.12,16,15.62,22.43,24.98,12.93,18.83,25.78,37.78,40.94,54.94,7.49,8.48,16.7,15.28,16.7,15.28.47.39,8.94,7.3,15.81,11.74,32.71,21.15,77.31,17.37,84.11,13.58.41-.23,2.1-1.28,4.28-1.08,2.51.23,4.69,2.12,7.08,5.03-6.01,1.49-12.66,2.64-19.89,3.12ZM514.56,1001.82c-4.26,18.31-9.33,25.03-12.87,28.76-1.97,2.07-3.83,3.59-5.16,4.59-.54-.45-1.07-.9-1.61-1.35.29-1.02.43-2.11.89-3.05,1.69-3.47,3.94-6.74,5.14-10.36,3.3-9.97,7.11-19.91,3.42-30.77-1.84-5.4-4.62-10.12-9.27-13.23-6.44-4.32-12.48-2.77-14.84,4.41-3.3,10.04-4.83,20.22.69,29.97.93,1.64,1.48,3.68,2.31,6.91,1.13,4.39,1.75,9.2,1.62,12-.38,8.46-8.43,18.03-18.16,21.54-14.6,5.27-30.53-3.42-35.71-11.46-3.11-4.82-6.55-9.47-9.12-14.57-2.45-4.86-4.86-10.05-5.73-15.34-2.16-13.26-1.76-26.51,3.6-39.19,3.5-8.29,7.41-16.3,14.36-22.4,4.05-3.55,8.42-6.45,13.8-7.37,8.36-1.43,16.8-3.99,25.13-3.69,10.94.39,21.32,3.19,29.57,12.25,3.62,3.98,12.92,13.12,15.43,26.34,1.16,6.08-.39,12.72-3.48,26.01ZM485.75,1002.13c-2.25-6.89-1.57-13.5,2.87-19.48,10.72,4.6,12.18,17.74,3.4,35.75-2.39-6.14-4.58-11.13-6.26-16.28ZM587.39,1076.8c10.39,4.23,21.22,5.8,31.94,8.12,10.24,2.22,20.58.26,30.89-.3,6.29-.34,12.13-1.66,17.85-4.43,5.14-2.5,10.71-4.1,16.05-6.19,2.78-1.08,5.7-2,8.18-3.58,18.11-11.61,36.16-23.8,36.16-23.8,2.68-2.39.35-.49,17.87-19.02,19.17-20.28,27.02-27.91,35.45-40.05,1.16-1.68,2.38-3.95,4.94-6.91,5.71-6.59,12.03-12.66,17.57-19.38,5.36-6.5,11.49-12.33,18.86-15.83,7.1-3.38,15.31-4.45,23.03-6.5.41-.11.91.04,1.36.12,9.02,1.53,18.58,11.35,20.46,21.54-7.83.99-11.92-.74-14.23-2.66-1.15-.95-2.4-2.21-4.84-3.85-8.04-5.42-15.82-2.39-22.36,2.27-5.79,4.12-10.1,7.34-10.6,7.8-3.34,3.07-5.96,5.33-8.2,7.18-7.43,6.14-12.35,10.24-15.74,12.92-17.88,14.18-39.2,40.41-59.63,65.55,0,0-.04.04-.04.05,0,0,0,0,0,0-.04-.05-6.28,5.3-12.74,10.73-10.72,9-14.18,11.49-17.26,13.73-2.02,1.47-4.09,2.87-6.22,4.15-10.98,6.59-22.67,12.19-35.54,14.35-3.35.56-6.86.08-10.29.22-8.22.34-16.43.81-24.64,1.13-1.82.07-3.7-.09-5.48-.49-10.92-2.41-21.98-4.39-32.69-7.56-9.22-2.73-18.16-6.63-24.1-14.96-1.82-2.56-3.58-5.15-3.45-9.21,1.38.66,2.25.88,2.86,1.4,7.26,6.21,15.74,9.89,24.56,13.48ZM559.52,1046.18c-3.32-5.12-.09-10.49,2.82-30.45.15-1.01.55-3.9,1.38-7.73.8-3.66,1.79-7.25,2.97-10.84,1.6-4.83,4.79-8.35,8.82-11.1,3.32-2.27,5.48-1.51,6.92,2.29.71,1.89,1.24,4.03,1.13,6.02-.79,14.4-.61,28.98-6.5,42.6-2.16,4.98-4.56,9.86-6.96,15.04-6.67-1.21-9.35-3.94-10.57-5.82ZM629.48,1019.72c16.92,3.31,33.6,4.04,50.21-2.08,7.36-2.71,13.31-7.3,19.07-12.13,25.33-21.27,44.34-47.3,58.54-77.17,8.56-18.01,17.97-35.69,28.07-52.89,9.98-17,20.66-33.69,32.27-49.6,8.59-11.78,18.15-23.16,31.24-30.66,3.21-1.84,3.17-1.92,7.97-.92.82,5.59-2.33,9.57-5.98,12.99-7.83,7.33-16.38,13.94-23.8,21.65-7.13,7.41-13.35,15.72-19.73,23.83-16.92,21.52-27.5,46.62-39.1,71.04-6.51,13.71-12.89,27.42-21.19,40.12-4.39,6.71-9.48,12.95-14.18,19.45-2.54,3.51-4.54,7.51-7.47,10.64-7.21,7.68-14.81,14.99-22.29,22.41-1.13,1.13-2.35,2.31-3.76,2.99-9.05,4.41-17.9,9.53-28.18,10.53-4.53.44-9.21.56-13.71-.05-8.38-1.13-16.64-3.05-25-4.34-3.81-.59-7.76-.29-11.6-.73-4.53-.51-9.06-1.2-13.5-2.17-2.58-.56-2.58-1.16-1.4-6.99,7.82,1.35,15.71,2.56,23.54,4.09ZM602.76,987.95c.44,16.95-3.84,29.95-4.47,31.79-7.86,23.14-22.87,38.24-23.75,37.66-.68-.45,7.48-10.1,11.94-27.38,1.7-6.58,2.77-12.03,3.03-18.89.27-6.87.58-13.77.23-20.63-.18-3.55-1.33-7.21-2.8-10.48-1.62-3.6-6.81-5.08-10.82-3.24-5.04,2.32-9.5,5.33-11.92,10.84-1.58,3.59-4.77,8.8-9.35,32.21-1.53,7.83-1.7,9.65-3.09,13.72-2.93,8.59-8.31,18.44-10.88,17.73-1.5-.41-1.55-4.29-1.6-11.68-.06-8.76,1-14.77,2.11-27.45.28-3.17.58-6.34.93-9.5,1.33-12.01,5.89-23.1,11.47-33.72,3.77-7.19,11.19-8.98,18.04-11.64,4.91-1.91,8.83.15,26.7,12.5,2.96,2.05,3.94,7.44,4.22,18.14ZM550.7,921.62c2.74-17.21,6.4-34.31,14.31-50.12,1.13-2.25,1.97-4.66,2.75-7.06,5.44-16.81,16.83-28.45,31.53-37.66,13.96-8.75,33.35,1.76,35.35,17.01,1.13,8.63,2.81,17.32,2.61,25.95-.08,3.74-1.23,11.01-4.48,19.97-2.23,6.16-11.99,33.05-28.01,34.04-2.66.16-4.9-.42-6.42-.96-1.24-7.39.32-14.58,2.76-21.45,4.03-11.33.95-21.34-5.05-30.73-3.47-5.44-9.13-7.5-15.58-6.64-5.9.78-8.09,5.22-9.85,10.21-3.48,9.9-5.46,19.95-3.23,30.4.66,3.1,1.91,6.1,3.05,9.08.76,2,1.47,3.84-.25,5.74-5.61,6.22-7.56,13.74-7.56,21.91,0,.92.05,1.84.12,2.75.47,5.52-1.43,9.65-6.37,12.63-3.06,1.84-5.57,4.58-8.33,6.92-.48-.13-.96-.26-1.44-.38,1.3-13.87,1.89-27.86,4.07-41.59ZM645.47,933.15c.83-2.08,1.08-4.48,1.17-6.75.25-6.84-1.63-12.7-8.22-16.12-.97-.5-1.81-1.24-2.83-1.95,1.43-3.14,3.55-4.37,6.61-4.46,10.12-.3,15.25,4.77,15.49,15.43.22,9.89-4.07,17.71-11.33,24.04-2.32,2.02-4.96,3.69-8.17,6.06,2.8-6.17,5.24-11.13,7.29-16.25ZM631.22,944.55c-.68,1.6-1.19,3.28-1.82,5.04-5.43-1.07-7.66-5.04-7.53-8.98.27-7.82,2.47-15.38,9-20.62,1.39-1.12,4.3-2.19,5.32-1.51,1.56,1.04,2.74,3.58,2.89,5.58.25,3.33-.41,6.46-2.81,9.5-2.43,3.07-3.47,7.26-5.05,10.98ZM589.62,919.34c.02.54-.62,1.1-1.29,2.22-9.41-6.21-14.54-14.78-14.69-25.63-.1-7.03,1.65-14.07,5.05-20.48,2.47-4.66,5.14-5.42,9.17-1.9,5.74,5.02,7.31,11.87,7.28,19.17,0,1.34-.33,2.75-.81,4.01-2.78,7.29-5,14.68-4.71,22.61ZM596.72,956.2c-8.68-3.38-16.56-8.27-25.71-6.03-4.56-8.81-2.69-18.15,5.07-25.7,8.03,3.88,15.61,7.54,23.35,11.28-.87,6.57-1.73,13.04-2.71,20.45ZM655.92,867.17c5.46-.66,10.9-1.54,16.37-2.01,5.07-.44,9.83,1.43,13.18,4.86,14.27,14.62,16.51,38.09,16.51,38.09,2.59,30.28-14.91,67.95-41.43,76.21-15.73,4.89-29.61.55-29.61.55-12.6-3.79-20.59-12.43-25.46-24.24-3.64-8.82-1.36-17.54,1.17-26.12.77-2.61,4.58-4.38,10.14-5.54-.32,1.93-.9,3.67-.85,5.39.15,4.52-.04,9.18,1.05,13.5,1.48,5.85,6.79,9.23,12.8,9.47,6.74.28,12.61-1.66,17.7-6.2,5.69-5.07,10.83-10.37,14.16-17.5,4.78-10.26,2.21-19.68-2.12-29.04-1.5-3.24-4.25-5.31-7.95-5.96-3.59-.63-7.14-1.44-13.03-2.65,2.29-4.04,4.34-7.12,5.83-10.44,1.66-3.71,3.12-7.57,4.09-11.51,1.03-4.15,3.3-6.37,7.46-6.88ZM643.74,849.53c.06,1.74-.27,3.5-1.65,5.37-.53-3.93-1.42-7.86-1.52-11.81-.22-8.86-5.52-14.91-11.17-20.64-1.62-1.64-4.55-1.99-6.89-2.91-12.4-4.88-23.48-1.87-33.57,5.93-11.46,8.86-20.25,19.77-26.17,33.19-6.51,14.76-11.54,29.86-15.19,45.29,0-.02,0-.04,0-.06,2.39-35.72,2.53-61.21,12.46-82.99,5.21-11.44,10.62-15.42,15.1-17.97,4.14-2.36,8.99-3.78,14.66-4.08,2.74-.15,5.43-.99,8.17-1.23,12.26-1.1,23.48,1.39,31.87,11.01,2.94,3.37,4.67,7.82,6.77,11.88,4.69,9.09,6.78,18.85,7.15,29.01ZM670.7,740.62c-1.27,2.08-6.9,11.17-16.14,17.86-5.02,3.63-9.05,4.9-10.95,5.63-2.7,1.04-5.77,1.37-8.69,1.46-2.95.1-5.93-.47-8.9-.77-.68-.07-1.39-.08-2.03-.3-6.22-2.14-12.17-15.41-9.53-21.48,1.19-2.73,2.54-5.43,4.18-7.91,3.76-5.71,5.39-12,6.5-18.68,1.19-7.21-1.17-13.19-5.18-18.65-4.03-5.49-9.81-6.02-16.58-2.15-11.18,6.4-18,21.89-14.47,34.33,1.99,7.02,5.08,13.74,7.68,20.58.08.21.34.37.37.57,1.55,10.52,9.38,15.32,17.92,19.13,3.44,1.53,7.42,1.93,11.2,2.6,2.82.5,5.72.62,9.29.97-2.91,7.72-5.46,14.5-8.25,21.89-6.71-1.56-13.67-4.08-20.77-4.58-7.24-.51-14.79.18-21.88,1.8-6.98,1.6-13.54,5.02-21.04,7.93.95-3.73,1.86-7.43,2.85-11.1.83-3.09,2.02-6.1,2.58-9.23,3.66-20.56,6.35-41.17,6.51-62.18.11-15.42,4.08-30.45,10.5-44.64.74-1.64,1.82-3.18,2.96-4.59,8.03-9.94,16.48-18.17,30.64-19.82,14.45-1.69,28.35-2.39,41.84,3.47,4.22,1.83,7.8,4.19,10.82,6.99,8.84,8.19,11.34,18.44,12.63,24.16,5.58,24.63-7.49,45.85-14.07,56.68ZM597.75,731.46c-3.87-8.48-1.49-16.21,2.78-23.5,1.5-2.57,4.36-4.69,7.07-6.11,3.52-1.84,7.11.17,8.62,4.15,3.14,8.28,1.43,16.32-1.86,24-2.65,6.19-6.13,12.02-9.77,19.03-1.34-2.71-2.62-4.84-3.46-7.13-1.26-3.43-1.87-7.13-3.37-10.43ZM654.89,550.24c2.33.95,4.4,2.61,6.77,3.35,7.75,2.43,12.2,8.19,16.79,14.47,8.66,11.83,9.17,23.91,3.71,36.98-2.02,4.85-3.16,10.07-5.1,14.96-.99,2.49-2.39,5.28-4.45,6.79-5.31,3.89-11.09,7.15-17.4,11.11-2.99-6.16-3.92-11.39-2.07-16.88,1.1-3.26,2.14-6.61,3.83-9.58,5.19-9.12,1.15-16.93-3.41-24.48-2.32-3.85-6.56-3.94-10-.47-6.91,6.98-10.67,15.55-10.61,25.36.05,8.66.91,17.32,1.46,26.84-7,.23-14.16,1.25-21.41-3.56-8.25-5.47-12.14-12.66-15.09-21.9-4.84-15.16-1.74-29.39,3.77-42.85,4.97-12.13,15.32-19.98,28.88-21.86,5.64-.78,11.45-.6,17.17-.39,2.41.08,4.85,1.18,7.16,2.12ZM634.8,501.25c-2.51-6.87.11-16.67,5.18-19.86,3.72-2.35,5.96-2.07,9.11,1.18,5.01,5.15,6.03,11.9,6.31,18.48.22,5.15-1.23,10.39-2.04,15.58-.83,5.32-1.8,10.62-2.82,16.62-4.49-3.69-6.49-8.62-8.56-13.36-2.65-6.1-4.91-12.38-7.19-18.64ZM644.61,632.97c-.64-1.17-1.6-2.27-1.87-3.53-1.02-4.67-1.98-9.36-2.64-14.09-1.09-7.86,1.56-14.85,5.66-21.38.31-.49,1.15-.71,1.78-.92.4-.13.89-.02,1.63-.02,2.87,3.77,3.93,7.9,2.16,12.66-1.2,3.22-1.91,6.63-3.28,9.76-2.41,5.48-4.97,10.85-3.43,17.52ZM771.96,740.32c-5.43-3.82-10.09-7.39-15.05-10.5-5.62-3.52-11.41-6.79-17.29-9.84-9.6-4.97-19.58-3.89-29.45-.97-6.78,2-13.67,3.86-18.72,9.53-1.19,1.34-3.45,1.75-6.31,3.1.68-2.42,1.01-3.66,1.37-4.89,2.28-7.67,4.82-15.27,6.75-23.03.93-3.75,2.66-6.17,6.19-7.53,6.54-2.53,12.88-3.6,20.07-1.61,19.9,5.5,35.13,17.48,47.89,33.03,2.64,3.22,4.73,7.23,4.55,12.72ZM731.46,686.42c-.42.92-1.56,2.12-2.41,2.15-5.28.21-10.79.3-14.67-3.98-2.08-2.3-3.83-5.28-4.67-8.25-2.81-9.91-1.99-19.56,3.9-28.31,4.5-6.68,12.66-6.07,16.48,1.15,1.17,2.21,1.87,4.68,2.78,7.03,5.81,10.33,3.07,20.34-1.41,30.21ZM768.12,693c6.86-3.52,11.33-9.9,15.85-15.99,7.93-10.68,15.28-21.74,21.6-33.47,1.83-3.4,4.73-6.2,6.78-9.5,5.08-8.17,9.94-16.47,14.9-24.71,8.44-14.03,17.76-27.25,31.64-36.63,4.39-2.97,9.17-4.21,14.24-4.52,4.05-.25,6.13,2.94,3.75,6.29-2.03,2.85-4.94,5.91-8.1,6.98-14.71,4.97-24.56,15.67-33.66,27.32-9.44,12.1-17.46,25.11-25.22,38.37-5.27,9.01-12.35,16.97-18.65,25.38-1.51,2.02-3.11,3.97-4.71,5.92-5.08,6.18-10.18,12.34-15.29,18.5-2.18,2.63-4.34,5.28-6.65,7.81-3.51,3.86-5.44,3.84-9.71-.08,4.2-4.13,7.67-8.8,13.23-11.65ZM765.75,541.77c3.57-5.89,10.43-20.53,15.5-38.91,2.28-8.28,2.36-17.19,3.12-25.85.42-4.77.2-9.59.28-14.39.12-7.09.31-14.17.36-21.26.07-8.83,1.66-17.38,4.81-25.6.74-1.94,2.32-3.56,4.04-6.1,2.49,5.02,2.2,9.12,1.73,13.11-1.86,15.7-3.76,31.4-5.93,47.06-1.45,10.46-3.94,20.79-4.96,31.28-1.19,12.15-5.02,23.26-10.89,33.75-1.99,3.55-4.82,6.62-7.1,10.02-5.75,8.55-5.87,9.04-9.09,13.6-7.83,11.09-14.23,19.9-23.53,20.83-1.4.14-2.56.07-3.27,0,9.4-6.71,23.5-18.65,34.95-37.55ZM694.4,593.14c8.33-10.36,29.93-8.47,44.02-1.05,1.53.81,6.83,5.31,13.88,11.13,6.96,5.75,9.74,13.58,11.44,22.13,2.78,14.04,1.57,27.86-1.5,41.65-2.54,11.42-9.55,19.61-19.06,25.88-1.57,1.03-3.54,2.54-5.92.11.16-.8.1-2.03.62-2.9,3.94-6.55,4.67-13.9,4.97-21.21.15-3.78-.32-7.87-1.66-11.37-1.87-4.89-4.74-9.41-7.37-13.98-.89-1.54-2.11-3.18-3.61-4.01-10.73-5.99-13.88-6.09-20.81,3.64-8,11.24-8.7,23.84-5.64,36.89.46,1.96,1.03,3.9,1.67,6.33-3.76,1.13-7.18,2.16-11.03,3.32-.98-2.52-2.26-4.71-2.67-7.04-2.76-15.87-11.15-27.88-24.58-36.54-.7-.45-1.16-1.27-2.1-2.35,3.39-2.79,6.45-5.46,9.67-7.91,3.96-3.01,6.54-6.89,8.6-11.38,3.66-7.98,6.16-16.26,7.89-24.85.78-3.87,2.35-5.44,3.18-6.48ZM726.27,487.86c.51,16.5-4.78,44.26-24.69,54.48-5.31,2.72-12.28,3.65-26.23,5.38-9.28,1.15-12.87-1.88-15.42-10.99-1.69-6.05-1.66-11.88.21-18.21,4-13.55,2.3-26.69-5.83-38.69-2.65-3.91-6.55-5.74-10.81-6.75-1.51-.36-3.66.32-5.01,1.26-4.9,3.39-8.63,8.07-9.29,13.97-.73,6.55-1.52,13.59.09,19.81,2.67,10.35,5.97,20.81,13.53,29.08.7.76,1.04,1.84,2.1,3.78-2.88.04-4.83.24-6.74.07-17.48-1.54-29.57,7.02-38.21,21.08-9.76,15.88-11.75,33.42-10.11,51.76.99,11.09,6.23,18.84,15.34,24.56,1.27.8,2.22,2.11,3.69,3.55-14.03,5.31-20.48,17.8-29.68,28.42-2.28-11.3-.95-21.94.4-32.52,1.95-15.19,3.03-27.37,7.13-50.92,4.78-27.47,7.28-41.57,12.41-58.92,4.21-14.23,6.09-22.11,11.74-32.29,7.77-14.02,15.09-28.35,27.99-38.77,5.34-4.31,9.74-9.76,14.99-14.19,7.41-6.25,15.87-10.9,25.89-8.33,7.04,1.8,13.97,4.65,20.41,8.05,5.17,2.73,9.94,6.57,14.18,10.66,11.85,11.45,11.74,28.33,11.93,34.68ZM618.28,438.57c5.26-6.33,10.97-12.29,16.5-18.39,11.87-13.08,27.2-16.16,43.93-15.11,1.12.07,2.26.43,3.33.83,23.95,9.02,41.04,24.8,48.67,49.74.82,2.67.97,5.54,1.42,8.32-.5.18-.99.36-1.49.54-1.42-2.38-2.74-4.83-4.29-7.13,0,0-2.42-3.58-4.97-6.6-3.92-4.63-12.55-11.81-24.91-17.27-8.69-3.84-17.43-6.12-28.65-6.18-2.65-.01-5.55.78-7.93,1.99-9.27,4.71-17.47,10.91-24.41,18.72-17.85,20.11-29.2,44.01-29.2,44.01-10.5,22.38-13.01,38.49-14.13,38.22-1.13-.28,2.07-16.55,6.34-38.2,0,0,1.3-13.11,9-33.79,1.43-3.85,2.47-6.02,3-7.76,1.35-4.38,4.75-8.3,7.79-11.95ZM604.51,369.8c-.06,5.47-.3,9.74-.43,13.06-1.49,36.29-2.24,54.44-5.31,73.11-1.66,10.05-2.48,15.08-3.87,20.55-7.74,30.63-5.46,27.27-6.4,33.11-3.47,21.66-2.62,30.44-7,61.98-.15,1.05-.18,1.23-.3,2.17-.5,3.69-1.03,8.45-4.7,38.84-.6,4.98-1.21,9.95-1.69,14.94-.7,7.3-1.57,14.6-1.82,21.91-.39,11.33.27,12.84.08,24.73-.1,6.56-.41,10.28-1.59,24.92-3.07,38.41-2.8,36.28-3.05,38.34-1.83,14.78-4.38,29.5-7.1,44.15-1.68,9.02-5.08,17.78-6.2,26.84-1.48,11.91-5.25,19.93-5.73,21.65-6.91,25.09-7.41,74.76-6.24,96.97-.97,6.65-1.72,13.35-2.23,20.12-.04.56-.27,2.95-.7,7.75-3.34,37.38-2.95,35.86-3.85,43.93-3.25,29.09-4.77,27.5-4.41,37.55.5,13.77,4.12,11.54,4.18,24.96.04,8.08-1.21,11.5-2.55,30.76-.24,3.49-.45,6.98-.59,10.47-.49,11.91.11,23.86.16,35.8.02,5.05-.19,10.11-.17,15.16.03,9.38.19,18.76.24,28.15.06,11.26-.06,22.51.14,33.77.23,13.07.28,26.16,1.16,39.18,1.92,28.18,4.34,56.33,6.51,84.5,1.49,19.27,4.56,38.28,8.75,57.14,1.8,8.07,2.95,16.28,4.36,24.43,1.52,8.83,2.87,17.69,4.52,26.49,2.43,13,5.07,25.96,7.53,38.95,1.67,8.83,1.56,9.42,2.41,13.17,1.68,7.42,6.61,29.13,11.99,29.08.65,0,2.84-.34,7.65-15.06,7-21.42,4.27-26.57,10-41.16,1.03-2.62,3.48-9.91,7.04-20.09.53-1.51.93-3.08,1.32-4.64,4.16-16.68,7.6-33.59,12.65-50,5.65-18.36,4.17-37.36,6.95-55.94.07-.45.12-.93.07-1.38-2.62-22.6,4.88-43.51,10.87-64.66,1.75-6.19,4.06-12.26,5.39-18.53,3.54-16.67,13.97-29.69,22.62-43.65,10.04-16.19,20.47-32.14,30.19-48.51,4.91-8.27,8.77-17.18,12.83-25.93,6.2-13.36,12.23-25.12,21.99-38.77,4.91-6.86,10.48-14.65,12.74-13.63,2.34,1.06-.26,10.99-4.73,28.77-4.51,17.96-7.48,29.68-14.39,44.48-3.1,6.63-6.59,13.1-10.49,19.4-11.47,18.52-23.8,36.51-35,55.18-5.63,9.38-9.68,19.72-14.26,29.71-2.29,5-4.41,10.12-6.18,15.33-2.34,6.92-4.75,13.87-6.26,20.99-3.25,15.28-5.96,30.67-8.87,46.02-.26,1.35-.4,2.73-.5,4.1-.17,2.19.11,4.41,2.57,5.04,2.75.7,5.54.43,7.32-2.27,8.71-13.2,17.19-26.54,26.13-39.58,5.32-7.76,11.11-15.22,17.06-22.5,7.55-9.23,15.48-18.16,23.25-27.21,8.58-10.01,18.58-18.39,29.4-25.86,10.78-7.43,21.27-15.33,32.37-22.24,12.07-7.52,24.55-14.42,37.14-21.05,9.75-5.13,19.86-9.61,29.95-14.04,14.32-6.29,29.16-11.04,44.16-15.54,18.01-5.4,35.45-12.4,52.02-21.72,15.56-8.75,29.69-19.32,42.88-31.05,12.31-10.95,24.16-22.51,34.69-35.31,6.56-7.97,13.19-15.89,19.95-23.7,1.91-2.2,4.37-3.93,6.7-5.98,4.31,3.77,2.21,7.79.86,11.03-3.81,9.09-8.21,17.94-12.43,26.85-.78,1.66-2.05,3.1-2.72,4.79-5.15,13.03-14.84,22.39-24.8,31.71-11.16,10.44-23.72,18.93-36.68,26.75-7.99,4.82-15.97,9.9-25.29,12.42-4.77,1.29-9.33,3.97-13.52,6.73-12.64,8.34-25.11,16.96-37.54,25.62-5.63,3.92-11.03,8.16-16.51,12.27-6.24,4.68-12.82,8.98-18.64,14.14-14.72,13.07-31.52,22.87-48.6,32.33-10.43,5.77-20.75,11.73-31.11,17.64-8.55,4.88-17.4,9.32-25.52,14.82-11,7.46-21.46,15.73-32.11,23.71-4.03,3.02-7.82,6.4-11.96,9.27-17.29,11.99-32.93,25.9-46.07,42.25-8.27,10.29-13,18.33-19.95,30.53-13.95,24.49-26.28,53.63-22.72,55.74.72.43,1.83-.42,20.75-17.91,9.31-8.62,9.2-8.72,11.11-10.24,8.43-6.71,17.15-13.07,25.58-19.78,5.29-4.21,11.72-6.29,17.34-9.73,15.56-9.51,33.17-13.57,50.05-19.36,17.43-5.98,34.12-13.46,50.57-21.53,6.07-2.98,11.12-8,16.74-11.95,5.26-3.69,10.7-7.12,15.98-10.77,5.86-4.05,11.79-8.03,17.42-12.38,5.21-4.03,10.91-6.62,17.3-8.09,19.23-4.42,38.73-4.98,58.29-3.97,5,.26,9.97,1.59,14.89,2.71,6.71,1.52,13.39,3.21,20.03,5.02,6.49,1.77,11.13,3.58,13.05,4.25,28,9.89,58.44,16.44,57.89,19.61-.1.56-2.24.9-6.53,1.58-4.4.7-10.5,2.99-16.68.91-7.4-2.49-14.77-5.23-22.37-6.93-3.44-.77-6.9-1.34-10.37-1.7-9.89-1.04-18.18-.25-25.93.94-25.21,3.87-42.86,6.58-62.84,17.18-13.36,7.1-14.98,6.45-35.17,22.54-8.57,6.83-16.56,8.96-28.26,13.03-19.87,6.92-27.84,6.23-49.48,11-17.65,3.89-35.38,10.34-70.58,23.94-8.98,3.47-18.95,6.92-30.37,14.54-5.12,3.41-10.53,6.52-15.14,10.53-14.9,12.97-23,30.73-32.34,47.54-3.45,6.21-6.48,12.7-9.1,19.31-9.35,23.59-15.83,47.71-16.85,73.41-.8,19.99-.96,39.93-.28,59.87.64,18.84,2.78,37.54,6.58,56.05,1.85,8.99,2.78,18.16,4.39,27.2,2.62,14.7,5.74,29.33,8.12,44.07,2.24,13.83,4.08,27.74,5.59,41.66,2.5,23.07,6.5,45.89,10.63,68.7.7,3.84,1.4,7.7,1.7,11.59,1.28,16.85,6.5,32.86,10.26,49.18,1.6,6.93,2.82,13.98,3.65,21.04.92,7.81.1,15.48-2.25,23.14-2.27,7.44-3.2,15.27-5.13,22.83-.59,2.3-3.23,15.28-8.51,30.51-1.07,3.09-2.34,6.54-3.53,6.42-1.65-.17-2.18-7.12-2.58-12.86-1.34-19.14-2.01-28.71-2.32-43.93,0,0-.02-.92-1.2-27.84-1.05-23.8-10.32-83.21-43.81-146.16-16.07-30.2-31.57-47.89-42.14-58.48-4.34-4.35-14.27-14.69-29.43-24.77-16.31-10.84-33.39-20.12-51.78-26.83-12.99-4.74-26.65-4.53-40.21-4.21-15.14.36-30.27,1.09-45.41,1.74-4.13.18-8.24.62-12.36.97-22.31,1.86-44.5,1.11-66.54-2.94-6.97-1.28-14-2.32-20.88-4-11.13-2.72-20.24-9.78-29.83-15.46-13.39-7.93-26.12-17.08-38.52-26.52-5.2-3.96-11.06-8.28-12.98-16.41,7.66,1.57,14.02,4.6,20.24,7.87,21.53,11.3,43.72,19.9,68.6,20.26,12.81.18,25.6,2.11,38.4,3.13,17.83,1.43,35.67,2.67,53.49,4.16,12.13,1.02,24.26,2.16,36.35,3.55,12.3,1.42,24.65,2.69,36.81,4.96,18.49,3.46,31.8,6.36,46.14,15.23,2.91,1.8,8.13,5.26,19.34,15.96,27.83,26.57,40.52,49.38,42.84,48.03,1.94-1.13-5.39-18-12.29-31.09-4.19-7.94-11.5-18.77-25.95-40.11-9.67-14.28-15.44-21.58-22.64-31.2-3.3-4.4-6.76-8.78-10.75-12.55-13.51-12.78-27.26-25.32-40.98-37.88-8.47-7.75-16.6-15.96-25.7-22.9-14.13-10.77-26.09-23.87-39.62-35.24-4.38-3.68-8.69-7.64-13.63-10.43-17.97-10.14-35.6-21.13-55.41-27.46-10.66-3.41-21.66-5.83-32.55-8.46-6.02-1.46-12.13-2.51-18.22-3.63-7.21-1.33-14.58-2.01-21.62-3.95-10.76-2.96-21.33-6.67-31.93-10.21-16.55-5.53-32.96-11.47-49.61-16.66-1.53-.48-14.93-6.38-28.76-14.35-50.15-28.92-78.76-71.48-87.19-84.32-12.97-19.75-25.81-44.86-23.57-46.36.47-.32,1.42.56,5.78,4.26,0,0,13.6,11.48,24.35,19.68,2.83,2.16,5.7,4.25,8.65,6.23,15.64,10.51,30.88,21.45,45.31,33.55,2.28,1.92,4.59,3.85,6.6,6.04,8.78,9.56,19.23,17.02,29.83,24.35,6.14,4.24,14.44,10.91,24.62,17.63,9.42,6.22,27.96,18.47,49.9,27.33,33.6,13.56,50.12,9.07,81.81,21,16.17,6.09,30.26,13.17,30.26,13.17,4.79,2.14,9.61,4.42,13.94,7.35,6.49,4.39,12.93,8.57,20.36,11.41,4.83,1.85,9.29,5.02,13.41,8.25,6.32,4.95,12.2,10.45,18.26,15.72.52.45.93,1.2,1.52,1.37,1.87.55,4.38,1.8,5.54,1.06,1.22-.78,2.03-3.82,1.52-5.39-1.76-5.43-3.53-11.05-6.46-15.89-8.2-13.54-16.7-26.91-25.64-39.97-6.34-9.27-13.35-18.1-20.49-26.79-10.05-12.23-20.21-24.41-30.85-36.13-14.33-15.79-29.35-30.95-43.71-46.72-10.51-11.54-20.38-23.65-30.63-35.43-4.83-5.54-9.97-10.81-14.79-16.35-7.53-8.64-15.34-17.08-22.24-26.2-8.43-11.14-16.13-22.83-23.98-34.41-5.93-8.74-12.01-17.43-17.27-26.58-9.93-17.28-20.06-34.4-27.44-53.13-7.64-19.37-12.88-39.19-16.66-59.52-.88-4.73-1.49-9.55-1.66-14.35-.33-9.62-3.09-19.09-1.69-28.79.25-1.73.63-3.43,1.06-5.73,3.91,1.83,4.67,4.94,5.7,7.87,4.39,12.57,7.97,25.5,13.37,37.61,9.45,21.17,19.5,42.12,30.28,62.64,10.03,19.08,20.45,38.09,32.38,56.02,10.65,16,23.63,30.44,35.48,45.64,3.38,4.33,6.34,8.99,9.63,13.4,3.15,4.23,6.48,8.32,9.74,12.47,15.46,19.69,30.87,39.43,46.41,59.07,12.82,16.21,25.98,32.17,38.66,48.49,16.94,21.81,31.41,45.27,45.45,69.01,11.81,19.95,24.26,39.55,35.37,59.87,5.35,9.78,11.91,18.57,18.76,27.03,7.33,9.06,16.45,16.65,24.75,24.92,5.69,5.67,11.84,10.97,16.86,17.18,10.55,13.02,21.08,26.13,30.49,39.97,7.45,10.96,13.19,23.09,19.73,34.67,1.58,2.8,3.43,5.45,4.99,8.26,5.93,10.7,10.32,18.55,11.6,21.04,20.81,40.31,48,101.7,55.58,99.33,3.6-1.13,1.77-16.35.62-25.83-.75-6.19-3.89-29.58-22.8-71.46,0,0-18.08-40.03-23.36-56.19-2.29-7-2.02-6.52-3.84-12.45-7.68-25.03-20.02-47.79-33.43-70.07-10.41-17.3-21.07-34.45-33.37-50.48-12.3-16.02-24.93-31.8-37.26-47.8-5.46-7.09-10.66-14.39-15.77-21.73-5.77-8.29-11.24-16.78-16.95-25.11-12.66-18.47-21.84-38.73-31.53-58.82-7.04-14.6-11.15-30.13-17.18-45.02-1.88-4.65-2.87-9.69-3.98-14.61-3.98-17.71-9.62-34.93-14.67-52.34-5.48-18.9-9.42-38.24-14.21-57.34-4.24-16.91-8.75-33.76-13.11-50.64-.91-3.54-1.72-7.1-2.95-12.23,1.87,2.03,2.85,2.8,3.46,3.8,13.09,21.65,24.26,44.34,34.46,67.41,7.5,16.97,13.46,34.61,18.03,52.75,5.56,22.02,10.18,44.42,19.21,65.41,11.17,25.99,23.32,51.44,41.28,73.73,11.51,14.29,21.97,29.43,33.17,43.98,7.42,9.64,15.31,18.93,23.02,28.35,10.43,12.74,18.14,26.98,24.42,42.17,11.33,27.4,23.58,54.42,34.46,82,6.98,17.7,12.19,36.11,18.18,54.2.37,1.1.34,1.15.79,2.63,11.68,38.83,22.51,74.87,25.37,74.24,3.68-.81-4.75-62.78-5.37-72.56-.02-.29-.16-2.65-.4-5.87-.12-1.57-.26-3.37-.43-5.35-1.05-12.33-2.74-24.61-4.45-36.88-2.37-17.02-4.96-34.01-7.58-50.99-.87-5.67-1.97-11.32-3.24-16.92-2.7-11.86-5.64-23.67-8.37-35.53-2-8.71-3.84-17.46-5.73-26.2-1.84-8.52-3.79-17.02-5.45-25.57-1.39-7.16-2.5-14.37-3.62-21.58-1.3-8.4-2.39-16.84-3.74-25.23-2.93-18.35-5.99-36.67-8.96-55.01-1.61-9.96-3.58-19.89-4.61-29.91-1.09-10.68-1.18-21.47-1.86-32.19-.39-6.15-1.27-12.28-1.6-18.43-.46-8.69-.73-17.39-.88-26.09-.21-12.4-.32-24.8-.3-37.2.02-9.77.51-10.81.62-20.6.11-10.11-.16-11.96-.23-23.9-.07-11.8.18-13.56.31-30.4.15-19.59-.18-17.7.02-25.74.74-30.01,4.43-63.09,4.66-71.43.09-3.18-.69-6.37.35-12.28,1.95-11.17,2.02-22.36,1.8-33.63-.1-4.99.72-10.04,1.55-14.99,2.94-17.46,5.5-34.93,1.06-52.48-1.22-4.83-3.55-9.39-5.55-14.55,2.46-4.19,5.67-8.92,8.12-14.02,4.13-8.6,5.1-17.56,1.63-26.76-.23-.62-.21-2.6-.12-5.08.69-18.62,6.62-45.49,6.62-45.49,3.7-16.75,4.44-19.99,6.37-30.32,1.01-5.4,1.4-10.92,1.97-16.4,1.73-16.66,2.9-29.19,2.97-30.04,3.36-38.91,7.66-49.09,9.41-84.71.33-6.65,2.77-58.77,3.83-68.05.05-.42.39-3.3.76-7.23.37-3.96.53-6.74,1.78-20.15,1.1-11.86.49-24.28,3.97-35.42,5.05-16.19,6.99-32.71,9.75-49.2.75-4.51.73-9.14,1.32-13.68,1.2-9.31,2.33-18.63,3.93-27.88,2.55-14.78,3.31-29.61,2.63-44.57-.12-2.68.31-5.64,1.39-8.07,7.06-15.84,7.62-32.42,6.26-49.32-.83-10.29-1.13-20.64-2.1-30.92-.47-5-2.23-9.87-2.88-14.86-1.6-12.29-2.9-24.61-4.29-36.92-.46-4.1-.92-8.21-1.19-12.33-.41-6.29.49-12.39,3.15-18.16.24-.52.96-1.56,2.34-3.67,3.02-4.62,7.25-10.69,13.36-16.39,2.41-2.25,3.84-3.21,5.52-3.07,1.79.15,3.48,1.46,4.92,3.91.58.99,1.04,2.05,1.47,3.12,4.15,10.22,5.57,20.73,3.46,31.66-.43,2.25-.22,4.63-.77,6.84-1.79,7.19-3.53,13.08-4.38,15.11-3.26,7.87-4.78,18.86-7.82,40.82-2.03,14.71-4.18,27.95-3.79,44.36.22,9.16-.01,18.33-.12,27.49ZM697.49,266.8c3.66,6.84,7.24,13.77,10.17,20.94,3.44,8.4,4.12,17.43,3.89,26.41-.34,13.44-3.6,26.42-8.34,38.88-2.58,6.78-6.9,12.91-10.47,19.31-.54.96-1.25,1.58-1.95,2.33-4.82,5.15-10.55,7.37-14.42,8.42,3.66-2.86,9.27-8.15,12.21-16.41,1.07-3.01,1.55-5.18,1.93-9.59.77-8.85.31-17.84,0-26.75-.2-5.69-.58-11.46-1.77-17.01-1.69-7.88-4.35-15.94-10.94-20.87-6.61-4.94-15.15-4.82-22.52-2.02-8.28,3.15-15.83,8.19-23.74,12.32-4.4,2.3-6.6,6.19-8.22,10.62-3.91,10.69-9.32,20.87-11.34,32.26-.49-12.76-3.27-25.41-.03-37.86,2.52-9.67,4.96-19.52,8.99-28.6,5.79-13.04,14.8-23.68,28.25-29.86,4.36-2.01,8.58-2.39,13.35-1.52,10.92,1.98,20.16,7.52,29.41,13.05,2.25,1.34,4.28,3.63,5.53,5.95ZM646.92,203.61c.89-1.36,2.95-3.03,4.17-2.82,1.63.28,3.69,1.97,4.29,3.55,1.03,2.7,1.62,5.82,1.43,8.7-.49,7.48-1.5,14.92-2.39,23.19-11.93-7.32-12.6-24.87-7.51-32.62ZM686.46,224.75c-4.18,7.63-6.91,9.7-9.53,10.73-3.9,1.54-7.91.86-10.27.1-3.16-1.03-4.19-3.17-4.03-6.32.26-4.81.65-9.65.42-14.45-.2-4.07-.8-8.24-2.01-12.11-.77-2.48-2.6-4.93-4.6-6.66-5.69-4.91-13.01-3.2-15.63,3.86-4.04,10.89-4.77,22.04.25,32.87,1.69,3.65,4.37,6.84,6.51,10.12-5.33,3.72-10.04,6.48-14.1,10-3.92,3.41-7.16,7.62-11.48,12.32.16-2.07.08-3.25.36-4.33,1.62-6.19,2.67-12.65,5.15-18.49,4.08-9.59,1.26-16.62,4.13-36.39.67-4.63,4.88-31.98,18.84-47.57,3-3.35,6.9-6.49,12.01-8.69,12.47-5.37,19.83-.97,26.53,9.17,9.47,14.33,11.22,29.31,5.35,45.29-1.5,4.09-3.19,11.9-7.92,20.54ZM754.36,102.26c1.8,1.82,2.56,5.11.07,14.89-1.96,7.71-2.94,11.56-6.17,17.42-9.99,18.09-5.83,32.19-18.51,62.15-6.36,15.03-12.22,28.4-26.46,38-7.73,5.22-15.37,7.59-20.76,8.78,16.79-8.73,26.54-19.11,31.87-25.89,0,0,19.59-24.94,25.03-76.04,1.72-16.09,1.74-17.04,1.74-17.04.12-3.95.05-8.31,1.42-14.31,1.81-7.94,3.95-9.17,4.96-9.56,2.18-.85,5.1-.12,6.79,1.59Z"/></g></svg>