<svg id="Layer_2" xmlns="http://www.w3.org/2000/svg" viewBox="0 0 1866.34 2307.94"><defs><style>.cls-1{fill:#1a1a1a;}</style></defs><g id="_Ñëîé_1"><path class="cls-1" d="M1859.8,1526.57c-1.98-5.98-3.79-10.14-6.08-16.09-3.02-7.85-6.09-15.69-9.04-23.57-.43-1.14-.32-2.47-.48-3.7-2.15-16.04-4.31-32.08-6.45-48.13-.56-4.2-1.09-8.4-1.54-12.61-.56-5.18-.79-10.41-1.59-15.55-1.18-7.62-2.41-15.26-4.22-22.75-2.39-9.89-2.84-20.27-7.76-29.55-2.91-5.49-5.28-11.28-7.79-16.99-4.59-10.47-8.78-21.14-13.76-31.42-1.86-3.83-4.75-12.66-7.47-23.41-5.22-20.62-5.66-37.63-5.99-54.12-.44-21.74,1.47-20.78.1-33.44-1.94-17.98-7-31.1-11.1-41.52-4.71-11.96-11.9-30.24-27.65-48.45-7.63-8.82-8.07-6.99-23.25-23.25-6.72-7.2-12.36-13.81-23.79-26.91-5.53-6.34-11.01-12.71-16.4-19.17-7.35-8.82-15.12-17.37-21.74-26.72-8.33-11.77-16.47-23.81-23.16-36.54-4.45-8.45-6.28-18.29-9.19-27.54-4.72-14.98-9.32-30.01-14.08-44.98-1.13-3.55-2.37-7.15-4.18-10.38-6.18-11.06-12.6-21.99-19.01-32.92-1.5-2.56-2.99-5.22-4.97-7.4-6.01-6.63-12.3-13.02-18.4-19.58-1.95-2.1-3.67-4.41-5.49-6.62.41-.46.81-.93,1.22-1.39,11.6,8.03,23.27,15.96,34.77,24.13,8.51,6.05,16.78,12.43,25.19,18.63,10.23,7.53,21.17,14.26,30.55,22.73,11.2,10.11,24.28,17.33,36.16,26.32,10.34,7.82,20.56,15.87,31.38,22.97,8.7,5.7,18.1,10.42,27.47,15,3.88,1.9,8.33,1.39,11.94-1.79,2.32-2.04,3.39-4.23,1.55-7.19-4.75-7.63-9.35-15.34-14.17-22.92-2.94-4.63-6.19-9.06-9.29-13.58-3.09-4.52-6.01-9.17-9.3-13.53-4.2-5.56-9.87-10.32-12.8-16.44-5.05-10.51-12.09-19.39-19.08-28.47-13.64-17.7-31.57-31-47.39-46.46-6.91-6.75-14.69-12.6-21.95-19.01-5.45-4.82-25.96-23.76-46.95-50.11-28.91-36.28-59.71-88.1-67.92-124.95-.86-3.86-3.18-17.02-9.62-33.74-3.76-9.77-7.57-19.6-12.37-28.88-6.42-12.4-13.88-24.26-20.79-36.41-4.68-8.22-9.08-16.59-13.81-24.78,0,0-6.48-10.93-12.2-19.55-18.4-27.71-47.04-50.03-78.22-74.33-7.28-5.68-11.07-8.42-15.66-11.36-12.95-8.29-21.81-11.42-44.79-20.56-17.11-6.8-30.74-12.21-47.69-19.63-9.78-4.28-17.45-7.79-29.27-13.27-19.57-9.07-29.37-13.55-37.22-17.52-40.56-20.52-52.66-34.83-92.34-50.31-2.58-1.01-4.65-1.77-5.62-2.13-19.07-7.01-40.42-14.87-64.81-15.55-.2,0-12.46-1.67-36.46,1.42-4.43.57-8.96.23-13.43.55-12.42.9-24.99,1.01-37.2,3.14-13.74,2.39-27.23,6.34-40.69,10.13-30.29,8.51-60.47,17.4-90.73,26-13.69,3.89-27.62,6.97-41.17,11.27-24.47,7.76-49.33,12.14-75.04,11.04-5.48-.24-10.96-1.25-16.41-1.04-23.67.91-46.7-3.28-69.66-8.21-6.09-1.31-12.12-2.9-18.2-4.3-2.58-.6-5.26-.83-7.77-1.62-6.66-2.08-13.25-4.37-19.87-6.58-13.47-4.51-27.3-8.04-39.7-15.37-5.78-3.41-11.84-6.36-17.84-9.39-11.33-5.73-22.69-11.4-34.07-17.03-13.42-6.63-26.82-13.29-40.33-19.74-8.54-4.08-17.32-7.66-25.86-11.75-7.42-3.55-14.58-7.64-21.96-11.26-12.61-6.19-19.64-9.68-49.46-23.07-43.86-19.69-66.13-29.71-82.73-38.27-16.72-8.63-29.69-15.66-29.69-15.66-13.18-7.58-26.75-14.5-40.22-21.58-5.5-2.89-11.14-5.55-16.78-8.17-4.28-1.99-8.8-3.49-12.96-5.68-13-6.85-25.86-13.97-38.82-20.9-11.22-6-22.41-12.08-33.78-17.78-20.77-10.41-23.46-16.25-45.24-29.08C15.99,4.32,4.4-2.51.97.86c-5.97,5.86,17.4,38.14,22.11,54.45.32,1.1,1.27,4.63,4.02,8.3,2.1,2.81,4.83,5.11,8.21,7.01,6.96,3.92,13.2,9.07,20.37,12.59,24.97,12.26,38.03,25.72,89.39,51.2,6.77,3.36,6.31,3.1,8.78,4.35,23.01,11.64,39.43,30.55,53.4,51.34,15.44,22.98,31.71,45.49,44.41,70.26,8.88,17.34,18.51,34.28,24.74,52.86,3.89,11.6,8.07,23.09,12.08,34.64.33.94,1.23,4.02,1.92,6.46,0,0,1.22,4.44,2.22,9.07,3.3,15.34,3.27,53.61,3.24,64.38,0,0,.86,10.74-6.62,23.61-1.35,2.33-2.68,3.39-5.27,2.86-10.27-2.09-20.62-3.83-30.79-6.32-15.41-3.78-30.93-4.61-46.51-2.09-11.65,1.88-22.52,6.05-31.7,13.87-5.7,4.85-11.53,9.53-17.24,14.37-3.96,3.36-7.64,7.09-11.74,10.27-6.76,5.22-7.09,13.57.58,17.63,24.95,13.2,34.68,19.02,34.68,19.02,26.29,10.68,30.03,12.15,37.54,13.59,7.92,1.53,12.66,1.45,19.35,1.94,8.96.66,18.02,1.58,26-4.19.66-.48,1.8-.32,2.71-.45.13.85.43,1.46.24,1.79-6.79,11.9-13.14,24.08-20.6,35.55-5.66,8.7-8.4,18.16-9.68,28.03-.78,6.05-3.54,10.7-6.49,15.62-2.44,4.07-5.7,5.76-10.33,5.86-14.94.34-29.88,1.33-44.81,1.21-26.41-.21-51.26-7.64-75.13-18.36-4.07-1.83-7.76-5.48-10.48-9.14-5.22-7.03-10.55-8.46-17.74-3.54-4.85,3.32-5.46,7.36-1.93,12.9,3.06,4.81,3.95,4.88,10.24.88.79-.5,1.74-.77,2.71-1.19,1.37,1.03,2.55,1.91,3.72,2.81,5.97,4.58,12.28,8.29,19.54,10.79,9.67,3.33,19.1,7.31,29.32,8.76,1.21.17,2.36.81,3.56,1.13,5,1.35,9.99,2.77,15.03,3.96,13.46,3.18,27.16.92,40.73,1.61,4.7.24,9.43.1,14.14.05,10.94-.11,21.77-2.54,32.81-1.27,1.4.16,2.34.39,3.85.68,18.65,3.62,41.72,11.61,41.21,13.84-.52,2.28-24.57-6.76-63.46-6.55-19.09.1-44.72,5.17-74.63,1.05-1.72-.24-3.49-.2-5.23-.28-15.76-.72-31.37-2.75-46.67-6.54-4.16-1.03-8.51-3.22-11.64-6.1-5.06-4.65-10.26-8.37-17.2-9.27-3.29-.43-6.61-1.06-8.53,2.64-1.06,2.03,1.38,8.29,3.86,9.95.79.53,1.86.64,2.79.98,3.75,1.37,7.74,2.29,11.18,4.2,12.09,6.7,25.31,9,38.76,10.5,9.85,1.1,19.98.96,29.52,3.28,10.48,2.55,20.78,1.73,31.2,1.74,3.59,0,7.18.38,10.77.58.05.5.09,1.01.14,1.51-2,.81-3.96,1.73-6.01,2.41-4.5,1.49-9.28,2.36-13.52,4.38-19.01,9.07-38.91,9.95-59.32,7.21-4.69-.63-9.45-.77-14.15-1.39-5.17-.69-10.32-1.59-15.45-2.55-4.18-.78-6.69-3.12-6.58-7.71.02-.85-.6-1.72-.98-2.74-1.85.25-3.35.28-4.76.67-4.69,1.28-7.26,3.92-7.37,7.35-.1,3.44,3.3,9.19,6.74,9.96,11.61,2.61,22.89,7.41,35.24,5.54,3.88-.58,7.74-.14,11.08,3.75-4.66.94-9.32,1.88-14.62,2.95-.48.88-1.36,2.36-2.12,3.91-2.55,5.25-2.7,5.35-8.49,4.58-2.72-.37-5.44-.79-8.15-1.2-2.94-.44-6.23-.12-6.68,3.05-.32,2.24,1.17,5.29,2.83,7.07,1.19,1.28,3.97,1.35,6.06,1.45,2.96.14,6.01-.7,8.88-.24,5.87.95,11.63,2.56,17.47,3.76,2.91.6,5.87,1.09,8.84,1.31,8.16.62,16.32,1.13,24.49,1.57,2.96.16,5.98.36,8.89-.04,14.31-1.97,28.59-4.21,42.9-6.22,13.75-1.93,27.52-3.75,41.29-5.53,5.99-.78,12.01-1.35,18.01-2.01.15.48.3.96.44,1.44-2.43,1.01-4.79,2.24-7.29,2.99-19.6,5.84-39.17,11.79-58.86,17.29-14.26,3.99-28.79,6-43.71,4.67-13.89-1.24-27.82-2.06-41.73-2.99-6.2-.42-11.96,1.23-16.86,4.94-3.98,3-4.53,7.2-2.06,10.47,2.01,2.67,3.98,2.22,9.14-.92,2.87-1.74,6.19-3.48,9.42-3.73,6.66-.5,13.63-1.08,20.05.33,10.02,2.21,19.91.63,29.83.76,10.19.12,20.34-.77,30.32-3.77,9.29-2.8,19.04-4.03,28.4-6.62,8.4-2.32,16.51-5.66,24.81-8.36,8.77-2.86,17.98-4.66,26.31-8.44,16.54-7.5,26.11-7.77,33.14-8.5,8.71-.91,22.65-.8,40.44,6.3-3.33,1.1-6.68,1.64-10.04,1.94-7.43.65-14.9.96-22.32,1.79-12.14,1.36-24.22,3.33-36.38,4.45-8.59.8-16.71,2.85-24.47,6.46-7.7,3.58-15.25,7.47-23.02,10.87-14.64,6.4-29.19,13.07-44.15,18.65-13.74,5.12-27.19,11.19-41.7,14.23-8.7,1.82-17.23,2.47-25.81-.28-.94-.3-1.93-.5-2.91-.61-2.69-.3-4.22.98-4.79,3.59-.7,3.19.72,7.19,3.85,8.07,4.25,1.19,9.09,2.78,13.12,1.83,15.13-3.55,30.14-7.72,44.98-12.36,8.06-2.52,15.73-6.33,23.46-9.81,16.15-7.25,32.2-14.7,48.34-21.97,4.76-2.14,9.6-4.15,14.53-5.86,13.76-4.79,28.2-6.31,42.53-8.19,4.49-.59,9.16.23,15.04.45-1.75,1.57-2.21,2.14-2.8,2.49-1.06.62-2.18,1.18-3.32,1.62-21.49,8.27-41.88,18.72-61.38,30.96-2.28,1.43-4.8,2.75-7.39,3.38-6.78,1.66-13.63,3.04-20.49,4.31-8.33,1.54-16.69,2.87-25.04,4.29-7.63,1.29-15.29,2.51-22.9,3.93-1.91.36-4.08.97-5.44,2.22-1.48,1.35-3.16,3.72-2.91,5.38.26,1.76,2.55,4.37,4.18,4.55,3.55.39,7.98.6,10.71-1.18,3.54-2.31,7.1-3.54,11-4.17,7.88-1.27,15.81-2.18,23.69-3.46,4.51-.74,8.94-1.93,14.71-3.21-4.96,6.72-9.8,10.82-17.01,11.82-9.64,1.34-19.2,3.3-28.86,4.49-6.64.82-13.46,1.59-20.07.95-14.35-1.38-28.53-.33-42.47,2.55-6.44,1.33-12.48,4.83-18.53,7.71-2.56,1.22-4.37,3.76-3.27,6.81,1.17,3.24,3.55,5.48,7.37,5.24,3.64-.23,7.51-1.17,8.74-4.73,1.57-4.54,4.83-5.32,8.65-5.71,4.93-.5,9.88-.9,14.83-1.25,6.43-.45,13.02-1.84,19.27-.96,12.94,1.83,25.28-.47,37.73-3.11,1.56-.33,3.22-.23,5.52-.37-1.44,4.69-4.58,6.68-7.83,8.32-11.58,5.84-23.14,11.74-34.92,17.15-4,1.84-8.62,2.39-13.01,3.3-1.37.28-3.24.34-4.27-.37-6.22-4.3-12.27.25-18.39.19-.85,0-1.71,1.59-2.62,2.51,1.19,3.89,2.69,8.41,6.87,7.96,8.65-.92,17.48,1.33,25.98-1.87,18.06-6.8,35.73-14.27,50.71-26.85,4.59-3.85,8.94-8.01,13.7-11.62,2.48-1.88,5.48-3.44,8.48-4.18,9.17-2.25,18.61-3.52,27.67-6.14,10.49-3.03,20.67-7.13,31.01-10.7,16.02-5.53,32.08-10.95,48.07-16.55,9.44-3.31,19.07-5.11,29.45-4.82.32,2.62.61,5.01.78,6.4-8.36,3.77-16.14,7.03-23.69,10.75-11.41,5.62-22.53,11.85-34.02,17.32-21.85,10.4-44.84,18.46-65.25,31.83-1.04.68-2.21,1.16-3.34,1.69-18.04,8.37-36.87,13.95-56.68,16.02-5.92.62-11.88.77-17.82,1.21-4.66.35-9.31.81-14.3,1.25-.05,2.65-.33,4.63-.09,6.54.64,5.08,3.44,6.42,8.24,4.46,2.26-.92,4.71-1.5,7.13-1.86,13.31-1.95,26.67-3.61,39.95-5.75,4.64-.75,9.35-2.04,13.62-3.98,14.76-6.7,30.04-12.42,43.59-21.59,2.19-1.48,4.48-2.74,9.14-1.94-3.74,2.57-6.04,4.33-8.51,5.81-17.33,10.43-34.82,20.57-51.99,31.26-11.98,7.45-25.02,10.31-38.68,9.11-8.89-.79-17.41.37-26.07,1.36-2.92.33-5.42.95-6.09,4.37-.73,3.75.64,7.35,3.69,9.09,2.81,1.6,5.61,2.23,8.06-.72,2.79-3.37,6.63-4.3,10.73-4.41,3.74-.1,7.51-.33,11.21.03,11.84,1.17,22.97-1.51,33.25-6.89,10.57-5.54,20.58-12.15,30.88-18.2,3.33-1.96,6.83-3.65,10.25-5.46.28.46.55.92.83,1.37-7.62,5.08-15.23,10.17-22.87,15.23-3.95,2.62-7.92,5.21-11.93,7.73-4.63,2.92-9.09,6.21-14.02,8.48-4.46,2.06-9.64,4.5-14.17,3.97-5.31-.63-9.57.34-14.27,2.09-3.08,1.15-5.77,2.07-8.07,4.8-1.8,2.13-5.04,3.01-7.59,4.54-1.17.7-2.21,1.61-4.48,3.28,2.64.84,4.14,1.84,5.48,1.66,6.38-.84,12.8-1.66,19.06-3.1,13.88-3.19,27.37-7.45,39.53-15.23,10.7-6.85,22.34-12.23,32.01-20.69,3.93-3.44,7.69-7.21,12.06-9.99,14.11-8.95,28.41-17.63,42.79-26.15,4.67-2.77,9.68-5.17,14.81-6.93,6.59-2.26,13.45-3.74,20.21-5.51,2.55-.66,5.13-1.19,7.7-1.78-.97,2.27-2.37,3.52-3.93,4.52-18.25,11.77-36.52,23.5-54.79,35.25-1.89,1.21-3.7,2.56-5.68,3.61-14.21,7.58-27.08,16.9-38.1,28.71-4.53,4.86-9.95,7.98-16.66,9.3-14.3,2.82-27.63,8.29-40.04,16.01-7.42,4.61-14.99,8.99-22.54,13.37-4.38,2.54-4.94,4.11-2.54,8.36,1.16,2.06,2.36,3.25,3.78,3.66,1.94.55,3.81-.38,4.81-.93,7.67-4.23,16.1-13.9,26.28-20.13,4.19-2.56,7.7-3.9,10.05-4.72,3.07-1.08,6.39-1.44,9.6-2.12.3.6.6,1.19.9,1.79-11.27,12.52-22.54,25.04-33.81,37.56-.8.78-1.64,1.61-2.49,2.44-2.58,2.49-2.38,5.61-1.05,8.33,1.5,3.07,4.79,3.54,7.81,2.85,2.63-.61,5.33-1.6,7.56-3.08,10.58-7.03,20.81-14.59,31.53-21.4,13.55-8.61,26.45-17.9,37.03-30.09,4.94-5.7,10.96-9.11,18.63-9.93,13.5-1.43,26.34-5.54,38.98-10.35,6.97-2.66,14-5.18,21-7.76-2.18,3.19-4.84,5.44-7.36,7.84-2.71,2.58-5.59,5.08-7.88,8.01-11.89,15.23-26.6,26.66-44.34,34.43-10.05,4.4-19.74,9.66-29.57,14.56-6.68,3.33-13.47,6.48-19.95,10.17-5.4,3.07-10.16,7.39-15.72,10.07-4.33,2.08-6.64,4.72-7.37,9.05,4.07,1.01,10.02,1.78,15.83-.75,4.89-2.12,5.23-6.06,10.7-9.17,7.78-4.43,16.05-7.99,24.07-12.01,6.91-3.46,13.73-7.09,20.65-10.54,4.46-2.22,9.02-4.25,13.54-6.37-4.14,11.1-10.89,19.7-18.46,27.6-2.85,2.98-6.32,6.14-11.58,9.23-14.53,8.55-20.31,2.12-37.6,9.97-11.78,5.35-14.91,10.97-20.55,14.03-.58.32-2.58,1.39-3.27,3.43-.24.71-.29,1.52-.12,2.47.59,3.31,3.3,4.71,6.11,4.21,3.83-.68,8.75-1.24,10.95-3.79,4.62-5.35,10.71-7.11,16.63-9.47,9.26-3.69,18.77-6.78,28-10.54,6.02-2.45,11.69-5.68,15.57-11.27,9.52-13.7,21.38-25.75,28.64-41.07,1.36-2.88,4.01-5.48,9.2-4.59-3.39,4.81-6.36,8.75-9.03,12.88-5.14,7.92-10.56,15.71-15.05,24-7.86,14.54-22.09,22.72-32.99,34.21-1.06,1.12-3.11,1.3-4.69,1.95-6.03,2.49-10.22,7.1-13.5,12.47-.8,1.31-.54,4.2.42,5.41.98,1.23,3.57,1.99,5.21,1.68,2.05-.39,4.05-1.85,5.74-3.25,8.82-7.32,17.65-14.64,26.25-22.22,11.09-9.78,21.68-20.28,28.07-33.73,9.25-19.48,24.38-33.82,39.52-48.3,2.31-2.21,4.95-3.88,9.07-2.86-4.86,10.69-8.85,21.21-14.28,30.92-6.17,11.05-10.6,23.21-19.84,32.46-7.94,7.94-15.06,16.8-23.52,24.12-12.77,11.07-26.36,21.2-39.7,31.61-1.94,1.51-4.34,2.49-6.94.75-3.17-2.12-5.63-.82-7.72,1.88-1.36,1.76-2.78,3.47-4.24,5.28.19,1.02.25,2.03.58,2.95,2.25,6.22,3.93,7.2,10.06,4.85,3.67-1.41,7.34-3.2,10.5-5.52,9.23-6.78,17.96-14.27,27.34-20.83,15.75-11.01,28.17-25.41,40.22-39.93,15.24-18.35,24.75-40.19,34.32-61.92,5.8-13.17,11.8-26.47,24.3-35.19,1.78-1.24,3-3.32,4.41-5.07,3.37-4.17,6.69-8.36,10.03-12.55-16.9,46.11-30.94,79.73-36.47,88.57-1.84,2.93-3.63,5.52-3.63,5.52-4.51,5.65-9.14,11.21-13.67,16.85-6.06,7.54-11.99,15.19-18.12,22.67-8.22,10.03-16.28,20.22-24.96,29.85-8.99,9.97-18.16,19.89-28.13,28.84-10.77,9.67-24.83,13.8-38.17,18.32-9.58,3.24-15,8.52-17.33,17.82,6.95,3.8,13.82,2.11,18.83-4.63,5.77-7.78,14.12-10.54,23.07-12.18.31-.06.75.55,1.73,1.32-2.24,12.15-4.89,24.54-9.01,36.6-2.82,8.25-5.76,16.45-8.64,24.68-1.07,3.06-2.01,6.17-3.26,9.16-6.06,14.47-11.45,29.15-15.11,44.44-.46,1.92-1.34,3.75-2.17,5.55-9.97,21.48-13.29,44.56-14.33,67.74-1.35,30.04,2.79,59.74,10.3,88.9,4.23,16.42,8.65,32.8,12.74,49.26,1.25,5.03,2.41,10.3,2.25,15.41-.2,6.44-1.91,12.83-2.76,19.26-2.25,17.13-3.12,34.31-.87,51.5.94,7.17,2.62,14.24,4.05,21.34,3.6,17.85,6.65,35.83,11.07,53.48,3.51,14,8.66,27.59,13.18,41.33,2.81,8.53,5.7,17.04,8.72,25.49,3.35,9.39,6.83,18.73,10.38,28.05,1.23,3.24,2.84,6.34,4.27,9.51,3.78,8.4,8.29,16.56,11.18,25.25,4.63,13.96,8.16,28.28,12.19,42.44.54,1.91.9,4.06,2.03,5.57,1.4,1.86,3.61,4.49,5.32,4.39,2.27-.13,5.2-2.13,6.41-4.17,1.7-2.89,2.57-6.5,2.96-9.9,1.73-15.34,3.1-30.72,4.74-46.08.79-7.41,2.3-14.77,2.75-22.19.76-12.4.92-24.83,1.37-37.25.47-13.18.67-26.37,1.58-39.52.72-10.43,1.11-21.14,3.86-31.11,1.58-5.72,3.29-11.99,13.9-36.25,7.32-16.72,10.98-25.09,13.75-30.43,6.89-13.3,19.43-32.88,43.03-53.68,14.22-14.18,19.52-32.82,25.22-51.14,6.74-21.66,9.84-44.38,18.54-65.48,2.54-6.16,5.97-11.96,9.08-17.89,3.24-6.18,7.02-12.11,9.77-18.5,4.62-10.75,8.54-21.81,12.91-32.67,1.39-3.45,3.11-6.81,4.98-10.03,5.4-9.24,10.89-18.43,16.5-27.55,1-1.62,2.56-3.1,4.19-4.08,3.02-1.82,4.55-4.35,5.43-7.68,4.51-16.97,12.39-32.6,19.66-48.46.94-2.05,2.68-3.74,4.05-5.59,1.19,2.93,1.2,5.35,1,7.74-.68,8.2-1.62,16.39-2.06,24.6-.24,4.44-1.71,8.07-4.13,11.75-3.37,5.1-6.07,10.65-8.96,15.84,7.9,6.26,11.17,5.64,14.35-1.92.87-2.07,1.36-4.32,2.41-6.28,3.89-7.3,5.48-14.88,3.95-23.14-.53-2.88-.39-5.98-.05-8.92,1.19-10.36,2.52-20.71,3.95-31.04.7-5.09,2.8-9.69,7.08-12.69,9.19-6.45,14.23-15.66,18.41-25.72,2.28-5.48,5.56-10.54,8.45-15.76.15-.28.89-.24,1.35-.34.22.41.62.83.6,1.23-.05.99-.28,1.96-.45,2.94-3.42,19.61-7.68,38.97-8.78,59.1-.95,17.5-6.25,34.79-9.89,52.12-.59,2.82-2.74,5.28-3.87,8.03-1.3,3.17-2.42,6.44-3.31,9.75-.72,2.66-.13,4.99,3.02,5.85,3.15.87,5.28-.05,6.48-3.24,1.49-3.96,3.38-7.78,4.78-11.77,1.8-5.14,3.5-10.33,4.81-15.6,1.02-4.1,1.41-8.36,2.03-12.55,2.21-15.04,5.25-29.96,5.05-45.31-.08-6.43.93-12.94,2-19.32,2.63-15.75,5.28-31.5,8.5-47.13,1.86-9,4.42-17.92,7.46-26.6,2.46-7.03,6.1-13.63,9.19-20.44,1.58-3.49,3.09-7.01,4.64-10.51,1.06,1.25,1.13,2.16,1.1,3.07-.52,15.45-1.29,30.9-1.52,46.36-.31,20.75-4.24,40.61-12.98,59.5-5.75,12.44-7.69,25.89-8.8,39.28-1.22,14.65-1.1,29.42-1.35,44.14-.09,4.98.17,10.01.84,14.94.52,3.75,3.87,5.95,6.87,5.35,3.02-.61,5.37-3.8,5.26-7.24-.02-.74-.11-1.55-.42-2.2-4.56-9.49-2.62-19.55-2.8-29.46-.29-16.31,1.24-32.41,4.75-48.31.91-4.13,1.6-8.59,3.69-12.12,6.37-10.74,7.7-23.07,11.77-34.52.73-2.06.71-4.44.81-6.68.17-3.99.02-7.99.26-11.98.34-5.8.11-11.7,2.5-17.32.74,1.1,1.16,2.23,1.19,3.37.36,12.96.74,25.93.97,38.9.28,15.97.39,31.93.64,47.9.17,10.71.6,21.41.64,32.12.03,7.48-1.17,15.04-.48,22.43,1.18,12.65,3.27,25.23,5.33,37.77.35,2.13,2.13,4.47,3.93,5.81,1.8,1.35,4.38,2.69,6.74.17,2.07-2.21,1.8-4.3.47-6.8-1.27-2.39-2.24-4.97-3.04-7.56-3.7-12.12-3.61-24.67-3.47-37.1.2-17.47,1.42-34.93-1.61-52.3-.55-3.18-.57-6.47-.65-9.71-.45-19.44-.63-38.89-1.33-58.31-.39-10.96-1.6-21.89-2.44-32.83-.21-2.74-.54-5.47-.61-8.21-.27-11.2-.47-22.4-.61-33.61,0-.53.74-1.06,1.94-2.66,1.58,5.35,3.24,9.72,4.14,14.25,3.49,17.61,6.16,35.41,10.26,52.88,3.41,14.52,5.89,29.38,12.98,42.9,7.81,14.9,8.56,30.74,6.63,47.37-2.15,18.53-2.32,37.3-3.33,55.97-.22,4.12.6,7.84,3.4,11.16,1.18,1.4,1.99,3.49,2.12,5.33.64,9.2,1.08,18.41,1.42,27.63.68,17.94.45,35.93,5.59,53.44,2.17,7.4,3.96,14.99,4.97,22.62,3.35,25.31,8.52,50.14,18.28,73.83,6.08,14.76,12.67,29.32,18.53,44.16,6.13,15.54,11.7,31.27,19.44,46.18,9.09,17.51,17.89,35.15,30.21,50.71,9.45,11.93,19.02,23.76,28.71,35.5,3.16,3.83,6.43,7.82,10.41,10.68,11.82,8.5,19.32,20.03,24.52,33.24,3.19,8.11,5.79,16.44,8.86,24.6,1.58,4.2,3.33,8.37,5.47,12.3,7.42,13.58,14.74,27.23,22.69,40.5,6.4,10.68,13.46,21.01,20.64,31.19,3.86,5.47,8.84,10.15,12.92,15.49,10.17,13.34,20.82,26.21,34.08,36.64,6.85,5.39,14.12,10.31,20.63,16.08,21.06,18.68,41.78,37.73,62.81,56.45,5.17,4.6,11.36,8.07,16.5,12.72,14.24,12.87,28.4,25.86,42.18,39.23,18.94,18.37,40.87,32.66,62.6,47.27,9.53,6.41,19.64,12.05,28.59,19.17,5.73,4.55,10.8,5.3,17.46,2.44-.07-1.24.21-2.79-.3-4.02-3.02-7.35-6.69-14.48-9.25-21.98-3.33-9.74-7.39-18.96-12.76-27.8-7.56-12.46-13.36-25.82-22.08-37.8-11.42-15.7-21.76-32.33-29.55-50.3-2.57-5.93-5.77-11.73-7.31-17.94-3.9-15.71-6.72-31.68-10.55-47.41-4.59-18.87-9.77-37.59-14.71-56.37-.16-.6-.43-1.24-.74-2.12-9.77-27.71-19.07-40.24-29.08-60.68-7.44-15.21-3.38-10.5-14.28-35.08-6.16-13.89-15.23-32.9-14.58-51.38.02-.69,0-2.12.18-3.73,1.55-13.36,3.58-26.69,4.5-40.1.56-8.1.03-16.41-1.11-24.47-1.5-10.57-3.72-21.08-6.34-31.43-1.82-7.2-4.45-14.26-7.41-21.09-4.86-11.21-10.24-22.19-15.46-33.24-3.83-8.12-7.53-16.31-11.67-24.26-7.02-13.47-14.5-26.69-21.52-40.16-8.53-16.37-17-32.78-25.06-49.39-5-10.31-9.82-20.79-13.56-31.59-4.32-12.48-7.17-25.47-10.99-38.13-5.18-17.19-6.51-34.67-5.25-52.5.49-6.93,1.13-14.04.13-20.83-.8-5.48-.36-8.88,4.71-11.79,5.17-2.97,5.82-6.04,3.95-12.07-1.1-3.56-2.59-7.02-3.48-10.62-.7-2.84-1.27-5.89-1.01-8.76.75-8.43,2.7-16.81,2.8-25.23.18-15.85-2.43-31.93-8.93-45.95-11.83-25.53-26.36-49.81-39.75-74.61-3.77-6.99-7.58-13.96-11.24-21-2.18-4.2-4.26-8.47-6.13-12.81-2.32-5.38-4.37-10.88-6.54-16.33,2.68.65,4.77,1.89,6.42,3.56,7.89,7.99,15.54,16.21,23.51,24.13,8.84,8.77,16.16,19.04,26.4,26.45,1.85,1.33,3.3,3.77,4.03,6,5.3,16.09,10.49,32.21,15.47,48.4,2.34,7.61,4.92,15.28,6.03,23.12,2.82,20,4.84,40.11,7.26,60.17.2,1.69.83,3.39,1.59,4.93,1.34,2.73,4,3.31,6.37,2.19,1.43-.68,2.89-2.83,3.01-4.42.24-3.17-.11-6.47-.78-9.6-1.39-6.52-3.54-12.89-4.67-19.44-2.13-12.46-3.19-25.13-5.79-37.48-2.04-9.69-5.76-19.02-8.64-28.54-2.82-9.29-5.55-18.61-8.25-27.94-.16-.54.37-1.27.83-2.69,3.79,3.18,7.64,5.62,10.48,8.93,10.82,12.66,19.43,26.73,23,43.16,2.48,11.43,3.92,23.1,5.39,34.71.34,2.69-.54,5.92-1.86,8.35-3.15,5.76-2.74,11.38-.63,17.18,1.09,3.01,2.34,5.97,3.27,9.02.7,2.29,1.55,4.82,4.22,4.28,1.88-.38,4.22-2.1,4.9-3.8.85-2.1.38-4.83.13-7.25-.28-2.7-1.25-5.35-1.41-8.05-.61-10.45-.62-20.96-1.58-31.37-1.71-18.54-5.56-36.5-16.83-52.01-1.31-1.81-2.05-4.04-3.4-5.82-3.6-4.73-7.01-9.7-11.21-13.86-4.94-4.9-10.66-9.01-15.98-13.55-3.46-2.95-6.1-6.33-4.93-12.35,10.48,7.31,20.52,14.08,30.3,21.2,10.68,7.78,18.76,17.86,24.84,29.56,9.75,18.78,18.58,38.06,29.98,55.96,1.6,2.51,2.77,5.27,4.24,7.87,1.17,2.08,2.48,4.07,3.62,5.93,1.27-.42,1.8-.47,2.18-.74.6-.43,1.13-.98,1.65-1.52,4.89-5.11,4.69-5.08,1.44-11.56-3.05-6.08-6.18-11.95-11.78-16.16-1.32-.99-2.21-2.68-3.04-4.19-7.87-14.47-16.04-28.79-23.4-43.52-6.32-12.67-15.68-22.62-26.74-30.78-9.79-7.23-20.83-12.73-30.97-19.53-3.53-2.37-7.76-5.93-8.61-9.65-2.34-10.22-7.32-19.05-12.46-27.77-6.97-11.81-14.77-23.13-22.15-34.71-.96-1.51-1.53-3.26-2.29-4.9,2.81.36,4.72,1.41,6.32,2.83,8.03,7.1,16.02,14.26,23.95,21.48,4.96,4.51,10,8.96,14.63,13.79,7.76,8.08,15.11,16.55,22.83,24.66,14.63,15.38,30.3,29.87,43.81,46.16,10.28,12.4,18.16,26.85,26.57,40.71,2.91,4.8,4.5,10.48,6.16,15.92,2.46,8.08,4.4,16.32,6.69,24.45.3,1.07,1.42,1.9,2.17,2.85,2.42-.51,4.54-.96,6.76-1.43,3.21,4.75,6.22,9.2,9.2,13.6,8.56-5.16,9.2-8.23,3.99-15.01-2.42-3.15-4.72-6.44-6.76-9.85-4.34-7.27-8.34-14.75-12.74-21.98-3.17-5.21-4.22-10.86-4.7-16.86,1.36.84,2.2,1.93,2.97,3.06,6.19,9.05,12.24,18.21,18.63,27.13,2.3,3.22,5.23,6.06,8.19,8.71,1.84,1.64,4.83,3.15,6.62.6,1.77-2.53,2.78-5.87,3.18-8.98.26-2.09-1.13-4.39-1.92-7.08-2.84,1.3-4.75,2.17-6.66,3.05-5.98-5.9-11.02-11.71-14.97-18.9-7.43-13.52-16.03-26.4-24.31-39.44-3.06-4.82-6.65-9.31-9.92-14-1.86-2.66-3.95-5.25-5.27-8.18-4.67-10.34-11.5-19.25-18.45-28.03-4.16-5.25-9.04-9.97-13.83-14.69-1.9-1.87-5.05-2.61-6.59-4.65-9.66-12.82-22.91-21.37-35.57-30.65-6.43-4.71-11.34-10.77-15.7-17.57,1.5-.36,2.63-.18,3.68.2,8.43,3.08,16.68,6.77,25.3,9.18,20.12,5.62,35.16,18.64,48.85,33.29,9.51,10.18,18.19,21.21,26.5,32.41,10.24,13.82,20.65,27.53,29.13,42.63,5.23,9.31,12.06,17.73,18.3,26.45,2.35,3.28,4.38,5.16,5.82,6.8,22.01,24.99,38.89,53.23,40.06,55.19,5.5,9.27,8.89,15.52,13.1,24.42,10.29,21.77,15.78,44.71,14.9,68.89-.88,24.28-4.33,48.21-10.75,71.69-2.04,7.45-3.54,15.04-5.55,22.49-2.92,10.83-6.44,21.52-9.03,32.42-2.36,9.92-4.02,20.03-5.65,30.11-2.91,18-5.3,36-2.9,54.36,2.45,18.8,3.35,37.81,8.05,56.3,3.75,14.74,6.52,29.8,11.19,44.24,7.05,21.81,15.37,43.2,23.16,64.77,6.35,17.58,14.33,34.62,17.48,53.25,1.58,9.32,4.19,18.62,4.45,27.98.4,14.39-.82,28.82-1.33,43.24-.04,1.24.07,2.5.16,3.74.6,7.97.83,15.99,1.9,23.89,2.01,14.82,3.49,29.76,8.63,44.01,5.25,14.55,10.19,29.21,15.37,43.79.91,2.57,2.23,5.02,3.53,7.43,4.38,8.12,9.59,15.89,13.13,24.35,8.72,20.85,20.67,39.9,32.35,59.05,6.73,11.03,15.37,20.88,23.1,31.31,10.7,14.42,21.69,28.65,31.88,43.43,5.07,7.35,8.58,15.78,12.86,23.68,13.43,24.81,26.92,49.59,37.4,75.86,1.84,4.63,3.9,9.25,6.51,13.47,8.41,13.57,17.03,27.01,25.76,40.38,8.39,12.84,18.81,23.99,30.47,33.83,14.49,12.23,29.4,23.98,44.27,35.77,13.3,10.55,27.33,20.23,40.03,31.44,13.99,12.35,29.75,21.72,45.6,31.22,5.22,3.13,10.03,7.49,13.88,12.23,9.4,11.6,18.17,23.72,27.12,35.69,9.25,12.38,18.94,24.48,27.39,37.38,4.5,6.87,10.9,10.86,17,15.46,3.65,2.75,8.19.04,8.4-4.67.09-1.94-.33-4-.92-5.87-4.06-12.83-8.19-25.64-12.39-38.43-1.01-3.08-2.07-6.22-3.67-9.01-7.22-12.57-9.98-26.58-12.59-40.47-2.24-11.91-5.88-23.3-11.31-33.88-5.32-10.37-12.26-19.93-18.8-29.64-3.61-5.37-7.55-10.59-11.89-15.39-5.7-6.31-11.43-12.54-15.04-20.34-3.03-6.54-5.67-13.26-8.89-19.69-6.22-12.41-7.53-25.73-7.77-39.26-.25-13.96-.29-27.93-.43-41.9-.2-19.71-.47-39.41-.56-59.12-.03-6.46.49-12.92.57-19.38.13-10.21.03-20.43.15-30.64.16-13.18.46-21.21.56-25.4.77-32.4-7.51-66.63-8.25-69.63-7.71-31.21-20.69-57.16-27.4-72.04-2.86-6.35-7.01-12.34-8.65-18.97-5.37-21.68-10.31-37.01-12.43-51.53-5.83-39.87-9.97-68.17-18.36-97.51-2.01-7.01-3.3-11.41-9.57-32.22-3.38-11.22-6.44-22.56-10.36-33.58-3.17-8.92-8.06-17.24-11.04-26.21-3.63-10.96-10.2-20.02-16.97-28.91-8-10.5-17.08-20.18-25.28-30.54-12.31-15.57-28.21-27.42-42.17-41.26-8.47-8.41-17.96-15.85-27.38-23.23-7.82-6.12-15.99-11.87-24.4-17.15-9.29-5.84-19.4-10.4-28.46-16.55-10.67-7.24-20.9-15.2-30.73-23.56-6.42-5.46-12.2-11.84-17.52-18.41-9.62-11.86-17.29-24.97-23.45-38.99-3.91-8.9-8.19-17.54-9.52-27.41-1.22-9.14-3.5-18.14-5.13-27.23-2.14-11.93-2.3-17.06-3.57-26.6-4.13-31.09-6.23-28.82-9.62-55.41-.98-7.65-.18-18.17-6.04-30.52-1.6-3.37-2.53-7.06-4.23-11.97,6.24,4.85,11.4,8.37,15.98,12.54,7.73,7.03,16.46,13.53,22.28,21.96,8.37,12.12,16.33,24.42,26.12,35.53,14.03,15.91,27.19,32.54,42.77,47.1,19.25,17.98,40.45,33.37,62.21,47.96,18.01,12.08,36.86,22.93,53.63,36.81,10.41,8.62,20.3,17.71,27.16,29.62,7.35,12.77,15.29,25.22,22.13,38.26,4.38,8.35,7.43,17.43,10.73,26.31,4.17,11.23,8.05,22.56,11.92,33.89,3.55,10.38,7.26,20.73,10.28,31.28,1.78,6.2,2.94,12.7,3.37,19.13,1.05,15.63,6.16,30.19,10.74,44.93,4.8,15.45,12.53,29.31,22.19,42.23,6.57,8.79,12.75,17.88,19.18,26.78,8.33,11.53,16.7,23.02,25.12,34.49,4.88,6.64,10.24,12.95,14.74,19.83,6.96,10.64,13.4,21.62,20,32.5.89,1.47,1.43,3.17,2.05,4.8,3.11,8.14,6.23,16.27,9.25,24.45,1.21,3.27,2.32,6.59,3.16,9.97,3.74,15.01,7.38,30.04,11.03,45.07,2.12,8.73,4.24,17.46,6.26,26.21,2.3,9.95,4.38,19.95,6.77,29.88,3.04,12.61,7.04,25.03,9.23,37.78,2.06,11.95,5.19,23.34,10.49,34.19,3.17,6.5,6.33,13.01,9.39,19.57,5.36,11.52,10.65,23.07,15.96,34.62,5.4,11.76,13.32,22.21,17.6,34.61,2.1,6.07,5.4,11.78,8.66,17.36,5.87,10.07,9.58,20.63,10.88,32.34.9,8.1,3.62,16.01,5.65,23.98,1.91,7.48,3.88,14.94,6.01,22.36,1.37,4.77,2.4,9.83,4.79,14.08.42.75,7.33,12.93,11.37,12.01,6.91-1.57,3.97-41.16-1.18-110.57-1.84-24.84-2.83-29.18-2.21-39.43.38-6.17.18-12.44-.52-18.59-.68-5.92-2.47-11.71-3.53-17.6-.84-4.65-1.65-9.34-1.89-14.04-.6-11.63-.52-23.31-1.35-34.92-.92-12.97-.92-25.89.09-38.82.96-12.39,2.23-24.77,2.98-37.17.67-11.17.87-22.32,4.3-33.18,1.56-4.93,2.26-10.23,2.62-15.41.62-8.93.66-17.9.94-26.86.19-5.98.74-11.98.51-17.95-.51-13.14-2.15-26.28-1.93-39.39.22-12.77.22-25.47-1.88-38.02-1.81-10.81-3.49-21.86-7.17-32.1-6.73-18.74-14.98-36.94-22.45-55.43-4.76-11.77-11.4-22.73-14.26-35.35-1.31-5.75-3.63-11.53-6.67-16.59-9.33-15.56-15.46-32.44-21.03-49.52-2.36-7.22-3.59-14.84-3.68-23.79-1.7-4.22-3.2-8.81-1.98-9.6,2.8-1.8,15.05,19.22,39.1,40.18,14.48,12.63,36.33,26.25,48.6,34.02,18.24,11.56,20.37,12.06,27.35,18.02,7.71,6.59,16.64,11.77,23.21,19.79.76.93,2.17,1.32,2.99,2.23,5.47,6.09,11.85,11.64,16.06,18.52,8.29,13.54,19.37,23.78,32.41,32.41,9.35,6.18,19.4,11.81,27.32,19.54,18.5,18.07,26.45,25.35,30.11,23.33,6.06-3.34-3.57-32.95-4.55-35.9ZM1736.62,932.68c-1.68-.87-3.49-1.56-5.03-2.63-14.52-10.11-29.21-19.99-43.43-30.5-21.27-15.72-42.04-32.1-63.32-47.8-17.06-12.59-34.24-25.06-51.95-36.7-15.48-10.18-33.07-16.34-50.12-23.42-26.77-11.11-52.97-23.37-77.8-38.42-32.36-19.61-52.75-35.67-58.43-40.41-12.63-10.56-23.01-20.65-27.26-24.84-20.61-20.34-24.35-25.07-41.49-43.17-8.66-9.15-18.42-16.8-29.24-23.18-13.32-7.86-26.53-15.92-39.93-23.65-4.94-2.85-10.33-4.93-15.43-7.53-2.84-1.45-5.64-3.07-8.19-4.97-3.01-2.24-3.39-5.08-1.6-8.57,3.18-6.21,6-12.61,8.98-18.93.32-.68.77-1.31.99-2.01,5-15.61,2.54-21.08-12.55-24.84-10.35-2.58-21.11-3.77-31.76-4.83-13.89-1.37-27.84-2.12-41.78-2.89-6.7-.37-13.45.05-20.14-.37-3.94-.25-7.99-.96-11.69-2.29-10.57-3.79-21.29-7.36-31.36-12.25-6.88-3.34-13.41-7.44-20.59-10.29-13.4-5.32-27.71-6.54-41.7-8.82-15.23-2.48-30.71-3.67-46.12-4.74-20.19-1.4-40.28-3.51-60-8.01-11.58-2.64-22.87-6.64-34.23-10.21-4.74-1.49-9.33-3.46-13.99-5.23-2.1-.8-4.26-1.46-6.25-2.47-14.21-7.23-28.42-14.45-42.54-21.84-13.71-7.18-27.47-14.28-40.9-21.96-7.54-4.32-14.33-9.94-21.68-14.62-14.8-9.43-27.78-21.08-40.86-32.64-5.03-4.44-10.73-8.12-16.12-12.16-2.13-1.6-4.25-3.22-6.37-4.83.19-.65.39-1.3.58-1.95,3.43,0,6.93-.46,10.28.07,9.6,1.51,19.19,3.21,28.69,5.25,4.6.99,8.94,3.16,13.51,4.37,18.56,4.89,37.14,9.7,55.78,14.31,4.08,1.01,8.4,1.03,12.59,1.64,22.17,3.25,44.12,7.75,66.48,9.97,21.06,2.09,42.02,5.44,62.93,8.82,6.77,1.09,13.53,2.23,20.29,3.39,22.61,3.88,42.14,7.3,57.83,10.15,27.31,4.96,40.96,7.44,59,11.1,36.64,7.43,49.48,11.08,63.06,16.26,12.73,4.86,23.27,9.87,27.25,11.95,12.32,6.45,23.98,14.17,36.28,20.65,9.92,5.22,18.3,12.72,28.65,17.49,8.19,3.77,15.01,10.63,22.24,16.38,12.54,9.97,19.01,14.7,24.81,20.43,2.83,2.79,9.26,10.31,21.99,25.23,7.19,8.42,10.87,12.57,12.5,14.76,7.28,9.82,13.76,20.24,21.32,29.83,9.99,12.68,23.38,30.77,52.64,65.16,25.46,29.91,35.15,39.6,49.61,48.48,7.87,4.83,5.73,2.95,15.25,9.11,27.58,17.85,35.78,30.94,62.19,47.4,2.48,1.55,4.4,2.57,10.79,6.64,15.77,10.03,23.67,15.02,27.65,17.59,31.97,20.68,34.07,24.05,55.79,36.94,6.22,3.69,10.08,6.75,17.75,10.84,9.76,5.21,17.84,12.6,26.31,19.5,10.78,8.79,22.13,17,32.17,26.57,9.5,9.06,20.44,16.7,27.97,27.88,3.59,5.32,8.71,9.58,12.94,14.5,2.8,3.25,5.24,6.8,7.84,10.22-.36.37-.73.73-1.09,1.1ZM1024,624.4c7.84-3.55,12.92-9.95,18.38-16.1,9.59-10.81,18.81-22.02,29.12-32.11,11.36-11.13,23.77-21.18,35.71-31.71,1.11-.98,2.1-2.08,3.75-3.72,2.7,5.18,4.59,8.92,6.57,12.6,2.1,3.89,4.27,7.74,6.43,11.6.24.43.71.78.83,1.24,3.31,12.41,9.93,23.85,10.97,36.92.26,3.22.38,6.49.14,9.71-.45,6.1-2.22,7.92-8.24,8.48-21.55,2.02-43.12,3.88-64.67,5.92-14.12,1.34-28.22,2.88-42.34,4.32-1.89.19-3.8.29-7.34.55,4.44-3.26,7.27-6.14,10.7-7.69ZM993.17,622.09c-5.94-.47-11.95-.09-17.87-.69-6.91-.71-13.72-2.33-20.62-3.09-10.39-1.15-20.85-1.73-31.25-2.85-21.68-2.33-43.01-5.81-61.28-19.2-8.23-6.03-17.16-11.18-24.94-17.72-6.63-5.57-11.85-12.79-18.07-18.9-15.1-14.84-30.13-29.78-45.79-44.02-6.92-6.29-13.73-12.81-22.38-17.33-7.37-3.86-13.58-10.03-20.1-15.43-9.6-7.95-18.98-16.18-28.52-24.2-10.29-8.66-20.72-17.15-30.96-25.87-4.3-3.66-8.35-7.61-12.37-11.57-20.16-19.86-42.65-36.76-65.99-52.66-9.24-6.3-17.89-13.45-27.03-19.89-5.07-3.57-10.88-6.09-15.87-9.74-13.26-9.69-26.27-19.73-39.35-29.66-8.91-6.77-17.81-13.57-26.66-20.41-2.93-2.26-5.72-4.7-8.58-7.06.29-.51.58-1.01.88-1.52,10.76,8.08,23.88,11.53,34.88,19.69,9.22,6.84,20.68,10.74,31.32,15.56,9.75,4.42,19.62,8.61,29.65,12.35,6.98,2.61,14.19,4.86,21.48,6.31,22.52,4.49,45.14,8.48,67.71,12.75,7.95,1.51,15.2,4.74,21.81,9.43,10.17,7.21,20.57,14.12,30.48,21.68,6.91,5.27,12.92,11.7,19.78,17.05,7.07,5.51,14.62,10.42,22.05,15.45,8.23,5.58,16.28,11.49,24.9,16.39,14.95,8.49,30.23,16.4,45.47,24.37,8.13,4.25,16.42,8.22,24.72,12.13,17.17,8.1,34.65,15.6,53.13,20.05,13.19,3.17,26.68,5.25,40.15,7.04,13.82,1.84,27.77,2.62,41.64,4.08,24.59,2.58,48.96,6.41,72.53,14.16,4.92,1.62,9.49,4.31,14.22,6.52,2.25,1.06,4.41,2.34,6.73,3.2,8.86,3.28,17.77,6.42,26.65,9.67.86.32,1.59,1,3.02,1.93-10.74,8.31-17.96,19.53-29.5,26.42-5.9,3.52-11.1,8.57-15.78,13.69-9.92,10.85-19.1,22.37-28.92,33.32-10.97,12.22-24.12,19.96-41.36,18.58ZM1123.96,538.35c8.01-6.58,16.4-4.81,24.48-4.39,16.91.88,33.84,1.71,50.71,3.13,7.55.63,15.4.32,22.39,4.57,5.14,3.12,5.94,4.23,4.36,10.21-.38,1.44-.76,2.94-1.47,4.23-6.64,11.96-12.54,24.35-21.71,34.78-7.59,8.64-16.47,15.33-27.33,18.98-9.87,3.31-19.99,5.9-29.82,8.76-1.06-11.19-1.37-20.92-3.1-30.39-1.23-6.74-4.08-13.26-6.75-19.66-2.96-7.09-6.75-13.83-9.74-20.9-1.29-3.05-1.46-6.56-2.03-9.32ZM1023.48,642.07c10.9-1.58,21.7-2.52,32.74-2.47,10.14.05,20.3-1.57,30.43-2.61,3.95-.41,7.86-1.25,11.8-1.86,13.27-2.06,26.57-3.93,39.8-6.2,10.05-1.72,20.16-3.39,29.98-6.07,12.34-3.36,23.93-8.56,32.86-18.32,4.7-5.14,9.51-10.19,14.28-15.28,3.13,3.14,5.7,6.57,9.05,8.86,3.64,2.48,7.95,4.01,12.05,5.76,20.02,8.57,38.48,19.91,56.44,32.05,7.61,5.14,14.6,11.03,20.81,18.09,9.7,11.03,20.54,21.04,30.85,31.53,1.87,1.9,3.51,4.02,6.32,7.27-6.34-1.57-11.05-2.62-15.69-3.91-10.1-2.8-20.31-5.31-30.22-8.67-18.4-6.23-36.88-12.18-54.76-19.99-13.24-5.78-27.49-8.17-42.28-8.21-32.98-.1-64.89,7.01-97.1,12.47-17.67,3-35.21,7.07-53.3,7.42-10.45.2-20.88,1.67-31.32,1.76-15.16.13-30.33-.42-45.49-.79-6.68-.16-13.36-.78-20.04-.88-9.94-.15-19.18-3.48-28.27-6.74-5.48-1.96-10.26-6-15.16-9.39-5.54-3.83-10.88-7.95-16.25-12.02-.68-.52-1.02-1.48-2.08-3.07,2.07.21,3.32.05,4.3.49,15.78,7.03,23.66,4.73,33.04,6.34,17.69,3.02,33.87.35,45.47-1.56,4.82-.79,6.75-1.71,12.82-2.15,9.64-.71,19.4-.47,28.93-1.85ZM244.21,529.63c-.57.18-1.47.45-2.58.72-4.44,1.08-15.62,2.99-39.97-7.16-4.11-1.71-7.89-3.59-15.45-7.36-31.41-15.63-33.45-20.46-33.11-23.22.15-1.24.6-2.22,1.95-3.45,6.4-5.91,12.57-12.06,19.04-17.89,17.33-15.61,37.75-21.63,60.8-19.18.98.1,1.95.44,2.88.78.43.16.76.6,1.34,1.09.99,4.28-1.26,8.1-2.6,12.03-3.91,11.48-3.3,17.89-2.37,22.02,1.59,7.04,5.13,7.95,9.57,20.87.72,2.08,1.68,3.96,1.64,6.43-.08,4.66-.71,9.31-1.15,14.31ZM258.96,526.09c-.67-2.8-1.26-5.15-1.78-7.52-1.25-5.65-2.99-11.05-6.63-15.71-11.86-15.17-5.77-32.04.71-44.24,1.34-2.52,3.5-3.23,6.33-2.59,5.11,1.14,10.41,1.63,15.39,3.17,15.23,4.71,30.98,4.94,46.65,6.02,17.9,1.24,35.81,2.38,53.67,4.12,2.58.25,13.94-.21,28.93-1.85,22.18-2.42,33.28-3.63,45.74-9.04,13.95-6.06,17.89-10.45,31.35-18.69,4.66-2.85,9.03-6.17,13.42-9.42,1.37-1.01,2.76-2.29,3.54-3.77,4.46-8.44,8.73-16.98,13.33-26,3,2.64,4.54,6.34,5.21,10.49.15.92.1,2.17-.41,2.85-5.84,7.64-11.75,15.23-17.73,22.76-7.69,9.68-17.91,16.89-24.69,27.71-5.85,9.34-14.45,16.97-21.84,25.34-10.7,12.11-19.15,24.86-21.09,41.91-1.27,11.14-6.62,21.86-10.45,32.65-1.33,3.75-4.2,4.79-7.9,2.92-6.61-3.34-12.86-7.88-14.01-15.54-1.57-10.48-5.73-18.98-14.11-25.44-.57-.44-.97-1.12-1.76-2.06,1.45-1.43,2.44-2.83,3.8-3.67,6.15-3.79,12.47-7.31,18.6-11.14,2.93-1.83,5.55-4.16,8.33-6.25,8.57-6.44,17-13.07,25.75-19.24,17.3-12.21,25.61-14.45,24.95-16.53-1.09-3.44-24.45.52-38.25,3.68-11.05,2.53-10.09,2.13-18.65,4.81-12.55,3.93-25.2,3.94-38.09,2.33-9.95-1.24-9.88-.71-17.86-.58-13.47.21-20.2.31-27.17,3.09-3.95,1.58-11.03,5.86-22.13,17.38-5.59,5.8-11.89,10.43-17.97,15.5-6.95,5.79-14.93,8.62-23.17,12.53ZM349.67,460.06c-6.28-.47-10.97-.83-15.66-1.18-3.45-.26-4.55-2.75-5.03-5.58-1.36-7.95-1.81-11.96-1.78-12.57.31-6.08-.76-20.53-3.67-46.76,8.71,22.03,17.43,44.06,26.14,66.08ZM300.38,312.74c-4.1-10.25-8.05-18.97-11.41-27.61-7.13-18.33-13.71-36.84-23.54-54.04-4.67-8.17-7.76-17.25-11.63-25.89-1.72-3.84-3.61-7.6-6.22-13.07,3.89,1.45,6.44,2.44,9.02,3.35,7.05,2.49,14.24,4.65,21.15,7.48,9.62,3.94,19.31,7.85,28.47,12.72,11.78,6.27,24.66,9.43,36.82,14.44,19.53,8.03,39.17,16.19,56.05,29.52,11.13,8.79,22.99,16.68,33.95,25.67,5.9,4.83,10.61,11.12,15.84,16.76.85.91,1.59,1.93,2.47,2.81,15.1,14.94,25.57,33.12,35.92,51.38,3.2,5.64,6.19,11.41,9.32,17.09,6.2,11.25,4.51,22.44.07,33.75-3.46,8.8-8.54,16.29-16.21,21.91-1.81,1.32-3.66,2.57-5.51,3.84-3.88,2.68-7.75,5.36-11.66,8-2.27,1.54-4.5,3.17-6.91,4.46-5.49,2.93-10.94,6.01-16.67,8.39-3.84,1.6-8.1,2.4-12.25,3.04-8.84,1.37-17.8,2.02-26.59,3.66-14.04,2.63-27.96,3.08-41.31-.17-.58-2.51-1.5-6.33-2.79-10.92-9.05-32.09-19.33-41.66-32.35-70.24-10.21-22.41-6-21.17-24.04-66.32ZM337.26,576.92c2.72-6.49,9.6-17.22,14.09-24.32,2.64-4.17,6.27-7.71,9.47-11.52.96-1.14,2.03-2.2,2.99-3.34,2.14-2.54,3.18-6.75,7.76-5.72,4.76,1.07,9.07,3.21,11.19,7.91,1.42,3.16,2.67,6.54,3.15,9.94,1.55,10.98,8.32,17.71,17.48,22.74,2.37,1.3,4.65,2.75,7.36,4.36-2.93,5.62-7.55,9-11.58,12.85-2.51,2.39-5.12,4.71-7.9,6.76-6.18,4.58-12.34,9.24-18.81,13.38-7.23,4.62-13.03,10.59-18.75,16.88-4.58,5.03-8.94,10.68-17.07,13.17-1.07-4.15-9.6-38.69.62-63.08ZM331.29,493.98c-.06-1.86-.15-6.04,2.55-8.45,1.74-1.55,4.47-2.02,8.54-1.6,7.37.77,14.88-.56,22.19,2.12,2.82,1.03,6.41-.2,9.64-.1,5.21.15,10.42.9,15.61.73,4.15-.13,8.38-.84,12.37-1.98,9.06-2.6,17.65-7,28-6.37-24.23,19.7-41.11,30.98-53.08,37.97-3.12,1.91-14.61,9.13-28.54,23.89-4.04,4.28-9.2,10.16-14.68,17.65,0,0-1.55-33.77-2.6-63.87ZM360.03,630.31c4.54-4.86,9.89-9.07,15.31-12.98,8.45-6.1,17.27-11.7,26.7-18.04,5.45,14.81,12.97,29.32,14.57,46.56-6.96,2.55-13.92,5.12-20.9,7.65-3.51,1.27-7.07,2.38-10.55,3.72-7.37,2.82-14.71,5.73-21.75,8.49-8.63-11.31-10.72-27.54-3.38-35.4ZM413.42,603.25c-2.67-8.27-1.71-16.23,5.58-22.37,1.3-1.1,2.65-2.48,3.24-4.02,4.06-10.61,9.89-20.47,12.41-31.77,2.11-9.46,4.92-18.83,8.26-27.94,3.26-8.9,8.41-16.62,15.23-23.61,10.07-10.32,18.89-21.84,28.46-32.67,3.92-4.44,8.45-8.35,12.6-12.6,2.08-2.13,4.14-4.34,5.86-6.75,4.15-5.82,8.1-11.78,12.39-18.08,4.92,4.6,5.6,10.24,6.05,15.92.18,2.22.06,4.48-.11,6.71-.87,11.16-1.28,22.38-2.78,33.48-4.17,30.97.1,41.91-6.5,73.77-2.15,10.36-5.2,21.71-12.3,34.07-3.24,5.63-7.03,10.99-11.4,16.03-9.98,11.54-21.71,21.43-35.12,28.77-8.4,4.61-17.7,7.59-26.01,11.05-1.37-1-1.99-1.21-2.13-1.6-4.65-12.78-9.56-25.48-13.74-38.41ZM199.12,659.76c11.05-1.66,22.11-3.3,33.19-4.72,7.4-.94,14.85-1.49,22.28-2.18,13.15-1.22,25.77.96,37.84,6.2,1.97.85,3.64,2.39,6.03,4-38.32.16-75.59.31-113.31.46,4.23-3.55,9.3-3.06,13.97-3.76ZM288.16,682.63c-28.01.03-49.99,1.77-81.11,7.26-19.6,3.45-39.55,5.48-59.43,6.55-12.1.65-24.36-1.71-36.54-2.8-.73-.07-1.4-.92-2.57-1.74,13.4-10.2,25.18-14.05,33.52-15.67,10.36-2.02,11.6.14,41.15-2.06,7.56-.57,12.43-.98,20.91-1.22,7.13-.2,14.15-.69,21.44.28,8.13,1.08,16.66-1.07,25.02-1.3,5.02-.14,10.06.75,15.1,1.08,15.96,1.02,19.74,1.02,26.93,1.61,19.4,1.6,38.41,7.03,38.16,8.81-.22,1.65-16.91-.81-42.57-.78ZM298.92,723.54c13.45-5.51,27.1-10.53,41.87-16.23-1.53,5.42-4.24,8.55-8.22,11.06-13,8.2-27.44,13.04-41.79,18.01-8.22,2.85-16.74,4.87-25.17,7.1-1.73.46-3.66.21-5.7-.48,12.17-8.37,25.6-13.95,39.01-19.45ZM224.75,768.63c2.19-5.07,5.98-7.98,10.98-9.13,11.41-2.62,23.04-4.4,34.27-7.6,12.86-3.67,25.42-8.45,38.06-12.85,4.89-1.7,9.79-3.45,14.49-5.62,6.96-3.23,13.74-6.85,21.85-10.92.54,2.71.95,4.75,1.31,6.58-21.98,12.33-107.49,40.33-120.96,39.56ZM302.58,641.43c-1.7-1.04-3.53-1.96-5.01-3.26-7.29-6.4-15.58-10.47-25.14-12.53-7.02-1.51-13.73-4.41-20.69-6.31-3.26-.89-6.77-.85-10.99-1.33.63-2.55.67-4.65,1.62-6.19,4.29-7,5.21-14.77,6.36-22.67.74-5.08,2.99-10.01,4.97-14.84,3.67-8.94,8.76-17.06,13.8-25.31,4.03-6.6,8.97-12.42,13.02-18.88,6.79-10.84,18.08-16.98,26.41-26.17,3.35-3.69,6.96-7.16,10.6-10.57,1.69-1.58,3.74-2.77,6.82-4.99.44,8.51.69,15.42,1.16,22.31.82,11.93,1.71,23.86,2.72,35.78.53,6.2,1.38,12.37,2.08,18.56.27,2.4.04,4.65-.79,6.72-.84,2.07-2.04,3.37-2.32,3.69-5.59,6.39-6.87,40.14-3.04,64.81.17,1.11.68,3.33,2.34,5.35,3.34,4.06,9.45,5.29,14.68,2.29,2.34-1.34,4.76-2.54,7.23-3.84,1.98,5.81,4.32,10.97,5.44,16.37,1.62,7.86,2.66,8.53-7.48,12.6-12.38-13.44-28.33-22.17-43.78-31.6ZM327,783.65c-8.37,2.38-16.48,5.64-24.82,8.14-13.16,3.94-23.67,12.58-35.26,19.31-3.98,2.31-7.91,4.72-11.87,7.08-.29-.46-.59-.91-.88-1.37,5.66-4.13,11.29-8.31,17-12.38,8.72-6.2,17.27-12.69,26.33-18.34,7.36-4.59,15.13-8.71,23.15-11.99,8.22-3.36,16.94-5.58,25.5-8.07,8.13-2.36,11.5-.28,14.38,9.19-2.95.87-5.89,1.86-8.9,2.59-8.2,1.98-16.52,3.55-24.63,5.85ZM184.42,924.03c-.39-.46-.78-.92-1.17-1.38,4.65-4.61,9.33-9.17,13.93-13.83,5.75-5.84,11.79-11.45,17.02-17.73,4.86-5.85,10.48-8.96,18.08-8.71,2.44.08,4.9-.42,7.35-.65-15.18,18.61-35.96,29.4-55.21,42.31ZM264.5,863.01c-5.9,6.91-13.24,9.39-22.02,8.55-1.22-.12-2.46-.03-4.61-.03,1.14-1.77,1.74-3.34,2.85-4.32,4.48-3.95,8.89-8.04,13.74-11.49,11.16-7.93,22.4-15.78,33.93-23.18,14.22-9.13,28.72-17.82,43.17-26.58,9.56-5.79,19.22-11.41,28.89-17.02,1.65-.96,3.56-1.46,6.08-2.46,2.78,5.91,5.07,10.79,7.73,16.45-2.9.86-5.15,1.73-7.48,2.2-13.17,2.66-24.99,8.38-36.29,15.45-19.24,12.04-38.56,23.94-57.79,36-2.94,1.84-5.99,3.84-8.2,6.44ZM366.08,850.63c-3.39,3.64-7.29,6.83-10.4,10.68-10.63,13.16-25.72,19.27-40.4,26.06-.43.2-.99.23-1.46.16-.45-.07-.86-.39-1.28-.6,3.38-10.12,46.01-43.89,64.17-50.57-2.15,6.21-6.69,10.05-10.62,14.28ZM277.29,865.18c3.35-2.48,6.57-5.18,10.09-7.41,16-10.15,31.96-20.38,48.19-30.16,11.6-6.99,24.24-11.51,37.77-13.29,3.07-.4,3.06-.44,7.17,2.23-11.31,10.77-82.74,48.37-103.2,48.63ZM399.79,839.1c3.26,2.39,3.23,6.67,3.61,10.24,1.41,13.15,1.18,26.34-.28,39.49-.3,2.67-.76,5.31-3.63,6.95-8.35,4.77-16.57,9.78-25.93,15.34,8.93-24.54,17.5-48.06,26.22-72.02ZM410.35,904.71c6.4-3.97,12.54-8.03,20.31-8.51,3.15-.19,6.29-.49,9.44-.73.25.68.51,1.35.76,2.03-4.31,3.25-8.49,6.68-12.95,9.7-8.04,5.45-16.59,10.2-24.28,16.09-10.51,8.06-19.19,18.04-27.26,28.56-4.55,5.93-9.48,11.56-14.29,17.29-8.46,10.06-16.95,20.09-25.73,29.86,4.97-9.4,9.53-19.04,15-28.14,6.65-11.06,12.98-22.61,21.39-32.25,11.07-12.69,22.99-24.83,37.6-33.9ZM481.67,794.68c7.99,19.87,11.71,40.71,10.74,62.19-.15,3.25-2.07,6.49-3.46,9.6-3.45,7.7-8.39,12.23-17.95,12.38-8.04.13-15.98,3.56-24.04,5.19-10,2.02-20.05,3.81-30.12,5.45-3.63.59-5.93-1.95-5.46-6.02,1.87-15.98.82-31.83-2.13-47.56-.69-3.71,1.29-5.64,3.53-7.61,9.4-8.27,17.83-17.44,24.76-27.84,5.36-8.04,10.36-16.27,13.3-25.73,2.26-7.27,6.07-14.06,9.83-22.5,2.01,3.08,3.11,4.42,3.84,5.94,5.81,12.13,12.17,24.04,17.18,36.5ZM467.31,732.64c2.94-7.15,5.79-14.35,8.5-21.6,4.36-11.67,8.17-23.57,12.93-35.07,5.04-12.17,10.7-24.1,16.48-35.94,5.01-10.28,11.19-20.02,15.69-30.51,4.12-9.6,6.53-19.91,9.98-29.81,2.7-7.76,5.91-15.33,8.72-23.05,1.28-3.5,2.11-7.16,3.21-10.73,1.93-6.3,3.91-12.59,5.86-18.89.48.05.97.1,1.45.14.38,1.08.88,2.13,1.11,3.24,5.5,27.65,10.64,55.38,16.55,82.95,5.58,26.03,7.27,52.2,6.81,78.8-.32,18.47-2.38,36.29-8.45,53.69-4.15,11.89-10.2,22.74-17.67,32.81-8.47,11.41-17.29,22.56-25.56,34.11-5.64,7.88-10.58,16.26-15.85,24.41-1.44,2.22-2.92,4.42-4.39,6.62-.55-.1-1.09-.21-1.64-.31-.29-2.84-.48-5.69-.88-8.52-.7-4.91-1.34-9.83-2.34-14.68-.81-3.9-2.56-7.63-3.11-11.55-.96-6.84-3.3-13.18-7.15-18.7-2.66-3.82-3.48-8.1-5.22-12.15-4.41-10.29-8.58-20.76-13.98-30.53-2.9-5.26-3.16-9.59-1.04-14.75ZM499.92,905.52c7.98,4.74,8.5,5.98,7.09,12.98-3.15,15.57-9.75,29.63-19.04,43.48,4.04-19.08,7.91-37.36,11.95-56.47ZM405.13,1047.59c-.1-1.82.61-4.18,1.81-5.5,3.8-4.17,8.01-7.96,12.86-12.68-1.37,13.5-2.37,25.37-3.92,37.16-.39,2.96-2.02,6.15-4.02,8.4-2.89,3.26-6.64,5.75-10.28,8.78-2.39-2.8-1.75-5.22-1.08-7.54,2.71-9.35,5.18-18.71,4.62-28.62ZM403.61,1030.86c.28-10.34,1.67-19.99,5.87-29.18,2.57-5.62,4.44-11.63,5.94-17.64,1.72-6.88,4.57-13.05,8.39-19.02,8.18-12.8,15.88-25.9,23.83-38.84,6.18-10.07,13.13-19.44,24.02-24.99,1.03-.52,2.2-.76,5.19-1.77-3.54,5.88-5.74,10.53-8.85,14.49-9.97,12.71-16.81,27-22.39,42.01-6.34,17.03-12.33,34.19-19.23,50.99-4.34,10.58-13.88,16.97-22.76,23.96ZM480.89,912.09c-9.21,24.35-20.88,47.44-35.45,69.04,2.29-17.68,23.34-58.73,35.45-69.04ZM426.61,1038.48c1.04-6.39,2.7-12.71,4.61-18.91.92-2.99,2.6-5.99,4.66-8.35,7.95-9.09,14.23-19.19,19.8-29.86,3.8-7.28,8.7-13.99,12.43-21.31,5.76-11.29,10.92-22.89,16.42-34.32.47-.99,1.54-1.69,2.53-2.74,5.3,23.27-40.29,123.76-62.49,136.69.69-7.56.94-14.46,2.04-21.21ZM258.06,1066.42c.32-2.22,1.15-4.4,1.2-6.62.25-11.51,6.39-19.5,15.02-26.22,11.5-8.95,21.07-19.85,28.73-32.11,5.21-8.34,12.45-14.5,18.8-21.62,4.62-5.17,8.52-10.98,12.76-16.5,1.06-1.38,1.99-2.97,3.34-3.98,5.49-4.11,9.83-9.19,12.92-15.25,2.7-5.29,7.21-7.72,13.75-9.22-1.45,2.48-2.46,4.34-3.59,6.13-6.81,10.73-14.24,21.11-20.35,32.22-8.25,15.02-15.49,30.6-23.17,45.93-.89,1.77-1.53,3.81-2.85,5.18-15.23,15.79-30.25,31.83-48.89,43.82-1.68,1.08-3.4,2.09-5.18,2.98-.6.3-1.43.15-2.8.25.1-1.8.09-3.43.32-5.02ZM302.67,1699.82c-.57.05-1.15.09-1.72.14-2.15-6.01-5.13-11.86-6.3-18.06-2.73-14.46-8.77-27.33-15.99-40-4.03-7.06-6.13-15.23-9-22.94-5.31-14.27-10.53-28.57-15.83-42.85-9.73-26.26-16.8-53.2-20.97-80.9-1.63-10.84-4.38-21.59-5.1-32.49-1.04-15.61-2.21-31.37,2.02-46.84,1.25-4.57,2.27-9.25,2.81-13.95.36-3.15.19-6.54-.6-9.6-5.18-20.02-10.74-39.94-15.89-59.97-6-23.32-8.14-47.15-8.99-71.14-.12-3.49-.43-6.97-.54-10.46-.54-17.33,1.23-34.34,6.84-50.88,1.98-5.84,2.67-10.13,4.56-16.61,14.44-49.42,26.37-69.69,29.55-81.32.41-1.5,2.48-5.79,5.2-11.61.41-.87.96-1.87,1.73-2.36,10.35-6.52,19.27-14.75,28.31-22.89,6.95-6.26,14.29-12.09,22.55-19.03-1.35,2.81-2.06,4.52-2.96,6.12-3.07,5.43-6.17,10.84-9.32,16.22-1,1.7-1.97,3.5-3.32,4.9-6.76,6.99-13.55,13.96-20.55,20.7-1.48,1.42-3.91,1.82-5.85,2.79-2.64,1.32-5.62,2.29-7.78,4.18-5.74,5.03-5.26,8.49,2.13,14.24,3.4-2.7,6.96-5.63,10.64-8.4,1.95-1.47,4.01-2.88,6.2-3.93,4.6-2.22,8.56-4.94,10.91-9.75,1.07-2.2,2.66-4.31,4.48-5.94,10.71-9.62,15.19-23.25,22.75-34.89,1.08-1.66,2.32-3.23,3.27-4.96,2.39-4.36,5.45-8.56,6.75-13.24,1.6-5.74,4.17-10.55,8.05-14.94,8.27-9.34,16.54-18.7,24.53-28.28,7.34-8.79,15.08-17.39,21.23-26.98,6.28-9.8,13.7-18.33,22.27-25.95,4.58-4.08,9.81-7.44,16-12.06-.37,3.02,0,5.05-.83,6-6.62,7.51-9.04,17.11-13.31,25.79-3.06,6.22-6.48,12.31-10.26,18.12-16.6,25.53-33.65,50.76-49.99,76.46-9.72,15.29-22.28,28.19-33.69,42.05-2.3,2.8-6.69,3.88-8.64,4.95-4.37-1.65-7.62-4.11-10.32-3.6-3.9.73-3.53,5.51-4.34,8.79-.88,3.54-.57,6.91,2.72,9.44,3.5,2.7,7.38,3.64,11.16,1.4,3.8-2.25,7.61-4.84,10.57-8.05,5.57-6.04,10.62-12.58,15.7-19.06,1.75-2.24,2.92-4.93,5.41-7.23-.15,1.53.06,3.22-.52,4.58-2.53,5.95-4.86,12.05-8.06,17.64-5.9,10.34-12.4,20.34-18.52,30.56-.99,1.66-1.27,3.74-1.91,5.61-2.68,7.79-1.91,9.12,6.84,11.23,3.54-3.65,6.28-7.1,4.99-13.43-.72-3.53,2.02-8.03,3.85-11.79,5.77-11.85,12.11-23.43,17.7-35.36,3.69-7.86,5.84-16.48,9.79-24.18,6.71-13.06,14.14-25.77,21.59-38.44,3.9-6.63,8.43-12.89,12.76-19.26,1.1-1.62,2.51-3.02,4.99-3.93-3.06,7.88-5.95,15.82-9.21,23.61-4.03,9.66-8.73,19.06-12.48,28.82-5,13.04-9.39,26.31-13.98,39.5-1.31,3.77-2.3,7.65-3.59,11.43-1.15,3.36-2.43,6.16-6.99,6.57-4.45.39-5.68,4.62-3.07,8.33,3.81,5.41,11.37,4.5,14.53-2.09,2.14-4.48,3.6-9.3,5.19-14.02,4.64-13.7,9.2-27.43,13.77-41.15,2.37-7.1,4.33-14.37,7.13-21.29,3.84-9.46,8.54-18.57,12.42-28.01,3.31-8.05,5.66-16.49,9.01-24.52,3.63-8.72,7.33-17.51,12.14-25.6,3.42-5.75,8.71-10.38,13.17-15.51.5.31,1,.62,1.5.94-.84,1.83-1.41,3.88-2.58,5.47-10.98,14.93-14.87,32.51-18.9,50.06-1.39,6.07-3.17,12.06-4.38,18.16-.76,3.85-.59,7.87-1.24,11.75-.43,2.57-1.09,5.32-2.49,7.44-2.19,3.31-4.89,6.35-7.72,9.15-16.59,16.42-25.11,36.9-30.06,59.2-.6,2.68-1.4,5.37-1.54,8.09-.16,3.07.34,6.18.55,9.27,8.25-.72,13.95-8.21,12.54-14.82-.6-2.82-1.29-6.07-.48-8.66,4.98-15.8,11.57-30.86,22.6-43.53,1.57-1.8,3.66-3.15,6.91-5.89-.46,3.73-.62,5.79-.98,7.83-1.55,8.83-2.99,17.68-4.84,26.45-.65,3.06-1.81,6.32-3.7,8.73-3.03,3.87-7.29,6.8-10.22,10.72-1.94,2.61-3.14,6.21-3.46,9.48-.35,3.52,5.31,5.42,8.81,2.79,2.08-1.56,3.61-4.06,4.92-6.4,2.64-4.7,4.01-10.3,10.56-11.61,1.17-.23,2.18-2.53,2.8-4.06,1.99-4.87,5.86-7.5,11.72-10.69-1.05,5.61-3.05,15.06-6.75,26.38-10.18,31.13-21.3,40-39.53,79.09-5.11,10.95-11.93,23.14-16.34,40.93-4.2,16.95-7.73,34.07-11.08,51.21-1.29,6.57-1.17,13.41-1.87,20.11-1.46,13.89-2.23,27.91-4.78,41.6-3.37,18.11-7.96,36.01-12.44,53.9-2.79,11.12-6.14,22.12-9.6,33.06-3.39,10.71-7.37,21.23-10.85,31.91-1.46,4.49-2.72,9.14-3.3,13.81-1.19,9.61-2.12,19.23-2.63,28.94-.62,11.74-.5,23.39-.16,35.07.32,10.98.71,21.97,1.69,32.9,2.47,27.57,5.35,55.1,7.92,82.66.95,10.16,1.6,20.35,2.21,30.54.15,2.52-.38,5.08-.6,7.62ZM501.93,1103.71c-.53,4.95-1.39,10.01-.87,14.88,1.15,10.68-1.63,20.26-6.44,29.51-3.43,6.6-6.9,13.18-10.28,19.8-1.14,2.23-1.03,4.35,1.2,5.97,1.2.87,2.4,1.73,4.3,3.11-1.13,3.09-2.01,6.43-3.55,9.43-1.7,3.31-3.75,6.52-6.1,9.41-14.41,17.74-22.46,38.61-30.33,59.71-3.54,9.5-8.9,18.4-14.07,27.21-5.26,8.96-8.99,18.46-11.09,28.5-8.21,39.22-12.91,51.62-20.08,70.56-10.38,27.42-17.26,18.43-49.83,68.79-25.42,39.3-32.32,61.91-34.88,71.36-5.58,20.54-7.05,38.92-7.15,40.47-1.31,19.63-.51,39.4-.95,59.11-.17,7.7-1.15,15.4-2.02,23.07-.71,6.18-1.82,12.32-3.79,18.66-.98-5.85-2.34-11.67-2.89-17.56-2.59-28.08-5.24-56.16-7.3-84.28-1.03-14.15-1.69-28.42-.96-42.56.64-12.38,2.73-24.82,5.48-36.94,3.64-16.04,8.04-31.94,13.01-47.62,7.39-23.3,13.95-46.73,18-70.88,3.26-19.47,5.49-39.01,7.51-58.63,1.6-15.56,5.64-30.88,8.89-46.24,1.57-7.42,2.7-11.35,3.27-13.48,2.75-10.35,6.34-23.63,12.98-37.5,3.49-7.28,6.41-11.78,9.89-17.4,25.37-40.91,37.57-61.42,39.71-76.99,1.14-8.3,4.57-19.17,8.91-34.03.93-3.18,3.52-5.91,5.53-8.71,5.64-7.86,11.39-15.65,17.06-23.49,1.46-2.01,2.62-4.26,4.23-6.13,9.59-11.09,15.86-24.07,21.37-37.46,2.32-5.62,4.27-11.4,6.38-17.1.48.18.96.36,1.43.54-1.94,5.26-4.1,10.45-5.78,15.79-3.13,9.98-6.37,19.94-8.84,30.09-4.08,16.74-7.42,33.73-14.52,49.51-8.49,18.88-17.56,37.49-26.48,56.18-2.84,5.94-2.65,9.12,1.13,10.88,3.99,1.85,7.86-.65,9.61-6.63,3.86-13.22,9.42-25.69,15.38-38.09,10.14-21.08,17.79-42.94,21.72-66.29,2.24-13.33,8.38-26.02,12.82-38.97.89-2.59,2.05-5.08,3.12-7.6,3.59-8.5,7.18-17,10.81-25.48,5.49-12.83,10.99-25.66,16.53-38.47,1.23-2.85,2.68-5.6,4.03-8.39.55.14,1.11.28,1.66.41-.04,1.79.28,3.67-.17,5.34-4.79,17.58-9.31,35.25-14.71,52.65-4.13,13.33-9.65,26.22-14.12,39.44-4.55,13.47-8.26,27.23-12.96,40.64-2.73,7.79-4.64,15.7-6.47,23.71-4.59,20.04-12.17,39.01-22.26,56.89-4.42,7.84-9.56,15.33-14.97,22.53-3.71,4.92-8.51,9.02-12.75,13.55-3.25,3.49-3.73,6.27-1.65,8.4,2.43,2.48,7.13,1.85,9.82-1.76,2.37-3.19,4.35-6.69,6.24-10.19,1.27-2.36,3.21-3.28,3.67-3.68,3.68-3.2,14.39-20.2,39.57-66.61-.25,6.33-.94,15.04-2.86,25.28-.8,4.29-1.72,7.38-2.24,10.25-2.55,13.88-7.6,26.86-13.95,39.38-.45.89-1.02,1.72-1.41,2.64-1.07,2.52-1.23,5.06,1.45,6.59,2.64,1.51,5.47,1.18,7.42-1.26,1.21-1.51,1.87-3.5,2.61-5.34,2.6-6.45,5.71-12.77,7.54-19.43,2.23-8.13,3.27-16.58,4.99-24.85,2.48-11.95,5-23.9,7.72-35.8,2.18-9.55,9.89-15.76,15.16-23.61-1.16,9.74-2.41,19.47-3.46,29.23ZM528.82,928.12c1.21.09,2.05-.08,2.62.23,10.68,5.86,10.05,6.27,3.84,16.64-6.09,10.18-13.68,19.54-17.53,31.13-2.73,8.21-7.14,15.85-10.37,23.91-2.87,7.16-5.65,14.43-7.58,21.88-4.42,17.11-8.39,34.34-12.33,51.57-1.11,4.85-3.4,8.64-8.05,11.32,2.47-8.29,2.37-17.02,6.5-24.9,2.85-5.44,4.46-11.58,6.2-17.53,2.51-8.59,4.42-17.37,6.99-25.94,4.36-14.53,9.01-28.96,13.59-43.42,4.81-15.17,9.73-30.3,16.11-44.88ZM496.85,1063.42c3.17-18.69,7.56-34.1,11.44-45.62,3.77-11.22,8.09-23.83,16.83-39.05,4.61-8.02,9.08-14.38,12.44-18.84-4.8,16.48-9.84,33.4-14.61,50.39-2.56,9.13-4.05,18.6-7.17,27.51-1.84,5.24-5.7,9.86-9.07,14.46-2.64,3.6-5.91,6.74-9.86,11.16ZM551.46,955.7c2.59-4.51,4.45-9.45,7.05-13.95,3.07-5.32,7.97-7.06,14.32-6.2.08,1.16.48,2.22.16,2.98-4.48,10.54-8.29,21.46-13.79,31.44-9.11,16.53-19.31,32.47-29.08,48.63-.36.6-1.08.98-1.63,1.46-.49-.14-.98-.29-1.47-.43,2.01-6.38,4.12-12.73,6-19.15,4.56-15.58,10.33-30.65,18.44-44.78ZM588.2,975.09c-1.48,10.85-2.44,21.82-4.73,32.5-1.76,8.2-4.79,16.21-8.05,23.97-2.97,7.08-6.97,13.72-10.56,20.53-4.52,8.58-8.92,17.23-13.68,25.68-1.9,3.37-4.63,6.27-6.99,9.38-.46-.22-.91-.45-1.37-.67,1.05-3.11,2.27-6.17,3.11-9.33.89-3.36,1.1-6.91,2.14-10.21,4.23-13.4,8.26-26.88,13.14-40.04,5.19-13.99,11.2-27.67,16.99-41.43,1.72-4.09,3.83-8.02,5.91-11.94.53-1,1.67-1.68,3.79-3.72.18,2.97.45,4.16.29,5.29ZM579.96,966.79c-9.63,14.07-16.33,29.59-20.76,46.14-1.78,6.64-5.31,12.79-7.34,19.39-6.01,19.55-11.62,39.23-17.53,58.81-1.07,3.53-2.12,7.46-4.42,10.16-7.57,8.9-12.05,19.47-17.26,29.67-.55,1.08-1.16,2.13-1.73,3.17-.72-.3-1.46-.45-1.47-.65-.49-7.79-.57-15.54-.25-23.24,1.39-33.03,1.49-32.35,9.3-55,4-11.58,10-21.45,22.02-41.19,11.1-18.24,23.72-35.65,33.22-54.77,3.2-6.44,5.97-13.1,8.6-19.79.77-1.95.38-4.34.57-7.33,4.66-.62,9.2-1.23,14.49-1.94-.39,2.14-.39,3.59-.92,4.82-4.72,10.99-9.7,21.78-16.53,31.76ZM593.91,986.71c1.04-7.77,2.42-15.52,3.03-23.32.63-8.09,5.11-14.18,9.47-20.51.87,9.78-5.52,32.57-12.5,43.83ZM625.96,919.06c-1.91.34-3.84.71-5.77,1.04-6.58,1.12-13.14,2.47-19.76,3.29-11.6,1.45-23.1,3.21-34.58,5.55-5.47,1.11-12.04.08-19.94-2.26-5.58-1.65-14.69-8.58-32.69-22.37,0,0-2.32-2.2-16.94-17.91-3.28-3.53-3.86-7.5-1.42-11.67,3.91-6.66,7.93-13.25,11.98-19.83,4.17-6.78,8.26-13.63,12.68-20.25,6.92-10.35,14.01-20.59,21.17-30.78,5.72-8.15,12.15-15.84,17.37-24.29,6.27-10.16,12.38-20.57,17.07-31.51,3.49-8.15,5.39-17.2,6.65-26.04,2.86-20.06,2.28-40.3,1.65-60.51-.74-23.87-6.49-46.76-12.05-69.82-4.6-19.1-7.17-38.68-10.65-58.05-.93-5.16-1.51-10.43-2.97-15.44-3.28-11.25-2.87-22.69-2.63-34.17.07-3.23.37-6.54-.16-9.69-2.4-14.26-5.1-28.46-7.6-42.7-.51-2.94-.54-5.96-.9-8.92-.78-6.41-3.78-10.17-10.32-12.1-.19,3.81-.86,7.44-.44,10.95.76,6.4,2.22,12.71,3.3,19.07,1.88,11.06,4.58,22.08,5.28,33.22.62,9.84-.72,19.85-1.75,29.73-.64,6.15-2.28,12.2-3.5,18.29-.29,1.47-.6,2.95-1.1,4.35-4.6,12.9-9.31,25.77-13.86,38.69-1.82,5.17-3.69,10.37-4.95,15.7-4.69,19.89-13.6,38-23.12,55.87-8.11,15.22-14.67,31.05-20.32,47.38-6.36,18.39-13.85,36.39-20.92,54.53-5.52,14.17-11.41,28.21-16.66,42.48-3.99,10.84-10.8,19.6-18.49,27.86-3.91,4.19-7.8,8.42-11.95,12.37-2.24,2.14-5,3.74-8.42,6.24-3.29-5.19-6.17-9.49-8.79-13.94-7.97-13.56-9.64-16.56-10.57-18.93-2.59-6.6-1.77-7.51-4.28-13.95-3.22-8.24-6.99-12.95-9.67-16.96-4.69-7.03-7.39-20.51-14.62-46.99-2.07-7.57-1.84-15.83-2.21-23.79-.33-7.12,3.96-11.53,9.98-14.46,6.74-3.28,13.38-6.86,20.35-9.54,12.8-4.93,25.59-10.15,38.8-13.67,16.94-4.52,33.44-10.18,48.29-19.22,14.26-8.68,27.24-19.53,37.71-32.79,3.83-4.84,7.18-10.4,9.32-16.16,3.99-10.72,7.92-21.63,10.1-32.81,3.91-20.04,5.74-40.38,5.37-60.9-.44-24.33,1.15-32.68,1.11-36.64-.29-26.6-2.81-37.96-5.04-45.53-2.07-7.03-4.1-11.57-8.23-20.62-10.31-22.59-26.87-48.14-31.06-54.55-12.29-18.82-18.44-28.23-23.98-34.8-17.98-21.3-36.76-34.97-49.86-44.51-5.96-4.34-11.94-8-19.9-13.18-9.43-6.13-19.11-11.73-30.11-14.7-2.84-.77-5.4-2.51-8.17-3.59-10.44-4.06-20.97-7.91-31.36-12.09-4.15-1.67-7.98-4.11-12.05-6.03-11.02-5.19-21.74-11.28-33.22-15.11-9.25-3.09-18.32-6.42-27.16-10.44-2.72-1.24-5.39-2.6-8.09-3.88-1.57-.75-3.11-1.62-4.75-2.15-2.75-.88-8.59,1.11-9.96,3.38-1.97,3.28.89,5.05,2.54,7.05,9.99,12.05,16.97,25.73,23.08,40.08,5.66,13.3,12.82,25.96,18.72,39.17,7.33,16.4,14.12,33.04,21,49.63,4.86,11.75,9.53,23.58,14.15,35.42.43,1.11,1.61,5.03,2.99,9.97,1.57,5.61,8.51,31.08,11.96,75.73.41,5.29.92,12.79,1.29,21.86-6.17-.12-11.32-.12-16.47-.36-1.19-.06-2.1-.43-2.76-1.02-1.35-1.2-1.36-3.22-1.34-4.2.14-6.27,3.98-41.88,4-56.45.02-16.38-5.53-30.76-6.91-37.55-1.58-7.81-4.07-15.31-7.76-22.57-3-5.9-3.8-12.88-6-19.23-2.78-8-5.87-15.89-9.04-23.75-10.22-25.36-25.28-48.13-38.88-71.66-4.35-7.53-10.7-13.96-14.69-21.65-5.36-10.32-12.7-19.09-19.53-28.27,0,0-8.49-10.89-19.71-21.95-33.62-33.14-105.68-54.71-140.79-85-7.42-6.4-12.51-10.93-14.79-16.23-4.93-11.45-9.66-22.99-14.45-34.5-.17-.42-.03-.96-.05-2.91,2.79,2.32,4.78,4.29,7.07,5.81,18.49,12.2,34.96,27.29,55.14,37.11,12.97,6.31,25.13,14.25,37.75,21.29,4.78,2.67,9.89,4.75,14.75,7.28,21.92,11.38,43.85,22.75,65.69,34.27,32.14,16.95,26.71,14.79,36.84,20,37.67,19.35,43.48,18.08,95.06,42.17,23.6,11.02,30.21,16.07,51.3,24.24,9.47,3.67,18.53,8.43,27.7,12.86,6.26,3.03,12.38,6.36,18.58,9.52,12.86,6.57,25.72,13.14,38.6,19.68,8.67,4.4,17.37,8.75,26.07,13.11,1.11.55,2.32.9,3.4,1.5,11.1,6.16,21.9,12.98,33.37,18.35,9.21,4.31,19.12,7.26,28.91,10.15,17.23,5.09,34.5,10.11,51.95,14.35,23.06,5.6,46.48,9.03,70.32,9.21,9.96.08,19.92,1.75,29.86,1.5,9.4-.23,18.84-1.61,28.13-3.25,12.01-2.12,23.94-4.75,35.79-7.62,7.98-1.93,15.76-4.72,23.66-7.01,8.61-2.49,17.25-4.91,25.91-7.25,11.07-2.98,22.2-5.73,33.24-8.79,6.97-1.93,13.82-4.28,20.75-6.35,11.47-3.43,22.93-6.91,34.46-10.12,4.79-1.33,9.78-1.93,14.65-3.01,14.78-3.27,36.39-6.69,62.07-8.6,34.74-2.6,52.11-3.89,69.89.66,5.16,1.32,9.4,2.76,21.51,6.47,30.22,9.25,28.84,8.51,31.42,9.37,31.34,10.46,53.68,30.84,81.52,48.3,1.59,1,4.38,2.78,8.22,4.73,4.73,2.4,9.34,3.94,30.98,13.8,13.83,6.3,27.82,12.26,41.75,18.35.91.4,1.91.61,2.83,1,22.27,9.38,44.55,18.73,66.78,28.2,11.4,4.85,20.67,12.82,29.98,20.76,4.51,3.85,9.03,7.9,14.15,10.79,9.75,5.5,16.51,14.26,24.54,21.55,8.44,7.66,15.91,16.45,23.36,25.12,6.15,7.16,12.2,14.52,17.32,22.42,5.24,8.1,9.22,17.01,13.9,25.48,2.16,3.91,4.93,7.49,7.04,11.42,10.28,19.19,21.99,41.41,24.86,47.79,14.44,32.14,13.39,41.19,27.51,75.11,0,0,14.45,34.36,51.88,92.87,3.12,4.87,9.32,12.89,17.7,23.23,3.11,3.83,6.91,7.12,10.54,10.51,11.46,10.7,22.83,21.51,34.56,31.91,6.7,5.94,14.51,10.67,20.96,16.84,9.86,9.44,19.35,19.34,28.32,29.63,10.94,12.54,21.36,25.53,29.54,40.19,3.51,6.28,8.29,11.84,12.28,17.87,2.6,3.92,4.8,8.11,7.2,12.17.75,1.26,1.52,2.51,2.37,3.71,2.06,2.94,4.16,5.84,5.15,9.62-4.88-5.12-10.25-9.86-14.55-15.43-11.97-15.5-26.67-28.29-40.7-41.71-8.78-8.4-19.18-15.08-28.09-23.36-6.62-6.15-13.8-11.34-21.31-16.17-11.72-7.54-23.6-14.83-35.42-22.22-2.75-1.72-5.73-3.14-8.25-5.15-14.05-11.25-29.39-20.58-44.37-30.48-18.5-12.22-37.59-23.57-54.74-37.84-12.63-10.51-26.26-19.81-39.35-29.78-11.69-8.91-23.27-17.96-34.83-27.04-1.94-1.53-3.63-3.42-5.29-5.27-13.61-15.22-27.3-30.39-40.71-45.79-3.53-4.06-1.36-2.13-9.32-13.54-8.26-11.85-22.03-31.14-40.42-54.55-6.32-8.04-10.15-15.65-18.68-23.03-8.77-7.59-15.59-17.39-23.69-25.82-5.49-5.72-11.52-10.98-17.68-16-12.4-10.12-25.66-18.96-40.18-25.88-8.97-4.27-12.72-7.75-14.01-8.51-54.83-32.63-111.79-47.42-111.79-47.42-20.66-5.36-40.56-8.44-43.25-8.95-6.36-1.2-12.9-1.5-19.27-2.64-17.69-3.16-35.31-6.64-53-9.82-16.7-3-33.39-6.17-50.19-8.55-27.14-3.85-54.38-7.03-81.55-10.66-11.63-1.55-23.21-3.5-34.81-5.29-24.18-3.75-47.83-9.53-71.16-17.05-21.87-7.05-44.3-12.01-67.34-14.12-11.87-1.09-23.61-3.62-35.38-5.71-11.8-2.09-23.49-4.92-35.34-6.56-20.28-2.81-39.17-9.69-57.65-18.08-7.27-3.3-14.71-6.25-21.89-9.73-5.12-2.49-9.97-5.57-14.88-8.47-2.58-1.52-4.97-3.36-7.57-4.84-13.65-7.78-27.29-15.59-41.04-23.19-11.35-6.28-22.88-12.23-34.26-18.46-2.81-1.54-5.42-3.5-7.98-5.44-2.12-1.6-4.21-3.08-6.63-.88-2.35,2.14-1.51,4.76.03,6.78,1.77,2.32,3.83,4.66,6.26,6.21,11.78,7.55,22.68,16.21,33.22,25.38,3.55,3.09,7.79,5.38,11.48,8.33,10.32,8.27,20.54,16.65,30.75,25.06,21.79,17.94,44.21,35.04,67.57,50.89,13.62,9.23,28.01,17.51,40.73,27.84,19.34,15.7,39.57,30.43,56.7,48.76,4.9,5.25,10.82,9.56,16.33,14.23,9.69,8.22,19.25,16.63,29.19,24.54,16.79,13.37,33.96,26.27,50.73,39.67,6.79,5.42,13.13,11.45,19.37,17.51,10.01,9.72,19.83,19.64,29.64,29.57,7.88,7.98,15.7,16.03,23.39,24.2,7.26,7.72,16.17,13.19,24.72,19.25,12.72,9.01,27.16,13.55,41.95,17.05,8.19,1.93,16.74,2.32,25.14,3.35,2.23.27,4.48.33,6.72.49,3.32.24,13.03.9,17.05,1.22,7.82.63,25.8,2.75,49.45,6.16-8.73,2.75-16.14,3.97-21.47,4.56-10.29,1.15-18.9,2.01-29.24-.03-4.61-.91-9.4-1.16-14.12-1.27-8-.18-15.62-1.92-23.23-4.26-7.61-2.34-15.37-4.26-23.14-6.02-2.62-.59-5.58-.43-6.95,2.89-1.35,3.27-.35,5.82,2.23,7.96.19.16.35.36.55.51,12.61,10.06,24.32,21.14,37.48,30.68,11.82,8.57,24.79,14.78,37.23,21.99,8.71,5.05,19.09,7.12,28.22,11.57,10.63,5.19,21.91,6.53,33.3,7.55,3.82.34,7.85-.73,11.67-1.66,3.35-.82,6.45-2.69,9.81-3.49,21.12-5.03,42.07-10.88,63.82-12.87,9.24-.85,10.51-.39,14.11,8.35,3.33,8.09,6.84,16.23,3.89,25.29-.61,1.88-1.31,3.81-2.42,5.42-2.53,3.68-6.04,6.85-7.83,10.82-1.66,3.68-1.62,8.12-2.4,12.65-5.85,1.36-11.16-1.26-16.35-3.22-13.77-5.18-27.39-10.76-40.98-16.38-2.94-1.22-5.36-3.72-8.31-4.89-7.62-3.03-15.36-5.8-23.13-8.41-13.49-4.53-27.34-8.13-40.48-13.5-14.02-5.74-27.43-13-41.03-19.76-4.61-2.29-9.12-4.8-12.6-8.84-1.04-1.21-2.91-1.7-4.38-2.51-3.01,4.66-2.8,6.44.57,10.5,11.83,14.27,25.95,25.91,40.79,36.9,15.4,11.42,30.07,23.81,45.41,35.31,7.95,5.96,16.95,10.5,24.96,16.4,13.52,9.96,29.94,13.31,44.72,20.39,13.04,6.24,26.35,11.9,37.35,21.6,5.23,4.62,4.46,4.44,1.96,10.48-2.42,5.86-3.96,12.39-4.3,18.71-.47,8.62-3.07,16.06-8.12,22.87-1.48,2-2.73,4.18-4.05,6.29-3.76,6.01-7.92,7.26-14.31,4.05-2.22-1.11-4.29-2.56-6.32-4.02-3.24-2.33-6.31-4.91-9.58-7.2-10.96-7.69-18.43-17.95-23.6-30.25-5.4-12.84-11.41-25.42-17.16-38.11-.1-.23-.29-.45-.31-.68-.64-9.88-7.27-16.79-12.66-24.06-4.54-6.13-10.26-11.49-15.99-16.6-13.99-12.49-30.08-22.18-45.13-33.25-14.21-10.46-27.71-22.07-40.42-34.32-9.53-9.18-10.13-13.19-19.57-25.4-12.27-15.87-13.84-14.87-49.11-51.65-11.26-11.74-27.03-33.27-47.7-49.11-3.32-2.55-5.91-6.03-9.1-8.78-9.62-8.31-19.17-16.73-29.13-24.62-15.18-12.03-30.94-23.32-45.95-35.55-12.37-10.07-23.86-21.22-36.02-31.55-7.58-6.43-15.76-12.14-23.54-18.35-7.8-6.22-15.43-12.66-23.14-19-.58-.48-1.17-.94-1.78-1.37-21.51-14.98-41.96-31.33-61.74-48.49-15.42-13.38-30.44-27.22-45.74-40.75-4.66-4.12-9.58-7.96-14.52-11.76-1.31-1-3.11-1.83-4.72-1.89-3.47-.13-4.58,2.8-3.04,7.28,4.25,12.34,10.06,23.96,17.39,34.69,10.25,15.02,20.42,30.09,33.43,43.07,16.91,16.86,27.96,37.46,36.2,59.71,5.46,14.73,10.38,29.74,17.09,43.9,5.73,12.1,13.19,23.48,20.74,34.59,7.61,11.2,9.88,14.37,34.67,48.72,18.65,25.84,21.74,30.34,30.16,41.27,8.83,11.46,9.86,11.41,21.41,26.86,13.13,17.56,28.87,33.17,39.53,52.58,8.52,15.52,17.04,31.05,25.41,46.66,1.52,2.83,2.62,5.97,3.37,9.1,1.64,6.82.39,8.55-6.36,9.74-1.72.3-3.45.49-5.18.71-10.59,1.36-18.87,7.71-27.46,13.15-6.52,4.13-12.65,8.93-18.59,13.87-4.78,3.97-9.11,8.5-13.46,12.96-4.55,4.67-5.94,4.93-11.53,1.65-9.6-5.63-13.66-14.44-17.48-24.73-6.8-18.29-4.53-37.52-8.54-55.9-3.88-17.82-1.41-35.76-2.68-53.59-1.47-20.66-3.56-41.34-9.64-61.22-2.37-7.74-6.89-14.89-10.95-22.01-3.46-6.06-7.68-11.67-11.53-17.51-9.51-14.42-16.49-30.16-23.83-45.72-2.86-6.08-5.99-12.04-8.65-18.2-2.76-6.39-5.11-12.96-7.63-19.45-3.24-8.35-6.27-16.79-9.76-25.03-1.8-4.04-4.54-9.89-8.27-16.75-6.42-11.84-11.57-21.34-14.12-20.63-2.39.67-1.15,9.89,1.22,35.95,2.51,27.66,4.52,54.79,8.21,73.34.18.9.81,3.83,1.52,7.92,1.34,7.66,2.39,15.39,3.65,23.07,1.62,9.84,3.39,19.65,4.87,29.51,1.18,7.86,2.33,15.75,2.95,23.67,1.16,14.88,2.4,29.78,2.7,44.7.23,11.67-.44,23.42-1.56,35.05-.96,9.95-2.11,19.77-1.52,29.84,1.11,18.93.99,38.04,6.94,56.29,4.33,13.28,9.88,26.15,14.35,39.39,6.72,19.86,13.01,39.86,19.41,59.83,1.8,5.61,1.82,11.26-.45,17.17ZM1127.19,701.97c-1.21-2.84-1.43-6.1-2.1-9.17.56-.48,1.11-.97,1.67-1.45,8.11,3.04,16.32,5.83,24.28,9.21,6.38,2.7,12.59,5.89,18.61,9.33,2.96,1.69,5.29,4.47,7.95,6.71,6.66,5.62,13.44,11.1,19.99,16.84,3.16,2.77,6.24,5.77,8.77,9.11,3.16,4.17,2.2,6.72-2.9,8.13-9.16,2.53-18.54,4.29-28.06,3.48-15.77-1.33-31.34-.03-46.9,2.29-.98.15-2,.22-2.98.1-3.01-.38-6.62,1.11-8.34-3.13-1.6-3.95-2.03-7.72.42-11.4,1.11-1.65,2.41-3.19,3.72-4.69,9.26-10.58,11.46-22.25,5.86-35.36ZM1122.12,844.33c-.1-4.23,1.92-8.5,3.24-13.84,5.87,6.9,11.19,12.99,16.33,19.23,4.43,5.38,8.96,10.72,12.92,16.44,8.36,12.07,16.67,24.21,24.41,36.68,3.86,6.22,1.09,10.12-6.25,9.49-4.39-.38-8.74-1.6-13.04-2.7-18.9-4.81-37.37-10.77-54.55-20.22-1.05-.58-2.03-1.27-3.9-2.44,4-5.32,7.74-9.67,10.79-14.47,5.44-8.58,10.31-17.33,10.07-28.17ZM828.63,773.19c17.27-3.04,34.27-.4,51.23,2.32,4.09.66,7.97,2.72,11.9,4.27,6.01,2.37,11.98,4.84,17.96,7.29,3.68,1.5,7.58,2.63,10.97,4.63,13.08,7.72,26.62,14.88,38.76,23.91,9.21,6.85,16.54,16.21,24.71,24.45-.57.71-1.13,1.41-1.7,2.12-5.73-3.35-11.43-6.74-17.19-10.04-8.19-4.7-16.45-9.28-24.62-14.01-4.69-2.72-9.39-5.44-13.86-8.5-12.89-8.82-27.48-12.57-42.62-14.89-2.92-.45-5.73-1.66-8.64-2.2-4.11-.76-8.34-1.98-12.42-1.68-13.61,1.01-26.74-2.54-40.1-3.7-5.05-.44-11.19-4.46-16.31-9.63,7.28-2.85,14.72-3.07,21.95-4.34ZM800.38,771.53c-3.43,1.07-7.21,1.05-10.65,1.51-5.97-16.68-12.79-31.87-21.5-46.13-7.13-11.67-14.21-23.41-22.09-34.58-7.95-11.27-13.8-17.36-20.71-25.48-6.64-7.8-23.75-30.93-57.68-76.88-4.57-6.19-12.89-17.47-23.53-32.73-2.24-3.21-4.15-5.97-4.79-6.91-23.05-33.6-44.74-85.86-44.74-85.86-6.33-15.24-13.1-33.17-20.87-42.77-.26-.33-6.6-8.01-15.16-18.41-.95-1.16-1.82-2.41-2.88-3.45-13.49-13.15-22.17-29.87-33.25-44.81-.52-.7-.82-1.57-1.22-2.37.36-.35.72-.7,1.08-1.04,4.27,3.55,8.28,7.5,12.88,10.56,10.86,7.21,18.9,17.59,29.28,25.32,4.57,3.41,8.5,7.67,12.95,11.28,3.85,3.13,8.03,5.85,12.03,8.79,2.61,1.91,5.48,3.59,7.7,5.89,12.2,12.58,26.17,22.9,40.51,32.88,11.45,7.96,22.53,16.49,33.35,25.29,17.17,13.99,33.85,28.59,51.01,42.59,10.53,8.59,12.13,8.24,22.89,16.54,11.28,8.71,18.62,15.25,32.93,28,18.94,16.88,32.06,29.61,36.07,33.53,11.74,11.46,19.48,19.17,21.44,21.66.81,1.02,10.03,10.61,15.64,17.06,16.98,19.53,20.56,31.69,44.7,69.3,11.6,18.08,13.37,19.26,23.21,35.54,14.01,23.18,10.9,22.64,18.47,31.39,9.42,10.9,17.18,23.25,25.6,35.01.82,1.14,1.26,2.56,1.12,4.59-7.82-5.01-15.46-10.32-23.51-14.92-6.24-3.57-12.92-6.38-19.51-9.3-9.27-4.11-18.57-8.16-27.99-11.9-3.67-1.46-7.65-2.18-11.55-2.97-5.13-1.03-10.28-1.99-15.47-2.62-4.94-.61-9.95-1.26-14.89-1.02-17.17.83-34.28,2.2-50.85,7.37ZM980.56,811.5c-.86-1.67-1.72-2.76-2.4-3.8-37.55-57.54-56.33-86.32-64.6-95.3-.77-.84-3.69-3.8-6.35-8.54-1.71-3.05-3.08-6.29-4.31-9.66,27.91,27.5,44.48,52.45,54.52,70.4,1.04,1.86,27.12,47.63,37.67,65.57,4.79,8.14,10.64,15.66,16.04,23.44,1.12,1.61,2.39,3.1,3.59,4.65-.67.53-1.33,1.06-2,1.6-6.14-7.28-13.86-13.19-18.48-21.76-4.73-8.77-9.11-17.73-13.69-26.59ZM810.56,918.74c-5.44-10.33-11.11-20.56-16.17-31.08-5.25-10.91-9.83-22.14-14.81-33.19-3.36-7.45-7.19-14.7-10.3-22.24-3.91-9.49-5.43-19.55-6.07-30.49,7.55,12.15,13.52,23.06,18.11,32.01,2.79,5.44,13.85,21.23,19.17,42.7,2.13,8.59,6.01,16.74,9.03,25.11,1.33,3.7,2.6,7.43,3.67,11.21,1.41,4.96,2.6,9.99,2.72,15.66-1.79-3.23-3.63-6.42-5.35-9.69ZM821.74,953.72c2.82,5.2,4.96,10.87,6.6,16.56,2.63,9.11,4.36,18.47,6.93,27.59,1.28,4.52,3.57,8.75,5.44,13.1,3.93,9.1,5.04,18.68,5.06,28.47,0,1.98.34,3.96.32,5.94-.02,3.65-.19,7.3-.29,10.94-.72.05-1.45.11-2.17.16-.91-3.23-1.82-6.45-2.72-9.68-4.45-15.83-8.72-31.71-13.45-47.45-1.92-6.39-5.62-12.3-7.14-18.75-3.79-16.13-12.43-29.69-21.28-43.25-11.74-17.98-11.61-17.04-22.01-34.6,0,0-25.37-42.86-31.66-84.64-.74-4.93-.47-9.57-.47-9.57.17-2.94.94-5.85,1.52-9.18,1.56-.65,3.35-1.4,5.29-2.21.53.78,1.15,1.3,1.26,1.92,1.31,7.07,2.78,14.12,3.76,21.23,1.69,12.35,7.03,23.26,12.58,34.17,11.09,21.8,21.77,43.81,33.07,65.49,5.99,11.49,13.18,22.36,19.36,33.77ZM771.23,790.88c6.99,10.43,13.98,20.86,20.97,31.29-11.3-7.59-19.75-17.11-20.97-31.29ZM597.14,689.95c-.89-30.34-3.93-70.82-16.66-151.95-7.58-48.3-13.56-74.87-10.8-75.6,3.48-.92,8.27,42.53,38.88,96.12,14.65,25.64,33.1,49.11,43.9,88.16,8.49,30.71,5.62,24.28,8.42,90.01,1.23,28.94,4.42,58.53,17.21,84.52,1.47,2.99,3.11,6.21,2.51,9.49-.39,2.12-1.67,3.95-2.89,5.73-17.67,25.77-28.59,56.13-31.39,87.26-9.68-25.11-18.8-50.42-27.93-75.73-6.92-19.2-13.88-38.5-17.75-58.54-7.32-37.85-2.02-48.94-3.5-99.47ZM657.22,933.1c1.31-6.62,1.12-13.23.85-19.97-.21-5.31,1.63-10.71,2.61-16.06,2.67-14.63,2.84-15.05,9.62-23.01-3.39,21.67-2.74,43.89-9.47,65.62-3.77-1.77-4.13-3.97-3.61-6.58ZM669.65,945.12c.51-3.44,1.07-6.91,2.02-10.25,3.21-11.32,4.42-22.91,5.26-34.59.64-8.88,1.8-17.73,2.8-26.59.07-.64.75-1.21,1.7-2.67,5.64,6,8.05,11.87,5.66,19.46-3.66,11.64-7.26,23.31-10.19,35.15-1.54,6.23-1.57,12.82-2.38,19.24-.2,1.61-.76,3.17-1.14,4.73-3.72.1-4.09-2.08-3.73-4.48ZM684.3,944.92c.79-12.57,3.51-24.87,7.84-36.73.62-.07,1.24-.14,1.86-.21,3.14,18.89,6.29,37.79,9.51,57.15-5.69-1.52-11.43-3.3-15.83-7.17-3.65-3.21-3.65-8.7-3.38-13.04ZM688.85,838.82c.24-.23,1.76-1.69,4.46-4.28.12,9.44.44,17.3-1.81,26-2.37-3.47-2.52-6.4-2.3-9.63.24-3.47-.17-6.98-.35-12.09ZM703.17,906.31c.54-.27,1.08-.54,1.62-.82,6.18,11.25,7.11,24.54,13.08,35.96,5.83,11.16,10.35,23.01,15.97,35.77-9.23-3-17.54-4.72-20.04-14.61-1.16-4.59-2.98-9.04-3.79-13.67-2.47-14.18-4.59-28.41-6.85-42.62ZM730.9,948.34c-1.63-3.26-3.26-6.52-4.89-9.77.72-.45,1.45-.9,2.17-1.35,9.86,17.62,25.18,31.82,31.98,52.37-4.61.22-7.6-.7-9.73-4.51-2.91-5.2-6.46-10.05-9.31-15.28-2.49-4.55-4.36-9.43-6.56-14.13-1.16-2.47-2.44-4.88-3.66-7.32ZM750.67,953.82c-3.69-5.89-7.39-11.79-11.34-17.49-2.4-3.46-5.06-6.83-8.05-9.8-9.93-9.86-17.3-20.99-19.93-35.07-2.1-11.28-4.77-22.45-7.42-33.62-1.67-7.01-.86-13.87.49-20.75.17-.85.99-1.58,2.46-3.81,1.06,2.99,1.96,4.53,2.11,6.14,1.02,11.16,6.14,21,10.52,30.92,7.75,17.58,17.06,34.4,27.27,50.73,6.07,9.71,11.29,19.97,16.74,30.07,11.98,22.19,25.27,43.54,39.6,64.29,6.55,9.49,11.02,20.08,13.45,31.42.3,1.39.03,2.9.03,5.01-3.19-1.14-3.82-3.53-4.62-5.73-4.96-13.66-13.76-24.78-23.49-35.24-2.34-2.51-5.25-4.64-8.25-6.33-4.42-2.5-6.7-6.46-8.97-10.68-2.93-5.45-4.1-11.61-6.69-17.04-3.84-8.06-9.14-15.42-13.91-23.03ZM654.47,1067.34c-1.03-2.61-2.14-5.19-3.09-7.83-6.26-17.36-9.71-35.42-13.09-53.48-3.29-17.58-6.26-35.22-9.3-52.85-.32-1.87-.2-3.81-.28-5.72.7-.17,1.4-.34,2.1-.51,3.82,10.97,8.32,21.77,11.31,32.97,4.63,17.31,8.8,34.79,12.04,52.4,1.92,10.43,1.72,21.25,2.39,31.91.06.9-.5,1.83-2.07,3.12ZM1160.95,1935.55c-5.14-2.99-9.41-5.39-13.6-7.93-5.95-3.62-11.92-7.22-17.73-11.06-4.78-3.16-9.05-7.16-14.03-9.91-12.37-6.85-22.75-16.18-33.13-25.54-10.37-9.35-21.06-18.37-30.94-28.21-10.13-10.1-21.01-19.09-32.87-27.06-5.34-3.59-9.95-8.29-14.8-12.59-8.39-7.44-16.68-14.98-25.05-22.44-13.4-11.95-26.86-23.84-40.23-35.83-9.84-8.82-19.72-17.61-29.28-26.74-3.38-3.23-5.73-7.5-8.71-11.17-14.14-17.45-28.1-35.01-38.5-55.09-6.42-12.4-13.64-24.44-19.42-37.13-4.51-9.91-9.31-19.82-11.4-30.77-.76-4-3.68-7.57-5.46-11.4-5.15-11.07-12.39-20.03-22.69-27.12-6.63-4.56-11.8-11.41-17.11-17.67-8.54-10.08-17-20.26-24.86-30.87-8.91-12.03-16.85-24.72-22.7-38.63-2.4-5.71-5.7-11.05-8.23-16.72-4.57-10.24-8.9-20.6-13.27-30.93-5.73-13.53-12.14-26.83-16.95-40.69-7.6-21.86-15.73-43.61-18.7-66.86-1.61-12.59-4.22-25.1-7.11-37.47-4-17.16-4.03-34.57-4.79-51.99-.61-14.18-.91-28.57-3.71-42.39-2.49-12.28-2.17-24.18-1.34-36.34.36-5.22.2-10.48.52-15.7.2-3.18.88-6.33,1.5-10.62,1.6,1.69,2.69,2.39,3.14,3.38,6.06,13.25,14.31,24.98,23.41,36.35,7.28,9.09,14.37,18.71,15.98,30.91.26,1.97.88,4.15.33,5.92-3.17,10.13-1.65,20.25-.36,30.39.5,3.93,2.47,6.26,5.3,5.79,3.18-.53,5.7-2.24,5.77-5.84.11-5.24-.08-10.49-.09-15.74-.02-11.57-1.41-22.93-6.01-33.63-1.85-4.31-4.06-8.64-6.94-12.31-8.78-11.19-18.01-22.04-24.86-34.61-3.94-7.24-8.28-14.3-11.64-21.8-1.98-4.42-2.44-9.54-3.51-14.36-.21-.96.02-2.01-.13-2.99-2.24-14.6-1.88-29.33-2.54-44.02-.46-10.1-3.36-19.96-8.15-39.33-3.73-15.08-9.14-35.49-16.71-59.77,7.57,6.05,12.53,13.49,15.55,22.15.73,2.09.49,3.82.51,4.37.31,9.34,4.43,27.25,6.59,36.71,8.07,35.35,12.59,52.94,13.43,58.98,2.42,17.47,8.47,33.25,15.53,48.93,2.56,5.67,5.97,10.95,8.99,16.41,1.64,2.98,4.5,4.25,7.49,3.75,1.53-.25,3.28-2.37,3.95-4.04,1.34-3.33-.75-5.95-3.32-7.6-6.77-4.35-10.45-10.58-13.77-17.82-3.63-7.92-7.07-15.89-9.5-24.17-1.87-6.4-2.26-13.22-3.34-19.86-.71-4.42-1.28-8.87-2.24-13.24-2.42-10.91-5.05-21.77-7.54-32.66-.14-.62.21-1.36.65-3.8,5.8,11.86,11.05,22.25,15.95,32.8,2.2,4.73,3.53,9.86,5.54,14.7,2.29,5.52,5.08,10.82,7.3,16.36,3.16,7.86,5.96,15.87,8.97,23.79,5.23,13.74,10.41,27.5,15.79,41.18,3.12,7.94,2.38,16.18,2.5,24.39.1,6.47.12,12.98.88,19.38.95,8.07,2.46,8.83,12.01,7.21-.03-2.89.71-6.24-.25-9.02-2.73-7.93-3.59-15.97-3.28-24.25.32-8.59-.84-16.65-5.54-24.35-7.74-12.68-9.92-27.59-15.3-41.24-3.29-8.33-6.91-16.53-10.53-24.73-8.16-18.48-15.8-37.21-25.87-54.8-.6-1.05-1.02-2.22-2.04-4.47,4.63,3.06,7.19,5.98,9.32,9.96,5.15,9.61,10.92,18.9,16.74,28.13,5.82,9.24,11.28,18.63,15.28,28.83,1.54,3.94,3.17,7.96,5.5,11.45,6.85,10.29,10.62,21.8,14.27,33.41.82,2.61,1.57,5.28,2.73,7.74,2.02,4.25,2.91,8.4.9,12.93-1.44,3.23-.85,6.31,1.3,9.09,8.65-2.89,10.62-5.78,8.61-14.04-1.58-6.52-3.36-13.06-5.89-19.25-5-12.22-10.59-24.21-15.95-36.29-.61-1.37-1.51-2.63-1.97-4.03-9.44-29.07-20.23-41.13-28.69-51.39-4.8-5.82-12.64-13.86-25.04-21.39-3.19-8.47-6.5-15.47-7.33-24.82,2.29,1.72,3.55,2.41,4.47,3.41,13.4,14.47,27.06,28.72,37.57,45.59,2.1,3.37,4.94,6.27,7.15,9.59,5.11,7.66,10.38,15.24,14.95,23.21,6.58,11.47,13.38,22.93,18.66,35.02,6.34,14.52,8.7,30.18,8.82,46.05.09,11.51,4.9,20.76-.23,27.61-2.03,2.71-4.84,4.47-5.45,8.57-.52,3.5,1.31,3.76,3.55,12.71.91,3.61,2.26,7.1,3.19,10.7,1.12,4.3,2.81,5.31,7.75,4.26,4.3-.92,5.23-2.16,3.78-7.05-3.88-13.08-4.8-26.47-4.7-39.99,0-.93.15-1.87,1.41-3,1.39,5.23,2.79,10.46,4.16,15.7,1.17,4.45,2.93,5.92,5.87,4.8,3.27-1.25,5.65-5.77,3.69-8.55-8.43-11.9-6.96-25.5-7.73-38.89-.5-8.64-1.98-17.42-4.51-25.69-3.13-10.2-7.8-19.93-11.8-29.87-1.21-3-2.4-6.02-3.69-8.99-2.09-4.8-3.88-9.77-6.46-14.3-7.17-12.58-14.5-25.08-22.13-37.38-3.98-6.42-8.74-12.36-13.17-18.55.55-.03,1.18-.26,1.47-.04,14.37,10.69,30.05,19.91,40.62,34.92,4.44,6.3,8.46,13,11.85,19.92,4.82,9.84,9.29,19.9,13.15,30.15,2.8,7.43,3.96,15.47,6.59,22.98,2.6,7.44,4.14,14.84,3.28,22.72-.24,2.2.06,4.49.31,6.72,1.24,11.11,2.4,22.24,3.87,33.33,3.26,24.71,5.85,49.55,10.33,74.04,3,16.36,8.68,32.25,13.38,48.29,2.8,9.55,6.08,18.96,9.03,28.46,10.87,35.05,27.19,67.56,45.62,99.14,10.82,18.55,21.33,37.31,31.33,56.32,8.72,16.58,15.18,34.17,21.1,51.95,3.78,11.35,7.9,22.6,11.7,33.94,4.28,12.77,8.56,25.54,12.51,38.41,4.38,14.26,8.24,28.68,12.63,42.93,0,0,4.83,15.21,10.39,30.39,15.77,43.13,52.42,88.79,98.78,154.42,4.15,5.88,17.64,24.65,35.04,45.7,12.07,14.59,25.23,28.28,37.88,42.38,5.32,5.93,10.58,11.9,15.81,17.9.4.45.37,1.27.88,3.18ZM677.51,980.95c19.17,13.13,37.29,27.09,48.15,48.44,4.83,9.5,10.99,18.32,15.84,27.81,4.33,8.49,7.69,17.47,10.79,26.59-20.75-37.37-45.82-71.5-74.78-102.84ZM857.14,952.55c8.57,16.35,17.87,32.33,25.98,48.9,8.45,17.26,12.48,35.77,11.85,55.08-.32,9.97-1.04,19.94-1.91,29.88-.2,2.27-1.17,5.03-2.77,6.5-2.42,2.23-2.79,4.72-2.44,7.42,1.63,12.74.14,25.36-.96,38.03-2.44,28.1,2.84,55.16,11.73,81.61,3.64,10.82,5.87,22.11,11.16,32.42,5.11,9.98,8.82,20.73,14.48,30.36,8.93,15.21,16.3,31.19,24.64,46.68,11,20.41,20.91,41.43,30.87,62.38,6.1,12.82,12.23,25.74,16.89,39.12,6.26,17.97,10.02,36.65,9.81,55.83-.08,7.71-1.22,15.41-1.88,23.11-.89,10.42-2.63,20.85-2.45,31.25.22,12.77,3.19,25.33,8.33,37.06,8.92,20.34,18.44,40.41,27.64,60.62,11.3,24.82,17.1,37.16,19.8,44.39,1.29,3.46,4.97,13.5,12.08,40.12,14.57,54.58,12.55,62.76,23.61,87.08,6.2,13.64,13.02,24.67,19.22,34.71,2.58,4.17,17.34,27.88,29.89,47.39,4.32,6.72,7.23,14.25,10.77,21.41.86,1.74,1.48,3.6,1.37,6.12-1.16-1.06-2.43-2.02-3.45-3.19-22.79-25.94-40.98-45.37-48.51-55.9-72.8-101.75-109.2-152.63-118.76-175.98-23.1-56.4-45.37-144.19-56.5-169.26-9.62-21.68-20.39-42.52-20.39-42.52-8.59-16.35-18.35-32.08-26.99-48.4-12.84-24.26-25.68-48.56-37.43-73.35-5.41-11.41-8.33-24-12.24-36.1-3.68-11.39-7.52-22.75-10.64-34.29-4.1-15.17-8.07-30.41-11.17-45.81-2.94-14.65-4.94-29.51-6.83-44.34-1.04-8.14-.93-16.42-1.48-24.63-.27-4.08,1.03-6.94,4.38-9.6,5.24-4.16,5.63-7.44,2.38-11.35-.74-.89-1.94-2.06-2.89-2.02-4.52.17-5.67-3.09-5.99-6.27-.56-5.65-.25-11.38-.61-17.05-.27-4.18-.45-8.52-1.68-12.47-6.52-20.86-11.9-42.14-21.95-61.82,3.94,3.78,6.3,8.6,8.01,13.52,4.38,12.6,11.63,23.72,17.55,35.52,2.77,5.53,6.2,10.98,3.46,17.68-.43,1.06-.25,2.51.03,3.69.65,2.79.38,6.43,4.49,6.81,2.98.28,7.07-4.12,6.91-7.68-.15-3.21-.58-6.56-1.68-9.55-2.4-6.53-5.13-12.95-8.05-19.26-5.54-11.98-12.95-23.06-16.59-35.97-2.4-8.52-7.63-15.57-12.96-22.58-11.08-14.57-26.14-23.71-42.25-31.19-15.91-7.39-30.29-17.14-44.81-26.75-5.38-3.56-10.66-7.27-15.37-12.05,6.47,3.09,12.87,6.34,19.42,9.25,17.02,7.56,21.16,8.95,38.41,16.73,20.44,9.23,28.04,13.69,33.53,17.19,5.65,3.6,9.55,6.86,15.15,10.95,9.52,6.96,15.88,16.41,21.27,26.69,6.06,11.57,10.84,23.56,13.34,36.45,2.37,12.24,5.37,24.37,7.62,36.64,1.07,5.86,1.09,11.92,1.51,17.89.09,1.22.27,2.76-.33,3.66-3.89,5.85-1.85,12.73-3.39,18.98-.3,1.23.93,2.99,1.76,4.33.88,1.42,2.34,2.49,3.16,3.94,3.49,6.19,7.58,6.22,11.25,1.04-1.63-12.03-3.3-23.1-4.59-34.22-1.32-11.38-2.18-22.82-3.44-34.22-.34-3.08-.79-5.71,2.04-8.14,1.22-1.05,1.3-3.51,1.74-5.37.16-.68-.02-1.53-.28-2.21-3.56-9.4-4.03-19.4-5.35-29.18-2-14.8-8.79-27.45-16.54-39.7-11.21-17.73-23.12-35.03-34.01-52.95-7.1-11.68-12.67-24.28-19.37-36.22-6.48-11.54-13.93-22.53-20.2-34.17-5.91-10.96-11.52-22.18-15.91-33.8-1.97-5.22-.75-11.69-.78-17.59-.02-4.11.29-8.23.52-13.89,3.54-2.87,8.3-6.73,14.05-11.39.51,2.84.7,4.17,1,5.47,1.16,5.09,1.7,10.43,3.64,15.21,9.74,24.05,19.16,48.26,30.07,71.78,6.59,14.19,15.54,27.3,23.75,40.71,7.18,11.74,14.49,23.33,17.75,36.97.74,3.1,2.36,6.06,3.95,8.86,7.69,13.54,9.49,28.86,13.03,43.61,3.39,14.11,7.77,27.84,13.03,41.31.63,1.6,1.18,3.92,2.41,4.47,5.07,2.29,3.93,6.06,3.34,10.11-.61,4.16-.66,8.41-.86,12.62-.27,5.43-.22,10.89-.75,16.3-.29,2.97.51,4.79,3.18,5.96,4.23,1.86,8.19,1.64,12.45-1.6-.4-2.24-.28-4.92-1.35-6.97-6.12-11.68-4.19-23.63-1.7-35.66.35-1.7.92-3.44.84-5.14-.56-10.67-1.27-21.34-1.93-32.01-.14-2.24-.64-4.54-.32-6.71.71-4.82.22-9.36-1.7-13.84-.55-1.28-.55-2.79-.38-4.3,4.37,8.3,8.98,16.41,9.18,26.21.34,17.37,4.57,34.06,9.21,50.67,1.23,4.41,5.34,5.67,8.26,2.22,1.51-1.79,2.66-4.39,2.83-6.71.42-5.81-.1-11.88-4.66-16.01-4.19-3.79-5.42-8.58-5.46-13.42-.22-21.54-7.46-40.97-16.96-59.81-5.72-11.34-11.52-22.64-17.1-34.05-2.4-4.92-4.53-10-6.41-15.15-4.25-11.66-9.15-23.19-12.15-35.19-3.16-12.63-7.89-24.54-12.92-36.42-.58-1.37-1.06-2.82-1.31-4.29-1.97-11.47-7.34-21.62-12.24-31.96-1.2-2.53-1.75-5.36-1.87-8.3,5,5.85,10.21,11.55,14.93,17.62,2.73,3.52,5.05,7.47,6.91,11.52,5.91,12.92,11.9,25.83,17.12,39.03,7.12,17.98,18,33.9,26.91,50.89ZM887.42,928.08c-6.72-2.75-10.7-7.1-13.07-12.99,4.64,3.71,10.98,5.68,13.07,12.99ZM874.28,891.15c3.17,5.29,5.43,11.13,8.1,16.72-.41.4-.81.81-1.22,1.21-3.74-2.88-7.52-5.71-11.23-8.64-4.69-3.69-9.58-7.17-13.91-11.25-7.41-6.97-15.3-13.66-21.44-21.66-9.96-13-18.75-26.9-27.88-40.53-6.24-9.31-12.38-18.71-18.24-28.27-1.73-2.83-2.35-6.34-3.47-9.54.56-.28,1.12-.56,1.68-.83,6.88,4.71,13.83,9.02,19.54,15.62,7.78,9,17.08,16.7,25.72,24.96,1.43,1.37,3.06,2.63,4.19,4.23,5.89,8.32,11.83,16.62,17.42,25.13,7.1,10.82,14.09,21.73,20.74,32.84ZM904.92,865.34c12.49,9.16,23.82,19.47,34.79,30.44,11.95,11.95,22.31,24.89,30.94,39.25,4.61,7.66,8.32,15.86,12.36,23.86.5.99.52,2.22.76,3.34-.29.12-.58.23-.87.35-3.56-4.63-6.79-9.57-10.75-13.83-11.01-11.87-21.61-24.26-33.73-34.9-9.04-7.94-16.76-16.97-25.27-25.3-3.37-3.3-7.14-6.22-10.25-9.73-14.25-16.1-31.16-29.15-47.91-42.39-7.17-5.67-14.41-11.25-21.56-16.93-.88-.7-1.47-1.78-2.49-3.05,1.27-.33,2.06-.82,2.54-.61,10.68,4.73,21.37,9.45,31.95,14.39,2.43,1.13,4.76,2.76,6.7,4.61,5.78,5.51,11.22,11.37,17.03,16.84,5.06,4.76,10.15,9.58,15.74,13.68ZM941.55,849.74c-4.44-2.1-8.66-4.75-13.23-6.51-9.74-3.77-19.61-7.21-29.47-10.63-7.54-2.61-15.15-4.98-22.73-7.47-1.42-.46-3.23-.59-4.15-1.54-9.66-9.96-22.6-14.99-33.71-22.76-.69-.49-1.04-1.47-1.54-2.23.3-.39.61-.78.91-1.17,3.71,1.33,7.76,2.1,11.08,4.09,10.09,6.03,21.48,7.87,32.52,10.8,11.91,3.16,22.95,7.88,33.51,14.37,7.62,4.68,15.53,8.85,22.37,14.69,3.18,2.71,6.19,5.63,8.76,9.48-1.45-.36-3-.49-4.32-1.12ZM980.75,869.79c-6.37-7.28-14.32-13.16-21.52-19.71-17.59-16.01-36.7-29.84-58.02-40.48-3.29-1.64-6.78-2.88-11.04-4.67,14.02,1.62,18.77,3.78,30.45,11.23,6.7,4.28,14.09,7.48,21.18,11.16,1.76.92,3.63,1.66,5.31,2.7,13.97,8.68,28.27,16.89,41.76,26.27,13.1,9.11,24.81,19.81,34.02,33.27,8.15,11.91,17.34,23.16,26.68,34.19,10.15,11.98,21.11,23.28,31.49,35.09,2.2,2.51,3.83,5.76,4.93,8.94,2.35,6.78,8.26,10.44,12.83,15.23.81.85,3.93.36,5.34-.52.86-.54,1.1-3.27.57-4.59-1.24-3.1-2.26-5.99-1.18-9.38,1.23-3.84-2.2-5.2-4.28-7.11-4.21-3.86-8.43-7.74-12.92-11.26-8.91-6.98-15.49-16.15-23.08-24.35-6.51-7.03-12.08-14.95-19.01-23.68,4.84.85,6.74,3.48,8.86,5.52,11.17,10.73,22.3,21.49,33.29,32.4,8.02,7.96,16.76,14.87,26.58,20.52,3.62,2.08,6.75,5.07,9.93,7.85,3.83,3.36,8.04,4.29,10.63,2.04,3.98-3.45,4.45-8.28.84-12.66-3.16-3.83-6.28-7.19-12.5-5.98-6.66,1.3-12.13-3.31-16.75-7.15-8-6.66-15.04-14.46-22.52-21.76-4.28-4.18-8.53-8.4-12.97-12.41-9.06-8.19-18.27-16.23-27.34-24.42-1.45-1.31-2.59-3.02-3.72-4.65-5.39-7.74-11.91-14.98-15.77-23.42-4.53-9.9-12.12-17.69-16.73-27.26-8.57-17.77-19.15-34.37-28.69-51.57-6.55-11.8-13.02-23.52-21.92-33.8-2.42-2.8-5.27-6.21-4.12-10.74,11.48,8.03,20.88,14.59,28.74,19.75,4.2,2.76,9.86,8.58,17.77,15.76.7.64.97,1.8,1.71,2.35,13.04,9.63,18.69,23.91,24.6,38.19,4.96,11.97,10.72,23.61,16.12,35.4,1.35,2.94,2.56,5.96,4.06,8.83,4.37,8.36,11.54,14.1,18.43,20.25,10.52,9.4,22.85,15.74,35.06,22.36,2.81,1.53,5.95,2.49,8.98,3.57,15.48,5.5,30.91,11.13,46.49,16.32,6.13,2.04,12.57,3.34,18.96,4.37,2.99.48,6.22-.49,9.67-.83,4.94,4.83,11.93,11.25,20.83,18.18,18.08,14.08,33.59,22.13,38.76,24.72,6.84,3.43,13.82,7.64,29.13,12.11,15.63,4.56,31.11,9.68,47.62,19.13,11.49,6.58,20.99,14,23.24,15.77,3.11,2.45,7.68,6.08,12.87,11.09,5.46,5.28,9.02,9.6,29.48,37.86,10.79,14.9,6.5,7.79,11.32,15.77,4.25,7.04,8.65,13.85,13.95,20.21,3.11,3.73,4.45,8.94,6.95,14.27-6.26-.21-11.79-2.34-16.41-4.86-9.56-5.21-18.82-11.26-27.31-18.06-9.28-7.44-17.35-16.37-26.33-24.22-15.65-13.68-32.71-25.43-51.48-34.4-7.09-3.39-14.47-6.82-22.74-6.76-1.24,0-2.52-.14-3.71-.47-21.15-5.83-42.6-3.44-64.03-2.67-12.68.46-25.4.17-38.09-.08-9.69-.2-19.37-.9-29.06-1.33-12.24-.54-23.27-5.39-34.47-9.62-.68-.26-1.35-.67-1.88-1.16-5.41-5.07-10.6-10.39-16.24-15.2-3.32-2.83-4.73-6.17-5.21-10.27-.2-1.71-.94-3.36-1.38-5.05-1.07-4.1-4.07-6.22-7.82-5.09-4.94,1.48-7.81-1.03-10.29-4.14-4.5-5.64-8.79-11.49-12.77-17.51-5.49-8.33-10.87-16.77-15.8-25.44-4.05-7.12-9.82-12.64-15.78-17.87-12.6-11.04-23.54-23.54-34.54-36.11ZM1136.78,1196.1c.1-4.33,1.43-8.62,2.19-12.93.55-.04,1.09-.09,1.64-.13.57,1.41,1.45,2.77,1.67,4.23,2.77,18.41,8.08,36,16.49,52.65,2.02,3.99,3.12,8.48,5.34,12.34,8.73,15.15,18.24,29.69,32.64,40.33,3.17,2.34,5.73,5.54,8.49,8.42,8.04,8.36,17.55,14.71,27.55,20.44,14.07,8.05,28.5,15.58,41.95,24.57,10.08,6.75,19.11,15.16,28.14,23.36,16.43,14.92,33,29.75,48.56,45.55,9.39,9.54,16.79,21.03,25.45,31.33,13.39,15.95,21.29,34.64,28.79,53.79,5.41,13.82,8.73,28.07,12.31,42.33,1.03,4.09,2.61,8.06,4.08,12.03,6.99,18.87,8.23,39.02,12.97,58.4,1.6,6.54,2.94,13.17,4.09,19.8,2.61,14.99,4.57,30.11,7.65,44.99,4.26,20.57,10.37,40.55,20.07,59.39,7.53,14.62,13.39,30,18.07,45.83,3.88,13.09,7.23,19.16,8.28,22.47,8.75,27.58,9.05,51.53,9.22,84.24.04,8.39-.23,19.03-.78,40.3-.7,27.32-1.16,26.49-1.07,38.08.13,17.21,1.02,34.41,1.45,51.62.26,10.48,1.03,21.02.21,31.42-1.17,14.86,1.7,28.82,6.94,42.46,5.78,15.05,14.77,28.07,24.57,40.87,12.09,15.81,24.95,31.28,32.98,49.83,4.57,10.55,7.66,21.41,9.79,32.84,2.17,11.6,5.06,23.42,11.31,33.91,1.86,3.13,3.02,6.67,4.89,10.92-1.8-.45-2.74-.39-3.02-.79-5.91-8.59-13.08-16.34-16.87-26.37-.5-1.32-.98-2.31-1.47-3.16-2.34-4-4.59-6.63-4.87-6.94-2.45-2.73-28.55-44.45-95.83-154.19-10.4-18.35-19.48-31.5-24.47-41.25-2.04-3.99-4.89-7.55-7-11.51-5.39-10.09-10.52-20.31-15.84-30.42-3.01-5.73-7.01-11.07-9.15-17.09-4.27-12.01-13.38-25.5-19.86-41.07-6.21-14.94-9.62-26.57-12.7-37.21-5.91-20.4-11.73-58.03-18.9-92.59,0,0-11.07-53.34-21.87-85.01-.22-.65-1.13-3.29-2.22-6.9-2.22-7.35-3.73-14.93-5.36-22.45-2.22-10.23-4.26-20.49-6.38-30.74-1.72-8.31-3.14-16.69-5.26-24.89-3.42-13.26-6.64-26.63-11.16-39.53-7.41-21.16-15.61-42.04-25.32-62.32-5.81-12.13-10.35-24.85-15.75-37.18-4.39-10.04-8.96-20.03-13.92-29.8-5.52-10.88-11.53-21.52-17.43-32.2-3.86-6.99-7.8-13.93-11.87-20.8-8.65-14.6-17.55-29.06-26.07-43.73-6-10.35-11.48-21-17.31-31.44-6.08-10.88-12.3-21.68-18.46-32.52-18.23-32.11-28.47-66.38-27.59-103.56ZM1134.44,1125.41c.76,6.14.36,14.56-.47,31.4-.71,14.45-2.6,28.88-2.61,43.32,0,9.35.54,18.8,2.14,28.24,2.04,12.13,5.82,23.71,8.95,35.48,1.58,5.96,4.2,11.78,7.15,17.23,14.58,27.02,29.29,53.96,44.2,80.8,16.62,29.9,33.6,59.6,50.24,89.49,7.77,13.95,15.64,27.89,22.5,42.3,7.29,15.3,13.49,31.13,20.04,46.78,6.55,15.64,13.15,31.26,19.34,47.04,2.91,7.42,5.43,15.06,7.26,22.81,4.99,21.13,9.54,42.37,14.23,63.56,2.6,11.73,3.84,18.12,5.68,26.1,11.04,48,17.14,56.79,25.21,96.14,2.16,10.54,2.68,14.03,5.93,30.03,3.48,17.13,7.44,34.17,10.36,51.39,2.74,16.15,7.67,31.62,14.05,46.49,8.35,19.48,17.65,38.59,27.36,57.45,10.39,20.18,21.9,39.78,32.6,59.8,3.19,5.97,6.49,11.87,9.96,17.65h0s0,0,0,0c74.33,122.35,102.09,165.9,111.14,178.38,4.39,6.05,8.08,12.6,12.66,18.52,7.24,9.35,13.61,19.13,17.54,30.34.53,1.5.61,3.16.9,4.78-1.05.12-1.82.39-1.97.2-7.21-9.47-16.29-17.51-21.31-28.68-1.39-3.09-4.08-5.62-6.27-8.33-8.13-10.06-16.8-19.72-24.29-30.23-6.3-8.83-13.15-16.91-21.66-23.57-1.73-1.35-3.88-2.21-5.9-3.13-11.4-5.22-21.94-11.63-31.45-19.95-7.26-6.36-15.44-11.66-23.07-17.62-14.87-11.63-29.74-23.26-44.41-35.13-11.78-9.53-23.28-19.42-34.89-29.16-1.14-.96-2.43-1.85-3.28-3.04-13.51-18.82-29.88-35.62-40.45-56.51-4.71-9.3-8.82-18.9-13.31-28.31-4.19-8.78-8.48-17.52-12.81-26.23-9.65-19.41-19.44-38.75-29-58.21-6.11-12.46-14.89-22.93-23.59-33.57-6.61-8.09-12.38-16.86-18.53-25.33-1.61-2.22-3.07-4.58-4.88-6.62-15.96-17.9-26.95-38.91-37.78-60.03-2.56-4.99-4.57-8.98-8.48-17.01-8.32-17.07-15.83-32.48-22.72-50.77-3.29-8.75-7.2-19.14-10.38-32.08-5.72-23.29-3.99-34.15-6.03-78.8-1.39-30.41-2.08-45.62-4.32-54.96-4.92-20.46-11.6-40.21-20.49-59.29-3.25-6.97-5.92-14.25-8.28-21.58-13.11-40.67-18.42-54.88-20.13-63.42-.36-1.79-1.37-8.47-3.38-21.81-4.66-30.89-6.85-46.52-7.28-55.56-.7-14.68-.16-29.38,2.83-43.92,2.16-10.51,3.28-21.25,5.68-31.7,2.85-12.39,6.76-24.53,9.9-36.86,4.82-18.96,7.57-28.35,9.78-41.39,0,0,4.16-24.48,4.58-50.77.1-6.53-.04-13.09-.04-13.09-.2-8.93-.71-16.51-.96-19.27-1.33-14.51-5.59-29.13-21.85-53.84-3.27-4.97-5.47-10.64-8.73-15.62-5.05-7.7-10.6-15.09-15.94-22.6-.72-1.02-1.64-1.93-2.18-3.04-5.94-12.15-14.63-21.98-23.92-31.79-8.28-8.74-13.86-20.03-20.66-30.18-5.82-8.69-11.49-17.48-17.57-25.98-4.78-6.67-10.11-12.96-15.14-19.45-.36-.46-.3-1.25-.84-3.79,7.56,7.41,13.67,13.83,20.23,19.75,8.94,8.07,14.34,18.59,20.07,28.75,10.68,18.9,25.59,34.36,39.51,50.66,9.25,10.83,8.38,9.88,12.38,15.01,2.81,3.61,7.57,9.87,28.51,43.74,3.68,5.96,11.17,14.07,11.04,26.39,0,.83.21,1.19.5,2.95,3.62,22.36,5.69,30.41,6.78,39.21ZM1690.08,2032.81c-.22.03-.99-2.49-1.62-6.73-.99-6.57-3.78-12.85-5.47-19.34-2.71-10.37-5.63-20.72-7.59-31.24-1.77-9.5-5.19-18.08-9.83-26.5-5.89-10.68-10.89-21.84-16.33-32.76-2.33-4.68-4.93-9.23-7.17-13.95-10.8-22.76-21.7-45.47-32.12-68.4-2.65-5.83-4.4-12.3-5.34-18.65-2.7-18.34-7.79-36.05-12.61-53.87-2.6-9.62-4.1-19.53-6.37-29.25-3.52-15.06-7.3-30.06-10.91-45.1-.41-1.69-.3-3.49-.66-5.2-1.11-5.34-1.88-10.8-3.59-15.95-2.9-8.73-6.25-17.33-9.74-25.85-1.87-4.59-4.07-9.11-6.7-13.3-10.22-16.27-19.94-32.85-31.8-48.06-9.2-11.8-18.17-23.79-26.82-36-10.53-14.87-21.1-29.75-30.68-45.22-4.67-7.54-7.23-16.4-10.54-24.74-2.02-5.1-3.84-10.3-5.38-15.56-1.03-3.53-1.59-7.23-2.07-10.89-1.7-13.1-2.65-26.32-7.42-38.84-1.51-3.95-2.51-8.09-3.85-12.1-5.7-17.01-11.2-34.11-17.28-50.98-3.37-9.36-7.24-18.62-11.81-27.45-6.65-12.83-13.61-25.56-21.38-37.74-10.48-16.45-25.29-28.77-41.3-39.61-10.31-6.98-20.76-13.78-31.26-20.49-18.87-12.05-42.18-27.53-66.84-50.42-8.13-7.55-24.03-22.3-40.64-43.84-18.97-24.6-22.7-29.49-22.7-29.49-9.75-12.79-13.49-17.78-20.7-24.48-5.48-5.08-11.67-9.38-17.3-14.32-6.45-5.65-12.63-11.61-18.22-18.56,2.28.57,4.66.89,6.83,1.74,9.04,3.51,17.94,7.41,27.05,10.72,12.65,4.6,25.37,9.07,38.22,13.06,5.91,1.83,12.29,2.1,18.32,3.59,11.35,2.81,22.6,5.99,33.89,9.04.71.19,1.34.73,2.05.9,16.94,4.15,32.09,12.31,46.87,21.19,5.52,3.32,11.02,6.89,15.82,11.15,23.57,20.85,30.03,30.35,52.66,52.13,20.9,20.12,48.09,41.06,59.38,47.9,2,1.21,8.83,8.68,20.51,14.79,1.71.89,3.06,2.54,4.45,3.96,8.84,9.08,16.32,16.47,20.21,20.98,33.23,38.59,47.81,60.71,47.81,60.71,18.8,28.54,29.8,52.32,33.38,60.28.31.68,2.77,6.33,5.39,12.92,35.41,89.31,54.03,183.14,54.03,183.14s12.37,62.34,21.15,145.01c.69,6.47,3.35,29.29,7.41,60.08,2.67,20.27,5.41,36.21,7.08,45.46,14.22,78.91,31.42,118.26,38.52,181.24.88,7.84,3.73,34.82,3.01,34.91ZM1631.45,1433.36c4.85,8.76,8.77,17.81,12.12,27.3,4.39,12.44,10.3,24.35,15.56,36.48,1.59,3.66,3.42,7.24,4.77,10.99,6.72,18.76,16.27,36.43,20.47,56.21,3.86,18.17,6.1,36.36,6,54.94-.08,14.47.77,28.93,1,43.4.15,9.73.02,19.46-.11,29.19-.15,11.56-2.69,22.75-4.9,34.04-1.52,7.74-1.3,15.82-1.84,23.74-.12,1.73-.07,3.48-.28,5.2-1.23,9.89-2.6,19.77-3.72,29.67-.47,4.2-.72,8.47-.59,12.69.66,21.69,1.11,43.4,2.4,65.06.5,8.4,3.13,16.65,4.55,25.02.83,4.89,1.61,9.86,1.67,14.8.2,16.35-1.03,21.47-.9,29.01.07,3.95.45,6.88.72,9.15,2.69,22.52,5.04,37.2,4.46,37.33-.9.2-9.15-34.93-19.44-77.76-11.1-46.19-15.99-65.71-21.6-97.2-2.1-11.77-3.7-21.76-5.05-31.07-4.96-34.3-7.3-59.5-7.91-66.13-20.37-220.6-88.92-358.22-88.92-358.22-1.44-2.89-2.61-5.19-3.23-6.39,0-.01-.01-.02-.01-.02-3.37-6.15-7.26-12.05-10.77-18.13-3.62-6.26-7.02-12.66-10.88-18.77-4.52-7.16-9.19-14.25-14.22-21.05-8.16-11.04-16.87-21.67-24.95-32.77-7.31-10.05-17.12-17.5-26.35-25.38-13.81-11.78-27.86-23.64-43.28-33.04-15.5-9.45-28.28-22-42.7-32.6-8.37-6.15-15.3-14.24-22.96-21.36-14.61-13.58-28.33-28.17-44.53-39.98-15.6-11.38-32.28-20.85-50.24-27.94-1.26-.5-5.22-1.41-13.03-3.4-44.39-11.31-66.58-16.96-68.08-17.19-3.09-.48-15.31-4.15-28.74-8.22-2.35-.71-4.63-1.96-6.66-3.37-5.49-3.8-10.83-7.82-16.78-12.16,1.71-.11,2.9-.3,4.08-.25,10.2.48,20.39,1.16,30.6,1.47,12.46.39,24.94.78,37.41.6,10.72-.15,21.42-1.39,32.15-1.58,8.44-.15,16.95.15,25.35,1.02,7.92.82,15.76,2.51,23.59,4.09,10.48,2.12,19.57,7.76,28.42,13.16,10.14,6.19,20.56,12.24,29.03,20.95,4.52,4.64,9.69,8.65,14.56,12.94,2.99,2.63,6.42,4.91,8.89,7.97,6.86,8.5,15.41,14.95,24.41,20.8,4.77,3.1,10,5.66,15.29,7.78,6.24,2.49,12.84,4.05,19.15,6.37,8.4,3.09,16.73,6.4,24.99,9.86,10.34,4.33,20.62,8.83,30.86,13.4,13.51,6.03,26.12,13.8,37.14,23.46,8.92,7.81,16.44,17.3,24.04,26.49,6.49,7.85,12.12,16.42,18.28,24.55,8.92,11.78,16.65,24.26,23.07,37.57,6.83,14.15,13.4,28.44,20.62,42.39,7.97,15.41,10.85,32.06,13.45,48.88,2.4,15.53,4.61,31.11,7.8,46.48,2.9,14.01,8.87,27.04,15.8,39.53ZM1835.63,1529.6c-9.04-6.66-18.05-13.36-27.07-20.05-7.83-5.81-15.02-12.08-20.86-20.15-19.94-27.56-44.37-50.56-72.82-69.24-1.04-.68-2.09-1.39-3.23-1.89-27.69-12.19-49.45-32.48-71.39-52.48-6.08-5.54-11.66-11.61-17.66-17.24-1.75-1.64-4.16-2.58-6.48-3.96-1.96-9.13-3.63-18.71-6.15-28.06-1.87-6.93-4.81-13.58-7.37-20.32-.71-1.86-1.93-3.52-2.64-5.38-10.06-26.53-24.78-50.59-39.66-74.54-3.52-5.67-8.35-10.5-12.27-15.94-4.67-6.47-8.42-13.69-13.63-19.66-7.31-8.38-14.81-16.99-23.72-23.43-5.94-4.3-11.74-9.08-18.12-12.8-7.3-4.25-14.81-8.33-22.63-11.48-22.73-9.14-40.7-23.87-54.02-44.34-5.3-8.15-10.05-16.69-15.69-24.59-10.58-14.8-20.51-30.29-32.79-43.58-13.14-14.23-28.62-26.08-46.3-35.04-18.17-9.22-37.27-15.43-56.55-21.48-12.51-3.93-23.38-10.98-33.45-19.23-7.16-5.87-14.56-11.18-22.97-15.31-5.96-2.92-11.18-7.44-16.45-11.59-1.3-1.03-2.39-3.52-2.15-5.12,1.35-8.96-3.04-16.26-7.41-22.97-16.47-25.3-34.84-49.24-54.28-72.33-12.88-15.31-29.78-24.67-48.25-31.72-13.73-5.23-27.66-10.24-40.68-16.95-9.42-4.85-17.52-12.29-26.16-18.63-5.22-3.84-10.34-7.82-15.54-11.69-10.73-7.99-21.47-15.96-32.25-23.97.5-.48.89-1.05,1.06-.99,13.64,4.69,27.26,9.45,40.91,14.15,4.23,1.46,8.62,2.51,12.77,4.15,9.42,3.72,19.15,6.94,28,11.76,12.68,6.9,24.6,15.17,36.99,22.61,5.33,3.2,11.09,5.67,16.54,8.68,7.16,3.96,14.2,8.14,21.32,12.18,3.23,1.83,6.38,3.92,9.8,5.29,15.51,6.18,31.12,12.09,45.63,20.55,3.39,1.98,7.53,2.64,11.06,4.44,16.44,8.4,32.01,18.17,46.54,29.63,17.43,13.74,35.13,27.14,52.59,40.84,7.06,5.54,13.67,11.65,20.72,17.2,15.48,12.19,30.99,24.35,46.74,36.19,8.74,6.57,18.01,12.44,26.97,18.71,7.53,5.27,14.65,11.2,22.54,15.86,10.5,6.2,15.06,8.11,31.03,16.21,0,0,15.15,7.68,32.04,17.24,0,0,24.18,11.42,43.4,27.4,60.5,50.31,95.74,105.28,95.74,105.28,2.1,3.3,3.68,5.83,4.32,6.86,39.34,63.2,48.25,95.97,89.95,168.94h0c6.97,12.85,1.33,6.64,33.42,50.54,7.78,10.65,14.32,22.21,21.55,33.26,6.01,9.19,12.48,18.08,18.29,27.39,10.56,16.94,20.6,34.2,31.19,51.11,5.95,9.5,12.63,18.54,18.83,27.88,5.09,7.67,9.97,15.48,14.49,24.04-1.27-.74-2.61-1.37-3.79-2.24ZM1851.24,1535.91c-3.69,1.65-26.02-28.58-49.2-75.61-4.81-9.75-11.4-18.08-18-26.55-6.4-8.22-12.43-16.77-18.16-25.47-9.46-14.36-18.3-29.13-27.87-43.42-3.71-5.54-6.39-9.16-7.47-10.69-30.8-43.53-78.18-155.82-105.14-196.14-.92-1.38-1.97-2.93-1.97-2.93-4.77-7.04-16.05-23.35-31.67-42.89-5.79-7.24-56.66-70.26-102.29-95.8-1.72-.96-13.08-7.35-27.46-15.13-16.88-9.12-33.88-18.02-50.64-27.34-22.06-12.26-42.56-27-62.62-42.16-20.27-15.32-39.16-32.46-58.88-48.53-9.43-7.69-19.39-14.74-29.07-22.13-6.13-4.68-12.05-9.67-18.31-14.16-11.96-8.57-24.08-16.9-36.19-25.27-1.83-1.26-3.86-2.25-5.86-3.26-12.91-6.54-25.77-13.15-38.77-19.52-6.71-3.28-13.64-6.1-20.47-9.12-.46-.2-.97-.29-1.41-.51-18.99-9.93-37.98-19.87-56.94-29.85-.61-.32-1.02-1.03-1.58-1.62,2-2.59,4.51-1.28,6.02-.23,4.54,3.16,14.65,5.84,20.21,7.32,3.51.93,8.69,1.74,15.54.83,6.75-.68,13.63-1.62,20.54-2.04,16.34-.98,32.73-1.36,49.03-2.72,5.81-.48,11.81-2.33,17.06-4.9,8.07-3.96,9.6-15.61,3.04-21.59-9.93-9.05-19.7-18.47-30.63-26.18-9.67-6.83-18.22-15.53-29.99-19.38-14.28-4.67-28.35-9.01-43.85-7.47-14.46,1.44-28.73,3.45-42.81,6.95-1.69.42-3.41.93-5.14,1.01-11.45.53-21.77,4.99-32.27,8.96-3.16,1.2-6.82,2.16-10.09,1.79-10.13-1.12-20.34-1.99-29.8-6.65-5.34-2.63-11.24-4.14-16.85-6.22-3.2-1.19-6.35-2.53-9.3-5.14,4.95-.06,9.9-.24,14.85-.15,20.45.36,40.92,1.43,61.35,1.03,16.16-.32,32.39-1.69,48.41-3.88,17.23-2.35,34.24-6.32,51.38-9.37,18.6-3.31,37.15-6.44,56.16-7.48,15.96-.87,31.39-.04,46.51,4.53,9.26,2.8,18.1,6.98,27.16,10.46,13.97,5.36,27.95,10.73,41.99,15.92,2.76,1.02,5.81,1.64,8.75,1.71,13.12.32,25.73,3.46,38.27,6.82,3,.81,5.84,2.77,8.36,4.71,16.98,13.11,33.76,26.47,50.81,39.48,4.12,3.15,9.15,5.08,13.55,7.9,16.16,10.37,32.37,20.68,49.89,28.63,12.26,5.56,24.76,10.6,37.21,15.73.45.18,1.99,1.27,4.68,3.14,6.61,4.59,23.99,17.2,49.5,44.44,15.38,16.42,18.69,23.26,21.86,27.46,3.43,4.54,5.69,9.7,7.26,15.4,2.09,7.56,6.4,14.49,8.59,22.03,2.71,9.34,6.28,18.33,9.32,27.5,1.41,4.25,3.71,9.43,8.46,19.76,16.58,36,24.86,54,40.06,70.36,3.37,3.62,5.14,5.12,11.31,11.81,12.11,13.14,20.23,23.61,23.1,27.29,36.7,46.98,47.34,48.89,60.07,76.44,12.46,26.95,16.19,55.22,17.21,63.32.69,5.52,1.01,2.42,1.84,22.27.96,22.94,1.71,45.93,9.37,67.89,3.53,10.11,8.14,19.83,12.05,29.81,4.63,11.82,12.18,22.38,15.05,34.96,2.94,12.88,6.82,25.61,8.82,38.64,2.69,17.5,5.09,35.03,8.72,52.38,1.53,7.3,2.43,14.8,2.75,22.25.21,4.89,1.38,9.19,3.15,13.66,3.9,9.89,4.67,13.8,6.98,21.2,2.02,6.47,7.04,24.51,4.44,25.67Z"/></g></svg>