<svg id="Layer_2" xmlns="http://www.w3.org/2000/svg" viewBox="0 0 1159.07 2252.72"><defs><style>.cls-1{fill:#1a1a1a;}</style></defs><g id="_Ñëîé_1"><path class="cls-1" d="M1158.24,1604.6c-.5-10.21-1.07-20.42-1.37-30.63-.42-13.96-.64-27.93-.91-41.89-.33-16.89-5.18-33.39-2.95-50.61,1.82-14.03,1.61-28.37,1.69-42.58.1-16.69,2.93-33.21,1.26-50.08-2.37-23.89-3.3-25.96-4.62-47.16-2.73-43.9,4.47-101.36,1.4-115.37-2.22-10.14-5.33-20.27-5.33-20.27,0,0,0,0,0,0-2.86-9.53-6.19-18.92-8.99-28.47-2.03-6.92-3.2-14.1-5.31-20.99-3.38-11.06-5.63-22.23-5.61-33.84,0-3.48-.21-7-.76-10.43-2-12.31-4.64-24.53-6.17-36.89-1.56-12.62-2.08-25.38-3.1-38.07-1.22-15.14-1.35-30.37-6-45.11-2.77-8.77-4.47-17.88-6.73-26.82-3.24-12.79-6.16-25.67-9.97-38.29-2.96-9.78-6.32-19.58-10.84-28.71-8.62-17.41-15.18-35.81-25.56-52.41-7.93-12.69-14.74-26.07-22.38-38.95-3.44-5.8-6.24-10.03-8.88-13.65-11.96-16.41-19.67-25.5-26.34-33.81-20.06-24.96-30.67-51.59-40.61-76.51-4.46-11.19-3.34-10.16-7.32-19.31-8.81-20.27-16.46-41.43-33.04-57.32-1.07-1.03-1.85-2.35-2.8-3.51-12.52-15.23-24.89-30.59-37.63-45.63-8.21-9.7-17.07-18.86-25.45-28.42-7.22-8.24-13.92-16.94-21.31-25.02-17.75-19.41-33.34-40.33-46.82-62.96-8.49-14.26-14.41-29.6-20.9-44.7-4.32-10.07-8.7-20.37-10.96-31-3.2-15.04-6.72-30.01-7.54-45.65-1.13-21.63-4.04-43.15-4.05-64.9,0-20.42-.84-40.84-1.29-61.26-.18-8.21-.33-16.41-.42-24.62-.07-5.96.56-12-.15-17.87-1.98-16.32-3.31-32.72-7.08-48.82-1.87-7.97-2.69-16.26-3.3-24.45-.65-8.69.12-17.5-.8-26.15-1.72-16.31.07-32.33,2.37-48.39-3.35-1.02-6.69-2.05-10.04-3.07-1.67,4.43-3.37,8.84-5,13.28-6.33,17.34-12.33,34.8-19.06,51.98-4.22,10.77-5.93,21.45-3.88,32.92,2.2,12.28,4.52,24.62,5.45,37.03,2,26.59,5.57,53.12,3.4,79.93-1.25,15.48-2.68,30.88-7.91,45.59-4.35,12.22-9.61,24.13-13.74,36.42-5.44,16.19-12.69,31.48-21.47,46.06-9.71,16.12-22.13,30.18-34.44,44.29-4.09,4.69-8.23,9.47-13.02,13.37-10.61,8.64-21.77,16.6-32.49,25.1-16.22,12.87-32.37,25.84-48.34,39.02-6.73,5.55-12.65,12.11-19.46,17.55-12.29,9.81-24.66,19.48-35.69,30.75-4.88,4.99-9.9,9.95-15.41,14.21-20.81,16.1-34.95,37.56-47.96,59.78-5,8.53-7.86,18.3-11.9,27.42-6.51,14.69-10.99,29.91-13.46,45.83-.93,6.01-3.18,12.06-6,17.48-3.32,6.38-7.77,12.2-11.98,18.08-7.82,10.93-15.77,21.78-23.79,32.57-4.01,5.39-8.31,10.57-12.47,15.86-2.78,3.53-5.6,7.02-8.29,10.62-7.02,9.38-14.64,18.4-20.78,28.33-5.73,9.28-10.09,19.44-14.65,29.4-9.57,20.9-18.13,42.1-23.32,64.68-4.86,21.13-10.5,42.14-19.87,61.9-10.3,21.71-17.44,44.6-24.98,67.34-1.58,4.77-1.8,8.87-2.26,11.68-3.07,18.76-3.34,36.41-2.59,45.59-15.94,18.55-25.21,30.2-34.36,46.95-3.34,6.13-10.59,16.45-14.44,31.91-3.68,14.77-8.09,29.37-12.39,43.99-2.46,8.38-5.76,16.54-7.91,25-2.85,11.27-7.45,21.69-13.7,31.37-9.2,14.25-18.69,28.32-28.05,42.47-2.61,3.95-5.61,7.72-7.73,11.92-9.18,18.15-15.27,37.52-20.17,57.1-5.14,20.56-8.48,41.57-12.55,62.39-.48,2.44-.49,4.98-.92,7.43-.97,5.45-2.26,16.22-5.11,26.4-3.19,11.38-4.88,10.68-12.37,31.52-.51,1.41-2.33,6.27-4.35,12.76-2.67,8.58-5.96,17.07-7.57,25.86-1.58,8.58-5.74,21.44-9.07,37.52-4.61,22.23-2.77,20.65-6.6,39.04-3.02,14.5-6.5,29.45-13.45,52.92-2.5,8.45-3.91,16.9-4.82,25.53-.38,3.61-.48,7.26-.71,11.1,5.44.44,9.25-1.19,12.16-4.52,4.75-5.45,9.87-10.72,13.7-16.78,6.1-9.68,11.12-20.03,16.87-29.95,4.87-8.41,10.55-16.38,15.1-24.95,7.33-13.79,13.51-28.07,22.82-40.94,5.52-7.63,11.43-12.72,20.11-15.22,10.77-3.11,21.51-6.34,32.3-9.36,2.92-.82,5.99-1.06,9-1.57.21.52.41,1.04.62,1.56-3.14,3.11-6.09,6.45-9.47,9.28-9.7,8.13-17.46,18.56-29.13,24.38-2.48,1.24-4.6,3.41-3.87,6.6.28,1.24,1.94,3.29,2.51,3.14,2.72-.69,6.2-1.28,7.74-3.23,6.84-8.68,14.74-16.22,23.04-23.43,5.27-4.58,10.82-8.96,15.42-14.16,4.71-5.32,9.86-9.85,15.92-13.42,8.82-5.19,17.61-10.46,26.59-15.37,2.23-1.22,5.14-1.21,7.75-1.73,4.34-.87,8.98-1.03,12.96-2.74,5.19-2.22,9.69-5.97,14.77-8.51,12.61-6.31,25.73-11.62,37.66-19.26.76-.48,1.62-.81,2.82-1.4-.32,1.06-.32,1.62-.6,1.9-13.51,13.31-26.98,26.66-40.65,39.81-2.45,2.36-5.48,4.44-8.62,5.71-8.55,3.44-17.18,6.78-26,9.42-13,3.89-24.1,11-34.14,19.68-12.45,10.78-24.35,22.2-36.39,33.44-1.79,1.67-3.39,3.71-4.55,5.86-1.33,2.46-1.99,5.23,1.98,7.75,1.33-1.4,2.85-2.83,4.17-4.42,4.13-4.99,7.64-10.64,12.38-14.93,11.28-10.19,22.77-20.22,34.86-29.41,12.48-9.49,27.8-12.42,43.73-17.17-3.06,6.58-5.53,10.96-12.11,12.7-5.1,1.34-9.99,4.56-14.23,7.89-10.19,8.01-19.98,16.54-29.85,24.96-3.03,2.58-6.07,5.25-8.58,8.32-.91,1.11-1,4.15-.13,5.17,1.78,2.1,4.04,1.16,5.64-.95,1.5-1.98,2.61-4.44,4.5-5.9,9.57-7.37,19.34-14.48,29.22-21.83.28.94.49,1.25.4,1.41-10.15,18.24-24.08,32.92-41.55,44.31-2.28,1.48-4.48,3.18-6.38,5.11-1.94,1.97-2.52,4.39.02,6.5,2.31,1.92,4.02.69,5.78-1.1,3.14-3.19,5.96-7.06,9.74-9.19,9-5.07,15.35-12.6,21.57-20.47,9.12-11.54,18.26-23.07,27.75-34.31,2.09-2.47,5.44-4.61,8.58-5.35,17.84-4.21,34.82-10.54,50.98-19.18.97-.52,2.4-.16,4.02-.22-5.87,7.8-11.37,14.87-16.61,22.13-3.34,4.62-7.5,7.85-12.82,9.91-3.94,1.53-7.83,3.37-11.41,5.59-11.67,7.24-23.23,14.63-34.73,22.14-3.96,2.59-7.88,5.38-11.34,8.6-8.78,8.15-17.31,16.56-25.9,24.91-2.67,2.6-4.97,5.61-7.82,7.97-4.97,4.1-5.14,5.38.3,10.92,8.27-5.42,11.27-15.59,18.83-21.7,7.56-6.1,14.18-13.38,21.88-19.27,7.69-5.89,16.06-10.94,24.41-15.9,8.08-4.8,14.86-12.18,26.56-13.91-3.55,4.55-5.74,8.24-8.74,11.07-11.44,10.78-23.09,21.33-34.77,31.85-3.32,2.99-6.76,5.9-11.57,6.48-1.38.17-2.73,1.22-3.93,2.09-2.5,1.79-3.04,6.06-1.22,8.65,1.59,2.27,3.97,2.15,7.04-.43,1.52-1.28,2.85-2.82,4.43-4.01,16.45-12.28,31.8-25.71,44.44-42,3.96-5.1,7.47-10.57,11.69-15.44,2.37-2.74,5.49-5.16,8.76-6.72,8.29-3.96,16.93-7.19,25.27-11.05,5.56-2.57,10.85-5.71,16.26-8.59.44.47.87.95,1.31,1.42-5.29,7.73-9.82,16.15-16.06,23.02-9.21,10.15-19.45,19.38-29.59,28.64-7.91,7.23-16.07,14.25-24.61,20.7-6.94,5.24-14.51,9.69-22,14.15-4.92,2.93-10.51,4.78-15.24,7.95-7.04,4.7-13.7,9.99-20.29,15.32-2.96,2.4-3.33,6.18-1.53,7.91,2.21,2.12,5.68,1.4,8.35-1.75.48-.57.94-1.18,1.33-1.81,3.5-5.78,8.65-9.38,14.73-12.22,9.91-4.65,20.17-8.79,28.27-16.62,1.5-1.45,3.83-2.04,5.77-3.02.05,1.94-.42,3.39-1.4,4.26-8.17,7.27-13.43,16.61-18.77,25.92-3.23,5.62-6.67,11.12-10.01,16.67-.64,1.07-1.44,2.08-1.87,3.23-1.07,2.82.17,6.89,2.56,7.87,3.49,1.43,5.16-1.14,6.26-3.66,1.39-3.19,2.13-6.65,3.37-9.92,1.49-3.95,2.8-8.05,4.92-11.66,3.01-5.14,6.65-9.91,10.08-14.8.86-1.22,1.75-2.51,2.89-3.43,8.34-6.72,16.69-13.43,25.18-19.94,1.8-1.38,4.2-1.97,6.8-3.13.03,1.89.24,2.67.02,3.31-4.57,13.83-9.56,27.26-22.47,36.07-6.31,4.31-11.82,9.8-18,15.01.21,1.12.16,2.77.86,3.97.65,1.12,2.03,2.29,3.24,2.49,1.6.26,3.4-.24,5.01-.75,1.03-.32,1.88-1.24,3.43-2.32-4.01,6.65-7.59,12.35-10.9,18.2-1.08,1.9-1.7,4.16-2.03,6.33-.15.96.73,2.77,1.52,3.02,1.23.39,3.24.28,4.09-.51,1.39-1.3,2.2-3.27,3.11-5.04,1.49-2.88,2.58-5.99,4.32-8.69,5.26-8.13,11.54-15.52,15.46-24.61,3.31-7.68,9.68-13.09,16.59-17.86,14.78-10.2,27.58-23.02,42.91-32.51,1.45-.9,2.61-2.33,3.75-3.64,9.68-11.12,18.72-22.71,26.29-35.39,1.66-2.78,2.82-5.9,4.73-8.49,5.28-7.18,10.68-14.17,14.98-22.1,8.79-16.21,18.43-31.96,27.68-47.92,1-1.72,2.14-3.49,2.5-5.38.22-1.16-.56-3.17-1.51-3.73-.9-.53-3.08-.1-3.89.71-1.73,1.73-3.17,3.86-4.33,6.03-4.22,7.93-7.8,16.24-12.5,23.86-13.09,21.22-26.09,42.53-40.21,63.07-6.86,9.98-15.53,18.97-24.47,27.21-11.36,10.48-23.82,19.76-35.86,29.5-.99.8-2.33,1.17-3.7,1.84-1.22-6.11,2.8-10.01,3.99-14.72,3.1-12.3,11.16-20.27,21.92-26.07,1.1-.59,2.21-1.19,3.22-1.92,7.85-5.71,15.99-11.09,21.46-19.46.93-1.42,2.4-2.49,3.58-3.75,2.37-2.52,4.78-5,7.04-7.62,1.79-2.07,3.02-4.78,5.12-6.38,9.57-7.3,14.8-18.06,22.11-27.15,2.95-3.67,5.69-7.52,8.25-11.47,4.86-7.54,9.3-15.36,14.34-22.77,3.73-5.48,8.14-10.49,12.18-15.61,7.91,4.78,8.56,6.28,4.89,13.36-3.33,6.42-7.33,12.49-10.68,18.9-5.98,11.44-14.13,21.77-17.19,34.73-2.12,8.98-5.17,17.73-7.42,26.68-1.2,4.75-3.01,8.82-6.68,12.22-6.4,5.93-12.28,12.44-18.85,18.17-5.8,5.06-12.38,9.21-18.36,14.08-17,13.82-31.52,29.8-42.63,48.82-7.44,12.74-15.91,24.78-25.61,35.96-2.37,2.73-4,6.32-5.13,9.78-.55,1.69.2,4.84,1.49,5.82,1.36,1.02,4.44.93,6.12.07,2.78-1.42,5.04-3.85,7.69-5.99-3.89-7.77.82-13.14,4.64-18.62,8.68-12.44,17.88-24.54,26.2-37.22,6.7-10.22,15.41-18.2,24.84-25.61,3.18-2.49,6.4-4.94,9.6-7.4-6.87,9.56-14.92,17.94-22.21,26.94-7.25,8.95-13.64,18.56-17.58,29.63,11.68-12.86,20.08-28.24,32.87-40.22,12.73-11.93,22.15-27.2,37.41-38.54-.55,5.28-1.4,9.17-1.26,13.03.22,6.06-1.91,10.64-6.8,14.1-1.42,1.01-2.69,2.23-3.96,3.43-8.18,7.69-16.62,15.12-24.41,23.19-6.04,6.26-11.44,13.18-16.79,20.07-7.48,9.65-14.69,19.52-21.91,29.36-1.01,1.37-1.51,3.13-2.16,4.75-3.8,9.49-7.58,18.99-11.34,28.5-.36.92-.73,1.9-.76,2.86-.08,2.43.68,4.91,3.34,4.99,1.56.04,3.57-1.41,4.65-2.77,1-1.25,1.01-3.28,1.5-4.96,3.98-13.73,9.61-26.6,17.39-38.74,6.93-10.81,15.78-19.93,23.62-29.93,5.49-7.01,12.01-13.21,18.18-19.68.83-.87,2.26-1.17,3.41-1.73-2.39,5.59-5.82,10.08-9.11,14.66-2.91,4.05-5.7,8.18-8.5,12.3-4.45,6.58-8.89,13.17-13.26,19.8-2.04,3.1-4.02,6.25-5.87,9.47-4.58,7.98-8.97,16.06-13.65,23.98-1.32,2.23-1.95,4.2.07,6.01,2.18,1.95,4.39.8,5.85-1.06,2.44-3.14,5.09-6.3,6.69-9.88,5-11.23,11.1-21.65,18.56-31.49,7.65-10.1,14.1-21.1,21.22-31.62,1.53-2.26,3.66-4.12,5.52-6.16.53.3,1.06.6,1.58.9-1.06,4.29-1.92,8.64-3.21,12.85-2.99,9.79-6.22,19.52-9.3,29.28-2.51,7.95-6.33,15.15-11.72,21.54-2.24,2.66-4.19,5.58-6.24,8.4-6.6,9.09-13.87,17.59-22.85,24.4-3.57,2.71-4.88,6.27-5.23,10.29-.3,3.44,3.08,5.38,6.16,3.69,1.03-.56,1.8-1.65,2.59-2.59,6.44-7.6,12.92-15.16,19.24-22.85,4.12-5.01,8.27-10.02,11.9-15.38,7.09-10.43,11.15-22.31,15-34.16,3.39-10.44,5.74-21.2,8.71-31.78.74-2.64,2.09-5.11,3.15-7.65.52.14,1.05.28,1.57.42,1.35,8.49,3.27,16.78,1.86,25.7-3.03,19.21-8.99,37.39-18.1,54.48-6.69,12.53-14.1,24.68-21.16,37.01-1.98,3.46-4.23,6.83-5.69,10.51-.67,1.7-.46,5.05.66,5.88,2.54,1.88,5.19.36,7.04-2.07.45-.59.68-1.33,1.04-1.99,5.27-9.59,10.47-19.22,15.87-28.75,1.84-3.24,3.54-7.08,6.4-9.11,8.19-5.81,12.37-14.15,16.34-22.8,3.74-8.15,7.07-16.53,11.39-24.37,8.74-15.86,14.67-32.71,18.92-50.21,2.7-11.16,5.19-22.37,7.85-33.53,1.14-4.78,3.41-9,7.31-13.71-.1,3.93-.06,6.64-.25,9.34-1.42,20.41-3.23,40.81-4.23,61.24-.92,18.8-8.04,34.83-20.04,48.9-11.65,13.65-23.82,26.87-35.17,40.76-4.35,5.32-7.21,11.89-10.54,18-2.59,4.76-1.66,9.04,2.36,12.59,4.24-.26,4.78-3.15,5.09-6.3.6-6.14,2.99-11.58,6.88-16.3,9.22-11.17,18.33-22.44,27.88-33.31,4.3-4.9,9.56-8.96,15.57-14.48-.3,3.74-.41,5.68-.63,7.6-1.34,11.81-5.26,22.91-10.38,33.49-3.67,7.58-8.4,14.66-12.88,21.83-.84,1.35-2.57,2.49-4.13,2.99-6.24,1.98-7.07,7.43-7.86,12.52-.65,4.19,3.77,7.04,7.55,4.9,2.42-1.37,4.53-3.74,6.08-6.12,3.37-5.18,6.3-10.66,9.4-16.02,2.61-4.52,5.69-8.84,7.74-13.6,7.08-16.45,9.64-34.02,12.32-51.57,1.05-6.84,3.05-13.55,4.73-20.28,2.88-11.53,8.63-22.16,9.66-34.33.86-10.16,3.06-20.2,4.76-30.28.3-1.79,1.04-3.52,1.96-6.54.93,2.14,1.55,2.96,1.61,3.83.48,6.71,1.09,13.43,1.19,20.15.16,11.73.52,23.5-.17,35.19-1.19,20.11,1.44,40.52-4.25,60.29-5.04,17.5-8.75,16.41-14.03,36.99-2.95,11.53-6.11,23.85-4.52,39.42.88,8.65,5.2,18.91,12.82,39.81,4.01,11.01,8.8,21.75,13.65,32.43,4.22,9.31,8.88,18.43,13.58,27.51,4.11,7.95,4.36,10.68,8.1,19.91,11.98,29.55,22.8,48.65,29.93,67.01.4,1.04,1.99,5.19,4.3,10.82,2.6,6.33,4.43,10.39,5.87,13.94,8.29,20.38,23.79,34.91,40.4,48.15,6.27,5,14.37,7.91,21.94,11.05,11.96,4.98,22.57,11.54,30.64,21.9,8.33,10.69,15.33,17.55,22.3,28.09,7.44,11.26,14.39,24.61,28.28,51.32.04.07,1.48,3.56,4.2,7.93,6.34,10.16,12.41,20.51,19.31,30.29,6.54,9.27,15.94,13.23,22.88,2.6.49-.76,1.47-1.2,1.6-1.31-.81-10.85-2.33-21.03-2.14-31.18.23-12,.85-23.95-.84-35.87-2.88-20.25-5.77-40.5-8.77-60.73-2.16-14.53-7.09-28.56-7.83-43.34-.53-10.74-.6-21.46,3.33-31.75,8.51-22.27,11.05-45.37,9.47-69.03-1.44-21.65-3.09-43.29-4.3-64.96-1.04-18.5-3.74-36.71-7.64-54.81-1.93-8.98-2.64-18.22-3.82-27.35-2.03-15.82-4.39-31.62-5.82-47.49-.7-7.84-.25-15.91.83-23.72.7-5.05,3.58-9.77,5.31-14.7,5.84-16.67,10.89-24.16,14.62-31.05,16.19-29.91,20.82-68.65,22.58-68.28,1.82.37-3.68,41.45-14.05,75.93-3.59,11.92-5.22,17.95-6.87,21.3-5.53,11.25-10.15,22.71-13.08,34.89-.62,2.58-1.18,4.87.77,6.99,2.27,2.48,4.79,1.8,7.44.72.61-4.97,1.14-9.67,1.76-14.36.77-5.77,2.27-11.2,6.54-15.59,1.51-1.55,2.91-3.6,3.42-5.66,3.74-15.01,7.37-30.06,10.78-45.15,2.96-13.12,5.59-26.32,8.42-39.47.03-.16.68-.18,1.39-.35,0,21.65-1.77,42.92-5.22,64.18-3.03,18.67-9.89,35.43-20.41,50.93-4.85,7.15-7.22,15.31-9.05,23.63-.81,3.69.93,7.11,3.75,8,2.75.87,6.66-.98,7.82-4.31.97-2.78,2.11-6.06,1.5-8.73-1.56-6.85.98-12.46,4.6-17.5,7.01-9.76,9.95-21.22,14.12-32.12,2.48-6.46,4.16-13.44,4.91-20.32,3.44-31.28,5.67-62.62,4.09-94.14-.37-7.39-.57-15.37,1.78-22.17,4.22-12.22,10.41-23.77,15.83-35.57.41-.89,1.23-1.58,1.87-2.36.34,5.66-.79,10.69-1.51,15.77-2.86,19.97-5.85,39.92-8.27,59.94-1.01,8.38-1.77,17.03-.84,25.35,2.22,19.89,3.9,39.68,2.86,59.76-1.16,22.45-6.16,43.95-13.61,65-.83,2.33-1.74,4.97-3.45,6.59-7.43,7.03-6.4,16.96-9.16,25.55-.83,2.59.62,5.56,3.31,5.78,1.99.17,4.59-1.45,6.13-3.04,1.23-1.27,1.37-3.68,1.84-5.61,1.47-6.03,2.21-12.33,4.42-18.07,6.38-16.59,11.6-33.36,14.3-51.06,3.6-23.65,4.33-47.33,1.03-70.83-3.4-24.25-.02-47.68,4.67-71.19.74-3.7,2.16-7.26,3.27-10.88,1.29,5.57,1.34,10.96,1.58,16.34.88,20.18,2.17,40.36,2.64,60.55.48,20.33,6.25,39.9,7.89,60.03.1,1.21.62,2.43,1.12,3.56,4.31,9.66,3.69,18.83-2.24,27.72-2.06,3.1-3.7,6.53-5.14,9.97-2.77,6.62-6.85,12.81-6.89,20.36-.02,3.63,1.91,6.56,4.64,6.38,3.14-.2,5.15-2.16,5.28-5.31.39-9,4.66-16.76,7.73-24.9.54-1.44,1.79-2.62,3.06-4.42,8.97,13.1,10.12,26.54,6.43,40.73-.5,1.93-1.29,3.83-1.5,5.79-.34,3.15,2.62,8.04,4.9,8.61,2.14.53,6.08-2.35,7.26-5.55.41-1.11.38-2.43.34-3.64-.13-3.97-.75-7.96-.48-11.89.73-10.26-1.13-19.88-5.96-28.95-.7-1.32-1.29-2.71-1.87-4.09-3.97-9.4-6.55-18.86-2.26-28.97.95-2.23.97-4.87,1.36-7.33,3.1-19.28-.96-38.33-1.91-57.47-.64-12.83-.41-25.72-2.31-38.49-.59-3.92.12-8.04-.51-11.95-3.25-20.33-.08-40.3,3.03-60.29.31-1.97,1.14-3.87,1.73-5.8,1.2,2.7,1.48,5.15,1.49,7.6.07,13.98.03,27.96.14,41.93.04,5.7,1.13,11.5.4,17.08-2.17,16.53-1.93,32.8,2.69,48.9,2.41,8.39,5.11,16.72,7.19,25.19,4.23,17.22,8.11,34.49,4.83,52.46-.7,3.86-.56,7.94-.37,11.9.49,10.22,1.14,20.43,1.89,30.63.42,5.72,1.19,11.4,1.75,17.11.23,2.33,1.43,4.03,3.73,3.75,1.72-.21,3.79-1.16,4.84-2.46,2.69-3.33,2.74-6.81.03-10.24-2.94-3.74-4.2-7.76-4.24-12.45-.04-4.47-.67-8.94-.84-13.42-.22-6.05.16-12.03,4.11-17.07,1.22-1.56,2.79-2.85,4.06-4.39,3.43-4.14,2.86-5.45-.01-10.35-2.32-3.95-4.34-8.69-4.51-13.15-.28-7.15.84-14.4,1.81-21.54,1.21-8.9,2.72-17.78,4.39-26.61.72-3.77,2.19-7.4,3.32-11.1.51-.01,1.02-.03,1.53-.04,1.27,3.41,2.79,6.75,3.76,10.24,2.74,9.86,5.1,19.83,7.93,29.67,1.09,3.8.92,7.27-.18,10.98-2.84,9.57-5.02,19.34-8.21,28.78-5.55,16.4-5.27,33.41-6.2,50.32-.41,7.51,3.26,13.49,7.49,19.13,2.14,2.85,5.48,2.62,7.49-.36,1.05-1.55,1.39-3.57,1.93-5.03-.68-.95-.88-1.51-1.28-1.72-7.6-4.17-9.76-10.72-8.58-18.92,1.84-12.8,3.43-25.64,5.3-38.44,1.2-8.17,4.69-15.52,9.46-23.16,1.23,1.36,1.48,3.05,2.03,4.62,0,0,5.29,12.39,9.04,25.38,6.15,21.29,12.23,89.58,16.21,124.79.54,4.75,2.08,13.25,5.11,24.17,3.36,12.09,8.24,23.45,17.16,32.84,6.33,6.67,11.69,14.22,18.84,20.2,3.02,2.52,5.53,5.8,7.73,9.1,8.47,12.64,17.16,25.16,24.94,38.22,9.46,15.87,17.84,32.37,27.13,48.34,10.04,17.26,20.54,34.26,30.98,51.28,2.2,3.59,4.68,7.14,7.66,10.06,1.74,1.7,4.87,3.06,7.12,2.74,1.4-.2,3.04-3.73,3.31-5.91.86-6.92,1.03-13.92,1.66-20.87.31-3.43.69-6.93,1.62-10.23,2.5-8.88,5.73-17.57,7.93-26.52,4.41-17.94,8.25-36.01,12.48-53.99,1.88-8.02,4.36-15.91,6.15-23.95,4.97-22.41,9.94-44.83,14.41-67.35,1.45-7.28,2.15-14.92,1.78-22.32-1.14-23.12,1.2-45.76,7.33-68.05,5.69-20.7,11.43-41.39,16.95-62.14,1.79-6.74,3.13-13.61,4.38-20.47,1.77-9.7.38-19.34-.58-29.05-4.24-42.84-14.84-79.9-14.84-79.9-10.58-46.03-15.87-69.04-17.86-91.27-1.26-14.1-1.02-21.8-3.58-42.51-2.2-17.79-4.95-35.54-8.06-53.2-2.81-15.97-6.53-31.78-9.66-47.7-1.4-7.14-2.35-14.37-3.5-21.56,7.08,10,13.02,20.34,19.28,30.5,6.77,10.99,11.55,22.79,13.94,35.38,3.27,17.24,12.74,31.33,22.34,45.26,5.64,8.19,12.68,15.42,19.16,23.02,13.97,16.36,26.66,33.61,37.36,52.3,9.54,16.67,19.19,33.28,28.85,49.88,1.12,1.93,2.77,3.55,3.96,5.45,1.77,2.83,4.38,5.03,7.31,3.23,1.87-1.15,3.24-4.47,3.32-6.87.21-5.69-.52-11.41-.8-17.12ZM244.76,1625.01c8.94-8.22,17.89-16.45,27.55-25.34-2.74,12.35-9.53,17.58-27.55,25.34ZM188.09,1512.99c4.82-7.09,10.79-11.92,16.77-16.56,10.61-8.22,21.64-15.9,32.39-23.94,8.57-6.41,16.89-13.17,25.53-19.48,4.82-3.52,5.43-3.29,11.5-.84-7.53,9.94-70.83,54.81-86.2,60.82ZM286.37,1389.18c7.04-7.71,13.82-15.72,21.45-22.8,17.49-16.23,32.7-34.31,45.58-54.33,3.76-5.84,6.41-12.39,9.69-18.56,17.2-32.38,34.33-64.8,51.74-97.06,3.33-6.17,6.08-10.02,8.14-12.57,1.57-1.95,2.82-3.34,3.41-3.98,20.85-22.79,36.85-38.87,49.8-58.97,1.65-2.57,4.08-7.57,9.74-17.11,11.21-18.88,21.92-37.99,30.82-58.11,6.97-15.75,6.68-11.48,10.89-19.54,14.08-26.97,18.98-43.57,35.43-77.23,1.12-2.3,1.41-2.64,2.31-4.71,5.82-13.47,11.79-26.88,17.37-40.44,9.11-22.12,17.97-44.33,26.91-66.52,4.75-11.79,9.52-23.58,14.14-35.42,1.27-3.24,2.02-6.69,3-10.04,2.52-8.62,5.05-17.24,7.54-25.87,2.42-8.39,4.91-16.76,7.16-25.2,2.23-8.36,6.59-15.41,11.82-22.25,11.06-14.47,16.54-23.66,23.35-32.96,12.33-16.83,19.82-30.86,25.5-41.49,10.95-20.51,17.8-37.96,25.52-57.65,3.6-9.19,6.42-16.86,8.3-22.12.21,1.74.6,3.48.59,5.22-.02,13.94.04,27.89-.23,41.83-.23,11.72-.84,23.44-1.34,35.15-.66,15.46-1.26,30.93-2.09,46.38-.87,15.92-1.28,31.92-3.16,47.73-3.12,26.24-4.01,52.73-9.3,78.74-2.93,14.4-4.06,29.21-7.47,43.48-4.28,17.91-7.98,35.98-14.99,53.26-7.5,18.49-13.04,37.76-19.78,56.57-5.38,15.02-10.94,30.01-17.13,44.71-2.37,5.63-6.16,10.92-10.26,15.52-16.04,17.97-32.67,35.42-48.65,53.44-13.71,15.46-10.52,14.99-22.88,28.58-2.82,3.11-15.14,16.52-35.1,33.22-16.71,13.98-15.8,11.05-25.69,20.02-19.5,17.69-29.44,36.53-35.9,45.03-7.86,10.34-12.19,22.63-16.99,34.58-3.52,8.77-7.16,17.49-10.61,26.29-4.27,10.89-8.44,21.83-12.6,32.76-4.33,11.37-9.05,22.62-12.75,34.2-3.31,10.38-8.27,20.36-8.58,31.62-.04,1.59-1.58,3.64-3.01,4.59-3.74,2.46-7.64,4.87-11.79,6.51-12.03,4.76-23.19,11.75-36.19,14.09-2.38.43-4.54,2-6.85,2.95-5.52,2.26-11.2,4.2-16.57,6.77-4.22,2.02-8.41,4.37-12.01,7.31-4.74,3.87-8.93,5.95-15.48,3.55-12.16-4.46-24.74-7.77-37.98-11.82-.44-6.47.71-12.46,5.18-17.36ZM270.67,1403.84c-1.96.54-4.89,1.35-8.43,2.34-41.51,11.62-62.53,16.93-69.87,21.19-15.52,9-30.48,18.96-45.59,28.67-8.15,5.23-16.57,9.74-27.23,13.11.95-3.12,1.1-5.1,2.07-6.53,9.38-13.82,18.6-27.77,28.46-41.24,9.87-13.49,20.4-26.5,30.68-39.69,15.94-20.46,31.96-40.85,47.83-61.36,3.97-5.13,7.32-10.72,11.23-15.9,12.85-17.01,22.13-29.71,33.92-44.71,41.49-52.78,46.09-57.61,53.45-72.26,4.61-9.16,5.46-12.55,12.64-26.38,2.68-5.17,4.37-8.7,5.04-10.04,10.27-20.32,16.09-40.69,28.44-72.29,5.52-14.11,8.58-22.33,14.22-33.78,6.49-13.18,13.72-26.03,21.19-38.69,8.22-13.95,15.5-28.52,26-41.03,1.28-1.53,2.27-3.34,3.68-4.72,12.02-11.79,20.29-26.46,30.5-39.64,8.55-11.03,17.13-22.04,25.57-33.16,17.64-23.26,34.69-46.99,52.95-69.74,11.03-13.74,20.91-28.62,34.6-40.11,4.35-3.65,2.79-2.13,9.76-8.12,17.19-14.77,24.01-23.23,40.74-36.29,1.77-1.38,3.2-2.46,3.95-3.02-.3,2.74-.23,4.32-.66,5.74-6.32,20.78-12.27,41.68-19.21,62.24-5.9,17.48-12.84,34.61-19.53,51.81-7.69,19.76-15.35,39.54-23.51,59.12-5.75,13.8-12.19,27.31-18.53,40.85-8.83,18.84-13.18,28.29-19.44,40.47-7.38,14.33-9.56,17.45-16.94,32.28-6.31,12.67-6.81,13.8-13.11,27.73-7.7,17.05-16,33.76-25.74,49.77-11.77,19.34-16.17,29.86-18.81,33.18-11.89,14.99-34.03,35.45-35.45,36.75-1.9,1.75-4.52,4.16-7.67,7.92-5.46,6.51-9.76,13.85-13.01,21.95-2.22,5.52-5.29,10.69-8,16.02-2.71,5.33-5.31,10.71-8.18,15.94-9.47,17.29-19.13,34.47-28.54,51.79-4.03,7.42-6.93,15.53-11.56,22.52-11.44,17.25-23.45,34.13-38.93,48.18-7.17,6.51-6.49,5.95-11.23,10.97-13.66,14.45-22.42,28.38-27.78,38.15ZM641.59,1058.21c-1.71,3.72-2.59,5.98-3.74,8.09-11.07,20.37-22.75,40.43-33.13,61.15-11.64,23.23-24.68,45.6-37.89,67.93-16.9,28.55-33.02,57.56-49.9,86.12-9.25,15.65-19.81,30.42-31.91,44.11-7.48,8.46-15.2,16.35-24.65,22.71-8.03,5.4-15.25,11.98-22.98,17.83-2.05,1.55-4.68,2.34-7.04,3.47-.47-.5-.95-1-1.42-1.5,2.1-6.89,4.07-13.82,6.34-20.65,4.16-12.54,8.62-24.98,12.74-37.53,5.92-18.06,13.05-35.59,21.46-52.65,2.83-5.73,5.19-14.12,10.78-24.65.95-1.79,4.1-7.63,10.85-17.8,9.79-14.73,17.09-25.73,28.21-36.57,8.17-7.97,6.88-4.62,23.29-18.26,9.89-8.22,21.61-17.96,34.2-32.35,7.2-8.23,7.49-9.54,18.46-22.37,5.47-6.41,11.24-12.57,17-18.72,8.15-8.72,16.39-17.35,24.66-25.95.77-.8,2.05-1.09,4.68-2.42ZM304.11,1442.78c6.59-6.75,19.36-9.41,28.03-5.14-10.07,4.55-19.31,3.39-28.03,5.14ZM313.58,1459.56c-.89.7-1.69,1.58-2.68,2.06-2.85,1.37-5.78,2.57-8.68,3.83-.26-.46-.53-.91-.8-1.37,2.93-3.87,7.31-4.59,12.16-4.53ZM298.49,1422.82c-21.02,13.15-43.42,17.99-67.5,19.71,11.34-9.97,51.84-21.88,67.5-19.71ZM293.78,1437.74c-4.24,5.81-8.95,5.99-15.49,5.48,4.91-4.46,9.67-4.48,15.49-5.48ZM239.32,1491.16c-.93.57-2.13.71-3.88-.09,4.88-3.6,9.77-7.18,14.63-10.8,3.39-2.52,6.77-5.04,10.1-7.63,8.03-6.26,15.89-12.74,24.12-18.72,2.23-1.62,5.48-2.06,8.35-2.51,3.11-.49,6.32-.35,9.49-.49.17.37.33.74.5,1.11-21.1,13.05-42.19,26.11-63.31,39.12ZM249.12,1511.97c7.9-7.23,15.63-14.66,23.52-21.9,2.01-1.84,4.2-3.6,6.59-4.88,14.08-7.52,28.21-14.95,42.39-22.26,2.51-1.29,5.39-1.87,8.11-2.78.18.53.35,1.06.53,1.59-.7.69-1.32,1.48-2.1,2.06-21.39,15.92-42.81,31.8-64.18,47.75-7.48,5.58-15.69,9.5-25.28,12.05,2.1-5.62,6.7-8.21,10.43-11.62ZM227.32,1549.38c-3.29.91-6.59,1.77-10.88,2.91,2.1-9.49,7.75-13.69,14.44-16.88,6.75-3.22,13.79-5.91,20.26-9.61,7.75-4.43,14.88-9.92,22.55-14.52,19.28-11.55,34.51-28.68,54.48-39.28,4.6-2.44,8.76-5.71,13.31-8.25,1.16-.65,3.59-.58,4.51.23,1.89,1.66.86,3.48-.92,4.98-7.81,6.57-15.56,13.22-23.36,19.8-7.81,6.59-15.81,12.95-23.4,19.78-3.47,3.12-6.36,6.96-9.16,10.74-3.05,4.11-6.58,7.31-11.4,9.3-16.81,6.92-32.77,15.91-50.42,20.8ZM340.7,1483.67c-9.79,11.04-20.24,21.26-33.97,27.42,9.48-11.42,21.88-19.23,33.97-27.42ZM297.2,1546.54c-9.5,6.28-20.1,10.93-30.3,16.12-2.09,1.06-4.55,1.4-6.84,2.07-.37-.66-.74-1.31-1.11-1.97,4.7-5.38,9.39-10.77,14.11-16.13.99-1.12,2.33-1.98,3.12-3.21,6.18-9.58,15.59-14.95,25.14-20.53,15.92-9.31,30.13-21,43.57-33.63.89-.83,1.88-1.54,3.1-2.53-1.15,4.45-1.71,5.34-3.96,8.28-8.15,10.68-16.34,21.34-24.31,32.15-6.04,8.2-14.33,13.94-22.53,19.36ZM349.08,1532.05c-12.09,16.79-25.79,32.23-39.71,47.51-8.09,8.88-16.5,17.25-26.79,23.57-1.05.64-1.89,1.64-2.82,2.47-.53-.49-1.06-.99-1.59-1.48.08-.89-.1-1.91.28-2.64,6.9-13.12,15.94-24.62,26.85-34.61,11.19-10.25,22.5-20.36,33.86-30.41,3.67-3.24,7.67-6.11,12.31-8.49-.79,1.37-1.47,2.81-2.38,4.09ZM316.68,1547.69c2.54-9.14,29.07-33.39,42.08-38.04-14.03,12.68-28.05,25.36-42.08,38.04ZM345.03,1506.3c5.37-6.97,10.57-14.08,16.22-20.81,1.57-1.87,4.32-3.67,7.19-1.23-1.51,5.35-6.79,10.76-23.4,22.04ZM367.82,1558.06c1.77-4.31,4.48-8.22,6.72-12.33,2.84-5.23,5.35-10.67,8.49-15.72,3.9-6.26,5.19-13.95,10.74-19.25.85-.81,1.92-1.39,3.64-2.61,2.03,3.06,3.85,5.8,5.76,8.68-14.55,16.93-28.04,33.79-38.14,52.74.89-3.85,1.3-7.9,2.78-11.51ZM404.59,1531.41c-8.58,13.1-16.13,26.92-28.24,37.61-.42-.86-.92-1.48-.79-1.68,3.81-5.6,5.74-12.31,11.08-17.07,3.45-3.08,6.25-7.02,8.78-10.94,2.33-3.62,5.1-6.39,9.18-7.92ZM349.56,1645.52c-.13-1.24.72-3.21,1.74-3.84,9.18-5.61,16.95-12.81,24.66-22.55.93,7.67-3.23,11.72-5.23,16.43-2.22,5.26-4.71,10.41-7.08,15.6-2.26,4.94-4.52,9.88-7.51,16.41-4.77-7.93-5.84-14.98-6.58-22.06ZM385.02,1618.16c-4.37,16.9-8.3,33.92-13.32,50.62-3.79,12.59-7.29,25.45-14.77,36.62-.64.96-1.38,1.86-2,2.69.22-9.24.34-18.3.75-27.34.08-1.85.76-4.09,1.97-5.4,4.83-5.27,7.28-11.68,9.88-18.15,4.19-10.4,8.83-20.61,13.18-30.95,2.07-4.94,3.9-9.98,5.74-14.73-.41,1.94-.82,4.32-1.42,6.64ZM400.58,1664.31c-.71-2.33-1.28-3.24-1.22-4.11.65-9.38-.6-18.86,2.56-28.11,1.41-4.15,1.44-8.79,1.88-13.24.59-5.93,1.85-11.97,1.23-17.79-.87-8.25,1.99-15.07,6.01-21.87-3.66,27.84-4.06,56.07-10.46,85.12ZM351.52,1630.62c.48-3.12.58-5.8,1.33-8.29,1.94-6.44,4.16-12.8,6.26-19.19,2.24-6.82,6.52-12.18,11.6-17.13,13.04-12.7,25.32-26.05,34.88-41.69,1.18-1.93,3.12-3.4,5.64-6.08-4.46,29.86-39.55,84.03-59.72,92.37ZM661.55,2242.39c-5.77.66-7.3-3.37-9.16-6.26-3.92-6.07-7.37-12.44-11.01-18.69-3.88-6.68-7.8-13.34-11.61-20.06-8.13-14.31-16.2-28.66-24.3-42.99-.25-.43-.51-.86-.83-1.25-11.25-13.63-20.67-28.75-34.22-40.55-6.77-5.9-14.45-10.07-22.55-13.02-20.98-7.65-37.46-21.2-50.52-38.58-4.95-6.59-6.69-10.68-14.81-29.25,0,0-10.88-24.9-37.49-83.92-21.54-47.76-27.88-61.32-27.88-61.32-8.47-18.99-13.82-38.91-17.89-59.28-2.33-11.66-.4-21.87,5.63-32.03,3.52-5.93,5.14-12.97,7.81-19.43,4.82-11.65,7.58-23.77,8.08-36.33.22-5.7-.82-11.47-.46-17.15,1.46-22.91,1.48-45.84.85-68.75-.35-12.68-1.65-25.33-2.4-38-.12-2.11.41-4.25.64-6.38.49,0,.98-.02,1.47-.03.38,2.61.98,5.21,1.09,7.83.52,11.96.76,23.94,1.37,35.9,1.02,19.93,2.19,39.84,3.41,59.76.43,6.96,1.64,13.89,1.71,20.85.1,9.72-.23,19.4-3.46,28.85-2.25,6.55-1.61,7,4.75,10.44,3.52-1.95,3.67-5.49,4.2-8.94,3.31-21.71,1.02-43.24-1.51-64.83-1.31-11.14-1.49-22.41-2.21-33.62-1.2-18.64-2.63-37.28-3.52-55.94-.23-4.77,1.23-9.62,1.91-14.44.37-.02.75-.04,1.12-.06.91,2.5,1.98,4.96,2.71,7.52,3.8,13.41,8.59,26.66,11,40.32,2.99,16.92,5.01,34.16,5.61,51.33.96,27.57-2.02,54.92-10.92,81.2-3.17,9.36-8.24,18.06-15.72,24.98-4.21,3.9-5.33,9.94-2.08,14.18,1.32,1.73,3.91,2.93,6.12,3.42,2.72.6,3.82-1.92,4.5-4.09.89-2.85,1.54-5.78,2.26-8.69,1.56-6.33,3.44-12.35,8-17.48,2.35-2.64,3.84-6.55,4.48-10.11,3.28-18.16,6.76-36.32,8.92-54.63,1.25-10.58.45-21.45-.03-32.15-.21-4.66,1.3-7.36,5.16-9.58,2.51-1.44,5.03-3.32,6.74-5.6,5.95-7.9,11.37-16.2,17.34-24.08,3.4-4.5,5.58-9.68,8.92-14.28,3.76-5.19,4.9-12.38,6.77-18.81,1.63-5.58,3.51-10.19,10.44-11,2.11-.25,4.42-3,5.73-5.16,4-6.59,8.26-13.17,11.09-20.28,3.29-8.29,10.63-13.69,13.97-21.83,3.22-7.85,6.61-15.66,10.51-23.18,2.82-5.45,6.6-10.4,10.62-16.6,1.01,2.53,1.8,3.93,2.11,5.44.39,1.95-.01,4.11.63,5.94,3.26,9.22-.96,16.59-5.81,23.68-2.95,4.31-6.51,8.21-9.71,12.36-7.31,9.47-15.02,18.67-21.73,28.55-11.22,16.51-22.04,33.3-32.5,50.3-4.82,7.83-8.74,16.27-12.44,24.7-2.64,6.02.23,10.13,6.33,10.44,3.37.17,5.97-1.14,6.96-4.45,1.84-6.2,4.16-12.39,4.94-18.75.71-5.73,2.81-10.43,5.8-15.13,8.28-13.03,16.15-26.33,24.59-39.27,4.47-6.86,9.71-13.22,14.71-19.73,2.88-3.74,5.9-7.37,8.98-10.95,2.5-2.91,5.17-5.67,7.77-8.49.56.29,1.12.58,1.68.87-.81,4.03-1.35,8.12-2.46,12.06-4,14.18-7.93,28.39-12.38,42.43-4.6,14.51-11.71,27.35-24.55,36.67-5.56,4.03-10.56,9.43-14.3,15.19-3.86,5.94-6.14,12.99-8.51,19.76-.58,1.65.8,4.42,2.05,6.1.77,1.04,3.2,1.65,4.52,1.24,1.3-.4,3.21-2.53,3.01-3.53-2.64-13.23,6.64-20.69,13.9-29,3.92-4.5,8.27-8.69,12.83-12.55,6.14-5.2,10.14-11.69,12.52-19.17,5.46-17.1,10.76-34.24,15.96-51.42,1.2-3.96,1.76-8.11,3.32-12.15,1.21,10.86,4.27,21.54,2.79,32.45-1.06,7.82-5.38,14.52-10.55,20.35-10.82,12.19-16.74,27.03-23.49,41.49-5.54,11.86-5.1,24.87-8.07,37.2-.32,1.33-.16,3.23.59,4.28,7.5,10.61,7.83,23,8.25,35.11.41,11.93-.73,23.91-.86,35.88-.16,15.22-.07,30.45.07,45.67.25,27.05,3.34,53.83,9.43,80.14,5.01,21.64,12.18,42.68,20.5,63.3,4.48,11.11,8.8,22.3,13.53,33.31,3.64,8.47,8.08,16.6,11.69,25.08,4.1,9.62,7.59,19.5,11.5,29.2,4.29,10.64,8.68,21.23,13.17,31.79,2.74,6.43,6.1,12.61,8.56,19.13,3.88,10.27,7.58,20.62,10.73,31.13,4.36,14.57,8.51,29.22,12.07,44,4.15,17.22,7.66,34.61,11.24,51.96.62,3,.22,6.21.29,9.51ZM611.17,1160.6c-2.62,12.05-5.47,24.05-8.03,36.11-.86,4.07-1.45,6.99-2.59,12.86-6.37,32.87-12.74,81.01-13.25,84.9-.31,2.35-1.33,8.31-3.37,16.1-1.06,4.04-2.24,8.22-4.29,11.81-5.44,9.52-12.1,18.4-16.93,28.2-6.09,12.36-13.35,24.6-11.96,39.41.17,1.84-1.01,4.39-2.42,5.71-6.94,6.5-14.62,11.8-23.4,15.87-14.7,6.82-29.04,14.44-41.61,24.92-1.47,1.23-3.09,2.28-5.98,4.39.69-9.32.84-17.26,1.95-25.06,2.33-16.35,6.87-32.02,14.38-46.9,4.82-9.54,7.96-19.92,12.73-29.49,4.88-9.78,10.9-18.99,16.28-28.53,6.23-11.03,12.77-21.91,18.33-33.27,6.13-12.52,12.28-24.95,20.43-36.32,2.31-3.22,3.84-6.97,5.91-10.37,8.7-14.24,17.52-28.41,26.21-42.65,5.31-8.71,10.66-17.4,15.58-26.32,1.35-2.44,1.26-5.69,3.07-8.46-.35,2.37-.55,4.76-1.06,7.09ZM622.16,1135.64c1.26-3.06,2.65-6.16,2.65-6.16,7.81-13.31,15.71-26.57,23.61-39.83.59-1,1.33-1.91,3.17-2.53-.4,2.86-.89,5.71-1.2,8.58-1.81,16.85-2.91,33.81-5.54,50.52-3.75,23.85-6.42,47.96-13.65,71.15-3.41,10.93-6.81,21.91-11.02,32.54-3.01,7.59-7.31,14.68-11.13,21.94-4.65,8.81-9.34,17.6-14.15,26.33-1.26,2.29-2.98,4.34-4.49,6.49-.58-.31-1.17-.62-1.75-.92.32-2.18.57-4.37.97-6.53,4.99-26.87,8.06-44.41,10.67-57.3,9.14-45.07,10.4-76.43,21.86-104.29ZM615.11,1460.81c-4.88,27.75-8.88,55.7-16.42,82.9-4.11,14.83-9.58,29.28-17.14,43.15-2.87-7.89-4.51-15.75-5.57-23.95-1.65-12.76.39-23.51,7.56-34.53,12.21-18.79,17.83-40.52,23.88-61.9,1.77-6.24,3.65-12.45,5.72-18.6.59-1.75,1.98-3.24,4.36-4.42-.78,5.79-1.37,11.62-2.38,17.37ZM610.45,1529.32c1.93-12.44,3.72-23.98,5.51-35.53,2.38,12.21,1.95,23.97-5.51,35.53ZM614.42,1417.12c-1.61,7.29-3.27,14.59-5.36,21.75-4.75,16.25-9.66,32.46-14.74,48.62-2.15,6.82-4.89,13.46-7.36,20.18-.7-.11-1.39-.23-2.09-.34-.05-1.9-.42-3.85-.11-5.68,1.58-9.29,3.47-18.53,5.01-27.83,2.69-16.17,5.09-32.38,7.88-48.53.71-4.13,2.3-8.14,3.72-12.11,1.93-5.4,3.38-6.07,8.96-4.7,4.3,1.06,5.34,2.93,4.08,8.65ZM572.46,1527.42c-3.2-6.81-2.15-13.26-1.12-19.3,3.45-20.37,7.35-40.67,11.42-60.92.81-4.03,3.14-7.76,5.28-12.82-1.24,32.26-5.98,62.6-15.57,93.04ZM582.65,1419.01c-.63,2.63-.44,5.46-1.08,8.09-3.05,12.58-6.32,25.1-9.4,37.67-3.3,13.51-8.74,26.25-13.45,39.28-5.8,16.04-15.19,30.25-21.19,46.09-1.11,2.94-3.56,5.36-5.34,8.06-3.4,5.14-6.77,10.29-10.15,15.44-.45-.16-.91-.32-1.36-.48.37-4.94.44-9.93,1.2-14.81,1.06-6.9,3.24-13.35,6.7-19.64,8.27-15.06,15.9-30.48,23.46-45.91,5.8-11.84,11.52-23.76,16.47-35.97,3.74-9.21,6.13-18.95,9.3-28.4,1.87-5.56,4.09-11.01,7.46-16.06-.89,2.21-2.06,4.35-2.6,6.64ZM462.22,1640.49c2.27,2.54,5.25,5.14,8.33,3.09,2.6-1.72,4.29-5.18,5.68-8.19.74-1.61.2-3.94-.1-5.9-1.64-10.54.13-20.23,6.47-29.03,2.62-3.63,4.85-7.57,6.99-11.52,6.36-11.73,15.96-20.78,24.41-30.91.68.78,1.28,1.15,1.25,1.47-1.07,13.73-2.64,27.18-11.75,38.62-5.1,6.41-9.39,13.53-13.5,20.64-2.21,3.81-4.34,8.21-4.62,12.46-.38,5.92-2.94,10.47-6.08,14.96-4.69,6.72-8.89,13.94-16.62,17.82-3.26,1.64-6.59,3.12-10.73,5.07-.7-4.32-1.38-7.67-1.73-11.05-.18-1.7-.31-3.79.49-5.13,2.86-4.78,6.13-9.33,9.5-14.33.71.67,1.41,1.25,2.01,1.92ZM452.89,1603.02c3.77-16.6,11.67-31.4,18.89-46.58,7.28-15.31,17.14-28.51,29.81-40.05-13.67,29.56-27.34,59.13-41.12,88.94-2.32-.71-4.52-1.38-7.58-2.32ZM507.25,1554.43c-14.44,15.44-26.27,32.62-35.66,51.51-2.21,4.45-3.95,9.14-6.19,13.68,2.74-8.96,4.62-18.3,8.41-26.8,6.48-14.54,14.3-28.47,21.28-42.79,6.77-13.89,13.15-27.96,19.78-41.92.84-1.77,2.34-3.22,3.2-4.97,1.63-3.32,4.18-6.75,4.21-10.16.04-4.14,1.6-7.17,3.52-10.32,4.54-7.43,9.17-14.79,13.77-22.18.51.16,1.02.31,1.53.47-3.03,9.93-6.24,19.81-9.06,29.8-3.31,11.75-7.17,23.45-9.12,35.45-1.89,11.64-8.17,20.2-15.67,28.23ZM532.18,1519.26c-.51-.15-1.03-.31-1.54-.46.63-2.54,1.15-5.11,1.9-7.62,5.89-19.82,12.07-39.56,17.66-59.47,3.95-14.07,10.64-26.8,17.71-39.4,1.89-3.37,2.04-3.28,6.5-3.38-5.86,40.06-24.32,75.09-42.23,110.32ZM497.85,1435.94c5.74-3.95,11.41-8.11,17.55-11.33,6.85-3.6,14.21-6.26,21.34-9.32.35.55.7,1.09,1.05,1.64-21.15,21.69-46.94,38.28-67.87,60.55.77-8.55,1.74-16.66,7.05-23.67,5.69-7.52,13.31-12.64,20.88-17.86ZM477.58,1482.28c12.59-13.53,25.98-26.17,40.38-37.81,7.14-5.77,13.51-12.49,20.25-18.75,1.34-1.25,2.82-2.35,4.67-3.07-3.05,5.75-6.95,10.85-11.83,14.91-9.31,7.75-16.62,17.17-23.84,26.73-1.65,2.19-3.27,4.47-5.26,6.32-8.18,7.57-13.89,16.79-19.27,26.47-4.33,7.8-9.74,15.1-15.44,21.99-4.44,5.36-7.24,11.28-9.4,17.67-2.88,8.54-6.52,16.57-11.48,24.23-3.43,5.29-4.8,11.95-6.93,18.04-.87,2.49.25,4.44,2.59,5.49,2.49,1.12,4.44.04,5.73-2.07,1.03-1.69,2.11-3.51,2.49-5.41,1.9-9.45,6.6-17.69,10.82-26.16,1.22-2.44,2.57-4.97,3.04-7.61,2.21-12.31,9.37-21.75,16.99-31.12,4.06-5,7.42-10.63,10.69-16.2,5.44-9.25,11.71-17.81,19.17-25.53,1.9-1.96,3.98-4,5.08-6.42,3.56-7.82,9.74-12.89,16.45-17.82,5.58-4.09,10.44-9.17,16.62-14.7-1.49,3.06-2.36,5.38-3.66,7.42-10.03,15.79-19.77,31.78-30.36,47.19-5.9,8.59-12.89,16.51-19.99,24.17-13.05,14.06-22.33,30.46-31.62,47.05-7.44,13.29-11.21,27.72-15.87,41.89-1.43,4.36-1.58,9.38-1.24,14.02.38,5.12,2.09,10.07,8.53,9.87-1.57,5.15-2.89,9.47-4.57,14.95-1.32-2.18-2.17-3.09-2.49-4.17-4.17-13.84-9.08-27.53-12.17-41.61-3.6-16.42-.88-32.97,4.31-48.65,2.59-7.84,8.45-14.6,12.81-21.86.89-1.49,2.07-2.94,2.46-4.57,3.42-14.23,12.77-24.64,22.33-34.9ZM686.48,1622.38c-6.6,16-11.14,32.6-14.04,49.6-2.02,11.86-6.35,22.42-13.68,31.95-12.16,15.83-17.4,34.64-22.13,53.56-3.68,14.74-6.87,29.6-10.27,44.4-.22.97-.7,2.07-.44,2.92.54,1.76,1.28,4.64,2.32,4.82,1.78.3,4.76-.57,5.59-1.94,1.6-2.63,2.05-5.95,3.43-10.47,1.06,2.63,1.92,3.97,2.13,5.4,2.52,17.03,4.91,34.08,7.41,51.11.98,6.67,2.03,13.33,3.2,19.97,4.82,27.36,6.26,55.04,7.99,82.69.54,8.71,1.25,17.41,1.65,26.12.82,17.49-2.95,34.17-8.75,50.57-3.07,8.67-6.28,17.37-6.39,26.85-.16,13.54,2.04,26.69,4.87,39.9,4.12,19.25,7.35,38.7,10.78,58.1,2.35,13.3,3.77,26.71,2.97,40.26-.07,1.14-.17,2.28-1.46,3.55-2.16-6.78-4.4-13.54-6.46-20.35-6.19-20.5-11.61-41.28-18.71-61.46-4.35-12.36-8.05-24.98-14.15-36.87-8.07-15.72-13.93-32.55-20.9-48.84-4.42-10.33-8.76-20.71-13.76-30.76-10.69-21.51-19.03-43.9-26.83-66.58-9.24-26.87-14.19-54.55-16.88-82.66-1.59-16.61-2.52-33.34-2.68-50.02-.12-12.17,1.56-24.36,2.3-36.55.18-2.95-.56-5.98-.27-8.9,1.67-16.55-1.68-32.84-2.44-49.25-.28-5.93-.82-11.87-.82-17.8,0-9.45,3.2-18.27,6.96-26.66,4.24-9.47,9.66-18.41,14.56-27.59.57.17,1.13.34,1.7.52-.48,2.2-.75,4.48-1.48,6.6-4.96,14.3-6.35,29.25-7.35,44.16-.46,6.86.96,13.87,1.81,20.78.43,3.44,3.29,4.83,6.32,5.52,2.88.65,4.29-.86,4.2-3.66-.05-1.47-.36-3-.88-4.38-8.21-21.44-3.14-41.79,5.64-61.91-.17,3.9-.33,7.8-.51,11.7-.51,10.94-1.06,21.88-1.48,32.83-.05,1.44.33,3.01.93,4.33,1.13,2.49,2.99,4.08,5.97,2.99,2.68-.98,2.86-3.2,2.41-5.58-2.7-14.14-1.3-28.25-.09-42.41.95-11.17,1.05-22.41,1.78-33.6.19-2.86,1.05-5.76,2.09-8.45,2.16-5.57,4.38-11.15,7.09-16.46,3.27-6.43,7.11-12.57,10.65-18.86,2.44-4.34,4.92-8.67,7.14-13.12,2.74-5.49,4.63-11.46,9.81-16.53,1.8,7.86,3.98,14.8,1,22.29-5.8,14.6-10.89,29.5-17.1,43.92-4.31,9.99-6.96,20.29-8.79,30.88-1.73,10.07-2.82,20.25-4.59,30.31-2.14,12.18-1.15,24.37-.9,36.57.04,1.99.65,4.21,0,5.93-5.09,13.23-7.15,27.64-15.33,39.67-3.93,5.78-7.67,11.65-13.51,15.88-5.56,4.02-7.28,10.61-9.84,16.51-1.29,2.97.82,8.12,3.21,9.3,3.18,1.56,5.8.05,8.21-1.91,2.91-2.37,5.08-4.96,2.44-8.89-.54-.81-.88-1.76-1.38-2.8,4.1-5.37,8.21-10.63,12.18-15.99,6-8.11,9.98-17.13,13.05-26.78,8.02-25.22,16.13-50.42,25.03-75.33,6.93-19.39,17.17-37.13,30.55-52.92,3.87-4.56,8.46-8.21,13.33-11.82,6.51-4.82,11.66-11.47,17.47-17.26,2.03-2.02,4.28-3.83,6.42-5.74.39.38.79.76,1.19,1.14-1.78,2.26-3.21,4.95-5.39,6.72-14.13,11.53-24.19,26.51-34.21,41.33-5.53,8.17-8.86,17.83-13.22,26.79-2.83,5.83-5.32,11.87-8.7,17.37-4.56,7.41-7.05,15.42-8.5,23.82-1.36,7.91-2.85,15.64-7.48,22.53-1.59,2.37-2,5.61-2.66,8.51-2.7,11.91-5.25,23.86-7.96,35.77-.38,1.66-.9,3.82-2.11,4.65-4.93,3.38-4.38,9.32-6.96,13.75-1.19,2.04-.54,3.94,1.59,5.03,2.18,1.12,4.58,1.36,5.99-.99,2.17-3.61,4.64-7.25,5.75-11.22,3.43-12.19,6.57-24.49,9.25-36.87,1.91-8.82,4.31-17.37,8.42-25.44.99-1.95,1.39-4.29,1.67-6.5,1.32-10.59,5.88-20.03,10.28-29.53,2.3-4.98,4.51-10.01,6.98-14.9,3.93-7.78,7.37-15.93,12.24-23.09,11.74-17.26,22.17-35.7,39.55-48.4,1.2-.88,2.2-2.03,3.31-3.03.9-.8,1.85-1.56,2.78-2.34-7.69,17.91-20.61,31.48-33.67,44.89-6.1,6.26-9.44,14.02-13.26,21.58-.78,1.55-1.01,3.43-1.97,4.85-12.8,19-17.22,41.33-24.89,62.36-.68,1.87-.94,3.91-1.68,5.75-6.1,15.3-7.57,31.42-8.86,47.62-.45,5.7-1.66,11.34-2.41,17.02-.36,2.71-.75,5.46-.64,8.18.2,5.01,1.61,6.55,5.27,6.55,3.38,0,5.03-1.81,5.04-6.8,0-5.17-.63-10.35-.94-15.52-.13-2.22-.43-4.49-.17-6.68,1.39-11.64,2.47-23.35,4.62-34.85,1.18-6.29,4.38-12.18,6.48-18.32,4.76-13.93,9.28-27.94,14.17-41.82,1.64-4.66,3.93-9.12,6.2-13.53,6.16-11.97,12.86-23.63,21.99-33.66,1.47-1.61,3.41-2.79,6.35-3.47-1.58,3.33-2.73,6.96-4.8,9.95-7.66,11.05-10.94,24.01-16.17,36.1-4.25,9.83-7.78,19.99-11.31,30.11-1.22,3.48-1.69,7.27-2.18,10.96-1.02,7.67-1.76,15.34-6.28,22.1-1.03,1.54-1.22,4.58-.39,6.22,1.62,3.19,5.04,2.24,8.93,2.52,1.76-9.92,3.41-19.39,5.15-28.84.81-4.39,1.21-8.97,2.79-13.08,9.43-24.69,18.15-49.74,31.9-72.51,0,0,2.92-5.96,10.65-19.57,3.18-5.61,4.14-7.09,4.38-6.97.62.28-3.48,10.56-8.38,22.42ZM617.56,1627.79c.12.64-.37,1.42-.64,2.11-6.38,16.22-12.77,32.43-19.19,48.63-.25.63-.81,1.13-1.86,2.53-.05-3.36-.3-5.8-.08-8.21.81-8.89,1.18-17.89,2.83-26.63,2.39-12.67,4.57-25.41,10.41-37.24,3.82-7.73,6.37-16.09,9.53-24.16.43-1.11,1.12-2.12,2.46-4.61,3.35,9.34,1.72,17.17.21,24.95-1.45,7.5-5.17,14.62-3.66,22.62ZM684.6,1328.39c-.29-16.76-3.18-34.46-8.97-69.86-1.14-6.99-2.18-12.65-2.18-12.65-1.59-7.82-3.95-15.56-4.63-23.46-.84-9.84-.72-19.82-.26-29.7.77-16.65,1.77-33.3,3.36-49.88,2.47-25.74,3.28-25.1,5.04-43.69,3.54-37.33,2.4-59.84,3.99-59.91,1.58-.06,2.69,21.91,7.1,51.33,2.42,16.15,3.7,22.94,13.95,67.41,8.74,37.97,16.81,76.1,21.53,114.76,1.92,15.71,1,31.91.06,47.8-1.24,20.88-4.58,41.65-5.52,62.54-.84,18.75-5.8,36.4-10.83,54.15-.8,2.84-1.96,5.58-2.95,8.37-.57.1-1.15.2-1.72.29-2.05-3.64-3.71-7.57-6.22-10.84-4.38-5.71-9.05-11.25-14.06-16.42-1.63-1.69-2.71-3.18-3.22-4.91-.86-2.91-.06-5.48.12-6.09,2.02-7.16,5.83-54.02,5.4-79.25ZM694.09,1470.28c-5.65-7.63-6.35-16.43-8.87-24.45-2.1-6.69-1.88-9.45-.19-14.48,2.45,3.84,4.71,6.98,6.55,10.36,1.89,3.48,3.08,7.36,5.1,10.75,3.78,6.34,1.89,11.69-2.59,17.83ZM688.67,1478.61c2.08,5.35,1.95,5.4.92,10.75-4.03-1.51-6.29-4.64-7.9-8.34-4.44-10.24-8.58-20.63-13.31-30.73-3.28-6.99-4.22-14.23-4.09-21.75.04-2.21.23-4.5.88-6.6.37-1.2,1.76-2.88,2.74-2.92,1.47-.05,3.61.75,4.36,1.9,1.3,2.01,2.17,4.52,2.48,6.91,2.29,17.58,7.55,34.31,13.93,50.76ZM666.25,1464.14c3.35,10.24,9.26,19.32,13.4,29.1,3.37,7.97,6.32,16.49,6.42,25.82.1,9.13,2.19,18.29,3.95,27.33,1.25,6.39,1.61,6.74-3.73,10.58-2.57,1.85-5.44,3.27-9.25,5.53-.38-8.02-.43-14.91-1.1-21.75-.63-6.4-1.73-12.78-2.94-19.1-3.46-18.13-7.13-36.22-10.58-54.36-.4-2.08.04-4.33.09-6.5.5-.12,1-.24,1.5-.36.75,1.23,1.78,2.37,2.22,3.7ZM667.77,1528.1c2.25,11.8,2.4,23.76,1.08,35.73-.95,8.6-1.41,9.48-9.2,15.37-2.64-1.96-2.09-4.73-1.6-7.3,2.43-12.56.68-24.73-2.72-36.91-2-7.17-3.02-14.61-4.45-21.94-1.58-8.08-2.79-16.25-4.77-24.23-2.42-9.75-.63-19.38-.06-29.05.51-8.7,1.32-17.38,2.04-26.07.12-1.42.46-2.82.7-4.22.35-.03.69-.06,1.04-.09.45,1.53,1.1,3.03,1.33,4.6,3.37,22.43,6.43,44.92,10.12,67.3,1.49,9.05,4.76,17.79,6.48,26.82ZM645.53,1521c1.19,6.07,1.89,12.33,3.93,18.11,3.13,8.88,1.66,17.75,1.24,26.64-.33,6.96-1.12,13.91-2.02,20.82-.27,2.1-1.12,4.51-2.52,6.02-5.21,5.61-10.76,10.91-16.97,17.1,1.73-11.79.91-22.63-.08-33.5-.84-9.19-.49-18.11,2.78-27.15,3.44-9.52,5.02-19.71,7.39-29.61.84-3.52,1.62-7.06,2.43-10.59.57,0,1.14,0,1.72,0,.69,4.05,1.3,8.13,2.09,12.16ZM632.73,1513.05c-1.78,9.36-3.97,18.13-6.42,26.29-1.1-15.24-1.56-32.02-.92-50.11.95-26.58,4.1-50.41,8.04-70.94,4.24,25.24,6.28,57.96-.7,94.75ZM747.14,1721.33c.21,5.14-.87,10.33-1.37,15.5-.59-.01-1.18-.03-1.77-.04-6.23-28.73-9.97-57.73-10.4-87.22-.43-29.35-1.89-58.7,2.54-88.53,1.77-.81,3.91-1.79,6.66-3.04-.52,8.55-.89,16.18-1.48,23.8-1.88,24.46-.55,48.83,1.52,73.21.8,9.42,1.14,18.89,1.76,28.33.84,12.67,2,25.33,2.53,38.01ZM782.93,1667.19c-2.04,9.49-3.25,19.16-5.06,28.71-.67,3.53-2.05,6.92-3.62,12.06-2.1-4.17-3.95-6.82-4.82-9.76-5.15-17.49-10.12-35.04-9.88-53.53.27-20.88.53-41.76.9-62.64.08-4.65.64-9.29.98-13.94.49-.05.97-.1,1.46-.16.42,1.76,1.05,3.51,1.22,5.29,2.07,21.5,7.53,42.22,14.28,62.65,1.56,4.74,3.13,9.49,4.39,14.31,1.48,5.62,1.4,11.22.15,17.02ZM787.85,1607.55c-.43,9.87-.67,19.76-1.01,30.33-11.85-17.71-20.96-77.08-14.65-93.09,3.24-.93,5.36.72,6.78,3.29,1.2,2.16,2.39,4.46,2.89,6.84,3.61,17.35,6.77,34.77,6,52.63ZM808.59,1706.53c-.63,0-1.27,0-1.9,0-4.5-13.97-9.05-27.93-13.47-41.94-.74-2.35-1.38-4.92-1.22-7.33,1-14.92,2.23-29.83,3.44-44.73.05-.58.66-1.11,1.12-1.83,10.7,31.38,15.6,63.12,12.02,95.83ZM796.51,1548.97c2.66,10.67,4.92,23.31,5.81,37.59.47,7.61.5,14.75.23,21.32-2.91-4.98-6.28-12.1-8.21-21.11-3.59-16.82-.12-30.82,2.16-37.8ZM810.02,1593.94c-.18-2.46-.69-4.96-1.45-7.31-1.77-5.5-.89-10.71,1.27-16.98,1.51,1.84,2.76,2.88,3.4,4.22,6.2,13.05,12.51,26.05,18.31,39.27,2.08,4.74,3.21,9.98,4.17,15.1,3.72,19.83,7.3,39.68,8.68,59.87.7,10.17,2.45,20.27,3.72,30.4.17,1.35.25,2.71.5,5.44-6.25-5.8-8.67-12.39-12.04-18.29-7.9-13.89-13.88-28.7-19.49-43.58-2.41-6.4-3.13-13.58-3.73-20.48-1.39-15.86-2.19-31.77-3.34-47.65ZM826.88,1553.97c4.26,2.26,4.69,5.63,6.05,8.37,3.1,6.22,6.15,12.46,9.41,18.6,2.92,5.48,6.66,10.54,7.11,17.09.13,1.92,1.15,3.81,1.86,5.67,5.73,14.86,11.48,29.7,17.22,44.56-.41.38-.81.75-1.22,1.13-4.46-4.57-9.34-8.81-13.27-13.79-4.16-5.26-7.28-11.33-11.1-16.88-4.68-6.79-5.91-14.8-7.97-22.44-2.97-11.05-5.23-22.29-7.61-33.49-.54-2.54-.31-5.25-.48-8.81ZM972.24,2109.9c-4.67-7.38-8.95-15.01-13.67-22.36-8.49-13.24-16.72-26.61-23.64-40.77-11.21-22.92-24.87-44.43-39.43-65.3-5.64-8.08-13.29-14.78-20.11-22.03-14.07-14.96-25.32-31.33-28.46-52.35-1.47-9.85-4.82-19.43-6.1-29.29-1.7-13.07-2.11-26.3-3.29-39.44-.4-4.44-1.54-8.81-2.21-13.23-1.66-10.81-4.43-21.64-4.47-32.46-.03-8.4-.76-16.4-3.2-24.24-2.22-7.14-5.27-14.01-7.77-21.07-2.25-6.35-4.3-12.78-6.3-19.22-.5-1.63-.78-3.47-.59-5.15.67-5.94,1.65-11.84,2.38-17.78.58-4.69,1-9.4,1.4-14.1.28-3.2.41-6.4,1.7-9.97.9,1.94,1.75,3.9,2.72,5.81,5.2,10.21,10.48,20.38,15.62,30.61,5.28,10.5,10.34,21.02,10.34,33.26,0,13.48.37,26.96.84,40.43.22,6.21.96,12.42,1.72,18.6.37,2.97.99,6.33,5.22,5.87,3.37-.37,5.01-4.13,4.31-8.19-1.85-10.79-4.17-21.56-5.01-32.44-.68-8.79.52-17.72.92-27.37,5.13,5.79,5.23,12.61,6.86,18.95,1.6,6.22-2.16,12.98,2.26,19.5,2.6-.58,5.16-1.16,8.6-1.93-3.74-14.05-2.12-28.38-9.44-41.47-4.28-7.65-6.03-16.88-8-25.61-1.64-7.26-1.87-14.83-2.86-22.25-.59-4.44-1.69-8.82-2.13-13.26-.68-6.93-.93-13.89-1.5-20.83-.27-3.31-.84-6.6-1.27-9.9.47-.14.94-.28,1.41-.42,1.91,3.11,4.33,6.02,5.65,9.37,6.02,15.33,12.08,30.66,17.42,46.23,3.47,10.12,5.94,20.6,8.48,31.01,3.14,12.89.57,25.77-.22,38.7-.57,9.38.79,18.88,1.46,28.32.24,3.41,2.76,5.14,5.78,6.15,2.4.8,4.45.31,5.89-1.9,1.53-2.36.82-4.72-1.28-5.83-3.47-1.83-4.23-4.95-4.42-8.11-.4-6.72-1.7-13.82-.09-20.12,2.78-10.88.42-21.34,0-31.97-.51-13.16-6.17-25.05-9.73-37.44-2.68-9.33-6.18-18.44-9.63-27.52-2.39-6.29-5.32-12.37-7.97-18.56-1.07-2.48-2.05-5-2.12-8.21,1.37,1.23,2.92,2.32,4.07,3.73,4.08,5.05,8.41,9.96,11.9,15.4,2.51,3.91,4.39,8.43,5.61,12.93,4.52,16.64,7.73,33.53,9.53,50.72.83,7.91,2.77,15.72,4.36,23.54.28,1.4,1.24,2.69,1.99,3.98,2.61,4.5,5.27,8.97,8.47,14.39,6.04-.57,6.49-5.93,7.69-10.19,1.1-3.93-.89-6.61-4.92-7.9-4.11-1.31-5.48-4.94-6.16-8.7-2.26-12.52-4.28-25.08-6.55-37.6-.84-4.65-2.21-9.2-3.17-13.83-.34-1.64-.18-3.38-.29-6.09,4.82,2.05,7.31,5.28,8.99,9.06,3.24,7.29,6.5,14.61,9.15,22.12,2.82,8,5.23,16.17,7.24,24.4,1.03,4.24.8,8.78,1.15,13.19.14,1.71-.16,3.64.55,5.08,1.73,3.54,3.93,6.85,5.89,10.17,7.61-1.27,10.47-5.15,6.52-10.98-7.17-10.59-7.54-23.14-11.73-34.53-3.1-8.42-4.96-17.43-8.99-25.34-3.67-7.2-9.17-13.61-14.56-19.77-4.31-4.93-8.27-9.64-10.49-16.06-3-8.69-7.27-16.93-10.81-25.44-1.03-2.46-1.43-5.18-1.14-8.43,1.16,1.07,2.41,2.05,3.46,3.22,4.99,5.58,10.3,10.92,14.79,16.88,7.48,9.94,14.52,20.23,21.58,30.48,7.6,11.03,12.12,23.41,15.69,36.23,1.81,6.5,3.83,12.82,3.78,19.74-.03,3.87,1.34,7.84,2.59,11.59.54,1.63,2.13,3.62,3.65,4.08,3.23.96,4.38,3.23,4.97,5.94,4.52,20.72,11.53,40.79,15.02,61.82,2.25,13.54,5.33,26.91,5.55,40.7.21,13.2.48,26.4.28,39.6-.17,10.69-.23,21.48-1.7,32.04-3.72,26.61-.77,52.88,4.15,78.83,2.39,12.57,3,25.22,4.99,37.76,2.11,13.3,3.81,26.67,5.49,40.04.95,7.59,1.49,15.23,2.28,23.61-3.91-1.57-5.35-4.55-6.97-7.1ZM1007.07,1448.58c4.51,13.32,6.88,27.09,8.58,40.81,3.01,24.24.33,22.06,3.94,58.16,3.68,36.75,10.18,62.54,12.47,71.15,1,3.75,1.63,4.61,2.72,10.07,3.31,16.6,10.55,32.23,11.92,49.32.27,3.38,1.87,6.64,2.68,9.99.47,1.92.7,3.92.84,5.89.61,8.18,1.25,16.36,1.69,24.55.89,16.67,1.48,33.2-3.52,49.62-6.31,20.74-11.64,41.78-17.03,62.78-1.72,6.72-2.18,13.75-3.42,20.6-.74,4.13-2.38,8.16-2.68,12.3-.46,6.44.08,12.94-.17,19.41-.53,13.67-.8,27.38-2.16,40.97-.83,8.34-3.55,16.49-5.31,24.75-1.81,8.53-3.19,17.16-5.28,25.61-3.1,12.59-6.84,25.01-9.92,37.6-1.59,6.52-2.26,13.26-3.52,19.87-.8,4.16-1.86,8.28-2.95,12.38-2.44,9.2-3.32,15.99-4,19.69-1.42,7.7-3.92,19.86-8.62,38.89-1.15-3.51-2.8-8.89-4.31-15.57-4.56-20.13-2.84-29.12-5.75-51.24-1.3-9.86-3.3-19.67-5.56-29.37-3.2-13.75-3.48-27.64-3.03-41.6.41-12.71,1.1-25.41,1.37-38.12.44-20.95.68-41.9.9-62.86.03-2.97-.48-5.96-.85-8.92-1.01-7.91-1.83-15.85-3.21-23.69-1.6-9.08-3.6-18.1-5.63-27.1-3.35-14.85-6.89-29.67-10.31-44.51-1.84-7.98-3.3-16.06-5.5-23.93-2.32-8.32-5.33-16.44-7.95-24.68-.18-.55.36-1.33.55-1.94.68-.04,1.44-.28,1.58-.08,9.07,13.09,19.23,25.61,22.4,41.86.19.97.57,1.92,1,2.81,1.69,3.52,4.68,5.09,7.02,3.75,2.15-1.23,3.64-6.33,2.36-8.68-8.55-15.71-16.75-31.58-28.42-45.44-7.53-8.94-13.71-19-20.72-28.4-3.87-5.19-8.35-9.93-12.29-15.08-15.2-19.83-28.73-40.73-39.76-63.19-2.31-4.71-4.94-9.26-7.3-13.94-1.31-2.61-2.37-5.34-3.01-8.39,7.47,4.72,13.41,10.95,19.24,17.22,8.32,8.95,16.01,18.34,22.47,28.89,4.21,6.88,11.1,12.08,16.58,18.22,4.48,5.01,8.83,10.16,12.94,15.48,6.4,8.28,12.56,16.74,18.78,25.14,6.08,8.21,9.22,17.7,11.18,27.51,2.18,10.9,7.23,20.05,14.71,27.92,7.62-2.42,8.47-4.11,6.63-13.29-8.2-1.79-11.98-7.87-13.67-15.69-2.23-10.36-5.84-20.19-11.82-28.96-4.34-6.36-9.21-12.35-13.9-18.47-3.93-5.12-7.8-10.29-11.94-15.24-6.06-7.23-12.37-14.24-18.52-21.39-3.08-3.58-6.52-6.97-8.95-10.97-3.93-6.47-8.6-12.15-14.06-17.39-8.09-7.75-15.52-16.2-23.61-23.95-8.27-7.93-17.02-15.37-25.51-23.08-1.24-1.12-2.2-2.55-2.82-4.96,1.42.43,3.16.48,4.2,1.36,16.93,14.36,33.92,28.65,50.55,43.36,6.33,5.6,12.06,11.95,17.51,18.42,3.49,4.15,6.37,8.95,8.8,13.81,3.58,7.18,7.77,13.71,13.18,19.77,11.29,12.63,21.99,25.8,32.64,38.98,2.43,3.01,3.81,6.9,5.47,10.48,1.35,2.91,2.76,5.39,6.64,4.48,4.2-.99,5.98-3.32,5.81-7.41-.18-4.29-2.77-7.09-6.14-8.78-4.27-2.14-6.9-5.48-9.38-9.32-2.15-3.33-4.78-6.37-7.4-9.37-6.55-7.49-13.31-14.8-19.79-22.35-3.23-3.77-6.24-7.78-8.97-11.93-3.82-5.82-7.3-11.86-10.86-17.84-.58-.98-.85-2.14-1.59-4.08,6.51,1.55,10.64,4.94,14.13,9.15,4.61,5.56,9.13,11.2,13.53,16.93,10.1,13.15,22.3,24.18,35.12,34.52,4.3,3.47,6.65,7.58,8.38,12.8,4,12.07,8.76,23.88,13.36,35.74.7,1.81,2.01,3.48,3.34,4.94,2.64,2.91,4.31,6.01,3.84,10.12-.3,2.65.59,5.49,3.38,5.9,1.79.26,4.02-1.2,5.77-2.34,3.03-1.96,4.83-4.6,5.05-8.59.5-9.06-3.16-12.34-12.3-10.01-4.26-5.44-6.82-11.67-7.41-18.85,2.75,3.7,5.52,7.39,8.26,11.1,1.41,1.91,2.93,3.49,5.61,2.51,2.87-1.04,4.57-3.1,4.78-6.11.2-2.78-1.04-4.37-3.91-5.47-2.35-.91-4.55-2.95-6.13-5.01-6.39-8.3-12.61-16.74-18.67-25.29-1.54-2.16-2.66-4.81-3.29-7.4-5.24-21.3-15.68-39.98-29.68-56.53-5.04-5.96-12.38-9.96-18.66-14.87-.91-.71-1.78-1.49-2.8-2.34.79-.49,1.3-.99,1.49-.89,11.55,5.83,23.32,11.29,34.54,17.7,12.32,7.04,19.74,17.75,25.09,31.31,6.56,16.63,12.38,33.68,21.28,49.43,5.41,9.57,10.77,19.07,17.42,27.84,1.56,2.06,2.82,4.6,5.65,3.97,1.61-.36,4-2.28,4.03-3.55.07-2.75-.68-5.79-2-8.21-1.11-2.03-3.69-3.2-5.29-5.03-10.53-12.03-16.7-26.57-23.01-40.96-4.1-9.35-7.52-19-11.11-28.57-6.64-17.7-20.05-28.75-36.23-37.09-9.08-4.68-18.23-9.24-27.33-13.9-7.8-4-7.89-4.82-6.75-13.49,2.47-18.86,3.11-37.65-4.32-55.78-.09-.23-.22-.47-.24-.71-1.03-11.35-4.83-22.36-4.22-33.92.08-1.49.14-3.01-.06-4.48-1.82-13.57-3.89-27.11-5.51-40.7-2.37-19.93-3.83-36.45-4.17-40.22-3.96-44.76-19.88-100.21-21.16-104.63-2.77-9.53-4.25-17.13-8.57-27.08-9.84-22.64-20.84-44.78-30.53-67.48-6.55-15.35-11.72-31.29-17.37-47.02-2.53-7.03-4.8-14.15-7.09-21.26-5.75-17.85-10.12-36.01-12.65-54.63-.87-6.4-2.96-12.63-4.08-19.01-1.2-6.85-1.87-13.78-2.87-20.67-.36-2.47-1.04-4.89-1.5-7.34-1.96-10.28-4.15-20.53-5.76-30.87-2.07-13.31-3.68-26.7-5.44-40.05-.42-3.17-.67-6.36-1-9.54.52-.25,1.05-.49,1.57-.74,5.93,6.3,11.72,12.74,17.84,18.85,2.78,2.78,6.18,4.95,9.36,7.32,1.79,1.34,3.94,2.28,5.51,3.82,7.74,7.6,17.18,12.73,26.05,18.74,10.49,7.1,20.51,15.17,29.58,23.99,4.57,4.45,6.76,11.42,9.73,17.4,3.77,7.59,6.82,15.55,10.91,22.95,7.37,13.32,11.17,27.43,12.64,42.57,2.07,21.32,4.72,42.61,8.08,63.77,3.01,18.95,7.63,37.64,10.95,56.55,2.99,17.01,6.91,33.74,12.25,50.15.08.24.1.49.19.72,7.22,17.78,11.14,36.77,20.18,53.92,3.7,7.03,6.05,14.77,8.99,22.2.37.93.76,1.9.82,2.88.84,12.7,6.63,24.24,8.35,36.83,1.47,10.78,5.23,21.23,7.77,31.87.97,4.08,1.24,8.31,2.07,12.43,1.83,9.02,2.99,18.29,5.92,26.95ZM848.3,1540.72c.3-.45.6-.9.89-1.34,3.64,1.86,7.59,3.29,10.87,5.65,10.19,7.36,21.5,12.51,32.75,17.93,8.96,4.32,17.14,10.24,25.97,14.87,11.8,6.19,22.31,14.16,31.9,23.2,5.17,4.88,9.17,11.09,13.3,16.97,5.47,7.78,10.43,15.89,12.76,25.28.4,1.62.51,3.31.99,6.55-2.94-1.81-5.03-2.6-6.44-4.05-6.23-6.42-12.34-12.97-18.36-19.59-7.03-7.73-13.84-15.67-20.93-23.34-1.65-1.79-3.75-3.12-7.51-6.07-9.38-7.37-23.3-18.29-41.65-29.89-6.97-4.41-8.82-4.43-13.65-8.65-6.01-5.24-12.45-9.98-18.67-14.98-.86-.69-1.48-1.67-2.21-2.52ZM766.82,450.34c9.98,11.56,17.16,26.58,26.42,38.99,20.88,27.97,45.74,53.94,58.27,86.52,9.11,23.68,11.09,49.41,12.98,74.71,1.86,24.86,3.72,49.84,1.79,74.7-1.91,24.73-7.55,49.05-9.93,73.74-6.17,64.03,9.66,128.03,28.17,189.63-.21-.12-.42-.24-.63-.36-30.5-17.43-62.11-36.07-80.8-65.78-10.05-15.98-15.74-34.29-20.24-52.62-11.22-45.67-15.71-92.72-18.68-139.66-3.03-47.92-4.51-95.94-4.43-143.95.04-24.01.47-48.01,1.28-72.01.41-12.06-3.61-57.68,5.79-63.9ZM1146.33,1604.69c-1.11-.98-2.06-1.48-2.51-2.27-5.96-10.36-11.86-20.76-17.77-31.15-3.81-6.7-7.2-13.7-11.53-20.05-6.58-9.66-13.77-18.91-20.79-28.25-6.6-8.77-12.49-18.29-20.18-25.98-12.4-12.4-19.88-27.46-25.69-43.36-3.23-8.86-6.33-17.78-9.57-26.66-5.79-15.9-15.91-29.32-23.46-44.18-8.01-15.77-16.7-31.19-24.62-47-5.47-10.93-10.3-22.18-15.08-33.44-2.81-6.62-5.13-13.48-7.36-20.33-2-6.16-3.61-12.45-5.34-18.7-3.38-12.26-7.07-24.45-10-36.82-3.4-14.32-6.48-28.74-9.06-43.24-3.72-20.83-9.07-41.4-10.25-62.65-.37-6.71-.99-13.41-1.62-20.11-.76-7.94-1.62-15.87-2.5-23.79-1.01-9.16-1.72-18.27-7.35-26.32-4.41-6.3-8.27-13.11-11.46-20.12-4.85-10.66-9.04-21.63-13.24-32.57-1.78-4.64-2.75-9.58-4.35-14.3-3.12-9.19-7.09-18.15-9.52-27.52-4.52-17.36-8.3-34.92-12.15-52.44-1.6-7.29-2.71-14.69-3.81-22.08-2.24-15.03-4.39-30.07-3.32-45.36.88-12.67,2.14-25.35,2.32-38.03.19-13.03,2.04-25.76,4.42-38.5,2.24-12.01,5.11-24.08,5.51-36.2.38-11.29.27-22.68-1.25-34.18-2.7-20.46-2.67-41.27-3.79-61.94-.39-7.18-.73-14.37-1.21-21.54-.68-10.17-5.35-19.18-8.49-28.63-6.79-20.41-16.81-34.37-19.05-38.05-22.59-37.13-43.3-56.9-58.61-81.75-3.53-5.72-6.46-11.87-10.67-17.12-4.55-5.66-8.97-11.22-11.64-18.06-1.12-2.87-3.21-5-7.56-4.64.03,7.11,0,14.2.12,21.29.2,12.97.96,25.94.65,38.9-.9,37.16-2.73,74.3-3.2,111.46-.33,26.19.84,52.41,1.59,78.61.52,18.2,1.26,36.39,2.26,54.57.89,16.19,2.07,32.37,3.52,48.52.82,9.17,3.34,18.26,3.49,27.4.17,10.26.55,20.08,3.82,30.09,3.93,12.04,5.8,24.75,8.61,37.15,2.32,10.23,4.89,20.4,7.04,30.66,3.74,17.8,6.67,35.79,11.01,53.44,3.96,16.08,5.8,32.38,7.89,48.72,1.64,12.84,4.39,25.55,7.06,38.23,1.54,7.3,4.19,14.35,5.88,21.63,3.27,14.09,5.65,28.42,9.46,42.36,4.46,16.34,9.7,32.5,15.25,48.52,6.7,19.33,14.03,38.37,23.45,56.68,8.19,15.92,14.92,32.67,21.36,49.41,12.23,31.84,18.36,65.42,24.94,98.65,5.56,28.08,7.41,56.9,10.64,85.42,1.6,14.11,2.36,28.31,4.02,42.42.9,7.63,2.66,15.19,4.4,22.7,3.32,14.42,4.86,29.07,5.23,43.78.15,5.95.01,12.41-4.13,18.12-7.31-3.15-14.21-6.63-21.44-9.13-10.42-3.6-20.29-7.78-29.38-14.36-15.31-11.06-31.34-21.13-46.17-32.87-1.31-1.03-1.9-3.22-2.39-4.99-2.91-10.56-5.02-21.39-8.71-31.66-3.94-10.99-9.73-21.3-13.97-32.2-4.72-12.13-9.66-24.05-16.38-35.26-5.26-8.77-9.33-18.28-14.93-26.81-6.81-10.39-10.43-22.06-15.05-33.32-2.61-6.36-3.01-11.37-4.19-17.28-5.91-29.5-4.62-52.14-3.86-61.28.17-2,.41-4.64.85-8.16,1.81-14.74,7.04-28.56,11.47-42.6,4.71-14.91,12.34-29,12.55-45.18.14-10.93.68-21.86.56-32.79-.06-5.71-1.94-11.45-1.68-17.11.94-20.14,1.43-40.36,7.12-59.96.55-1.91.94-3.92,1.02-5.89.44-11.2,1.3-22.42,1.02-33.61-.71-28.88-1.38-57.76-5.96-86.4-3.39-21.2-6.58-42.42-12.01-63.22-3.55-13.61-4.67-27.59-5.27-41.48-.4-9.32-2.2-18.27-3.88-27.27-1.41-7.57-4.21-14.86-4.03-22.73.08-3.61-.82-6.89-4.59-8.57-1.63,2.65-4.57,5.2-4.38,7.49,1.23,14.56-3.93,28.12-5.87,42.15-.78,5.67-2.05,11.28-3.17,16.9-2.18,10.99-4.42,21.97-6.63,32.95-.29,1.47-.41,2.98-.84,4.41-6.43,21.52-12.86,43.03-19.36,64.53-3.46,11.44-8.48,22.4-10.49,34.3-1.15,6.79-2.26,13.64-4.15,20.23-2.53,8.81-3.7,17.46-.73,26.33.55,1.65,1.11,3.34,1.34,5.06,3.13,23.45,7.62,46.74,8.35,70.49.13,4.21.6,8.5,1.59,12.59,2.52,10.43,5.74,20.7,8.11,31.16,4.68,20.66,9.19,41.37,13.35,62.14,1.92,9.6,3.93,21.61,6.13,37.68,4.64,33.85,5.4,56.59,12.62,84.63,1.56,6.08,3.25,11.52,3.43,12.25,3.16,12.83,7.37,25.28,13.8,36.87,9.69,17.45,20.68,34.29,29.06,52.34,10.27,22.1,22.36,43.61,27.8,67.69,1.75,7.74,2.58,15.77,2.87,23.7.13,3.77-1.55,7.84-3.23,11.39-2.05,4.33-6.03,7.09-10.9,6.5-12.53-1.52-24.89.1-37.22,1.62-5.03.62-10.38,2.24-14.62,4.93-9.78,6.2-19.91,11.41-30.99,14.69-12.46,3.68-18.37-1.04-24.76-10.15-6.91-9.86-6.56-21.64-5.34-33.18.01-.12.16-1.35.37-3,0,0,.62-4.83,1.37-9.44,2.15-13.13,8.51-33.88,8.51-33.88,3.88-12.67,4.69-13.64,10.16-31.25,2.12-6.84,3.14-10.74,4.33-14.31,4.94-14.83,5.45-30.37,7.1-45.68,1.68-15.59,2.12-31.31,3.34-46.96,1.7-21.82,2.56-20.27,2.92-28.93.65-15.49-1.08-25.13-6.9-57.86-9.83-55.32-9.51-53.76-10.51-58.81-3.81-19.27-8.48-38.37-12.53-57.59-3.49-16.57-6.88-33.17-9.89-49.84-3.78-20.9-5.24-42.03-5.36-63.27-.01-1.94-.07-4.04-.84-5.74-.48-1.05-2.38-2.09-3.56-2.01-1.09.08-2.73,1.51-3,2.62-1.79,7.47-4.69,14.62-4.8,22.58-.09,7.16-1.49,14.31-2.49,21.45-.93,6.66-2.26,13.27-3.12,19.93-1.54,11.84-2.99,23.69-4.23,35.56-1.42,13.62-2.79,27.25-3.79,40.91-.82,11.15-1.07,22.33-1.55,33.5-.41,9.47-1.45,18.97-.98,28.4.48,9.65,1.96,19.32,3.9,28.8,2.5,12.19,6.48,24.09,8.74,36.31,2.27,12.23,3.49,24.68,4.67,37.08,2.15,22.69-.17,45.37-1.01,68.03-.26,6.92-1.58,13.88-3.1,20.67-1.86,8.34-7.67,11.37-15.81,8.95-1.67-.5-3.3-1.15-4.95-1.74-9.77-3.54-35.29-3.12-55.12-4.27-4.77-.28-11.94-.87-20.72-2.31-5.67-2.55-16.68-8.31-16.78-16.2-.02-1.45.3-2.51.64-3.39,4.17-10.67,8.4-21.34,13.27-31.7,2.96-6.28,7.24-11.93,10.77-17.95,9.68-16.49,19.52-32.88,28.8-49.59,5.56-10,10.16-20.53,15.25-30.79,6.28-12.65,9.31-26.33,12.51-39.93,4.16-17.7,5.33-36.02,11-53.43.77-2.35,1.1-4.88,1.4-7.35,2.5-20.52,4.36-35.16,4.8-41.59,2.36-34.6,12.3-61.26,9.8-62.01-1.52-.46-4.32,9.71-14.61,26.15-6.54,10.45-7.99,10.2-17.37,24.3-6.08,9.13-11.68,18.59-17.3,28.02-4.98,8.35-10.84,16.42-14.3,25.39-8.15,21.16-22.05,39.64-33.05,59.47-26.22,47.23-39.32,70.85-42.4,75.3-6,8.69-14.42,22.7-25.46,42.19-4.03,7.11-6.81,14.95-9.95,22.54-5.24,12.66-11.21,25.11-15.2,38.16-3.7,12.09-5.34,24.82-7.63,37.32-1.48,8.09-1.65,16.52-3.98,24.33-2.49,8.38-4.45,16.67-6,25.3-2.19,12.19-6.45,24.13-10.98,35.73-3.14,8.04-7.8,15.59-12.59,22.83-3.61,5.45-8.61,5.38-13.27.67-1.89-1.91-3.27-4.37-4.69-6.7-6.61-10.82-13.14-21.68-19.73-32.51-.38-.62-.89-1.43-1.5-1.6-7.65-2.18-13.22-7.83-19.54-12.09-7.6-5.13-15.47-10.57-21.23-17.52-5.92-7.14-9.5-16.24-14.01-24.53-1.27-2.34-1.9-5.09-3.41-7.24-4.46-6.35-3.95-11.34,3.04-14.63,12.17-5.71,24.44-11.43,37.16-15.69,12.16-4.07,23.76-9.2,34.87-15.32,13.53-7.45,26.64-15.7,39.59-24.13,10.62-6.91,21.08-14.09,29.12-24.28,8.02-10.17,17.13-19.51,24.64-30.02,7.48-10.48,15.42-20.88,19.49-33.44.35-1.08.51-.98,1.04-1.97,12.65-24,21.19-34.03,36.64-60.56,2.2-3.78,1.34-2.5,4.48-7.84,9.47-16.07,19.6-31.75,28.97-47.88,6.13-10.54,11.48-21.55,17.07-32.4,9.21-17.86,8.98-17.89,16.62-32.68,16.8-32.53,19.4-34.93,28.42-54.54,3.33-7.25,4.73-14.98,12.23-28.1,5.65-9.89,9.15-20.49,12.86-31.04,4.72-13.4,8.73-27.06,13.23-40.54,3.79-11.35,4.35-11.26,7.28-19.6,5.03-14.31,7.66-25.11,12.91-46.72.35-1.45,4.3-33.92,11.28-56.36.07-.24.07-.49.1-.74,1.27-10.63,2.76-21.25,3.76-31.91,1.79-19.11,3.36-38.24,4.88-57.37.49-6.21.41-12.47.83-18.69.71-10.43,1.87-20.84,2.38-31.27.77-15.67,1.24-31.36,1.65-47.05.23-8.72.01-17.44.09-26.16.11-11.18.14-22.36.52-33.54.47-13.62-2.11-27.33,1.45-40.89,1.25-4.78-1.11-8.44-6.44-10.84-.81,2.64-1.68,5.14-2.34,7.7-6.69,25.84-12.46,51.96-23.04,76.62-4.32,10.09-8.22,20.44-13.44,30.05-14.46,26.57-31.06,51.8-49.83,75.54-.42.54-4.06,3.94-11.23,10.85-18.87,18.19-28.94,27.9-41.18,39.26-18.91,17.53-17.92,15.72-24.44,22.55-9.89,10.34-14.97,17.91-25.54,31.28-12.53,15.85-25.1,31.68-37.25,47.82-12.45,16.54-24.34,33.51-36.61,50.19-7.83,10.65-16.02,21.03-23.83,31.69-9.58,13.08-19.31,26.09-28.27,39.59-7.58,11.42-14.09,23.55-21.22,35.28-13.3,21.86-22.91,45.43-32.29,69.11-4.4,11.12-8.45,22.37-12.75,33.53-1.88,4.89-3.88,9.74-6.01,14.52,0,0-5.8,13.55-11.74,25.87-17.59,36.5-65.24,97.26-71.73,105.49-3.94,5-7.29,8.93-12.39,15.93-13.21,18.14-26.03,36.56-39.49,54.5-11.83,15.77-24.48,30.92-36.51,46.55-11.87,15.42-23.13,31.31-35.21,46.57-9.15,11.57-18.41,23.02-24.97,36.29-3.95,7.99-10.29,10.82-18.77,11.01-12.17.27-24.33,1.04-36.62,1.61-1.65,3.98-4.21,7.5-2.43,13.12,2.51-.84,5.02-1.14,6.84-2.41,3.45-2.41,7.15-3.38,11.22-3.57,5.98-.29,11.95-.67,17.93-1.02,2.49-.15,5.17.24,7.43-.56,11.73-4.17,23.36-8.59,34.99-13.06,1.83-.7,3.53-1.9,5.1-3.11,15.87-12.28,33.38-21.92,51.07-31.19,8.36-4.38,17.12-8.42,26.16-11,12.92-3.69,26.3-5.74,39.42-8.81,5.98-1.4,11.35-.09,18.51,1.86-3.37,1.09-4.98,1.8-6.67,2.14-21.13,4.23-40.34,12.83-58.14,24.88-4.72,3.2-9.96,5.71-15.14,8.15-7.67,3.6-15.6,6.66-23.24,10.3-6.3,3-12.12,7.1-18.56,9.68-10.62,4.25-21.49,7.96-32.42,11.33-6.38,1.97-13.07,3.01-19.67,4.14-9.57,1.64-19.2,2.95-28.79,4.49-2.21.35-4.44.87-6.5,1.71-2.72,1.1-3.79,3.38-2.4,6.05,1.26,2.44,3.24,2.25,5.74,1.24,4.35-1.77,8.85-3.28,13.42-4.33,16-3.68,32.79-3.2,48.3-9.69,9.4-3.93,19.93-5.67,28.61-10.71,12.01-6.97,24.7-11.82,37.59-16.47,2.15-.77,4.47-1.06,6.72-1.56-15.97,11.17-32.17,21.46-48.36,31.77-13.36,8.51-27.46,15.41-42.96,19.03-6.79,1.59-13.78,2.37-20.52,4.13-4.9,1.28-9.14,1.8-11.96-3.39-5.61,2.56-11.81,3.68-11.09,12.15,6.59-.24,13.05-.28,19.48-.76,3.93-.3,7.85-1.08,11.69-2,8.24-1.97,16.77-3.3,24.53-6.49,9.89-4.06,19.36-9.32,28.61-14.74,11.57-6.79,22.51-14.67,34.14-21.35,14.48-8.32,28.8-17.06,44.46-23.12,5.71-2.21,11.53-4.33,18.99-3.05-2.11,1.73-3.37,2.85-4.72,3.85-8.82,6.54-17.7,13.01-26.48,19.61-4.12,3.09-7.62,7.06-13.62,6.56-1.75-.14-3.72,1.34-5.46,2.3-9.18,5.07-18.38,10.1-27.46,15.35-6.9,3.99-13.44,8.66-20.52,12.28-5.49,2.81-11.43,5.54-17.43,6.37-6.1.84-11.55,2.85-17.1,5.04-3.92,1.55-8,2.75-11.81,4.52-1.82.84-4.16,2.45-4.49,4.07-.35,1.67.97,4.66,2.45,5.48,1.86,1.04,5.46,1.53,6.85.42,9.32-7.4,20.16-10.48,31.52-12.83,4.52-.93,8.86-3.29,12.95-5.58,7.18-4.02,14.07-8.55,21.18-12.72,2.28-1.34,4.85-2.18,7.29-3.25-6.71,7.95-14.5,14.48-21.52,21.76-6.17,6.39-13.42,10.07-21.81,12.29-14.22,3.78-28.35,7.94-42.58,11.67-2.33.61-5.01-.14-7.21-.24-3.6,1.6-6.99,3.62-10.66,4.58-3.25.85-4.5,3.08-3.77,5.38,1.92,6.06-1.96,9.18-5.24,12.94-2.74,3.15-5.27,6.55-7.43,10.12-8.76,14.49-14.39,30.65-24.27,44.62-5.13,7.26-8.82,15.61-12.66,23.7-4.21,8.87-11.52,15.36-17.01,23.23-.87,1.25-2.98,1.64-5.05,2.71-.99-7.94,1.31-14.05,3.63-20.07,7.12-18.48,11.03-37.76,14.65-57.12,1.92-10.3,3.77-20.62,5.91-30.88,2.91-13.9,6.09-27.74,9.11-41.62.26-1.21.22-2.49.32-3.73.53-6.2,13.77-50.36,16.73-55.77.36-.66.9-1.24,1.16-1.93,2.55-6.74,5.83-13.32,7.39-20.29,2.4-10.68,3.39-21.66,5.37-32.45,4.9-26.73,7.61-53.98,18.05-79.46,1.8-4.39,3.2-8.93,5.04-13.3,5.51-13.09,10.31-26.5,18.95-38.09,7.6-10.19,14.6-20.83,22.19-31.04,7.27-9.78,12.13-20.6,15.26-32.29,1.03-3.86,1.79-7.8,2.97-11.61,7.35-23.87,14.82-47.71,22.16-71.58,2.15-6.99,5.15-13.4,9.55-19.35,3.69-4.99,6.31-10.75,9.53-16.09,1.92-3.18,3.82-6.44,6.2-9.27,5.01-5.96,10.07-11.88,15.14-17.8.2.01.42-.27.66-.77,4.92-5.74,9.86-11.48,14.77-17.23,2.1-2.46,3.85-5.25,6.14-7.49,10.31-10.09,19.45-21.39,31.06-30.12.39-.3.7-.71,1.04-1.07,10.37-11.15,21.33-21.57,33.79-30.51,10.11-7.25,19.65-15.16,30.65-21.23,5.93-3.27,11.94-10.53,18.62-19.93,12.63-17.78,15.71-35.01,27.65-61.54.58-1.29,1.57-3.37,2.95-6.03,3.8-7.31,7.84-14.34,14.28-19.9,6.02-5.2,11.47-11.08,16.95-16.87,5.5-5.82,11.28-11.21,18.5-14.88,2.21-1.12,4.51-2.31,6.3-3.98,9.8-9.17,21.93-14.79,33.33-21.35,13.18-7.58,27.29-13.53,40.86-20.47,15.55-7.94,31.06-15.96,46.36-24.36,16.63-9.14,33.05-18.67,49.47-28.21,8.19-4.76,16.67-9.26,24.08-15.07,7.81-6.12,14.19-14.03,21.78-20.47,6.62-5.62,9.93-12.89,13.13-20.52,1.74-4.15,3.98-7.1,6.1-11.11,9.9-18.74,17.29-34.3,18.2-36.22,6.7-14.14,9.67-21.38,14.13-31.16,6.64-14.56,11.44-29.77,15.79-45.13,1.83-6.47,3.43-13.01,5.29-19.48,5.13-17.8,5.99-19.53,7.82-26.49,4.55-17.31,5.02-32.18,5.97-61.91.11-3.55.18-5.17.23-7.09,0,0,.12-4.99.11-10.18-.02-33.43-4-67.56-4-67.56-5.08-43.59-12.84-110.08-20.52-109.84-1.81.06-3.53,4.81-6.97,14.32-3.16,8.75-3.29,12.51-6.52,23.01-1.54,5.01-3.7,9.82-5.3,14.82-8.9,27.81-22.17,53.23-39.68,76.7-12.35,16.56-23.56,34.02-34.54,51.55-7.14,11.39-12.99,23.6-19.33,35.49-7.98,14.97-15.95,29.94-23.77,44.99-6.32,12.17-13.2,24.13-18.43,36.76-9.26,22.36-17.38,45.19-26.16,67.75-2.44,6.26-5.88,12.14-8.24,18.42-7.19,19.15-13.75,38.54-21.18,57.6-7.51,19.28-15.57,38.35-23.78,57.35-2.96,6.84-6.33,13.74-10.8,19.64-9.65,12.76-18.37,26.07-26.58,39.76-2.71,4.51-6.16,8.28-10.44,11.54-8.14,6.18-16.03,12.72-23.71,19.46-17.07,14.99-33.95,37.95-35.86,40.99-22.32,35.6-14.03,58.74-38.51,78.56-2.64,2.14-2.97,1.85-14.45,10.63-11.49,8.79-23.22,17.29-34.23,26.65-11.77,10.02-22.67,21.05-34.22,31.33-14.69,13.08-23.58,24.96-30.93,33.45-1.58,1.83-3.1,3.58-4.57,5.28,1.22-7.03,2.38-15.59,3.04-21.37.7-6.17.74-9.42,1.99-17.8,1.1-7.34,2.07-14.74,3.97-21.89,1.64-6.19,4.53-12.05,6.8-18.08,3.16-8.4,5.01-17.61,9.66-25.07,6.87-11.01,9.78-23.34,14.06-35.13,4.75-13.07,6.25-27.3,10.8-40.46,7.98-23.05,13.42-46.93,24.52-69,6.78-13.47,15.44-25.57,23.51-38.09,5.9-9.14,13.85-16.95,20.7-25.49,6.71-8.37,13.38-16.78,19.72-25.43,4.4-6.01,8.06-12.56,12.35-18.66,4.27-6.1,8.79-12.03,13.41-17.87,5.7-7.2,9.25-15.28,10.42-24.36.6-4.65.38-9.47,1.51-13.97,1.87-7.48,4.28-14.86,6.89-22.13,5.72-15.94,11.94-31.68,21.35-45.91,3.54-5.36,7.17-10.67,10.98-15.83,3.82-5.17,7.62-10.41,11.98-15.11,9.29-10.02,20.11-18.36,30.67-26.98,5.21-4.25,10.01-9.02,15.06-13.48,12.72-11.23,25.36-22.56,38.27-33.58,7.18-6.13,14.8-11.73,22.24-17.55,2.95-2.3,6.2-4.26,8.88-6.84,9.54-9.17,19.8-17.39,30.93-24.54,2.1-1.35,4.23-2.69,6.16-4.26,19.43-15.78,37.15-33.04,52.04-53.45,14.57-19.96,26.36-41.1,34.78-64.23,3.07-8.44,5.65-17.07,9.09-25.36,5.29-12.76,9.14-25.86,10.82-39.57.58-4.7.15-9.59,1.25-14.13,2.5-10.36,2.08-20.84,1.96-31.27-.1-7.95-2.22-15.9-2.09-23.82.31-18.83-2.16-37.4-5.24-55.81-2.74-16.41-2.27-32.11,3.64-47.65,3.29-8.63,6.37-17.34,9.6-25.99.4-1.06,1.16-1.99,1.75-2.98,1.97,7.73,3.26,15.28,3.31,22.84.11,16.3,2.14,32.34,4.62,48.41,2.9,18.72,5.57,37.52,7.09,56.39,1.16,14.39.26,28.95.46,43.42.16,11.73.78,23.46.85,35.19.21,32.75,2.01,65.36,6.65,97.81,3.31,23.13,8.94,45.57,18.68,66.81,9.26,20.2,19.74,39.63,32.5,58.02,12.3,17.72,25.54,34.51,39.99,50.4,11.57,12.73,20.83,26.67,26.38,43.1,3.34,9.9,7.8,19.43,11.37,29.26,3.67,10.08,7.44,20.18,10.15,30.54,4.04,15.45,7.05,31.17,10.76,46.71,5.8,24.25,11.38,48.58,17.91,72.64,4.57,16.84,7.87,33.97,13.47,50.61,8.2,24.39,16.86,48.55,26.96,72.2,8.92,20.89,17.95,41.73,26.91,62.6,7.19,16.74,14.24,33.54,21.57,50.23,3.61,8.22,7.26,16.48,11.64,24.31,11.44,20.43,18.99,42.31,24.98,64.8,3.28,12.29,6.59,24.59,9.34,37.01,2.75,12.42,5.32,24.92,7.08,37.52,2.42,17.29,3.72,34.73,6.02,52.03,2.24,16.83,5.16,33.56,7.73,50.34.79,5.18,1.17,10.42,2.14,15.56,1.8,9.55,4.19,19,5.83,28.57,5.81,33.95,10.42,68.11,18.03,101.76,1.87,8.28,3.01,16.65,7.06,24.32,1.36,2.57,1.53,5.77,2.29,8.66.57,2.17,1.12,4.35,1.84,6.46,2.34,6.84,5.08,13.56,7.08,20.49,3.67,12.7,6.94,25.52,10.35,38.29,3.8,14.2,7.76,28.36,11.28,42.62,1.91,7.75,2.71,15.76,4.6,23.52,3.71,15.25,7.79,30.42,11.83,45.6.92,3.46,1.03,6.65-.97,10.23ZM745.39,1284c-1.75-18.26-4.88-46.32-8.37-67.87-2.54-15.7-5.65-30.89-5.65-30.89-1.92-9.53-4.48-18.93-6.37-28.46-3.78-19.06-10.68-37.42-12.57-56.89-1.28-13.14-2.28-26.31-3.83-39.41-1.43-12.12-2.68-24.33-5.35-36.2-3.39-15.06-2.79-29.61,1.57-44.26,3.92-13.15,7.65-26.36,11.31-39.59,1.39-5.04,2.12-10.26,3.55-15.28,2.96-10.38,4.15-14.25,9.29-30.74,5.3-17.02,7.99-25.71,9.8-34.32,1.63-7.77,1.32-9.35,3.43-18.31,2.09-8.87,4.52-17.65,6.8-26.47.47-.02.95-.04,1.42-.06,3.33,20.17,5.38,34.63,6.65,44.36.35,2.67.99,7.02,1.93,12.97,1.48,9.33,4.42,18.42,6.17,27.72,2.86,15.21,5.68,30.44,7.76,45.77,1.44,10.61,1.51,21.39,2.33,32.09,1.92,24.92,2.06,49.85-.35,74.73-1.16,11.91-3.2,23.74-4.97,35.59-2.74,18.38-2.5,36.77-.35,55.17,1.32,11.22,1.15,22.41-.91,33.53-.5,2.69-1.23,5.35-2.12,7.94-4.12,12.05-8.31,24.07-12.52,36.09-.82,2.34-2.06,4.55-2.76,6.92,0,0-3.16,8.7-4.94,17.9-1.72,8.87-1.54,25.14-.95,37.99ZM522.23,669.74c4.76-11.44,7.88-23.57,11.74-35.38,2.95-9.01,5.62-18.14,8.95-27.01,9.03-24.04,17.93-48.14,27.7-71.88,6.53-15.87,14.39-31.14,24.31-45.35,4.66-6.68,7.43-14.66,11.43-21.83,10.37-18.58,11.13-18.5,21.22-36.9,7.84-14.3,9.25-18.02,14.74-25.64,1.78-2.47,4.76-6.55,10.5-14.38,2.19-2.99,4.31-6.05,7.37-10.35-.92,3.02-1.7,5.74-2.45,8.28-1.2,4.04-2.23,6.96-2.33,7.24-13.59,40.81-12.26,119.87-12.26,119.87.3,18.08,1.34,19.33.94,36.61-.45,19.18-1.04,38.41-2.8,57.5-1.79,19.41-5.97,38.51-12.64,56.9-5.01,13.83-10.82,27.36-15.92,41.16-3.42,9.24-11.04,14-18.83,18.39-23.7,13.35-47.43,26.67-71.47,39.39-17.85,9.44-36.24,17.86-54.31,26.89-4.43,2.21-8.54,5.05-13.61,8.09.3-6.91,4.18-11.4,7.31-16.12,8.24-12.43,17.14-24.45,24.8-37.23,4.83-8.07,7.84-17.22,11.77-25.84,7.97-17.46,16.48-34.68,23.85-52.39ZM727.33,512.35c-4.53,18.11-11.32,37.23-11.32,37.23-1.74,5.46-4.01,10.75-6.06,16.12-5.17,13.52-10.21,27.09-15.61,40.51-1.85,4.6-4.84,8.73-6.95,13.25-5.58,11.96-10.27,24.29-17.29,35.62-10.97,17.7-22.28,34.96-39.13,47.77-2.1,1.6-4.21,3.18-6.32,4.77-.46-.27-.93-.55-1.39-.82.32-2.31.33-4.73,1.03-6.92,1.68-5.22,3.69-10.34,5.55-15.5,7.46-20.7,13.86-41.62,17.13-63.51,1.7-11.38,3.16-22.59,2.89-34.15-.37-15.94-.15-31.91.57-47.84.38-8.53.33-16.8-1.25-25.25-.93-4.99.78-10.41.44-15.59-.95-14.16-.57-28.31,1.12-42.33,1.63-13.57,3.04-27.48,7.29-40.34,3.85-11.66,5.51-24.13,12.52-34.96,5.91-9.13,9.16-19.93,14.51-29.47,11.78-20.98,19.83-43.53,28.57-65.79,1.49-3.78,2.5-7.75,3.73-11.63.6.02,1.2.03,1.8.05.67,2.25,1.59,4.46,1.96,6.76,3.46,21.15,7.04,42.29,10.13,63.5,1.15,7.87,1.16,15.91,1.59,23.87.42,7.85,1.99,32.53,2.44,47.07.43,14.04,1.81,58.56-7.94,97.56ZM1146.98,1575.69c-.84-2.39-1.93-4.72-2.47-7.17-2.05-9.27-3.72-18.62-5.89-27.85-4.9-20.91-9.73-41.84-15.11-62.63-4.38-16.91-9.52-33.62-14.32-50.42-7.19-25.18-14.5-50.33-21.44-75.58-1.51-5.48-1.45-11.38-2.49-17.02-4.8-26.02-10.27-51.92-14.48-78.03-4.29-26.61-7.39-53.41-11.04-80.12-.64-4.7-1.47-9.37-2.15-14.07-.86-5.93-2.08-11.84-2.41-17.81-1.01-18.07-5.02-35.55-9.74-52.92-.46-1.68-.86-3.39-1.15-5.11-4.01-23.99-11.55-46.99-20.31-69.55-5.31-13.68-12.33-26.69-18.32-40.12-7.11-15.94-13.92-32.02-20.91-48.02-6.19-14.17-12.6-28.25-18.66-42.48-7.04-16.54-13.9-33.16-20.66-49.82-4.78-11.78-9.87-23.49-13.7-35.58-5.56-17.58-10.37-35.42-14.99-53.28-4.75-18.35-9.01-36.84-13.24-55.32-5.23-22.86-9.96-45.84-15.39-68.65-2.77-11.63-6.59-23.02-9.98-34.5-3.53-11.99-7.89-23.64-14.4-34.39-.88-1.45-1.3-3.18-.95-5.67,1.76,1.8,3.63,3.51,5.25,5.42,16.12,19.06,32.36,38.03,48.23,57.29,10.27,12.47,14.86,23.67,21.47,35.94,31.63,58.76,32.31,86.96,64.12,124.63,4.06,4.81,4.61,4.39,8.82,10.09,15.64,21.16,28.37,44.08,40.9,67.15,12.91,23.75,24.67,48.06,33.58,73.54,6.17,17.63,10.56,35.91,15.19,54.05,2.65,10.38,4.12,21.05,6.25,31.57,3.84,18.96,2.85,38.3,4.76,57.41.89,8.92,2.16,17.81,3.5,26.68,3.96,26.15,6,52.64,13.41,78.18,8.94,30.84,9.64,24.42,13.32,44.5,6.44,35.13-1.77,46.47,1.72,99.14,1.06,16.01,1.62,14.72,3.25,35.81,1.66,21.38,2.59,42.77,1.44,64.25-.29,5.43-.53,10.86-.74,16.29-.1,2.68-.18,4.78-.28,7.34-.27,7.36-.75,21.17-1.25,39.93-.1,3.9-.23,8.67-.11,15.11.08,4.7.25,8.26.31,9.39.51,10.21,1.59,14.89,2.29,23.82.53,6.71.06,13.56,1.22,20.14,1.7,9.6-.77,18.75-2.46,28.48Z"/></g></svg>