<svg id="Layer_2" xmlns="http://www.w3.org/2000/svg" viewBox="0 0 1049.04 1632.51"><defs><style>.cls-1{fill:#1a1a1a;}</style></defs><g id="_Ñëîé_1"><path class="cls-1" d="M1048.15,1317.74c-4.46-18.42-9.71-36.64-14.24-55.04-4.11-16.71-8.08-33.49-11.38-50.37-3.77-19.33-6.59-38.84-10.13-58.21-.98-5.36-2.84-10.6-4.62-15.78-2.68-7.76-5.88-15.35-8.42-23.16-2.15-6.63-3.78-13.43-5.47-20.2-2.36-9.43-4.43-18.93-6.87-28.34-3.43-13.26-8.54-26.08-9.88-39.88-.41-4.21-1.14-8.41-2.08-12.53-2.5-10.9-3-21.69.69-32.46,1.29-3.77,2.12-7.7,3.23-11.54,2.27-7.87,2.45-15.51-.18-23.53-3.49-10.66-5.9-21.67-8.93-32.48-2.21-7.92-4.39-15.86-7.08-23.63-3.76-10.84-8.02-21.5-11.99-32.26-4.23-11.45-7.44-23.39-12.75-34.31-9.8-20.15-19.51-40.34-30.98-59.71-10.08-17.02-20.92-33.4-33.65-48.39-10.96-12.91-23.09-24.82-34.77-37.12-2.75-2.89-5.72-5.58-8.61-8.34-12.08-11.56-24.13-23.14-36.26-34.64-8.14-7.71-16.59-15.1-24.57-22.98-8.12-8.02-18.15-18.01-27.45-29.53-23.19-28.72-16.42-35.74-35.77-55.17-13.84-13.9-29.49-23.31-35.43-25.95-8.65-3.84-17.21-7.88-25.72-12.03-13.66-6.67-27.18-13.63-40.89-20.19-6.06-2.9-12.51-4.96-18.65-7.7-3.45-1.54-21.79-10.48-38.29-26.02-19.74-18.59-28.15-38.6-39.02-64.44,0,0-7.03-21.18-14.24-43.36-.54-1.65-.84-3.39-1.19-5.1-1.1-5.37-2.12-10.76-3.27-16.11-2.16-9.98-4.54-19.92-6.54-29.94-1.27-6.35-2.29-12.77-2.92-19.21-1.3-13.44-.65-26.89.53-40.31,2.17-24.68,5.79-49.11,14.05-72.6,5.87-16.69,8.12-34.43,15.09-50.8,1.36-3.19,2.07-6.66,3.36-9.88,4.81-12.03,9.29-24.21,14.73-35.95,5.76-12.42,12.52-24.38,18.73-36.6.88-1.74,1.57-3.8,1.56-5.72,0-2.06-.42-5.43-1.57-5.87-1.92-.74-5.24-.42-6.78.87-8.99,7.57-22.76,20.58-22.76,20.58-15.76,19.98-36.5,32.74-38.17,44.71-.06.42.09,1.94-.62,3.86-1.82,4.91-3.5,9.89-4.83,14.95-6.46,24.61-11.47,49.56-19.03,73.94-7.45,24.04-17.11,46.88-30.28,68.22-9.04,14.65-18.12,29.31-27.97,43.42-9.98,14.29-20.31,28.44-31.6,41.7-13.26,15.56-27.57,30.24-41.71,45.02-14.33,14.97-28.92,29.68-43.57,44.33-11.47,11.48-23.68,22.25-34.69,34.14-13.04,14.08-25.3,28.91-37.61,43.65-10.22,12.23-20.9,24.15-28.17,38.55-2.92,5.79-5.84,11.6-9.09,17.21-10.98,18.91-14.73,25.89-37.43,63.96-17.53,29.4-13.71,23.79-23.55,39.93-17.25,28.29-21.16,32.68-26.56,45.17-1.76,4.06-1.61,4.48-5.15,14.98-15.27,45.28-30.59,78.41-34.97,87.71-7.84,16.66-6.65,12.45-11.34,22.96-16.5,36.98-21.65,69.08-25.17,91.06-2.7,16.86-5.93,39.41-5.1,69.36.7,24.99,5.38,49.62,12.34,73.69,1.72,5.94,3.99,11.77,6.5,17.42,6.18,13.91,12.72,27.66,18.97,41.54,4.92,10.91,9.69,21.89,14.42,32.88,5.71,13.28,14.4,25.15,18.24,39.32,2.35,8.66,4.59,17.41,7.79,25.77,6.8,17.78,11.59,36.11,13,54.97,1.56,20.89,6.48,41.36,6.92,62.34.06,2.7,1.01,5.38,1.61,8.05,1.32,5.82,2.7,11.63,4.01,17.46.86,3.85,1.26,7.86,2.54,11.57,2.18,6.3,4.75,12.47,7.39,18.59,3.95,9.15,8.23,18.16,12.11,27.34,3,7.11,5.26,14.54,8.53,21.52,1.74,3.72,4.44,7.32,7.55,10.01,5.63,4.87,10.62,3.06,11.78-4.19,1.65-10.33,3.28-20.72,3.92-31.15,1.2-19.75,3.08-39.25,10.19-58,6.45-17.01,11.39-34.63,18.35-51.41,9.94-23.94,16.04-48.78,20.11-74.21,2.25-14.05,3.75-28.23,6.16-42.24,1.33-7.7,3.6-15.29,8.49-22.05,5.76,29.33,9.44,49.17,11.9,63.51.94,5.47,2.96,15.13,7.15,34.43,1,4.6,2.13,9.21,3.67,13.65,1.79,5.18,3.95,10.26,6.24,15.24,1.44,3.14,3.35,6.07,5.15,9.04,5.81,9.6,12.07,18.95,17.33,28.84,3,5.64,4.74,12.04,6.43,18.27,1.63,6,2.47,12.22,3.64,18.35,2.81,14.7,4.99,29.56,8.61,44.05,3.61,14.5,8.52,28.68,13.16,42.91,1.69,5.2,4.57,10.02,6.29,15.22,5.09,15.39,10.21,30.78,14.67,46.35,5.22,18.22,9.76,36.64,14.61,54.96,4.99,18.88,8.6,37.93,8.01,57.62-.12,3.89.94,7.92,2,11.73,1.08,3.86,2.92,8.68,7.25,8.43,3.43-.2,6.69-3.64,9.96-5.75.57-.37.95-1.18,1.2-1.87,2.89-7.95,6.38-15.76,8.41-23.94,1.91-7.7,2.56-15.75,3.22-23.69,1.33-16.07,5.42-31.47,10.72-46.58,3.63-10.35,7.68-20.55,11.55-30.82.97-2.57,2.08-5.09,2.93-7.7,3.85-11.84,7.77-23.66,11.37-35.58,1.14-3.77.98-7.93,2.04-11.74,2.06-7.41,5.06-14.58,6.76-22.06,2.09-9.23,3.7-18.62,4.73-28.03,1.95-17.82,4.75-35.49,8.19-53.07.67-3.41,1.13-6.87,1.89-10.26,4.31-19.25,8.68-38.48,13.01-57.72,1.75-7.79,3.21-15.64,5.28-23.34.24-.88.63-1.45.73-1.68,21.1-46.87,26.59-91.69,26.59-91.69,2.28-18.62,2.39-33.33,1.91-39.6-1.76-22.85-5.02-45.62-8.53-68.29-2.14-13.82-3.71-27.62-4.47-41.55-.35-6.48-.72-9.71-.85-13.43-.96-27.56,4.19-37.28,5.19-68.64.29-9.29.3-8.76.27-16.35-.02-6.44-.19-19.79-.31-24.5-.37-15.3-2.69-28.52-3.78-41.28-3.23-37.74,6.22-48.28,3.11-87.33-.61-7.69-2.18-15.32-2.54-23.01-.51-11.05-2.49-21.75-5.66-32.31-1.57-5.24-2.95-10.55-4.26-15.87-2.93-11.87-6.1-23.71-12.21-34.39-16.89-29.52-19.17-47.27-22.66-59.32-6.32-21.84-9.38-42.37-8.02-42.73.94-.25,3.11,9.47,10.53,26.47,11.07,25.36,21.47,39.47,27.01,45.55,2.38,2.61,4.26,4.75,5.91,6.71,0,0,7.66,8.91,13.65,16.85,5.28,6.99,18.62,27.86,32.84,68.58,9.82,28.12,14.68,42.45,11.9,55.57-3.18,15.04-12.81,14.83-13.36,33.08-.5,16.36,1.67,32.86,3.47,49.22,1.29,11.63,7.07,21.95,13.29,31.52,7.19,11.07,15.8,21.26,26.34,29.47,8.44,6.58,17.13,12.85,25.79,19.15,6.85,4.98,13.7,10,20.83,14.56,2.31,1.48,5.96,2.79,8.24,2,6.03-2.1,11.89-4.68,16.08-10.31,5.05-6.78,10.57-13.32,16.65-19.17,4.31-4.15,5.92-8.59,4.93-14.04-.93-5.14-2.37-10.2-3.83-15.22-2.63-9.08-5.98-17.98-8.04-27.18-3.41-15.2-7.95-29.88-15.98-43.31-3.17-5.31-5.94-11.36-11.28-18.35-6.02-7.88-28.08-36.7-56.95-38.49-6.25-.39-12.22.53-15.91-3.66-3.72-4.22-2.96-8.76-5.03-21.03-.87-5.17-.83-2.95-5.6-21.87-4-15.87-4.04-17.44-6.44-26.79-3.12-12.15-5.35-22.47-10.2-33.47-5.61-12.73-13.05-24.69-20.15-36.72-6.71-11.36-14.07-22.34-21.02-33.56-3.01-4.86-6.15-9.71-8.48-14.9-5.4-12.06-10.32-24.35-15.48-36.52-15.5-36.52-15.92-33.26-18.45-43.38-4.29-17.15-1.4-39.65,4.4-84.66.23-1.76.56-4.87,1.35-8.8.88-4.36,2.28-8.65,2.85-13.05,2.63-20.28,5.01-40.59,7.56-60.89.65-5.2,1.13-10.48,2.49-15.51,2.73-10.1,6.03-20.04,9.06-30.07.76-2.52,1.36-5.08,4.39-6.84.25,1.53.61,3.74,1.08,6.39,2.71,15.35,7.53,38,16.79,66.15,8.76,26.64,9.17,20.73,13.59,37.07,2.11,7.82,3.68,13.54,5.23,20.18,3.4,14.58,3.63,19.12,5.85,30.03,6.13,30.05,12.55,35.9,15.1,61.45.28,2.79.55,6.55.94,14.09.7,13.47.94,26.97,1.52,40.45.5,11.7.56,23.45,1.71,35.09,2.44,24.79,10.76,48.17,19.34,71.28,5.53,14.9,12.67,29.31,20.19,43.35,8.82,16.47,18.69,32.39,28.41,48.36,6.73,11.07,13.31,22.33,21.14,32.6,8.08,10.6,20.4,28.66,38.41,46.94,10.65,10.81,6.4,4.78,47.08,40.05,0,0,27.71,25.44,39.24,46.29.62,1.13,2.07,4.26,3.76,7.93,3.53,7.71,5.53,12.79,6.57,15.28,3.33,7.91,1.07,13.3,26.08,40.1,1.51,1.62,2.58,3.68,3.76,5.59,10.13,16.47,22.3,31.34,36.12,44.77,10.18,9.89,21.86,18.18,31.3,28.92,2.95,3.36,6.03,6.78,9.61,9.4,17.51,12.81,29.78,30.35,41.38,47.95,11.89,18.06,21.26,37.78,31.69,56.79,3.83,6.97,8.26,15.97,15.52,28.53,7.07,12.23,9.18,14.92,15.59,25.71,15.02,25.29,11.46,25.47,22,40.43,9.02,12.81,17.05,26.31,28.26,37.59,5.53,5.56,9.96,12.43,13.94,19.26,4.86,8.34,11.08,15.34,18.21,21.63,2.88,2.54,6.54,2.46,9.94,1.21,3.08-1.13,3.45-4.17,3.42-6.92-.07-5.2.32-10.59-.88-15.55ZM568.8,771.39c13.61,5.89,23.5,18.04,31.19,30.72,16.86,27.8,25.59,59.65,33.91,91.07,1.19,4.48,2.38,9.18,1.34,13.7-1,4.39-3.98,8.03-6.86,11.49-4.19,5.04-8.39,10.08-12.58,15.12-1.36,1.63-2.85,3.35-4.91,3.88-2.63.68-5.28-.8-7.6-2.21-25.58-15.64-52.16-32.28-67.4-58.1-11.13-18.86-20.9-70.61-8.13-95.92,6.62-13.13,19.31-19.14,41.02-9.74ZM544.79,447.87c13.28,11.19,28.17,19.56,44.23,26.11,12.45,5.08,25.1,9.95,36.87,16.35,21.44,11.66,44.25,20.87,64.16,35.27,2.97,2.15,5.42,4.6,8.79,8.07,17.59,18.07,16.96,30.18,30.89,50.6,5.64,8.28,12.32,14.87,25.47,28.27,9.25,9.42,19.3,18.05,28.85,27.18,8.64,8.26,17,16.81,25.66,25.05,4.84,4.61,10.02,8.87,15.05,13.28.74.65,1.7,1.16,2.2,1.96,7.03,11.19,18.08,18.53,27.13,27.76,6.15,6.28,11.54,13.05,17.14,19.71,4.34,5.15,8.79,10.27,12.57,15.82,4.05,5.95,7.48,12.33,10.99,18.64,6.17,11.09,12.13,22.3,18.31,33.39,2.43,4.35,5.61,8.32,7.76,12.79,5.59,11.65,11.39,23.25,16.01,35.29,5.7,14.86,10.38,30.12,15.32,45.26,4.32,13.28,8.59,26.58,12.47,39.98,2.14,7.4,3.66,15,5.09,22.58,1.66,8.82-.72,17.34-2.58,25.87-2.83,12.97-3.25,25.86-1.14,39.13,3.02,19.04,7.55,37.57,13.55,55.89,4.65,14.18,7.53,28.94,11.45,43.37,3.05,11.21,4.7,15.21,8.51,28.67,4.8,16.98,7.19,25.46,8.5,32.51,2.82,15.18,2.69,19.49,5.71,39.08.8,5.16,2.17,10.24,3.4,15.32,4.15,17.21,8.42,34.39,12.5,51.62,1.12,4.75,1.73,9.63,1.87,14.76-5.68-12.67-11.21-25.41-17.09-37.98-4.4-9.41-8.15-15.6-9.74-18.51-22.16-40.79-29.84-84.07-51-127.84-3.83-7.92-7.84-15.53-7.84-15.53-9.16-17.36-15.47-26.78-20.76-35.8-10.91-18.6-7.12-17.8-21.39-46.38-7.86-15.74-8.49-14.97-26.65-49.34-4.77-9.03-9.5-18.13-13.49-27.52-4.19-9.85-7.49-20.08-11.15-30.16-3.06-8.43-6.74-16.71-8.96-25.36-3.94-15.36-10.41-29.76-17.28-43.79-7.95-16.23-15.38-32.72-24.46-48.51-7.96-13.85-18.09-25.59-28.22-37.4-10.68-12.46-22.41-24.14-34.58-35.16-14.41-13.06-27.09-27.84-41.26-41-19.99-18.56-37.29-39.37-55.44-59.54-14.34-15.93-25.41-33.84-35.9-52.23-9.38-16.45-18.12-33.26-27.19-49.89-1.19-2.18-2.58-4.25-3.94-6.34-9.79-15.05-19.84-29.93-29.29-45.18-5.03-8.12-9.03-16.87-12.82-25.94,3.91,3.26,7.83,6.51,11.73,9.79ZM222.09,1128.96c-11.95,19.27-15.73,37.81-22.4,71.96-3.21,16.45-2.02,26.67-9.38,48.29-1.68,4.93-2.49,10.16-3.74,15.25-3.96,16.12-11.42,30.87-18.18,45.88-6.38,14.18-9.58,29.3-13.33,44.25-1.58,6.28-2.76,12.66-4.03,19.01-.82,4.12-1.47,8.27-2.72,12.43-.33-2.56-.8-6.45-1.26-11.18-2.58-26.5-2.79-58.43,9.11-137.1,5.24-34.66,8.29-45.54,8.9-69.7.36-14.19-.51-28.41-.25-42.61.39-21.07-3.35-41.67-6.73-62.29-1.84-11.27-5.5-22.24-7.86-33.44-1.9-9.03-3.08-18.2-4.56-27.32-.48-2.93-.87-5.88-1.35-8.81-.86-5.16-2.11-10.29-2.58-15.48-1.26-13.66-2.34-27.34-3.22-41.04-3.24-50.82,5.72-92.16,5.72-92.16,8.7-52.12,19.95-59.19,33.94-125.91,1.56-7.45,4.11-21.11,9.1-40.12,4.68-17.82,9.78-35.53,15.12-53.17,4.04-13.33,8.77-26.45,13.11-39.68,1.08-3.3,1.78-6.73,2.81-10.05,5.75-18.41,14.22-35.64,22.98-52.74,6.14-11.99,12.42-23.91,18.6-35.87,4.57-8.85,8.25-18.3,13.83-26.46,10.26-14.99,21.61-29.23,32.54-43.77,4.3-5.73,8.69-11.39,13.03-17.09.16.28.33.56.49.84-1.16,4.3-2.13,8.66-3.51,12.89-2.08,6.4-4.05,12.88-6.78,19.01-6.08,13.67-8.28,28.05-9.51,42.79-1.73,20.62-3.57,41.25-8.02,61.52-.32,1.45-.63,2.98-.51,4.43.88,10.63-1.94,20.77-3.66,31.1-1.81,10.84-4.29,21.42-8.62,31.53-.68,1.59-1.15,3.33-2.11,4.73-7.85,11.44-13.09,23.97-15.7,37.56-.33,1.73-.65,3.47-.95,5.21,0,0-1.35,7.63-2.42,14.71-2.84,18.69-1.2,44.46-10.49,72-.67,2-.73,5.16-3.06,8.18-7.34,9.53-13.41,19.72-18.13,30.79-2.84,6.67-5.69,10.83-9.21,18.76-11.18,25.2-15.15,45.61-18.05,60.51-3.55,18.23.29,9.74-2.35,26.73-1.29,8.31,2.6,13.39,8.82,17.35,7.58,4.82,15.23,9.58,23.17,13.77,4.56,2.4,6.18,5.93,7.25,10.53,2.72,11.62,5.87,23.15,8.66,34.75,1.39,5.79,2.62,11.65,3.49,17.54,3.66,24.66.6,49.27-1.12,73.85-.53,7.63-2.39,15.27-4.47,22.67-3.96,14.07-5.16,28.85-12.62,42.07-3.29,5.83-4.99,8.44-7.85,13.05ZM318.99,723.97c-6.13-2.73-12.09-5.12-17.79-8-3.78-1.91-3.69-5.6-2.76-9.19,1.13-4.34,2.33-8.66,3.6-12.97,2.26-7.64,4.55-15.28,6.9-22.9,2.53-8.2,6.71-15.41,12.34-21.96,13.65-15.88,26.63-32.36,40.64-47.92,12.17-13.52,21.61-28.61,29.54-44.8,1.47-3,2.63-6.15,3.93-9.23.54.12,1.07.24,1.61.36-.22,3.29-.5,6.58-.66,9.88-1.16,24.08-8.97,46.25-18.56,68.1-7.35,16.74-19.08,30.35-29.63,44.83-7.5,10.29-14.61,20.75-19.3,32.74-2.71,6.91-6.28,13.48-9.86,21.05ZM333.1,804.57c-9.72,23.56-32.6,38.61-48.61,58.44-9.84,12.18-17.1,26.23-26.45,38.79-1.96,2.63-4.13,5.29-7.13,6.59-.75.32-1.51.55-2.29.7-3.62.69-7.55-.33-11.18-1.36-12.22-3.46-26.26-8.62-29.93-20.79-1.35-4.48-1-9.29-.52-13.95,3.96-37.96,40.54-177.69,101.91-144.01,3.27,1.79,6.25,4.08,8.99,6.61,18.41,17,24.76,45.8,15.2,68.97ZM396.85,431.8c-1.05,13.92-1.31,27.91-1.62,41.87-.21,9.47-.23,18.97.26,28.42.66,12.84-4.3,24.38-7.71,36.27-4.18,14.56-12.35,27.09-20.51,39.69-10.11,15.63-23.34,28.57-35.21,42.68-9.25,11-20.05,21.03-25.57,34.74-6.8,16.89-14.02,33.66-17.56,51.66-.34,1.71-.79,3.41-1.27,5.09-.87,3.11-2.41,5.03-6.13,5.43-4.94.53-9.8,1.88-14.65,3.09-2.28.57-4.45,1.61-6.91,2.53.02-1.21-.09-2.69.08-4.13,2.13-18.04,3.82-36.15,6.61-54.09,2.73-17.55,7.73-34.33,17.49-49.73,4.68-7.38,6.7-16.59,9.22-25.17,4.3-14.65,6.16-29.77,7.82-44.92,2.86-26.05,5.6-52.13,9.01-78.11,1.22-9.33,3.79-18.56,6.58-27.57,2.87-9.26,6.52-18.31,10.29-27.26,2.5-5.95,5.75-11.61,8.77-17.34,9.55-18.14,19.87-35.63,34.21-50.7,8.35-8.77,15.58-18.64,22.34-28.93,8.31-12.65,18.84-23.84,28.45-35.63.24-.29.91-.22,1.84-.42-.26,1.58-.43,2.99-.74,4.38-5.42,24.6-11.22,49.13-16.15,73.83-2.33,11.71-3,23.74-4.43,35.63-1.55,12.89-3.54,25.74-4.52,38.66ZM362.71,1534.28c-.5,18.2-1.31,36.4-2.34,54.57-.36,6.44-1.75,12.82-2.74,19.26.58-9-.3-17.78-2.47-26.59-2.19-8.87-3-18.07-4.8-27.05-.92-4.6-2.67-9.03-4.07-13.53-.81-2.61-1.83-5.17-2.48-7.83-2.83-11.56-5.37-23.19-8.4-34.69-1.96-7.45-4.48-14.77-6.93-22.08-4.42-13.22-8.85-26.44-13.54-39.56-2.56-7.16-6.15-13.97-8.4-21.2-2.29-7.34-3.62-15-5.18-22.55-1.41-6.81-2.46-13.69-3.85-20.51-1.82-8.96-3.8-17.89-5.75-26.83-1.35-6.22-3.02-12.39-4.09-18.66-1.93-11.24-8.31-20.32-14.59-29.2-10.25-14.48-17.41-30.31-22.41-47.13-2.26-7.59-2.73-15.7-4.43-23.48-2.55-11.63-5.5-23.15-6.68-35.07-.41-4.19-.53-1.97-3.76-15.07-4.41-17.88-5.69-23.82-5.28-32.09.1-1.98-.75-6.24,1.4-10.61,3.85-7.8,6.91-15.99,10.19-24.06,4.72-11.6,6.76-23.83,8.7-36.12.93-5.88,3.31-11.54,4.11-17.42,1.28-9.37,1.82-18.84,2.61-28.27.4-4.72.61-9.45.98-14.18,1.78-22.67-1.63-44.75-7.23-66.65-2.21-8.64-3.59-17.49-5.62-27.65,13.03,2.31,17.01-6.65,21.93-13.97,6.26-9.3,11.73-19.16,18.34-28.2,5.42-7.41,11.8-14.15,18.1-20.87,8.02-8.54,17.24-16.09,24.39-25.27,4.05-5.2,15.27-20.14,17.7-42.05,2.78-25.02-7.47-45.2-10.5-47.51-.28-.21-1.8-1.26-2.43-3.16-.41-1.24-.39-2.62.09-4.13.82-2.61,1.45-5.3,2.56-7.78,3.38-7.49,5.16-13.79,12.67-26.99,6.6-11.61,20.19-32.15,39.84-56.94-4.17,11.3-7.05,21.09-9.02,28.59-3.78,14.35-7.7,36.91-10.22,66.41-.02.25,0,.5-.04.75-3.37,21.13-.06,41.66,4.8,62.23,3.2,13.55,4.96,27.45,7.21,41.21.92,5.59-.31,10.82-3.02,15.88-3.06,5.71-5.53,11.74-8.36,17.58-7.93,16.36-9.55,34.01-9.85,51.72-.11,6.28,2.15,12.75,4.09,18.89,2.84,9.01,6.52,17.75,9.52,26.71,1.33,3.95,2.66,8.17,2.65,12.26-.09,34.95-.63,69.9-4.06,104.7-1.07,10.86-3.61,21.64-6.24,32.26-5.57,22.51-11.66,44.89-17.48,67.33-.44,1.68-.58,3.45-.68,5.19-1.27,23.44-2.95,46.87-3.56,70.32-.28,10.88,1.3,21.83,2.48,32.71,2.01,18.59,4.38,37.13,6.57,55.7,1.6,13.62,3.4,27.22,4.64,40.88,1.36,14.9,2.51,29.83,3.14,44.78.85,19.94,1.19,39.9,1.6,59.85.24,11.71.5,23.43.18,35.13ZM395.32,682.61c.08,9.72-.29,27.83-.59,51.57-.04,3-.18,6-.41,8.98-1.08,14.05.23,27.95,3.35,41.62,1.93,8.47,4.59,16.79,7.14,25.11,1.53,5.01.68,8.8-3.34,12.59-5.56,5.24-10.4,11.25-16.35,17.82-1.43-8.54-2.79-16.09-3.94-23.68-1.83-12.05-3.61-24.76-4.41-31.78-3.79-33.33-.43-63.41,1.88-84.04,1.94-12.66,4.75-26.68,8.84-41.7,3.77-13.83,8.05-26.36,12.4-37.5-3.94,27.05-4.66,47.25-4.55,61.01ZM445.52,832.72c12.58,9.92,18.07,26.3,21.11,42.03,8.22,42.46,3.11,87.4-14.44,126.92-.65,1.46-1.34,2.96-2.5,4.06-.22.21-.46.41-.71.58-1.97,1.41-4.6,1.72-7.06,1.95-10.04.95-20.08,1.9-30.12,2.86-2.72.26-5.68.46-7.95-1.06-2.14-1.43-3.11-4.02-4.03-6.42-8.64-22.35-24.32-42.03-29.03-65.52-6.38-31.83,25.55-144.15,74.72-105.39ZM476.61,1092.84c2.84,20.49,3,34.37,2.61,43.64,0,0-.24,5.47-.75,10.87-3.07,32.27-18.54,62.81-28.84,98.27-2.08,7.16-5.12,22.08-10.89,51.97-4.44,22.99-8.29,46.09-12.64,69.09-4.32,22.8-9.27,45.48-13.35,68.32-4.82,26.99-14.73,52.33-24.14,77.86-2.5,6.78-5.49,13.38-8.43,19.98-5.25,11.8-6.35,24.58-8.88,37.02-1.24,6.09-1.92,12.29-3.42,18.44-1.99-4.67-1.53-9.65-1.01-14.31,1.71-15.29-.14-30.42-1.02-45.62-.31-5.44.22-10.92.34-16.39.25-10.98.74-21.95.63-32.93-.1-10.31-.51-16.78-1.28-29.08-2.42-38.84-1.7-38.03-2.96-54.03-3.29-41.84-8.23-47.22-11.9-93.93-.65-8.24-1.47-18.97-1.8-33.42-.45-19.81,1.1-43.02,3.51-71.78,1.45-17.3,5.32-34.4,11.62-50.67,5.74-14.81,8.23-30.23,11.1-45.69,4.32-23.22,4.15-46.63,4.61-70.05.23-11.96.77-23.92,1.26-35.87.09-2.15.65-4.27.99-6.41.58-.08,1.17-.16,1.75-.24,3.02,7.29,6.12,14.54,9.05,21.86,4.04,10.06,7.91,11.21,18.48,9.8,12.53-1.67,25.31-1.7,37.99-1.97,7.53-.16,8.92-.77,10.27-8.48.63-3.62,2.2-6.44,5.6-9.3.61,2.75,1.39,4.81,1.49,6.9,1.4,28.95,6,57.5,9.98,86.15ZM431.05,621.8c2.32,6.92,5.22,13.77,5.22,13.77,2.32,5.76,5.13,11.37,8.12,16.82,6.89,12.55,12.52,25.52,15.36,39.64,1.18,5.86,3.52,11.53,4.32,17.43,2.13,15.8,3.85,31.65,5.49,47.51,2.22,21.47.72,42.92-.92,64.33-.45,5.84-1.77,11.62-2.68,17.39-1-.13-1.35-.08-1.45-.21-7.01-9.31-17.23-14.14-27.2-19.21-3.49-1.77-7.4-3.14-11.25-3.64-4.01-.52-5.88-2.48-6.39-6.03-.88-6.16-1.47-12.35-2.27-18.52-3.56-27.38-2.91-54.78-.51-82.2.11-1.24.21-2.5.12-3.74-1.14-16,1.64-31.76,2.99-47.6,2.91-34.14,2.94-28.88,3.25-36.5,1.08-26.24-1.43-47.42-1.05-47.45.43-.03,1.92,27.53,8.85,48.21ZM1036.76,1326.78c-2.84-2.92-5.25-5.16-7.38-7.64-1.94-2.26-3.5-4.85-5.35-7.19-9.88-12.55-20.72-24.46-29.5-37.73-14.02-21.19-28.64-42.04-39.83-65.06-7.3-15.02-16.25-29.24-24.22-43.95-6.43-11.85-12.62-23.82-18.71-35.84-6.23-12.31-13.58-23.86-22.27-34.56-7.07-8.71-13.99-17.57-21.44-25.94-4.62-5.2-10.16-9.57-15.2-14.4-5.04-4.83-9.89-9.87-14.98-14.63-7.66-7.16-15.45-14.18-23.21-21.23-11.93-10.84-21.14-23.91-30.39-36.96-20.18-28.45-30.97-42.16-34.68-54.2-2.76-8.95-5.02-20.77-14.75-33.7-1.36-1.81-4.57-5.65-11.7-12.65-9.26-9.1-18.58-18.15-28.09-26.99-3.63-3.38-7.67-6.37-11.8-9.13-14.65-9.8-27.55-21.51-38.57-35.21-12.2-15.17-24.63-30.2-35.97-46.01-8.56-11.92-15.63-24.92-23.22-37.52-4.25-7.05-8.36-14.19-12.31-21.42-8.37-15.32-16.67-30.67-24.83-46.1-1.62-3.06-2.63-6.47-3.68-9.8-4.9-15.44-10.31-30.75-14.34-46.41-2.66-10.32-4.09-21.12-4.63-31.77-.94-18.41-.65-36.87-1.09-55.31-.47-19.44-1.31-38.87-6.65-57.73-1.55-5.49-4.31-10.65-5.71-16.16-2.76-10.85-4.94-21.86-7.4-32.79-.72-3.2-1.35-5.38-2.2-8.65-7.37-28.28-19.13-63.35-28.16-90.27-.41-1.21-1.59-4.6-2.94-9.24,0,0-.67-2.22-1.27-4.32-3.51-12.3-6.09-43.41-12.87-44.29-.96-.12-2.62.27-3.92,1.15-1.26.85-2.16,2.16-2.79,3.84-3.29,8.88-6.56,17.76-9.79,26.66-6.6,18.21-9.49,37.17-11.63,56.31-2.05,18.35-4.68,36.64-6.79,54.99-2.19,19.05-5.35,37.83-6.78,64.01-.83,15.23-.45,19.24.04,22.49,2.24,14.89,8.75,27.61,14.66,43.33.31.82,1.33,3.53,2.79,7.19.54,1.35,1.16,2.88,1.89,4.62,2.99,7.12,6.48,14.05,9.04,21.32,5.25,14.93,13.87,28.15,20.78,42.23.97,1.97,2.87,4.33,6.26,9.28,14.61,21.32,19.52,25.49,25.82,36.1,4.33,7.28,6.68,13.53,11.4,26.02,12.14,32.18,17.71,62.26,16.68,62.53-.52.14-2.34-7.44-7.26-20.76-5.23-14.15-11.74-31.58-22.55-52.91,0,0-14.32-26.71-25.02-41.3-3.14-4.28-6.44-8.09-6.44-8.09-.55-.66-1.18-1.36-1.99-2.25-13.68-14.77-17.26-29.12-23.2-43.24-3.38-8.02-15.32-36.39-20.7-35.11-1.92.46-2.71,4.63-3.1,48.81-.16,18.34-.02,17.73-.23,25.18-.46,16.16-1.33,29.43-2.26,43.43-2.3,34.75-3.41,38.63-4.72,64.22-.79,15.44-.72,30.94-.78,46.41-.03,8.87.44,17.74.17,26.7-3-8.63-5.36-17.39-5.6-26.6-.34-13.2-.76-26.4-.85-39.6-.06-8.47.52-16.94.62-25.42.45-35.57-.88-40.71-.41-46.21.23-2.71.74-4.69.88-5.35,2.71-12.68,6.31-50.55,3.68-50.99-.25-.04-1.07.07-1.82,2.85-1.73,6.45-2.6,13.22-5,19.4-4.61,11.82-17.35,34.25-25.9,45.37-31.98,41.56-43.09,65.84-45.14,64.65-1.9-1.1,6.16-22.67,21.6-42.12,6.71-8.45,8.44-8.48,15.37-16.59,16.6-19.45,27.65-50.08,27.65-50.08,0,0,16.55-46.63,12.53-98.92-.14-1.81-.45-5.37-.73-10.62-.77-14.06-.36-26.02.26-45.62.48-15.2,1.18-30.44,2.71-45.57,1.71-16.87,4.3-33.65,6.83-50.43,1.71-11.33,3.81-22.61,6.03-33.85,1.15-5.85,2.88-11.59,4.45-17.36,4.56-16.82,9.1-33.65,13.83-50.42,1-3.55,2.51-7.06,4.36-10.25,2.26-3.89,2.59-7.39-.41-11.41-8.81,3.58-13.6,11.2-18.73,18.4-5.31,7.45-9.88,15.34-16.2,22.17-6.05,6.54-10.38,14.64-16.15,21.48-8.63,10.24-14.87,22.35-25.17,31.33-4.06,3.54-7.23,8.26-10.29,12.79-12.48,18.49-28.23,34.24-42.49,51.24-9.29,11.08-19.23,21.61-28.66,32.58-3.4,3.96-6.13,8.49-9.22,12.72-11.04,15.13-20.54,33.51-33.27,61.72-15.82,35.07-25.54,62.72-28.51,71.29-8.02,23.18-13.43,43.45-17.84,58.7-2.84,9.81-4.69,19.91-7.25,29.81-7.24,27.98-14.44,55.98-22.02,83.87-4.32,15.87-9.4,31.54-14.05,47.32-9.26,31.45-16.83,63.21-17.08,96.26-.13,17.23-.98,34.49-.21,51.67.64,14.17,2.97,28.28,4.93,42.37,2.52,18.04,5.3,36.05,8.22,54.03,1.16,7.13,2.92,14.17,4.49,21.24,5.54,25.03,9.41,66.93,7.03,110.79-3.33,61.34-17.24,99.39-18.05,146.82-.32,18.95.08,29.96.08,29.96.58,15.45,1.68,30.88,2.37,46.33.35,7.69.29,15.4.41,23.11-.17.12-.42.26-.74.33-6.95,1.5-23.65-37.48-32.25-75.14-2.12-9.27-3.95-22.66-7.76-49.42-2.6-18.26-5.14-36.54-7.36-54.85-2.62-21.55-12.01-41.12-17.42-61.85-2.93-11.24-8.66-21.19-13.52-31.55-8.16-17.4-16.46-34.73-24.51-52.17-5.95-12.91-12.25-25.72-17.24-39-8.1-21.58-12.89-44.02-14.82-67.04-3.23-38.55.8-66.98,6.11-99.1,1.25-7.58,2.95-16.47,5.48-26.58,4.32-17.22,9.08-30.08,12.18-38.19,19.12-49.97,41.28-91.23,53.44-125.13.39-1.1,1.05-3.12,2.17-5.81,5.97-14.36,14.21-27.46,22.19-40.72,6.82-11.33,13.3-22.86,20.22-34.13,5.6-9.12,12.14-17.69,17.36-27.01,9.47-16.95,18.17-34.33,27.41-51.41,2.23-4.11,5.43-7.69,8.02-11.62,3.28-4.97,6.14-10.22,9.62-15.04,15.03-20.83,30.87-40.98,48.18-60.02,19.17-21.08,40.33-40.08,60.56-60.05,12.04-11.89,23.19-24.67,34.79-37,9.9-10.52,19.81-21.04,29.82-31.46,9-9.37,17.51-19.07,24.57-30.06,3.33-5.18,7.77-9.64,11.25-14.73,7.02-10.28,13.88-20.67,20.5-31.21,6.36-10.12,12.53-20.38,18.41-30.79,6.01-10.62,11.28-21.55,14.48-33.5,2.77-10.34,6.92-20.3,10.2-30.51,1.75-5.45,3.08-11.04,4.41-16.61,3.81-15.99,7.05-32.14,11.47-47.96,2.73-9.78,7.14-19.11,10.95-28.57.62-1.54,1.91-2.9,3.13-4.11,7.98-7.91,16.11-15.67,24.01-23.66,3.64-3.68,6.87-7.77,10.86-11.39.01,4.25-1.9,7.8-3.73,11.34-3.92,7.52-8.61,14.72-11.77,22.54-5.03,12.47-9.19,25.3-13.49,38.06-4.46,13.24-9.01,26.47-12.85,39.9-3.9,13.67-6.66,27.66-10.5,41.34-5.59,19.95-6.68,40.37-6.67,60.83,0,8.09.5,18.56,2.66,35,0,0,11.2,85.38,54.36,173.31,2,4.07,4.22,8.44,4.22,8.44,3.8,7.42,6.89,12.96,10.3,19.36,2.46,4.6,6.02,8.67,8.1,13.42,7.69,17.55,20.33,31.99,29.83,48.37,6.89,11.87,13.03,24.16,20.05,35.95,9.82,16.49,18.65,33.69,31.49,48.17,24.67,27.81,49.62,55.35,77.1,80.48,9.95,9.1,19.55,18.57,29.14,28.05,10.1,9.99,20.36,19.86,29.92,30.35,24.99,27.42,44.17,58.27,56.43,93.6,9.81,28.27,21.32,55.95,32.38,83.77,3.12,7.84,7.31,15.25,11.06,22.83,2.21,4.47,4.58,8.86,6.8,13.33,5.45,10.95,10.96,21.87,16.25,32.89,6.47,13.5,12.56,27.17,19.13,40.62,5.9,12.08,12.13,24.01,18.37,35.92,8.45,16.12,17.73,31.85,25.38,48.33,6.49,13.97,11.14,28.79,16.68,43.2,3.4,8.84,6.95,17.63,10.43,26.45,5.39,13.67,10.28,27.56,16.31,40.94,6.24,13.85,13.51,27.25,20.48,40.76,5.47,10.62,11.18,21.12,16.76,31.68,2.13,4.04,2.77,9.37,1.73,16.57Z"/><path class="cls-1" d="M308.15,746.26c-2.43-1.61-5.99-2.78-7.98-.65-1.56,1.67-1.09,4.33-.36,6.5,3.93,11.57,12.69,21.52,14.06,33.67,1.13,9.99-3.04,19.95-8.96,28.07-5.92,8.13-13.54,14.83-20.55,22.03-15.43,15.87-28.05,34.45-37.11,54.64-.6,1.33-.83,3.21-.43,4.5.29.92.9,1.55,1.93,1.47,2.4-.18,27.07-41.66,31.14-46.55,11.58-13.9,26.76-24.71,36.22-40.42,6.05-10.06,9.64-21.85,8.67-33.55-.97-11.7-6.85-23.21-16.63-29.7ZM309.2,759.32c6.03,4.15,10.15,12.55,10.41,19.05-3.58-6.55-6.99-12.8-10.41-19.05Z"/><path class="cls-1" d="M397.06,969.26c3.15,7.05,6.51,14.04,10.26,20.79,1.54,2.77,3.55,6.06,9.05,5.73-.92-1.95-1.1-3.09-1.77-3.61-5.81-4.54-8.36-11.08-10.96-17.57-3.63-9.03-7.6-17.96-10.55-27.21-3.58-11.2-6.28-22.66-1.18-34.31,7.73-17.65,16.69-34.54,28.23-50.09,3.32-4.48,5.38-10.11,7.08-15.51,1.29-4.07-1.56-6.77-5.82-6.35-3.82.38-6.93,2.07-9.78,4.89-6.38,6.32-9.83,14.3-13.85,22.05-8.78,16.97-12.83,35.1-13.12,54.01-.12,7.64.6,15.57,2.6,22.91,2.28,8.36,6.25,16.29,9.81,24.26ZM420.34,847.84c2.12,1.96,1.22,4.02.02,5.96-3.39,5.49-7.09,10.8-10.26,16.42-5.22,9.27-10.15,18.72-15.14,28.13-1.04,1.95-1.81,4.05-2.7,6.07,5.74-31.37,16.96-53.43,28.08-56.58Z"/><path class="cls-1" d="M608.13,855.37c6.83,18.21,12.11,36.99,15.77,56.09,2.64-9.47.77-19.59-1.74-29.1-6.87-26.02-18.5-50.78-34.14-72.68-5.45-7.64-11.64-15.14-19.96-19.47-10.43-5.42-23.02-4.47-29.69,5.53-.04.07-.09.13-.13.2,8.03,7.5,20.34,7.3,30.7,10.95,20.26,7.14,31.64,28.37,39.19,48.48ZM566.74,793.9c2.84.69,6.07,2.28,5.67,7.32-8.94-3.76-18.88-1.04-26.91-7.05,7.08-4.08,14.25-1.96,21.24-.27Z"/></g></svg>