<svg id="Layer_2" xmlns="http://www.w3.org/2000/svg" viewBox="0 0 1412.26 1863.46"><defs><style>.cls-1{fill:#1a1a1a;}</style></defs><g id="_Ñëîé_1"><path class="cls-1" d="M1412.01,1662.29c-1.46-8.36-2.52-16.83-4.68-25.01-4.38-16.63-9.95-32.82-17.64-48.34-7.97-16.06-14.93-32.63-22.3-48.99-.5-1.12-.77-2.35-1.15-3.52-1.24-3.77-2.28-7.62-3.77-11.29-2.55-6.24-5.73-12.23-8.03-18.55-7.55-20.73-9.82-42.05-7.27-64.03,2.56-22.07,3.43-44.22,2.04-66.46-1.36-21.8-4.53-43.14-13.34-63.35-2.38-5.47-5.17-10.84-6.79-16.54-2.32-8.13-3.96-16.47-5.49-24.8-3.51-19.07-6.64-38.2-10.18-57.27-2.58-13.93-2.94-28.22-7.91-41.8-3.5-9.57-5.49-19.68-8.23-29.53-1.41-5.04-2.79-10.11-4.55-15.03-3.35-9.38-6.9-18.69-10.5-27.98-2.52-6.52-5.15-12.93-5.12-20.15,0-1.71-1.37-4.01-2.82-5.04-8.31-5.93-16.42-12.34-25.39-17.09-10.86-5.75-21.16-12.07-30.87-19.6-8.53-6.62-18.06-11.5-28.95-13.3-5.15-.85-10.31-1.84-15.32-3.3-6.45-1.87-12.53-4.32-17.93-8.85-5.46-4.58-11.99-7.94-18.16-11.63-6.16-3.68-12.77-6.67-18.63-10.76-7.9-5.51-16.23-10.14-24.78-14.51-5.52-2.82-10.83-6.08-16.11-9.34-1.23-.76-2-2.28-2.98-3.45,7.99.52,15.33,1.94,22.47,4.01,12.68,3.68,25.52,7.09,37.8,11.86,12.76,4.96,25.18,10.94,37.29,17.35,10.11,5.35,20.45,10.92,29.09,18.27,15.32,13.03,32.26,23.3,49.63,33.07,1.92,1.08,4.09,1.81,6.22,2.42,8.83,2.52,17.73,4.82,26.54,7.42,4.39,1.3,7.45-.43,7.89-4.97.32-3.31-1.11-5.8-3.75-7.67-2.65-1.87-5.25-3.81-7.99-5.53-3.11-1.96-6.3-2.19-8.49,1.26-1.9,3.01-4.31,2.69-7.17,2.12-9.94-1.98-18.86-6.14-27.06-12.03-6.27-4.51-12.72-8.77-18.91-13.39-2.75-2.06-5.05-4.72-7.55-7.11,1.82-.73,2.8-.58,3.66-.17,13.97,6.75,28.23,12.7,43.56,15.63,4.88.93,9.79,2.13,14.71,2.33,3.53.14,5.34-2.49,4.86-5.26-.66-3.78-3.92-5.97-7.4-5.41-2.57.42-5.31.71-7.83.27-5.65-.99-11.22-2.47-16.81-3.76-11.58-2.67-22.14-7.8-31.53-14.82-11.16-8.35-21.68-17.54-32.41-26.46-1.42-1.18-2.39-2.89-4.71-5.78,6.72,1.44,11.67,2.81,16.72,3.5,7.32,1,13.99,3.49,20.3,7.24,5.15,3.07,10.24,6.31,15.66,8.82,14.26,6.59,28.91,12.39,42.96,19.4,6.34,3.16,12.37,1.36,18.13,2.68,1.78-3.62,2.19-6.29-.36-8.42-2.91-2.45-6.14-3.99-10.23-3.47-2.59.33-5.57.62-7.88-.3-10.19-4.06-20.34-8.28-30.24-13-11.01-5.25-21.73-11.1-32.55-16.74-.95-.5-1.7-1.39-2.54-2.1,7.92.97,15.38,2.74,22.72,4.94,22.06,6.62,42.76,16.55,63.5,26.39,4.03,1.91,8.38,3.25,12.71,4.37,3.58.93,6.56-1.41,7.02-4.84.42-3.14-1.36-4.78-5.34-5.59-3.63-.74-7.32-1.55-10.74-2.94-18.92-7.69-37.45-16.33-56.87-22.79-3.94-1.31-8.32-2.59-11.87-6.84,1.93-.41,3.18-1.11,4.06-.79,3.51,1.25,7.04,2.56,10.32,4.31,16.61,8.84,33.94,15.66,52.37,19.7,3.17.7,6.08,2.63,10.03,4.4,1.58.14,4.46.09,7.2.69,4.33.95,6.3.46,7.45-2.57,1.33-3.52-.34-6.85-4.38-8.06-2.86-.86-5.85-1.29-8.8-1.85-14.72-2.8-29.19-6.41-42.95-12.53-10.01-4.45-20.11-8.69-30.16-13.04-3.44-1.49-5.47-4.19-6.66-7.67-2.1-6.14-4.31-12.24-6.4-18.38-3.06-8.97-5.95-17.99-9.1-26.93-1.63-4.63-3.72-9.1-5.5-13.69-3.52-9.04-6-18.64-10.67-27.02-7.27-13.03-15.74-25.44-24.21-37.76-11.16-16.24-22.79-32.16-34.28-48.18-4.51-6.29-9.11-12.52-13.86-18.63-1.82-2.33-4.74-3.91-6.21-6.39-4.04-6.84-7.8-13.86-11.24-21.02-2.69-5.6-4.58-11.59-7.12-17.27-2.95-6.59-6.15-13.08-9.4-19.54-2.23-4.43-5.34-8.51-7-13.12-3.15-8.77-8.66-15.6-15.51-21.56-8.98-7.82-17.57-16.03-27.41-22.94-11.79-8.28-22.65-17.89-33.99-26.83-2.88-2.27-6.52-3.71-8.99-6.32-6.04-6.36-13.07-11.31-20.23-16.24-6.98-4.8-14.18-9.51-20.26-15.33-18.88-18.07-37.15-36.77-55.89-55-9.64-9.38-19.34-18.78-29.75-27.26-12.15-9.9-22.12-21.79-31.2-34.16-12.24-16.66-22.75-34.59-33.89-52.03-2.82-4.41-5.52-8.93-7.81-13.62-7.43-15.25-14.66-30.6-21.92-45.93-5-10.57-9.95-21.16-14.86-31.77-.83-1.8-1.39-3.74-1.97-5.65-1.43-4.74-2.75-9.51-4.22-14.23-1.41-4.53-2.99-9-4.44-13.51-2.59-8.06-5.34-16.07-7.65-24.21-1.82-6.44-3.49-12.98-4.49-19.58-1.7-11.3-2.77-22.69-4.19-34.04-1.2-9.61-2.53-19.21-3.77-28.81-.09-.73.08-1.49.07-2.24-.09-9.21-.11-18.42-.29-27.62-.26-13.2-.75-26.39-.91-39.59-.11-8.97.18-17.95.31-26.92.22-15.94.56-23.9.52-25.81-.25-12.07-2.25-39.72-7.68-40.24-3.25-.31-4.34,9.4-14.04,25.92-10.42,17.74-13.49,13.91-17.35,24.3-5.73,15.43-3.25,35.37-3.83,47.91-.42,8.97-.9,7.48-1.3,19.36-.65,19.41.55,38.81-1.37,58.26-2.33,23.58-2.72,47.43-8.56,70.49-4.7,18.6-10.58,36.91-16.36,55.22-2.7,8.54-6.33,16.79-9.69,25.12-5.72,14.19-12.76,27.78-22.27,39.71-12.44,15.6-25.65,30.59-38.82,45.6-13.11,14.94-27.59,28.21-46.37,35.95-4.71,1.94-7.8,4.59-10.36,6-34.62,19.15-74.07,36.77-88.19,43.58-33.9,16.35-56.3,35.27-78.6,54.11-41.93,35.42-67.15,69.17-76.42,85.74-7.88,14.08-16.08,31.23-16.08,31.23-2.8,5.53-6.13,10.97-7.76,16.85-2.64,9.5-6.14,18.59-11.45,26.74-15,23.01-31.01,45.3-49.01,66.12-8.64,10-17.16,20.15-24.96,30.8-5.57,7.6-10.06,16.03-14.68,24.28-6.7,11.96-13.31,23.98-19.56,36.18-6.64,12.98-10.88,26.79-12.96,41.26-.6,4.18-1.67,8.3-2.67,12.41-4.44,18.2-15.58,33.32-23.17,50.07-.3.67-.86,1.22-1.25,1.86-4.72,7.64-9.74,15.11-14.08,22.97-9.9,17.94-18.44,36.49-24.37,56.19-5.03,16.72-10.73,33.25-15.59,50.03-3.33,11.49-6.07,23.19-8.44,34.92-3.01,14.89-6.13,29.83-7.83,44.9-1.79,15.83-1.91,31.84-2.85,47.77-.98,16.65-1.97,33.3-3.15,49.93-1.29,18.17-2.58,36.35-4.29,54.49-1.2,12.76-5.06,24.92-10.21,36.63-3,6.82-6.83,13.36-8.99,20.43-2.25,7.35-2.84,15.19-4.36,22.78-1.01,5.03,1.87,8.28,5.26,10.71,3.47,2.49,7.67,2.34,11.19-.45,5.67-4.48,11.66-8.68,16.67-13.83,9.54-9.8,18.3-20.36,27.72-30.29,12.03-12.69,22.43-26.65,33.07-40.46,8.21-10.65,16.71-21.12,25.7-31.11,3.56-3.96,8.41-7.41,13.35-9.32,7.95-3.06,15.83-6.03,22.88-10.89,8.4-5.79,17.5-10.8,25.03-17.57,10.34-9.29,19.47-19.92,29.15-29.95,2.94-3.04,6.06-5.91,8.97-8.98,4.62-4.89,9.08-9.93,13.71-14.81,4.61-4.87,9.37-9.6,14-14.46,2.73-2.86,5.61-5.63,7.93-8.79,2.94-4.01,5.29-8.45,8.06-12.6,3.13-4.68,7.23-8.23,12.86-9.55,14.01-3.3,24.34-12.29,34.01-22.15,7.47-7.62,13.1-16.79,19.89-25.02,10.58-12.83,19.22-27.25,29.01-40.74,5.7-7.86,11.33-16.01,18.29-22.67,12.96-12.39,26.84-23.83,40.45-35.53,1.52-1.31,3.77-1.76,7.02-3.2-1.19,3.03-1.66,4.67-2.44,6.14-7.61,14.31-15.27,28.61-22.94,42.89-3.42,6.37-6.25,13.17-10.47,18.96-5.57,7.65-11.83,14.9-18.53,21.59-8.81,8.79-18.55,16.65-27.49,25.31-12.78,12.38-26.8,23.16-41.14,33.61-3.42,2.49-6.62,5.34-9.61,8.34-6.11,6.13-9.97,13.65-12.68,21.81-1.07,3.22.2,5.39,3.07,6.68,3.22,1.45,5.33-.34,6.71-2.96.79-1.5.8-3.39,1.45-4.99,1.38-3.39,2.47-7.04,4.52-9.99,8.3-11.96,21.43-18.48,32.27-27.56,5.01-4.2,9.16-9.08,13.95-13.34,11.14-9.91,22.97-19.03,33.43-29.71.3-.31,1.25,0,2.33.05-.53,1.26-.84,2.17-1.27,3.01-12.42,24.03-27.6,46.29-43.94,67.79-5.31,6.99-11.83,11.8-20.67,13.78-10.17,2.28-17.14,8.73-20.91,18.58-2.27,5.92-.83,8.59,6.15,10.38.37-1.16.9-2.31,1.08-3.51,1.22-8,6.08-12.84,13.36-15.69,4.41-1.73,8.75-3.67,13.18-5.34,4.11-1.55,7.3-3.98,9.78-7.71,6.07-9.12,12.56-17.95,18.62-27.07,6.2-9.33,12.06-18.9,18.18-28.29.99-1.52,2.51-2.7,3.79-4.04,1.25,17.52-1.78,31.17-4.32,39.46-1.82,5.95-5.39,17.09-13.62,29.07-3.95,5.74-8.59,11.06-12.1,17.04-3.25,5.55-5.41,11.73-8.12,17.79,1.24,2.91,3.39,5.07,6.7,4.83,3.33-.24,3.72-3.5,4.86-5.97,2.61-5.64,4.93-11.51,8.23-16.73,9.37-14.81,18.78-29.57,21.7-47.28,2.69-16.32,6.24-16.29,10.26-24.19,6.03-11.84,12.16-20.74,16.09-26.42,1.59-2.3,6.41-8.74,16.38-21.36,3.22-4.06,6.75-7.88,10.22-11.74,1.39-1.55,2.33-4.06,5.77-2.91-1.7,5.59-5.01,10.31-8.6,14.51-7.73,9.03-13.56,19.16-18.69,29.73-4.57,9.41-8.93,18.94-13.05,28.56-7.77,18.12-15.81,36.2-19.92,55.61-1.43,6.76-3.96,12.78-7.72,18.5-4.66,7.08-9.07,14.33-13.38,21.63-.75,1.26-1.21,3.55-.57,4.62,2.56,4.23,7.78,3.99,10.13-.35,5.44-10.07,10.77-20.19,16.05-30.34.79-1.52,1.04-3.32,1.51-5.01,2.99-10.81,5.64-21.73,9.05-32.41,2.96-9.26,6.39-18.42,10.31-27.31,3.91-8.87,8.7-17.35,13.07-26.01,2.14-4.23,4.08-8.56,6.34-12.72,2.12-3.92,6.04-7.52,6.46-11.55.61-5.82,5.52-7.12,8.07-10.73,4.72-6.71,9.61-13.31,14.76-19.7,4.99-6.19,10.12-12.31,15.67-17.98,7.81-7.98,16.32-15.28,24.05-23.35,4.04-4.21,8.32-7.76,13.66-10.3-4.2,7.42-8.3,14.91-13.81,21.16-9.07,10.29-18.08,20.56-25.13,32.37-5.24,8.78-10.08,17.81-15.43,26.53-9.91,16.15-15.4,34.03-20.8,51.95-1.72,5.72-3.65,11.47-4.44,17.34-.84,6.2-3.92,10.3-8.38,14.38-5.47,5-11.03,10.39-14.77,16.67-6.11,10.26-10.79,21.36-16.03,32.13-.54,1.11-.96,2.34-1.15,3.56-.68,4.41,3.45,7.62,7.64,6,5.53-2.14,10.22-11.27,9.07-17.2-.45-2.34-1.05-5.15-.19-7.15,2.04-4.79,4.52-9.5,7.54-13.72,2.63-3.68,6.26-6.65,9.44-9.94.49.31.97.61,1.46.92-2.27,11.4-.16,23.67-7.61,34.05-.7.98-1.35,2.33-1.29,3.47.09,1.8.27,4.53,1.37,5.14,1.62.9,4.25.78,6.12.13,1.4-.49,2.77-2.33,3.28-3.86,1.4-4.22,3.39-8.63,3.26-12.9-.33-10.68,2.08-20.81,4.26-31.06,1.33-6.27,6.19-8.79,11.85-12.53-.29,2.96-.24,4.66-.65,6.23-3.16,12.33-6.16,24.71-9.69,36.93-2.83,9.81-6.04,19.5-11.72,28.23-3.11,4.78-5.36,10.14-7.67,15.39-1.48,3.37.07,5.79,3.59,6.62,3.42.8,4.83-1.26,6.31-3.88,7.32-12.91,11.18-27.17,15.74-41.1,3.49-10.64,5.19-21.85,8.23-32.66,3.44-12.19,5.51-25.01,13.7-35.34,2.72-3.43,6.11-6.32,9.04-9.6,4.81-5.37,9.6-10.76,14.22-16.29,6.21-7.44,12.25-15.04,18.38-22.55,1.45-1.78,2.43-4.17,6.51-4.89-2,3.02-3.36,4.98-4.63,7-4.77,7.59-9.77,15.06-14.2,22.85-4.81,8.46-9.45,17.05-13.45,25.91-3.76,8.34-7.06,16.96-9.69,25.72-2.58,8.58-3.36,17.73-6.17,26.21-4.71,14.2-10.4,28.07-15.69,42.07-2.46,6.5-4.95,13-7.56,19.83-6.8-1.49-9.27,2.43-10.8,7.65-.48,1.64-1.19,3.26-2.06,4.72-1.29,2.18-1.83,4.35.5,5.94,2.32,1.58,4.83,4.89,7.84,2.14,3.99-3.66,8.47-7.49,10.71-12.2,3.92-8.26,6.28-17.27,9.35-25.95.83-2.34,1.78-4.64,2.76-6.93,1.57-3.65,3.35-7.22,4.78-10.92,2.34-6.05,4.25-12.27,6.75-18.25,2.72-6.51,4.47-13.14,5.32-20.18.8-6.65,1.91-13.43,4.14-19.71,2.98-8.41,7.11-16.41,10.87-24.53,1.15-2.48,2.67-4.79,4.07-7.15,3.88-6.59,7.79-13.17,11.67-19.77,1.62-2.75,2.94-5.71,4.85-8.23,4.36-5.75,8.98-11.3,13.55-16.89,2.08-2.55,4.3-4.99,6.45-7.49.43.32.86.63,1.3.95-2.91,5.99-5.8,11.99-8.73,17.96-8.99,18.34-13.47,38.15-17.84,57.84-5.12,23.06-12.13,45.34-23.54,65.97-5.01,9.07-10.91,18.25-18.47,25.11-6.11,5.56-7.8,12.83-13.54,18.77,3.05,1.79,5.09,2.99,7.66,4.49,1.57-2.17,2.88-3.91,4.11-5.69,3.54-5.12,6.7-10.54,10.64-15.34,6.61-8.05,13.41-15.73,18-25.39,8.5-17.88,16.21-35.91,20.15-55.42,4.3-21.28,9.83-42.25,17.66-62.53,1.93-5,5.2-9.48,7.65-14.3,3.62-7.12,6.89-14.42,10.62-21.48,3.43-6.48,6.42-13.32,13.27-19.86-.58,3.59-.67,5.48-1.2,7.24-3.84,12.66-7.56,25.37-11.73,37.93-6.35,19.11-10.12,38.58-9.71,58.79.14,6.63-1.53,12.69-5.39,18.35-4.21,6.17-8.33,12.57-11.3,19.39-10.05,23.09-20.26,46.15-27.84,70.22-.65,2.06-.94,4.45-.6,6.56.56,3.4,3.72,3.83,6.42,3.89,1,.02,2.96-1.77,2.91-2.66-.32-6.73,3.58-11.73,6.42-17.22,1.8-3.48,3.85-6.88,1.41-11.21-.71-1.25.47-3.82,1.22-5.6,5.04-11.96,9.96-23.97,15.41-35.74,2.76-5.96,6.55-11.44,10.76-18.65.7,4.01,1.27,6.36,1.49,8.74.68,7.46.94,14.97,1.92,22.39.73,5.54-.57,10.1-3.38,14.88-6.06,10.32-11.52,21-17.25,31.52-.95,1.74-1.88,3.52-3.08,5.08-4.84,6.23-5.38,14.21-8.68,21.06-.3.63-.31,1.5-.22,2.22.87,6.39,1.69,12.79,2.74,19.16,2.1,12.76,4.45,25.49,6.46,38.26,2.8,17.73,5.78,35.35,13.3,51.92,12.69,27.94,24.81,56.19,40.79,82.44,6.58,10.81,14.44,20.95,22.62,30.64,9.47,11.21,19.5,22.03,30.08,32.2,10.41,10.01,21.21,19.82,32.94,28.17,9.74,6.93,16.6,15.74,22.43,25.6,9.27,15.68,17.61,31.9,27.12,47.42,5.7,9.3,12.52,17.87,21.67,24.5,11.06,8.02,22.12,16.24,32.07,25.55,12.72,11.89,25.93,23.51,35.58,38.32,3.95,6.06,7.81,12.19,11.78,18.24,10.98,16.76,27.37,28.21,41.5,41.85,5.74,5.54,12.69,9.86,18.15,15.63,6.28,6.64,13.41,11.85,21.04,16.66,3.01,1.9,5.64,3.06,8.92.92,3.44-2.23,4.21-5.54,3.51-9.18-1.36-7.09-2.5-14.29-4.61-21.17-3.49-11.38-5.12-23.45-11.79-33.74-.79-1.22-1.28-2.75-1.5-4.21-2.23-14.56-8.43-28.08-10.76-42.72-1.49-9.38-5.3-18.32-6.54-28.07-1.74-13.65-2.6-27.29-2.7-40.95-.09-12.5-.7-24.87-2.97-37.13-1.26-6.83-3.13-13.55-4.38-20.38-2.15-11.74-3.9-23.56-6.09-35.29-1.18-6.35-2.31-12.82-4.55-18.84-3.81-10.26-8.45-20.2-12.78-30.27-4.04-9.4-8.65-18.59-12.03-28.22-3.43-9.77-9.25-18.58-11.14-28.95-1.91-10.5-4.17-20.94-6.25-31.41-1.45-7.31-2.99-14.6-4.22-21.95-1.52-9.07-3.22-18.16-3.99-27.31-.56-6.67.23-13.45.47-20.18.41-11.9-1.16-23.69.03-35.75,1.81-18.29,1.21-36.82,1.56-55.26.15-8.22.19-16.45.15-24.67-.06-13.21-.23-26.43-.36-39.64-.07-7.22.1-14.45-.33-21.65-.41-6.91-1.42-13.78-2.26-20.66-.87-7.13-1.8-14.26-2.82-21.37-.58-4.04-1.57-8.04-2.04-12.09-.42-3.66-.08-7.42-.63-11.05-.78-5.17-2.33-10.23-3.08-15.41-.84-5.79-1.17-11.65-1.75-17.78,5.98-.52,11.08-.27,15.8-1.5,13.22-3.42,27.22-3.76,39.72-10,.66-.33,1.44-.53,2.17-.56,5.96-.28,7.6-4.01,8.67-9.3,2.86-14.11,2.35-28.34,2.29-42.55-.04-10.99.45-21.86,2.15-32.76,1.17-7.57,1.76-15.49.9-23.06-1.71-15.01-7.27-28.91-15.05-41.89-2.18-3.64-4.51-7.23-6.33-11.05-7.51-15.81-18.4-29.19-31.15-40.81-13.73-12.52-23.14-27.13-27.57-45.17-2.92-11.88-6.32-23.65-9.73-35.4-2.65-9.13-3.31-9.29-5.48-16.24-3.11-9.95-3.82-15.23-8.68-47.84-4.17-27.97-5.01-33.28-6.32-44.75-.99-8.63-1.69-15.93-2.17-21.32,1.43.42,1.98,1.16,2.4,1.96,7.41,14.13,14.8,28.26,22.2,42.4,9.76,18.65,21.94,35.63,34.78,52.28,10.35,13.42,19.78,27.57,29.05,41.77,2.77,4.24,4.36,9.59,5.21,14.65,1.89,11.3,2.83,22.75,4.42,34.1,3.03,21.57,6.8,42.93,18.06,62.15,2.52,4.3,4.54,8.89,6.72,13.38,7.86,16.16,15.65,32.33,26.48,46.84,4.76,6.38,8.55,13.48,13.07,20.05,3.64,5.3,7.01,10.8,13.49,13.62,3.14,1.37,6.56,3.59,7.36,7.54-.61.67-.87,1.21-1.28,1.38-13.87,5.74-18.54,13.58-25.27,18.46-5.45,3.95-10.33,12.77-20.08,30.42-5.21,9.43-8.73,13.86-10.33,20.61-3.52,14.78-6.31,29.89-7.48,45.02-1.21,15.63-.61,31.45.05,47.15.87,20.7-2.08,40.92-7.21,60.77-3.1,12-8.09,23.54-12.51,35.17-.68,1.8-2.6,3.8-4.38,4.41-5.29,1.8-6.94,3.09-6.85,8.43.08,4.46.88,8.9,1.35,13.35.46,4.31,1.39,5,5.8,3.69,2.59-.77,5.18-1.76,7.53-3.07,1.13-.63,2.24-2.15,2.45-3.42,1.36-8.07,2.31-16.21,3.73-24.26.68-3.89,1.87-7.73,3.21-11.45,3.37-9.37,7.27-18.56,10.39-28.01,4.1-12.41,4.27-25.48,5.48-38.35.46-4.93.18-9.92.33-14.89.11-3.69,1.09-7.51.45-11.05-2.51-13.73-.72-27.37.12-41.04.36-5.91.35-11.89,1.27-17.72,1.16-7.33,3.07-14.54,4.76-21.77.33-1.43.96-2.85,1.73-4.09,7.76-12.5,15.51-25,23.43-37.39,1.64-2.56,3.96-4.69,5.97-7.02.52.35,1.03.7,1.54,1.05-1.37,2.46-2.59,5.01-4.14,7.34-2.32,3.5-5,6.77-7.3,10.29-5.44,8.33-7,18.08-9.56,27.41-1.3,4.75-1.51,9.81-2.12,14.74-.7,5.68-1.34,11.36-1.9,17.06-.93,9.37-1.83,18.74-2.62,28.13-.35,4.2.63,8.82-.82,12.55-1.56,4.01-1.75,7.73-1.29,11.65.81,6.94,1.12,13.8.48,20.81-.9,9.93-.95,19.93-1.66,29.88-.35,4.96-1.26,9.9-2.09,14.82-1.63,9.79-1.75,19.74-4.83,29.4-2.72,8.51-3.85,17.53-5.74,26.31-.42,1.93-.38,3.62,0,5.13,1.12,4.49,4.49,9.5,7.48,9.1,2.88-.39,4.32-5.64,5.15-8.64,1.27-4.62,1.09-8.49.86-13.6-.24-5.26-1.16-8.14.02-13.11,2-8.42,4.53-16.71,4.29-25.7-.18-6.72,1.92-13.49,3.04-20.43,1.37.55,1.97.6,2.21.93.6.78,1.23,1.63,1.49,2.55,3.08,10.74,8.08,21.06,7.25,32.68-.42,5.91-.75,11.83-.97,17.75-.2,5.11-.98,9.89-4.88,13.71-3.39,3.32-2.1,7.53-1.38,11.33.53,2.77,3.43,3.63,6,2.15,3.5-2.01,5.22-5.24,5.6-9.22,1.14-11.92,2.02-23.86,3.52-35.74,1.07-8.48-1.71-16.23-3.64-24.12-1.93-7.91-5.18-15.51-6.77-23.47-1.69-8.43-2.34-17.09-3-25.68-.8-10.43-.42-20.99-1.87-31.32-1.43-10.14.52-19.87,1.33-29.77.06-.77.69-1.49,1.06-2.24.86,12.61,4.18,24.28,7.92,35.85,1.69,5.23,4.13,10.23,5.51,15.53,6.15,23.64,12.54,47.23,17.86,71.06,3.85,17.24,10.42,33.27,18.19,48.95,2.12,4.29,6.33,4.63,8.52.51,2.81-5.27,5.2-10.77,7.59-16.25.56-1.29.46-2.9.56-4.36.35-5.63-3.85-7.48-7.77-8.92-6.38-24.25-7.13-58.71-1.18-66.3,1.02,2.54,1.94,4.81,2.84,7.09,5.28,13.43,8.39,27.69,15.66,40.36,2.23,3.89,4.63,7.7,6.48,11.77,2.56,5.64,4.67,11.47,6.97,17.23-3.97,7.8,5.21,11.08,5.97,17.27.12.97.48,1.95.89,2.85.4.9.9,1.8,1.54,2.54,2.25,2.58,5.4,2.36,6.54-.79,1.53-4.22,2.42-8.4-.4-12.88-3.03-4.81-5.09-10.22-7.65-15.32-3.68-7.33-6.57-15.25-11.37-21.76-5.5-7.47-8.46-15.72-11.26-24.23-1.92-5.85-3.82-11.7-5.74-17.55.46-.29.92-.58,1.38-.87,3.23,3.25,6.75,6.27,9.62,9.81,5.65,6.99,10.86,14.32,16.39,21.4,1.96,2.52,4.79,4.43,6.43,7.11,6.09,9.97,11.81,20.17,17.79,30.21,1.08,1.8,2.76,3.24,3.5,4.08,4.42-1.11,7.88-1.53,10.92-2.89,2.57-1.15,5.65-2.99,6.59-5.31.64-1.57-1.46-5.17-3.3-6.68-9.2-7.56-14.44-17.84-19.29-28.19-2.18-4.66-5.33-9.49-4.68-16.54,2.28,2.3,3.96,3.65,5.2,5.32,6.85,9.21,13.45,18.62,20.46,27.7,2.54,3.29,5.7,6.27,9.09,8.67,3.23,2.3,6.91.77,8.69-2.78,2.17-4.33,1.21-7.83-2.94-10.74-5.56-3.9-6.15-5.63-4.4-11.87,1.81-6.48,3.69-12.94,2.6-19.86-.25-1.55.76-3.3,1.43-5.89,6.21,6.27,14.21,16.17,18.36,30.01,2.93,9.75.17,10.91,3.82,28.9,2.67,13.18,6.28,26.18,9.58,39.23,1.71,6.75,3.22,13.6,5.55,20.14,7.68,21.56,20.28,40.54,32.15,59.88,10.36,16.89,23.47,31.69,36.03,46.89,3.64,4.41,7.87,8.32,11.75,12.54,5.73,6.24,11.43,12.52,17.07,18.85,9.58,10.75,13.09,14.98,15.79,17.98,10.18,11.34,29.95,23.76,69.09,48.13,18.36,11.44,18.32,11.41,18.38,11.45,15.86,10.89,28.76,16.26,60.39,55.72,8.97,11.19,20.26,20.6,30.91,30.37,8.82,8.09,18.26,15.49,27.38,23.24,3.83,3.25,7.72,2.71,11.82.62,4.1-2.09,4.64-5.61,3.95-9.56ZM1133.06,1006.72c-15.4-2.01-29.25-6.2-40.72-16.81-4.14-3.83-9.33-6.54-14.04-9.77-3.17-2.17-6.32-4.36-10.83-7.46,11.26.37,59.8,26.09,65.58,34.05ZM1138.55,1165.55c.39,4.33,1.3,8.61,2,12.92-.47.27-.93.54-1.4.8-3.7-3.48-8-6.53-10.96-10.56-3.93-5.36-6.83-11.48-10.14-17.29-.98-1.73-1.68-3.64-2.79-5.27-5.64-8.21-10.65-16.71-15-25.75-3.41-7.08-8.47-13.61-13.78-19.49-10.84-11.99-22.34-23.38-33.57-35.02-10.61-10.99-22.89-19.9-35.14-28.91-5.13-3.78-9.53-8.73-13.67-13.66-6.07-7.23-11.62-14.9-17.34-22.41-.71-.93-1.13-2.09-1.68-3.15.37-.35.75-.71,1.12-1.07,6.31,4.37,12.55,8.83,18.95,13.07,5.38,3.57,10.83,7.04,16.43,10.26,11.8,6.77,21.85,15.09,30.15,26.24,8.7,11.7,18.21,22.95,30.85,31.18,12.65,8.24,21.43,20.68,31.21,31.93,11.05,12.72,17.45,28.4,26.15,42.61,1.52,2.48,2.08,4.75-.23,7.47-1.18,1.39-1.35,4.06-1.17,6.08ZM975.93,1080.15c-2.03-3.37-3.15-7.42-5.62-10.38-9.67-11.59-12.1-25.91-15.69-39.81-.16-.62.29-1.39.64-2.87,5.42,4.7,29.95,58.36,30.27,68.13-3.22-5.01-6.54-9.96-9.61-15.06ZM1000.47,1146.9c3.32,9.29,9.03,17.71,13.52,26.59,2.46,4.88,4.74,9.86,6.87,14.89.61,1.44.4,3.23.76,6.7-6.08-6.99-12.78-10.57-15.86-18.28-2.93-7.32-7.71-13.92-11.77-20.77-8.07-13.61-12.55-28.51-16.46-43.71-1.96-7.63-5.39-14.89-8.03-22.36-.61-1.74-.72-3.65.05-5.99.94.93,2.18,1.7,2.78,2.81,10.47,19.53,20.65,39.14,28.14,60.12ZM971.7,1028.29c-4.28-4.79-8.29-9.92-11.77-15.32-4.59-7.12-4.14-8.44,2.34-13.53,1.71-1.34,3.58-2.49,5.34-3.69,9.22,10.82,18.75,35.02,18.08,46.14-4.87-4.7-9.74-8.87-13.98-13.61ZM985.07,983.08c5.77-4.07,10.35-7.29,15.3-10.78,3.78,7.12,7.01,13.53,10.55,19.75,3.38,5.95,7.1,11.71,10.08,18.08-12.64-7.62-24.41-16.11-35.93-27.04ZM1057.01,1035.16c-9.58-6.1-17.72-13.5-23.92-23.13-6.17-9.6-12.97-18.8-16.33-31.08,2.39.93,4.38,1.23,5.76,2.31,9.99,7.8,19.91,15.69,29.75,23.68,5.98,4.85,12.05,9.65,17.61,14.97,5.91,5.66,11.19,11.97,16.87,17.88,4.99,5.19,10.36,10.04,15.16,15.4,3.06,3.41,5.39,7.48,8.05,11.25-.56.48-1.12.96-1.68,1.44-8.38-4.68-16.96-8.86-24.67-14.87-8.4-6.55-17.59-12.1-26.6-17.83ZM1053.37,991.12c-10.05-6.85-19.16-15.08-28.66-22.73-.51-.41-.75-1.16-1.12-1.75.31-.48.62-.95.92-1.43,3.01,1.54,6.09,2.98,9.02,4.65,11.25,6.4,22.36,13.08,33.73,19.26,5.9,3.2,12.16,5.81,18.43,8.25,7.83,3.04,14.58,7.44,20.4,13.51,5.68,5.93,11.73,11.52,17.64,17.23,1.58,1.53,3.24,2.98,4.87,4.47-.57.59-1.14,1.17-1.7,1.76-1.75-.54-3.69-.77-5.23-1.67-9.46-5.52-18.86-11.13-28.22-16.81-13.43-8.15-27.13-15.91-40.09-24.74ZM727.4,325.42c0-4.56-.39-9.12-.6-13.68.51-.1,1.01-.21,1.52-.31,3.32,5.95,6.49,11.99,9.99,17.84,9.87,16.47,19.78,32.91,29.85,49.26,9.29,15.08,15.29,31.44,18.23,48.75,2.8,16.47,4.36,33.14,6.58,49.71,3.34,24.95,6.42,49.95,10.25,74.83,4.8,31.14,13.63,61.32,23.92,91.04,4.73,13.65,9.95,27.16,15.71,40.4,2.86,6.56,7.23,12.5,11.31,18.46,4.22,6.18,8.98,11.99,13.37,18.05,1.5,2.08,2.61,4.44,3.9,6.68-.49.42-.97.83-1.46,1.25-3.58-2.83-7.28-5.53-10.74-8.51-13.23-11.38-26.73-22.47-39.44-34.41-9.05-8.49-17.26-17.93-25.34-27.37-7.29-8.53-14.04-17.52-20.75-26.52-10.02-13.43-18.97-27.56-25.2-43.18-3.77-9.47-7.26-19.09-10.15-28.86-2.32-7.85-4.13-15.95-5.14-24.07-1.95-15.58-3.34-31.24-4.65-46.89-1.1-13.11-1.9-26.25-2.55-39.39-.32-6.45-.1-12.92.05-19.39.36-16.17.99-32.34,1.19-48.51.24-18.39.18-36.79.15-55.19ZM859.03,694.44c-3.7-5.56-6.9-11.58-9.41-17.77-8.07-19.86-16.77-39.53-20.81-60.78-.09-.49-.19-1-.41-1.44-6.88-13.57-7.23-28.97-12.12-43.1-1.04-3.02-1.34-6.31-1.84-9.5-3.73-23.91-7.58-47.81-11.05-71.75-1.63-11.26-2.51-22.63-3.9-35.57.81,1.02,2.06,2.61,3.53,4.58,21.48,28.71,17.98,40.44,35.61,68.57,3.86,6.16,10.63,18.29,20.34,35.43.37.65.55,1.42.98,2.01,8.16,11.02,16.26,22.08,24.57,32.99,5.74,7.55,11.51,15.1,17.73,22.24,9,10.34,18.5,20.24,27.63,30.46,5.48,6.14,10.77,12.44,15.95,18.84,7.2,8.9,14.57,17.7,21.21,27.01,7.67,10.75,14.81,21.89,21.81,33.09,1.91,3.06,2.49,6.96,4.13,11.84-4.62.32-8.03.73-11.44.75-10.46.07-20.92,0-31.38-.04-4.48-.01-8.96,0-13.44-.12-2.73-.07-5.49-.17-8.18-.6-11.83-1.92-23.62-4.07-35.46-5.91-3.98-.62-6.9-2.23-9.21-5.59-8.22-11.93-16.82-23.6-24.84-35.66ZM1044.11,754.81c9.5,4.52,16.37,8.79,25.53,21.19,10.96,14.85,21.82,29.77,32.52,44.8,3.6,5.07,6.62,10.55,9.82,15.9,2.43,4.05,1.29,8.4-1.5,11.12-10.17,9.94-12.09,23.19-15.38,35.91-1.41,5.43-4.16,7.36-6.2,8.71-6,3.98-11.99.81-28.89-2.89-15.09-3.3-15.68-4.61-38.25-6.86-17.7-1.76-29.41-11.82-38.41-25.53-11.32-17.24-21.69-35.13-34.66-51.21-13.14-16.28-26.47-32.44-40.55-47.89-3.69-4.05-10.34-5.59-15.84-7.75-5.22-2.05-5.34-1.74-7.72-6.47,1.43-.37,2.8-1.15,4.05-1,11.62,1.46,23.18,3.45,34.82,4.54,11.14,1.04,22.37,1.47,33.57,1.66,15.72.27,17.18-.43,31.34-.41,28.61.03,42.92.04,55.75,6.16ZM881.04,759.7c4.51,12.42,7.92,25.13,10.26,38.15,1.63,9.07,3.88,18.04,5.85,27.05,1.24,5.66,2.47,11.33,3.84,17.63-1.58-.34-2.88-.31-3.82-.87-10.84-6.56-22.8-11.39-31.83-20.76-1.88-1.96-4.15-3.67-6.5-5.02-12.48-7.18-20.78-18.41-29.13-29.62-14.17-19.03-27.38-38.64-38.22-59.81-2.71-5.3-6.49-10.04-9.45-15.23-3.56-6.24-6.86-12.63-10.11-19.04-4.72-9.33-9.4-18.68-13.88-28.13-2.23-4.71-3.95-9.65-6.48-15.9,11.49,13.13,21.97,25.13,32.49,37.09,2.14,2.43,4.43,4.72,6.67,7.06,7.09,7.36,13.9,15.02,21.35,21.99,13.91,13.01,29.63,23.52,46.8,31.8,4.94,2.38,9.92,4.76,15.09,6.53,3.75,1.28,5.83,3.66,7.07,7.08ZM897.84,781.18c-1.03-5.57-2.75-11.01-4.07-16.53-.22-.9-.02-1.91,0-4.89,3.61,2.81,6.29,4.27,8.12,6.44,15.12,17.89,30.41,35.64,44.94,54,7.41,9.36,13.37,19.85,19.96,29.85,3.43,5.21,6.75,10.49,10.24,15.66,8.94,13.27,20.99,21.76,37.05,24.19,17.75,2.68,35.46,5.66,53.24,8.14,7.3,1.02,12.51,3.72,15.18,11.1,2,5.55,5.11,10.71,7.83,16.28-3.59,3.35-7.79,3.86-11.93,4.4-9.15,1.19-18.32,2.19-27.46,3.41-8.06,1.08-14.74-.39-19.04-8.26-2.52-4.6-6.3-8.08-10.8-11.14-4.87-3.32-8.65-8.19-13.23-12-17.6-14.69-35.11-29.55-55.29-40.69-3.36-1.86-7.49-2.31-11.23-3.52-7.57-2.44-15.12-4.91-22.66-7.43-2.86-.95-4.22-3.15-5.08-5.99-6.3-20.76-11.81-41.7-15.78-63.04ZM1177.63,979.32c4.64,3.21,8.57,7.46,12.85,11.2,2.24,1.96,4.61,3.76,6.83,5.75,1.51,1.35,2.85,2.89,3.55,4.97-20.31-9.78-40.13-20.81-61.06-29-20.83-8.15-42.77-13.45-65.08-20.27,17.07,2.21,33.24,4.43,49.44,6.37,12.2,1.46,24.13,3.66,34.91,10.02,6.19,3.65,12.66,6.88,18.55,10.96ZM1199.87,961.45c-9.4-1.12-18.79-2.28-28.2-3.33-2.96-.33-5.99-.07-8.92-.51-8.36-1.25-16.65-2.9-25.02-4.08-15.78-2.23-31.63-4-47.37-6.43-8.53-1.32-16.91-3.6-26.96-5.8,5.02-2.72,9.16-3.89,12.19-2.13,6.34,3.69,13.17,3.75,19.61,2.91,18.49-2.4,36.35,1.33,54.3,4.26,10.83,1.77,21.62,3.94,32.25,6.63,6.42,1.63,12.49,4.6,18.72,6.98-.2.5-.4.99-.6,1.49ZM1220.64,950.74c1.87,1.05,3.1,3.25,4.63,4.92-.49.69-.97,1.38-1.46,2.07-39.07-14.55-79.33-23.16-120.79-25.18.14-.17.37-.75.75-.86,8.8-2.65,17.47-6.44,26.46-7.51,8.5-1.01,17.47.14,26.02,1.61,9.8,1.69,19.39,4.66,29,7.32,12.91,3.57,23.87,11.21,35.39,17.63ZM16.18,1406.82c-1.04,1.61-2.47,2.97-4.9,4.09.23-1.46.47-2.91.7-4.37,1.93-12.39,6.04-24.11,10.72-35.69,6.87-16.99,11.4-34.45,12.1-52.97.56-14.93,2.64-29.79,3.72-44.7.63-8.68.58-17.42.94-26.12.41-9.97.97-19.93,1.38-29.9.42-10.45.37-20.93,1.22-31.34.68-8.43,2.76-16.75,3.57-25.17,2.04-21.2,8.25-41.48,14-61.77,5.35-18.89,12.71-37.21,18.85-55.89,4.38-13.34,9.86-26.16,16.78-38.35,3.19-5.62,6.94-10.94,10.12-16.56,9.22-16.27,19.24-32.19,27.06-49.12,5.02-10.86,10.27-22.15,10.24-34.91-.01-5.07,1.85-10.33,3.71-15.17,3.56-9.31,7.3-18.61,11.74-27.52,9.13-18.34,20.44-35.39,31.85-52.39,7.97-11.87,17.16-22.47,27.19-32.63,6.41-6.49,11.04-14.75,16.41-22.26,4.75-6.63,9.4-13.34,14.15-19.97,1.96-2.74,2.86-3.95,4.91-6.79,10.21-14.09,15.32-21.13,17.28-24.07,9.69-14.53,6.3-19.69,16.07-41.53,5.39-12.04,10.8-20.25,15.43-27.28,16-24.3,23.25-24.87,48.12-55.03,3.23-3.92,11-13.49,23.27-24.25,0,0,3.79-3.33,7.96-6.62,43.23-34.13,105.87-64.1,105.87-64.1,24.26-11.6,33.7-16.33,52.45-26.06,3.84-2,5.75-3.68,8.57-4.56,11.82-3.67,21.13-11.48,30.13-19.19,9.03-7.73,16.54-17.25,24.71-25.99,3.84-4.11,7.64-8.25,12.5-13.49-.07,2.56.15,3.53-.15,4.31-7.09,18.9-13.71,38.09-26.33,54.24-4.19,5.36-6.93,11.49-10.69,16.96-11.43,16.66-23.43,32.93-35.3,49.29-5.57,7.67-11.21,15.3-17.06,22.77-11.84,15.12-23.37,30.51-35.91,45.03-13.85,16.04-28.89,31.05-43.02,46.85-15.13,16.92-30.14,33.97-44.59,51.48-9.66,11.71-18.4,24.2-27.3,36.51-14.41,19.93-24.84,42.01-34.91,64.34-13.95,30.93-29.23,61.18-48.67,89.17-13.1,18.86-25.88,37.95-38.45,57.17-12.84,19.64-24.94,39.77-37.93,59.3-11.34,17.05-23.32,33.68-35.27,50.31-16.63,23.13-32.7,46.64-46.16,71.75-7.28,13.58-14.37,27.29-19.02,42.26-4.96,15.93-11.44,31.36-15.09,47.76-3.4,15.33-7.03,30.65-11.57,45.67-6.06,20.04-12.37,40.07-19.93,59.57-6.75,17.4-14.9,34.31-23.31,51-5.37,10.65-12.34,20.49-18.61,30.68-3.14,5.1-6.26,10.21-9.51,15.24ZM430.41,1032.67c.99-1.98,1.43-4.23,2.38-6.24.83-1.76,1.63-4.01,3.13-4.9,6.53-3.89,13.14-7.72,20.05-10.85,3.9-1.77,8.43-2.13,12.68-3.13.35.43.71.85,1.06,1.28-1.17,1.62-2.08,3.53-3.55,4.8-14.3,12.3-28.7,24.5-43.09,36.7-.32.28-.9.25-2.18.57,3.4-6.49,6.53-12.32,9.51-18.23ZM504.39,1000.36c-2.74,7.91-35.79,30.87-54.89,37.75,10.96-9.3,20.81-17.63,30.64-26,5.47-4.66,18.76-11.14,24.25-11.75ZM499.39,978.38c-9.31-2.64-18.71-4.96-28.04-7.49-7.92-2.15-15.86-1.36-23.78-.19-10.86,1.61-21.68,3.41-32.54,5.05-1.13.17-2.33-.17-4.16-.34.61-2.08.93-3.71,1.55-5.21,6.96-16.81,13.85-33.64,20.99-50.37,5.67-13.29,11.67-26.44,17.49-39.66,1.71-3.88,3.34-7.79,4.94-11.71,1.19-2.92,2.98-5.06,6.14-6.09,4.98-1.63,9.94-3.34,14.78-5.32,3.9-1.59,7.8-3.33,11.39-5.52,7.65-4.67,15.31-9.4,22.54-14.67,3.94-2.87,7.08-6.87,10.5-10.43,8.27-8.63,16.54-17.26,24.72-25.97,6.65-7.07,13.37-14.08,19.7-21.42,4.37-5.08,8.12-10.69,12.17-16.05,3.15-4.18,6.27-8.38,9.51-12.5,5.32-6.78,6.57-11.3,12.35-22.82,0,0,5.34-10.64,11.84-22.55,1.73-3.17,7.27-13.21,17.55-29.07,25.97-40.05,35.04-44.51,46.32-65.75,0,0,8.16-14.32,19.74-34.39,1.54-2.66,3.53-5.06,5.31-7.58.68.32,1.36.64,2.04.96-.23,10.64-1.07,21.23-3.2,31.72-1.98,9.78-3.34,19.71-5.87,29.35-4.49,17.12-9.31,34.18-14.65,51.05-5.88,18.54-10.3,37.6-18.81,55.25-3.9,8.09-7.68,16.23-11.55,24.33-5.49,11.48-11.03,22.95-16.51,34.44-.86,1.8-1.71,3.64-2.24,5.55-8.71,31.46-28.33,55.36-53.42,74.9-29.4,22.9-49.88,52.07-64.21,86.03-1.75,4.14-3.36,8.34-5.04,12.51-1.39,3.46-3.53,5.11-7.56,3.97ZM501.4,1029.17c-14.79,12.71-30.02,24.78-46.49,35.32-5.17,3.31-8.9,8.85-13.99,12.32-11.29,7.71-20.25,17.8-29.25,27.76-6.65,7.36-12.1,15.81-17.93,23.88-2.46,3.41-4.53,7.11-6.78,10.67-.37-.1-.73-.2-1.1-.3.7-4.38,1.04-8.86,2.2-13.11,2.1-7.7,4.76-15.24,7.05-22.88,1.71-5.7,4.99-10.06,9.53-13.96,11.36-9.74,22.18-20.11,33.57-29.81,7.37-6.27,14.68-12.69,23.97-16.41,4.78-1.91,9.07-5.17,13.39-8.1,12.59-8.54,25.08-17.22,37.6-25.86.82-.57,1.54-1.29,2.38-1.81,2.42-1.47,4.32-.43,5.86,1.49,1.6,2,.82,3.8-.89,5.21-6.35,5.22-12.9,10.21-19.13,15.57ZM448.06,1175.44c-.46,1.15-.82,2.52-1.66,3.32-4.26,4-8.67,7.84-13.81,12.44-.47-2.44-1.07-3.65-.84-4.67,1-4.37,1.89-8.83,3.47-13,5.32-13.98,10.3-28.14,16.62-41.68,5.99-12.83,12.89-25.34,20.54-37.25,5.33-8.3,12.61-15.34,19-22.96,2.07-2.47,4.21-4.91,6.11-7.5,9.73-13.26,19.47-26.51,29.06-39.87,5.07-7.07,8.81-7.3,15.91-.04-2.94,2.91-6.07,5.67-8.81,8.78-8.56,9.73-17.45,19.21-25.31,29.49-9.69,12.66-18.97,25.7-27.47,39.17-5.83,9.24-10.47,19.31-14.83,29.36-6.36,14.64-12,29.6-17.97,44.42ZM507.82,1108.65c-10.98,12.25-21.05,25.31-31.7,37.87-3.02,3.57-6.61,6.66-11.09,11.11-.97-7.74,2.34-12.77,4.43-17.8,4.28-10.35,8.91-20.69,14.71-30.24,7.5-12.33,16.03-24.07,24.64-35.67,5.77-7.77,12.25-15.05,18.79-22.2,5.17-5.65,10.93-10.77,16.43-16.11.35-.34.78-.64,1.21-.88,2.81-1.59,5.96-4.05,8.84-1.21,2.63,2.59.32,5.65-1.17,8.18-13.65,23.24-26.94,46.68-45.09,66.95ZM547.14,1076.98c-2.55,4.44-2.5,4.47-10.66,6.15,8.64-14.61,16.26-27.94,27.91-39.53,1.73,3.88.64,6.32-1.28,8.25-7.19,7.21-11.02,16.53-15.97,25.14ZM567.84,1075.62c.59.05,1.17.11,1.76.16-.11,2.26.03,4.56-.36,6.77-4.26,24.28-8.4,48.59-13.1,72.79-.96,4.95-3.67,9.73-6.32,14.14-2.53,4.21-6.03,7.83-9.11,11.7-.59-.13-1.18-.25-1.77-.38,2.41-37.03,16.59-70.85,28.9-105.18ZM573.99,1097.08c3.23-13.5,7.33-26.8,10.96-39.86,8.15-1.5,10.19.09,9.46,6.97-1.77,16.7-4.6,33.18-12.28,48.34-4.59,9.05-9.73,17.82-14.62,26.71-.67-.27-1.34-.54-2-.81,2.79-13.79,5.21-27.67,8.48-41.35ZM541.39,1198.65c2.72-5.5,6.38-10.53,9.81-16.04,3.45,5.78,3.57,11.54,1.23,31.54-1.27,10.87-4.32,21.06-10.97,31.51-.9-2.91-1.71-4.46-1.82-6.05-.63-9.64-1.48-19.3-1.46-28.95,0-4.03,1.38-8.35,3.2-12.02ZM873.15,1845.02c-8.2-9.19-18.51-15.96-27.55-24.14-16.24-14.69-32.78-29.25-43.85-48.68-7.11-12.48-16.91-22.9-26.65-33.25-12.99-13.8-27.9-25.47-43.45-36.25-10.69-7.42-18.75-16.99-24.77-28.4-5.46-10.36-10.87-20.75-16.42-31.06-1.4-2.61-3.28-4.97-4.91-7.45-1.64-2.5-3.61-4.85-4.83-7.55-4.88-10.8-13.05-18.55-22.21-25.7-10-7.8-19.36-16.42-29.27-24.35-10.59-8.49-19.29-18.77-28.29-28.77-4.83-5.37-9.09-11.24-13.59-16.91-11.48-14.49-22.16-29.55-30.83-45.89-4.64-8.75-8.3-18.02-12.48-27.02-5.14-11.08-10.72-21.96-15.39-33.23-2.34-5.66-3.06-11.98-4.53-18-1-4.08-2.22-8.12-3.01-12.24-.82-4.32-1.34-8.71-1.82-13.09-.43-3.93-.43-7.92-.97-11.83-.99-7.12-2.23-14.21-3.37-21.3-.2-1.23-.3-2.5-.69-3.67-3.38-10.26-2.13-20.12,2.34-29.77.72-1.56.94-3.34,1.41-5.02,1.25-4.51,1.9-9.32,3.91-13.47,3.66-7.55,8.14-14.71,12.97-23.26,2.53,6.54,1.51,11.88,1.33,17.11-.32,9.45-.88,18.89-1.16,28.34-.13,4.55,1.44,6.51,4.89,6.93,2.96.36,6.39-2.08,6.56-5.82.16-3.59-.37-7.55-1.86-10.77-1.35-2.91-2.01-5.51-1.55-8.55,1.67-11.19.97-22.37.14-33.59-.49-6.71.99-12.87,4.52-19.17,6.16-11.02,12.02-22.4,12.14-35.76.1-11.96.98-23.92,1.66-35.87.49-8.6,2.57-16.69,7.45-24.03,2.6-3.91,4.38-8.37,6.69-12.49.81-1.44,2.09-2.61,3.21-3.97,2.97,1.99,1.37,4.29,1.16,6.29-2.28,21.6-4.67,43.19-6.9,64.79-.28,2.7-.31,5.6.34,8.2,2.81,11.33,1.03,22.38-1.81,33.32-2.32,8.92-4.78,17.85-7.87,26.52-2.13,6-5.44,11.58-8.8,18.53,1.1,5.08,2.8,7.12,6.89,7.04,4.15-.08,7.98-3.61,7.65-8.48-.43-6.27,2.16-11.69,3.48-17.45,2.9-12.62,6.7-25.07,8.93-37.8,1.13-6.44-.4-13.33-.62-20.02-.17-5.2-.6-10.46-.13-15.62,1.18-13.17,2.76-26.3,4.27-39.43.42-3.65,1.15-7.27,2.73-10.94.17,3.64.26,7.29.54,10.92.87,11.18,1.71,22.37,2.74,33.54,1.47,15.89,3.73,31.73,4.49,47.65.73,15.35-3.26,30.22-7.73,44.81-1.68,5.47-3.92,10.78-6.16,16.05-1.73,4.06-2.97,8.59-7.86,10.39-.78.29-1.63,1.38-1.78,2.23-1.06,5.82-1.95,11.68-2.87,17.42,8.12,3.9,11.08,3.24,12.44-4.78,2.26-13.27,9.77-24.47,13.3-37.07,5.73-20.41,10.89-40.91,7.38-62.65-3.21-19.94-5.27-40.07-7.39-60.16-.65-6.14.12-12.44.3-18.67.28-9.48.37-18.98,1-28.44.44-6.56,2.02-12.96,6.2-18.82.27,3.15.6,6.29.81,9.44,1.18,17.93,1.46,35.96,3.74,53.75,2.19,17.13,3.42,34.25,3.91,51.46.36,12.45.12,24.92.79,37.35.98,17.91,2.69,35.77,3.77,53.68.31,5.19-.25,10.47-.9,15.64-.26,2.04-1.75,3.99-2.91,5.84-2.64,4.22-5.16,8.43-4.56,14.14,9.89,2.82,9.79,2.84,11.56,13.01,5.42,31.14,14.83,60.87,28.76,89.41,11.25,23.05,25.86,43.79,39.83,65.06,10.67,16.24,21.65,32.35,28.67,50.74,3.19,8.37,7.72,16.22,11.07,24.53,3.63,8.99,6.04,18.5,9.97,27.34,11.47,25.77,23.68,51.2,38.28,75.39,8.5,14.08,17.38,27.94,26.04,41.92,1.7,2.74,3.24,5.57,4.75,8.42,8.31,15.66,21.12,27.75,32.42,41.03,4.37,5.13,9.1,9.96,13.28,15.24,4.31,5.45,8.19,11.08,10.77,17.82,3.19,8.33,8.12,15.98,12.16,23.99,1.07,2.12,1.64,4.5,3.02,8.39-2.67-1.6-4.09-2.06-4.95-3.03ZM777.64,1178.27c1,8.39,1.53,16.84,2.23,25.26,1.45,17.41,1.19,34.86,1.64,52.3.5,19.22-.92,38.34-.98,57.51-.03,9.68-.43,19.36-.58,29.04-.3,18.89.22,37.82-1.07,56.64-.89,13.06,2.53,25.18,4.56,37.65,1.92,11.8,3.75,23.61,5.99,35.35.88,4.62,2.4,9.21,4.26,13.55,8.94,20.86,18.3,41.53,27.12,62.44,7.06,16.74,13.86,33.56,14.81,52.17.38,7.4,2.5,14.75,4.14,22.05,5.2,23.13,9.57,46.25,9.25,70.23-.23,17.16,2.02,34.35,6.33,51.1,4.91,19.08,9.78,38.18,15.06,57.16,2.86,10.28,6.58,20.33,9.79,30.52.58,1.85.6,3.88.88,5.83-.4.18-.8.36-1.2.54-3.15-6.18-6.43-12.3-9.43-18.56-6.01-12.54-14.81-23.05-23.84-33.44-17.57-20.2-33.13-41.87-47.08-64.72-5.07-8.31-11.03-16.08-16.05-24.42-6.04-10.01-11.48-20.39-17.24-30.57-10.1-17.85-18.69-36.42-26.18-55.49-4.19-10.68-8.17-21.45-12.04-32.25-6.37-17.78-15.9-33.84-26.32-49.46-12.74-19.12-26.01-37.93-37.8-57.63-10.49-17.53-19.96-35.78-25.75-55.58-4.27-14.59-8.77-29.14-12.35-43.91-2.34-9.65-3.33-19.65-4.67-29.52-.24-1.78.82-3.73,1.2-5.62.77-3.83,2.25-7.7,2.09-11.5-.91-21.65-2.17-43.29-3.41-64.92-.28-4.98-1.15-9.93-1.38-14.91-.53-11.67-.66-23.36-1.29-35.03-.49-9.2-.62-18.54-2.42-27.52-5.83-29.01-4.33-44.18-4.63-48.26-1.56-21.5-2.47-58.27,1.06-58.68,4.58-.53,15.15,60.3,22.75,103.97,1.11,6.38,2.34,12.16,2.94,19.94,1.7,21.94-.72,43.9-.11,65.81.65,23.39,1.52,46.92,8.91,69.54,1.54,4.71,2.2,9.72,3.87,14.37,1.57,4.36,3.95,8.43,5.99,12.65,6.47-1.55,6.43-2.3,6.04-8.11-.54-8.1-6.18-13.96-8.15-21.33-.62-2.34-1.18-4.7-1.64-7.07-.42-2.2-.2-4.63-1.05-6.63-3.5-8.22-4.09-16.94-4.56-25.61-.63-11.9-.74-23.84-.86-35.76-.09-9.46.26-18.92.19-28.38-.09-11.91-.4-23.82-.14-35.9,4.72,7.2,8.33,14.9,10.81,23.11,2.19,7.22,2.4,14.54,2.12,22.12-.44,11.93.26,23.9.6,35.86.14,4.96.48,9.92.9,14.86.27,3.17,1.26,6.08,5.23,6,2.9-.06,6.16-3.94,6.15-7.37,0-2.22.13-4.82-.92-6.58-2.63-4.38-2.56-8.78-2.23-13.66.64-9.41,1.14-18.91.51-28.29-.66-9.65-1.74-19.51-4.48-28.72-3.27-10.97-6.43-13.99-11.64-24.9-9.58-20.07-5.75-23.94-17.47-61.3-5.56-17.73-8.91-24.76-7.17-25.74,3.98-2.25,27.43,31.52,30.67,37.18,1.51,2.64,3.23,5.74,6.34,9.99,3,4.11,4.71,5.53,7.38,10.54,8.19,15.38,11.11,29.84,12.3,39.64,2.19,11.88.52,23.47-1.3,35.19-3.59,23.11-6.01,46.33-3.1,69.78,1.14,9.16,1.44,18.42,2.74,27.55.98,6.88,2.77,13.67,4.59,20.38.72,2.63.97,4.58-.89,6.87-3.28,4.03-6.32,8.27-9.19,12.61-.82,1.24-.72,3.09-1.05,4.66,1.81.17,3.86.97,5.37.39,3.21-1.25,6.14-3.21,9.46-5.03,1.8,2.09,3.39,4.34,5.42,6.08.89.76,2.82.91,4.02.53.85-.27,1.75-1.87,1.79-2.91.13-3.7.55-7.59-.39-11.07-.86-3.18-3.36-5.92-5.13-8.87-1.49-2.48-3.57-4.81-4.31-7.5-1.52-5.51-2.64-11.18-3.38-16.86-3.48-26.79-4.46-53.66-1.85-80.58.37-3.84,1.65-7.6,3.2-11.36,3.31,4.53,4.39,9.55,5.21,14.58,4.68,28.82,9.95,57.5,18.65,85.44,1.33,4.28,2.49,8.63,3.94,12.87.53,1.55,1.7,2.89,2.54,4.27,6.98-2.98,10.2-12.52,5.62-17.9-7.53-8.85-8.88-19.67-11.26-30.26-.11-.48,0-1.07-.23-1.47-2.84-4.87-2.49-10.48-3.78-15.66-2.92-11.67-3.47-23.61-5.4-35.37-.4-2.43-1.2-4.82-2.01-7.16-3.14-9.04-4.56-18.25-4.68-27.89-.11-8.67-.61-17.66-3.02-25.9-3.85-13.16-3.44-26.69-5.57-39.96-.04-.24.05-.52-.03-.75-5.34-14.75-2.45-30.53-5.73-45.52-.9-4.11-2.5-8.08-3.91-12.07-.99-2.81-2.63-5.46-3.23-8.34-1.4-6.78-5.24-11.73-10.52-15.85-3.73-2.92-7.36-5.97-11.1-8.88-2.83-2.2-3.72-4.59-3.03-8.41,3.06-16.94,4.68-34.09,5.39-51.27.56-13.46-.15-26.96.32-40.42.78-22.19,1.33-44.43,3.37-66.53,1.3-14.11,4.8-28.06,7.88-41.95,3.61-16.32,7.8-32.51,11.8-48.74.65-2.62,1.66-5.15,2.93-9.04,1.44,2.56,2.57,3.85,2.94,5.32,7.02,28.37,15.05,56.41,25.72,83.66,4.54,11.6,8.56,23.43,12.23,35.34,2.49,8.07,4.18,16.4,5.76,24.71.53,2.8,0,5.97-.72,8.8-4.27,16.72-8.13,32.44-9.76,37.67-7.9,25.38,1.17,50.52,3.22,56.19,1.97,5.47,11.65,20.66,22.1,37.32,2.88,4.6,6.73,8.69,10.58,12.57,5.95,5.98,8.56,13.12,9.73,21.33,1.29,9.1,3.77,18.03,5.24,27.11,1.87,11.53,3.4,23.12,4.78,34.72ZM635.77,921.95c-1.28-13.53.26-18.29-.61-23.87-2.28-14.68-6.08-15.38-6.59-24.39-.67-11.77,5.45-16.98,16.28-38.91,2.62-5.3.06-.79,12.6-29.58,9.15-21.01,18.39-41.99,27.58-62.98,2.08-4.75,4.11-9.53,6.16-14.3.51.15,1.02.31,1.53.46-.08,1.7.11,3.46-.29,5.09-2.93,12.11-6.1,24.15-8.94,36.28-1.13,4.85-1.44,9.88-2.43,14.77-3.61,17.83-6.84,35.77-11.16,53.43-7.63,31.16-13.11,62.52-12.79,94.73.06,6.45-1.11,12.91-1.43,19.37-.36,7.2-.46,14.42-.55,21.64-.16,12.96.32,25.97-.51,38.88-.75,11.66-2.86,23.23-4.42,34.83-.2,1.45-.72,2.85-1.38,5.4-2.74-1.6-5.35-2.51-7.12-4.26-5.16-5.12-11.34-6.98-18.38-6.93-1.66.01-3.33-.49-5.65-.87.37-2.27.53-4.2,1-6.06,2.56-10.16,5.58-20.22,7.72-30.47,2.55-12.21,4.44-24.55,6.47-36.86,2.48-15.03,4.36-30.07,2.91-45.4ZM650,1073.47c-1.1-2.38-2.15-4.77-3.58-7.96,16.35,6.77,25.65,17.76,27.63,34.57.35,2.95,1.2,5.86,1.94,8.76,3.22,12.74,3.57,23.58.76,35.87-.4-3.89-.49-6.55-.96-9.14-1.85-10.23-4.04-19.97-10.12-29.17-6.64-10.04-10.57-21.88-15.67-32.93ZM664.61,1126.44c-5.42-3.27-5.38-9.3-8.07-13.61-3.02-4.84-6.02-9.73-8.54-14.83-2.41-4.87-3.8-10.26-6.36-15.03-2.49-4.65-6.11-8.73-6.06-15.9,5.15,4.47,7.15,9.07,9.2,13.79,4.52,10.42,9.24,20.75,14.09,31.01.92,1.94,2.81,3.44,4.36,5.05,2.54,2.64,2.9,5.56,1.37,9.52ZM695.24,780.51c.32-7.66.49-17.48,2.97-24.31,2.18-6,2.44-12.7,3.44-19.11,1.34-8.6,2.54-17.22,3.84-25.82.69-4.57,1.46-9.13,2.2-13.7.6.03,1.21.07,1.82.1.71,5.26,1.58,10.5,2.1,15.78,2.06,20.65,5.54,40.92,12.03,60.76,4.08,12.48,6.06,25.64,9.26,38.43,3.09,12.34,5.7,24.89,10.04,36.79,4.76,13.08,6.21,26.15,4.18,39.68-1.4,9.37-3.41,18.65-5.25,27.95-.27,1.38-1.04,2.65-1.58,3.98-.53.03-1.06.06-1.59.09-.88-2-1.91-3.94-2.63-6-3.06-8.67-5.95-17.39-9.04-26.05-3.85-10.79-7.89-21.51-11.73-32.31-4.42-12.46-6.8-19.21-9.64-28.33-7.32-23.49-10.96-35.5-10.44-47.95ZM749.2,817.06c2.67,12.6,3.96,17.48,5.04,21.81,3.46,13.82,7.81,27.41,15.42,39.5,3.78,6,8.85,11.46,14.22,16.15,21.72,18.96,36.62,42.74,48.15,68.63,5.76,12.93,9.45,26.63,7.1,41.45-1.67,10.55-1.8,21.37-2.24,32.08-.33,7.95.12,15.93-.1,23.89-.17,6.22-1.06,12.42-1.19,18.64-.12,5.71-3.44,8.45-8.14,10.4-26.9,11.13-39.19,9.06-39.19,9.06-18.29-10.53-30.4-22.36-37.66-30.61-8.07-9.17-15.37-17.64-19.44-31.03-3.25-10.7-4.05-19.31-2.19-30.92,2.37-14.77,5.32-29.48,8.75-44.04,1.81-7.7,5.62-14.91,7.72-22.57,3.36-12.23,6.08-24.63,9-36.98.8-3.4,1.27-6.87,2.01-10.29,2.9-13.55,1.6-26.52-3.44-39.56-6.55-16.97-11.44-34.51-15.38-52.31-3.32-15.01-8.02-29.76-10.6-44.89-1.99-11.7-4.36-23.37-5.62-35.29-1.13-10.69-.55-21.34-1.66-31.96-1.37-13.11-1.95-26.3-2.83-39.45-.06-.89.26-1.8.63-4.07,5.17,5.93,6.42,11.92,6.42,18.1,0,12,.83,23.79,3.61,35.57,2.05,8.7,2.38,17.79,3.73,26.67,1.2,7.85,2.62,13.43,3.34,16.75,6.18,28.4,6.65,38.03,14.53,75.26ZM905.71,1005.73c-13.48-17.39-20.22-28.82-20.22-28.82-12.11-16.49-18.39-35.94-27.76-53.8-11.43-21.79-14.08-45.56-17.19-69.28-.84-6.36-.73-12.77-1.79-19.24-2.26-13.74-10.37-24.25-17.51-35.16-7.5-11.46-16.7-21.79-24.92-32.79-5.73-7.67-10.61-14.6-16.44-23.96-5.19-8.33-4.7-8.45-22.63-42.44-14.58-27.64-14.27-27.12-14.83-28.49-6.86-16.8-7.9-15.73-8.04-16-14.89-29.98-15.82-33.78-18.34-33.69-5.86.2-7.32,21-19.28,60.76-.41,1.35-3.84,15.75-10.38,31.15-10.82,25.49-22.47,50.63-33.46,76.06-7.02,16.25-13.38,32.77-20.17,49.12-2.49,5.99-4.9,12.09-8.15,17.67-4.92,8.43-4.79,17.39-2.89,26.15,6.5,30.05,5.57,59.96-.39,89.9-3.37,16.89-6.64,33.81-10.26,50.64-1.41,6.56-3.65,12.95-5.55,19.4-1.03,3.52-3.45,5.52-7.08,5.65-9.01.32-16.98.11-24.01-8.26-7.89-9.4-17.29-17.85-28.61-23.79-7.02-3.68-13.41-8.66-19.81-13.41-2.07-1.54-3.3-4.21-4.9-6.36-1.32-1.77-2.27-4.09-4-5.23-4.09-2.69-4.02-6.19-2.38-9.82,8.77-19.41,5.81-22.2,22.32-48.23,5.13-8.09,9.39-14.74,16.28-22.97,2.03-2.42,7.66-8.56,15.39-16.22,11.86-11.75,27.01-19.71,37.23-33.36,7-9.35,15.57-17.62,21.15-27.94,4-7.39,6.55-15.56,9.88-23.32,4.62-10.77,9.08-21.61,14.1-32.19,10.9-23,22.06-45.83,29.01-70.48,4.53-16.08,10.29-31.8,15.04-47.82,2.48-8.35,4.13-16.97,5.84-25.53,2.68-13.44,5.79-26.86,7.44-40.44,2.07-17.06,3.29-34.25,3.95-51.43.52-13.32-.84-19.98-3.08-20.61-8.33-2.37-15.61,63.92-64.5,122.52-17.25,20.67-41.1,43.05-52.17,73.58-2.14,5.9-3.6,14.01-10.14,23.98-8.18,12.48-17.65,24.14-27.04,35.78-5.93,7.35-12.65,14.06-19.09,20.99-12.79,13.76-19.1,20.71-21.23,22.72-7.03,6.63-21.68,20.22-43.15,29.84-9.15,4.1-20.67,6.82-24.99,9.38-4.73,2.8-10.78,3.39-16.67,5.1-5.31-10.24-10.3-19.95-15.37-29.62-2.89-5.51-5.83-11-8.91-16.41-2.68-4.72-2.9-8.93-.05-13.99,6.21-11.04,11.06-22.87,17.62-33.67,5.92-9.75,13.28-18.63,20.19-27.76,5.27-6.96,11.08-13.06,17.38-18.37,20.91-17.63,43.97-23.54,53.51-25.72,21.71-4.97,22.23.38,41.92-5.73,3.45-1.07,18.99-5.39,36.71-16.23,5.02-3.07,26.69-16.75,49.33-47.88,22.15-30.48,30.05-56.81,30.96-56.43,3.69-10.03,6.51-20.39,9.82-30.56,1.7-5.21,3.9-10.28,5.42-15.54,2.75-9.56,6.08-19.07,7.51-28.85,2.67-18.24,4.37-36.63,6.04-54.99,1.36-14.9,2.17-29.85,3.06-44.79.59-9.97,1.41-19.96,1.17-29.92-.27-11.4-.73-19.47-2.4-37.23-4.88-51.91-6.22-57.82-8.66-58.07-4.29-.45-9.82,16.81-10.48,18.87-.67,2.1-.87,3.36-5.11,21.43-.61,2.58-1.2,5.15-1.78,7.74-2.56,11.4-8.39,21.37-14.11,31.26-9.59,16.6-19.79,32.86-29.92,49.15-3.28,5.28-7.41,10.05-10.65,15.35-5.56,9.12-10.8,18.44-16.03,27.76-2.19,3.91-4.27,7.93-5.93,12.09-1.84,4.6-3.06,9.44-4.7,14.13-10.44,29.96-14.14,61.2-17.92,92.47-1.76,14.59-4.89,29.03-7.77,43.47-1.76,8.81-4.1,17.51-6.4,26.21-1.08,4.08-2.44,8.11-4.08,11.99-4.96,11.72-10.25,23.31-15.13,35.06-1.84,4.44-4.61,6.47-9.42,7.17-11.84,1.73-23.75,3.41-35.33,6.33-8.13,2.05-16.29,5.18-23.49,9.44-17.01,10.07-32.83,21.74-44.76,38.01-12.71,17.34-23.78,35.62-33.4,54.82-1.55,3.1-3.67,5.93-5.69,8.77-2.3,3.23-2.79,6.76-.36,9.74,9.18,11.24,12.47,25.49,19.67,37.73,2.39,4.06,3.79,8.69,5.92,12.91,3.71,7.37,7.73,9.13,15.87,7.62,3.03-.56,6.14-.71,9.39-1.07.92,6.18-2.65,9.94-4.05,14.33-4.8,14.95-12.68,28.62-17.19,43.81-3.22,10.84-9.39,20.85-14.66,31.02-2.51,4.84-6.33,9-8.95,13.81-2.42,4.45-6.04,7.06-10.33,9.29-16.18,8.41-29.56,20.22-41.37,33.99-10.14,11.82-20.97,23.05-35.49,29.39-8.4,3.67-17.36,6.33-26.3,8.46-13.73,3.27-26.9,7.98-38.5,15.84-8.4,5.69-15.96,12.77-23.33,19.82-8.09,7.73-15.63,16.06-23.22,24.3-2.34,2.54-4.38,5.51-5.95,8.58-3.75,7.31-1.76,10.18,7.35,10.09,1.25-9.96,7.2-17.63,14.06-24.55,7.7-7.78,15.71-15.28,23.93-22.52,12.05-10.61,26.83-16.09,41.77-21.06,9.69-3.22,19.52-6,29.17-9.33,9.55-3.3,18.07-8.36,24.96-15.95,6.7-7.37,13.46-14.67,20.27-21.94,1.7-1.81,3.62-3.43,5.53-5.03,4.59-3.85,9.01-7.94,13.89-11.37,5.28-3.71,10.75-7.36,16.6-10,13.42-6.03,27.35-10.59,42.22-11.52,8.95-.56,17.89-1.71,26.84-1.72,4.87,0,9.75,1.74,14.61,2.8,4.29.94,8.55,2.02,14.15,3.36-2.18,1.25-3.26,2.39-4.4,2.45-13.07.71-23.05,2.72-33.52,1.47,0,0-15.92-1.9-32.02.57-17.55,2.69-29.78,11.17-40.63,19.66-16.93,13.24-33.44,27.07-46.14,44.64-5.69,7.86-14.42,11.37-21.69,16.95-10.43,8.02-22.31,12.99-34.95,16.6-8.62,2.46-17.14,5.56-25.25,9.34-4.1,1.91-7.38,5.79-10.7,9.11-6.33,6.33-12.39,12.94-18.65,19.34-2.54,2.59-2.02,4.87.29,7.1,2.23,2.16,4.89,2.03,7.31-.27.53-.51,1.04-1.11,1.37-1.76,7.49-15.03,20.61-22.89,35.55-28.99,17.71-7.24,36.11-12.85,52.3-23.79,10.32-6.97,18.73-15.54,27-24.53,5.72-6.22,11.25-12.71,17.57-18.29,12.54-11.06,25.5-21.66,40.4-29.54.81-.43,1.69-.71,3.31-.03-2.36,2.01-4.71,4.03-7.07,6.04-9.51,8.07-19.06,16.1-28.53,24.23-16.15,13.86-30.26,29.67-44.19,45.69-10.18,11.71-21.66,22.28-34.58,30.82-7.58,5.01-16.5,8.09-25.01,11.59-13.15,5.4-26.56,10.2-39.66,15.71-4.77,2-9.01,5.27-13.42,8.07-2.35,1.49-3.82,4.14-2.31,6.36,1.51,2.22,4.25,4.44,6.77,4.91,2.59.49,6.83-.11,7.1-3.87.4-5.59,4.33-6.63,8.27-8.3,8.69-3.7,17.28-7.61,25.94-11.36,2.05-.89,4.28-1.38,6.36-2.21,8.1-3.21,16.29-6.23,24.21-9.86,3.3-1.51,6.01-4.33,8.96-6.6,13.7-10.53,26.07-22.4,37.37-35.5,18.64-21.6,39.41-41.01,62.27-58.1,7.97-5.96,16.23-11.54,24.5-17.08,5.46-3.66,11.39-5.98,18.23-5.88,4.35.06,8.71-.77,13.07-1.2.16.53.31,1.06.47,1.59-1.78.69-4.28,1.69-7.22,2.95-21.94,9.38-37.51,19.44-41.59,22.97-13.01,11.27-25.82,22.77-38.39,34.53-4.15,3.88-7.47,8.72-10.77,13.4-9.22,13.04-17.94,26.44-27.4,39.29-11.85,16.09-24.31,31.68-40.28,44.09-8.95,6.96-19.38,10.15-30.01,12.95-1.92.5-4.25-.57-5.19-.72-4.93,1.81-8.95,3.29-12.97,4.76-2.43,1.52-3.39,4.01-1.3,7.07,3.24,4.73,7.69,3.11,13.34,1.4-1.46,2.37-1.86,3.44-2.6,4.17-8.12,8.07-16.57,15.84-24.39,24.19-11.77,12.57-23.09,25.56-34.65,38.32-16.67,18.41-36.75,32.02-59.26,42.29-12.48,5.69-22.76,14.2-31.07,25.18-20.78,27.45-42.43,54.19-66.14,79.21-1.71,1.8-3.08,3.92-4.59,5.9-4.1,5.35-6.65,7.22-13.17,9.23,4.27-7.05,7.61-13.94,12.2-19.87,12.23-15.8,19.99-33.92,28.06-51.88,7.26-16.15,14.27-32.42,21.08-48.76,2.49-5.97,4.34-12.23,6.07-18.48,3.74-13.46,7.07-27.03,10.86-40.48,1.28-4.54,3.82-8.72,5.1-13.26,4.04-14.39,7.83-28.86,11.58-43.33,4.07-15.74,9.26-31.03,16.21-45.79,13.26-28.17,30.33-53.9,48.78-78.85,11.43-15.45,22.66-31.07,33.49-46.94,6.88-10.09,12.74-20.88,19.29-31.2,5.88-9.27,12.04-18.38,18.16-27.5,10.7-15.96,21.54-31.83,32.17-47.85,7.45-11.23,14.05-23.08,22.1-33.84,10.1-13.49,16.97-28.72,25.21-43.2,6.28-11.03,13.04-22.14,16.97-34.07,4.75-14.44,12.13-27.36,19.11-40.53,9.62-18.16,22.03-34.46,35.8-49.72,1.33-1.47,2.51-3.1,3.66-4.72,10.17-14.26,21.38-27.62,34.31-39.48.73-.67,1.36-1.46,2.02-2.2,13.2-14.94,26.6-29.71,39.55-44.87,13.6-15.93,26.98-32.07,40.07-48.42,9.34-11.66,18-23.87,27.05-35.76,7.7-10.13,15.99-19.84,23.18-30.33,10.72-15.64,21.62-31.29,30.7-47.89,8.22-15.02,14.08-31.32,21.03-47.04,1.11-2.5,2.28-5.01,3.72-7.33,7.63-12.3,15.36-24.54,23.04-36.81,1.06-1.69,2.22-3.36,2.98-5.19,7.85-18.82,15.18-34.14,18.68-45.63,11.98-39.31,17.97-58.96,19.72-79.02.33-3.75.59-5.9,2.97-41.01.35-5.23.73-10.46,1.02-15.69,0,0,.61-10.75.93-20.89.89-27.53-1.14-38.5.52-65.74.18-2.91-.49-8.79,1.57-16,2.12-7.42,5.57-12.01,8.21-16.08,3.92-6.06,8.85-15.36,12.42-28.89.55.09,1.11.19,1.66.28,0,4.85.11,9.71-.04,14.55-.44,14.71-1.12,29.41-1.43,44.11-.32,15.19-.61,30.39-.35,45.58.18,10.7,1.66,21.38,1.91,32.09.51,21.77,3.22,43.31,6.92,64.7,1.78,10.29,4.93,20.37,7.95,30.4,4.47,14.8,9.69,29.37,14.03,44.21,8.33,28.48,23.1,54.11,35.49,80.76,9.6,20.64,23.47,38.86,35.9,57.86,6,9.17,12.05,18.36,18.8,26.97,12.21,15.59,27.47,28.15,42.4,41.01,9.46,8.14,18.78,16.31,26.3,26.52,4.37,5.94,10.55,10.57,16.08,15.62,5.7,5.21,10.86,10.66,15.54,16.98,5.22,7.04,12.73,12.58,19.86,17.96,10.95,8.28,22.56,15.67,33.61,23.81,8.42,6.19,16.41,12.95,24.59,19.46,1.95,1.55,3.91,3.09,5.81,4.68,12.04,10.06,24.51,19.66,35.91,30.41,5.89,5.55,10.53,12.75,14.55,19.87,7.09,12.57,14.28,25.1,18.8,39.03,2.98,9.2,6.97,18.28,11.95,26.55,4.72,7.85,10.78,15.1,17.2,21.69,11.26,11.55,20.01,24.93,28.94,38.14,11.6,17.15,22.61,34.71,33.57,52.28,3.54,5.68,6.66,11.75,9.02,18,5.26,13.99,10.03,28.17,14.78,42.35,2.11,6.29,3.69,12.75,5.78,20.05-2.24-.65-3.87-.86-5.24-1.57-11.19-5.84-22.94-9.81-35.55-11.11-2.23-.23-4.51-.53-6.62-1.25-17.84-6.08-35.3-4.25-52.78,1.81-5.33,1.85-11.17,2.21-17.05,3.31-5.42-6.77-9.32-13.97-9.65-23.13,1.48-.33,2.64-.75,3.82-.83,8.02-.53,11.89-5.79,13.85-12.67,1.91-6.71,3.5-13.54,4.64-20.42.82-4.97,2.95-8.86,6.55-12.22,1.82-1.69,3.27-3.78,5.02-5.55,2.77-2.79,3.49-6.34,2.42-9.72-1.64-5.16-3.31-10.61-6.33-14.99-12.05-17.45-24.34-34.77-37.13-51.69-8.23-10.89-18.8-20.23-31.59-24.5-15.2-5.08-31.13-9.08-47.54-7.02-10.82-19.05-21.89-37.78-35.39-54.68-16.65-20.84-34.41-40.81-52.1-60.79-20.58-23.24-39.79-47.43-54.9-74.64-6.17-11.11-12.37-22.24-17.96-33.64-3.5-7.14-5.54-15-8.89-22.23-4.5-9.71-9.72-19.1-14.47-28.7-2.66-5.36-4.9-10.93-7.5-16.33-8.33-17.32-16.05-34.81-21.76-53.26-4.64-14.99-12.08-28.84-22.09-41.22-3.89-4.81-6.89-10.4-9.88-15.86-6.95-12.69-13.73-25.48-20.39-38.33-1.59-3.07-2.44-6.53-3.67-9.79-.62-1.63-1.13-3.35-2.06-4.8-2.79-4.35-7.32-4.7-10.28-.5-1.62,2.31-2.77,5.3-3.07,8.1-.43,3.92.15,7.95.26,11.94.63,24.69,1.68,49.37,1.73,74.06.04,20.17-1.77,40.35-1.59,60.51.24,27.19,1.63,54.38,5.45,81.34,2.27,16.03,4.49,32.03,9.77,47.53,6.02,17.66,14.9,33.77,24.46,49.6,11.14,18.45,24.59,35.14,39.3,50.84,5.78,6.17,11.19,12.76,17.43,18.42,14.95,13.57,30.14,26.88,45.55,39.91,5.05,4.27,11.11,7.36,16.96,11.15-1.5,2.13-3.33,1.02-5.04.27-12.33-5.49-24.08-11.89-35.08-19.85-7.34-5.31-13.56-11.62-19.91-17.89-8.15-8.04-16.13-16.25-24.19-24.38-.88-.88-1.9-1.64-2.7-2.59-7.51-8.96-15.56-17.54-22.31-27.05-8.06-11.35-14.59-23.77-22.51-35.23-8.04-11.64-11.53-25.38-18.49-37.46-.12-.21-.17-.47-.3-.69-1.39-2.37-2.85-5.62-6.01-3.97-1.44.75-2.4,4.43-1.96,6.41,2.15,9.49,4.53,18.96,7.44,28.25,6.19,19.75,13.35,39.11,23.36,57.38,6.08,11.1,10.59,23.04,16.5,34.25,6.98,13.24,14.49,26.21,22.16,39.07,9.2,15.42,18.37,30.9,28.38,45.79,7.09,10.54,15.01,20.66,23.62,30,5.31,5.76,12.61,9.7,18.99,14.48,3.78,2.83,7.34,6.02,11.34,8.5,6.3,3.9,12.64,7.9,19.41,10.84,16.91,7.33,33.56,15.44,51.83,19.16,1.93.39,3.93,1.03,5.58,2.07,9.47,5.99,19.14,11.73,28.16,18.34,10.44,7.65,20.46,15.91,30.34,24.28,9.09,7.71,18.88,14.78,24.77,25.7,3,5.55,2.91,6.87-2.22,10.34-13.45,9.07-26.83,18.25-40.24,27.39-1.65,1.13-3.12,2.88-4.93,3.36-10.69,2.84-16.43,12.39-24.88,18.26-8.92,6.2-14.47,15.69-19.53,25.26-2.19,4.13-3.23,6.35-5.74,7.09-3.91,1.15-9.66-1.98-25.15-21.97ZM554.03,683.9c5.42-11.61,10.87-21.5,14.68-31.98,3.63-10,5.69-20.58,8.19-30.97,1.8-7.49,3.18-15.09,4.79-22.64,2.91-13.65,4.69-27.46,6.56-41.28,1.76-13.05,4.78-25.94,7.23-38.9.42-2.21.65-4.45,1.15-6.64,1.85-7.99,3.67-16,5.71-23.94,1.6-6.23,3.17-12.5,5.34-18.55,3.75-10.48,8.04-20.04,26.85-50.62,12.3-19.99,25.96-41.45,25.96-41.45,10.44-16.4,13.25-19.81,16.72-27.18,6.1-12.98,10.64-26.69,15.9-40.23.13.21.81.85.86,1.53,1.2,17.66,2.74,35.32,3.34,53,.37,10.93-.67,21.91-1.16,32.86-.46,10.21-1.2,20.42-1.51,30.64-.59,19.24-2.21,38.36-6.44,57.18-3.88,17.28-7.24,34.71-12.05,51.73-4.19,14.84-9.97,29.23-15.26,43.74-2.56,7.01-5.81,13.76-8.42,20.75-6.43,17.17-18.23,30.91-29.16,45.1-3.82,4.95-10,8.11-15.19,11.97-2.4,1.78-5.26,2.98-7.5,4.92-6.72,5.82-14.65,9.47-22.61,13.07-5.85,2.65-11.75,5.2-17.72,7.56-1.43.57-3.22.21-6.25.34ZM943.41,1110.22c-7.87-18.53-12.62-37.74-12.14-58.13,7.99,18.53,9.19,38.51,12.14,58.13ZM909.89,1085.33c2.49-6.19,4.01-12.76,6.04-19.15.78-2.46,1.83-4.84,2.75-7.26.48.15.96.3,1.45.45-1.83,23.25-3.66,46.49-5.49,69.74-.48.05-.96.1-1.45.16-1.42-8.37-2.87-16.74-4.22-25.12-.35-2.2,0-4.57-.63-6.65-1.34-4.4-.09-8.09,1.55-12.17ZM929.81,1278.53c-1.01-5.07-2.28-10.09-3.61-15.09-1.71-6.43-3.67-12.79-5.4-19.22-2.19-8.13-4.25-16.3-6.36-24.45-.44-1.68-1.08-3.35-1.23-5.06-1.16-13.07-6.02-25.18-10.22-37.37,0,0-2.86-11.18-4.86-23.16-5.09-30.4-2.87-58.98-.64-59.11,1.67-.1.99,15.86,9.5,39.91,5.42,15.32,10.19,22.86,15.3,34.22,4.39,9.77,8.99,19.46,13.23,29.29.8,1.85.71,4.28.44,6.37-1.06,8.39-2.55,16.72-3.48,25.12-.82,7.42-1.71,14.92-1.44,22.35.33,9.18,1.32,18.33,4.33,27.23,1.88,5.57,2.39,11.61,3.51,17.44-6.32-4.61-7.69-11.51-9.07-18.47ZM946.24,1152.71c-1.9,8.75-3.78,17.49-5.73,26.23-.25,1.12-.88,2.15-1.56,3.74-6.61-7.36-9.51-15.75-11.15-24.42-2.4-12.67-5.19-25.34-4.35-38.43.58-8.97.77-17.97,2.57-27.25.55.9,1.4,1.73,1.6,2.7,3.07,15.24,8.4,29.61,16.22,43.06,2.59,4.46,3.51,9.27,2.41,14.38ZM946.63,1081.02c-.4-1.93-.57-3.9-.81-5.86-.57-4.65-1.15-9.3-1.64-13.96-.17-1.58-.1-3.19-.13-4.79.54-.07,1.08-.14,1.62-.22.59.75,1.44,1.4,1.75,2.25,5.18,14.28,11.11,28.24,14.12,43.31,2.32,11.63,5.58,23.13,12.14,33.55,3.04,4.83,4.18,11.22,4.9,17.06,1.01,8.14.91,16.42,1.07,24.64.04,2.33-.69,4.67-1.3,8.44-1.75-2.48-2.8-3.71-3.58-5.1-6-10.59-10.03-22.26-18.03-31.77-1.45-1.72-1.88-4.59-2.1-6.99-1.13-12.39-1.68-24.84-3.16-37.18-.95-7.88-3.22-15.6-4.83-23.41ZM1002.5,1269.2c-.5.25-1.01.51-1.51.76-3.45-4.68-6.88-9.38-10.34-14.05-4.42-5.97-8.78-11.98-13.32-17.86-9.28-12-18.68-23.9-27.96-35.9-.89-1.15-1.69-2.6-1.89-4-1.89-13.1,1.04-25.41,6.23-38.68,3.83,6.43,7.12,11.63,10.1,17.01,5.67,10.23,11.27,20.49,16.66,30.87,1.7,3.28,3.37,6.89,3.76,10.49,1.47,13.39,6.55,25.42,12.6,37.22,2.31,4.5,3.8,9.41,5.66,14.13ZM1029.94,1246.33c-1.03,2.71-2.34,5.31-4.02,9.09-2.8-3.11-5.21-5.44-7.21-8.09-7.78-10.33-15.24-20.9-23.19-31.09-3.86-4.96-5.84-10.61-6.53-16.46-1.19-10.04-1.63-20.2-.37-30.3.53-.22,1.06-.44,1.58-.66,1.27,1.4,2.83,2.63,3.77,4.22,7.29,12.33,16.32,23.41,27.06,32.63,11.84,10.17,12.77,30.54,8.91,40.67ZM1393.17,1658.8c-1.67,1.53-21.22-15.32-36.19-31.36-7.46-8-13.01-12.24-23.73-25.87-4.88-6.2-10.63-11.16-16.51-16.16-10.45-8.88-21.14-17.5-31.2-26.81-5.49-5.08-10.25-6.92-19.42-12.46-57.07-34.52-59.81-36.43-64.66-41.5-10.06-10.55-12.3-15.55-25.67-30.4-5.33-5.92-11.19-11.36-16.72-17.11-3.44-3.58-6.72-7.33-10.06-11.02-4.18-4.63-8.48-9.16-12.45-13.96-3.78-4.58-7.41-9.31-10.75-14.22-6.46-9.48-12.92-18.97-18.94-28.73-8.48-13.75-16.61-27.68-21.77-43.19-5.99-17.99-10.6-36.3-14.03-54.91-1.62-8.78-2.63-17.67-4.24-26.45-.98-5.37-.48-10.48,1.71-15.34,1.67-3.69.82-6.01-2.48-8.17-2.46-1.62-4.59-3.78-6.72-5.86-5.67-5.55-10.82-11.74-17-16.64-7.08-5.63-8.92-13.68-11.63-21.29-6.12-17.15-13.26-33.82-21.61-50.01-2.85-5.52-5.19-11.31-7.6-17.05-.49-1.17-.25-2.65.92-4.46,2.05,3.33,4.63,6.45,6.05,10.03,3.67,9.31,10.09,16.52,16.64,23.78,6.34,7.03,12.67,14.16,18.22,21.81,4.36,6.01,7.64,12.81,11.18,19.38,4.35,8.06,8.52,16.22,12.66,24.38,1.8,3.55,3.23,7.28,5.02,10.84,3.56,7.11,7.21,14.17,10.92,21.2,1.03,1.96,2.27,4.32,5.07,3.42,2.93-.94,5.58-2.69,5.68-6.2.1-3.32-.53-6.75-3.86-8.36-4.07-1.96-5.42-5.41-6.73-9.33-1.24-3.74-3.32-7.19-4.87-10.83-2.93-6.89-5.69-13.85-8.66-20.73-.77-1.79-1.7-4.28-3.18-4.87-5.89-2.35-6.97-8.07-10-12.52-6.45-9.45-12.55-19.39-20.43-27.55-11.51-11.92-19.47-25.79-26.78-40.32-3.8-7.55-8.38-14.7-12.14-22.27-2.98-6.01-5.16-12.41-7.83-18.58-3.44-7.94-7.09-15.79-10.48-23.74-1.51-3.54-2.62-7.24-3.17-11.28,8.71,5.89,17.17,11.16,21.24,21.82,6.94,18.16,14.41,36.19,25.39,52.49,3.34,4.95,6.03,10.35,9.03,15.53,7.98,13.76,19.37,24.67,30.16,36.1,4.42,4.68,8.76,9.65,12.07,15.14,4.36,7.24,7.83,15.04,11.38,22.74,1.51,3.28.5,5.36,1.81,9.6,1.92,6.22,3.53,6.33,5.1,12.44.8,3.11.91,5.12,2.56,8.18,1.09,2.02,2.32,3.51,3.21,4.46,5.13-3.34,6.59-7.02,4.51-12.01-4.71-11.25-9.13-22.63-14.09-33.77-2.93-6.57-6.64-12.8-10.09-19.14-4.74-8.71-12.21-15.08-19.11-21.91-13.45-13.31-23.85-28.69-32.19-45.63-3.16-6.43-6.84-12.69-10.97-18.54-3.37-4.78-4.14-10.41-6.48-15.48-.1-.21.52-.75,1.07-1.49,4.02,3.67,8,7.32,12,10.95,8.31,7.54,16.63,15.07,24.97,22.58,1.48,1.33,2.98,2.74,4.68,3.73,15.47,9.04,24.1,23.5,30.78,39.31,6.7,15.87,13.05,31.85,22.18,46.57,1.76,2.84,2.39,6.37,3.53,9.54,9.62-2.65,11.32-6.99,5.28-13.5-7.19-7.75-9.83-17.82-14.46-26.87-5.22-10.2-10.38-20.43-15.6-30.63-.79-1.55-1.96-2.95-2.52-4.57-2.83-8.18-8.84-13.8-15.23-19.07-9.22-7.61-18.89-14.69-27.75-22.68-11.46-10.33-22.88-20.81-33.22-32.22-7.18-7.92-11.2-17.93-9.81-30.33,7.64,6.21,14.59,11.74,21.42,17.42,12.07,10.05,24.39,19.82,35.99,30.39,11.44,10.42,22.68,21.35,30.67,34.67,4.81,8.02,7.14,17.5,10.82,26.22,7.64,18.16,15.4,36.27,23.2,54.36,1.67,3.87,4.05,7.46,5.5,11.41.78,2.11.27,4.69.32,6.34,3.28,3.58,6.42,6.67,9.12,10.1,1.61,2.04,2.97,4.8,5.74,2.84,2.35-1.66,4.4-4.48,2.92-7.79-1-2.24-2.49-4.38-4.19-6.16-5.93-6.26-9.99-13.62-13.49-21.42-2.03-4.53-4.86-8.71-7.07-13.17-1.05-2.12-1.5-4.54-1.12-7.4,5.43,6.22,10.64,12.65,16.34,18.61,9.99,10.46,20.07,20.78,28.46,32.66,4.14,5.86,7.54,5.3,11.94-1.19-1.4-3.35-2.95-6.37-6.92-8.03-2.31-.97-3.99-3.59-5.8-5.6-2.49-2.77-4.77-5.73-7.25-8.52-3.22-3.62-4.05-5.81-1.22-9.23,9.28-11.18,4.09-21.62-1.32-31.86-5.23-9.9-10.92-19.59-16.84-29.09-7.36-11.8-14.35-23.76-24.99-33.33-9.8-8.81-19.91-17.22-29.83-25.87-3.46-3.02-6.26-6.8-9.58-10.48,1.47-.6,2.09-1.06,2.3-.92,11.43,7.96,23.14,15.57,34.15,24.07,14.02,10.83,27.47,22.28,36.7,37.98,5.3,9.01,12.19,17.05,17.81,25.89,6.41,10.08,12.97,20.19,18.02,30.96,3.66,7.79,5.64,16.56,7.19,25.11,1.37,7.53,2.39,13.24,2.72,15.74,5.69,42.67,7.31,67.06,13.54,97.68,4.72,23.2,9.71,39.78,12.97,48.34,3.37,8.85,7.1,17.56,10.21,26.5,6.96,20.01,17.1,38.47,27.36,56.85.63,1.12,1.27,2.27,1.91,3.42,13.51,30.43,42.72,85.8,85.34,142.45,26.93,35.79,57.15,69.35,54.93,71.39ZM1398.93,1652.33c-8.17,4.79-65.75-71.3-112.67-152.27-18.74-32.33-32.61-59.99-41.72-79.04-.9-1.72-1.8-3.44-2.73-5.14-10.59-19.55-19.69-39.66-26.16-61.04-8.77-28.98-12.67-52.34-14.62-67.09-2.71-20.55-2.65-32.15-6.9-63.68-2.78-20.62-5.32-30.57-6.84-35.76-1.75-5.99-4.02-11.98-5.21-18.17-.35-1.82.1-3.88.54-5.74,1.23-5.18-.83-11.34-5.66-13.16-4.61-1.73-6.03-5.57-8.17-9.08-3.36-5.49-6.06-11.52-10.1-16.45-10.35-12.63-19.14-26.13-25.77-41.05-.3-.68-.45-1.58-.97-2.01-9.86-8.13-13.15-21-21.96-30.03-8.43-8.64-15.69-18.42-23.67-27.53-2.26-2.58-5.27-4.51-7.87-6.81-1.15-1.02-2.14-2.23-3.58-3.76,1.4-.09,1.98-.32,2.3-.12,14.08,8.49,28.52,16.44,42.06,25.7,11.17,7.64,19.76,18.12,26.53,30.02,11.95,21.01,23.53,42.27,38.21,61.6,1.1,1.44,1.9,2.86,2.32,4.48.54,2.1.25,3.76.2,4.39-.21,2.34,1.21,6.07,8.73,12.04.29.24.62.53.97.83.58.49,1.05.86,1.11.91.97.76,4.69,1.84,6.51.33,1.75-1.46,1.62-5,.63-6.8-3.57-6.46-7.62-12.68-11.89-18.72-5.9-8.36-12.16-16.47-18.24-24.71-.73-.99-1.41-2.06-1.91-3.19-6.28-14.14-14.16-27.39-22.55-40.36-1.34-2.07-3.07-3.9-4.54-5.89-1.56-2.12-3.03-4.32-4.54-6.48.39-.39.77-.77,1.16-1.16,1.4,1.11,2.99,2.05,4.17,3.35,8.37,9.23,16.66,18.54,25,27.8,1.16,1.29,2.32,2.69,3.75,3.63,7.75,5.13,12.54,12.82,17.2,20.43,3.95,6.47,9.64,10.7,15.75,14.55,2.44,1.53,5.44,3.03,8.24.39,2.49-2.35,2.93-6.04,1.1-9.52-1.48-2.83-3.22-5.52-4.95-8.45-2.14.49-3.8.87-5.46,1.24-3.49.78-6.1-.12-8.44-3.14-5.04-6.47-10.27-12.82-15.78-18.89-9.18-10.09-18.55-20.03-28.06-29.81-3.78-3.89-8.16-7.19-12.29-10.74-.56-.48-1.51-.67-1.82-1.25-5.45-10-15.23-16.08-21.99-25.73,4.1,1.19,8.23,2.27,12.29,3.6,4.02,1.31,7.85,3.62,11.95,4.18,12.23,1.65,20.82,9.17,29.23,17.07,6.36,5.98,12.85,11.89,18.66,18.38,7.3,8.16,15.29,16.15,20.53,25.58,4.69,8.44,10.72,15.34,16.87,22.4,2.37,2.72,5.21,3.59,8.72,2.96,6.07-1.08,9.3-6.34,7.35-12.19-1.6-4.81-4.7-8.1-9.56-9.8-3.04-1.06-5.95-2.53-8.99-3.61-5.49-1.95-8.57-6.23-12-10.67-5.63-7.26-12.13-13.87-18.55-20.48-3.81-3.92-8.26-7.22-12.23-11.01-1.51-1.44-2.49-3.45-4.48-6.29,3.27.12,5.23-.1,7.05.3,11.67,2.53,22.17,7.56,31.28,15.33,11.27,9.61,23.56,17.62,37.04,23.73,3.06,1.39,1.91,1.57,6.4,5.01,6.86,5.25,8.97,6.48,10.61,9.47,1.77,3.22,1.93,6.26,1.85,7.62-.51,9.59,12.65,40.03,21.07,68.54,2.73,9.25,5.39,21.45,10.15,45.97,4.56,23.5,7.73,47.32,13.29,70.57,4.69,19.59,12.02,38.55,18.06,57.82,6.05,19.27,7.73,39.09,7.13,59.16-.3,10.22-.83,20.43-1.39,30.63-.52,9.44-.71,18.92-1.91,28.28-2.93,22.92,3.56,43.99,11.84,64.77,3.97,9.96,7.5,20.2,12.55,29.6,7.22,13.43,10.25,28.69,18.86,41.48,1.9,2.82,2.51,6.49,3.74,9.76,4.88,12.97,7.43,19.42,7.98,20.98,3,8.47,9.07,29.69,5.18,31.97Z"/><path class="cls-1" d="M787.73,942.87c.39.65.75,1.22,1.07,1.68,5.35,7.73,12.58,13.97,18.29,21.44,12.13,15.88,16.64,36.53,16.37,56.5-.27,19.98-4.96,39.6-9.63,59.03,3.65-.31,5.35-4.58,6.22-8.14,5.95-24.31,10.47-49.25,9.22-74.25-1.25-25-8.66-50.24-24.44-69.68-3.15-3.88-14.7-15.76-20.82-11.09-6.09,4.65.02,18.34,3.72,24.5ZM788.48,922.95c1.02-.9,3.75-.58,5.38.08,1.99.81,4.04,2.2,5.34,3.89,11.79,15.23,19.79,32.25,23.49,51.21.03.17-.24.39-.54.86-5.54-11.72-13.11-21.82-22.72-30.23-6.35-5.55-8.21-13.54-12.02-20.45-.72-1.3-.06-4.37,1.07-5.37Z"/><path class="cls-1" d="M547.58,708.78c-4.07-.94-8.43-1.56-12.55-1.18-7.44.68-14.84,2.02-22.19,3.43-10.81,2.08-21.42,4.94-30.74,11.12-16.44,10.91-29.25,25.73-41.4,40.84-10.74,13.35-19.55,28.25-29.21,42.47-.28.41-.85.87-.79,1.23.22,1.29.64,2.55.99,3.83,1.07-.35,2.63-.37,3.14-1.11,3.13-4.48,5.93-9.19,9-13.71,7.29-10.74,14.54-21.51,22.06-32.09,6.29-8.85,15.71-13.69,25.22-18.03,6.5-2.97,13.44-4.96,20.2-7.36,7.02-2.49,13.9-5.65,21.12-7.24,12.5-2.75,24.46-6.95,36.31-11.58,1.47-.57,2.69-1.78,3.44-2.29.93-3.96-.91-7.47-4.59-8.32ZM544.2,717.44c-8.68,2.97-17.43,5.75-26.2,8.47-4.99,1.55-10.15,2.59-15.07,4.31-9.38,3.29-18.63,6.94-27.96,10.37-1.09.4-2.33.38-3.51.56-.31-.51-.63-1.03-.94-1.54,6.66-6.54,12.95-13.73,21.85-17.34,14.6-5.93,29.75-9.99,45.52-11.55,3.69-.37,6.9-.22,9.79,3.47-1.18,1.14-2.13,2.78-3.48,3.25Z"/><path class="cls-1" d="M952.49,776.29c-3.17,1.95-3.5,6.52-.13,11.31,7.6,10.82,15.1,21.76,23.4,32.03,5.76,7.13,12.47,13.6,19.34,19.72,12.16,10.84,26.52,18.55,40.02,27.51,13.14,8.72,27.73,8.74,42.26,10.2,2.3.23,4.48-.28,4.98-3.23-1.45-2.7-3.8-1.83-5.94-1.6-10.93,1.17-21.37-.48-30.95-5.96-4.67-2.67-9-5.95-13.48-8.97-6.01-4.05-11.23-8.75-15.68-14.66-6.57-8.72-14.14-16.67-21.18-25.04-6.24-7.42-12.35-14.88-19.96-21.1-3.73-3.04-6.16-7.69-9.12-11.65-1.19-1.6-2.1-3.41-3.36-4.94-3.61-4.38-7.09-5.56-10.21-3.64ZM1003.89,839.99c-18.99-15.51-34.39-34.09-47.95-56.06,8.08,4.24,45.25,47.69,47.95,56.06Z"/></g></svg>