<svg id="Layer_2" xmlns="http://www.w3.org/2000/svg" viewBox="0 0 1701.01 2508.55"><defs><style>.cls-1{fill:#1a1a1a;}</style></defs><g id="_Ñëîé_1"><path class="cls-1" d="M955.14,971.14c-3.19-.64-5.22.96-6.76,3.5-8.69,14.37-20.78,25.96-31.43,38.73-3.48,4.17-5.64,9.44-9.17,13.55-5.67,6.62-12.05,12.62-17.96,19.03-2.81,3.04-5.23,6.44-7.89,9.76-3.97-2.81-4.44-5.35-1.41-8.4,4.04-4.07,7.91-8.31,12.04-12.28,6.3-6.07,11.42-12.85,16.17-20.3,5.69-8.92,13.69-16.36,20.65-24.48,2.75-3.21,5.6-6.36,8.02-9.8,4.67-6.63,9.08-13.46,13.11-21.14-2.73,1.42-5.52,2.73-8.16,4.28-4.7,2.76-9.57,5.33-13.9,8.61-4.93,3.73-10.23,7.5-13.83,12.39-10.76,14.63-20.96,29.69-30.99,44.84-7.97,12.05-15.4,24.46-22.99,36.76-1.43,2.32-2.36,4.94-3.73,7.31-1.37,2.36-2.58,5.06-4.58,6.76-7.78,6.62-15.61,13.22-25.04,17.54-2.92,1.34-5.33,1.1-7.46-1.12-2.52-2.62-1.24-5.53.74-7.29,5.72-5.1,11.85-9.73,17.77-14.6,1.42-1.17,3.33-2.34,3.87-3.9,5.36-15.31,14.46-29.05,18.62-44.89,1.03-3.93,3.78-7.41,5.17-11.71-6.13,2.58-11.65,5.97-16.35,10.44-5.06,4.81-9.4,10.43-14.68,14.95-4.53,3.88-6.64,7.83-4.17,13.09-6.71,6.52-13.07,12.72-19.46,18.89-2.53,2.45-5.91,2.79-8.1.93-2.24-1.9-2.97-6.5-.91-8.88,10.61-12.26,21.07-24.67,32.17-36.47,11.15-11.86,24.33-21.41,37.55-30.84,1.21-.86,2.53-1.78,3.3-3,2.89-4.55,5.57-9.22,8.54-14.21-1.13-.08-2.2-.41-2.39-.14-4.88,7.14-13.1,9.41-20,13.48-4.21,2.48-9.29,3.49-14.04,5.01-8,2.56-14.64,7.18-20.83,12.75-12.96,11.65-26.13,23.08-39.24,34.57-.93.81-2.04,1.45-3.15,2.01-8.17,4.17-16.36,8.31-24.56,12.44-6.92,3.49-7.71,3.42-14.99-1.04-.32-7.5,4.72-14.08,11.91-15.53.48-.1,1.08-.28,1.45-.09,8.09,4.07,14.41-1.22,20.7-4.49,10.66-5.55,19.67-13.54,28.74-21.41,16.57-14.39,33.67-28.18,50.08-42.75,10.61-9.43,20.29-19.9,30.56-29.72,10.09-9.66,20.38-19.09,30.59-28.62,1.44-1.35,2.91-2.67,3.99-4.87-1.19.37-2.42.64-3.56,1.12-3.18,1.34-6.32,2.79-9.49,4.14-1.83.78-3.97,1.1-5.51,2.24-7.55,5.59-16.34,8.57-24.92,11.88-9.73,3.75-14.86,12.28-21.27,19.46-10.43,11.7-19.74,24.53-31.1,35.21-8.6,8.09-16.49,17.26-27.12,23.28-6.43,3.64-11.88,8.99-18.08,13.1-5.74,3.81-8.22,2.82-12.61-4.11,3.43-4.96,8.37-8.61,13.7-10.93,13.32-5.81,24.58-14.44,34.57-24.59,12.06-12.26,23.39-25.26,34.95-38.01,1.23-1.35,1.91-3.2,3.87-6.58-11.09,2.7-20.42,4.79-29.63,7.32-2.28.63-4.32,2.49-6.19,4.12-2.43,2.11-4.7,4.44-6.81,6.87-12.04,13.81-26.06,25.28-41,35.79-6.06,4.27-10.87,10.2-17.82,13.41-7.21,3.34-14.33,6.9-21.34,10.65-6.37,3.41-10.75,5.97-17.81,10.28-17.71,10.81-41.8,25.51-61.63,43.87-1.6,1.48-5.32,5.2-12.06,11.19-13.6,12.08-26.34,25.19-42.1,34.7-4.24,2.56-7.69,6.38-11.77,9.24-10.63,7.44-21.18,15.03-32.17,21.89-19.25,12.02-36.19,26.12-48.85,45.41-8.32,12.69-17.98,24.61-28.03,36.01-6.88,7.79-14.92,14.84-23.39,20.89-17.83,12.74-36.42,24.41-54.44,36.89-11.28,7.8-21.93,16.52-33.18,24.37-21.55,15.04-41.17,32.45-60.79,49.81-9.69,8.58-18.44,18.25-27.26,27.77-15.47,16.69-32.12,32.05-50.01,46.12-5.66,4.45-10.68,9.72-16,14.6-9.56,8.78-19.08,17.61-28.75,26.27-2.01,1.8-4.59,2.97-6.92,4.42-2.1,1.31-4.11,1.55-6.16-.25-2.18-1.91-3.99-3.91-2.78-7.07.98-2.55,1.91-5.14,3.19-7.54,4.23-7.9,8.28-15.93,13.01-23.53,7.9-12.67,16.37-24.99,24.41-37.57,3.74-5.85,7.64-11.72,10.42-18.05,6.31-14.38,12.05-29.01,17.84-43.62,2.85-7.19,5.67-14.43,7.86-21.84,5.08-17.16,13.28-32.76,22.79-47.78,6.8-10.75,13.31-21.69,20.26-32.35,8.7-13.34,18.07-26.25,26.43-39.79,3.86-6.25,6.07-13.54,8.95-20.38,5.55-13.18,8.96-26.98,11.55-40.99,3.62-19.58,13.33-32.43,21.93-47.6,7.76-13.68,14.65-23.38,22.69-34.71,2.76-3.89,9.54-12.99,23.4-30.96,6.84-8.86,13.81-17.62,20.89-26.29,3.61-4.42,7.78-8.39,11.37-12.83,12.7-15.7,24.39-32.02,32.07-50.94,2.91-7.17,4.99-14.56,7.48-21.82,3.11-9.08,7.97-17.82,13.45-25.77,9.46-13.74,19.98-26.75,30.06-40.07.45-.6.85-1.26,1.4-1.76,12.42-11.26,20.37-26.25,31.97-38.25,12.82-13.26,25-27.14,37.55-40.67,8.31-8.96,16.88-17.68,25.16-26.67,8.89-9.64,20.04-16.39,30.38-24.17,5.88-4.42,11.94-8.59,18.94-13.6-2.52-.13-3.95-.49-5.23-.21-2.57.57-5.13,1.18-6.44-1.83-1.32-3.03,1.23-4.68,3.06-6.16,4.06-3.3,8.21-6.54,12.62-9.35,10.31-6.57,20.68-13.04,31.23-19.21,7.89-4.61,14.67-10.33,20.11-17.66,14.55-19.61,29.04-39.27,43.69-58.81,2.65-3.53,5.47-7.3,9.06-9.67,5.83-3.85,9.81-9.12,13.96-14.44,3.98-5.1,8.2-10.01,12.27-15.04,1.45-1.79,2.73-3.71,4.45-6.05-1.67-.14-2.28-.39-2.61-.18-12.46,7.77-25.92,14.12-36.11,25.12-3.05,3.28-5.75,6.88-8.75,10.21-12.68,14.1-25.15,28.39-38.23,42.11-6.68,7-14.27,13.19-21.81,19.3-10.25,8.31-20.86,16.18-31.29,24.26-1.37,1.06-3.15,2.03-3.82,3.46-4.98,10.77-15.37,9.86-24.13,13.12-1.98-5.38,1.08-6.62,3.54-8.22,11.3-7.36,23.02-14.16,33.81-22.2,18.42-13.73,35.75-28.8,50.94-46.17,3.94-4.5,8.27-8.65,12.37-13.02,1.67-1.79,3.19-3.72,4.39-6.03-6.74,2.47-12.1,7.1-16.91,11.93-9.93,9.95-20.83,18.38-32.64,25.99-8.38,5.4-16.47,11.04-25.72,14.9-1.85.77-3.16,3.09-4.47,4.87-2.69,3.66-6.34,5.62-10.71,6.15-1.29.15-3.45-.29-3.88-1.14-.67-1.31-.88-3.82-.07-4.72,2.62-2.91,5.43-6.02,8.82-7.78,11.28-5.87,22.17-12.17,32.85-19.18,14.95-9.82,27.48-22.19,40.71-33.88,1.48-1.31,3.29-2.23,4.92-3.37,11-7.63,21.99-15.28,32.43-23.97-6.88,3.25-13.85,6.31-20.61,9.79-15.95,8.23-32.08,16.18-47.6,25.17-9.89,5.73-18.83,13.1-28.16,19.78-6.9,4.94-13.7,10.01-20.63,14.91-4.49,3.17-9.06,6.05-11.3,11.57-.73,1.8-2.98,3.42-4.91,4.21-3.44,1.4-7.13,2.47-10.8,2.93-1.7.22-3.63-1.32-5.29-1.99.79-5.46,4.61-6.99,7.78-8.53,12.22-5.93,22.53-14.61,33.31-22.6,7.01-5.2,13.69-10.85,20.71-16.04,3.33-2.46,7.07-4.39,10.7-6.42,7.08-3.96,14.24-7.77,21.31-11.74,5-2.8,9.73-6.14,14.89-8.58,15.97-7.55,32.05-14.89,48.18-22.12,10.89-4.88,22.32-8.45,31.99-15.98,6.66-5.19,14.23-9.2,21.37-13.78.98-.63,1.82-1.49,3.83-3.16-8.23-.38-14.6,1.83-20.77,3.96-12.95,4.46-25.49,10.22-38.57,14.24-13.62,4.18-26.18,10.78-39.52,15.55-13.34,4.77-26.3,10.62-39.42,16.02-1.15.47-2.28,1.05-3.33,1.71-12.26,7.7-24.67,15.18-36.71,23.2-11.6,7.72-23.02,15.75-34.13,24.16-5.71,4.33-10.55,9.79-15.78,14.75-2.24,2.12-3.68,4.3-3.19,7.83.56,4.06-1.32,7.04-5.66,8.49-2.52.84-4.68,2.8-6.99,4.29-2.45,1.58-4.7,1.54-6.63-.81-1.88-2.29-2.87-4.51-.54-7.31,10.41-12.48,21.48-24.29,34.63-33.95,12.48-9.16,24.95-18.35,37.66-27.18,9.63-6.69,19.66-12.83,29.47-19.27,1.72-1.13,3.25-2.55,4.19-4.87-8.2,1.78-16.42,3.49-24.6,5.35-12.16,2.77-24.29,5.66-36.43,8.5-3.3.77-5.66,2.13-7.01,5.81-1.78,4.85-11.98,7.25-16.29,4.39-3.86-2.56-4.76-7.08-1.13-10.1,3.95-3.3,8.44-6.64,13.26-8.06,9.52-2.81,19.47-4.16,29.18-6.39,23.1-5.3,46.27-10.35,69.19-16.33,12.5-3.26,24.49-8.47,36.84-12.37,17.6-5.56,35.39-10.54,52.98-16.16,9.02-2.89,17.76-6.64,26.62-10,2.67-1.01,4.21-2.61,3.13-5.71-1.01-2.92-3.19-2.82-5.49-2.14-6.2,1.83-12.36,3.77-18.55,5.64-12.26,3.71-22.92,10.7-34.25,16.34-10.19,5.08-21.48,5.69-32.83,5.32-7.91-.25-15.86.04-23.76.62-9.92.73-19.95,1.25-29.65,3.23-17.03,3.47-34.37,5.67-50.74,12.26-8.94,3.59-18.71,5.06-27.85,8.23-8.19,2.84-16.09,6.58-24,10.18-5.15,2.35-10.57,4.35-13.36,10.11-1.29,2.65-4.03,2.63-6.51,1.16-2.53-1.5-4.22-3.4-3.39-6.73.82-3.32,3.26-4.86,6.04-6.17,15.8-7.48,31.77-14.49,48.52-19.64,7.39-2.27,14.42-5.75,21.86-7.76,17.11-4.62,34.47-8,52-10.82,18.61-3,37.3-2.84,55.95-3.79,17.01-.87,31.81-7.12,47.17-16.83-2.55-.68-3.75-1.31-4.93-1.26-8.7.33-17.41.57-26.09,1.26-14.36,1.14-28.76,2.13-43.03,4.05-14.53,1.96-28.94,4.89-43.37,7.54-4.15.76-8.21,2.02-12.31,3.09-10.36,2.7-21.27,1.8-31.57,5.15-6.83,2.22-13.94,3.6-20.92,5.39-1.93.5-3.82,1.2-5.76,1.65-4.51,1.05-8.03-.69-8.93-4.3-.91-3.65,1.29-5.75,6.49-7.05,16.26-4.07,32.83-5.79,49.44-7.66,11.79-1.32,23.33-4.87,35-7.42-.22-.87-.23-1.61-.45-1.68-8.88-2.6-17-7.21-27-6.67-8.33.45-16.85-1.6-25.18-3.14-3.21-.59-5.87-.37-8.58,1.09-4.82,2.6-9.72,5.08-14.38,7.94-2.91,1.79-5.85,3.87-8.69.9-2.6-2.72-1.92-5.96.8-8.66.48-.48.64-1.27.87-1.77-.37-.61-.6-1.36-.87-1.37-7.77-.35-15.54-.83-23.3-.83-3.19,0-5.54,1.83-6.07,5.48-.72,4.93-4.48,6.16-8.71,6.63-4.37.48-8.74.94-13.94,1.5-6.49-5.01-6.08-9.72,2.28-13.27,5.74-2.44,11.56-4.76,17.49-6.68,6.91-2.23,13.98-2.57,21.35-2.52,20.58.13,41.42,2.3,61.33-6.05,5.87-2.46,12.7-2.52,18.96-4.18,13.5-3.59,26.88-7.66,40.39-11.22,4.79-1.26,9.79-2.03,14.73-2.33,10.95-.65,21.92-.83,32.88-1.28,7.12-.29,7.49-.54,12.68-.8,26.59-1.33,45,2.57,45.14,1.7.13-.84-17.01-5.35-38.89-7.47-14.25-1.38-10.87-.76-32.11-1.34-13.41-.36-26.83-.5-40.24-.51-2.94,0-5.88.98-8.84,1.37-1.92.25-4.28.97-5.74.19-3.89-2.1-6.69-.11-9.72,1.59-8.25,4.61-16.4,9.44-24.79,13.78-6.58,3.41-13.88,3.56-21.18,3.76-4.12.12-8.19,1.51-12.31,2.13-5.09.76-10.2,1.64-15.31,1.69-1.22.01-3.46-3.13-3.42-4.78.04-1.64,2.1-4.18,3.74-4.64,4.53-1.27,9.29-1.8,13.99-2.36,7.93-.94,15.88-1.67,23.82-2.52,1.48-.16,3.12-.13,4.4-.76,8.69-4.31,17.26-8.87,25.96-13.16,4.87-2.41,9.9-4.47,14.98-6.74-6.66-1.95-20.87-1.31-28.13.24-15.11,3.21-30.33,5.92-45.51,8.8-5.82,1.11-11.9,1.38-15.79,7.07-1.59,2.33-4.15,3.18-7.29,2.68-2.65-.42-5.45.24-8.18.16-4.23-.11-6.24-3.12-4.93-7.09,2.2-6.65,3.49-7.2,10.92-7.36,5.71-.13,11.48-.74,17.08-1.84,12.23-2.41,24.3-5.67,36.56-7.82,12.78-2.24,25.69-3.78,38.58-5.27,9.64-1.12,19.56-.68,28.96-2.74,11.35-2.49,22.96-1.57,34.07-3.58,21.19-3.84,42.72-4.25,63.87-7.87.67-.11,1.28-.55,3.54-1.57-10.59-1.42-19.59-2.7-28.61-3.81-3.69-.45-7.42-.64-11.14-.78-9.22-.37-18.45-1.09-27.66-.85-16.7.44-33.39,1.2-50.06,2.33-16.64,1.13-33.25,2.8-49.86,4.38-8.94.85-17.9,1.68-26.74,3.17-4.8.81-9.79,2.05-13,6.62-3.92,5.58-9.65,6.32-15.93,5.68-3.16-.32-4.09-2.58-5.01-4.86-1.07-2.65.55-4.47,2.7-5.43,4.52-2,9.09-3.95,13.8-5.43,8.27-2.59,16.17-6.15,25.31-6.05,8.41.09,16.83-1.87,25.27-2.63,17.38-1.57,34.78-3.05,52.18-4.38,25.16-1.92,50.34-2.34,75.54-.42,7.22.55,14.46.84,21.69,1.12,1.38.05,2.79-.5,4.33-1.45-5-2.16-9.1-5.59-15.05-5.89-8.42-.42-16.79-2.07-25.18-3.19-2.66-.35-5.31-.88-7.97-1-10.94-.48-21.89-.91-32.84-1.21-6.72-.19-13.44-.16-20.17-.14-5.68.02-11.36.26-17.04.28-18.64.06-36.55,3.54-54,10.21-6.67,2.55-14.09,3.11-21.1,4.85-9.4,2.33-18.71,5-28.1,7.39-8.7,2.21-17.45,4.27-26.19,6.35-3.75.89-6.99,2.1-8.68,6.19-1.95,4.72-6.38,5.95-11.05,6.34-3.69.3-5.53-2.05-6.47-5.08-.96-3.08,1.44-4.28,3.63-5.69,11.97-7.72,25.29-11.41,39.1-14.16,7.03-1.4,13.64-4.8,20.64-6.51,11.61-2.83,23.39-4.98,35.08-7.5,2.43-.52,4.81-1.3,7.17-2.08,14.99-4.95,30.21-8.33,46.16-8.01,8.22.16,16.46-.89,24.68-.75,17.95.3,35.92.63,53.83,1.66,12.43.71,24.8,2.59,37.19,3.98,2.41.27,4.8.65,7.19.97,1.05-6.83.57-8.27-4.19-9.79-4.24-1.36-8.66-2.18-13.02-3.09-2.93-.61-6.01-.65-8.85-1.52-9.99-3.06-20.14-3.21-30.43-2.45-2.94.22-5.97-.23-8.9-.72-12.57-2.1-24.72,1.6-37.06,2.54-9.91.76-19.86,1.06-29.77,1.78-17.91,1.31-35.84,2.53-53.71,4.29-10.86,1.07-21.61,3.19-32.44,4.64-8.16,1.09-16.29,1.91-24.34-1.25-6.16-2.42-6.27-2.13-7.24-9.88,5.89-5.16,13.2-5.07,20.27-3.79,2.56.46,4.57,3.99,7.48,6.72,12.22-1.42,25.33-3.09,38.47-4.45,24.08-2.49,48.16-4.89,72.4-5.33,6.94-.13,13.86-1.71,20.76-2.79,10.17-1.59,20.33-2.45,30.56-.56,1.47.27,3.02.59,4.47.4,11.81-1.61,23.36.97,35.01,1.99,2.14.19,4.33-.12,7.8-.25-5.33-6.09-11.6-8.06-17.27-10.72-7.18-3.37-14.53-6.65-22.14-8.72-10.51-2.86-20.91-6.79-32.26-5.52-6.68.75-13.47.87-20.21.85-9.51-.03-18.71,1.32-28.09,3.11-18.11,3.47-36.5,5.54-54.81,7.91-12.12,1.57-24.28,2.89-36.47,3.84-6.67.52-13.42-.11-20.13.05-10.23.24-20.44.93-30.67.98-4.17.02-8.41-.91-12.51-1.87-3.37-.78-6.55-2.38-9.89-3.36-3.01-.88-4.78-2.79-5.16-5.74-.41-3.26,1.87-5.43,4.47-6.17,2.69-.77,5.85-.79,8.61-.23,3.85.78,7.53,2.4,11.29,3.65.71.24,1.64.19,2.13.64,6.12,5.64,13.52,3.73,20.63,3.64,11.22-.14,22.49.32,33.66-.51,19.65-1.46,39.27-3.5,58.85-5.71,7.1-.8,14.07-2.78,21.25-5.64-1.72-.46-3.42-1.19-5.16-1.33-9.64-.76-19.28-1.6-28.94-1.97-6.7-.26-13.43.48-20.13.26-11.71-.38-23.41-1.08-35.11-1.8-6.21-.38-12.44-.82-18.61-1.67-7.86-1.09-15.68-2.52-23.47-4-4.32-.82-5.91-2.86-5.84-6.47.08-3.99,3.11-4.49,6.01-5.48,8.38-2.87,15.62,0,22.85,3.88,2.55,1.37,5.48,2.59,8.32,2.78,19.14,1.34,38.29,2.41,57.44,3.52,15.69.91,31.37,1.9,47.07,2.6,7.14.32,14.31.03,21.56-.51-7.68-4.48-16.23-6.21-24.48-8.84-9.45-3.02-18.69-6.7-28.14-9.72-4.44-1.42-9.17-2.82-13.75-2.78-20.71.19-41.42,1-62.13,1.35-7.2.12-14.42-.22-21.61-.76-2.92-.22-5.96-1.14-8.56-2.5-1.44-.75-3.05-3.2-2.84-4.62.27-1.82,2.02-4.45,3.62-4.86,5.02-1.3,10.23-1.7,15.29.53,2,.88,4.2,1.8,6.33,1.85,15.45.39,30.91.6,46.37.77,1.84.02,3.7-.49,6.78-.93-1.83-1.62-2.58-2.58-3.56-3.1-12.59-6.61-25.23-13.13-37.82-19.74-4.24-2.23-8.51-3.65-13.45-4-8.42-.6-16.79-2.03-25.15-3.3-6.79-1.03-11.65-5.8-16.24-10.14-1.69-1.6-.75-6.53-.2-9.8.5-2.98,3.4-3.12,6.02-3.16,7.23-.12,14.82.35,18.23,7.6,4.15,8.81,11.74,9.39,19.36,9.98,17.88,1.39,35.8,2.28,53.7,3.43,1.98.13,3.95.58,5.91.99,26.42,5.48,52.88,10.76,79.23,16.54,14.6,3.2,29.02,7.24,43.51,10.9.07-.33.36-1.12.24-1.19-10.38-6.03-18.33-15.6-29.77-20.14-7.64-3.04-15.04-6.51-23.25-8.06-7.58-1.44-14.96-3.95-22.5-5.61-5.08-1.11-10.31-1.55-15.47-2.3-1.47-.21-3.05-.17-4.39-.72-10.58-4.33-21.86-6.79-31.97-12.42-2.66-1.48-6.22-1.39-9.38-1.94-15.49-2.66-31.01-5.18-46.48-7.99-3.87-.7-6.17-4.36-5.45-7.65.82-3.75,4.02-4.54,6.97-4.33,5.62.4,11.35.25,16.29,4.24,4.12,3.33,11.23,4.51,19.76,4.5-1.57-5.34-5.81-7.96-9.93-10.33-4.86-2.8-6.66-7.2-7.68-12.2-.56-2.76.42-5.94,3.02-5.96,4.53-.03,9.1,1.22,13.55,2.35.62.16,1.07,2.69.85,4.01-.26,1.58-1.3,3.04-2.17,4.91,8.08,4.39,16.57,4.65,24.95,5.37,4.96.43,9.94.65,14.89,1.14,19.39,1.92,38.62,4.84,57.61,9.24.88.2,1.84.02,3.93.02-3.45-4.1-7.48-5.36-11.13-6.82-14.09-5.65-28.31-10.95-42.46-16.46-9.03-3.52-18.52-6.27-26.89-11-10.36-5.86-19.79-13.38-29.58-20.22-2.65-1.85-5.41-3.64-7.68-5.9-1.91-1.89-3.69-4.35-1.87-7.36,1.71-2.82,4.16-4.22,7.57-3.49,2.69.58,5.39,1.07,8.07,1.66,6.77,1.5,6.95,1.53,7,8.74.02,3.05,1.92,4.28,3.77,5.97,13.62,12.45,30.49,18.69,47.3,25.09,2.56.98,5.14,1.91,7.7,2.89,13.03,4.99,26.19,9.66,39.05,15.05,21.75,9.11,41.85,21.07,60.14,36.06,8.39,6.87,15.64,14.67,21.76,23.59,4.66,6.79,9.33,13.59,14.15,20.26,1.89,2.61,3.95,5.24,6.4,7.29,7.07,5.91,12.82,12.55,14.74,21.92.49,2.37,1.79,4.57,2.77,6.98,11.93.64,22.62,4.69,33.25,9.05,2.29.94,4.87,1.18,7.19,2.07,6.73,2.59,13.66,4.83,20.02,8.14,15.36,7.99,31.61,13.52,47.89,19.16,9.4,3.25,18.71,7.17,27.41,11.97,7.89,4.35,17.16,6.3,28.02,8.42,24.41,4.76,45.96,1.36,67.08-1.97,1.87-.29,8.17-1.33,16.12-2.78,5.89-1.07,11.8-2.07,17.61-3.5,7.21-1.78,14.2-4.63,21.48-5.82,10.99-1.81,21.68-4.73,32.39-7.57,7.18-1.9,14.04-4.98,21.13-7.23,17.59-5.58,35.3-10.79,52.83-16.56,9.87-3.25,19.65-6.91,29.15-11.1,12.72-5.61,25.44-11.35,37.6-18.05,12.86-7.09,25.53-14.72,37.45-23.28,20.99-15.05,39.04-33.23,55.09-53.59,13.13-16.65,27.72-32.15,41.21-48.52,9.68-11.74,18.58-24.12,27.91-36.15,5.66-7.29,10.91-15.01,17.34-21.57,10.53-10.75,19.57-22.58,28.6-34.55,11.88-15.74,24.67-30.78,37.22-46.01,2.84-3.45,6.4-5.58,11.15-6.78,8.16-2.06,15.94-5.66,23.89-8.58,7.73-2.84,15.58-5.37,23.17-8.53,8.02-3.33,15.8-7.24,24.47-11.27,1.05,1.16,2.71,2.61,3.88,4.39,1.54,2.36,1.25,4.59-1.07,6.61-9.56,8.32-19.09,16.69-28.53,25.14-4.45,3.98-8.72,8.16-12.99,12.33-11.95,11.66-24.1,23.14-35.66,35.17-5.48,5.7-9.76,12.55-14.69,18.79-3.1,3.91-6.26,7.79-9.64,11.46-10.12,11.02-20.59,21.73-30.49,32.95-10.38,11.78-20.47,23.83-30.28,36.09-8.08,10.11-15.84,20.5-23.23,31.11-10.98,15.75-20.27,32.51-28.51,49.87-3.41,7.19-8.19,13.76-11.23,21.08-3.73,8.97-6.66,18.32-9.25,27.69-2.85,10.32-5.25,20.79-7.21,31.32-.6,3.23-.92,5.67-1.06,6.58-7.45,49.83-20.16,109.46-12.45,153.5,2.25,12.87,7.4,30.36,7.96,32.67,3.43,13.98,9.38,26.7,18.06,38.27,3.86,5.14,6.56,11.14,9.81,16.73,1.26,2.16,2.55,4.3,3.91,6.39,5.46,8.36,11,16.66,16.42,25.04,6.24,9.65,12.47,19.22,20.97,27.21,3.7,3.48,8.14,9.57,14.33,16.21,8,8.6,14.83,15.87,24.78,24.12,7.46,6.18,11.2,9.27,15.03,11.21,9.92,5.02,21.79,7.59,31.65,11.16,1.41.51,2.73,1.47,4.16,1.66,9.09,1.19,15.03,6.55,18.64,14.5,3.89,8.58,8.24,17.15,10.57,26.19,2.59,10.05,3.82,20.58,4.39,30.97.67,12.42.29,24.93-.15,37.39-.39,10.95-.8,21.97-2.47,32.77-1.79,11.59-2.83,23.2-4.14,34.82-.42,3.68-2.96,7.38-5.3,10.5-2.47,3.3-5.56,2.97-7.97-.59-2.51-3.71-4.39-7.85-6.79-11.65-2.12-3.35-4.59-6.48-6.88-9.73-4.72-6.69-9.4-13.41-14.17-20.07-1.45-2.03-3-4.01-4.72-5.81-8.59-9-14.13-19.8-18.44-31.3-3.33-8.88-6.94-17.7-9.51-26.81-4.33-15.35-8.4-30.81-11.6-46.43-1.1-5.37.69-11.35,1.27-17.03.3-2.98.83-5.94,1.29-8.9,1.43-9.24-3.5-15.75-9.51-21.65-9.38-9.2-19.52-17.7-28.27-27.45-10.31-11.48-19.74-23.8-29.1-36.1-9.35-12.28-18.11-25-27.22-37.45-1.28-1.76-3.12-3.11-5.88-5.79.47,6.69.62,11.94,1.26,17.12.93,7.63,2.69,15.18,3.24,22.82.87,12.16,1.13,24.37,1.45,36.57.02.8.04,2.63.07,5.53.05,4.51.29,27.12-.16,46.74-.87,37.8-3.62,34.16-1.62,44.67,1.43,7.49,4.37,22.96,16.1,36.46,8.24,9.49,13.33,9.38,25.72,23.6,2.19,2.51,5.86,7.37,13.2,17.09,8.76,11.59,13.13,17.38,16.97,22.89,5.35,7.68,12.43,18.61,19.88,32.7,8.52.8,17.21,1.53,25.87,2.49,2.7.3,5.42,1,7.95,1.97,12.81,4.89,25.57,9.91,38.33,14.91,11.84,4.64,24.38,8.05,35.33,14.27,14.48,8.23,27.89,18.36,37.25,32.87,8.39,13.01,17.58,25.5,25.83,38.6,4.5,7.14,7.56,15.18,11.64,22.6,8.83,16.05,19.42,30.81,32.8,43.45,1.99,1.88,3.72,4.09,5.87,5.75,3.32,2.56,6.6,5.81,10.44,6.91,5.65,1.62,8.62,5.4,11.75,9.53q-7.09,6.48-16.46,6.85c-.48-2.45-1.44-5.99-3.56-9.77-3.9-6.92-9.4-10.48-11.99-12.3-5.8-4.07-11.31-10.81-22.35-24.29-5.55-6.79-10.4-14.83-20.1-30.91-11.48-19.03-12.67-22.18-21.08-35.28-4.71-7.33-10.37-14.05-15.58-21.07-6.91-9.31-15.63-16.61-25.32-22.85-12.93-8.33-27.94-11.66-41.92-17.44-8.22-3.39-16.85-5.8-25.29-8.64-.29.49-.58.99-.86,1.48,3.39,2.66,9.16,7.03,16.62,11.97,22.37,14.78,33.98,17.39,53.43,31.73,3.97,2.93,9.39,8.22,16.68,13.89,15.65,12.19,26.63,28.01,36.17,45.13,4.84,8.69,10.68,16.83,15.85,25.34,1.91,3.14,3.07,6.72,4.79,9.99,2.43,4.62,5.41,8.98,7.53,13.73,6.05,13.51,14.28,25.47,24.44,36.18,1.53,1.62,3.27,3.83.45,5.64-2.12,1.36-4.18.46-5.88-1.56-3.21-3.8-6.77-7.3-9.92-11.14-9.04-11-16.34-23.03-22.6-35.87-4.43-9.09-9.13-18.11-15-26.53-5.97-8.58-10.69-18.03-15.93-27.11-.74-1.27-1.15-2.79-2.08-3.88-10.04-11.73-20.39-23.13-32.71-32.6-12.19-9.37-9.46-8.82-15.2-13.22-10.74-8.25-20.61-13.67-27.55-17.05,15.01,12.41,25.87,21.2,34.35,27.97,6.19,4.94,15.38,13.78,21.35,21.85,2.92,3.96,4.74,8.74,7.03,13.16,1.02,1.98,1.57,4.38,3.04,5.92,6.74,7.09,9.54,16.26,13.4,24.84,2.38,5.28,5.02,10.15,9.14,14.41,5.02,5.19,9.76,10.78,13.78,16.77,3.15,4.69,5.4,10.1,7.39,15.43,3.85,10.32,9.04,19.91,14.52,29.4,1.22,2.11,1.28,4.89,1.88,7.38-7.27,1.61-7.53,1.74-9.94-2.98-2.37-4.66-4.02-9.68-6.2-14.43-4.16-9.06-8.42-18.06-12.76-27.03-.92-1.9-1.92-4.12-5.27-3.9.02,3.31-.26,6.49.11,9.6,1.4,11.63,2.91,23.24,4.59,34.83.69,4.72,2.17,9.21,5.66,12.81,2.61,2.69,2.92,5.74.47,8.73-2.41,2.95-5.17,3.21-9.37,1.02-.77-.4-1.45-.98-2.95-2.01-.03,3.59.14,6.29-.14,8.94-.29,2.68-.45,5.84-3.85,6.58-3.16.68-5.48-.49-7.55-3.38-2.24-3.13-2.67-6.27-2.54-9.83.13-3.73.4-7.51-.04-11.19-1.74-14.61-2.69-29.44-5.93-43.73-3.22-14.18-5.32-28.98-13.59-41.61-3.27-15.62-17.16-15.64-29.51-20.87.96,2.49,1.06,3.6,1.66,4.19,5.08,4.92,6.65,11.48,8.97,17.82,2.65,7.23,5.6,14.46,9.43,21.11,5.05,8.75,7.2,18.53,11.24,27.62,2.35,5.29,1.5,10.25-4.23,13.7,1.14,3.06,2.13,5.85,3.21,8.59.45,1.16,1.21,2.2,1.64,3.36,2.7,7.27,1.37,9.55-6.87,11.36-.23,1.79-.34,3.74-.75,5.63-.68,3.16-.09,5.56,2.34,8.08,3.54,3.68,2.76,12.09-.84,15.7-3.87,3.88-7.9,2.94-9.34-2.35-2.07-7.6-5.03-14.99-3.57-23.29.51-2.92-1.03-6.3-1.99-9.36-5.93-18.76-13.13-36.99-22.05-54.56-4.39-8.65-12.07-11.24-21.44-13.3-.49,2.27-1.22,4.31-1.32,6.38-.17,3.73-.01,7.47.1,11.2.15,5.06,1.67,9.43,4.48,13.93,7.93,12.67,14.72,25.9,18.44,40.66,2.73,10.83,7.14,21.23,10.44,31.93,2.93,9.51,5.37,19.18,8.15,29.21-1.55,1.22-2.92,2.74-4.62,3.56-3.96,1.9-6.59.78-7.86-3.65-2.33-8.16-4.21-16.45-6.48-24.62-3.53-12.7-7.12-25.38-10.9-38-2-6.68-4.43-13.23-6.72-19.81-.31-.88-.96-1.65-1.94-3.28-2.5,5.06-2.27,9.35-.96,13.89.57,1.98.98,4.47.26,6.24-1.16,2.85-4.1,3.56-7.01,2.84-2.72-.68-4.05-2.7-4.15-5.53-.24-6.99-1.32-14.06-.6-20.94,1.39-13.45-4.65-23.15-13.12-32.68-11.1-12.48-21.27-25.78-31.76-38.8-5.57-6.92-10.96-13.98-17.13-21.87-.2,2.03-.24,3.93-.15,5.74.33,6.56,2.14,11.47,3.01,13.71,4.71,12.12,11.7,24.86,17.83,37.22,3.44,6.94,2.06,5.44,5.49,11.46,6.56,11.46,13.27,22.84,19.99,34.2,1.14,1.92,2.69,3.58,3.98,5.41,2.72,3.82,5.51,7.6,8.06,11.53,2.56,3.94,4.75,8.12,7.31,12.06,5.43,8.35,10.24,16.99,12.48,26.8.55,2.38.72,4.85,1.09,7.43-1.59.95-2.76,2.02-4.12,2.38-4.29,1.12-6.13-.65-7.06-5.06-3.09-14.65-7.11-28.77-17.74-40.32-7.4-8.05-13.21-17.42-17.82-27.44-1.44-3.12-3.45-5.98-5.21-8.95-.46.22-.93.44-1.39.67,3.33,7.3,6.85,14.52,9.93,21.93,5.26,12.65,12.16,24.82,14.08,38.58,1.79,12.83,2.58,25.81,3.74,38.72.31,3.51-1.29,5.68-4.92,6.27-4.03.66-6.15-.26-7.21-4.33-1.82-6.95-2.31-13.88,1.47-20.57.87-1.54.81-3.8.69-5.69-.77-12.4-4.78-23.95-9.78-35.17-9.03-20.28-18.05-40.55-25.45-61.52-3.39-9.61-7.76-18.89-12-29.08-.89,1.84-2.07,3.1-2.01,4.3.79,14.43,1.41,28.89,2.89,43.26.47,4.51,3.31,8.8,5.2,13.13,5.64,12.96,7.98,26.62,9.85,40.55,1.21,9.04-.09,17.91.45,26.83.27,4.46.81,8.91,1.42,13.34.58,4.22-.62,6.48-4.25,7.28-3.96.88-6.32-.89-7.17-5.29-.51-2.67-1.15-5.32-.95-7.82.8-3.71,2.18-7.41,2.31-11.15.5-14.23-.39-28.42-3.12-42.41-.78-3.98-2.66-7.75-4.03-11.61-.51.08-1.02.17-1.52.25-.19,1.27-.53,2.53-.55,3.8-.2,15.88,2.97,31.56,2.16,47.56-.5,9.83,1.3,19.8,2.49,29.66.61,5.05,1.87,9.81,4.76,14.53,2.11,3.45,1.11,9.2.41,13.75-.23,1.52-3.81,3.51-5.85,3.5-1.98,0-4.07-2.16-5.88-3.65-.6-.49-.69-1.88-.62-2.84.88-13.39-3.65-26.06-5.05-39.11-1.24-11.59-.88-23.36-1.19-35.06-.05-1.99.39-4.04.04-5.95-2.24-12.09-.87-24.22-.73-36.35.08-7.4.31-14.58-3.88-21.65-3.48-5.87-4.94-13.03-6.73-19.77-2.48-9.35-4.7-18.76-9.41-28.67-.88,11.8-1.5,22.35-2.5,32.87-.8,8.44-1.86,16.87-3.17,25.24-.6,3.82-.29,6.99,1.35,10.71,6.71,15.24,15.67,29.54,19.03,46.24,1.44,7.15,2.59,14.15,2.19,21.47-.25,4.67.52,9.4.7,14.1.07,1.96-.11,3.95-.32,5.91-.52,4.96-1.26,9.9-1.64,14.87-.53,6.84-3.83,9.21-11.83,7.27.53-4.96.68-10.17,1.71-15.19,4.81-23.51,1.37-46.17-6.69-68.38-.96-2.66-2.51-5.11-3.79-7.65-.48.15-.96.31-1.44.46.19,2.38.37,4.76.59,7.14.21,2.23.88,4.51.61,6.67-.91,7.26-.36,14.3,1.28,21.46,1.74,7.61-.11,9.33-9.56,9.84-.36-2.45-1.21-5.03-1.04-7.54,1.14-16.78-1.01-33.3-2.71-49.95-.91-8.94-3.15-16.87-6.83-24.79-2.92-6.29-5.36-12.81-8.25-19.8-3.65,2.47-3.2,5.63-3.64,8.33-1.41,8.62-2.66,17.27-4.02,25.9-.27,1.72-.49,3.54-1.22,5.08-2.24,4.72-1.16,9.12.43,13.77,3.67,10.7,7.79,23.59,11.86,36.18,2.15,6.65.49,2.76,7,27.1,3.07,11.48,4.13,15.62,4.71,19.16.32,1.96.45,3.42.5,3.86,1.65,14.64,11.77,48.13,17.92,73.42,5.09,20.93,7.04,34.84,7.7,38.88,1.53,9.34,2.32,18.83,2.89,28.29,1.01,16.69,1.95,33.4,2.29,50.11.35,17.45.41,34.94-.25,52.37-1.26,33.57-1.13,50.66-4.01,64.18-2.69,12.6-3.32,15.44-5.36,25.95-6.42,33.07-2.67,51.54-.24,113.62,1.15,29.39,1.16,44.08,1.21,55.22.13,29.85-5.54,58.51-13.34,86.72-3.58,12.95-5.19,19.9-8.91,29.74-9.69,25.62-26.26,54.92-34,74.48-.5,1.27-.97,2.49-.97,2.49-4.92,12.81-7.55,22.73-8.17,25-2.23,8.16-4.88,12.39-16,42.71-8.58,23.4-17.06,46.85-25.5,70.3-1.94,5.39-3.31,11-5.42,16.32-9.94,25.09-21.43,49.45-35.05,72.78-1.25,2.15-2.51,4.44-4.3,6.09-1.25,1.15-3.71,2.15-5.1,1.67-1.39-.48-2.64-2.77-2.98-4.47-.37-1.85.25-3.95.65-5.9,2.67-12.67,5.65-25.29,7.99-38.02,1.17-6.34,1.14-12.89,1.77-19.33,2.16-22.09,4.49-44.17,6.54-66.27,1.06-11.43,1.96-22.89,2.4-34.35.64-16.45,1.45-32.93,1.02-49.36-.77-29.17-2.39-58.32-3.74-87.48-1.45-31.37-1.74-28.68-2.32-41.89-2.43-55.03.28-50.75-2.44-67.49,0,0-5.04-30.9-19.88-68.81-4.29-10.96-3.97-9.17-17.24-40.64-5.13-12.17-9.95-24.48-15.16-36.62-5.71-13.29-12.12-26.29-17.49-39.72-6.95-17.38-14.42-34.7-19.38-52.68-5.21-18.92-11.14-37.74-12.96-57.61-2.74-29.85-7.7-52.62-8.6-62.22-.6-6.37-3.99-43.48-2.92-80.58.34-11.95,1.13-23.4,1.63-30.53.78-11.37,1.19-17.14,2.04-21.48.9-4.61,3.69-18.88,7.53-27.82.46-1.07,1.26-4.42,2.48-8.8.51-1.84.49-3.96.21-5.88-1.85-12.56-3.82-25.1-5.83-37.64-.09-.58-.83-1.06-2.28-2.8-.83,8.96-1.43,16.7-2.28,24.41-1.59,14.38-3.94,28.52-9.37,42.15-2.93,7.34-4.09,15.42-5.72,23.24-1.9,9.14-6.24,10.87-15.15,5.15,1.83-4.4,3.64-8.95,5.61-13.43,1.57-3.58,3.85-6.92,4.92-10.63,5.95-20.66,10.58-41.55,12.47-63.1,1.04-11.87,3.87-23.65,6.6-35.3,2.14-9.14,1.13-17.59-1.71-26.42-4.01-12.44-10.51-23.61-16.13-35.25-11.89-24.63-20.31-50.43-23.82-77.68-.41-3.22-.81-6.44-1.22-9.74-3.74,9.52-5.01,24.73-3.97,34.37,1.37,12.59,1.46,25.32,3.05,37.88,1.25,9.86,3.78,19.57,6.06,29.27,1.6,6.81,4.15,13.34,8.77,18.76,7.64,8.98,7.62,19.77,7.05,30.5-.82,15.64-2.15,31.26-3.29,46.88-.26,3.5-.78,6.52-4.32,8.89-4.55,3.06-4.81,8.64-4.55,13.53.46,8.62-4.01,14.83-13.06,16.59-3.21-5.08-.54-10.07,1.7-13.99,4.5-7.88,5.07-16.61,7.2-25,2.08-8.23,4.35-16.5,5.37-24.89,1.4-11.6,2.13-23.33,2.24-35.02.04-3.94-2.5-7.97-4.18-11.83-1.49-3.43-3.32-6.72-5.16-9.98-7.71-13.67-8.28-29.1-11-44.01-.39-2.14-.67-4.29-2.23-6.34.31,4.85.73,12.14,1.03,21.01.9,26.14-.57,24.84.91,34.06,1.36,8.47,2.92,17.55,5.09,31.03.31,1.94.63,4.01.31,5.91-2.72,15.95-4.14,32.14-9.91,47.51-1.99,5.29-2.26,11.2-3.57,16.77-.49,2.06-1.29,4.36-2.71,5.8-1.2,1.22-4.16,2.37-5.14,1.73-1.47-.96-2.68-3.56-2.62-5.41.17-4.94,1.08-9.86,1.7-14.79.06-.49-.07-1.34.15-1.44,6.3-2.81,5.25-9.46,7.2-14.39,2.09-5.29,2.81-11.11,4.14-16.7,2.6-10.91,2.29-21.97-.14-32.69-3.67-16.2-5.02-32.49-5.18-49.03-.23-24.68-1.21-49.36-1.07-74.03.06-10.67,1.81-21.38,3.38-31.98,1.27-8.61,2.77-8.58-8.1-14.31-2.81,3.42-2.96,7.54-3.13,11.72-.54,13.44-1.1,26.88-1.78,40.32-.22,4.27-.24,5.49-.37,8.68-.88,21.69.64,39.54,1.95,70.9,1.99,47.43-5.26,39.94-2.4,62.36,0,0,2.89,22.64-5.88,30.43-2.73,2.42-4.79,3.89-4.79,3.89-4.35,1.87-5.84,5.33-6.33,10.03-.77,7.42-2.63,14.43-7.16,20.96-3.4,4.91-4.63,11.39-6.52,17.27-1.62,5.05-3.09,6.92-5.77,6.19-3.28-.9-5.76-5.21-4.09-9.25,2.73-6.65,5.8-13.31,9.79-19.25,5.11-7.62,7.59-15.77,7.23-24.69-.25-6.2-.94-12.52-2.55-18.48-2.77-10.22-4.12-20.5-3.99-31.03.01-.97-.29-1.94-.61-3.98-1.36,1.67-2.32,2.6-2.99,3.7-4.55,7.42-9.15,14.81-13.5,22.34-1.34,2.32-2.76,5.04-2.77,7.59-.03,6.93.69,13.87,1.07,20.81.11,1.95.45,4.01,0,5.86-1.42,5.79-3.84,11.41-4.63,17.26-.95,7.07-5.09,9.58-11.18,10.76-3.62-3.79-.82-7.37.13-10.64,2.79-9.64,2.5-19.62,3.84-29.41.05-.36-.51-.79-1.13-1.68-1.57,1.09-3.25,2.03-4.66,3.27-7.64,6.75-15.82,12.97-20.69,22.34-2.79,5.36-5.51,10.65-4.84,16.99.13,1.2.21,2.85-.46,3.59-1.38,1.52-3.21,3.35-5.01,3.53-1.3.13-3.19-1.95-4.18-3.47-.72-1.1-.64-2.91-.49-4.36,1.3-12.55,5.85-23.79,14.7-32.86,5.22-5.34,11.11-10.04,16.83-14.88,5.34-4.52,9.06-9.43,9.07-17.11.03-21.46,6.19-41.91,11.46-62.45,2.14-8.34,4.26-16.61,5.94-25.08,1.81-9.11,4.19-18.31,6.47-27.43,5.26-21.07,10.37-42.18,15.53-63.28.53-2.17.95-4.37.51-7.07-1.32,2.13-3.08,4.1-3.9,6.4-3.24,9.13-6.17,18.37-9.24,27.56-.55,1.64-.91,3.45-1.88,4.82-3.9,5.5-4.76,11.85-6.11,18.25-3.58,17.07-7.62,34.05-11.87,50.97-1.07,4.28-4.04,8.06-5.35,12.32-2.06,6.65-3.63,13.47-5.08,20.29-2.49,11.73-4.24,23.65-7.24,35.24-2.43,9.37-6.23,18.38-9.51,27.52-.77,2.16-1.9,3.83-4.82,3.85-2.06.01-4.12,1.19-7.25,2.18.44-2.89.43-5.08,1.13-7.03,1.92-5.39,3.91-10.79,6.33-15.97,1.21-2.59,4.18-4.46,5.06-7.09,2.35-7.04,4.13-14.28,5.87-21.5.74-3.08.82-6.31,1.32-10.48-5.49,3.71-7.06,9.46-10.55,13.63-3.68,4.41-7.17,8.98-10.63,13.56-3.46,4.57-6.71,9.31-10.21,13.86-3.64,4.74-7.35,9.43-11.23,13.98-3.72,4.37-7.66,8.56-11.55,12.78-3.88,4.21-7.8,8.39-11.76,12.53-3.93,4.11-7.41,8.78-12.94,10.89-4.65-3.73-5.3-5.1-3.58-9.24,1.25-2.98,2.81-5.88,4.58-8.58.71-1.09,2.77-2.5,3.5-2.17,5.37,2.39,8.11-1.65,10.69-4.58,18.3-20.83,36.13-42.06,51.73-65.02,6.98-10.27,15.27-19.98,18.19-32.49,2.53-10.84,2.46-13.42,6.05-30.05,5-23.17,12.2-41.28,11.75-41.43-.46-.16-6.53,19.77-18.21,35.13-.48.64-.78.99-2.4,3.12-6.94,9.14-13.7,18.42-20.8,27.43-4.85,6.15-8.67,12.52-10.57,20.33-3.82,15.66-12.01,29.51-19.64,43.54-3.57,6.57-7.38,13.02-11.29,19.4-1.68,2.74-3.61,5.44-5.93,7.62-2.62,2.46-5.48,1.98-7.85-.69-2.17-2.44-2.33-5.01.13-7.27,2.61-2.4,3.94-5.92,6.22-8.64,4.58-5.48,9.69-11.57,13.83-19.54.22-.43,1.27-2.75,3.39-7.39,2.47-5.41,4.91-10.83,7.37-16.24-.4-.35-.79-.7-1.19-1.05-1.7,1.55-3.53,2.98-5.08,4.67-9.23,10.13-18.54,20.21-27.49,30.6-2.06,2.4-3.92,2.52-7.28,1.67-2.99,6.71-6.31,13.39-8.99,20.3-6.13,15.81-11.95,31.74-17.91,47.61-4.28,11.41-8.64,22.79-12.86,34.22-5.52,14.95-11.26,29.83-16.26,44.95-2.32,7.03-3.25,14.55-4.56,21.88-.88,4.9-.88,9.98-2.05,14.79-4.1,16.91-4.63,34.08-4.54,51.34.02,4.49-.74,8.98-.61,13.46.47,16.19.61,32.42,1.99,48.54.95,11.14,3.67,22.14,5.7,33.18,2.07,11.28,3.54,22.73,6.56,33.75,4.02,14.66,9.04,29.07,14.11,43.42,3.74,10.59,8.14,20.95,12.46,31.31,2.4,5.74,5.13,11.36,7.91,16.93,8.8,17.64,18.09,35.04,26.43,52.89,7.28,15.59,13.76,31.58,20.13,47.57,2.57,6.46,3.99,13.38,5.83,20.13,6.56,24.08,13.24,48.12,16.98,72.88,3.08,20.36,5.84,30.33,6.62,38.32,4.39,45.17-8.5,60.33-13.92,133.35-.88,11.87-1.32,17.81-1.35,26.07-.11,29.45,2.05,44.34,9.89,90.83,1.28,7.59.88,15.47,2.35,23.01,5.59,28.66,11.75,57.21,17.46,85.84,3.27,16.39,6.49,32.82,8.97,49.34,3.2,21.31,4.84,42.73-1.84,63.8-.81,2.56-1.56,5.5-3.32,7.32-10.39,10.8-14.69,24.16-16.65,38.48-2.53,18.54-4.54,37.16-7.06,55.71-3.36,24.74-5.96,49.61-13.83,73.52-3.34,10.14-5.98,20.51-8.97,30.76-.69,2.38-1.12,5.16-4.29,5.43-3.43.29-6.5-.61-8.19-4-3.9-7.81-8.11-15.5-11.54-23.51-4.4-10.29-8.12-20.86-12.18-31.29-6.6-17.01-13.01-29.02-19.79-41.74-10.62-19.91-16.66-31.24-26.92-44.42-21.73-27.93-33.33-26.82-45.22-50.21-.58-1.14-4.35-13.13-11-37.29-5.96-21.65-11.94-43.3-17.47-65.06-2.33-9.16-3.31-18.66-5.33-27.91-1.17-5.34-2.96-10.57-4.9-15.7-2.48-6.56-5.43-12.41-12.95-15.35-9.07-3.55-12.8-11.89-15.3-20.88-7.64-27.44-9.24-55.49-9.06-83.76.14-23.49,2.14-46.81,5.09-70.11,1.78-14.1,2.14-28.37,3.32-42.54.7-8.43,2.41-16.82,2.47-25.24.09-11.09,2.85-21.69,4.25-32.53,1.24-9.65,2.74-19.3,3.14-28.99.35-8.32-1.6-14.39-2.26-17.54-4.69-22.49-8.48-54.23-8.85-75.01-.05-2.81-.08-2.96,5.2-50.61,2.47-22.32,4.2-44.78,7.92-66.89,3.18-18.9,8.54-37.46,13.28-56.08,1.84-7.24,4.39-14.32,7.04-21.32,4.75-12.54,10.31-24.79,14.63-37.47,5.53-16.24,13.1-31.94,14.59-49.37.83-9.67,1.33-19.37,2.08-29.04.86-10.94,1.89-21.86,2.75-32.79.51-6.45.48-12.96,1.3-19.37,1.99-15.59,4.17-31.16,6.6-46.68,2.35-14.97,5.11-29.87,7.79-45.38-2.93,3.55-5.75,6.87-8.46,10.27-7.62,9.57-15.49,18.96-22.7,28.83-12.7,17.38-29.01,31.01-45.89,43.82-12.19,9.25-23.21,19.68-34.65,29.72-18.45,16.2-30.52,36.52-40.15,58.76-8.31,19.18-15.77,31.94-24.06,51.53-12.81,30.29-21.54,50.93-28.84,80.11-6.53,26.11-9.45,46.62-10.3,60.39-1.64,26.63-2.4,53.32-3.11,79.99-.33,12.43.31,24.89.61,37.33.31,13.22.58,26.44,1.18,39.65.48,10.72,1.48,21.41,2.13,32.12.42,6.87,1.25,39.64-11.84,72.4-2.68,6.71-13.6,22.89-35.43,55.24-14.9,22.08-21.81,29.44-31.57,48.04-5.78,11.02-12.25,21.69-18.11,32.67-5.4,10.12-11.13,20.17-15.36,30.78-3.8,9.54-8.1,18.73-12.86,27.78-7.42,14.11-14.11,28.64-22.14,42.39-10.22,17.49-23.05,33.07-37.02,47.82-11.32,11.95-21.76,24.75-32.29,37.42-14.85,17.88-29.98,35.49-47.52,50.83-14.82,12.96-26.09,28.79-36.76,45.12-5.77,8.83-11.63,17.59-17.39,26.43-2.88,4.42-4.3,6.64-5.96,9.26-7.2,11.35-13.87,22.52-23.58,38.12-8.17,13.12-11.49,18.13-13.97,17.42-.76-.22-1.57-1.02-2.94-8.85-1.35-7.73-.24-15.3-1.85-26.74-.44-3.1.36-6.46,1.03-9.61,3.12-14.64,6.33-29.26,9.63-43.86,1.43-6.33,2.71-12.74,4.83-18.85,4.57-13.17,5.31-26.82,6.26-40.53.38-5.38,2.19-10.67,3.48-15.98.77-3.17,1.75-5.44,2.09-6.38,15.06-41.88,18.23-52.6,26.74-72.2,5.07-11.67.02-6.16,20.05-41.59,8.75-15.47,16.37-31.59,18.91-49.28,1.81-12.55.29-25.34-.98-38.01-1.34-13.38-2.56-26.8-3.12-40.23-.79-19.22-.24-38.39,2.69-57.53,1.88-12.29,1.65-24.88,3.11-37.25,1.4-11.87,3.9-23.6,5.68-35.43,1.51-10.11,2.62-20.27,4.02-30.39.68-4.94,1.65-9.84,2.45-14.76.42-2.6.74-5.22,1.11-7.83-.51-.27-1.02-.54-1.53-.81-2.58,2.73-5.44,5.25-7.7,8.23-8.65,11.42-18.74,21.45-29.85,30.37-7.96,6.39-16.35,12.34-25.02,17.73-13.08,8.14-22.54,19.48-30.78,32.14-6.25,9.61-12.35,19.33-19.11,28.57-6.83,9.34-15.63,16.19-26.22,21.57-18.64,9.48-37.38,18.75-54.64,31.04-20.18,14.38-39.17,30.13-58.54,45.46-16.2,12.82-29.25,28.51-41.87,44.64-8,10.22-16.05,20.41-24.04,30.63-9.53,12.18-18.92,24.47-28.58,36.55-3.11,3.88-6.69,7.44-10.41,10.76-4.63,4.12-8.1,3.34-10.48-2.27-1.95-4.61-3.11-9.32-2.02-14.57,4.16-19.99,10.74-38.91,22.41-55.94,3.34-4.87,5.5-10.6,7.83-16.1,9.22-21.83,18.52-43.63,27.33-65.63,4.26-10.63,7.57-21.65,11.15-32.54,2.88-8.75,5.62-17.56,8.28-26.38,3.46-11.49,5.27-23.27,7.16-35.13,4.09-25.69,10.15-51.02,22.77-74.13,4.41-8.07,10.25-15.35,14.81-23.35,6.29-11.04,12.52-22.18,17.78-33.72,4.22-9.26,6.84-19.25,10.38-28.83,5.8-15.67,11.98-31.2,17.6-46.93,4.27-11.96,7.54-24.28,11.95-36.18,5.44-14.66,7.8-29.9,9.83-45.23.88-6.66,1.44-13.39,1.76-20.11.84-17.58,3.99-34.62,11.15-50.81,4.84-10.93,9.01-22.22,14.61-32.74,5.12-9.64,11.09-19,17.89-27.53,10.25-12.86,21.54-24.9,32.42-37.26,5.27-5.99,9.55-12.24,12.61-19.96,5.99-15.12,15.05-28.51,27.15-39.88,13.07-12.27,25.15-25.59,38.05-38.05,5.52-5.33,11.97-9.71,18.08-14.41,3.76-2.89,7.86-5.36,11.51-8.37,10.19-8.39,22.43-13.1,34.14-18.54,16.41-7.62,33.33-14.14,50.16-20.82,19.11-7.59,28.81-11.02,34.35-12.58,20.09-5.65,36.94-7.32,63.22-9.92,17.19-1.7,19.72-.17,31.89-3.15,12.12-2.97,24.12-6.03,36.69-7.17,11.11-1.01,21.99-4.29,33.02-6.36,9.06-1.7,18.17-3.18,27.29-4.57,10.08-1.54,20.27-2.46,30.27-4.39,15.15-2.93,30.5-5.46,45.18-10.04,25.94-8.1,50.91-18.78,74.07-33.3,7.35-4.61,15.25-8.38,22.44-13.22,7.42-5,14.33-10.79,21.35-16.37,2.64-2.1,3.91-4.4,4.32-4.91,1.05-1.31,16.97-21.39,11.55-28.79-2.36-3.23-7.46-2.25-7.92-5.04-.49-2.95,1.88-6.49,4.27-8.43,4.41-3.6,9.75-3.39,12.14-3.58,2.89-.24,8.01-1.8,29.55-35.62,9.07-14.24,15.42-29.59,21.6-45.11.41-1.04.65-2.15.37-3.59-5.29,6.18-11.02,11.66-15.52,18.63-5.19,8.04-12.11,15.22-19.32,21.62-7.69,6.83-15.41,13.29-20.54,22.46-1.77,3.17-4.81,5.72-7.58,8.2-1.1.98-3.62,1.87-4.48,1.29-1.4-.95-2.25-3.05-2.77-4.82-.3-1.03.12-2.69.84-3.53,4.19-4.89,8.49-9.7,12.93-14.37,1.52-1.6,3.84-2.46,5.32-4.09,12.64-13.79,26.85-26.16,37.73-41.57,2.58-3.66,5.81-6.86,8.64-10.35,8.33-10.28,16.97-20.34,24.77-31.01,3.62-4.95,5.37-11.22,8.31-16.71,8.72-16.26,17.67-32.41,26.42-48.66,1.85-3.43,3.24-7.1,5.22-11.5-2.02.13-3.16-.16-3.72.29-10.54,8.39-19.97,17.68-28.72,28.15-16.52,19.76-28.78,42.51-45.61,61.96-9.47,10.95-17.26,23.11-25.08,35.31-10.39,16.22-22.67,31.12-37.81,43.22-11.66,9.31-23.91,17.89-36.06,26.56-2.11,1.5-5.03,1.86-8.44,3.04-2.79-3.63-3.09-6.75-3.1-8.17-.1-10.07,13.22-18.3,18.47-16,1.22.54,3.03,2.1,5.38,1.66,1.28-.24,2.14-.95,2.45-1.22,10.92-9.46,22.52-18.18,32.96-28.13,6.8-6.48,12.09-14.56,17.96-22,1.17-1.48,1.9-3.3,1.92-5.63-1.86,2.16-3.82,4.25-5.56,6.51-3.09,4.01-6.82,6.86-11.48,9.11-3.37,1.63-5.88,5.15-8.57,8.01-2.32,2.46-4.35,5.18-6.89,8.26-2.78-2.42-5.09-3.95-6.69-6.02-.84-1.09-1.19-3.64-.49-4.66,2.18-3.18,3.66-6.87,7.84-8.66,5.21-2.23,10.17-5.22,14.83-8.46,3.43-2.38,6.62-5.37,9.23-8.64,8.71-10.9,16.65-22.23,23.57-34.52,8.9-15.82,20.01-30.4,30.23-45.46.95-1.4,2.4-2.47,3.6-3.74,6.01-7.94,12.81-15.35,17.25-26.24-4.82,2.32-8.13,3.73-9.83,7.36-1.88,4-3.92,7.94-5.59,12.02-.9,2.2-1.19,4.66-1.76,7ZM845.91,989.73c15.79-6.31,27.55-13.93,35.43-19.84,8.84-6.64,19.45-13.24,25.87-26.77,1.68-3.55,4.76-6.46,5.67-11.88-3.12,2.8-5.18,4.78-7.38,6.59-2.82,2.32-6.05,4.23-8.59,6.82-7.45,7.62-16.45,16.9-20.96,22.11-5.74,6.65-14.97,15.21-30.05,22.97ZM850.95,1068.93c.69.39,17.18-28.34,40.67-63.62,4.24-6.37,7.86-11.68,10.5-15.51-5.55,1.75-10.06,4.34-14.53,7-6.45,3.85-11.23,8.99-12.85,16.62-.68,3.21-1.77,5.41-1.85,5.67-2.42,7.73-22.75,49.37-21.94,49.84ZM1162.71,475.05c1.04-.74,2.05-1.44,2.05-1.44,1.55-1.08,4.66-2.99,16.68-9.49,28.39-15.34,55.32-32.93,81.06-52.36,4.96-3.75,9.36-8.24,14.04-12.36,1.12-.99,2.31-1.88,3.45-2.84,4.91-4.12,8.7-.13,8.92,4.06.12,2.36-1.56,4.96-2.82,7.23-1.91,3.43-4.26,6.61-6.24,10-1.76,3.01-3.17,6.22-4.89,9.26-8.97,15.82-17.73,31.76-27.07,47.36-7.58,12.67-13.47,26.12-19.75,39.41-.63,1.34-1.58,2.53-2.34,3.81-4.59,7.68-9.32,15.29-13.73,23.08-6.47,11.43-12.77,22.9-18.79,34-19.58,36.13-29.36,54.2-30.37,55.44-4.08,5.05-7.59,19.39-18.53,34.01-.68.91-.59,2.4-1.21,5.29,9.53-6.68,18.05-11.87,25.6-18.22,6.61-5.56,7.04-13.42,8.05-16.75,7.73-25.42,12.94-23.21,26.72-59.98,9.12-24.35,16.67-35.61,26.76-56.79.73-1.53,2.28-2.68,3.45-4.01.58.21,1.17.42,1.75.64.01,2.32.37,4.7-.02,6.95-2.63,15.26-5.31,30.5-8.17,45.72-2.34,12.48-5.51,24.83-7.31,37.39-2.77,19.26-8.49,38-9.54,57.55-.56,10.46-2.01,20.87-2.61,31.34-.33,5.7.28,11.45.46,17.17.25,7.83.51,15.65.76,23.48.5.23,1,.46,1.51.69,3.9-4.61,7.8-9.22,11.16-13.19-.15-53.45,4-87.17,8.13-108.62.95-4.93,3.36-15.72,6.65-34.41,3.16-17.93,5.21-36.17,10-53.66,5.41-19.74,8.07-40.82,21.79-57.52.16-.19.24-.44.36-.66,5.33-9.87,10.59-19.78,16-29.61,10.94-19.91,21.87-39.83,32.98-59.64,5.59-9.97,8.88-16.87,17.32-29.73,4.88-7.44,7.8-10.83,9.33-10.46,5.82,1.42-.82,51.42-4.94,82.42-1.17,8.8-2.08,14.69-2.96,24.55-1.35,15.12-1.5,30.34-2.07,45.52-.16,4.2.04,8.41.11,12.61.24,13.92,1.27,27.92-5.15,41.05-1.41,2.88-2.07,6.15-2.86,9.29-2.88,11.41-6.24,22.61-12.72,32.63-1.06,1.65-1.51,3.68-2.37,5.47-4.88,10.08-9.68,20.21-14.77,30.19-2.26,4.43-5.24,8.49-7.73,12.8-11.7,20.27-23.13,40.71-35.08,60.83-8.41,14.16-18.83,26.88-29.85,39.12-3.96,4.4-8.18,8.74-11.26,13.74-3.33,5.42-7.35,9.86-12.07,14.06-7.62,6.77-14.62,14.23-21.97,21.31-6.26,6.03-12.12,12.63-19.09,17.7-13.45,9.78-28.17,10.55-33.6,11.06-11.46,1.08-11.02-1.46-22.99-.64-12.15.83-21.14,3.06-35.98,9.63-9.53,4.22-18.87,9.01-28.68,12.45-11.17,3.92-21.47,8.88-30.79,16.35-5.46,4.38-8.97,9.92-12.65,15.48-1.48,2.23-1.48,4.9.63,6.9,5.42,5.11,10.69,10.45,16.55,15.02,1.1.86,17.2,11.36,17.2,11.36,19.82,11.47,41.84,19.61,59.75,33.87,7.72,6.15,17.44,10.67,27.85,13.03,1.7.39,4.53-.82,5.73-2.23,5.67-6.66,10.54-13.74,12.43-22.69,2.82-13.38,6.39-26.44,7.29-40.36,1.06-16.6,4.88-33.07,8.09-49.48.98-5,3.53-9.83,6.04-14.36,2.4-4.33,5.82-8.08,8.55-12.25,6.08-9.28,13.73-17.09,22.38-23.9,5.87-4.62,12.85-8.04,18.03-13.29,3.16-3.2,6.26-6.14,22.86-26.64,6.09-7.53,8.89-11.03,8.89-11.03,27.73-34.77,25.82-31.59,29.73-37.02,7.04-9.77,13.8-22.47,27.33-47.86,5.12-9.62,7.87-15.92,12.97-25.25,7.04-12.89,15.56-25.09,17.79-40.12.18-1.21.96-2.32,1.22-3.53,2.17-10.21,6.82-19.83,7.25-30.46.13-3.23.26-6.49.87-9.65.3-1.55,1.68-2.89,3.35-5.58.7,2.73,1.16,3.65,1.13,4.56-.23,6.96-.94,13.92-.76,20.86.28,10.21.82,20.45,1.9,30.61,1.18,11.13,3.36,22.15,4.62,33.27,1.29,11.36,2.04,22.78,2.95,34.18,1.01,12.67,2.02,25.34,2.9,38.01,1.17,16.86-.26,29.64-.89,38.83-1.38,20.03-3.01,43.67-11.05,72.08-1.49,5.27-10.59,28.44-17.94,51.41-4.81,15.04-8,22.3-9.39,25.98,0,0-13.7,36.33-15.92,63.49-.19,2.39-.4,6.83,2.37,9.89,2.29,2.53,6.06,3.63,10.96,3.25,2.93-.23,5.87-1.07,8.66-2.05,10.34-3.64,20.6-7.52,30.93-11.17,6.82-2.41,13.63-4.91,20.6-6.81,9.38-2.56,19.14-3.9,28.31-7.02,15-5.09,30.98-8.04,43.18-19.74,5.49-5.26,7.02-8.02,2.8-14.41-9.61-14.54-19.45-28.93-29.37-43.25-4.12-5.94-8.31-11.93-13.17-17.25-5.85-6.41-11.91-12.89-18.93-17.86-7.78-5.51-10.46-9.76-11.23-10.6-11.49-12.68-13.13-29.38-14.34-43.58-1.15-13.52,1.17-13.77,1.57-41.1.22-14.97-1.01-30.01.01-44.91,1.05-15.3-.64-30.4-1.61-45.49-.99-15.35-3.36-30.65-6.74-45.81-3.76-16.85-.93-22.03-1.66-44-1.61-48.38-6.63-47.13-5.95-78.7.39-18.2.48-33.94,5.84-60.3,2.48-12.21,4.14-24.63,5.43-37.03,1.58-15.18,3.62-30.16,7.79-44.93,5.66-20.02,13.04-39.24,22.36-57.83,10.64-21.22,22.02-41.92,35.54-61.49,14.81-21.43,31.95-40.94,48.79-60.69,14.74-17.29,30-34.13,45.06-51.14,8.93-10.08,17.46-20.57,27.01-30.02,10.98-10.87,22.91-20.79,34.39-31.16,1.2-1.08,2.12-2.47,4.2-4.92-10.77,1.42-18.91,5.71-27.34,9.18-7.13,2.93-14.39,5.53-21.55,8.4-1.99.8-4.39,1.54-5.63,3.09-11.27,13.99-22.38,28.12-33.44,42.28-6.29,8.06-11.73,16.9-18.75,24.24-11.12,11.61-20.46,24.52-30.14,37.23-8.76,11.5-17.41,23.11-26.63,34.24-12.1,14.61-24.69,28.81-37.09,43.17-8.63,9.99-16.72,20.52-26.09,29.75-9.93,9.78-20.39,19.33-31.86,27.16-28.99,19.79-54.05,32.17-82.22,44.34-11.44,4.94-37.86,15.96-72.58,26.32-25.13,7.49-50.58,12.38-66.19,16.11-4.1.98-8.34,1.38-12.48,2.25-14.15,2.96-28.25,6.16-42.43,8.97-15.88,3.14-28.1,4.06-31.69,4.35-14.29,1.17-21.43,1.75-29.35.77-10.14-1.26-11.63-3.4-52.46-19.72-4.83-1.93-9.16-3.71-15.18-5.99-9.54-3.61-19.25-6.82-28.63-10.81-9.38-3.99-18.28-9.11-27.68-13.01-6.41-2.66-13.28-4.33-20.06-5.97-5.57-1.35-11.27-2.32-16.97-2.9-7.36-.74-10.73,2.83-10.17,9.93.63,7.96,3.47,12.78,6.36,19.66,2.62,6.24,1.1,4.93,5.32,18.73,3.95,12.93,4.82,13.14,8.23,23.7.88,2.71,5.48,13.14,6.18,26.82.43,8.46,1.02,16.92,1.81,25.35.95,10.14-1.07,20.37,1.4,30.49,1.11,4.53.55,9.48,1.77,13.96,3.68,13.46,12.07,24.5,19.68,35.86,2.85,4.25,6.29,4.35,10.99,1.54,12.47-7.45,23.9-16.28,34.26-26.45,35.87-35.22,39.31-37.97,43.53-43.32,9-11.44,5.53-9.65,15.94-23.25,11.52-15.06,21-25.77,35.98-36.7,9.57-6.98,19.97-12.02,31.63-14.36,5.12-1.03,10.22-2.13,15.34-3.13,4.64-.9,9.28-1.86,13.96-2.53,9.32-1.35,18.76-2.07,27.99-3.88,12.72-2.5,25.29-5.75,37.92-8.7,20.87-4.87,45.18-12.24,77.81-24.18,25-9.14,37.89-14.14,55.76-23.49,17.41-9.11,35.13-17.6,52.55-26.66,14.78-7.68,27.31-14.35,32.7-9.69,2.81,2.43,2.51,6.95,2.16,11.32-.6,7.48-3.56,18.79-34.27,54.15-1.4,1.61-1.99,2.52-2.96,3.38-14.31,12.78-28.22,26.04-43.1,38.12-13.68,11.11-28.08,21.39-42.71,31.22-41.83,28.11-43.4,26.23-70.2,45.82-31.01,22.66-30.69,27.46-52.34,39.02-17.83,9.52-32.82,17.71-53.89,18.9-15.67.89-31.43.48-47.14.11-8.06-.19-15.86.17-23.7,2.27-12.74,3.43-25.38,7.19-37.65,12-6.31,2.47-12.71,5.4-18.08,9.43-10.74,8.07-21.35,16.18-33.15,22.77-15.85,8.86-17.65,12.98-21.5,17.33-3.35,3.78-8.35,9.52-11.67,18.29-2.94,7.75-.97,11.6-3.65,19.76-3.19,9.69-7.17,19.16-11.36,28.48-5.3,11.82-11.75,23.15-16.57,35.14-4.03,10.04-8.78,19.57-15,28.29-7.76,10.89-16.18,21.31-24.09,32.09-3.21,4.38-5.85,9.17-8.61,13.57,1.28,2.47,2.52,4.14,3.02,6.01.49,1.83.94,4.24.15,5.74-2.6,4.97-6.55,8.95-11.91,10.87-6.01,2.15-10.49-2.07-9.27-8.45.28-1.46.73-2.94,1.42-4.26,3.67-7.06,7.16-14.23,11.27-21.03,3.46-5.73,7.32-11.3,11.63-16.42,13.05-15.52,24.79-31.76,32.78-50.61,5.83-13.76,12.37-27.24,18.99-40.64,7.47-15.12,13.51-30.53,14.2-47.69.35-8.69,1.49-17.35,2.31-26.47-2.73,7.99-5.86,15.51-7.84,23.33-3.87,15.23-7.05,30.64-10.64,45.94-.56,2.39-1.46,4.82-2.72,6.91-5.13,8.48-10.65,16.73-15.7,25.26-8.44,14.27-18.62,27.05-31.12,37.98-6.75,5.9-13.6,11.74-19.86,18.14-7.6,7.77-10.83,17.77-11.55,28.36-.32,4.72-1.72,8.15-5.47,10.77-2.34,1.64-4.79,3.18-7.45.89-2.56-2.2-1.87-4.85-.52-7.5,2.51-4.88,5.01-9.77,7.35-14.73.5-1.06.31-2.45.63-5.56-6.56,6.68-11.67,12.09-17.04,17.24-2.55,2.45-4.55,4.76-5.57,8.45-1.61,5.84-5.75,9.88-12.11,10.87-2.71.42-5.4-.39-6.05-3.12-.43-1.81.25-4.37,1.35-5.96,2.12-3.05,4.69-5.85,7.41-8.41,12.34-11.6,22.44-25.58,37.08-34.73,1.63-1.02,2.78-2.82,4.11-4.29,3.43-3.79,5.59-8.17,7.35-12.73,2.74-7.1,4.4-10.54,6-16.31,5.23-18.88,18.79-42.06,23.4-49.92,2.04-3.48,18.88-32.23,21.14-36.05,1.31-2.21,2.31-4.59,3.45-6.9-.42-.28-.85-.55-1.27-.83-.99.98-2.15,1.84-2.94,2.97-2.67,3.83-5.36,7.65-7.75,11.66-2.39,4.02-4.34,8.3-6.64,12.38-1.92,3.4-4.6,6.46-6.03,10.03-6.01,15.04-12.47,29.89-20.95,43.69-5.58,9.08-12.06,17.61-18.18,26.36-.71,1.01-1.72,1.81-2.52,2.77-13.2,15.83-27.86,30-45.82,40.44-1.5.87-2.99,1.88-4.24,3.07-5.51,5.25-13.2,8.3-16,16.32-.5,1.43-2.39,2.54-3.87,3.42-2.96,1.75-7.59,1.48-9.11-.55-2.05-2.74-1.72-6.02.11-8.43,2.53-3.32,5.68-6.2,8.84-8.97,2.04-1.79,4.62-2.95,6.85-4.54,6.27-4.51,12.45-9.16,18.74-13.65,4.67-3.34,9.98-5.95,14.1-9.85,19.73-18.64,35.75-40.25,49.39-63.63,3.48-5.97,5.61-12.71,8.65-18.96,3.82-7.85,7.73-15.68,11.97-23.31,7.15-12.87,14.64-25.55,21.87-38.38,2.81-4.99,4.84-10.49,8.05-15.19,8.58-12.53,17.59-24.77,26.47-37.09,1.51-2.09,2.61-4.08.73-7.08-4.64,4.02-9.55,7.2-13.08,11.51-11.65,14.23-22.86,28.83-34.09,43.39-3.32,4.3-6.28,8.89-9.19,13.49-2.11,3.34-3.79,6.94-5.8,10.34-1.52,2.57-3.66,4.84-4.84,7.54-8.35,19.16-15.62,38.78-25.88,57.13-4.86,8.7-10.79,16.24-18.43,22.15-10.23,7.93-21.27,14.81-31.84,22.31-2.17,1.54-4.08,3.63-5.66,5.79-3.65,5.01-6.82,10.37-10.6,15.28-1.74,2.26-3.14,4.07-2.94,7.23.26,4.11-2.4,7.11-6.03,8.6-1.78.73-4.45.75-6.15-.08-2.5-1.23-4.11-3.7-3.24-6.87.44-1.6,1.09-3.14,2.11-6.01-3.28,2.14-5.64,3.42-7.7,5.08-3.66,2.95-6.93,3.42-9.13.99-1.98-2.2-1.45-6.69,1.44-9.42,2.53-2.39,5.23-4.66,8.08-6.66,7.35-5.15,14.81-10.14,22.26-15.15,6.69-4.5,11.17-10.06,13.12-17.25-12.58,6.88-24.5,13.05-36.09,19.8-24.37,14.19-45.73,32.11-64.43,53.22-16.21,18.31-32.58,36.48-48.64,54.92-13.93,15.98-27.89,31.97-41.17,48.49-7.39,9.18-16.55,19.74-22.5,35.98-2.38,6.49-1.96,7.54-5.28,16.85-1.74,4.88-6.68,18.12-15.89,33.96-2.54,4.37-6.93,11.57-19.14,27.69-12.3,16.24-15.41,19.67-28.15,34.92-17.45,20.88-34.05,42.37-48.9,65.2-3.11,4.78-7.85,8.59-10.43,13.58-6.86,13.25-14.31,26.23-17.32,41.24-2.51,12.46-6,24.75-9.72,36.92-2.69,8.8-5.56,17.76-9.97,25.75-5.64,10.23-12.87,19.59-19.51,29.25-4.51,6.57-9.54,12.8-13.72,19.57-7.58,12.3-14.46,25.05-22.09,37.32-5.83,9.38-11.06,18.93-14.2,29.57-1.97,6.69-3.9,13.42-6.43,19.9-3.34,8.57-7.32,16.89-10.9,25.37-2.72,6.43-4.87,13.13-7.91,19.4-9.37,19.3-21.09,37.23-32.86,55.12-1.82,2.77-3.25,5.79-4.87,8.7.44.32.88.64,1.32.95,1.11-.83,2.36-1.52,3.29-2.51,5.8-6.15,11.51-12.4,17.29-18.57,2.56-2.73,5.55-5.12,7.76-8.09,7.73-10.41,15.02-21.13,22.81-31.49,9.13-12.14,18.61-24.02,27.93-36.02,10.08-12.98,19.92-26.15,30.3-38.88,10.04-12.33,20.44-24.39,31.03-36.25,11.79-13.19,23.73-26.27,36.08-38.94,10.25-10.51,20.85-20.73,31.89-30.41,18.55-16.27,37.89-31.66,56.27-48.12,11.49-10.29,22.35-21.41,32.53-33.01,9.5-10.83,17.75-22.77,26.49-34.27,6.15-8.08,9.13-12.2,12.45-16.87,7.3-10.26,23.47-38.04,35.54-57.11,15.16-23.96,22.4-31.96,24.88-34.63,3.71-4,2.76-2.58,15.87-15.88,9.4-9.53,14.28-14.72,22.55-21.51,3.82-3.14,6.51-4.82,8.89-6.86,11.51-9.92,22.47-20.55,34.53-29.74,13.27-10.11,27.39-19.14,41.4-28.24,13.53-8.78,12.28-9.65,43.82-34.82,23.99-19.14,30.76-23.89,73.42-57.39,7.26-5.7,12.69-9.98,18.24-14.37,37.43-29.64,33.7-27.02,43.41-34.4,20.75-15.77,22.58-15.82,29.42-22.96,6.32-6.6,9.5-11.81,20.66-23.59,6.09-6.43,9.5-13.79,11.47-22.29,1.11-4.83,3.74-9.17,5.59-13.77,4.73-11.73,24.18-41.95,57.28-68.33,6.49-5.17,12.62-8.74,18.33-12.34,7.38-4.66,12.9-7.8,14.26-8.58,28.74-16.6,99.31-82.13,113.74-92.48ZM873.55,1208.99c-.5-.54-1-1.08-1.5-1.62-5.99,4.35-11.69,9.19-18.04,12.93-11.15,6.58-22.51,12.86-34.13,18.56-12.08,5.93-24.56,11.04-36.88,16.46-2.74,1.2-5.5,2.41-8.36,3.28-17.19,5.25-34.65,9.45-52.39,12.3-23.39,3.76-46.78,7.53-70.24,10.87-82.44,11.72-61.96,10.27-95.8,14.46-17.59,2.18-38.85,4.52-65.31,12.12-11.02,3.17-21.88,7.13-24.25,7.76-14.55,3.88-28.08,10.25-41.55,16.69-11.91,5.7-23.55,11.98-35.13,18.34-6.55,3.6-13.33,7.17-18.95,11.99-13.22,11.34-26.01,23.22-38.6,35.27-19.36,18.52-27.83,28.98-33.75,36.98-15.14,20.44-14.23,26.37-31.64,48.06-4.33,5.4-4.76,4.23-19.32,22.88-7.97,10.21-15.9,20.51-23.1,31.26-3.55,5.31-5.46,11.72-8.08,17.64-5.95,13.47-11.53,27.01-14.53,41.58-1.98,9.6-2.56,19.2-3.28,28.92-1.04,14.17-3.11,28.28-5.07,42.37-.72,5.15-1.98,10.31-3.68,15.23-5.55,16.04-12.02,31.79-16.97,48.01-3.45,11.28-7.7,22.09-12.73,32.7-2.12,4.48-3.42,9.36-5.01,14.09-6.2,18.48-12.83,36.73-23.84,53.08-9.32,13.85-18.22,27.81-24.24,43.7-7.21,19.01-13.28,38.05-15.08,58.42-.7,7.89-2.62,15.75-4.73,23.42-3.7,13.45-7.88,26.78-12.04,40.1-2.23,7.14-4.53,14.28-7.35,21.2-3.1,7.6-7.09,14.84-10.25,22.43-5.55,13.36-10.77,26.87-16.11,40.32-5.07,12.76-9.77,25.73-17.38,37.26-8.64,13.08-11.22,28.11-14.67,42.89-.19.82.03,1.73.09,3.76,1.95-1.86,3.18-2.72,4-3.88,10.99-15.42,22.88-30.27,29.46-48.41,2.38-6.55,5.55-12.81,8.41-19.17,9.97-22.18,24.05-41.95,36.77-62.52,4.06-6.56,8.34-13,12.6-19.43,10.07-15.19,20.75-30.01,30.14-45.61,8.43-14,17.82-27.18,29.31-38.64,15.89-15.86,27.82-34.53,39.52-53.36,8.68-13.96,16.23-28.61,24.55-42.8,3.51-5.99,7.57-11.68,11.67-17.3,3.22-4.42,7.04-8.4,10.34-12.77,11.09-14.74,21.87-29.71,33.18-44.28,5.03-6.48,11.2-12.07,16.58-18.31,8.31-9.65,15.73-20.16,24.72-29.11,10.54-10.49,19.86-21.79,27.21-34.56,8.33-14.47,16.06-29.3,23.58-44.21,8.09-16.04,15.63-32.35,20.23-49.84,7.12-27.04,14.14-54.14,25.9-79.65,4.07-8.82,8.35-17.61,13.48-25.84,6.14-9.85,14.59-25.47,28.44-43.07,14.86-18.88,28.47-31.38,42.98-44.71,10.07-9.25,15.07-13.96,23.28-19.98,11.86-8.7,24.37-16.49,36.51-24.81,4.94-3.38,9.36-7.59,14.5-10.61,17-9.98,33.93-20.13,51.46-29.12,10.11-5.19,21.06-9.16,32.05-12.12,21.43-5.76,43.16-10.44,64.77-15.53,1.93-.46,3.93-.63,5.9-.93,6.88-1.05,13.87-1.66,20.63-3.24,13.12-3.07,26.12-6.66,39.15-10.11,2.16-.57,4.3-1.35,6.32-2.3,20.45-9.68,40.36-20.37,58.67-33.71,6.34-4.62,11.77-10.5,17.62-15.8ZM949.54,2490.19c.48-.22.96-.44,1.43-.66-.57-7.87-.84-15.78-1.75-23.61-2.82-24.29-5.01-48.71-9.07-72.8-4.49-26.63-7.89-53.31-9.35-80.25-.26-4.68.74-9.45.36-14.11-1-12.41-2.62-24.76-3.65-37.16-1.88-22.87-3.21-45.79-5.35-68.64-1.65-17.63-4.01-35.19-6.35-52.75-2.49-18.65-8.15-36.51-14.25-54.24-4.38-12.72-9.02-25.38-12.77-38.28-2.43-8.34-3.44-17.09-5.14-25.65-4.68-23.67-4.68-47.67-4.46-71.61.19-20.26,4.79-40.1,7.82-60.07,3.44-22.69,7.6-45.31,10.01-68.11,2.15-20.3,2.54-40.79,3.33-61.21.68-17.6-3.27-34.76-6.34-51.91-2.77-15.49-6.8-29.61-10.36-42.87-3.44-12.82-6.2-22.03-7.02-24.83-22.37-75.97-24.14-151.02-24.14-151.02-.65-27.62.77-24.4.95-58.32.14-26.42-.19-52.84.05-79.25.07-7.44,1.18-12.21,2.31-21.51,3.63-29.92,6.65-40.3,9.93-48.68,1.53-3.9,1.17-2.41,4.47-10.08,8.36-19.41,11.76-31.56,17.73-49.12,2.98-8.77,6.12-17.63,12.91-35.16,7.37-19.03,15.02-37.95,22.55-56.92-8.99,8.62-18.88,16.17-22.01,29.52-3.78,16.17-5.66,19.67-12.93,44.45-2.35,8.01-1.47,3.84-22.02,59.26-5.04,13.61.15-.3-10.92,33.15-1.08,3.25-3.76,11.11-5,19.85-.87,6.17-1.89,12.32-2.82,18.49-1.94,12.83-4.24,25.61-5.72,38.49-1.62,14.12-2.57,28.32-3.63,42.49-1.09,14.66-1.85,29.35-2.98,44.02-.5,6.45-.82,13.06-2.56,19.22-3.24,11.47-7.18,22.78-11.35,33.95-5.14,13.77-11.01,27.28-16.21,41.03-4.32,11.43-9.05,22.83-11.98,34.64-4.25,17.14-9.45,35.58-14.54,80.27-5.85,51.37-8.78,77.06-7.69,93.54,2.7,41.02,13.67,72.85,8.26,106.33-.48,2.98-2.24,12.94-4.23,27.43-1.66,12.11-3.01,24.25-4.44,36.39-.93,7.92-2.01,15.84-2.56,23.79-.62,8.94-.42,17.93-1.11,26.86-1.57,20.13-4.4,40.21-5.01,60.36-.93,30.59,1.9,60.88,13.02,89.84,1.5,3.91,3.54,7.12,7.95,8.22,4.66,1.16,7.5,4.43,10.16,8.28,5.95,8.63,9.17,18.19,11.12,28.36,3.28,17.12,6.49,34.26,10.22,51.28,2.13,9.75,5.07,19.32,7.9,28.91,4.45,15.07,8.99,30.12,13.7,45.11,3.26,10.37,8,19.53,15.36,27.05,4.29,4.38,8.16,6.86,9.82,7.98,29.86,20.14,54.02,73.63,57.33,81.09,5.6,12.62,7.69,19.2,11.03,26.96,5.62,13.05,11.43,26.02,17.26,38.98.56,1.23,1.8,2.16,2.73,3.23ZM1176.82,1210.33c-8.24,24.2-10.32,40.15-10.82,49.61-.19,3.6-.58,14.55-.86,24.53-.17,5.97-.42,11.94-.37,17.91.07,8.97.46,17.94.55,26.92.16,16.74.91,33.43,3.4,50,2.66,17.74,5.41,35.48,8.32,53.18,1.09,6.62,2.51,13.21,4.18,19.71,2.54,9.88,5.39,19.69,8.17,29.51,1.62,5.73,3.06,11.53,5.06,17.12,3.45,9.61,7.2,19.12,10.97,28.62,3.31,8.34,6.27,16.88,10.34,24.85,7.74,15.14,13.86,30.91,19.59,46.86,1.26,3.52,2.87,6.91,4.4,10.32,5.03,11.15,10.81,22.03,15.01,33.48,9.93,27.04,20.57,44.75,23.46,68.71.08.65.25,3.04.62,7.82.71,9.34,2.56,34.49,4.02,72.17.29,7.57.48,12.83.71,20.66.57,19.54.91,39.09,1.48,58.63.69,23.91,2.69,47.75,1.24,71.77-1.67,27.62-2.86,55.24-6.43,82.72-2.37,18.27-3.5,36.7-5.13,55.07-.15,1.66.15,3.36.27,5.52,1.35-4.12,1.99-7.97,3.79-11.18,6.57-11.77,8.33-25.06,12.13-37.67,6.19-20.51,11.16-41.39,16.86-62.04,5.19-18.76,10.51-37.46,13.96-56.67,2.33-12.98,5.95-25.73,8.93-38.6,5.12-22.13,10.15-44.29,15.31-66.41,2.67-11.43,5.99-22.71,8.21-34.22,3.44-17.89,6.51-35.87,9.1-53.9,1.52-10.59,1.9-21.35,2.64-32.04.41-5.97.52-11.96.76-17.94.21-5.22.75-10.44.55-15.64-.45-11.19-.86-22.42-2.06-33.54-1.58-14.62-3.57-29.22-6.02-43.72-2.96-17.47-6.59-34.82-9.93-52.22-1.13-5.88-1.78-11.9-3.49-17.6-3.37-11.23-7.37-22.26-11.02-33.4-5.35-16.35-11.11-32.58-15.79-49.12-4.94-17.48-8.89-35.24-13.14-52.91-2.98-12.38-6.19-24.72-8.47-37.23-3.18-17.42-5.75-34.95-8.25-52.48-.98-6.9-.9-13.94-1.62-20.89-1.86-17.89-2.98-35.77-.85-53.72.17-1.45.13-3.06-.3-4.44-2.98-9.59-6.09-19.14-9.53-29.84-6.31,11.89-4.93,22.12,1.71,31.75-1.4,1.13-2.11,1.87-2.96,2.35-5.94,3.37-7.85,2.46-10.97-3.44-3.52-6.65-3.29-13.23-1.62-20.23,2.29-9.63,2.06-19.9,7.91-28.58,2.23-3.31,1.71-6.93,1-10.8-3.16-17.16-7.18-34.22-6.74-51.86.03-1.02-.66-2.06-1.35-4.05-1.76,2.43-3.4,3.83-3.94,5.57-3.76,12.11-8.35,24.09-10.63,36.49-2.75,14.91-3.45,30.19-5.09,45.3-.38,3.47-1.6,6.98-1.3,10.36.32,3.55,2,6.97,3.21,10.84-.88.83-1.79,2.39-3.02,2.71-2.75.73-6.13,1.88-8.35.88-1.57-.71-1.7-4.67-2.41-7.2-.12-.44.12-.98.17-1.48,2.04-18.07,4.21-36.13,6.07-54.22,1.97-19.07,6.19-37.35,16.35-53.96,5.42-8.85,8.38-18.5,8.44-29.09.04-7.46,1.29-14.91,1.49-22.38.1-3.72,1.21-7.72-1.09-12.04-1.35,1.62-2.52,2.59-3.13,3.83-3.64,7.37-7.21,14.77-10.68,22.22-3.78,8.12-8.15,16.06-10.97,24.51-3.96,11.82-6.76,24.03-9.98,36.09-.77,2.88-1.48,5.83-1.77,8.79-.76,7.92-1.14,15.87-1.92,23.79-.41,4.21-1.29,8.37-2.03,12.54-1.67,9.29-3.7,18.52-4.98,27.86-.9,6.62-.8,13.38-1.17,20.07-.06.99-.16,2.01-.42,2.96-.85,3.04-5.9,6.39-8.73,5.61-3.88-1.08-3.65-4.31-3.25-7.34.29-2.21.99-4.36,1.47-6.55,1.15-5.34,2.45-10.65,3.35-16.02.82-4.92,1.15-9.92,1.78-14.87,1.96-15.35,4.41-30.65,5.84-46.04,1.58-17.06,5.48-33.42,12.28-49.08,3.77-8.69,7.79-17.28,12.01-25.76,4.87-9.8,9.93-19.53,15.2-29.12,3.6-6.56,7.82-12.78,11.57-19.26,3.17-5.47,4.06-12.12,2.47-17.04-2.29,1.63-4.65,3.02-6.66,4.81-6.32,5.6-13.56,10.33-17.77,18.01-6.45,11.76-13.7,23.01-16.94,36.43-3.92,16.22-9.27,32.09-13.65,48.2-2.03,7.45-2.8,15.25-4.93,22.66-2.26,7.87-4.81,15.81-8.52,23.06-1.83,3.57-3.28,7.1-4.4,10.85-3.92,13.14-7.53,26.38-14.07,38.59-3.28,6.12-.95,16.95,4.88,20.86,3.77,2.53,4.76,5.36,4.1,9.44-.32,1.96-.42,3.97-.45,5.95-.06,4.71-1.45,6.56-5.51,7.14-3.56.51-4.93-.69-6.33-5.65-1.19-4.23-2.34-8.46-3.5-12.7ZM274.68,2409.55c3.27-7.31,6.1-13.59,8.88-19.89.4-.9.53-1.92.8-2.88,1.7-5.97,3.2-12,5.14-17.88,6.06-18.34,14.29-35.5,26.1-51.02,11.64-15.29,22.2-31.37,30.87-48.59,2.58-5.13,5.06-10.32,7.87-15.32,7.81-13.92,15.9-27.69,23.64-41.65,11.38-20.51,22.77-41.01,33.76-61.73,11.06-20.85,18.09-43.24,24.06-65.98,4.76-18.11,9.66-36.18,14.14-54.35,3.04-12.35,5.98-24.77,8-37.32,2.37-14.74,3.85-29.64,5.42-44.49,1.49-14.13,2.48-28.31,3.92-42.44,1.97-19.36,4.04-38.71,6.3-58.03,2.25-19.24,9.26-37.25,14.81-55.63,2.09-6.93,3.65-14.06,6.28-20.78,7.08-18.12,14.26-36.21,22.07-54.02,5.7-13.01,12.29-25.64,18.81-38.27,2.87-5.55,10.17-19.74,19.71-36.97,34.23-61.84,91.77-153.51,122.45-186.52,3.2-3.45,11.35-10.2,26.19-27.73,5.32-6.28,10.73-12.32,16.99-17.64,10.82-9.19,21.47-18.56,32.39-27.63,7.46-6.2,15.27-12,22.89-18.02,14.8-11.68,25.83-26.88,37.8-41.14,9.33-11.11,17.76-23,26.23-34.8,4.6-6.4,8.55-13.28,12.61-20.05,2.34-3.9,4.34-8.02,6.49-12.03-2.05,1.64-3.8,3.43-5.42,5.31-2.51,2.91-4.18,5.24-4.56,5.79-2.73,3.95-31.62,43.56-66.58,78.29-13.84,13.75-27.55,25.5-34.16,31.38-6.69,5.96-14.53,10.77-20.59,17.28-16.89,18.14-38.42,29.13-59.8,40.45-11.9,6.3-24.31,11.74-35.72,18.82-30.33,18.82-60.68,37.7-87.56,61.47-5.05,4.47-10.02,9.02-15.14,13.4-9.91,8.46-19.02,17.64-26.71,28.2-5.57,7.65-11.41,15.1-16.81,22.86-11.13,15.97-22.59,31.74-32.88,48.24-8.43,13.52-15.57,27.87-22.91,42.05-16.44,31.78-24.54,47.74-28,58.7-8.13,25.74-6.35,38.62-15.16,71.34-.82,3.03-3.05,11.16-5.41,22.39-1.43,6.79-2.74,13.57-4.34,24.34-1.8,12.09-3.15,24.26-5,36.34-2.19,14.3-5.15,28.49-6.96,42.83-2.03,16.06-3.31,32.23-4.58,48.37-1.1,13.93-2.32,27.89-2.37,41.85-.04,13.45,1.07,26.94,2.21,40.36.83,9.67,2.63,19.26,3.84,28.9,1.45,11.57.94,23.1-3.8,33.84-4.72,10.69-10.55,20.89-15.55,31.46-7.47,15.78-14.71,31.68-21.88,47.6-2.55,5.66-4.57,11.55-6.93,17.3-3.4,8.3-7.43,16.38-10.22,24.88-4.51,13.73-8.37,27.69-12.21,41.63-1.04,3.78-1.08,7.86-1.44,11.81-.46,5.19-.37,10.47-1.26,15.58-1.37,7.83-3.39,15.54-5.1,23.31-4.42,19.99-8.75,39.99-13.27,59.95-1.2,5.28-1.3,10.32,1.69,16.53ZM945.71,704.4c-.54-.35-1.07-.7-1.61-1.05-1.87,1.66-4.97,4.42-8.78,7.82-40.92,36.48-43.29,39.25-54.18,47.61-12.78,9.81-26.07,18.57-30.52,21.67-4.91,3.42-10.33,6.15-15.06,9.79-12.44,9.57-24.69,19.39-36.92,29.24-9.12,7.34-18.07,14.88-27.11,22.33-12.29,10.12-24.21,20.73-36.97,30.21-11.81,8.76-24.62,16.16-36.8,24.44-10.3,7.01-20.6,14.07-30.4,21.75-10.77,8.45-21.09,17.49-31.38,26.54-10.87,9.56-20.51,18.48-30.31,28.93-2.49,2.66-7.06,7.64-12.32,13.9-17.16,20.41-29.24,39.68-45.42,65.5-1.5,2.4-6.16,9.72-12.77,19.61-1.49,2.22-2.99,4.43-4.54,6.61-10.25,14.47-21.2,28.76-22.7,30.67-36.61,46.51-99.26,98.72-99.26,98.72,0,0-52.97,46.13-78.23,75.85-.32.38-.6.8-.93,1.18-5.5,6.45-10.79,13.09-16.57,19.27-5.11,5.46-10.42,10.6-14.3,17.16-3.41,5.77-7.65,11.07-11.82,16.35-11.74,14.87-23.69,29.57-35.42,44.44-4.01,5.08-7.83,10.34-11.34,15.77-7.73,11.94-15.91,23.46-26.31,33.31-4.23,4-7.92,8.57-12.71,13.81,5.75.1,7.61-3.07,9.86-5.56,3-3.32,5.58-7.11,8.95-9.98,7.19-6.13,14.26-12.66,22.33-17.43,8.87-5.24,14.83-13.07,21.68-20.15,9.18-9.49,17.68-19.69,27.23-28.78,10.99-10.47,23.15-19.72,34.19-30.15,15.46-14.62,33.5-25.83,50.03-39.04,8.14-6.51,17.24-11.8,25.81-17.78,13.06-9.12,19.58-13.69,26.2-18.62,8.83-6.57,42.26-31.45,57.24-51.31,1.05-1.39,5.59-7.39,12.12-15.44,2.42-2.97,5.29-6.38,9.21-10.82,6.8-7.7,27.42-31.06,50.85-46.41,2.44-1.6,10.13-6.53,20.95-13.99,9.07-6.25,15.88-11.19,17.55-12.41,17.21-12.58,26.91-23.59,43.89-38.27,16.88-14.59,36.64-28.81,76.15-57.24,1.74-1.25,5.07-3.04,8.39-6.71,5.97-6.59,11.41-13.66,17.39-20.24,4.46-4.9,9.44-9.33,14.8-14.57-13.91.14-20.44,4.38-23.83,8.24-4.14,4.7-6.85,12.49-13.42,15.27-1.12.47-3.47,1.44-5.8.45-1.41-.6-2.54-1.86-3.38-3.75-1.43-3.22-.05-6.78,3.29-8.83,3.18-1.96,6.37-3.9,9.41-6.06,13.96-9.89,29.01-17.58,45.49-22.24,5.37-1.52,9.16-4.66,12.48-8.95,4.27-5.52,8.51-11.14,13.44-16.03,5.64-5.6,11.96-10.54,18.11-15.6,5.76-4.74,11.7-9.28,17.56-13.91,3.61-2.85,7.23-5.7,10.85-8.55-1.27-.79-2-.81-2.57-.52-9.98,5-19.95,10.03-29.91,15.07-1.06.54-2.19,1.05-3.08,1.82-4.47,3.9-8.65,8.17-13.33,11.79-10.44,8.07-20.97,16.04-31.77,23.62-4.86,3.41-9.76,6.66-14.35,10.49-3.72,3.11-8.41,5.05-12.7,7.47-7.3,4.12-16.05,5-22.69,10.97-2.3,2.07-7,2.18-10.51,1.91-1.72-.13-4.03-2.95-4.57-4.96-.42-1.56,1.14-4.07,2.5-5.53,1.04-1.12,3.15-1.24,4.77-1.84,10.47-3.95,21.31-7.13,31.3-12.05,13.22-6.51,24.77-15.77,36.52-24.72,20.25-15.42,40.71-30.76,63.84-41.77,10.98-5.23,22.44-9.51,33.87-13.73,6.75-2.49,13.87-3.97,20.79-6.03,4.06-1.21,7.97-2.97,12.08-3.91,6.95-1.58,14.01-2.7,22.7-4.33-4.49-.66-7.34-1.46-10.19-1.44-8.34.07-16.28-3.01-24.83-2.16-11.97,1.18-23.62,3.33-35.06,6.97-4.97,1.58-10.08,2.77-15.17,3.94-4.69,1.07-9.58,2.12-13.99,3.49-7.82,2.44-14.84,7.43-22.25,11.26-6.63,3.43-13.46,6.49-19.95,10.17-13.89,7.88-26.84,17.01-38.06,28.56-4.48,4.61-9.5,8.94-14.96,12.29-10.12,6.2-20.84,11.4-31.08,17.41-3.04,1.78-5.65,1.48-8.53.61-3.71-1.12-5.32-5.02-2.56-7.36,3.65-3.08,6.46-7.29,12-8.23,5.59-.94,11.56-2.33,16.26-5.28,7.97-5.01,15.06-11.4,22.53-17.21,8.26-6.42,16.16-13.4,24.89-19.11,11.89-7.77,24.39-14.62,36.7-21.73,3.44-1.99,7.01-3.93,10.77-5.18,19.15-6.36,37.89-13.99,57.61-18.65,7.11-1.68,14.12-2.97,21.42-2.09,5.2.63,10.5,2.21,15.57,1.65,7.83-.86,14.81,1.19,21.92,3.59,2.12.72,4.31,1.2,6.45,1.86,9.03,2.81,17.96,5.96,27.09,8.38,6.44,1.7,13.18,2.26,19.72,3.64,3.62.76,5.61-1.07,7.5-3.54,6.27-8.19,14.2-14.56,22.67-20.27,2.8-1.89,4.9-3.57,5.22-7.46.2-2.37,2.6-4.57,4.04-6.82,5.21-8.15,10.84-16.07,15.51-24.52,3.73-6.73,6.45-14.04,9.34-21.2,4.85-12.01,10.77-23.79,13.91-36.25,5.25-20.85,12.2-41.15,18.06-61.78,4.09-14.38,7-29.1,10.13-43.73,1.51-7.06,1.8-14.39,3.49-21.39,3.04-12.6,6.74-25.04,10.13-37.56.25-.94.29-1.93.49-3.37-11.23,6.29-17.35,13.36-20.86,18.66-5.13,7.73-7.43,13.88-16.31,30.17-1.31,2.4-3.29,4.45-4.46,6.9-5.13,10.77-9.63,21.85-15.21,32.37-1.74,3.28-6.72,13.48-15.71,24.47-6.82,8.34-16.73,18.21-22.02,23.48-.97.97-4.08,4.23-8.28,8.62-1.53,1.6-3.44,3.04-4.42,4.95-5.62,10.99-15.05,18.59-24.05,26.36-4.4,3.8-10.2,6.29-15.75,8.39-7.97,3.02-12.78.04-15.12-8.25-2.01-7.11-.75-13.82,2.32-20.36,3.52-7.48,5.41-15.34,5.81-23.53ZM685.85,1461.97c-.44-.32-.88-.65-1.32-.97-1.54,1.48-4.32,4.18-7.68,7.65-30.98,31.94-43.11,58.45-74.62,108.29-12.94,20.47-10.48,15.03-22.54,34.46-31.18,50.27-51.09,82.35-69.36,128.3-5.98,15.04-18.18,48.35-27.47,90.92-3.72,17.03-5.9,34.43-8.22,51.73-2.09,15.56-3.5,31.21-5.06,46.83-1.71,17.12-3.02,34.28-4.97,51.37-1.33,11.66-2.58,19.15-4.83,29.56-2.06,9.57-3.54,14.06-7.5,31.06-2.11,9.06-3.35,14.91-4.07,18.17-3.78,17.18-9.8,44.52-22,73.66-.7,1.66-8.61,17.66-24.99,49.37-3.64,7.06-7.68,13.92-11.8,20.71-2.57,4.23-5.91,8.01-8.42,12.27-5.68,9.64-9.56,16.79-11.59,20.94-3.58,7.32-9.86,17.66-22.41,38.33-14.57,24.01-21.85,36.01-31.19,49.08-2.24,3.14-5.56,7.24-9.05,13.7-4.95,9.19-10.22,18.31-12.96,28.48-1.84,6.82-3.06,13.81-4.86,22.14,1.84-1.73,2.85-2.38,3.46-3.3,9.24-13.94,18.73-27.73,27.52-41.94,8.7-14.05,18-27.58,29.71-39.29,5.11-5.11,10.98-9.47,15.9-14.75,11.06-11.86,21.91-23.93,32.52-36.19,11.25-12.99,22.04-26.39,33.23-39.44,6.3-7.34,14.14-13.23,19.72-21.33,3.06-4.45,7.88-7.73,10.7-12.29,8.63-13.96,17.09-28.07,24.83-42.54,7.86-14.69,15.48-29.53,21.97-44.95,4.72-11.21,10.91-21.82,16.62-32.59,9.35-17.63,18.77-35.23,28.34-52.73,4.76-8.7,7.93-13.32,10.91-17.84,8.28-12.55,13.16-17.94,19.36-26.23,9.74-13.02,20.7-27.84,27.82-48.4,4.46-12.87,7.72-23.73,8.12-33.13.17-3.96,1.86-7.9,1.76-11.82-.28-10.43-.43-20.96-1.95-31.25-3.11-21.08-2.14-42.28-3-63.42-.27-6.7-.79-13.41-.65-20.1.27-13.44,1.25-26.86,1.34-40.3.22-33.37.44-34.06,1.97-52.96,0,0,4.76-58.75,33.79-127.75,1.62-3.85,3.31-7.74,3.31-7.74,3.06-7.07,6.33-14.05,9.55-21.05,2.91-6.32,5.87-12.62,8.83-18.91,3.72-7.93,7.46-15.85,11.19-23.78ZM641.31,1310.66c-.36-.51-.71-1.01-1.07-1.52-9.24,4.19-18.66,8.03-27.67,12.66-11.53,5.91-22.91,12.17-34.04,18.8-15.43,9.19-31.44,17.56-45.19,29.31-11.75,10.04-23.33,20.3-34.86,30.61-5.75,5.14-11.3,10.52-16.78,15.96,0,0-6.53,6.59-11.83,12.5-11.52,12.83-21.76,29.63-29.72,43.77-15.04,26.73-23.79,42.28-31.53,65.52-6.82,20.47-5.21,23.95-14.87,52.33-5.29,15.52-10.37,26.94-15.77,38.53-3.88,8.34-9.27,15.97-13.51,24.16-7.46,14.39-14.56,28.84-25.59,41.12-11.98,13.34-22.99,27.55-34.48,41.34-10.22,12.26-20.79,24.25-30.7,36.75-11,13.88-21.47,28.18-32.12,42.34-8.09,10.75-16.88,21-22.76,33.29-3.01,6.27-6.21,12.51-9.9,18.39-5.96,9.49-12.44,18.66-18.64,28-11.32,17.04-22.78,34.01-36.5,49.22-10.91,12.09-20.7,24.98-29.8,38.4-13.87,20.44-27.47,41.07-40.88,61.81-7.72,11.94-15.59,23.87-22.03,36.51-6.98,13.72-12.38,28.25-18.42,42.45-.16.37.15.93.39,2.15,1.38-1.51,2.56-2.65,3.56-3.93,8.79-11.19,17.37-22.55,26.37-33.57,6.46-7.91,12.98-15.9,20.36-22.92,8.65-8.23,18.33-15.36,27.43-23.13,19.93-17.03,40-33.86,62.4-47.66,8.48-5.22,16.83-10.67,25.44-15.65,6.01-3.48,12.68-5.88,18.52-9.6,17.22-10.96,29.15-26.87,40.01-43.77,4.71-7.33,9.72-14.53,15.3-21.2,4.12-4.93,9.08-9.29,14.19-13.22,6.5-5.01,13.68-9.14,20.29-14.01,5.41-3.98,10.14-8.91,15.68-12.68,12.25-8.35,20.63-20.17,29.39-31.65,4.52-5.93,8.53-12.25,12.71-18.44,1.38-2.05,3.06-4.06,3.79-6.35,4.95-15.37,7.02-34.11,8.82-49.89,1.59-13.95,5.2-23.43,11.44-39.78,5.51-14.44,10.81-28.52,19.72-42.8,2.63-4.22,4.64-8.84,6.84-13.32,6.92-14.1,14.41-27.85,23.37-40.81,11.33-16.38,22.16-33.11,33.58-49.43,7-10,14.04-20.11,22.21-29.13,10.19-11.25,21.81-21.2,32.33-32.19,4.73-4.94,10.14-10.47,11.98-16.7,4.45-15.09,8.82-30.15,14.66-44.79,6.56-16.42,12.71-32.99,19.06-49.49,2.59-6.74,4.86-13.62,7.92-20.14,3.81-8.12,7.91-16.15,12.57-23.81,3.99-6.56,8.91-12.57,13.5-18.75,2.08-2.8,4.14-5.67,6.59-8.12,5.97-5.94,12.16-11.65,18.27-17.45ZM859.87,1484.72c-2.24,31.45-.1,58.22,3.27,79.53,1.45,9.19,2.92,16.01,5.85,29.66,2.35,10.94,8.49,38.5,19.6,75.81,3.6,12.09,3.01,9.27,4.77,15.62,6.77,24.32,9.22,49.36,12.1,74.32.2,1.72.12,3.49.06,5.23-.37,10.69-.63,21.38-1.21,32.06-.57,10.43-.93,20.93-2.39,31.25-2.47,17.54-5.92,34.94-8.6,52.46-1.96,12.81-3.56,25.68-4.93,38.56-1.79,16.83-3.7,33.68-4.59,50.57-.6,11.42.39,22.93.88,34.39.16,3.72.74,7.47,1.54,11.12,6.38,29.31,15.08,57.93,25.38,86.11,3.49,9.56,6.12,19.6,7.69,29.64,2.18,14,2.99,28.21,4.37,42.33,1.28,13.14,2.7,26.27,3.76,39.43,1.53,19.12,2.73,38.26,4.18,57.38.39,5.22,1.21,10.4,1.72,15.62.95,9.66,2.04,19.31,2.69,28.99.7,10.44.9,20.92,1.45,31.38.45,8.71.02,17.65,1.91,26.05,2.7,11.98,4.63,23.94,5.72,36.17,1.49,16.62,3.89,33.16,5.79,49.75.68,5.9.96,11.84,1.6,17.74.14,1.28,1.04,2.47,2.09,4.81,1.22-2.59,2.14-4,2.56-5.54,3.01-11.07,6.69-22.04,8.7-33.29,3.37-18.89,5.69-37.96,8.39-56.97,1.33-9.38,2.54-18.77,3.79-28.16,1.34-10.11,2.32-20.29,4.16-30.32.73-3.97,3.09-7.76,5.23-11.31,1.91-3.17,4.68-5.82,6.85-8.85,8.67-12.12,8.9-26.58,9.08-40.3.18-14.35-2.51-28.8-4.69-43.1-2.06-13.56-5.06-26.98-7.68-40.45-2.52-12.97-4.96-25.96-7.65-38.89-2.39-11.48-6.16-22.78-7.39-34.37-1.9-17.88-4.46-35.62-7.55-53.3-.43-2.46-.7-4.95-.93-7.43-1.14-12.41-1.78-24.89-3.47-37.22,0,0-2.4-19.63-1.82-44.74.97-41.59,18.28-108.35,15.62-133.3-.47-4.45-1.11-9.22-1.11-9.22-.88-6.53-2.11-14.11-4.28-25.45-3.75-19.59-7.6-39.17-12.14-58.58-2.83-12.12-6.89-23.96-10.61-35.86-2.75-8.79-5.4-17.65-8.88-26.16-5.36-13.13-11.14-26.11-17.22-38.93-4.7-9.91-9.56-19.83-15.37-29.1-11.74-18.74-19.87-39.19-28.18-59.44-6.03-14.69-9.43-30.46-14.02-45.74-1.9-6.32-3.83-12.63-6.04-19.92ZM1280.32,2086.51c.64.34,1.29.67,1.93,1.01.69-.93,1.56-1.77,2.05-2.79,5.32-10.99,11.18-21.74,14.49-33.62,1.54-5.53,3.7-10.86,5.48-16.31,9.24-28.35,13.64-34.04,26.16-69.15,4.79-13.43,6.53-20.37,9.37-27.53,8.05-20.31,10.16-32.61,12.46-39.98,14.9-47.84,30.13-49.27,41.19-92.35,3.41-13.29,3.27-18.27,9.55-43.13,2.82-11.15,4.97-18.59,6.18-30.03,1.41-13.38.6-23.53.23-28.37,0,0-.16-2.07-3.33-70.76-1.54-33.31-2.84-61.39,2.44-96.92,2.99-20.11,5.44-24.82,7.64-47.02,1.72-17.42,1.79-30.79,1.94-57.52.04-6.96-.2-22.32-.66-53.05-.35-22.92-.88-45.82-7.45-68.07-7.24-24.52-7.66-33.18-11.98-52.31-8.22-36.44-12.33-54.66-14.53-71.52-1.4-10.66-8.01-28.14-15.02-51.73-.52-1.74-1.8-3.24-3.58-6.35-2.44,7.45-4.86,13.21-6.16,19.22-1.73,7.99-3.5,16.15-3.55,24.25-.05,8.36,1.85,16.75,3.12,25.09.24,1.55,1.19,3.47,2.43,4.3,6.29,4.23,6.85,10.48,6.34,17.05-.3,3.79-4.51,7.7-7.87,7.66-4-.05-5.61-2.89-6.38-6.22-1.97-8.5-4.38-16.96-5.48-25.58-1.29-10.11-1.77-20.36-1.86-30.56-.05-5.64.86-11.43,2.33-16.89,2.52-9.38,5.84-18.55,8.78-27.82,1.7-5.34,2.19-10.55.13-16.1-1.64-4.4-2.06-9.24-3.17-13.85-2.07-8.63-4.24-17.23-6.56-26.65-3.68,3.5-3.75,6.99-4.06,10.38-.2,2.22-.18,4.48-.5,6.68-1.43,9.61-3.4,19.16-4.32,28.81-1.18,12.37-1.53,24.82-2.24,37.23-.24,4.21-1.74,8.84-.46,12.51,1.55,4.42,1.39,8.73,2.03,13.09.28,1.9.6,3.96,1.56,5.55,1.39,2.3,1.39,4.14-.38,6.08-2.01,2.2-4.65,3.62-7.32,2.32-1.69-.82-3.26-3.1-3.7-4.99-.66-2.86-.18-5.96-.36-8.95-1.42-23.46-1.55-46.89,1.76-70.23,2.84-20.03,5.69-40.05,8.57-60.07,1.21-8.39,1.9-16.89,5.82-24.68.74-1.48.6-3.41.8-5.14.61-5.2,1-10.43,1.83-15.59,1.86-11.58,4.02-23.12,5.86-34.7.57-3.57.47-7.25.75-12.1-3.36,1.17-5.54,1.93-7.52,2.61.12,9.3,1.05,18.04.17,26.59-1.49,14.54-5.25,28.69-9.4,42.74-3.79,12.84-8.59,25.46-9.68,39.01-.21,2.66-1.58,5.22-2.23,7.86-1.12,4.53-2.03,9.12-3.17,13.65-.71,2.82-1.42,5.68-2.58,8.33-2.26,5.19-5.55,18.09-7.65,32.32-.36,2.46-3.45,24.08-.33,41.69.05.29.08.37.26,1.47,1.39,8.09,3.03,16.14,4.1,24.27,1.25,9.47,2.5,18.77,9.96,25.84,1.18,1.12,1.69,2.95,2.45,4.35-4.31,5.38-6.74,6-11.12,2.25-2.21-1.89-4.61-4.39-5.33-7.04-2.39-8.88-4.92-17.86-5.81-26.96-1.72-17.59-2.35-35.28-3.48-52.93-.11-1.77-.54-3.51-.83-5.26-7.41,8.36-11.61,17.86-15.96,27.27-.19.42-.15,1-.08,1.48,1.04,7.63,1.38,13.82,2.63,17.61,5.47,16.58,16.47,29.14,12.72,34.13-.79,1.05-2.51,2.13-6.72,1.85-1.02,5.22-2.18,12.5-2.7,21.31-.03.47-.21,3.55-.27,6.98-.24,14.25,1.94,27.14,2.29,30.52,1.72,16.6,3.42,33.21,5.9,49.7,2.03,13.52,5.14,26.89,7.87,40.3,1.59,7.82,3.18,15.65,5.11,23.4,2.9,11.6,6.11,23.12,9.18,34.67,2.11,7.92,3.92,15.94,6.39,23.74,7.2,22.77,14.73,45.44,21.97,68.19,1.73,5.45,3.11,11.04,4.2,16.65,3.12,16.14,6.06,32.31,8.94,48.5.87,4.88,1.32,9.84,1.89,14.77.2,1.72-.05,3.53.32,5.2,3.87,17.71,6.72,55.53,6.72,55.53h0s0,31.67-2.87,62.9c-3.36,36.6-12.05,74.69-24.14,127.65-1.14,5.01-4.29,18.88-7.89,34.18-3.37,14.33-6.67,28.68-10.07,43-3.75,15.79-7.29,31.63-11.47,47.31-4.12,15.42-9.25,30.57-13.35,45.99-4.48,16.87-8.23,33.94-12.47,50.88-.84,3.36-2.53,6.5-3.72,9.78-1.57,4.36-3.04,8.75-4.55,13.13ZM862.55,579.17c4.05-2.97,6.48-5,9.14-6.65,11.86-7.36,24.09-14.18,35.62-22.04,10.99-7.5,22.52-13.83,34.77-18.8,7.85-3.18,16.29-4.92,24.09-8.19,12.81-5.37,26.33-5.32,39.7-5.84,10.19-.4,20.47,1.48,30.64.92,10.4-.57,21.12-1.54,30.96-4.67,22.59-7.17,42.42-19.74,60.84-34.61,11.83-9.56,23.66-19.2,36.16-27.84,14.35-9.92,29.38-18.87,44.21-28.08,18.91-11.73,36.79-24.93,54.04-38.92,10.46-8.48,20.11-17.95,30.37-26.68,15.18-12.92,27.49-28.24,38.09-44.99,3-4.74,5.22-9.97,7.79-14.98-2.92-.25-4.94.44-6.87,1.32-7.7,3.53-15.78,6.29-23.15,10.47-11.55,6.55-31.71,15.73-72.04,34.09-15.2,6.92-22.96,10.57-32.92,14.17-13.79,4.98-27.91,9.09-42.01,13.16-17.01,4.91-34.03,9.87-51.25,13.88-5.05,1.18-16.64,2.95-39.77,6.72-27.35,4.46-35.91,5.6-47.85,11.48-9.41,4.63-15.37,10.34-21.8,14.42-12.2,7.76-22.15,18.16-29.53,30.11-10.15,16.42-24.62,28.66-37.19,42.72-7.95,8.9-16.61,17.18-25.32,25.35-8.86,8.31-17.33,17.51-27.54,23.73-7.71,4.69-12.79,9.19-13.9,18.15-.39,3.14-2.37,6.04-3.16,9.17-.9,3.56-1.28,7.26-2.14,12.44ZM861,1235c-.51-.57-1.03-1.13-1.54-1.7-8.92,5.41-17.65,11.14-26.79,16.14-11.79,6.45-23.4,13.79-36,18.05-17.2,5.82-35.24,9.19-52.97,13.42-11.88,2.84-23.96,4.89-35.72,8.14-10.56,2.92-20.79,7-31.18,10.53-9.61,3.26-17.78,8.96-25.69,15.11-3.93,3.05-8.06,5.93-11.61,9.39-12.27,11.92-20.99,26.57-30.64,40.5-2.4,3.47-4.67,7.16-6.27,11.04-11.3,27.44-23.24,54.63-32.62,82.83-2.67,8.04-5.31,16.1-7.8,24.19-.66,2.14-.74,4.47-1.28,8.02,3.66-2.02,5.97-3,7.94-4.44,7.23-5.28,14.14-11.05,21.57-16.02,11.56-7.73,23.38-15.1,35.25-22.35,8.27-5.04,16.65-9.94,25.27-14.34,17.12-8.73,34.83-16.42,50.03-28.48,10.13-8.03,20.04-16.36,30.08-24.51,4.06-3.3,8.33-6.35,12.33-9.72,3.78-3.19,7.31-6.68,11-9.98,1.29-1.15,2.93-1.96,4.12-3.2,8.26-8.63,16.43-17.34,24.68-25.99,3.95-4.15,4.02-3.97,8.95-9.02,19.5-19.98,34.33-40.09,51.58-63.48,2.28-3.09,4.56-6.23,17.32-24.16ZM1332.1,591.14c-1.35,3.5-2.27,6.85-3.87,9.83-4.94,9.21-10.56,18.07-15.11,27.45-5.21,10.74-10.36,21.4-16.87,31.5-12.48,19.37-16.65,30.29-21.22,36.42-2.85,3.83-24.06,31.97-31.89,40.02-.59.61-2.39,2.41-3.71,5.33-1.15,2.54-1.62,5.34-1.64,8.67-.04,12.07,2.04,23.8,4.32,35.47,1.72,8.82,3.97,15.59,7.53,24.88,15.73,41.06,39.74,58.76,44.32,66.81.3.52,1.34,2.36,3.36,3.18.96.39,2.18.49,3.85.06,2.46-7.2,5.13-14.52,7.72-21.95,3.76-10.77,5.47-16.93,7.28-22.62,11.82-37.08,18.01-40.17,20.78-61.25.49-3.71-.3-.75,1.26-24.6.86-13.17,2.78-26.35,2.58-39.5-.34-22.16-1.94-44.3-3.09-66.44-.66-12.7-1.43-25.41-2.29-38.1-.35-5.12-.21-10.42-3.31-15.15ZM1229.39,754.77c-4.11,3.43-6.25,6.8-5.79,11.86.79,8.59,1.83,17.14,2.19,25.81.79,18.87-4.16,36.58-9.56,54.16-3.48,11.36-8.73,22.17-13.28,33.19-2.46,5.96-4.92,11.94-7.75,17.73-2.18,4.45-5.12,8.51-7.41,12.91-5.72,11.01-10.69,22.45-17.05,33.07-5.11,8.53-6.75,18.11-10.35,27.06-.87,2.16-.58,4.9-.42,7.34.61,9.09,4.11,17.3,7.91,25.43,3.37,7.21,6.62,14.49,9.6,21.86,3.07,7.59,5.44,15.47,8.66,23,7.71,18.03,12.5,36.68,13.37,56.32.04.91,1.07,1.78,2.5,4,2.22-8.62,4.18-15.74,5.85-22.94,1.12-4.85,2.03-9.77,2.66-14.71,1.36-10.55,7.16-19.66,9.44-29.84,1.94-8.65,5.51-16.34,9.75-24.07,7.67-13.98,16.72-26.56,29.55-36.25,1.69-1.27,3.45-3.29,3.87-5.24,1.47-6.81,3.54-13.79,3.24-20.61-.73-16.16-1.92-32.4-4.45-48.36-1.58-9.98-5.97-19.5-9.02-29.25-3.26-10.43-7.17-20.73-9.47-31.38-3.06-14.11-4.29-28.61-7.31-42.74-3.07-14.4-4.81-28.9-5.92-43.52-.11-1.43-.48-2.84-.83-4.83ZM1030.86,823.14c.43.54.85,1.08,1.28,1.61,9.49-3.47,19.16-6.52,27.76-12.13.87-.57,1.31-2,1.68-3.11,3.34-10.12,2.94-20.85,5.14-31.25,2.69-12.7,8.21-24.03,13.35-35.49,3.69-8.22,9.08-15.8,14.87-23.11,8.98-11.34,17.24-23.21,27.99-33.03.91-.83,1.77-1.81,2.35-2.89,3.61-6.83,7.14-13.71,10.69-20.58,6.07-11.75,12.01-23.58,18.26-35.24,4.24-7.92,9.06-15.52,13.33-23.41,18.42-34.06,22.2-43.24,38.92-72.55,4.97-8.71,12.52-21.53,22.49-36.87-12.94,13.16-25.21,23.06-35.03,30.2-18.64,13.55-34.99,20.42-43.45,25.96-8.53,5.58-21.33,12.29-39.6,16.56-1.69,5.62-4.09,13.96-6.62,24.17-3.6,14.5-6.16,21.77-8.05,38.08-1.99,17.19-6.82,33.59-11.22,50.14-3.52,13.23-7.84,26.25-11.54,39.44-3.64,12.95-6.78,26.05-10.49,38.98-1.08,3.76-3.58,7.08-5.06,10.75-5.79,14.32-13.28,27.77-20.84,41.19-2.29,4.07-4.14,8.38-6.19,12.58ZM1341.48,354.17c-.67-.14-1.34-.29-2.01-.43-9.77,13.88-18.47,28.53-25.39,43.95-10.85,24.16-25.74,46.12-36.91,70.06-2.95,6.32-6.84,12.27-9.19,18.79-4.06,11.24-7.51,22.72-10.7,34.24-2.05,7.44-3.15,15.13-4.71,22.71-1.86,8.99-3.8,17.97-5.59,26.98-.26,1.3.15,2.73.32,5.22,3.95-2.37,7.25-4.05,10.21-6.19,7.27-5.27,14.34-10.79,21.55-16.14,9.82-7.28,20.24-13.85,29.37-21.89,9.18-8.09,19.55-16.36,16.24-31.28-.05-.23.06-.49.08-.74.95-15.43,2.43-30.85,2.74-46.3.53-26.81,4.16-53.17,9.74-79.33,1.4-6.55,2.83-13.1,4.25-19.64ZM1215.61,770.69c-7.51,5.44-14.83,9.85-21.04,15.47-6.74,6.11-14.21,11.64-18.96,19.8-3.11,5.35-6.85,10.33-10.25,15.52-1.08,1.66-2.13,3.38-2.9,5.19-6.16,14.58-8.72,30.13-9.76,45.65-1.47,22.07-5.63,43.4-12.61,64.3-.53,1.58-.42,3.42-.38,5.13.15,6.28,2.88,11.47,6.92,16.21,3.63.1,6.34-1.15,8.02-4.36,1.39-2.64,2.85-5.25,4.2-7.91,6.3-12.41,12.58-24.84,18.87-37.26,3.04-6.01,6.32-11.91,9.05-18.05,4.86-10.92,9.14-22.1,14.1-32.98,9.29-20.34,16.82-41.07,16.49-63.88-.02-1.48.46-2.96.54-4.45.33-5.96.49-11.91-2.32-18.37ZM1017.12,680.97c1.02-1.07,2.56-2.34,3.67-3.9,8.52-11.99,15.33-24.95,21.84-38.11,7.71-15.6,15.71-31.06,23.63-46.55,1.02-1.99,2.19-3.94,3.53-5.73,3.86-5.15,7.92-10.16,11.73-15.35.72-.98.63-2.56,1.23-5.33-16.63-1.19-26.25,3.4-30.93,6.34-6.85,4.3-9.56,7.52-20.63,16.97-13.62,11.62-18.15,13.18-25.79,19.58-8.71,7.3-19.85,19.54-28.76,40.84,6.81,6.74,15.02,13.95,24.79,20.99,5.4,3.89,10.67,7.29,15.69,10.26ZM1314.35,557.09c-.88.16-1.71.08-2.24.44-10.04,6.93-20.08,13.86-30.03,20.92-4.26,3.02-8.45,6.19-12.44,9.56-4.73,3.99-9.11,8.42-13.85,12.39-4.73,3.97-9.76,7.59-14.6,11.43-.74.59-1.44,1.49-1.69,2.39-1.57,5.49-3.55,10.94-4.38,16.55-1.88,12.56-3.35,25.19-4.63,37.83-1.18,11.63-1.97,23.31-2.73,34.97-.14,2.18.66,4.43,1.03,6.65.57.06,1.14.11,1.71.17,5.76-8.37,11.82-16.56,17.2-25.16,10.58-16.9,21.36-33.72,30.97-51.17,10.94-19.87,20.89-40.29,30.82-60.69,2.4-4.93,5.66-9.98,4.86-16.29ZM1538.71,769.78c.16-3.46.08-8.59-1.24-14.59-.91-4.15-4.45-20.14-17.67-29.81-5.91-4.32-5.22-2.68-24.86-9.8-4.66-1.69-9.58-2.69-14.31-4.21-6.55-2.11-7.97-1.2-8.43,5.58-.38,5.71-.3,11.53-1.47,17.09-1.68,8-1.47,15.87-.12,23.75,1.26,7.36,2.78,14.69,4.51,21.95,1.07,4.5,2.09,9.14,4.95,12.72,5.07-.95,9.69-2.5,14.33-2.52,8-.04,14.55-2.93,20.35-8.03,6.95-6.11,13.82-12.32,23.96-12.12ZM1172.04,664.02c-2.29.81-3.85,1.13-5.18,1.87-3.47,1.93-7,3.82-10.2,6.14-8.06,5.84-17.02,10.92-23.67,18.1-12.33,13.31-23.38,27.82-34.76,41.99-4.34,5.4-3.53,8.24,3.22,10.18,6.95,2.01,12.47,5.97,18.01,10.28,2.67,2.08,5.89,4.03,9.14,4.69,13.65,2.76,24.39-1.84,28.89-17.68,3-10.54,6.05-21.07,8.86-31.67,3.73-14.04,4.73-28.43,5.68-43.92ZM1205.6,643.22c-2.7,2.14-4.36,3.2-5.72,4.57-4.71,4.75-9.4,9.53-13.9,14.48-1.8,1.98-3.97,4.27-4.42,6.71-1.83,9.8-2.58,19.81-4.6,29.56-3.22,15.59-5.67,31.6-11.23,46.38-4.27,11.36-12.43,21.39-19.58,31.5-5.16,7.3-11.53,13.73-17.27,20.63-1.13,1.35-1.84,3.06-3.37,5.68,12.29-.73,21.74-4.87,29.95-11.51,5.78-4.67,10.81-10.27,16.21-15.42,7.56-7.22,14.77-14.87,22.85-21.46,6.47-5.28,8.14-11.54,7.29-19.16-.47-4.18-1.26-8.35-1.4-12.54-.2-6.21.75-12.52-.05-18.63-1.28-9.77.62-19.24,1.47-28.81.91-10.14,2.36-20.24,3.76-31.98ZM1533.25,885.23c.54-.07,1.08-.14,1.62-.21.46-2.1,1.06-4.19,1.34-6.32,1.63-12.34,3.03-24.71,4.79-37.02,1.95-13.62,2.31-27.27,1.4-40.97-.3-4.48-.36-9-1.05-13.42-1.15-7.43-6.83-9.71-12.83-5.39-1.42,1.02-2.88,2-4.16,3.18-8.74,7.95-18.64,12.96-30.73,13.63-7.31.41-10.91,7.31-7.89,13.9,2.91,6.34,5.94,12.63,8.89,18.95,3.73,7.99,8.69,15.06,15.13,21.14,2.14,2.02,3.89,4.51,5.61,6.93,6.01,8.5,11.93,17.06,17.89,25.59ZM969.76,658.56c-5.07,10.45-8.42,17.16-10.75,21.68-.31.6-.96,1.75-1.54,3.41-.8,2.25-1.25,5.18-2.22,13.36-1.41,11.96-3.79,23.57-8.37,34.79-1.54,3.77-1.57,8.32-1.54,12.51.02,3.61,2.2,4.78,5.61,3.68,1.65-.53,3.2-1.41,4.74-2.21,9.32-4.85,16.32-12.41,22.55-20.52,7.92-10.31,16.31-20.14,25.4-29.41,1.22-1.25,2.52-2.45,3.57-3.84,2.42-3.22,2.11-4.97-1.22-7.5-4.7-3.57-8.9-7.93-14.13-10.65-5.03-2.62-12.29-7.09-22.09-15.3ZM1281.74,1140.41c2.56-4.61,4.67-8.76,7.1-12.71,7.14-11.61,12.6-23.39,11.19-37.8-2.36-24.17-1.05-48.26,2.92-72.31,2.61-15.79,4.97-31.54,10.13-46.74.61-1.79.67-3.76.97-5.56-2.96-1.31-4.94-.94-5.86,1.79-.95,2.8-1.78,5.66-2.49,8.54-1.78,7.24-3.16,14.59-5.28,21.72-2.54,8.54-5.64,16.9-8.55,25.32-4.61,13.34-9.51,26.55-15.72,39.27-2.01,4.12-3.33,9.1-3.19,13.63.22,7.44-1.03,15.09,2.67,35.78,1.36,7.63,3.32,17.53,6.1,29.08ZM1134.79,957.96c2.05,9.13,5.1,17.77,9.34,26.14,0,0,4.98,10.42,10.02,22.22,6.68,15.64,9.92,29.4,12.76,41.46,1.16,4.93,3.22,10.05,3.47,16.66.94,24.29,1.18,48.6,2.02,72.9.32,9.2,1.46,18.38,2.48,27.54.25,2.22,1.54,4.32,2.87,7.84,1.31-2.65,1.91-3.67,2.34-4.75,4.66-11.85,7.68-24.03,9.72-36.68,2.44-15.14.73-29.86-1.59-44.6-3.52-22.32-13.3-42.74-20.64-63.88-4.79-13.79-10.86-27.18-18.63-39.67-.49-.79-.54-1.87-.72-2.83-1.74-9.07-7.35-15.82-13.45-22.35ZM1250.2,836.18c-.4-.04-.8-.07-1.21-.11.98,5.01,1.74,10.08,3,15.02,2.2,8.66,4.8,17.22,7.05,25.87,3.19,12.25,8.34,24,8.85,36.94.29,7.45.9,14.93,2.13,22.27,1.58,9.41,1.64,18.8,1.3,28.25-.05,1.29.51,2.59.92,4.51,5.4-3.97,10.14-7.45,14.42-10.6.03-8.69-1.06-17.3.36-25.47,2.03-11.69,2.23-23.87,7.47-34.91,1.32-2.77.71-5.04-1.37-7.46-5.19-6.04-10.12-12.32-15.04-18.59-9.33-11.88-18.59-23.82-27.88-35.73ZM1138.81,767.67c-3.01-.65-5.38-1.61-7.75-1.59-6.1.03-10.87-2.15-15.37-6.35-6.33-5.9-14.46-8.46-22.87-9.93-3.26-.57-5.66.18-6.97,3.83-2.76,7.69-6.95,14.78-8.33,23.07-1.67,10-4.18,19.85-6.4,30.11,1.45-.11,3.19.02,4.77-.41,11.08-3.02,22.16-5.91,33.78-5.69,3.18.06,4.76-2.01,6.47-4.33,2.93-3.98,6.12-7.78,9.36-11.53,4.51-5.21,10.37-9.36,13.33-17.19ZM933.69,1129.65c2.22-2.55,4.48-5.13,6.73-7.74,10.58-12.25,19.56-25.77,30.86-37.48,6.52-6.75,12.55-14.29,15.05-23.79,1.2-4.58,2.36-9.17,3.36-13.8,3.29-15.16,7.27-30.01,15.77-43.33,3.11-4.87,5.09-10.47,7.65-15.86-1.13-.31-1.5-.5-1.59-.42-2.21,2.27-4.41,4.56-6.58,6.88-17.85,19.08-32.25,40.51-43.13,64.24-6.95,15.15-13.53,30.47-20.28,45.71-1.51,3.4-3.39,6.69-4.43,10.23-1.44,4.88-2.25,9.94-3.42,15.35ZM1239.05,443.69c-.44-.44-.89-.88-1.33-1.32-2.11,1.48-4.29,2.88-6.33,4.46-2.15,1.66-3.99,3.82-6.3,5.19-12.18,7.18-24.47,14.19-36.74,21.23-1.94,1.11-4.01,2-6,3.04-24.47,12.67-42.6,31.51-54.58,56.29-.68,1.41-.73,3.13-1.09,4.79,1.18.09,1.79.34,2.11.14,23.4-14.67,47.51-28.34,67.72-47.58,6.31-6.01,13.4-11.23,19.38-17.52,6.85-7.21,12.9-15.19,19.22-22.89,1.48-1.8,2.63-3.86,3.93-5.81ZM1398.56,1083.96c1.14-7.58,2.58-15.12,3.34-22.74,1.2-12.15,2.17-24.33,2.77-36.51.35-7.18.55-14.51-.5-21.57-2.13-14.27-5.13-28.41-7.84-42.59-1.22-6.41-2.61-12.79-3.92-19.18-1.6,1.01-2.22,1.97-2.06,2.77,1.56,8.01-.35,15.6-1.74,23.47-2.38,13.41-3.23,27.1-4.63,40.68-.77,7.43-1.18,14.91-2.03,22.33-1.09,9.59-2.14,19.09,4.29,27.47.44.58.76,1.32.91,2.03,1.79,8.57,6.27,16,11.43,23.83ZM1591.03,1032.66c-.46-2.51-.38-3.86-.93-4.86-5.06-9.17-9.84-18.53-15.5-27.32-3.88-6.02-8.39-11.97-13.76-16.62-14.3-12.4-29.23-24.06-43.85-36.09-2.49-2.05-4.49-4.73-7.04-6.69-10.03-7.69-19.93-15.61-30.46-22.57-3.88-2.57-9.12-3.19-12.73-6.72-.05-.05-.72.53-1.48,1.11.65.94,1.19,2.02,2,2.83,7.45,7.48,12.93,13.37,14.81,14.79,8.27,6.25,17.33,15.36,27.92,26.02,15.32,15.41,19.27,19.96,32.9,33.77,2.44,2.47,5.18,4.76,8.11,6.61,9.84,6.19,18.33,13.69,24.64,23.56,3.43,5.37,8.24,9.16,15.37,12.19ZM792.31,946.69c3.92-1.44,7.8-3.03,11.78-4.3,11.5-3.64,21.66-9.05,30.96-17.21,21.05-18.46,45.95-30.62,72.01-40.44,3.01-1.13,5.91-2.35,6.65-6.43-1.47-.44-2.63-1.11-3.78-1.09-9.18.16-18.37.72-27.55.62-7.66-.08-14.1,2.46-19.95,7.13-15.15,12.1-31.53,22.52-45.87,35.83-8.59,7.97-17.21,15.76-24.23,25.88ZM757.69,298.07c.27-.69.55-1.38.82-2.07-8.24-4.35-16.07-10.02-24.82-12.77-19.72-6.2-39.77-11.51-59.92-16.14-20.18-4.64-40.62-8.14-61-11.85-6.96-1.26-14.07-1.48-21.83.34,1.11,1.47,1.51,2.52,2.26,2.9,8.01,4.03,16.07,7.97,24.14,11.88,4.26,2.06,8.48,4.24,12.89,5.94,2.98,1.15,6.23,2.02,9.4,2.19,7.97.41,15.96.45,23.95.46,21.65.05,42.72,3.38,63.31,10.19,10.14,3.36,20.53,5.97,30.81,8.92ZM1504.31,980.32c-.61.43-1.22.87-1.82,1.3,1.33,5.25,2.88,10.46,3.92,15.76,1.24,6.31,2.21,12.68,2.98,19.06.93,7.65,4.75,13.09,10.83,17.8,5.04,3.9,9,9.19,13.5,13.79,4.85,4.96,9.78,9.85,14.69,14.75,2.45,2.45,5.07,4.73,7.36,7.32,4.35,4.93,8.5,10.02,13.41,15.84-.95-4.54-1.12-8.1-2.44-11.16-11.64-26.91-33.79-61-33.79-61-6.9-9.11-16.37-20.73-28.63-33.47ZM837.43,591.93c-.55-.24-1.1-.47-1.66-.71-5.39,5.99-12.84,15.19-19.87,27.7-.91,1.61-1.26,4.33-5.14,9.96-.67.97-6.5,14.22-18.57,40.5-11.19,24.37-18.03,33.96-16.37,35.14,2.15,1.53,15.69-13.2,20.71-18.97,1.23-1.41,3.28-3.83,5.75-6.97,5.69-7.22,10.35-15.27,15.26-23.09,7.1-11.28,10.04-21.45,11.54-25.76,3.23-9.28,6.76-22.1,8.33-37.82ZM1307.87,1086.95c.48.04.95.09,1.43.13,1.19-4.69,2.36-9.38,3.59-14.06,5.69-21.68,11.99-43.23,16.87-65.09,3.08-13.8,4.14-28.05,5.88-42.13.42-3.39.4-7.09-3.9-8.57-6.25,7.08-8.19,10.89-9.98,18.57-2.82,12.11-5.8,24.18-8.61,36.28-1,4.31-2.03,8.65-2.46,13.04-.66,6.65-.2,13.45-1.3,20.01-1.83,10.88-2.21,21.75-1.71,32.7.14,3.03.13,6.07.19,9.11ZM815.62,544.72c-.57-.35-1.15-.71-1.72-1.06-1.6,1.82-3.25,3.6-4.79,5.46-9.39,11.3-17.51,23.63-28.23,33.88-4.28,4.09-8.23,8.81-11.23,13.89-6.71,11.35-12.86,23.03-18.99,34.7-7.07,13.46-13.9,27.05-20.79,40.61-2.76,5.44-5.4,10.94-8.75,17.75,12.18-7.83,21.65-16.64,28.03-28.02,6.58-11.72,11.92-24.14,17.67-36.32,9.04-19.18,17.29-38.79,30.67-55.59,3.73-4.68,7.41-9.42,10.91-14.27,2.57-3.56,4.83-7.36,7.22-11.05ZM781.61,453.48c0-.32,0-.65,0-.97-.94-.16-1.92-.58-2.81-.44-12.6,2.07-25.15.22-37.73-.16-5.44-.16-10.97.42-16.36,1.26-3.1.48-5.93,2.48-9.02,3.21-15.45,3.63-30.98,6.9-46.39,10.66-4.75,1.16-9.22,3.43-13.82,5.19,8.26,2.44,16.09,3.93,23.99,4.71,3.35.33,6.84-.98,10.29-1.33,22.65-2.33,44.83-6.59,66.24-14.69,8.29-3.14,17.07-4.99,25.63-7.43ZM1362.5,1091.61c5.55-11.43,6.31-23.44,8.37-35.18,1.26-7.19,1.07-14.31-.12-21.57-2.35-14.26-4.19-28.59-6.17-42.91-.99-7.16-1.82-14.34-2.93-23.22-4.09,12.1-7.29,22.56-7.59,33.65-.12,4.47.16,8.96.12,13.44-.07,8.46-1.03,17-.18,25.36,1.2,11.87,3.66,23.62,5.66,35.41.85,5.03,1.89,10.02,2.85,15.03ZM1127.65,966.17c-3.33,4.91-2.89,8.99-2.14,13.11.62,3.42,1.42,6.82,1.89,10.27,2.49,18.17,8.82,35.21,15.52,52.09,3.75,9.46,8.53,18.51,13.01,27.67,1.13,2.31,2.87,4.32,4.33,6.46.58-.18,1.15-.36,1.73-.54.02-3.64.41-7.33-.02-10.91-.74-6.19-1.63-12.39-3.09-18.44-2.39-9.93-4.5-20.05-8.17-29.53-4.31-11.13-10.23-21.62-15.32-32.46-2.59-5.52-4.89-11.17-7.74-17.73ZM1066.38,1001.7c-.38-.05-.77-.1-1.16-.15-.33.89-.76,1.76-.98,2.67-2.77,11.39-5.59,22.77-8.24,34.19-6.43,27.7-12.85,55.41-19.11,83.15-.89,3.95-.9,8.09-1.32,12.15.55.17,1.11.34,1.66.51,1.26-1.69,2.72-3.28,3.74-5.1,4.39-7.83,8.73-15.69,12.92-23.63,1.5-2.84,2.72-5.87,3.74-8.92,4.48-13.29,3.55-27.05,3.52-40.75-.01-4.47.29-8.95.75-13.39,1.41-13.58,2.96-27.15,4.46-40.73ZM1421.52,955.15c-.59.13-1.19.26-1.78.38-.35,1.63-.84,3.25-1.04,4.9-.81,6.65-.38,13.71-2.54,19.88-3.5,9.99-2.63,19.69-.47,29.39,2.81,12.63,6.38,25.1,9.82,37.59,1.62,5.88,3.72,11.63,5.6,17.43,1.23-1.34,1.51-2.51,1.48-3.68-.16-7.7-.19-15.41-.62-23.1-.57-10.09-2.94-28.45-2.74-44.66.13-10.45.93-18.97-3.47-29.84-1.46-3.61-3.07-6.43-4.24-8.29ZM618.9,210.57c2.21,4.34,5.55,6.23,9.63,6.88,10.83,1.73,21.64,4.19,32.54,4.81,32.24,1.82,61.29,12.29,87.99,30.09,5.41,3.61,11.35,6.41,18.57,10.44-2.67-7.11-6.84-10.69-10.65-14.41-6.69-6.54-15.03-10.22-23.59-13.86-16.34-6.95-32.94-13.12-50.26-16.78-15.82-3.34-31.93-5.36-47.94-7.72-5.25-.77-10.65-1.22-16.29.55ZM1253.85,443.88c-.41-.3-.81-.6-1.22-.9-3.59,4.04-7.23,8.03-10.77,12.12-10.74,12.42-20.51,25.51-32.87,36.71-11,9.97-22.39,19.31-34.23,28.05-10.46,7.72-18.65,13.77-29.04,19.69-30.11,17.17-55.93,20.34-55.74,21.07.19.76,28.46-.59,58.59-16.56,5.57-2.95,1.65-1.34,40.67-26.32,10.49-6.71,16.02-8.85,21.79-15.27,7.84-8.72,16.92-16.48,23.76-25.89,7.38-10.15,12.78-21.73,19.05-32.69ZM1035.5,912.51c-6.39-5.01-6.29-4.85-11.72-1.53-4.66,2.85-9.46,5.57-14.43,7.82-10.57,4.8-18.25,12.85-24.81,21.96-5.19,7.22-9.24,15.25-14.23,22.63-5.29,7.82-11.26,15.16-16.62,22.93-7.89,11.46-15.55,23.09-23.18,34.73-1.32,2.01-3.3,4.07-2.2,8.71,6.73-8.86,12.97-16.26,18.29-24.27,11.03-16.6,22.36-32.98,35.75-47.76,14.59-16.1,30.22-31.1,49.37-41.9,1.41-.79,2.49-2.18,3.78-3.34ZM912.12,947.1c10.15-2.7,69.33-53.11,79.46-67.41-3.35.37-6.03.31-8.49,1.01-13.02,3.7-23.13,12.5-33.84,20.1-5.82,4.14-11.73,8.74-16,14.35-7.48,9.83-13.73,20.6-21.13,31.96ZM1079.96,1055.4c-.4-.28-.52-.37-.65-.45-.1.23-.24.45-.29.68-3.42,14.85-7.53,29.47-13.08,43.7-1.52,3.89-2.21,8.2-2.64,12.39-1.95,18.83,2,37.14,5.29,55.49.07.42.54.77,1.41,1.94,2.13-9.85,3.7-19.19,6.27-28.24,1.93-6.83,2.87-13.61,2.88-20.65.02-14.7.26-29.4.44-44.1.09-6.98.26-13.96.38-20.74ZM1043.14,956.05c-.37-.29-.74-.57-1.12-.86-1.19,1.13-2.69,2.06-3.51,3.42-4.1,6.83-8.32,13.62-11.92,20.72-5.18,10.22-9.67,20.79-14.81,31.03-4.59,9.14-9.63,17.99-10.77,28.48-.4,3.65-2.19,7.14-3.35,10.71,2.46-1.16,4.08-2.68,5.26-4.5,5.58-8.56,11.21-17.1,16.48-25.85,3.85-6.41,8.08-12.82,10.52-19.79,4.99-14.25,8.88-28.89,13.23-43.36ZM1505.03,1038.31c.59-3.54-.88-5.91-3.03-8.13-3.1-3.21-6.59-6.21-8.99-9.9-5.28-8.12-9.78-16.75-14.96-24.94-10.23-16.19-20.67-32.25-31.11-48.3-.79-1.21-2.24-1.98-3.39-2.95-.46.25-.92.51-1.38.76.93,3.76,1.12,7.92,2.93,11.2,8.4,15.21,16.84,30.43,26.05,45.15,7.24,11.56,14.64,23.16,24.86,32.54,2.57,2.35,4.83,4.93,9.01,4.59ZM1500.28,1013.82c-1.65-7.95-3-14.99-4.58-21.97-3.15-14.01-7.78-27.38-18.45-37.66-9.32-8.97-18.89-17.68-28.41-26.44-.67-.61-1.83-.69-2.76-1.02,8.25,15.19,17.54,29.22,26.62,43.38,9.1,14.18,17.98,28.5,27.57,43.71ZM720.83,424.55c.08.62.17,1.23.25,1.85,2.53.32,5.07.95,7.59.9,30.59-.66,61.1.44,91.56,3.24,2.72.25,5.87,1.28,8.4-1.6-1.85-4-5.12-5.42-8.99-5.81-5.17-.53-10.37-.81-15.53-1.42-8.38-.98-16.72-2.56-25.13-3.1-7.13-.46-14.41.88-21.49.16-10.67-1.07-20.79.92-30.94,3.45-1.98.49-3.83,1.54-5.74,2.33ZM828.68,458.65c-1.67-.46-2.37-.87-3.03-.8-10.63,1.02-21.38,1.43-31.85,3.32-12.93,2.33-26.1,3.79-38.44,9.07-6.79,2.9-14.17,4.4-21.25,6.64-5.84,1.85-11.64,3.85-19.01,6.29,2.77.26,4,.64,5.12.43,6.57-1.21,13.08-2.68,19.66-3.83,17.15-3,34.35-5.76,51.48-8.86,9.29-1.68,18.54-3.67,27.71-5.92,3.42-.84,7.12-1.99,9.6-6.34ZM939.54,954.51c.71.83,1.42,1.66,2.12,2.48,1.86-1.65,3.59-3.47,5.59-4.92,9.88-7.17,19.87-14.18,29.74-21.36,3.8-2.77,7.79-5.45,10.97-8.85,5.27-5.62,9.99-11.76,14.85-17.75,1.46-1.8,2.66-3.82,3.97-5.75-6.34,2.01-12.35,4.1-17.28,7.68-7.18,5.21-14.81,9.75-20.72,16.87-9.16,11.02-19.44,21.11-29.24,31.6ZM998.03,990.6c1.35-1.3,2.76-2.55,4.04-3.92,6.99-7.47,14.06-14.88,20.87-22.52,2.11-2.37,3.87-5.22,5.19-8.12,5.8-12.72,10.93-25.81,21.4-35.74.3-.29.05-1.16.06-2.81-8.76,5.06-15.62,11.18-21.29,18.33-13.07,16.45-22.09,35.29-30.27,54.77ZM667.58,288.98c8.22,3.79,15.06,6.22,22.47,7.11,4.42.53,8.87,1.22,13.16,2.39,8.64,2.36,17.16,5.17,25.77,7.67,10.27,2.98,20.57,5.87,30.89,8.7,3.1.85,6.29,1.38,8.79-2.11-.84-.93-1.35-2.02-2.13-2.28-7.95-2.6-15.82-5.67-23.97-7.42-12.79-2.75-25.34-6.26-37.77-10.19-11.62-3.67-23.32-5.56-37.22-3.87ZM1442.94,971.41c-.58.24-1.16.49-1.73.73,5.6,11.61,10.82,23.42,16.96,34.74,3.42,6.29,8.18,11.9,12.68,17.53,10.27,12.85,20.71,25.56,31.19,38.25,1.44,1.75,3.48,3.01,5.56,4.76,3.11-9.67,1.51-14.92-5.37-19.55-2.27-1.53-4.79-2.73-6.98-4.37-3.98-2.98-8.78-5.48-11.51-9.39-11.41-16.38-22.22-33.19-33.16-49.9-2.72-4.15-5.11-8.53-7.65-12.8ZM801.8,955.58c-.3-.38-.59-.77-.89-1.15-5.01,1.37-10.17,2.39-15,4.23-4.12,1.57-9.18,3.16-11.53,6.4-5.87,8.08-13.85,13.49-21.19,19.77-3.33,2.85-6.04,6.2-5.16,12.49,20.61-11.63,37.96-25.69,53.78-41.74ZM673.72,696.68c1.22.06,1.79.26,2.18.08,12.43-5.81,24.93-11.48,37.17-17.65,2.63-1.33,4.7-4.27,6.36-6.89,2.79-4.4,5.12-9.09,7.49-13.75,1.12-2.2,3.26-4.18,2.37-8.02-7.83,9.62-16.27,17.48-26.62,22.43-8.62,4.12-16.49,9.22-24.49,14.28-3.66,2.32-5.23,5.05-4.45,9.53ZM1381.11,599.92c-1.57-2.81-3.1-5.66-4.85-8.37-4.7-7.27-9.51-14.47-14.36-21.65-.28-.42-1.31-.33-2.71-.63-.93,5.19.44,9.66,3.05,13.52,20.01,29.56,23.01,32.74,23.01,32.74,17.25,18.1,11.82,18.72,33.77,44.1,20.87,24.14,40.45,40.54,41.04,39.96,1.17-1.17-66.61-77.64-78.95-99.68ZM949.63,883.2c-5.73,1.14-11.68,1.67-17.15,3.58-6.26,2.18-13.33,2.08-18.78,6.72-3.39,2.89-7.2,5.29-10.77,7.98-4.14,3.12-6.78,7.24-9.05,13.21,20.46-8.76,39.64-17.02,55.75-31.49ZM1564.74,1020.23c-2.24-6.16-5.74-10.02-10.24-12.36-12.65-6.59-22.43-16.52-32.23-26.48-10.11-10.27-20.11-20.65-30.31-30.83-2.66-2.66-5.33-5.82-10.92-5.53,1.38,1.66,1.94,2.91,2.88,3.37,5.12,2.47,7.82,7.27,11.47,11.2,5.41,5.8,11.42,11.02,17.02,16.63,12.49,12.52,25.1,24.9,38.76,36.16,3.8,3.13,7.69,6.03,13.55,7.84ZM1068.62,1059.63c3.01-5.57,4.64-11.54,5.31-17.75.85-7.91,1.19-15.89,2.22-23.77,1.36-10.36,3.41-20.64,4.71-31.01.75-5.99.61-12.1.87-18.15-4.85,5.16-5.55,11.25-6.34,17.34-1.51,11.6-2.93,23.22-4.68,34.79-1.93,12.76-3.54,25.51-2.08,38.56ZM892.3,981.39c15.77-3.17,43.32-26.46,47.71-40.45-2.98,2.13-5.55,4.05-8.21,5.86-6.75,4.59-13.16,9.9-20.41,13.48-8.5,4.21-13.82,11.06-18.98,18.35-.43.61-.09,1.77-.11,2.77ZM1369.66,942.16c3.32,19.48,1.25,38.72,6.06,57.28,2.09-16.6,3.66-33.18,4.88-49.78.2-2.74-1.11-5.59-1.83-8.87-3.65.55-6.46.97-9.11,1.37ZM796.05,307.49c-1.01-8.31-4.65-14.93-10.35-19.83-11.18-9.62-24.59-15.85-37.33-23.06-.58-.33-1.43-.17-3.18-.35,5.69,4.45,10.34,8.17,15.08,11.78,7.65,5.82,16.55,10.35,20.35,20.09.33.86,1.19,1.62,1.99,2.18,4.45,3.11,8.96,6.14,13.45,9.19ZM1611.04,1127.49c.77-.1,1.54-.19,2.3-.29-.02-1.61.12-3.24-.1-4.81-1.72-12.47-2.37-18.75-4.12-29.62-1.48-9.15-1.54-13.58-4.07-28.98-.65-3.96-3.79-8.85-7.19-14.63-.74-1.27-3.12-1.57-5.34-2.59,4.2,14.08,8.79,27,11.82,40.28,3.04,13.36,4.53,27.08,6.71,40.65ZM888.73,906.08c-.41-.44-.82-.88-1.23-1.32-15.09,3.59-31.31,12.73-41.07,23.47,8.6.15,17.03-1,23.52-4.59,7.27-4.02,12.6-11.56,18.77-17.57ZM1292.9,981.73c-5.14,3.79-9.78,7.68-11.05,14.21-2.22,11.44-4.6,22.85-6.83,34.29-.33,1.69-.16,3.49-.22,5.23.62.09,1.25.19,1.87.28,5.81-17.86,14.12-34.94,16.22-54.02ZM1073.63,930.12c-13.97,1.49-28.05,36.24-28.76,55.36,6.97-19.49,15.37-38.25,28.76-55.36ZM1182.71,652.05c5.86-4.8,11.19-9.17,16.52-13.54,7.3-5.99,10.61-13.78,10.98-24.19-12.01,11.29-21.18,23.22-27.5,37.74ZM1117.73,527.22c-.66-.32-1.31-.64-1.97-.95-6.34,11.25-20.38,14.96-27.33,28.2,6.57-2.03,11.55-3.34,16.35-5.15,1.97-.74,4.3-2.16,5.17-3.91,2.91-5.91,5.24-12.1,7.79-18.19ZM1181.43,634.77c11.26-13.51,25.34-30.54,32.46-39.71.37-.48,1.31-1.09,1.68-2.37,2.39-8.24,3.48-16.69,4.65-25.13-2.83,4.91-7.55,13.11-10.38,18.02-9.46,16.41-18.93,32.81-28.42,49.2ZM799.27,333.79c.7-3.82.77-8.43-3-9.66-5.42-1.77-11.45-1.76-17.24-2.24-.64-.05-1.42,1.63-2.13,2.49,4.76,4.21,15.77,8.81,22.36,9.41ZM904.62,866.51c6.85.65,12.28.99,17.67,1.73,7.09.96,11.58-2.44,14.92-8.54-5.24.26-10.26,1.24-15.26,2.32-5.45,1.17-11.44.15-17.33,4.5ZM1321.19,534.06c-25.71,18.1-51.42,36.2-77.12,54.3-1.8,5.04-3.6,10.08-5.4,15.12,24.91-18.95,49.83-37.9,74.74-56.84,2.59-4.19,5.19-8.38,7.78-12.57ZM1407.65,961.01c2.03-10.12,1.94-20.22-.18-24.9-.41-.9-1.69-1.41-3.27-2.66-2.6,9.87-.39,18.18,3.45,27.56ZM1451.97,914.78c9.14,13.88,17.82,21.51,23.97,21.92-8.39-7.67-16.18-14.79-23.97-21.92ZM821.81,595.95c6.97-8.63,11.29-18.58,15.36-29.84-8.35,9.08-12.26,19.25-15.36,29.84ZM1418.57,931.9c2.92,4.48,5.11,7.84,8.16,12.53,1.86-6.59,2.24-11.3.2-17.14-2.69,1.49-4.91,2.71-8.36,4.62ZM1562.59,1093.45c-.45.23-.89.46-1.34.7,3.02,7.35,6.03,14.7,9.4,22.92,1.66-10.22-3.06-16.97-8.06-23.62ZM826.86,413.4c-3.96-6.02-11.19-6.32-17.13-1.48,2.94.48,5.56,1.07,8.21,1.31,2.62.24,5.28.12,8.93.17ZM959.54,868.44c-2.74-2.25-5.3-3.07-6.99-3.41-7.56-1.49-16.05,3.18-21.68,11.67l28.67-8.26ZM829.36,478.21c-5.04-1.08-10.08-2.16-15.12-3.24-11.07,4.06-16.47,6.58-16.2,7.56.36,1.3,10.8-.14,31.32-4.32Z"/></g></svg>