<svg xml:space="preserve" style="max-height: 500px" viewBox="107.84313725490196 462.56 458.8235294117647 439.04" y="0px" x="0px" xmlns:xlink="http://www.w3.org/1999/xlink" xmlns="http://www.w3.org/2000/svg" id="Layer_1" version="1.1" width="458.8235294117647" height="439.04">
<style type="text/css">
	.st0{fill:#EF4136;stroke:#FFFFFF;stroke-width:2;stroke-miterlimit:10;}
	.st1{fill:#F2C2C2;stroke:#FFFFFF;stroke-width:3;stroke-miterlimit:10;}
	.st2{fill:#7B913C;}
	.st3{fill:none;stroke:#652C14;stroke-width:2;stroke-miterlimit:10;}
	.st4{fill:#EF6C6A;stroke:#FFFFFF;stroke-width:2;stroke-miterlimit:10;}
	.st5{fill:#EF4136;}
</style>
<path d="M1128.3,130.2c0,0-7.3-16.3-9.1-15.3s-21.4,33.6-8.8,82.9c12.6,49.2,14.6,17.1,15,13.8s3.3-25.8,3-30.7&#10;&#9;C1128,175.9,1128.3,130.2,1128.3,130.2z" class="st0"/>
<path d="M1145,145.2c0,0-1.6-29.4-6.6-27.5s-15.6,17.8-13,44.2c2.6,26.4,4.1,37.3,5.9,41.3s9.8,2.7,11.3,0&#10;&#9;C1144,200.6,1145,145.2,1145,145.2z" class="st0"/>
<path d="M1219.7,172.2c0,0-6.9-50.3-13.5-49.1c-6.6,1.1-5.5,8.8-9.5,6.1c-4-2.7-4.5-9.9-8-6.1c-3.5,3.7-0.3,2.9,4,42.9&#10;&#9;c4.2,40,6.7,57.6,5.6,61C1197.4,230.2,1219.7,172.2,1219.7,172.2z" class="st0"/>
<path d="M1150,129.9c0,0,0.9-14,9.8-13.7c8.9,0.3,10.7,12,10.5,13.7s-18.5,0-18.5,0" class="st0"/>
<path d="M1227.2,125.5c0,0-1.5-6.9-5.5-3.8c-4,3.1-3,2.8-2.7,32.5s-5.7,50.7-1.7,56c4,5.3,9.6,3.8,12-2.1&#10;&#9;C1231.8,202.2,1228.8,135.8,1227.2,125.5z" class="st0"/>
<path d="M1240.2,155.8c0,0,12.1,12.7,7.1,42.2s-15.2,38.6-15.6,38.8s0-34.7,0-34.7L1240.2,155.8z" class="st0"/>
<path d="M1226.4,212.8c0,0,8-29.7,3.3-52.3s-5.9-40.3-0.9-43.7s16.3,8,16.9,32s-6.5,53.2-6.3,55.7&#10;&#9;C1239.7,207.1,1226.4,212.8,1226.4,212.8z" class="st0"/>
<g>
	<path d="M1102.2,215.9c0,0-0.3-33.5,15.6-56.9s31.2-36.9,34-36.9s4.4,2.8,6.4,1.5s2-2.8,5-1.5s5.8,2.2,7.8,1.8&#10;&#9;&#9;s3.5-1.2,6.5-1s6.5,1.8,7.9,2.5s5.3-1.2,7.5-0.2s23.3,23.7,24.2,61s0.7,46.9-4.6,52.8c-5.3,5.9-24.1,15-31.1,16.1&#10;&#9;&#9;c-7.1,1.1-33.3,4.6-38.8,4.3s-19.5-0.7-24.2-4.3C1113.5,251.4,1102.2,215.9,1102.2,215.9z" class="st1"/>
</g>
<path d="M1203.9,243.7c0,0,5.8-22.2,3.8-42.8s-3.3-46.2,6-54.8s10.2,6.2,10,38.5s-7.2,51.4-7.9,52.2&#10;&#9;S1203.9,243.7,1203.9,243.7z" class="st0"/>
<path d="M1175.1,236.9c0,0,8.6-57.2,4.1-80s-15.1-25.8-19.4-21.5s-17.8,50.8-8,83s19.9,42.9,21.1,43.8&#10;&#9;C1174.2,263.2,1175.1,236.9,1175.1,236.9z" class="st0"/>
<path d="M1175.1,203.2c-0.6-1,15.1-62,17.7-63s17.1,46.8,9.5,77.6s-21.9,23.4-21.9,23.4L1175.1,203.2z" class="st0"/>
<path d="M1145,222c0,0-3.4-22.3-4.7-49.8s-6.3-51.5-9.6-50.2s-17.1,17.2-11.7,51.7s12.8,56.2,13.4,57.5&#10;&#9;s13.9-9.2,13.9-9.2l-27.2,23.7c0,0-18.1-33.2-17.8-66.2c0.2-33,1-62-2.8-59.5s-17.1,17.2-13.2,47.5s12.2,57.2,13.2,63.5&#10;&#9;s16.2,28.9,17,30.1s30.8-16.1,30.8-16.1s1.5-20.6,2.1-21.1c0.6-0.4-1-6.9-1-6.9L1145,222z" class="st0"/>
<path d="M1171.5,268.3c0,0-3.8-53.9,2.2-72.9s19.2-23.5,26.7,0s-7.7,70.6-7.7,70.6L1171.5,268.3z" class="st0"/>
<path d="M1207.1,244.9c0,0,18.1-54.8,26.1-56s12,53.9-3.8,79.4S1207.1,244.9,1207.1,244.9z" class="st0"/>
<path d="M1137.7,234.9c-0.8-0.8-3.8-39-4.7-51.5s-8.6-25.8-12.8-24.2s-23.8,51.5-1.2,86.5s28.6,21.8,29.3,21&#10;&#9;S1137.7,234.9,1137.7,234.9z" class="st0"/>
<path d="M1101.2,223.9c-0.5,0.8-9.2-37.9-10.2-59.9s1.8-23.8-1-22s-21.5,36.5,0,75.8S1101.2,223.9,1101.2,223.9z" class="st0"/>
<path d="M1186.9,265.8c0,0,7.2-17.9,15.1-29.7s10.7-14.5,11.7-14.1c0.9,0.4,16,31.4,12.2,47.3s-12.6,24.2-13.5,24.5&#10;&#9;c-0.9,0.3-15.8-1.2-16.6-1.2S1183.2,274.4,1186.9,265.8z" class="st0"/>
<path d="M1132.7,263.7c0,0-1.4-18.3,2.2-35.3c3.7-17,5.9-19.8,8-20.3s33.1,28.1,30.1,56.6s-19.6,28.8-20.2,28.5&#10;&#9;s-11.8-5.8-12.5-6.5C1139.6,285.9,1132.7,263.7,1132.7,263.7z" class="st0"/>
<path d="M1117.8,259.4c0,0-13.5-34.3-19.4-44.6c-5.9-10.3-8.8-7.3-9.7-6.7c-0.9,0.7-8.9,31.7,3.3,59&#10;&#9;c12.2,27.4,17,30.2,17.7,30.2s8.7-4.1,9.4-4.2C1119.7,293.2,1117.8,259.4,1117.8,259.4z" class="st0"/>
<path d="M1207.7,292.7c0,0,4.8-10.7,12.6-20.6c7.7-9.8,11.1-11.9,11.4-10.9c0.3,1,0.5,30.2-7.3,40.1&#10;&#9;c-7.8,9.9-11.8,10.3-12,9.9C1212,310.9,1207.7,292.7,1207.7,292.7z" class="st0"/>
<path d="M1159.8,289.8c0-0.7,1.7-12.6,9.6-22.5c7.9-9.9,7.2-14.1,9.2-14.7s22,16.4,19.9,30.5&#10;&#9;c-2.1,14.1-10.5,22.3-11.3,22.8c-0.8,0.5-22.8-3.1-22.8-3.1L1159.8,289.8z" class="st0"/>
<path d="M1147.4,286.2c0,0-14.6-29.6-22-38c-7.4-8.4-11-10.3-12.7-8.5c-1.7,1.8-8.5,32.5-2.5,51.5s17.4,20.2,17.4,20.2&#10;&#9;l16.1-11.2L1147.4,286.2z" class="st0"/>
<path d="M1104.7,286.2c0,0-0.1-0.2-0.2-0.5c-1.7-4-13.3-31-14.6-30.6c-1.4,0.4-5.6,18.4,4.8,31.1" class="st0"/>
<path d="M1133.1,311.3c0,0-1.7-8.8,2.1-19.8c3.8-11,12-16.2,14.8-15.3s18.7,16.6,20.4,27.6c1.7,11-0.5,17.5-3,19.6&#10;&#9;c-2.5,2.1-11.5,5.2-14.3,5.9c-2.7,0.8-10.7-3.2-11.8-3.8C1140.3,324.9,1133.1,311.3,1133.1,311.3z" class="st0"/>
<path d="M1118.7,300.4c0,0-14.1-14-17.8-22.5c-3.7-8.5-5-10.2-5.4-9.4c-0.4,0.8-7.6,31.7,9.7,47&#10;&#9;C1122.5,330.8,1118.7,300.4,1118.7,300.4z" class="st0"/>
<path d="M1181.3,303.8c0,0,11-26.3,16.4-27.7c5.4-1.5,14.5,11.4,14.7,25.6c0,4.2-0.5,7.8-1.2,10.7&#10;&#9;c-1.7,6.9-4.8,10.3-5.5,10.9c-1,0.9-15,4-16.8,3.4C1187,326.1,1181.3,303.8,1181.3,303.8z" class="st0"/>
<path d="M1212.8,313c0.4-0.7,2.7-5.4,7.7-11.6c5-6.2,5-13.3,6.4-11.2c1.4,2.1-2.5,30.7-14.1,36.6&#10;&#9;C1201.2,332.6,1209.4,318.7,1212.8,313z" class="st0"/>
<path d="M1153.1,328.7c0,0,3.1-8.3,9.8-19.1c6.7-10.9,11.8-13.3,13.1-12.7c1.3,0.7,15.1,15.5,16.6,25.4&#10;&#9;c1.5,9.9-9.3,16.9-11,17.7c-1.7,0.7-19.1,1.4-19.1,1.4L1153.1,328.7z" class="st0"/>
<path d="M1140.3,313.5c0,0-25.5-20.8-27.4-19c-1.8,1.8-7.5,19-6.3,24.6c1.2,5.5,11.9,18.6,13.7,19.3s9.7-1,10.2-0.8&#10;&#9;s6.6-0.8,6.6-1.6C1137.1,335.2,1140.3,313.5,1140.3,313.5z" class="st0"/>
<path d="M1195.7,325.4c0,0,3.5-10.3,10-17.5c6.4-7.2,6.5-14.1,8.1-14.1s6.9,19.3-2.4,32.9c-9.3,13.7-16.5,10.3-16.9,10&#10;&#9;C1194.1,336.4,1195.7,325.4,1195.7,325.4z" class="st0"/>
<path d="M1172.6,339.9c0,0,2.6-8,11.3-14.7c8.6-6.7,9.4-9.4,10.3-8.5s6.3,5.9,2.5,16c-3.8,10.1-9,12.4-9.8,12.7&#10;&#9;S1172.6,339.9,1172.6,339.9z" class="st0"/>
<path d="M1160.7,332c0-0.1-8.3-10.3-13.7-15.4s-6.8-7.7-8.1-6.9c-1.3,0.8-14.4,17.8-7.6,29.2&#10;&#9;c6.8,11.4,14.7,10.5,15.2,10.1C1147,348.6,1160.7,332,1160.7,332z" class="st0"/>
<path d="M1202.3,333.8l-0.9-2.8c0,0,5.5-3.8,9.8-6.1c4.3-2.4,2.8-3,4.3-2.4c1.6,0.7-4.1,12.3-13.1,16.6&#10;&#9;C1193.4,343.5,1202.3,333.8,1202.3,333.8z" class="st0"/>
<path d="M1120.4,333.8c0,0-4.8-4.5-10.3-11.5c-5.5-7-6.4-10.4-7.2-9.1c-0.8,1.3,3.3,24.2,16.4,26.7&#10;&#9;C1132.3,342.4,1120.4,333.8,1120.4,333.8z" class="st0"/>
<path d="M1173.8,354.1c0,0,7.9-11.4,16-18.2c8.1-6.8,9.6-8,11.4-6.8c1.8,1.2,3.9,6.9,2,12.3s-8.1,12.4-14.3,15.8&#10;&#9;S1172.6,361.7,1173.8,354.1z" class="st0"/>
<path d="M1146.3,346.9c0,0,10.5-19.7,14.7-20.7c4.2-1,12,4.3,13.9,11.4s-8.1,14.3-8.8,15.7S1147.4,353.6,1146.3,346.9z" class="st0"/>
<path d="M1142.9,345c0,0-17.8-10.9-22-13.2c-4.2-2.4-4.7-3.4-4.8-1.8c-0.1,1.6,7.7,25.2,22.4,25.4&#10;&#9;C1153.2,355.5,1142.9,345,1142.9,345z" class="st0"/>
<path d="M1163.6,361.7c-0.9,0.1-7.8-15-17.9-19.2c-10.1-4.2-12.1-6.3-12.6-4.1c-0.5,2.2,4.5,23.4,16.5,27.6&#10;&#9;C1161.6,370.3,1163.6,361.7,1163.6,361.7z" class="st0"/>
<path d="M1159.8,353.7c0,0,12.2-18.4,14.8-18.5c2.7-0.1,9,9.5,9.3,17.3c0.3,7.8-18.1,17.9-22.3,12.5&#10;&#9;C1157.4,359.7,1159.8,353.7,1159.8,353.7z" class="st0"/>
<path d="M695.4,524.6c-0.2-0.7-1.8-20.2-4.7-19.6c-2.9,0.7-19.8,37.6-22.4,65.8c-2.7,28.2,8.9,21.8,9.6,20.8&#10;&#9;c0.7-1,16.3-26.2,16.2-32.6C694.1,552.6,695.4,524.6,695.4,524.6z" class="st0"/>
<path d="M719.2,530.8c0,0,1.7-20.9,6.9-20.2c5.3,0.7,15,48.3,14.9,68.2c-0.1,19.9-5.5,27.9-8.1,28.5&#10;&#9;c-2.6,0.6-10.2-3.4-12.8-9.3C717.4,592.1,719.2,530.8,719.2,530.8z" class="st0"/>
<path d="M699.1,523.5c0.1-0.7,4.3-23.8,4.3-23.8s4.4-5.1,7.3-4.9c2.9,0.2,13.4,44,13.9,72.4&#10;&#9;c0.5,28.4-12.2,26.9-13.5,25.3C709.8,591,697.5,532.1,699.1,523.5z" class="st0"/>
<path d="M665.4,574.1c0,0,10.6-23.3,23-46c12.3-22.7,12.6-29.3,15-28.4c2.4,0.9-0.7,36.9,6.2,57.8s5.7,28-1.1,40.5&#10;&#9;c-6.7,12.6-9.6,20.6-16.7,28.1c-7.1,7.6-18.2,16.9-21.3,13.2C667.4,635.7,665.4,574.1,665.4,574.1z" class="st0"/>
<path d="M743,574c0,0,10.3-21.8,12.3-21.5c2,0.2,4.4,48.8,2.7,64.4c-1.7,15.6-10.1,13.6-11.3,12.9&#10;&#9;c-1.2-0.7-9.1-19.5-9.9-21.9C736.1,605.5,743,574,743,574z" class="st0"/>
<path d="M726.1,622c0,0,0.8-23.6,7.9-40.1c7-16.5,6.7-28.8,8.5-27.9c1.8,0.9,19.1,56,11.4,83.9&#10;&#9;c-7.7,27.9-22.3,0.1-22.3,0C731.7,637.8,726.1,622,726.1,622z" class="st0"/>
<path d="M685.5,621.9c0,0,5.6-48,16.7-68.2c11.1-20.2,11.9-21.1,12.5-20.5c0.6,0.6,15.3,38.8,16.8,69.1&#10;&#9;c1.5,30.3-14.2,43.8-15.1,44.3c-0.9,0.5-18.4-1.5-18.7-2.5C697.4,643,685.5,621.9,685.5,621.9z" class="st0"/>
<path d="M628.1,647.3c-0.2-0.7-0.1-35.4,5.7-63.1c5.8-27.7,13.7-32.5,14.8-31.6c1,0.9,3.9,19.9,3.9,28.2&#10;&#9;c0,8.2-3.6,49-3.1,50.4C649.8,632.5,630.1,653,628.1,647.3z" class="st0"/>
<path d="M638.4,638.3c0,0,10.2-58.3,20.8-80.6c10.6-22.3,13-23.7,13.3-22.8c0.3,0.9-0.6,39.6-0.9,69.1&#10;&#9;c-0.3,29.5-6.9,42-8.1,43.5c-1.2,1.4-7.3,0.8-7.3,0.8L638.4,638.3z" class="st0"/>
<path d="M658.6,648.6c-0.3,1.1,14.4-29.2,28.2-48.3c13.8-19.2,16.5-21,17.1-20.1c0.6,0.9,13.2,57.2,14.2,74.9&#10;&#9;c1,17.7-10.2,38.3-11.2,39.8c-1,1.5-40.8,10.9-42,11.1C663.7,706.2,658.6,648.6,658.6,648.6z" class="st0"/>
<path d="M628.3,673.7c-0.3-0.1-1.2-16.3,6.6-43.2c7.8-26.8,13.2-32.7,14.7-32.5c1.5,0.2,16.4,69.8,20.4,80&#10;&#9;c4,10.2-18.8,5.1-19.1,5.9c-0.3,0.7-14.4,4.2-15.2,3.7C634.9,687,628.3,673.7,628.3,673.7z" class="st0"/>
<path d="M612.2,661.1c-0.2,0.1,6.9-52.9,13.9-55.5c7.1-2.5,2.2,62.6,6.9,73.4c4.8,10.8-13.7-4.2-13.7-4.2L612.2,661.1z" class="st0"/>
<path d="M750.3,645.8c0,0,4.4-30.7,7.7-41.1c3.3-10.3,1.2-11.7,3.6-10.9c2.4,0.8,9.6,44.7,9.3,61&#10;&#9;c-0.3,16.3-7.3,19-7.9,18.9C762.3,673.5,750.3,645.8,750.3,645.8z" class="st0"/>
<path d="M715.7,649.7c0,0,3.7-16.5,12.9-34.2c9.1-17.7,10.4-19.2,11.2-18.9c0.8,0.3,17.6,37.5,18.2,54.6&#10;&#9;c0.6,17.1-21.4,38.7-23.5,38.1c-2.1-0.6-10.4-3-13-7C718.8,678.2,715.7,649.7,715.7,649.7z" class="st0"/>
<path d="M739.1,683.1c0,0.3-0.2-12.9,8.2-29.7c8.4-16.8,7.9-19.5,9.6-19.8c1.6-0.3,10.9,19.8,11.8,38.7&#10;&#9;c0.9,18.9-7.9,28.8-8.4,30.1c-0.4,1.3-10.3,4.8-10.9,4.8C748.8,707.3,739.1,683.1,739.1,683.1z" class="st0"/>
<path d="M769.2,644.9c0,0,7,17.1,6.6,40.1c-0.5,23-9.6,30.7-9.6,30.7s-10.5-8.6-10.9-10c-0.5-1.4,12.6-22.4,11.5-35.6&#10;&#9;C765.8,656.9,767.4,648.1,769.2,644.9z" class="st0"/>
<path d="M673.9,689.1c0,0,4.1-16.2,16.7-33.6c12.6-17.4,17-22.2,18.5-20.8c1.5,1.3,20.5,25.6,21.6,43.6&#10;&#9;c1,18-13.2,26.9-13.8,27.3c-0.6,0.4-36.7-3.5-37.2-3.5C679.3,702.2,673.9,689.1,673.9,689.1z" class="st0"/>
<path d="M359.9,719.1c-0.7,1,43.4-125.6,56.7-160.5c13.3-34.8,18.8-41,19.1-38.6c0.3,2.4-17.9,101.1-33.2,143.7&#10;&#9;c-15.3,42.7-27.9,59.4-28.6,60.8C373.2,725.9,359.9,719.1,359.9,719.1z" class="st0"/>
<path d="M241.8,711.9c0,1.4-38.9-48.8-52.2-94.2c-13.3-45.4-13.7-60.8-11.3-60.1c2.4,0.7,39.6,79.9,53.6,104.6&#10;&#9;c3.5,6.2,6.3,12.7,8.6,19.1c6.9,19,8.8,36.1,8.8,36.1L241.8,711.9z" class="st0"/>
<path d="M266.3,727.6c0,0-34.4-46.1-68.6-75.1c-34.1-29-42.7-51.6-43.7-47.5c-1,4.1,41,107.2,103.1,138.6&#10;&#9;C319.3,775,266.3,727.6,266.3,727.6z" class="st0"/>
<path d="M351.1,712.9c0.5-0.6,112.7-150.6,122.9-146.5c10.2,4.1-90.1,157.5-120,179.4&#10;&#9;C324.1,767.9,337.6,731.2,351.1,712.9z" class="st0"/>
<path d="M303.8,674.2c0,0,36.2-46.3,56.1-107.9c19.9-61.6,29.3-86.3,33-87.4c3.7-1.1-18.8,139.5-50.5,187.4&#10;&#9;C310.8,714.2,303.8,674.2,303.8,674.2z" class="st0"/>
<path d="M303.8,637.4c-0.8-2.3,24.9-160,36.5-153.7c11.6,6.3-5.4,138.4-5.4,138.4L303.8,637.4z" class="st0"/>
<path d="M287.4,620.2c0,0-3.7-133.3,2-141.2c5.7-7.9,14.4,79.5,23,114.7C321,629,291.3,626.7,287.4,620.2z" class="st0"/>
<path d="M274.5,620.2c0,0-5.4-37.5-16.9-81.2c-11.5-43.7-12.5-33.7-15.2-27.4c-2.6,6.3-2.1,104.2,19.5,134.7&#10;&#9;C283.5,676.9,274.5,620.2,274.5,620.2z" class="st0"/>
<path d="M277.9,675.3c0,0-0.5-0.7-1.5-2c-6-8-28.2-40.3-37.4-88.9c-10.7-56.5-17.3-44.4-18.2-39.7&#10;&#9;c-0.9,4.7,3.4,145.2,34.9,168.9" class="st0"/>
<path d="M325.8,747c0,0,47.1-92.8,60.8-140.9c13.7-48.1,11.6-57.7,14-58.4c2.4-0.7,9.2,60.4-14,125&#10;&#9;c-23.2,64.5-38.4,79-39.2,80.3C346.6,754.3,325.8,747,325.8,747z" class="st0"/>
<path d="M294,771.7c0,0-41.9-20.5-67.9-82.6c-27-64.4-21.8-85.2-19.5-84.1c2.4,1,26.6,84.3,58,114&#10;&#9;C296.1,748.8,294,771.7,294,771.7z" class="st0"/>
<path d="M335,753.1c-0.3-0.6,47.1-54.2,76.5-78.8c29.4-24.6,35.5-26.3,34.8-22.5c-0.7,3.8-63,81.2-88.4,101.3&#10;&#9;C332.5,773.2,335,753.1,335,753.1z" class="st0"/>
<path d="M281.4,757.8c0,0-17.1-19.1-45.1-27.9c-28-8.8-31.4-9.8-30-7.1c1.4,2.7,35.9,49.3,75.5,47&#10;&#9;C321.3,767.5,281.4,757.8,281.4,757.8z" class="st0"/>
<path d="M258.2,703.3c0,0-3.4-67.1,5.8-100.3c9.2-33.2,46.4-30.8,64.9-23.6c18.4,7.2,32.8,36.2,24.6,105.2&#10;&#9;c-8.2,69-29.7,83-50.2,77.5C282.8,756.6,258.3,705,258.2,703.3z" class="st1"/>
<path d="M312.9,382.4c0,0,47.1-7.5,93.2-16.6c46-9.1,41.3-26.5,78.1-27.6c32.1-0.9,75.7-7.6,89.1-1.5&#10;&#9;c2,0.9,3.3,2.1,3.8,3.6c4,11.7-41.6,32-87.6,50.8C443.4,409.9,361.2,418.4,312.9,382.4z" class="st2"/>
<g>
	<path d="M312,390.3c0,0,47.1-7.5,93.2-16.6c46-9.1,41.3-26.5,78.1-27.6c32.1-0.9,75.7-7.6,89.1-1.5&#10;&#9;&#9;c2,0.9,3.3,2.1,3.8,3.6c4,11.7-41.6,32-87.6,50.8C442.5,417.8,360.3,426.4,312,390.3z" class="st3"/>
	<path d="M570.1,350.9c0,0-145.8,66.9-258.1,39.4" class="st3"/>
</g>
<path d="M304.6,378.3c0,0-27.1,5.3-53.9,9.5c-26.8,4.2-27.7-6.2-47.9,0.6c-17.6,5.9-42.6,11-48.7,16.9&#10;&#9;c-0.9,0.9-1.4,1.8-1.4,2.7c0.2,7.1,28.9,9.1,57.7,10.1C239.3,419.2,285.6,407.5,304.6,378.3z" class="st2"/>
<path d="M307.5,759.5c-0.6,0.8,21.4-37.1,42.6-89.1c21.3-52,28.2-67.9,30.7-67.4c2.6,0.5-14.8,119.3-39.4,146.7&#10;&#9;c-2.3,2.5-4.4,4.8-6.5,6.8c-0.4,0.4-0.8,0.8-1.2,1.1c-19.7,19.3-30.3,18.3-29.9,16.8C304.3,772.8,307.5,759.5,307.5,759.5z" class="st0"/>
<path d="M306.2,764.8c0,0-58.3-80.7-70.6-114.4c-12.3-33.8-15-32-15.4-28.3c-0.3,3.7,40.6,146.7,73.4,156.3&#10;&#9;C326.5,788,306.2,764.8,306.2,764.8z" class="st0"/>
<path d="M328.1,758c0,0,74.3-31.5,113.9-50.5c39.7-18.9,46.9-19.3,45.6-15.8c-1.3,3.5-46.1,41.7-94.5,67&#10;&#9;c-48.4,25.3-75.8,24.1-75.8,24.1L328.1,758z" class="st0"/>
<path d="M303.9,774.6c0,0-29.6-17.2-64.1-17.6c-34.5-0.4-72,2-69,5.1c3.1,3.1,108.7,21.7,126.4,18.7&#10;&#9;C314.9,777.8,303.9,774.6,303.9,774.6z" class="st0"/>
<g>
	<path d="M306.7,382.5c0,0-27.1,5.3-53.9,9.5c-26.8,4.2-27.7-6.2-47.9,0.6c-17.6,5.9-42.6,11-48.7,16.9&#10;&#9;&#9;c-0.9,0.9-1.4,1.8-1.4,2.7c0.2,7.1,28.9,9.1,57.7,10.1C241.3,423.4,287.6,411.6,306.7,382.5z" class="st3"/>
	<path d="M158.7,412.4c0,0,92.5,7.3,148-30" class="st3"/>
</g>
<path d="M297.7,819.4c0,0-29.9,9.3-59.6,17.3c-29.7,8-32-3.6-54,6.5c-19.1,8.8-46.8,17.6-52.9,25&#10;&#9;c-0.9,1.1-1.3,2.2-1.2,3.2c1.1,8,33.8,6.7,66.3,4.4C228.9,873.6,279.8,854.7,297.7,819.4z" class="st2"/>
<g>
	<path d="M300.5,823.9c0,0-29.9,9.3-59.6,17.3c-29.7,8-32-3.6-54,6.5c-19.1,8.8-46.8,17.6-52.9,25&#10;&#9;&#9;c-0.9,1.1-1.3,2.2-1.2,3.2c1.1,8,33.8,6.7,66.3,4.4C231.7,878,282.6,859.1,300.5,823.9z" class="st3"/>
	<path d="M137.2,875.8c0,0,105.2-3,163.3-51.9" class="st3"/>
</g>
<path d="M299.2,777.7c0,0-12.3-45.3-4.1-93.5c8.2-48.1,12.5-82.2,15.1-81.2c2.6,1,12.3,56.8,12.5,96.3&#10;&#9;c0.3,39.4-1.9,66.7-8.2,74.2C308.1,781,299.2,777.7,299.2,777.7z" class="st0"/>
<path d="M305.8,769.8c0,0,10.4-10.8,29-22.8c18.6-12,22.5-18.1,23.2-17c0.7,1.1-17.9,46.9-40.3,52.9&#10;&#9;C295.2,788.9,305.8,769.8,305.8,769.8z" class="st0"/>
<path d="M310.2,772.8c0,0-34.1-42.8-40.5-38.9c-6.4,3.8,16.4,42.4,25.6,48L310.2,772.8z" class="st0"/>
<path d="M733.5,187.1c0-0.8,4.7-42.6,9.8-46.8c5.1-4.2,21,9.3,25.3,38c4.3,28.7-9.3,31.9-10.4,32.7&#10;&#9;c-1.1,0.8-15-5.1-16.6-7.6C740,200.9,733.5,187.1,733.5,187.1z" class="st0"/>
<path d="M762.1,201.8c-0.6-1.3-0.6-45.1,2.7-45c3.3,0.1,32,46.6,27.4,88c-4.6,41.4-26.4,27.2-27.2,26.4&#10;&#9;C764.2,270.3,762.1,201.8,762.1,201.8z" class="st0"/>
<path d="M775.7,254.4c0,0,3.6-63.6,8.7-61.5c5.1,2,15.5,33.1,13.2,54c-2.3,20.8-20.6,14.1-22.7,7.5" class="st0"/>
<path d="M738.1,234.1c-0.1-0.6,3.6-66.8,11.2-70c7.6-3.2,28.5,65,28,95.9C776.9,290.7,740.4,245,738.1,234.1z" class="st0"/>
<path d="M730.9,243.7c0,0-5-55.4,1.5-61.9c6.5-6.6,12.3,33.4,23.6,58.7c11.3,25.4-3.1,34.2-4.6,33.8&#10;&#9;C749.8,273.9,730.9,243.7,730.9,243.7z" class="st0"/>
<path d="M722.9,282.7c0,0,0-0.6,0-1.6c0.3-8.9,1.8-51.6,7.8-56.1c6.7-5.1,17.5,23.7,18.1,35.5c0,0,2.7-33.8,9.9-34&#10;&#9;c7.2-0.2,17.3,25.9,17.8,37.1c0.5,11.1,8.8-32,12.5-31.6c3.6,0.5,18.2,20.5,18.8,46.1c0.6,25.6-8.6,35.7-12.3,36.7&#10;&#9;c-3.8,1-19.6,1.4-24.7,0.2c-5.1-1.3-23.7-2.6-25.8-4.8c-2.2-2.2-14.3-6.9-15.7-10.3L722.9,282.7z" class="st0"/>
<path d="M718.5,317.3c0,0-3.3-41.5,8.2-52.7c0,0,14.6,13.1,14.9,36c0.2,22.9-10.7,30.9-11.1,31.3&#10;&#9;C730.1,332.3,718.5,317.3,718.5,317.3z" class="st0"/>
<path d="M756.7,302c0,0,13.4-46.9,18.2-47.7c4.9-0.8,21.7,33.6,21.9,54.3c0,0,1.2-37.9,5.4-42.5&#10;&#9;c0,0,17.3,19.3,15.8,44.4c-1.5,25-11.5,33.2-11.5,33.2c0,0-18.2,0.2-20.7-0.8c-2.5-1-14.3-3.3-16.9-7.2&#10;&#9;C766.3,331.9,756.7,302,756.7,302z" class="st0"/>
<path d="M731.9,308.4c0,0,8.2-48.8,14.1-52.3c5.8-3.5,25.7,39.3,25.4,63.5c-0.2,24.3-22.4,4-23,3.8&#10;&#9;C747.8,323.1,731.9,308.4,731.9,308.4z" class="st0"/>
<path d="M729,328.9c-0.6-0.2-3.3-30.6,9.4-46.9c0,0,20.4,22.5,22,40.7c1.7,18.2-3.4,29.2-4,29.5&#10;&#9;c-0.5,0.3-12.1,2.5-14.8,1.6c-2.7-0.9-9.9-2.8-11.5-5.8C728.5,344.9,729,328.9,729,328.9z" class="st0"/>
<path d="M717.6,363.3c0,0-12.9-33.1,5-57.7c0,0,18.2,20,20.5,42.9l7-4.1c0,0,4.5-30.5,16.5-45.9c0,0,15.4,26.5,17,46.8&#10;&#9;c0,0-4.9-30.5,9.7-48.2c0,0,16.8,22.6,18.5,38.7c0,0-0.8-28.9,6.6-37c0,0,15.2,36.8,6,54.9c-9.3,18.1-79.6,38.1-87.6,28.9&#10;&#9;C728.8,373.5,719,362.9,717.6,363.3z" class="st0"/>
<path d="M717.6,376.1c0,0-5.4-25.8,5-44.9c0,0,13.8,17.5,14.3,31.5c0.5,14-0.5,22.7-0.5,22.7s1.3-42.3,13.5-54.9&#10;&#9;c0,0,17.9,16.2,16.7,44c0,0,2.3-28.2,17.5-42.4c0,0,20.2,17.9,19.1,43.7c0,0,0-35.4,9.5-47.3c0,0,18.7,27.7,11.1,43.2&#10;&#9;c-7.6,15.5-35.9,33.4-36.6,34.1c-0.6,0.7-53,0.4-60.2-13.1C719.8,379.1,717.6,376.1,717.6,376.1z" class="st0"/>
<path d="M734.7,408.3c0,0-27-16.4-19.7-42.1c0,0,12.5,22.1,20.9,30.6c0,0-2.3-16,7.8-30.3c0,0,15.9,14.5,14,33.8&#10;&#9;c0,0,1-25.4,13.7-38.4c0,0,17.7,15.3,12.9,35.4c0,0,8.4-20.4,21.7-31.5c0,0,13.6,10.7,6.4,22.2c-7.2,11.5-24.4,21.6-24.4,21.6&#10;&#9;s-16.3,12.6-21.9,13C760.6,423,741.9,417,734.7,408.3z" class="st0"/>
<path d="M753.7,424.1c0,0-8.4-8.8,4.6-26c0,0,12.4,11.4,7.1,22.5C760,431.8,753.7,424.1,753.7,424.1z" class="st0"/>
<path d="M768,422c0,0,7.2-23.6,19-29c0,0,6.6,10.5-1.4,20.4C777.6,423.2,768,422,768,422z" class="st0"/>
<path d="M749.5,419.3c0,0-4-24.3-15-31.2c0,0-7.9,9.5-1.3,20.4C739.8,419.2,749.5,419.3,749.5,419.3z" class="st0"/>
<path d="M735.6,424.7c0.2,1.1-42.2-7.8-66.5-62.5c-24.2-54.7-26.2-86.9-39-110.7c-12.8-23.8-26.5-26.4-29.8-21&#10;&#9;c-3.2,5.4,1,61.5,0.6,92.4c-0.4,30.9,38.5,86.4,77.1,96.8c38.6,10.4,57.9,10.2,57.9,10.2L735.6,424.7z" class="st2"/>
<g>
	<path d="M739,420.8c0.3,1.1-42.8-3.4-72.5-55.4c-29.7-51.9-35-83.8-50.2-106.1c-15.2-22.4-29.1-23.5-31.8-17.8&#10;&#9;&#9;c-2.6,5.7,7.3,61.1,10.1,91.9c2.8,30.8,47.1,82,86.6,88.4c39.5,6.4,58.7,4.2,58.7,4.2L739,420.8z" class="st3"/>
	<path d="M590.9,245.4c0,0,17.5,20.7,25.5,75.9c7.9,55.2,78.6,100.8,114,103.9" class="st3"/>
</g>
<path d="M1167.2,371.7c0.2,1.1-42.2-7.8-66.5-62.5c-24.2-54.7-26.2-86.9-39-110.7c-12.8-23.8-26.5-26.4-29.8-21&#10;&#9;c-3.2,5.4,1,61.5,0.6,92.4c-0.4,30.9,38.5,86.4,77.1,96.8c38.6,10.4,57.9,10.2,57.9,10.2L1167.2,371.7z" class="st2"/>
<g>
	<path d="M1170.7,367.8c0.3,1.1-42.8-3.4-72.5-55.4c-29.7-51.9-35-83.8-50.2-106.1c-15.2-22.4-29.1-23.5-31.8-17.8&#10;&#9;&#9;c-2.6,5.7,7.3,61.1,10.1,91.9c2.8,30.8,47.1,82,86.6,88.4c39.5,6.4,58.7,4.2,58.7,4.2L1170.7,367.8z" class="st3"/>
	<path d="M1022.5,192.4c0,0,17.5,20.7,25.5,75.9c7.9,55.2,78.6,100.8,114,103.9" class="st3"/>
</g>
<g>
	<path d="M276.9,814.4c0.2,1.1-41-7.6-64.5-60.7c-23.5-53.1-25.5-84.4-37.9-107.5c-12.4-23.1-25.8-25.6-28.9-20.4&#10;&#9;&#9;c-3.1,5.3,1,59.7,0.6,89.8c-0.4,30,37.4,83.9,74.9,94c37.5,10.1,56.2,9.9,56.2,9.9L276.9,814.4z" class="st2"/>
	<g>
		<path d="M280.3,810.6c0.3,1.1-41.6-3.3-70.4-53.8c-28.9-50.4-34-81.3-48.7-103.1c-14.7-21.7-28.3-22.9-30.8-17.3&#10;&#9;&#9;&#9;c-2.6,5.6,7.1,59.3,9.8,89.2c2.7,29.9,45.8,79.6,84.1,85.8c38.3,6.2,57,4.1,57,4.1L280.3,810.6z" class="st3"/>
		<path d="M136.4,640.3c0,0,17,20.1,24.7,73.7c7.7,53.6,76.4,97.9,110.7,100.9" class="st3"/>
	</g>
</g>
<path d="M759.4,433.8c0,0,12.9-0.1,32.2-26.9c19.3-26.8,39-29.6,81.3-39.8c42.3-10.2,132.4-38.6,132.6-20.9&#10;&#9;c0.1,17.7-49.2,40.4-102.3,56.3c-53.1,15.9-76.5,39.2-106.5,42c-30,2.8-37.6-7.6-37.6-7.6C759.4,433.8,759.4,433.8,759.4,433.8z" class="st2"/>
<g>
	<path d="M763.2,443c0,0,24,1,93.6-39.6c69.6-40.7,125.6-41.5,125.6-41.5" class="st3"/>
	<path d="M756.8,441.6c0,0,12.9-0.1,32.2-26.9c19.3-26.8,39-29.6,81.3-39.8c42.3-10.2,132.4-38.6,132.6-20.9&#10;&#9;&#9;c0.1,17.7-49.2,40.4-102.3,56.3c-53.1,15.9-76.5,39.2-106.5,42.1c-30,2.8-37.6-7.6-37.6-7.6C756.8,441.6,756.8,441.6,756.8,441.6z" class="st3"/>
</g>
<g>
	<path d="M1165,402.2c0,0,10.6-3.7,19.2-31.1c8.6-27.4,24.1-35.2,56.3-55.2c32.2-20,98.9-68.3,103.9-53.7&#10;&#9;&#9;c5,14.6-29.6,46.9-69.1,74.6c-39.5,27.7-52.4,53.4-76.5,64c-24,10.6-33.2,4.1-33.2,4.1C1165,402.2,1165,402.2,1165,402.2z" class="st2"/>
	<g>
		<path d="M1170.6,408.8c0,0,20.1-5.7,66.5-58.5c46.4-52.7,92.5-68.8,92.5-68.8" class="st3"/>
		<path d="M1165,409.4c0,0,10.6-3.7,19.2-31.1c8.6-27.4,24.1-35.2,56.3-55.2c32.2-20,98.9-68.3,103.9-53.7&#10;&#9;&#9;&#9;c5,14.6-29.6,46.9-69.1,74.6c-39.5,27.7-52.4,53.4-76.5,64c-24,10.6-33.2,4.1-33.2,4.1C1165,409.4,1165,409.4,1165,409.4z" class="st3"/>
	</g>
</g>
<g>
	<path d="M317.7,817.1c0,0,12.6-0.1,31.3-26.1c18.7-26,37.9-28.7,78.9-38.6c41.1-9.9,128.6-37.5,128.7-20.3&#10;&#9;&#9;c0.1,17.2-47.8,39.2-99.3,54.7c-51.5,15.4-74.2,38.1-103.4,40.8c-29.1,2.7-36.6-7.4-36.6-7.4C317.7,817.1,317.7,817.1,317.7,817.1z" class="st2"/>
	<g>
		<path d="M321.3,826.1c0,0,23.3,1,90.9-38.5c67.6-39.5,122-40.2,122-40.2" class="st3"/>
		<path d="M315.1,824.7c0,0,12.6-0.1,31.3-26.1c18.7-26,37.9-28.7,78.9-38.6c41.1-9.9,128.6-37.5,128.7-20.3&#10;&#9;&#9;&#9;c0.1,17.2-47.8,39.2-99.3,54.7c-51.5,15.4-74.2,38.1-103.4,40.8c-29.1,2.7-36.6-7.4-36.6-7.4C315.1,824.7,315.1,824.7,315.1,824.7&#10;&#9;&#9;&#9;z" class="st3"/>
	</g>
</g>
<g>
	<path d="M837.8,367.2c0,0-3.1-81.6,21.9-126c24.9-44.4,66.8-72.4,68.8-65.2c2,7.2-7.8,58.5-28.3,99.7&#10;&#9;&#9;c-20.5,41.2-29.5,83.2-43.6,87.9C842.5,368.3,837.8,367.2,837.8,367.2z" class="st2"/>
	<g>
		<path d="M832,367.3c0,0,3.2-81.6,31.5-124c28.3-42.3,72.2-67,73.7-59.7c1.5,7.3-12.3,57.7-35.9,97.3&#10;&#9;&#9;&#9;c-23.6,39.5-35.8,80.7-50.2,84.2C836.6,368.8,832,367.3,832,367.3z" class="st3"/>
		<path d="M842.7,355.7c0,0,25.8-107,83.7-162.2" class="st3"/>
	</g>
</g>
<path d="M319.3,781.7c0,0-10.7-21.3-17.8-17.1c-7.1,4.2-11.3,11.6-8.4,15.5C296,784,311.9,788.2,319.3,781.7z" class="st0"/>
<path d="M264.9,600.1c10.3,1.9,21.8,2.9,33.8,2.9c17.8,0,34.3-2.3,47.8-6.1c-4.7-9.3-10.9-14.9-17.7-17.5&#10;&#9;C311,572.5,275.5,570,264.9,600.1z" class="st4"/>
<circle r="3.4" cy="614.6" cx="270.8" class="st5"/>
<circle r="2.4" cy="625.6" cx="285" class="st5"/>
<circle r="1.5" cy="610.4" cx="291.8" class="st5"/>
<circle r="2.6" cy="611.6" cx="330.1" class="st5"/>
<circle r="2.1" cy="620" cx="333.2" class="st5"/>
<circle r="4.4" cy="646.3" cx="333" class="st5"/>
<path d="M680.6,697.2c0,0-10.6-16.4-15.9-32.2c-5.2-15.7-4.9-19.3-6.3-17.9c-1.4,1.4-30,25.2-24.2,54.5&#10;&#9;c5.8,29.3,14.6,32.1,14.8,31.6c0.1-0.5,18.3-8.5,21.8-12C674.4,717.7,680.6,697.2,680.6,697.2z" class="st0"/>
<path d="M699.1,705.7c0,0,4.9-7.5,15.6-21.8c10.7-14.4,11-17.4,12.5-17.4c1.5,0,25.7,22.3,22.9,39.3&#10;&#9;c-2.9,16.9-7.6,25.2-11.5,29.8c-3.9,4.6-16.1,9.7-19.5,9.3c-3.4-0.3-12.9-5-15.2-10.7C701.5,728.4,699.1,705.7,699.1,705.7z" class="st0"/>
<circle r="2.8" cy="619.3" cx="347.2" class="st5"/>
<circle r="4" cy="642.3" cx="285.1" class="st5"/>
<circle r="4.6" cy="658.5" cx="267.7" class="st5"/>
<circle r="3.6" cy="668.7" cx="281.4" class="st5"/>
<path d="M721.3,733.3c0,0,12.1-11.2,19.3-26.1c7.2-14.9,9.5-17.5,11.5-17.2c2,0.3,12,9.8,12,23.3&#10;&#9;c0,13.5,3.6,21.8-4.2,31.3c-7.8,9.5-15.2,17.8-24.9,19.8c-9.6,2-20.1-3-20.3-4.4C714.5,758.7,721.3,733.3,721.3,733.3z" class="st0"/>
<circle r="2.9" cy="670.4" cx="333.1" class="st5"/>
<path d="M641,704.2c-0.2-0.5-5.2-22.5-10.7-37.8c-5.4-15.2-4.9-19.8-6.6-17.7c-1.7,2.1-18.5,24.7-10.6,51.1&#10;&#9;c7.9,26.4,15.9,21.4,15.9,21.4L641,704.2z" class="st0"/>
<path d="M617.3,694.4c0,0-1.4-32.7-1.8-43.8c-0.4-11.2-2.1-12.4-3.8-10.5c-1.7,1.9-13.9,29.8-4.6,51.1&#10;&#9;C616.5,712.5,617.3,694.4,617.3,694.4z" class="st0"/>
<path d="M647.4,726.4c0,0,5.9-15.9,19.8-25.6c13.9-9.6,15.7-13.9,18.6-13.2c2.9,0.7,25.9,23.2,27.8,41.8&#10;&#9;c1.9,18.6-19.3,27.9-31.2,27.7c-11.9-0.2-29.1-6.8-29.5-8.2C652.7,747.6,647.4,726.4,647.4,726.4z" class="st0"/>
<path d="M732.9,761.1c0,0,18.6-14.2,24.5-29.9c5.9-15.7,5.4-29.3,8.5-29c3,0.3,5.1,4.7,5.6,10.4&#10;&#9;c0.5,5.7-4.9,39.9-23.7,51.7C729,776.2,732.9,761.1,732.9,761.1z" class="st0"/>
<path d="M670.8,752.4c0,0,5.2-8.6,20.8-17.5c15.6-8.9,16.8-14.5,19.1-14.3c2.4,0.2,6,5.1,14.6,9.1&#10;&#9;c8.6,4.1,19.9,15.2,13.2,30.1c-6.8,14.8-27.8,24.1-29.3,24.5c-1.5,0.3-18.6,2.9-20,1.7c-1.4-1.2-12.3-9.6-13.4-11.7&#10;&#9;C674.8,772.1,670.8,752.4,670.8,752.4z" class="st0"/>
<path d="M609.5,704.4c0,0,3.9-4.1,10.8-8.5c6.9-4.4,7.4-6.4,8.8-5.8c1.4,0.7,25.5,21.3,32.1,48.4&#10;&#9;c6.5,27.1-31.7,17.1-34.7,12.7c-3-4.4-15.7-32.3-15.8-32.8C610.5,717.9,609.5,704.4,609.5,704.4z" class="st0"/>
<path d="M617.3,738.9c-22.3-28.3-11-54.7-9-55c2-0.3,3.7,11,7.2,27.9c3.4,16.9,8.9,29.5,8.9,29.5L617.3,738.9z" class="st0"/>
<circle r="4.3" cy="641.8" cx="344.2" class="st5"/>
<circle r="2.3" cy="633.8" cx="268.6" class="st5"/>
<path d="M627.8,750.1c0,0,2.9-6.9,13-10.8c10.2-3.9,10.9-6.1,14.3-4.7c3.3,1.4,29.9,20.6,34.9,39.3c0.8,3,0.7,5.4,0,7.4&#10;&#9;c-3.9,10.3-26.2,7.2-36.8,1.7C640.6,776.5,627.8,750.1,627.8,750.1z" class="st0"/>
<path d="M691.6,782.3c0.5,0,8.3-5.3,20.1-12.8c11.9-7.5,13.9-14.6,17.4-15.8c3.6-1.2,15.4,3,15.7,5.6&#10;&#9;c0.3,2.5-8.5,20.8-29,29.6C695.5,797.7,691.6,782.3,691.6,782.3z" class="st0"/>
<circle r="3.5" cy="684.6" cx="274.3" class="st5"/>
<path d="M652.5,778.4c0,0,21.8-9.7,31.3-7.1c9.5,2.5,25.4,15.9,23.4,18.6c-2,2.7-29.1,13.8-38.7,9.3&#10;&#9;C659,794.8,652.5,778.4,652.5,778.4z" class="st0"/>
<path d="M644.6,781.2c-0.1-0.2-12-14.2-20.7-26.4c-8.6-12.2-10.3-21.3-6.4-22.2c3.9-0.8,22.3,30.5,27.1,36.8&#10;&#9;C649.3,775.8,644.6,781.2,644.6,781.2z" class="st0"/>
<path d="M699.2,792.4c0,0,35.4-25.1,41.3-29.5c5.9-4.4,8.3-4.2,10.7-3.7c2.4,0.5-4.7,25.6-30.1,35&#10;&#9;C695.7,803.6,699.2,792.4,699.2,792.4z" class="st0"/>
<path d="M665.6,794.6c0,0,9.7,3.4,24.2-2.2c14.6-5.6,25.9-8.5,30.6-6.8c4.7,1.7,3.4,6.8,0,11&#10;&#9;C717,800.9,668.8,810,665.6,794.6z" class="st0"/>
<circle r="4.3" cy="687.5" cx="331.8" class="st5"/>
<path d="M671.2,794.8c0,0-12.9-17.3-21.6-22.4c-8.7-5.1-11.3-2.2-11.6,0c-0.2,2.2,20.9,26.9,30.4,26.9&#10;&#9;C674.5,799.2,671.2,794.8,671.2,794.8z" class="st0"/>
<path d="M725.4,803.2l19.6-11.6c0,0,6.2-25.7,23.9-42.6c17.7-16.9,21.7-26.7,30.1-38.7c8.4-12,26.2-22.5,30.7-21&#10;&#9;c4.4,1.5,17.8,42.7,1.8,74.5c-16,31.9-36,48.3-53.8,43.4c-17.8-4.9-22.1-10.2-30-8c-7.8,2.2-27.4,10.6-26.9,8.8&#10;&#9;C721.2,806.3,725.4,803.2,725.4,803.2z" class="st2"/>
<path d="M658.6,803.2c0,0-18.5-6.8-22.9-11.6c-4.3-4.8-16.6-35.8-23.6-50.3c-7-14.5-7.8-39.8-15.8-31.8&#10;&#9;c-8,8-13.8,64.7,0,82.1c13.8,17.4,30.7,7.2,39.4,6.4C644.4,797.2,656.7,810.6,658.6,803.2z" class="st2"/>
<g>
	<path d="M731.4,808.7l18.3-13.7c0,0,3.4-26.2,19.2-44.9c15.8-18.7,18.7-28.8,25.9-41.6c7.1-12.8,23.7-25.2,28.3-24.2&#10;&#9;&#9;c4.6,1,22.2,40.5,9.7,73.9c-12.5,33.4-30.7,51.8-48.9,48.9c-18.2-3-23.1-7.8-30.6-4.8c-7.5,3-26.1,13.4-25.8,11.7&#10;&#9;&#9;C727.6,812.2,731.4,808.7,731.4,808.7z" class="st3"/>
	<path d="M823.3,687.2c0,0,8.7,74.9-64.7,106.9" class="st3"/>
</g>
<g>
	<path d="M652.6,805.5c0,0-18.5-6.8-22.9-11.6c-4.3-4.8-16.6-35.8-23.6-50.3c-7-14.5-7.8-39.8-15.8-31.8&#10;&#9;&#9;c-8,8-13.8,64.7,0,82.1c13.8,17.4,30.7,7.2,39.4,6.4C638.4,799.5,650.7,812.9,652.6,805.5z" class="st3"/>
	<path d="M592.5,715.3c0,0-14.9,77.1,32.6,81.2" class="st3"/>
</g>
<path d="M667.3,841.8c0,0-20.4-7.6-21.3-20.9c-0.9-13.3,22-35.6,41.2-35.8c19.2-0.2,28.4,30.4,29.1,47.3&#10;&#9;C717.2,849.4,686,855.5,667.3,841.8z" class="st2"/>
<g>
	<path d="M665.6,837.9c0,0-20.4-7.6-21.3-20.9c-0.9-13.3,22-35.6,41.2-35.8c19.2-0.2,28.4,30.4,29.1,47.3&#10;&#9;&#9;C715.4,845.4,684.3,851.5,665.6,837.9z" class="st3"/>
	<path d="M691.6,786.3c-0.2,1.8-20.1,27.1-20.8,47.1" class="st3"/>
</g>
<g>
	<path d="M1053.9,570.3c0.5,0.7-8.5-17.1-9.8-40.6c-1.4-23.5-0.1-37.8-4.9-36.4c-4.8,1.3-20.4,16.3-17.4,47.3&#10;&#9;&#9;s13.3,56.3,14.6,56S1053.9,570.3,1053.9,570.3z" class="st0"/>
	<path d="M1033.8,601.3c0,0-14.1-2.8-32.3-23.7c-18.2-20.9-19.3-44.3-24.2-41.6c-4.9,2.7-7.2,13.3,5.1,44.3&#10;&#9;&#9;c12.3,31,40.3,51.7,41.3,51.4S1033.8,601.3,1033.8,601.3z" class="st0"/>
	<path d="M1024,609.6c0,0-14.7-38.6-9.7-67.3c5-28.7,26.7-43.8,29-39.8c2.3,4.1-26.4,38.2-3.4,70.3&#10;&#9;&#9;c23,32.1-13.6,36.7-13.6,36.7" class="st0"/>
	<path d="M1063,563.7c0,0-3.7-33,7.3-55.3c11-22.3,18.3-20.6,22-19.1c3.7,1.5,7.2,18.9,8.8,36.8s5.9,30.6,1.6,35.3&#10;&#9;&#9;c-3.1,3.3-18.1,6.3-28.7,5.5c-4.3-0.3-7.8-1.3-9.6-3.1" class="st0"/>
	<path d="M1073.7,572c0,0-13.7-31.3-10.7-54.3c3-23,6.3-27,2-26.3c-4.3,0.7-31,22.7-25,57s14.5,37,16.4,36.7&#10;&#9;&#9;S1073.7,572,1073.7,572z" class="st0"/>
	<path d="M1093.7,565c-0.7,0.7-5-32.4,1.7-55s19.3-22.6,22.3-19c3,3.7-7,57.7-5,72.3S1093.7,565,1093.7,565z" class="st0"/>
	<path d="M1101.1,560.3c0,0,41.1-60.7,54.9-55.7c13.8,5-18.9,46.3-28.9,68.3S1101.1,560.3,1101.1,560.3z" class="st0"/>
	<path d="M1119.4,592.1c-1-0.4,6.7-85.1,17.2-89.1s19.7,21.7,14.2,60.7s-15,49.3-15,49.3L1119.4,592.1z" class="st0"/>
	<path d="M1143.3,623.5c-0.1-0.6,8-41.2,15.7-73.5c7.7-32.3,8.2-41.3,13.4-41.7c5.3-0.3,13.4,36,11.5,70.7&#10;&#9;&#9;s-9.7,51-9.1,52.3S1148.7,664.4,1143.3,623.5z" class="st0"/>
	<path d="M1142.7,608.6c-0.6,0.3-7-28.7,0-58.7c7-30,4-40.3,9-40c5,0.3,25.3,48,0,110.3S1142.7,608.6,1142.7,608.6z" class="st0"/>
	<path d="M1154.1,652.3c0,0,12.6-41.8,15.6-74.7c3-32.9,0.9-46.9,5.1-49.6c4.2-2.7,18.5,29.9,15.5,70.2&#10;&#9;&#9;c-3,40.4-19.7,56.1-20.3,57.8S1154.1,652.3,1154.1,652.3z" class="st0"/>
	<path d="M1156.6,666.3c0,0,23.1-17,30.1-59.3c7-42.3-5.3-61.7,0-64c5.3-2.3,21,38.7,15.7,72.3s-20,51.9-20.5,54.7&#10;&#9;&#9;C1181.4,672.8,1151.4,692.5,1156.6,666.3z" class="st0"/>
	<path d="M1164.6,673c0,0,20-30,29-59.3c9-29.3,8.4-42.7,11-43.3s11.7,62.7-10,102.7s-35.7,43.5-35.7,43.5L1164.6,673z" class="st0"/>
	<path d="M1164.6,704.3c0,0,26.1-27.5,22.7-65.7c-3.3-38.3-14.5-58.9-11.2-60.9s32.1,51.5,19.6,92.3&#10;&#9;&#9;s-39.1,59.2-39.1,59.2l-5.8-10.3L1164.6,704.3z" class="st0"/>
	<path d="M1023.7,640.6c0,0-0.4-0.7-1.1-2c-4.3-8.3-20.2-40.4-21.9-68.9c-2-33,5.7-64.7,2-63&#10;&#9;&#9;c-3.7,1.7-21,32.2-18.5,80.8c2.6,48.6,14,64.4,14.6,64" class="st0"/>
	<path d="M1009.6,626c0,0,19.6-58.1,56.9-72.6s69.2,3.5,83,42.1c13.8,38.6,28.5,98.6-7,130.4s-50.6,25.6-65.6,17.2&#10;&#9;&#9;c-14.9-8.4-73.4-21.7-77.4-60.7C995.5,643.3,1009.6,626,1009.6,626z" class="st1"/>
	<path d="M994,640.1c0,0-12.7-40-9.6-71.8c3.1-31.8,26.5-52,22.3-52.5s-30.3,22-35.9,72.9&#10;&#9;&#9;c-5.6,50.9,13.6,70.1,13.6,70.1L994,640.1z" class="st0"/>
	<path d="M977.3,652.3c0,0-18.5-31.7-16.2-66.2s6.8-48,4.2-47.5s-32.2,65.5,3.8,113.7H977.3z" class="st0"/>
	<path d="M964.5,642.3c0.5,0-10.2-51.8-1.2-74.8s14-20.8,15-18.8s-8.2,37,0,79.2S964.5,642.3,964.5,642.3z" class="st0"/>
	<path d="M1008.5,707.9c0,0-25.9-42.8-27.4-77.3s-3.8-52.5-6.3-50.5c-2.5,2-28,63.4,8,109.8&#10;&#9;&#9;C1018.8,736.3,1008.5,707.9,1008.5,707.9z" class="st0"/>
	<path d="M991,694.8c0,0-9.7-15.5-18.6-33.7c-5-10.1-9.7-21-12.4-30.6c-7.5-26.8-7.8-35.9-10-33.6&#10;&#9;&#9;c-2.2,2.3-25.5,61.2,27.5,103.9" class="st0"/>
	<path d="M1036.3,739.8c0,0-25.6-48.5-25.3-85.5s-4.2-59-8-57.2c-3.8,1.8-31.5,52.1-11.3,95.9&#10;&#9;&#9;C1012,736.8,1034.1,749.8,1036.3,739.8z" class="st0"/>
	<path d="M1063,776.3c0,0-16-48.2-15.8-78.8s-14.8-86.2-23.2-88c-8.5-1.8-20.2,42.7-11,79s24.2,74.8,33.2,81.9&#10;&#9;&#9;C1055.3,777.6,1063,776.3,1063,776.3z" class="st0"/>
	<path d="M1080.9,757.3c0,0,13.9-32.8,6.7-60.6c-7.2-27.9-26.8-60.9-33.6-61.6s-23.1,46.8-19.6,69.5&#10;&#9;&#9;s23.1,51.1,25.5,59.6c0.3,1.1,0.9,1.8,1.6,2.1C1066.6,769.1,1080.9,757.3,1080.9,757.3z" class="st0"/>
	<path d="M1108.2,753.3c0,0,17.8-45.9,12.1-79.8c-5.8-33.9-31.8-55.7-36.8-52.9s-1.8,36.3,0,58.2&#10;&#9;&#9;c1.8,21.8,18,43.3,12.5,62.3S1096.9,764.6,1108.2,753.3z" class="st0"/>
	<path d="M1139.6,741.8c0,0,15.5-25,14.5-70.2s-21.1-67-26.7-61s8.7,52.2,7.2,89.2S1129.1,759.3,1139.6,741.8z" class="st0"/>
	<path d="M1136.6,737.3c0,0.5,23.5-20.2,27.4-61s-7.6-72.8-3.6-77.5s24.9,19.5,23,57.2s-18.4,67.4-41.6,87.7&#10;&#9;&#9;c-2.3,2-4.1,3.5-5.7,4.7C1121.9,759.1,1136.6,737.3,1136.6,737.3z" class="st0"/>
	<path d="M1127.7,757.5c0,0,31.8-24,47.3-51.5s19.8-53.2,23.8-53.8s5.9,46.5-35.5,79.2&#10;&#9;&#9;C1163.2,731.6,1121.6,770.5,1127.7,757.5z" class="st0"/>
	<path d="M1101.3,757.1c0,0,2.5-28.5,11.2-54.2s8.5-51.8,22.5-46s20.2,42.1,12.2,70.7c-8,28.6-31.4,45.1-31.4,45.1&#10;&#9;&#9;L1101.3,757.1z" class="st0"/>
	<path d="M1053.9,770.5c0,0.3-14.1-36-31.7-50.4c-17.6-14.4-29.7-29.1-34.3-33.6c-4.7-4.5-8.2-1.2-11.9,9.2&#10;&#9;&#9;c-3.7,10.4,1.5,32.7,20.3,44.6c18.8,11.9,23.6,24.4,36.7,27.5C1045.9,770.8,1053.9,770.5,1053.9,770.5z" class="st0"/>
	<path d="M1038.8,772.8c0,0-24.2-27.6-39.5-37c-15.2-9.4-24-20.2-25.8-17.4s31.4,45.1,52.7,52.2&#10;&#9;&#9;c21.3,7.1,11.5,2.3,11.5,2.3" class="st0"/>
	<path d="M1050,790.9c0,0-26.4,8.2-52.5,15.3c-26.2,7.1-28.2-3.2-47.6,5.7c-16.9,7.8-41.2,15.5-46.6,22&#10;&#9;&#9;c-0.8,1-1.2,1.9-1.1,2.8c0.9,7.1,29.8,5.9,58.4,3.9C989.4,838.6,1034.2,822,1050,790.9z" class="st2"/>
	<g>
		<path d="M1052.5,794.8c0,0-26.4,8.2-52.5,15.3c-26.2,7.1-28.2-3.2-47.6,5.7c-16.9,7.8-41.2,15.5-46.6,22&#10;&#9;&#9;&#9;c-0.8,1-1.2,1.9-1.1,2.8c0.9,7.1,29.8,5.9,58.4,3.9C991.8,842.5,1036.6,825.9,1052.5,794.8z" class="st3"/>
		<path d="M908.5,840.5c0,0,92.7-2.7,143.9-45.7" class="st3"/>
	</g>
	<g>
		<path d="M1031.6,786.5c0.1,1-36.1-6.7-56.9-53.5c-20.7-46.8-22.4-74.4-33.4-94.7c-10.9-20.4-22.7-22.6-25.5-17.9&#10;&#9;&#9;&#9;c-2.8,4.6,0.9,52.6,0.5,79.1c-0.3,26.5,32.9,73.9,66,82.8c33,8.9,49.6,8.7,49.6,8.7L1031.6,786.5z" class="st2"/>
		<g>
			<path d="M1034.6,783.1c0.2,0.9-36.6-2.9-62-47.4c-25.4-44.4-30-71.7-42.9-90.8c-13-19.2-24.9-20.1-27.2-15.2&#10;&#9;&#9;&#9;&#9;c-2.3,4.9,6.3,52.3,8.6,78.6c2.4,26.4,40.3,70.1,74.1,75.6c33.8,5.5,50.2,3.6,50.2,3.6L1034.6,783.1z" class="st3"/>
			<path d="M907.8,633.1c0,0,15,17.7,21.8,65c6.8,47.2,67.3,86.2,97.5,88.9" class="st3"/>
		</g>
	</g>
	<path d="M1127.9,791.3l27.2-16.1c0,0,8.6-35.6,33.1-59c24.5-23.4,30-37,41.8-53.6c11.7-16.6,36.3-31.2,42.5-29.2&#10;&#9;&#9;c6.2,2.1,24.6,59.1,2.5,103.3c-22.2,44.2-49.9,66.9-74.5,60.2c-24.6-6.8-30.7-14.2-41.5-11.1c-10.8,3.1-37.9,14.7-37.3,12.3&#10;&#9;&#9;C1122.1,795.6,1127.9,791.3,1127.9,791.3z" class="st2"/>
	<g>
		<path d="M1136.3,798.9l25.3-18.9c0,0,4.7-36.3,26.6-62.2c21.9-25.9,26-39.9,35.8-57.7c9.9-17.8,32.8-34.9,39.2-33.5&#10;&#9;&#9;&#9;s30.8,56.2,13.4,102.4c-17.4,46.3-42.5,71.9-67.7,67.7c-25.2-4.1-32-10.8-42.5-6.6c-10.5,4.2-36.2,18.6-35.8,16.2&#10;&#9;&#9;&#9;C1131,803.8,1136.3,798.9,1136.3,798.9z" class="st3"/>
		<path d="M1263.7,630.5c0,0,12,103.8-89.7,148.2" class="st3"/>
	</g>
	<path d="M1079.9,784.3c0,0-25-13.1-24.2-19.8s22.2-29.6,29.6-28.7s32.2,13.3,30.5,21.5&#10;&#9;&#9;C1114,765.6,1089.4,786.9,1079.9,784.3z" class="st0"/>
	<path d="M1108.2,771.9c0,0,8.7-3.6,23.1-17.8s30.2-30.9,32.9-30c2.7,0.8-1.9,16.3-15.1,29.5&#10;&#9;&#9;C1135.9,766.8,1116.2,775.7,1108.2,771.9z" class="st0"/>
	<path d="M1077,784.5c0,0-19.9-18-27.3-18s-14.9-3.4-19.2-2s-8,2.5,2.7,11.5C1043.9,785,1070.3,788.1,1077,784.5z" class="st0"/>
	<path d="M1080,782.6c0,0,15.1-7,21.6-13.1c6.4-6.1,18.7-9.2,22.7-6.4c4.1,2.7,2.9,9.8-7,16S1073.7,791.1,1080,782.6z" class="st0"/>
	<path d="M1144.1,583.1c-15.7-29.9-44.6-42.6-77.6-29.7c-10.2,4-19.1,11.2-26.6,19.6&#10;&#9;&#9;C1057.9,583,1093.3,594.7,1144.1,583.1z" class="st4"/>
	<circle r="3.2" cy="586.9" cx="1043.1" class="st5"/>
	<circle r="4.9" cy="611" cx="1056.8" class="st5"/>
	<circle r="3.4" cy="595.5" cx="1065.1" class="st5"/>
	<circle r="2.6" cy="596.4" cx="1087.9" class="st5"/>
	<circle r="3.9" cy="614.9" cx="1102.3" class="st5"/>
	<circle r="2.2" cy="593.6" cx="1110.4" class="st5"/>
	<circle r="3.7" cy="592.4" cx="1136.6" class="st5"/>
	<circle r="3.4" cy="609.6" cx="1145.3" class="st5"/>
	<circle r="2.3" cy="601.8" cx="1124.8" class="st5"/>
	<circle r="3" cy="604.8" cx="1030.8" class="st5"/>
	<circle r="1.7" cy="626.9" cx="1063.4" class="st5"/>
	<circle r="2.9" cy="626.9" cx="1112.1" class="st5"/>
</g>
<path d="M1147.7,362.9c0,0-2-0.8-2-9.8s2.8-13.1,5.8-12.7c3,0.4,13.5,9.9,14,14.2S1160.2,372.2,1147.7,362.9z" class="st0"/>
<path d="M1165.5,366.1c0,0,13.4-16.6,18.4-18.1c5-1.4,5.6,2.2,5.9,6C1190,357.9,1175.1,368.8,1165.5,366.1z" class="st0"/>
<g>
	<path d="M1147.6,394.2c0,0-3.1-81.6,21.9-126c24.9-44.4,66.8-72.4,68.8-65.2c2,7.2-7.8,58.5-28.3,99.7&#10;&#9;&#9;c-20.5,41.2-29.5,83.2-43.6,87.9C1152.3,395.3,1147.6,394.2,1147.6,394.2z" class="st2"/>
	<g>
		<path d="M1141.8,394.3c0,0,3.2-81.6,31.5-124c28.3-42.3,72.2-67,73.7-59.7c1.5,7.3-12.3,57.7-35.9,97.3&#10;&#9;&#9;&#9;c-23.6,39.5-35.8,80.7-50.2,84.2C1146.4,395.8,1141.8,394.3,1141.8,394.3z" class="st3"/>
		<path d="M1152.4,382.7c0,0,25.8-107,83.7-162.2" class="st3"/>
	</g>
</g>
<g>
	<path d="M245.5,220c0,0-0.1-0.4-0.2-1.3c-0.9-6.3-4.8-35.2-7.4-56c-2.9-23.5-7.7-29.1-4-30.1&#10;&#9;&#9;c3.7-1.1,22.3,17.1,27.4,36.5c5.1,19.5,5.9,39.5,4.9,42.9c-1.1,3.5,38.5-10.9,38.5-10.9s12.7-20.8,16.4-33.3&#10;&#9;&#9;c3.7-12.5,5.1-30.9,7.7-32.3c2.7-1.3,9.6,14.1,8.8,33.1c-0.8,18.9-8.6,39.7-9.4,40.8c-0.8,1.1,13.6,0,13.6,0s11.9-36.8,25.4-56&#10;&#9;&#9;c13.5-19.2,23.7-24.8,23.9-24c0.2,0.8-7.5,12-18.2,39.5c-10.7,27.5-4.8,56-4.8,57.9c0,1.9,9.6,6.5,9.6,6.5s23.1,12.2,23.7,12.4&#10;&#9;&#9;c0.6,0.3,22.4-24.3,44.8-44.5c22.4-20.3,38.7-24.8,37.1-22.4c-1.6,2.4-43.4,43.4-56.9,64.5c-13.5,21.1-25.1,26.9-29.3,27.1&#10;&#9;&#9;c-4.2,0.2-83.9-15-84.5-16.5C312.3,252.3,245.5,220,245.5,220z" class="st0"/>
	<path d="M256,215c0,0-12-60.5-10.4-76c1.6-15.5,2-28.3,5.1-27.5c3.1,0.8,23.9,62.9,25.5,90.7l3.5-1.6&#10;&#9;&#9;c0,0,1.3-55.5,5.6-71.2c4.3-15.7,2.9-19,4.3-17.9c1.3,1.1,8.3,17.6,12.3,45.4c4,27.7,2.8,42.4,2.8,42.4l7.6-0.5&#10;&#9;&#9;c0,0,16-32.8,26.9-59.5c10.9-26.7,16.5-28.7,16.3-28c-0.3,0.8-1.6,11.4-1.1,33.8c0.5,22.4-9.9,64.3-10.7,64.3c-0.8,0,6.7,0,6.7,0&#10;&#9;&#9;s6.7-34.7,27.2-53.6c20.5-18.9,33.7-21.1,32-18.9c-1.6,2.1-14.4,13.6-21.9,31.2c-7.5,17.6-14.4,43.3-21.9,51.9&#10;&#9;&#9;c-7.5,8.6,2.9,6.2,2.9,6.2s8.8-19.5,22.4-41.3c13.6-21.9,27.4-39.7,38.4-49.9c10.9-10.1,10.9-12.3,10.9-10.1&#10;&#9;&#9;c0,2.1-13.6,30.8-24.3,58.2s-22.4,53.3-23.7,53.7c-1.3,0.4,3.2,5.6,3.2,5.6s26.4-40.5,48.5-62.3s46.4-32,44.8-28.8&#10;&#9;&#9;c-1.6,3.2-32,38.9-49.9,66.7c-17.9,27.7-33.3,42.1-34.7,43.7c-1.3,1.6-50-5.6-52-6.4c-1.9-0.8-5.9-3.7-21.1-5.2&#10;&#9;&#9;C316.3,248.6,256,215,256,215z" class="st0"/>
	<path d="M229.6,236.8c0,0-21.8-55.9-24.5-77.1c-2.7-21.2-6.5-29.5-3.5-30.3c2.9-0.8,41.1,62.4,45.9,80&#10;&#9;&#9;c4.8,17.6,2.1,22.6,1.1,23.3C247.5,233.4,229.6,236.8,229.6,236.8z" class="st0"/>
	<path d="M209.1,248c0-0.1-0.1-0.5-0.4-1.1c-3.5-8.8-30.4-66.4-27.9-66.9c2.7-0.5,45.6,40.5,48,52.6&#10;&#9;&#9;c2.4,12.2-1.1,16.4-4,17.2C221.9,250.7,209.1,248,209.1,248z" class="st0"/>
	<path d="M224.8,232.7c-1.1-0.9-33.8-36.1-64.6-49.2c-30.8-13.1-31.9-14.1-31.6-11.7c0.3,2.4,36.2,36.3,50.8,50.9&#10;&#9;&#9;c15.2,15.3,43,26.2,40.6,25.3L224.8,232.7z" class="st0"/>
	<path d="M209.3,253.9c-0.5,0.8-67.5-39.5-122.4-33.3c0,0,0,2.8,8.3,4.3c8.3,1.5,50,24.3,78.7,47.1&#10;&#9;&#9;c28.7,22.7,40.7,14.2,40.2,13.4C213.6,284.6,209.3,253.9,209.3,253.9z" class="st0"/>
	<path d="M216.3,249.9c0,0-20.5-24-39.5-50.1c-18.9-26.1-30.1-41.6-31.2-40c-1.1,1.6,20.8,64.3,44.8,90.1&#10;&#9;&#9;c24,25.9,30.8,19.7,30.8,19.7L216.3,249.9z" class="st0"/>
	<path d="M221.5,243.3c0,0-20.9-39.5-27.1-64.8c-6.1-25.3-8.6-32.8-6.9-33.3c1.6-0.5,39.5,58.7,44.3,74.8&#10;&#9;&#9;c4.8,16.1,5.6,19.3,3.7,20.6C233.6,241.9,221.5,243.3,221.5,243.3z" class="st0"/>
	<path d="M206.1,266.6c-1.2-0.4-42.4-22.4-68.8-46c-26.4-23.6-49.2-30-47.6-28c1.6,2,50,38.4,65.2,62.4&#10;&#9;&#9;c15.2,24,23.6,39.3,36,39.2C203.3,294.2,206.1,266.6,206.1,266.6z" class="st0"/>
	<path d="M182.8,287.9c0,0,6.4-40.9,51.1-68.3c44.7-27.4,65.8-32,76.4-29.4c10.6,2.6,115,39.4,116.2,93.8&#10;&#9;&#9;c1.3,54.4-56.4,64.9-105.4,69.6c-49,4.7-113.2-13.2-122.2-31.4C190.1,304.1,182.8,287.9,182.8,287.9z" class="st1"/>
	<path d="M173.9,288.8c-0.3-1.2-51.9-39.5-78.1-42.9c-26.2-3.5-28.5-4.6-25.4-2.3c3.2,2.3,48.6,18.1,65.7,38.9&#10;&#9;&#9;c17.1,20.8,27.7,26.2,29.7,26.5C167.9,309.3,173.9,288.8,173.9,288.8z" class="st0"/>
	<path d="M203.9,313.3c0,0-13-16.8-34-39.8c-21-23.1-55.9-40.6-53.3-36c2.6,4.6,25.6,20.7,38.6,45.5&#10;&#9;&#9;c13,24.8,21.8,44.1,32,47.8C197.3,334.6,203.9,313.3,203.9,313.3z" class="st0"/>
	<path d="M208.2,314.9c0,0-93.4-7.9-94.5,0c-1.2,7.9,68.1,26.9,94.5,26.1C234.6,340.3,208.2,314.9,208.2,314.9z" class="st0"/>
	<path d="M223.8,328.6c-1.2,0-27.4-8.3-51.9-23.3c-24.5-15-49.6-11.9-47-11c2.6,0.9,31.1,5.3,43.8,20.4&#10;&#9;&#9;c12.7,15.1,30,27.4,43.5,29.2c13.5,1.8,21.6-5.6,21.6-5.6L223.8,328.6z" class="st0"/>
	<path d="M250,350.5c0,0-25.1-8.1-39.2-1.7c-14.1,6.4-35.4,13.3-30.3,15.9c5.2,2.6,34.3,4.6,54.5,0&#10;&#9;&#9;c20.2-4.6,27.7-7.8,27.7-7.8L250,350.5z" class="st0"/>
	<path d="M381.8,292c0,0,48.3-43.5,75.1-64.5c26.8-21,67.1-40.9,66.9-36.6c-0.3,4.3-39.2,38.9-58.2,61.4&#10;&#9;&#9;c-19,22.5-25.4,27.7-34.7,37.8c-9.3,10.1-21.9,22.2-31.3,24.1C390.1,315.9,360.3,316.7,381.8,292z" class="st0"/>
	<path d="M399.6,302.4c0,0,33.4-32.9,78-45.3c44.7-12.4,42.9-9.2,41.2-7.2c-1.7,2-23.1,12.1-48.4,28&#10;&#9;&#9;c-25.4,15.8-45.5,30.3-50.7,32.3S397.7,308.2,399.6,302.4z" class="st0"/>
	<path d="M401.6,309c0,0,12.4-11.8,33.7-34c21.3-22.2,73.5-52.7,74.1-49.9c0.6,2.9-39.2,27.7-51.3,47&#10;&#9;&#9;c-12.1,19.3-18.3,31.5-20,33.2C436.5,307,401.6,309,401.6,309z" class="st0"/>
	<path d="M409.7,303.8c0,0,64.5-35.4,89-40.3c24.5-4.9,28.5-4,27.1-2.9c-1.4,1.2-42.9,23.7-70.3,44.7&#10;&#9;&#9;c-27.4,21-44.7,20.1-44.7,20.1L409.7,303.8z" class="st0"/>
	<path d="M399.6,315.6c0,0,80.6-25.6,82.4-20.7c1.7,4.9-28.2,20.4-49.9,30.5c-21.6,10.1-38.6,9.2-40.6,9.7&#10;&#9;&#9;C389.5,335.5,399.6,315.6,399.6,315.6z" class="st0"/>
	<path d="M384.6,324.3c0,0,3.4-2.9,9.1-7.4c14.3-11.3,42.7-32.3,65.8-41c32.3-12.1,36.3-9.2,34.6-8.4&#10;&#9;&#9;c-1.7,0.9-33.4,22.5-54.6,42.9c-21.2,20.5-35,23.6-43.4,26.9C387.8,340.7,376.5,333.7,384.6,324.3z" class="st0"/>
	<path d="M310.3,357.9c0,0,26.7,10.2,53.8,9.3c27.1-0.9,36.3,2.4,35.4,0.1c-0.9-2.4-25.9-19.2-45.8-18.1&#10;&#9;&#9;C333.9,350.2,310.3,357.9,310.3,357.9z" class="st0"/>
	<path d="M337.6,353.7c0,0,31.7,2.8,63.9-6.1c32.3-8.9,76.4-17.3,76.1-19c-0.3-1.7-28-12.7-53.3-8.4&#10;&#9;&#9;c-25.4,4.3-65,24.6-69.4,25.2C350.6,346.2,337.6,353.7,337.6,353.7z" class="st0"/>
	<path d="M352.6,341c0,0,7.5-4.9,22.2-18.7c14.7-13.8,26.8-21,41.5-24.2c14.7-3.2,25.6,1.7,25.6,1.7&#10;&#9;&#9;s-22.5,1.4-34.3,14.1c-11.8,12.7-6,17.3-25.7,25.1C362.3,346.8,352.6,341,352.6,341z" class="st0"/>
	<path d="M274.5,347.6c0,0,28.8,31.1,34.3,28c5.5-3.2,23.1-20.5,23.1-21.9C331.9,352.2,297,336.9,274.5,347.6z" class="st0"/>
	<path d="M275.7,345.5c0,0-42.4-13.7-55.6-9.7c-13.3,4-25.6,14.1-25.6,14.1s18.7-4.6,36.3,3.7&#10;&#9;&#9;c17.6,8.4,35.7,8.4,50.7,1.5C296.4,348.2,275.7,345.5,275.7,345.5z" class="st0"/>
	<path d="M269.9,337.4c0,0-28.2-5.9-47.8-20c-19.6-14.1-28.8-13.5-33.7-9.8c-4.9,3.7,11.5,2.6,20.2,15.3&#10;&#9;&#9;c8.6,12.7,43.8,28.5,61.4,20.5C287.5,335.2,269.9,337.4,269.9,337.4z" class="st0"/>
	<path d="M299.3,350.2c0.4,0.8,12.7,12.7,34.6,6.6c21.9-6.1,24.8-11.2,35.4-10.7c10.7,0.6,7.2-6.1,5.2-7.2&#10;&#9;&#9;c-2-1.1-5.5-2.9-21,0c-15.6,2.9-23.3,7.8-32.6,7.2S295,340.1,299.3,350.2z" class="st0"/>
	<path d="M310.2,345.4c0,0-6.9-0.8-12-7.7c-5.1-6.9-17.1-17.6-26.7-11.7c-9.6,5.9-17.9,19.7,1.9,25.1&#10;&#9;&#9;C293.1,356.4,312.3,353.2,310.2,345.4z" class="st0"/>
	<path d="M310.3,190.3c-10.6-2.6-31.8,2-76.4,29.4c-2,1.2-3.9,2.5-5.8,3.8c29.8,6.7,100.3,18.6,143.4-5.9&#10;&#9;&#9;C344.1,201.3,315.6,191.6,310.3,190.3z" class="st4"/>
	<circle r="4.5" cy="244.7" cx="231.9" class="st5"/>
	<circle r="3.6" cy="257.5" cx="249.1" class="st5"/>
	<circle r="2" cy="245.2" cx="279.7" class="st5"/>
	<circle r="6" cy="262.6" cx="296.3" class="st5"/>
	<circle r="2.3" cy="242.5" cx="325.4" class="st5"/>
	<circle r="3.2" cy="257" cx="334.4" class="st5"/>
	<circle r="3.4" cy="235.7" cx="362.8" class="st5"/>
	<circle r="1.6" cy="244.9" cx="373.1" class="st5"/>
	<circle r="5" cy="267.6" cx="365" class="st5"/>
	<circle r="1.8" cy="275.1" cx="329.5" class="st5"/>
	<circle r="2.1" cy="274.7" cx="269.6" class="st5"/>
	<circle r="2.3" cy="275.6" cx="225.1" class="st5"/>
	<circle r="4.6" cy="259.1" cx="205.1" class="st5"/>
	<circle r="6" cy="282.9" cx="242.4" class="st5"/>
	<circle r="3" cy="290.6" cx="287.4" class="st5"/>
	<circle r="4.5" cy="288.5" cx="317.8" class="st5"/>
	<circle r="2.2" cy="280.1" cx="354.8" class="st5"/>
	<circle r="4.5" cy="246.9" cx="393.9" class="st5"/>
	<circle r="2" cy="264.6" cx="388.3" class="st5"/>
	<circle r="2.4" cy="302.9" cx="331.9" class="st5"/>
	<circle r="2.2" cy="306.8" cx="286.6" class="st5"/>
	<circle r="2.8" cy="305.2" cx="253.1" class="st5"/>
	<circle r="2.5" cy="296.7" cx="223.7" class="st5"/>
	<circle r="2.5" cy="283.3" cx="201.4" class="st5"/>
</g>
</svg>