<svg id="Layer_2" xmlns="http://www.w3.org/2000/svg" viewBox="0 0 1025.08 2011.53"><defs><style>.cls-1{fill:#752e19;}</style></defs><g id="_Ñëîé_1"><path class="cls-1" d="M1025.07,234.97c-2.78.28-5.97.1-8.85.97-11.36,3.44-22.39,3.03-33.59-1.04-8.77-3.19-17.56-6.75-27.27-6.25-14.85.77-29.7,1.61-44.56,1.93-14.52.32-27.78,4.88-40.29,11.58-17.51,9.38-36.4,13.03-55.8,13.1-14.96.06-28.36,3.9-40.53,11.83-17.05,11.11-33.95,22.51-50.31,34.61-15.61,11.54-27.98,26.58-40.66,41.15-6.16,7.08-11.84,14.58-17.57,22.02-2.37,3.09-3.93,6.83-6.46,9.77-8.16,9.47-16.18,19.12-25.03,27.92-10.8,10.75-23.03,19.35-38.45,22.92-6.19,1.43-12.21,4.7-17.61,8.21-11.13,7.23-21.78,15.21-32.66,22.82-.98.69-2.24.96-4.47,1.88.83-3.73,1.23-6.5,2.08-9.13,3.95-12.14,7.79-24.33,12.14-36.34,5.14-14.2,10.38-28.38,16.27-42.28,5.36-12.66,13.26-24.15,17.8-37.24.68-1.96,1.72-3.81,2.7-5.65,9.3-17.39,23.44-46.87,51.01-95.24,4.57-8.02,6.86-12.04,7.97-13.91,6.21-8.16,13.34-17.39,21.32-27.47,7-8.85,11.95-11.76,19.19-20.92.42-.53,2.71-3.43,6.21-6.9,5.39-5.34,8.64-8.54,13.71-9.51.88-.17,9.33-2.08,11.02,2.03,1.48,3.61,3.76,4.61,6.94,5.2,1.54.28,3.13.5,4.55,1.1,5.35,2.29,10.09,1.02,14.88-1.79,12.9-7.57,21.37-19.11,27.91-32.02,4.54-8.95,1.84-17.9-4.91-24.98-5.56-5.82-11.4-8.79-19.34-5.69-.7.27-1.55.25-2.33.23-11.43-.18-19.33,4.94-23.91,15.47-1.12,2.57-2.56,6.03-4.73,6.91-8.26,3.34-9.97,10.07-10.53,17.63-.17,2.35-.68,4.51-1.52,6.51-1.45,3.46-3.53,5.65-4.53,6.68-10.03,10.3-23.76,23.56-33.05,35.4-1.63,2.08-2.86,3.78-3.47,4.63-.34-2.21.32-3.77,1.19-5.21,8.64-14.29,18.02-28.18,25.8-42.92,9.12-17.27,16.84-35.29,25.22-52.95,1.39-2.94,3.08-5.74,4.85-9,7.9,6.06,15.37,4.04,23.07,1.82,7.54-2.18,12.95-7.67,19.45-11.43,6.86-3.97,10.36-9.86,11.45-17.64.72-5.14,1.45-10.49,3.45-15.19,2.8-6.55,1.54-12.13-1.65-17.86-3-5.38-7.14-9.57-12.38-12.79-1.67-1.03-3.63-2.35-4.36-4.01-1.76-4.07-4.55-4.35-8.3-3.62-3.25.63-6.61,1.09-9.9.98-15.27-.5-26.14,7.3-30.49,22.11-.44,1.5-.84,3.08-1.62,4.41-4.31,7.34-2.86,15.26-1.81,22.88.99,7.18,3.56,14.13,4.93,21.28.49,2.58.32,5.89-.91,8.09-6.13,10.92-12.67,21.61-19.14,32.34-7.14,11.83-14.34,23.63-21.53,35.43-2.44,4.01-4.92,8.01-7.38,12.01,2.27-15.23,5.25-29.99,8.71-44.63.81-3.42,2.67-6.93,5-9.57,3.95-4.47,8.52-8.43,13.06-12.34,10.24-8.82,14.43-23.02,10.09-35.84-1.41-4.16-3.44-8.12-5.24-12.14-1.92-4.29-5.33-5.8-9.95-6.28-5.87-.61-11.63-2.24-17.48-3.22-2.23-.37-4.78-.82-6.8-.11-10.02,3.5-18.83,9.06-25.24,17.65-6.62,8.88-8.82,19.39-9.49,30.2-.27,4.36,1.62,7.95,4.98,11.01,2.83,2.57,5.61,5.53,7.37,8.87,3.45,6.54,5.63,8.02,12.8,7.33,4.27-.41,8.58-.36,13.48-.54-1.44,10.98-2.12,20.88-4.14,30.51-3.16,15.04-7.13,29.85-12.88,44.25-5.15,12.9-10.76,25.42-18.15,37.18-6.39,10.15-12.77,20.33-18.65,30.78-6.64,11.79-12.66,23.93-19.08,35.85-8.89,16.52-18.25,32.79-25.14,50.34-2.95,7.5-7.03,14.56-10.68,21.78-.74,1.45-1.85,2.72-3.84,5.59-.25-9.68-.95-17.47-.52-25.19.62-11.18,1.97-22.33,3.17-33.48,1.77-16.58,2.6-33.37,5.83-49.67,3.13-15.81,8.64-31.16,13.44-46.61,1.6-5.14,4.25-9.95,6.39-14.83,5.68.87,10.4.94,14.46,4.85,3.98,3.83,6.65,3.06,10.75-.92,7.89-7.67,14.02-16.39,19.37-26.14,7.18-13.08,1.38-24.76-1.15-36.95-.24-1.15-2.28-1.96-3.53-2.86-3.79-2.75-7.98-5.1-11.33-8.31-4.6-4.4-9.15-4.81-15.01-2.81-6.62,2.26-13.58,3.9-20.69,1.49-4.07-1.38-7.11.42-9.58,3.47-3.35,4.13-3.91,8.92-3.48,14.06.25,3.05.65,6.41-.3,9.18-3.44,9.97-1.69,19.47,1.61,28.96.33.95.94,1.88,1.62,2.63,3.44,3.77,6.95,7.47,9.88,10.6-5.77,17.4-11.15,33.62-16.53,49.83-1.41-1.18-1.77-2.32-1.9-3.48-.99-9.35-1.79-18.72-2.93-28.05-1.97-16.07-4.16-32.12-6.21-48.19-1.13-8.79-1.72-17.67-3.44-26.34-.95-4.78-.15-7.7,3.63-10.76,9.48-7.68,14.11-17.88,13.83-30.13-.13-5.73-1.33-11.51-.79-17.15,1.49-15.61.13-14.78-12.63-22.54-6.26-3.8-12.83-5.92-20.01-5.7-2.71.08-5.87.87-7.98,2.45-6.32,4.74-10.97,8.76-12.82,11.43-2.82,4.06-4.08,7.58-6.5,14.29-1.6,4.44-2.87,6.62-2.88,9.36-.02,6.98.82,14.05,2.13,20.92,1.11,5.8,4.6,10.74,9.81,13.65,6.55,3.66,13.21,7.9,20.36,9.48,6.28,1.4,8.16,4.12,8.81,9.7,3.16,27.22,6.75,54.39,9.68,81.63,3.11,28.81,5.2,57.69,1.57,86.65-.23,1.8-.91,3.55-1.38,5.32-.6-.03-1.21-.07-1.81-.1-4.61-39.77-12.9-78.6-28.23-115.65,7.85-1.28,10.06-2.75,14.37-10.03,1.73-2.91,3.34-5.92,4.72-9,.58-1.31.85-3.03.55-4.41-2.22-10.18-4.51-20.35-7.01-30.47-2.03-8.2-13.69-16.16-21.92-13.75-7.53,2.2-14.47,6.46-21.65,9.84-.44.21-.71.76-1.1,1.1-2.36,2.04-4.58,4.27-7.12,6.06-7.31,5.16-10.18,12.4-9.91,21,.25,7.72,2.78,14.92,6.54,21.56,2.07,3.66,4.91,6.5,10.17,5.25,2.55-.6,5.57.45,8.3,1.11,2.52.61,4.98,2.55,7.37,2.39,8.13-.52,11.42,4.73,14.27,10.81,1.1,2.36,2.32,4.7,3.06,7.18,2.01,6.73,3.36,13.68,5.75,20.27,6.8,18.79,9.25,38.52,13.11,57.95.95,4.79,2.04,9.81-.2,14.93-2.14-3.05-3.62-6.26-4.74-9.58-1.82-5.4-2.77-11.19-5.24-16.25-3.04-6.24-7.07-12.03-11-17.79-4.31-6.31-9.85-9.47-17.95-6.86-4.19,1.35-8.46.62-12.89-1.26-8.05-3.41-14.58-.25-17.15,8.06-1.34,4.33-1.26,9.15-1.49,13.77-.21,4.38.75,8.96-.21,13.12-.69,3.02-.56,5.4.21,8.23,1.95,7.22,7.27,11.7,13.27,14.68,4.86,2.41,10.43,5.42,16.41,2.37,7.38-3.76,14.8-7.46,22.11-11.37,5.02-2.68,5.51-3.02,8.78,1.95,4.57,6.95,8.23,14.5,12.84,21.42,2.83,4.25,3.52,6.81,3.58,6.96,3.64,9.08,2.87,17.38,2.05,24.55-1.93,16.86-1.96,25.6-5.31,34.4-5.21,13.65-10.49,27.28-15.13,41.13-5.38,16.07-9.98,32.4-15.11,48.56-6.08,19.13-13.09,37.99-18.36,57.33-6.04,22.13-10.81,44.61-15.75,67.02-3.93,17.83-7.08,35.82-10.94,53.67-3.03,14-6.72,27.86-9.91,41.82-2.2,9.63-4.02,19.34-6.07,29-1.33,6.23-2.77,12.44-4.17,18.65-.56-.09-1.11-.17-1.67-.26.11-2.75.27-6.96.42-12.1.81-28.41,1.43-49.9-.93-75.58-2.16-23.54-3.25-35.31-7.29-47.72,0,0-8.87-27.19-10.35-41.87-.59-5.88-.77-11.04-.77-11.04.12-3.38.04-6.77-.12-10.15-1.06-22.39-5.12-44.58-4.43-67.1.47-15.37.5-30.76,1.11-46.12.35-8.74,1.96-9.81,10.55-11.47,4.58-.89,8.57-2.61,11.58-5.68,2.17-2.21,3.21-4.41,4.16-6.68,2.28-5.42,2.53-9.94,2.61-21.97.06-9.92.08-14.91-.48-16.52-1.95-5.61-3.65-3.71-11.62-15.54,0,0-4.94-7.33-10.12-10.39-.88-.52-2.16-1.14-3.8-1.31-1.63-.17-3.33.14-5.14.96-5.22,2.36-5.45.9-10.35,2.85-4.8,1.9-4.28,2.9-9.9,5.47-6,2.75-6.31,1.47-8.83,3.41-3.68,2.82-5.64,6.99-7.21,13.26-.51,2.03-1.43,3.99-1.65,6.04-.5,4.6-1.5,9.36-.77,13.81.9,5.54,2.83,11.06,5.22,16.17,4.12,8.78,11.18,14.14,20.99,15.59,7.62,1.12,8.59,2.56,8.35,10.22-.43,13.53-1.18,27.07-.85,40.59.42,16.93,1.8,33.84,2.74,50.76.12,2.14.07,4.29.09,6.44-1.72-.98-2.42-2.03-2.85-3.19-4.02-10.73-7.8-21.56-12.04-32.2-6.36-15.96-13-31.81-19.61-47.67-1.59-3.81-3.4-7.54-5.34-11.19-4.04-7.6-8.25-15.11-12.35-22.67-1.3-2.41-1.41-4.69-.16-7.42,2.15-4.72,4.07-9.62,5.34-14.63,1.94-7.61,1.6-14.88-4.35-21.19-2.82-2.98-4.29-7.21-7.03-10.29-7.05-7.93-5.34-16.69-3.73-26.05,7.12-.08,12.96-2.12,15.62-8.76,3.41-8.49,6.57-17.17,4.99-26.58-.72-4.29-1.26-8.98-3.4-12.58-3.16-5.31-7.56-9.92-11.65-14.63-6.01-6.91-13.32-9.63-22.43-6.64-6.39,2.09-12.94,3.66-19.38,5.61-5.98,1.81-10.71,5.13-13.47,11.04-1.84,3.93-4.2,7.62-7.03,12.65-2.77-4.78-5.07-8.22-6.75-11.94-.93-2.06.26-3.93.52-5.03,2.35-9.65,2.62-19.8,2.39-24.54-.28-5.55-.61-12.26-5.14-18.13-2.84-3.68-3.07-1.51-14.51-10.38-2.64-2.04-6.25-4.96-11.78-6.36-1.65-.41-2.5-.63-3.76-.61-5.5.06-6.79,4.34-13.21,7.05-5.97,2.53-7.99.15-10.48,2.92-1.75,1.95-3.5,5.33-4.29,9.99-.09.51-.41.99-.45,1.5-.23,3.08-.67,6.18-.52,9.25.19,4.04.47,6.58,1.38,9.96.78,2.92,1.48,4.13,3.47,8.72,4.59,10.55,3.67,10.51,5.13,12.48,4.23,5.71,12.21,6.33,18.91,7.05,8.31.88,16.4-.61,24.91-4.03,2.2,3.85,4.65,7.51,6.44,11.48,1.57,3.5,7.16,5.96,3.3,11.96-5.77-3.83-11.02-7.64-16.6-10.9-3.04-1.78-6.75-3.91-9.95-3.62-6.14.57-12.15,2.65-18.17,4.3-5.23,1.43-8.33,5.4-10.3,10.07-2.02,4.79-3.65,9.79-4.99,14.82-1.1,4.12-1.22,8.37,2.5,11.56,2.03,1.74,2.26,3.58,1.74,6.23-1.29,6.46.51,12.6,4.26,17.79,3.97,5.48,8.56,10.53,13.12,15.55,5.74,6.31,7.88,6.48,13.91.17,4.15-4.35,8.85-6.26,14.63-5.91,4.18.25,7.64-1.15,10.64-4.03,1.48-1.42,3.17-2.64,4.71-3.91,2.73,2.03,4.05,3.11,4.33,4.4.41,1.95-.9,3.69-1.3,4.29-1.73,2.61-2.79,7.96.47,20.1.88,6.34,2.44,11.38,3.67,14.9,1.53,4.37,3.38,8.85,6.13,12.5,2.81,3.73,6.89,6.5,10.34,9.63-4.56,1.7-9.16,2.5-12.59,4.95-3.36,2.4-5.53,6.47-9.18,10.99-1-4.01-1.79-6.66-2.3-9.35-.77-4.1-1.16-8.28-2.03-12.35-1.48-6.94-4.77-9.55-11.78-9.93-8-.43-13.98-3.75-16.73-11.74-.68-1.96-1.6-3.87-2.61-5.69-2.66-4.82-5.45-5.8-10.88-4.84-3,.53-6.24.72-9.22.19-5.94-1.05-10.81.51-15.1,4.54-1.52,1.43-2.99,3.04-4.77,4.05-7.32,4.11-7.04,8.74-3.64,14.37,3.09,5.12,2.85,9.68-.07,14.64-3.06,5.2-3.54,11-2.03,16.71,1.94,7.35,4.76,14.37,9.74,20.33,1.64,1.96,3.07,4.09,4.77,6.39-5.96,5.3-7.14,12.32-6.76,18.92.38,6.47,3.18,12.8,5.25,20.4-2.98-.96-5.42-1.47-7.61-2.5-4.71-2.22-9.13-5.12-13.96-7.01-11.44-4.47-23.56-3.61-35.47-3.45-15.63.21-31.25,1.31-46.88,1.58-9.36.16-18.96.64-28.06-1.07-15.83-2.97-31.37-7.54-47.04-11.37-2.51-.61-5.11-1.22-7.66-1.19-4.57.06-6,2.16-4.84,6.64.39,1.49,1.21,2.87,1.89,4.28,2.72,5.64,5.69,11.16,8.15,16.91,4.5,10.55,8.51,21.31,13.08,31.82,9.1,20.94,22.25,39.52,34.38,58.7,4.85,7.66,10.54,14.71,13.79,23.5,4.14,11.2,8.65,22.37,16.25,31.93,9.4,11.83,18.19,24.16,27.98,35.64,6.56,7.7,14.09,14.67,21.77,21.3,10.65,9.19,23.38,14.4,36.91,18.15,9.77,2.71,19.23,6.6,28.77,10.11,1.93.71,3.88,1.8,5.34,3.21,0,0,1.94,1.98,2.99,5.04,2.9,8.45,5.21,50.72,2.91,50.65-1.27-.04,2.06-12.73-6.05-22.38-6.73-8.02-17.97-9.9-21.9-10.56-3.04-.51-9.34-4-14.06.02-3.85,3.27-8.08,4.25-12.81,4.94-7.59,1.1-10.72,5.34-10.18,12.81.07,1.01,0,2.04-.01,3.48-1.89.86-3.75,1.69-5.6,2.55-7.45,3.44-10.16,8.48-8.04,16.44.92,3.43,3.23,6.46,4.67,9.77.77,1.78,2.06,4.3,1.39,5.59-4.27,8.22,1.37,15.18,2.54,22.65.26,1.62,2.61,3.87,4.27,4.14,5.4.87,7.78,4.79,10.33,8.72,2.9,4.49,6.87,6.21,12.09,4.68,1.25-.37,2.48-.9,3.75-1.11,6.56-1.11,10.33,1.6,11.06,8.26.74,6.69,3.38,11.63,9.76,14.87,8.35,4.24,16.36,9.1,26.25,10.37,5.28,41.55,14.17,81.98,27.11,121.73-3.43-2.22-5.94-4.93-8.6-7.52-6.32-6.16-12.82-12.12-18.97-18.44-.69-.71-.13-.27-3.53-6.86-6.44-12.46-9.66-18.69-11.17-20.23-7.61-7.78-20.24-10.76-20.85-10.9-2.91-.66-6.22-1.63-9.85-4.13-2.23-1.53-3.38-4.53-5.31-6.61-4.32-4.65-4.46-4.62-1.2-9.87,2.67-4.3,4.44-8.59,3.84-13.96-.74-6.67-.27-13.46-.92-20.15-.28-2.91-1.88-5.77-3.24-8.47-.92-1.83-2.89-3.16-3.65-5.02-3.56-8.62-10.8-10.57-19.01-11.03-2.24-.12-4.47-.42-7.68-.73,7.01-6.98,3.97-14.54,2.13-20.62-3.82-12.64-9.64-24.67-14.57-36.98-1.41-3.52-3.49-5.03-7.64-5.19-7.98-.29-15.96-1.36-23.88-2.52-8.08-1.18-16.35,2.93-20.21,10.19-1.68,3.16-3.8,6.17-6.15,8.87-2.25,2.59-3.48,5.21-2.4,8.54,1.18,3.63.85,7.02-.4,10.67-1.58,4.62-.67,9.3,1.53,13.67,1.02,2.03,2.11,4.02,3.08,5.86-2.6,2.95-4.35,1.55-6.48.16-6.1-3.98-12.35-7.74-18.58-11.52-12.77-7.75-10.86-6.93-9.72-18.34.67-6.73.25-12.96-3.97-18.62-1.2-1.6-2.02-3.77-2.24-5.77-.79-7.01-3.13-12.35-9.65-16.58-4.17-2.7-7.89-4.69-12.69-4.77-5.47-.09-10.95-.22-16.41-.02-2.24.08-5.24.27-6.53,1.67-3.37,3.66-7.8,5.01-11.92,7.17-6.79,3.56-13.05,7.98-15.24,15.92-2.88,10.44-1.56,20.08,5.65,28.71,1.46,1.74,2.48,4.92,1.98,7.03-1.76,7.48,1.65,13.24,5.23,19.05,2.41,3.91,5.82,5.64,10.62,4.88,2.43-.39,5.37-.43,7.48.6,5.84,2.86,10.03,1.36,14.83-2.71,5.42-4.59,11.43-8.85,19.3-8.79,1.55.01,3.3-1.29,4.62-2.39,1.93-1.63,3.56-3.63,5.56-5.73,7.84,4.19,15.66,7.38,22.95,12.72-3.23,3.12-6.01,5.2-7.98,7.87-2.13,2.88-3.44,6.34-5.24,9.48-.64,1.11-1.63,2.03-2.48,3.02-7.21,8.39-7.43,14-.91,22.99,2.15,2.96,5.21,5.61,6.29,8.91,2.46,7.51,5.67,13.48,14.76,13.35,4.33,4.03,8.78,1.99,13.1.1,2.13-.93,4.06-2.31,6.05-3.55,6.66-4.12,11.58-2.3,16.25,3.65,5.09,6.49,11.4,12.09,17.59,17.62,1.69,1.51,5.56.63,7.15,2.17,4.45,4.29,7.43,2.38,11.34-.82,7.35-6.03,12.8-4.15,16.58,5.34-2.95,2.79-6.08,5.54-8.98,8.52-3.33,3.43-6.19,7.31-6.08,12.34.18,8.45,2.27,16.48,5.84,24.17,1.15,2.49,2.77,5.35,2.46,7.82-.89,7.11,1.59,12.08,7.62,15.57.44.26.9.61,1.17,1.04,4.34,6.79,10.53,6.77,17.28,4.76,2.5-.75,4.97-1.66,7.52-2.18,1.68-.35,3.72-.69,5.18-.06,4.32,1.87,8.38.74,12.13-.96,6.08-2.74,11.88-6.1,18.27-9.44,7.69,4.44,27.79,24.92,29.82,31.32-5.38.1-10.54.18-15.7.29-8.86.19-17.73.15-26.56.67-7.5.44-14.59,3.66-22.46-.91-4.83-2.81-11.61-2.72-17.57-3.03-8.08-.42-15.16-3.27-22.25-6.77-4.04-1.99-5.21-4.83-4.67-8.82.35-2.58,1.01-5.11,1.48-7.67,2.69-14.66,2.66-28.57-10.81-38.73-.2-.15-.3-.45-.51-.59-1.89-1.3-3.64-3.05-5.73-3.78-7.13-2.5-14.39-4.64-21.61-6.9-5.08-1.59-9.8-.55-12.36,4.02-2.7,4.81-6.86,7.07-11.46,8.88-4.74,1.86-7.88,5.22-9.69,9.66-2.45,6.01-4.25,12.14-3.98,18.91.36,9.02,2,17.58,5.79,25.77.91,1.96,1.26,4.18,2.03,6.82-4.91.19-8.72.33-12.37.47-1.91-4.95-2.85-10.09-5.6-13.93-5.09-7.13-10.54-14.21-19.69-16.99-2.63-.8-4.77-3.11-7.24-4.55-4.1-2.39-8.27-4.4-13.34-3.13-4,1-8.17,1.36-12.16,2.4-2.41.63-5.32,1.43-6.8,3.17-8.54,10-15.22,21.13-19.33,33.74-1.47,4.52-1.41,8.62.96,12.79,2.1,3.69,3.49,7.61,2.33,11.98-1.83,6.87-.56,13.47,4.57,18.04,4.77,4.25,10.84,7.06,16.39,10.41.58.35,1.68.35,2.28.03,7.6-3.98,17.7.11,23.66-8.19,4.49,2.6,8.31,4.92,12.85,1.73,3.78-2.65,9.01-4,11.6-7.43,4.87-6.44,7.7-14.11,7.43-22.61-.09-2.79.64-5.7,1.5-8.39.39-1.23,1.87-2.7,3.1-2.98,6.15-1.41,12.51-2.19,18.3.91,4.04,2.17,7.81,2.04,12.06,1.29,9.93-1.76,19.94-3.04,29.87-4.78,2.18-.38,4.36-1.61,6.18-2.94,5.31-3.85,5.12-3.73,11.03-.66,3.62,1.88,7.57,3.31,11.54,4.31,5.64,1.42,11.44,2.26,18,3.5-8.15,4.89-8.14,4.85-16.49,3.11-1.49-.31-3.37-.69-4.56-.06-3.86,2.03-7.57.43-11.37.27-5.64-.24-11.89-1.63-16.82.26-9.57,3.67-17.46,10.27-22.46,19.73-6.14,11.6-4.65,23.83-2.61,35.9.48,2.82,3.75,5.47,6.26,7.56,3.36,2.79,7.16,5.08,10.93,7.34,1.9,1.14,4.22,2.61,6.2,2.42,7.62-.75,15.19-3,22.78-2.98,6.45.02,10.93-3.28,15.57-6.28,4.2-2.71,6.82-7.17,6.81-12.62,0-2.34-.55-4.94.25-6.99,3.51-8.92,3.45-17.42-.53-26.32-2.02-4.51,0-7.4,4.7-9.04,6.4-2.22,12.89-4.24,19.4-6.12,2.05-.59,4.31-.49,7.05-.76-.75,4.94-4.28,5.51-6.62,7.26-2.48,1.86-5.56,3.29-7.28,5.69-2.86,3.98-5.24,8.44-7.08,12.99-1.63,4.04-2.99,8.45-3.18,12.75-.5,11.34,5.21,20.56,11.7,29.18,1.38,1.84,4.29,3.21,6.65,3.5,7.92.96,15.91,1.33,23.87,1.93,1.29.1,2.63.05,3.87.36,9.56,2.39,17.83-.51,22.3-9.05,3.24-6.19,5.5-12.96,7.62-19.65.9-2.86.86-6.29.32-9.3-1.53-8.64-3.53-17.2-5.55-26.73,4.68-1.82,9.41-3.8,14.24-5.5,3.89-1.37,6.61-.3,9.09,3.5,6.4,9.83,13.27,19.36,20.16,28.85,12.9,17.77,24.2,36.54,34.74,55.75,8.02,14.63,15.34,29.65,22.86,44.56,2.69,5.33,5.01,10.84,7.51,16.26,8.12,17.6,13.39,36.18,18.9,54.68,1.41,4.72,2.94,9.51,3.48,14.37,2.63,23.84,5.07,47.7,7.34,71.57,1.93,20.28,3.56,40.58,5.26,60.88,2.09,24.98,3.84,49.99,6.27,74.94,2.12,21.79,4.86,43.53,7.57,65.27,1.97,15.8,4.36,31.55,6.51,47.33.26,1.92.19,3.89.28,5.84-3.57-2.4-5.79-5.38-7.95-8.4-6.06-8.46-12.23-16.86-18.13-25.44-9.15-13.32-18.23-26.68-27.1-40.19-7.42-11.31-14.82-22.67-21.61-34.36-5.76-9.92-10.51-20.41-15.94-30.53-10.35-19.32-20.33-38.78-27.75-59.49-3.43-9.57-7.45-18.95-11.55-28.26-4.51-10.23-9.36-20.32-14.18-30.41-4.49-9.4-8.54-19.09-13.87-28.01-7.2-12.06-15.48-23.48-23.22-35.23-8.52-12.94-19.3-23.98-30.66-34.23-10.79-9.74-22.92-17.98-34.42-26.94-9.66-7.53-19.31-15.07-28.86-22.73-5.08-4.07-9.8-8.6-14.95-12.58-6.35-4.92-13.34-9.06-19.4-14.29-10.67-9.21-20.81-18.99-28.79-30.82-4.52-6.69-9.51-13.08-14.52-19.42-3.71-4.69-5.32-4.74-11.55-1.14,2.74,22.64,6.25,45.29,13.68,67.16,3.77,11.11,8.13,22.03,11.59,33.24,4.07,13.17,7.63,26.51,11.07,39.87,2.21,8.58,3.62,17.35,5.71,25.97,2.76,11.4,5.12,22.98,8.99,34.02,3.43,9.78,8.33,19.1,13.21,28.29,8.92,16.81,17.74,33.71,27.64,49.95,15.77,25.85,33.52,50.37,52.03,74.36,13.17,17.07,29.34,30.34,48.27,40.23,17.1,8.94,34.68,16.96,51.82,25.82,13.9,7.18,27,16.08,41.29,22.28,16.04,6.95,28.46,18.47,41.07,29.55,18.19,15.99,26.74,33.48,35.58,49.32,10.13,18.16,15.64,32.65,21.11,47.05,7.97,20.96,9.01,24.28,21.98,66.92,2.96,9.73,5.66,19.66,9.89,28.85,6.95,15.08,10.19,31.22,15.01,46.89,4.51,14.68,7.59,29.78,12,44.49,4.27,14.24,9.41,28.22,14.19,42.3,2.68,7.9,5.48,15.75,8.1,23.67,4.21,12.76,6.77,21.53,10.13,31.97,5.06,15.73,7.62,23.6,9.34,23.56,3.05-.08,3.31-11.04,9.11-37.83,3.78-7.89,6.84-18,4.94-28.97-1.15-6.63-3.7-11.24-4.54-12.81-6.53-12.14-29.93-81.01-76.74-218.75-.73-2.14-2.7-6.87-4.26-13.39-3.09-12.94-5.11-26.19-9.03-38.85-5.34-17.23-4.66-34.52-3.23-52.01.99-12.12,4.86-23.43,9.07-34.73,6.23-16.75,15.16-32.08,23.9-47.53,8.75-15.48,20.19-28.43,35.21-38.24,6.75-4.41,12.85-9.81,19.3-14.7,2.06-1.56,4.11-3.31,6.44-4.34,19.81-8.78,39.64-17.52,59.57-26,4.76-2.03,10.03-2.84,14.93-4.59,9.56-3.41,19.28-6.54,28.47-10.77,11.83-5.45,23.03-12.3,34.86-17.77,10.22-4.72,18.38-11.81,25.99-19.73,15.91-16.56,26.6-36.8,38.25-56.2,6.88-11.46,13.48-22.9,22.35-32.93,2.24-2.54,4.23-5.32,6.19-8.08,13.63-19.16,32.15-29.19,55.67-30.01,10.43-.36,20.87-.58,31.27-1.26,8.07-.53,16.12-1.49,24.13-2.59,28.56-3.94,44.83,6.75,47.5,1.59,1.1-2.13-3.48-8.85-12.64-22.28-2.14-3.14-3.99-5.86-7.21-10.25-5.23-7.14-11.27-13.82-15.58-21.48-5.72-10.18-13.36-18.65-21.03-27.17-2.22-2.47-5.1-4.62-8.08-6.09-19.51-9.66-39.8-17.04-61.55-19.64-11.54-1.38-22.88-.1-34.12,2.98-9.52,2.61-19.13,5.04-28.83,6.75-11.01,1.94-22.24,2.67-33.28,4.5-19.96,3.31-38.69,10.64-56.83,19.24-12.23,5.8-23.65,13.26-35.7,19.47-21.7,11.2-39.08,27.6-55.52,45.2-1.24,1.33-2.61,2.53-3.88,3.83-2.87,2.96-6.2,5.61-8.46,8.97-7.72,11.46-15.12,23.14-22.5,34.83-1.94,3.07-3.63,6.35-4.94,9.73-4.81,12.41-9.33,24.93-14.11,37.35-4.03,10.47-8.76,20.7-12.32,31.33-6.44,19.25-12.32,38.7-18.29,58.11-7.06,22.94-13.88,45.96-20.97,68.9-2.38,7.72-5.34,15.26-7.86,22.93-6.02,18.3-8.83,23.25-10.78,33.45-2.24,11.74-1.79,19.11-2.45,19.11-1.01,0-1.36-17.21-3.56-54.12-.12-2.67-.38-8.07-.79-14.86-4.21-69.14-13.94-102-12.15-151.03.12-3.24,1.85-13.92,2.15-28.01.34-15.6,3.74-30.51,8.45-45.23,1.67-5.22,3.27-10.46,5.14-15.61,4.28-11.77,8.36-23.63,13.17-35.18,4.81-11.54,10.19-22.86,15.73-34.07,0,0,5.56-10.56,11.97-20.95,30.83-50.01,83.97-95.41,86.46-97.52,11.99-10.14,22.93-17.98,36.37-25.74,8.09-4.67,16.52-9.24,25.38-11.97,20.27-6.27,41.45-7.83,62.44-10.29,8.81-1.03,17.64-2.1,26.35-3.7,8.64-1.59,17.16-5.67,25.62.47.37.27,1.08.02,1.53.24,8.69,4.25,11.57,7.14,18.66,9.42.6.19,6.44,1.98,12.65-.15,4.18-1.43,4.74-5.55,11.41-9.42,16.07-9.31,20.82-21.45,14.45-38.61-.63-1.7-1.85-3.23-2.25-4.96-.44-1.92-.94-4.28-.22-5.93,2.51-5.8,3.47-11.81,4.43-18.01,1.7-10.88.53-20.61-7.38-28.85-.7-.73-1.12-1.75-1.55-2.69q-3.6-7.76-11.94-7.13c-2.27-.37-10.02-1.63-17.98-2.45-1.45-.15-3.89-.36-6.45.84-1.4.65-2.62,1.66-3.77,3.07-4.77,5.8-9.44,11.69-14.15,17.54-10.16-1.86-10.14-1.79-21.36,1.38-1.91.54-4.12.43-6.12.14-12.72-1.85-27.61,9.58-27.28,22.41.19,7.56,1.27,14.76-2.78,21.65-.55.93-.2,2.64.2,3.83,1.37,4.01-.47,6.41-3.66,8.44-6.81,4.34-13.57,8.78-20.33,13.2-12.23,8-24.37,16.13-36.72,23.94-3.7,2.34-8.09,3.58-11.97,5.66-3.17,1.7-6.04,3.94-9.07,5.91-8.48,5.54-16.97,11.07-25.49,16.55-.18.11-.77-.42-1.59-.9,5.74-6.75,11.51-13.38,17.1-20.15,17.42-21.12,34.65-42.4,52.21-63.4,5.34-6.39,11.21-12.42,17.4-17.99,14.28-12.86,28.97-25.26,43.38-37.98,16.82-14.85,33.5-29.85,50.27-44.75,7.74-6.88,16.26-6.57,24.09.75,1.52,1.42,3.25,2.63,4.73,4.09,4.73,4.68,10.04,4.23,15.07,1.12,4.38-2.71,8.21-6.31,12.33-9.46,3.27-2.5,6.32-5.59,9.99-7.22,10.58-4.69,15.72-12.31,15.5-23.73-.08-4.11.4-8.27,1.04-12.33.66-4.14.53-7.91-3.08-10.63-9.62-7.26-19.54-13.86-32.19-14.53-2.91-.15-5.79-1.14-10-2.02,3.36-3.85,5.67-6.63,8.12-9.28,6.78-7.35,7.68-16.28,6.59-25.55-.48-4.07-3.09-7.38-6.91-8.92-3.66-1.47-5.3-4.07-5.86-7.59-.68-4.28-3.46-6.91-6.79-9.13-2.14-1.43-4.4-2.68-6.98-4.24,4-18.6,10.52-35.23,20.58-50.43,1.57-2.37,2.98-4.93,3.95-7.59,1.86-5.13.44-7.94-4.56-9.68-3.04-1.06-5.84-.86-9.01.54-12.4,5.49-24.98,10.55-37.49,15.77-10.33,4.32-20.92,8.12-30.93,13.09-14.96,7.44-30.08,13.18-47.21,10.71-1.52-.22-3.14-.07-4.67.19-13.08,2.25-25.03,7.5-35.78,15.03-13.95,9.77-25.85,21.87-37.02,34.71-8.89,10.23-17.71,20.51-28.39,29.07-3.53,2.83-6.14,7-8.68,10.88-10.4,15.88-16.02,33.94-22.79,51.44-5.58,14.41-9.1,29.33-9.36,44.96-.11,6.48-1.51,12.94-2.1,19.42-.41,4.49-2.68,6.54-7.1,6.44-1.04-.02-2.09.15-3.12.12-8.99-.27-15.91,4.28-20.43,11.16-4.92,7.48-8.55,15.89-12.01,24.2-1.76,4.24-2.12,9.11-2.76,13.75-1.11,8.05,3.48,13.45,9.45,17.59,2.07,1.43,5.34,1.35,8.09,1.5,1.68.09,3.4-.71,4.53-.97,2.4,2.56,3.97,5.35,6.33,6.46,2.57,1.21,5.87.85,9.83,1.28-.78,3.01-1.14,5.53-2.08,7.81-6.93,16.8-8.06,32.04-9.38,37.8-5.73,24.95-3.15,23.33-8.55,47.07-5.09,22.34-10.73,35.03-14.46,44.67-3.03,7.84-8.55,14.77-13.27,21.89-2.12,3.2-5.49,5.6-7.54,8.83-8.59,13.5-16.22,23.76-23.34,37.8-5.39,10.63-8.88,18.99-9.66,20.88-7.4,17.85-10.22,27.02-12,31.73-1.2,3.17-2.2,6.44-3.61,9.52-.64,1.41-2.05,2.46-4.2,4.91-.36-8.96-.22-16.27-1.02-23.47-3.33-30.16-3.87-60.42-3.89-90.71-.01-25.05.29-50.09.47-75.14.05-7.82-.14-15.66.29-23.46.74-13.27,2.1-26.51,2.81-39.78,1.34-25.32,4.24-50.43,9.24-75.31,3.86-19.21,8.94-38.09,15.92-56.38,2.97-7.77,1.67-3.67,17.02-40.32,11.43-27.29,12.83-31.31,17.82-39.4,6.13-9.95,8.65-10.65,23.9-30.86,8.01-10.61,14.81-22.28,23.76-32,14.57-15.83,27.2-33.26,44.29-47.09,21.43-17.34,44.72-30.32,70.58-39.99,4.97,4.8,10.93,6.44,17.91,5.32,2.08-.34,4.81.33,6.54,1.54,3.95,2.75,7.56,3.08,11.59.46,1.05-.68,2.4-1.07,3.67-1.24,8.89-1.23,14.22-6.98,18.13-14.38,1.82-3.45,3.01-7.24,4.84-10.68.89-1.66,2.39-3.72,4.01-4.16,10.06-2.71,20.23-5.04,30.38-7.43,2.98-.7,5.51.04,7.88,2.24,7.17,6.66,15.26,11.25,25.04,13.7,11.99,3,21.89,1.18,30.07-8.14,3.09-3.52,5.6-7.54,8.72-11.03,2.37-2.64,5.19-4.89,7.97-7.12,5.32-4.27,11.93-1.52,17.61-3.61,1.13,1.76,1.91,3.11,2.81,4.37,3.6,5.06,12.59,7.63,17.26,3.78,4.92-4.05,9.62-9,12.68-14.51,3.08-5.55,7.79-11.69,3.22-18.97-.43-.69-.12-2.08.23-3,1.47-3.9-.35-6.81-3.12-8.94-9.3-7.18-18.43-14.54-31.62-12.6-4.45.66-7.48,1.82-8.78,6.16-2.23,7.47-4.14,15.04-6.7,22.39-1.47,4.23-1.46,8.02.42,11.95.18.39-.1.99-.27,2.32-1.56.59-3.49,1.33-4.83,1.84-1.77-4.4-2.92-8.06-4.67-11.4-2.03-3.88-4.87-7.34-6.86-11.23-3.49-6.82-8.95-10.05-16.91-9.55-1.67.1-3.36-.14-6.46-.29,7.63-11.03,4.08-20.82.2-31.12-4.22-11.23-11.98-18.8-21.71-24.75-2.24-1.37-5.73-1.94-8.29-1.34-9.68,2.27-19.5,4.27-29.4,9.69,5.77-7.73,11.2-14.11,18.51-18.83,14.24-9.19,28.35-18.57,42.48-27.92,7.4-4.89,14.58-10.13,22.11-14.8,9.2-5.71,17.68-4.03,24.94,4.23,1.48,1.68,3.26,3.56,5.27,4.24,9.72,3.28,25.01-3.77,29.13-13.13,3.91-8.89,7.24-17.83,6.1-27.93-.57-5.06-1.67-9.42-5.08-13.52-3.45-4.14-6.5-8.91-8.51-13.89-3.04-7.55-4.74-9.38-12.43-8.2-10.3,1.59-20.52,3.65-30.81,5.31-6.07.98-9.74,4.19-11.68,10.06-3.35,10.14-7.04,19.99-6.38,31.16.31,5.3-1.64,10.7,2.01,15.28-4.15,5.45-45.58,34.27-52.5,36.24,11.28-17.66,22.19-34.5,32.84-51.49,8.73-13.92,17.44-27.86,25.6-42.11,4.75-8.29,6.8-9.75,16.73-8.56,2.44.29,5.4.1,7.47-1.05,5.45-3.04,10.55-6.7,15.75-10.17,1.73-1.15,3.29-3.43,5.03-3.55,7.56-.48,11.26-6.18,15.46-10.97,2.62-2.99,5.51-4.29,9.26-5.08,4.53-.96,9.01-2.49,13.3-4.27,11.19-4.65,20.89-11.8,30.5-19,10.14-7.59,18.86-16.11,23.27-28.72,2.25-6.43,6.46-12.75,11.31-17.6,12.87-12.9,26.69-24.84,39.89-37.42,5.13-4.89,13.97-8.7,17.18-18.22,1.22-3.63,1.39-6.9,1.33-9.15ZM721.52,127.27c4.23-5.3,8.66-10.45,13.17-15.51,4.76-5.33,10.55-8.41,18-7.51,1.53.19,3.13.07,4.67-.1,7.03-.78,12.1,2.59,13.31,9.45,1.43,8.09.35,15.52-6.16,21.55-2.63,2.43-4.51,5.67-6.84,8.45-2.34,2.79-4.55,5.78-7.29,8.13-5.42,4.66-11.54,7.02-19.91,2.61-1.5-3.3-3.44-7.45-8.86-7.19-.66-2.54-.82-4.96-1.88-6.87-2.74-4.92-1.31-9.14,1.78-13.01ZM724.76,17.71c1.76-6.02,13.25-11.18,21.06-11.01,8.73.19,15.91,4.2,23,8.32,7.15,4.16,10.03,13.61,7.35,22.9-1.8,6.24-4.53,12.16-2.47,19.04.45,1.52-1.49,4.47-3.12,5.77-7.53,5.96-15.07,11.91-24.45,15-7.55,2.48-10.39,1.86-15.2-4.59-.93-1.25-1.77-2.93-3.06-3.49-4.97-2.17-5.81-6.24-5.62-11.27-.68-3.51-1.36-7.35-2.17-11.16-2.22-10.44,1.87-19.92,4.68-29.52ZM660.55,104.42c-.03-.15-.05-.29-.08-.44-1.03.16-2.08.24-3.08.51-4.18,1.1-6.83-.31-8.79-4.27-1.34-2.7-3.33-5.47-5.77-7.14-4.82-3.3-6.42-8.05-5.27-12.93,1.83-7.78,4.39-15.5,7.73-22.75,1.44-3.14,5.56-5.06,8.49-7.49,1.78-1.47,3.94-2.59,5.38-4.32,3.46-4.16,7.71-5.34,12.58-3.61,5.2,1.84,10.3,3.43,15.97,2.78,1.46-.17,3.91.96,4.53,2.19,3.01,5.97,6.15,12,8.09,18.36,2.47,8.05-1.96,14.67-6.7,20.6-3.39,4.25-7.71,7.74-11.43,11.75-2.6,2.81-5.39,4.57-9.39,4.81-4.11.25-8.18,1.27-12.27,1.96ZM573.12,180.5c-1.24-1.53-2.77-3.39-2.88-5.18-.41-6.82-3.43-13.87,1.43-20.43.76-1.03.26-3.02.27-4.57.01-3.39-.32-6.8.04-10.15.5-4.76,2.64-6.91,7.46-7.48,5.17-.62,10.39-.78,15.58-1.17,2.07-.16,4.44.18,6.15-.71,5.4-2.84,9.13-.16,13.46,2.69,14.27,9.39,15.02,31.43,6.76,43.95-2.71,4.11-5.98,7.9-9.3,11.55-2.76,3.04-5.98,5.67-8.64,8.14-6.33-3.55-12.02-6.74-18.76-10.53-.94.36-2.38.9-4.46,1.68-.28-.37-.7-1.03-1.22-1.58-1.96-2.07-4.1-3.99-5.89-6.2ZM534.21,126.38c-8.06-1.07-17.06-3.21-22.78-10.18-2.31-2.82-3.17-7.06-3.99-10.8-.72-3.26-.46-6.74-.64-10.12-.13-2.55.89-5.43,3.71-11.82,3.29-7.47,4.93-11.2,7.17-13.88,6.86-8.22,19.34-13.87,26.68-10.05.46.24.87.59,1.35.78,8.74,3.66,14.64,8.69,10.24,19.44-.67,1.64.2,4.04.68,6.01,2.63,10.64,1.66,20.84-4.49,29.99-4.19,6.23-10.77,11.58-17.93,10.63ZM513.32,194.08c-3.86,3.18-8.59,2.69-13.29.8-5-2.01-10.22-3.46-16.82-5.65-.13-.25-.89-1.35-1.28-2.58-7.05-22.57-3.1-27.68,14.21-36.76,3.86-2.03,7.21-5.06,10.73-7.71,6.7-5.04,12.27-4.77,18.13,1.13,1.05,1.06,2.07,2.48,2.39,3.9,2.27,9.9,4.61,19.8,6.33,29.8.43,2.46-.8,5.62-2.19,7.89-1.73,2.84-4.41,5.09-7.02,7.97-3.92-2.14-7.43-1.9-11.19,1.2ZM524.45,298.53c-.67,1.73-2.44,5.39-7.18,8.67-7.01,2.53-14.01,3.79-19.24,9.1-1.14,1.16-3.93,1.47-5.72,1.07-5.3-1.16-9.33-4.47-12.43-8.88-.58-.82-1.25-2.01-1.08-2.86,1.8-8.71-1.85-17.16-1.16-25.77.31-3.85,1.19-7.65,1.8-11.35,4.2-2.41,7.97-1.48,11.74-.43,5.04,1.41,10.03,2.65,15.36,1,2.24-.69,3.48.66,4.79,1.16,9.1,3.44,17.4,17.26,13.12,28.28ZM293.8,275.5c-.88,5.4-4.89,8.8-5.85,9.61-3.32,2.81-6.76,3.6-9.68,4.23-3.91.85-5.14.42-11.68.4-10.81-.04-11.89,2.02-15.54.21-5.06-2.5-7.16-8.49-8.01-10.91-.49-1.39-.71-2.26-1.42-8.38-.59-5.1-1.04-10.22-1.66-16.37-.58-5.84.51-11.26,4.05-13.58,2.64-1.73,4.49-.03,8.85-2.18,3.37-1.66,3.18-3.12,6.48-4.72.95-.46,5-2.42,9.25-1.33,3.09.79,3.21,2.41,10.21,7.94,2.92,2.31,2.77,1.93,5.59,4.19,5.3,4.25,7.95,6.38,8.81,8.96,1.2,3.62-1.23,4.26-1.03,10.36.21,6.27,2.36,7.03,1.62,11.56ZM300.24,357.38c-2.99,7.53-7.16,11.8-14.82,11.73-5.97.22-10.44,2.18-14.19,6.41-4.68,5.28-7.52,4.95-11.74-.71-2.96-3.96-5.98-7.89-8.61-12.07-2.81-4.47-4.86-9.23-2.21-14.66,1.71-3.51-.55-6.32-2.64-8.34-3.81-3.71-3.71-7.79-2.47-12.22,4.25-15.22,13.27-20.02,28.28-20.78.74-.04,1.6.12,2.22.51,5.52,3.42,11.85,6.07,16.28,10.58,7.78,7.92,15.68,24.99,9.9,39.56ZM72.46,850.89c-1.04,3.74-4,7.07-4.2,11.56-.05,1.08-2.91,2.18-4.61,3.02-2.23,1.1-4.6,1.89-6.87,2.92-.68.31-1.17,1.37-1.81,1.42-5.89.52-9.62,4.31-13.44,8.25-2.28,2.35-5.09,1.58-7.98.43-2.54-1.01-5.44-1.69-8.15-1.59-6.32.25-9.09-1.56-10.24-7.69-.24-1.27-.27-2.59-.55-5.37.06-.86.15-3.2.4-5.52.36-3.28-.54-5.88-2.75-8.53-10.92-13.09-7.57-28.71,7.57-36.35,5.2-2.62,11.86-2.36,15.57-7.91,6.75.24,13.89-3.57,20.14,2.12,1.3,1.18,3.07,1.97,4.75,2.59,3.51,1.29,5.23,3.31,5.76,7.35.48,3.69,2.36,7.4,4.37,10.63,4.54,7.31,4.08,15.31,2.03,22.67ZM69.51,1100.87c-6.45-4.19-6.42-4.15-13.25.51-1.47,1-3.34,2.32-4.87,2.15-5.21-.59-10.23-1.16-15.14,1.51-.76.41-2.41-.55-3.54-1.1-8.42-4.02-13.46-9.86-11.95-20.06.47-3.18-.33-6.95-1.72-9.92-3.62-7.77-1.65-15.07,1.82-21.79,3.67-7.11,8.5-13.66,13.12-20.24,2.15-3.05,4.81-4.47,9.36-3.51,3.5.74,7.65-1.61,12.9-2.93,5.61,3.42,13.45,6.79,19.38,12.23,5.18,4.75,12.9,8.84,12.04,17.95-.33,3.5-1.08,6.97-1.8,11.43,5.96,12.61-.27,26.31-16.36,33.77ZM169.78,1028.19c-.64,4.08-1.51,8.2-1.47,12.29.04,3.85-.37,7.07-3.26,9.94-2.77,2.74-5.39,3.94-9.62,3.58-4.19-.35-8.56,1.45-12.86,2.3-6.09,1.21-12.18,2.45-18.28,3.61-4.1.78-7.21-.73-9.04-4.48-5.49-11.23-11.36-22.16-8.97-35.65,1.86-10.52,5.86-16.71,16.2-19.64,4.05-1.15,7.1-2.4,8.35-6.94.83-3.02,3.28-3.86,6.82-3.4,12.52,1.62,22.5,7.86,31.04,16.57,1.97,2.01,2.32,5.62,3.47,8.64-.82,4.51-1.7,8.83-2.38,13.18ZM195.7,1106.74c-1.47,4.3-1.79,9.06-2.14,13.65-.46,6.07-7.08,12.24-14.14,12.13-7.5-.11-14.64,1.93-21.92,3.1-2.81.45-4.9.55-7.07-1.62-2.01-2.01-4.38-3.8-6.88-5.14-5.17-2.76-7.65-6.87-8.2-12.8.6-3.53,1.16-7.06,1.83-10.58.34-1.77,1.45-3.59,1.23-5.25-1.13-8.35,3.88-13.03,9.76-17.32,2.3-1.68,4.56-3.4,6.84-5.11.83-.62,1.58-1.78,2.44-1.85,7.94-.65,16.02-2.51,23.33,2.69,3.07,2.18,6.33,4.09,9.49,6.15.43.28,1.02.61,1.13,1.03,1.76,6.88,7.05,12.88,4.31,20.92ZM274.52,1069.66c-1.33,1.38-2.63,2.44-3.55,3.76-2.62,3.74-5.54,3.76-9.43,1.77-3.58-1.83-7.59-2.83-11.42-4.19,9.43-3.29,14.05-4.42,24.4-1.34ZM263.01,1137.83c-1.18.56-4.04.65-9.72.92-12.93.6-20.08.85-27.56-3.06-1.48-.77-4.8-1.49-6.54-4.69-2.94-5.4-5-11.27-7.42-16.96-.22-6.51,1.84-11.55,5.16-16.59,5.41-8.21,12.57-14.36,20.75-19.5,5.06-3.18,7.67-2.81,12.79.64,2.21,1.49,5.01,2.19,7.61,3,1.97.62,4.09.77,6.1,1.3,8,2.13,7.56,2.17,7.78,10.71.1,3.98,2.16,7.94,3.48,11.85,3.57,10.56-3,27.93-12.43,32.37ZM808.22,1024.87c-2.68,2.74-5.13,4.47-6.45,5.34-1.96,1.29-6.96,4.57-12.03,5.15-10.28,1.17-18.62-9.05-19.58-10.27-2.34-2.23-4.68-4.46-7.03-6.7-.1-1.05-.4-1.8-.17-2.02,4.74-4.7,8.95-9.37,10.65-16.43,1.21-5,8.47-6.91,13.71-5.21,1.73.56,3.54.96,5.2,1.69,7.41,3.31,14.49,3.75,21.04-2.01.29-.25.99-.03,2.67-.03,1.57,2.34,2.25,4.43,2.58,5.92,2.47,11.19-7.72,21.63-10.6,24.58ZM771.79,947.47c3.2-4.43,6.34-8.92,9.9-13.05,1.19-1.39,3.51-1.98,5.44-2.53,3.22-.92,6.53-1.52,9.2-2.12,4.38,1.92,8.31,3.65,13.56,5.96,1.48,1.96,3.62,4.55,5.48,7.33,3.58,5.35,4.72,11.48,4.59,17.74-.09,4.13-.75,8.32-1.7,12.35-.56,2.38-2.11,4.56-3.37,6.73-1.02,1.75-2.48,3.25-3.39,5.04-2.63,5.14-4.13,6.11-9.83,5.02-5.34-1.01-10.65-2.2-15.91-3.58-5.05-1.33-5.29-2.4-5.36-7.68-.13-9.1-1.18-18.02-8.37-24.84-2.02-1.92-1.74-4.28-.22-6.37ZM716.21,976.15c-3.51-6.81.06-11.94,4.57-16.72,4.11-4.36,8.73-6.39,14.66-3.8,2.12.93,4.37,1.58,6.9,2.47,3.16-3.31,5.83-7.39,11.58-6.1,3.98.9,7.36,1.79,9.38,5.88,1.59,3.22,3.79,6.2,6.08,8.99,4.38,5.32,3.91,10.91,1.71,16.86-2.25,6.07-4.22,12.25-6.49,18.31-.61,1.63-1.52,3.52-2.87,4.43-4.95,3.33-10,6.58-15.34,9.22-1.58.78-4.94.16-6.24-1.11-4.4-4.27-9.05-5.66-14.82-2.73-2.05-2.97-3.8-4.97-4.9-7.28-.92-1.94-1.59-4.29-1.43-6.38.38-5.04.6-5.02-4.93-8.42.62-1.57,1.07-3.32,1.96-4.81,1.75-2.97,1.81-5.64.18-8.8ZM670.28,1031.26c13.32-8.18,26.71-16.25,40.02-24.45,2.96-1.82,4.98-.84,6.51,1.7.79,1.3,1.07,2.92,1.54,4.41,1.29,4.1,3.85,5.56,8.28,5.14,7.24-.69,7.79-.13,13.8,7.71-24.4,2.91-48.25,5.76-73.36,8.76,1.58-1.64,2.25-2.68,3.21-3.27ZM843.33,597.38c1.68-5.19,2.83-10.54,4.35-15.79.9-3.1,3.11-4.53,6.39-4.74,5.58-.36,10.92-.03,15.55,3.62,1.21.96,2.57,1.77,3.96,2.44,5.41,2.61,5.38,2.57,4,8.94-.25,1.18-.3,2.6.11,3.7,1.32,3.46,2.21,6.68.67,10.49-2.42,5.96-6.18,10.89-10.82,15.1-2.74,2.49-9.03.62-10.28-3.08-2.01-5.97-6.03-8.08-12.12-7.34-3.07-4.68-3.29-8.81-1.82-13.34ZM822.23,425.32c3.41-7.42,6.77-9.86,14.55-8.73,2.41.35,4.84-.65,9.67-1.59,12.71-2.47,12.69-3.8,15.2-3.1,4.01,1.1,6.35,5.99,10.87,15.73,4.32,9.31,6.99,13.98,6.47,19.54-.63,6.7-3.45,13.83-7.27,19.43-4.27,6.26-11.95,8.2-19.53,7.53-2.03-.18-1.6-1.1-6.15-4.32-4.68-3.31-12.15-8.5-21.73-9.83-2.51-.35-4.57-.35-5.83-.31-1.41-12.27-1.22-23.55,3.75-34.35ZM649.78,396.67c7.63-6.35,12.71-14.57,18.08-22.43,10.64-15.55,22-30.4,35.35-43.71,8.67-8.64,16.67-18.12,26.18-25.72,12.17-9.73,25.47-18.08,38.45-26.78,5.61-3.76,11.55-7.05,17.51-10.24,8.93-4.79,18.44-6.61,28.67-6.23,10.17.37,20.29-.79,30.06-4.19,4.67-1.63,9.6-2.5,14.29-4.08,4.67-1.57,9.65-2.9,13.71-5.54,14.38-9.39,30.45-11.78,47.03-12.61,5.47-.27,11-.24,16.39-1.08,15.18-2.36,29.58.96,43.86,5.39,5.19,1.61,10.27,3.53,16.84,5.81-7.87,3.95-14.69,7.7-21.77,10.87-19.97,8.93-40.2,17.33-60.05,26.51-17.01,7.87-33.64,16.58-50.47,24.84-3.72,1.83-7.87,2.23-11.82,3.19-7.78,1.89-15.58,2.78-23.41,4.02-4.21.67-8.2,4.36-11.71,7.36-3.26,2.79-6.7,4.56-10.68,6.12-9.69,3.81-19.26,8.01-28.53,12.74-15.98,8.16-31.78,16.68-47.47,25.39-8.87,4.93-17.13,10.99-26.09,15.73-16.81,8.88-33.91,17.23-50.95,25.67-5.84,2.89-11.86,5.43-17.82,8.06-1.79.79-3.67,1.37-5.93,1.14,6.72-6.8,12.98-14.16,20.29-20.26ZM726.64,481.62c-1.82-5.36-4.48-8.9-5.38-10.03-3.27-4.14-6.85-6.05-9.52-8.15-5.28-4.15-10.91-5.95-17.36-2.29-1.72.98-3.86,1.53-5.86,1.67-18.51,1.33-22.87,5.96-29.94,24.46-.36.95-.53,1.96-1.17,4.38-2.15-2.19-3.22-3.66-4.64-4.64-2.11-1.45-4.43-3.53-6.72-3.61-10.89-.38-22-1.19-31.76,5.26-1.65,1.09-3.05,2.71-4.26,4.31-5.16,6.78-9.33,14.14-15.32,20.49-8.23,8.73-9.34,20.12-6.25,31.59.93,3.44,2.71,6.85,4.83,9.73,3.97,5.4,9.15,9.26,16.38,9.09.79,7.87,1.52,15.28,2.33,23.31-5.12.16-9.74.36-14.05-1.57-6.58-2.94-12.21-1.03-17.52,2.92-2.3,1.71-4.62,3.47-6.59,5.53-1.38,1.44-3.18,3.49-3.06,5.15.38,5.37-2.86,8.58-5.66,12.38-2.26,3.07-4.24,6.68-5.16,10.34-2.03,8.07-3.33,16.32-4.89,24.5-1.72,9.07-.68,10.84,7.99,14.64,1.3.57,2.39,1.86,3.3,3.04,1.89,2.45,3.59,5.04,6.05,8.53-10.66,13.63-21.47,27.58-32.42,41.42-24.18,30.55-24.64,29.93-33.67,42.17-13.67,18.53-28.81,39.28-41.78,68.21-8.94,19.94-12.92,35.01-13.86,34.72-2.11-.64,15.52-73.24,16.87-81.13.54-3.17,1.04-6.1,1.72-10.39,3.29-20.59,6.1-41.25,9.6-61.8,2.36-13.87,5.6-27.59,8.4-41.39,1.5-7.39,2.68-14.86,4.35-22.21,2.98-13.08,5.34-22.81,8.32-34.06,10.46-39.43,7.96-28.32,19.37-69.79.42-1.53,4.82-15.09,11.33-32.31,4.96-13.13,12.54-23.92,24.29-32.63,11.81-8.75,23.85-16.9,36.83-23.54,14.91-7.63,30.87-8.8,47.17-4.86,2.02.49,4.09,1.22,6.12,1.15,9.79-.32,19.07,2.48,28.59,4.03,13.36,2.17,26.83,3.36,39.47-4.31,4.24-2.57,9.92-4.9,14.48-4.23,5.21.77,10,4.87,14.74,7.89.73.47.54,3,.19,4.43-1.71,7.07-3.37,14.16-5.53,21.1-1.97,6.33-4.55,12.48-6.86,18.71-.56-.08-1.12-.15-1.69-.23.07-2.78-.16-7.07-1.82-11.96ZM638.88,619.6c-.29-5.18-3.02-10.23-4.69-15.34.21-.14.43-.28.64-.43.9,1.07,1.91,2.07,2.68,3.23,1.56,2.36,3.51,3.36,6.49,3.42,2.91.06,5.79,1.17,10.21,2.16-6.48,8.37-11.97,15.45-17.46,22.54-.35-.2-.7-.41-1.05-.61,1.16-5,3.45-10.06,3.18-14.97ZM650.76,604.38c-7.56-.8-6.23-5.3-18.7-10.66-5.67-2.44-9.45-3.06-12.19-7.08-1.63-2.39-2.28-4.59-2.44-7.89-.43-8.98.76-17.66,4.83-25.85,2.54-5.11,6.1-8.27,12.09-8.37,4.97-.08,9.51-1,13.77-4.35,5.47-4.3,19.56-1.74,24.35,4.33,4.14,5.24,7.53,11.11,10.9,16.9.94,1.62,1.2,4.06.84,5.94-1.77,9.21-4.18,18.31-8.82,26.5-1.42,2.51-4.26,4.51-6.88,5.98-5.45,3.06-11.37,5.22-17.74,4.55ZM682.85,544.28c-1.26-2.05-3.25-3.89-5.31-5.16-3.31-2.04-6.89-3.69-10.48-5.21-9.46-4.03-18.67-3.86-27.76,1.5-2.58,1.52-5.86,1.97-8.88,2.63-6.42,1.4-11.91,3.82-14.15,10.77-.54,1.68-1.66,3.28-2.85,4.62-3.48,3.91-8.53,4.1-12.46.67-10.15-8.87-9.1-30.72.42-36.45,3.32-2,5.05-5.82,7.51-8.48,3.57-3.87,5.83-7.98,8.17-12.46,1.01-1.94,4.06-3.67,6.36-3.94,7.71-.91,15.51-1.33,23.28-1.42,1.6-.02,3.91,1.87,4.71,3.46,2.18,4.36,4.54,8.9,5.36,13.63,1.44,8.23,6.26,14.1,11.58,19.84,1.59,1.72,3.56,3.13,4.96,4.98,2.34,3.1,4.88,4.57,8.71,2.71.84-.41,2.32-.68,2.93-.23,5,3.69,9.43,1.58,13.69-1.26,3.41-2.27,5.86-.43,9.91,2.44-6.64,6.66-12.79,12.84-19.55,19.63-2.27-4.62-3.92-8.62-6.16-12.27ZM704.7,525.78c-1.58-.67-4.07.23-5.93.96-2.89,1.14-5.59,2.75-9.1,4.52-3.75-3.16-7.56-5.31-12.07-1.8-5.91-4.17-9.77-9.66-13.36-15.39-.28-.44-.5-.92-.7-1.4-5.34-13.23,3.27-35.02,16.33-41.04,1.85-.85,3.99-1.17,6.03-1.52,4.85-.84,9.74-1.43,14.57-2.34,5.45-1.02,7.3-.28,10.19,4.47.8,1.31,1.56,3.15,2.77,3.61,5.4,2.09,5.96,6.53,6.44,11.35.72,7.26,1.63,14.5,2.71,21.71.83,5.5-2.76,8.78-5.85,12.18-3.1,3.42-6.25,7.15-12.04,4.7ZM732.78,382.45c2.2-1.59,1.46-3.72,3.59-5.53,1.97-1.67,4.49-2.55,7.48-2.85,3.09-.31,6.33.02,8.18-3.37.31-.56,1.25-.89,1.96-1.09,5.29-1.49,17.12,5.07,18.17,10.53.63,3.3,2.42,5.35,4.28,7.89,2.35,3.21,3.44,7.44,4.67,11.36,1.23,3.93,2.06,7.99,2.83,12.04.27,1.43.14,3.11-.33,4.49-4.2,12.41-12.29,21.62-23.76,27.78-4.63,2.49-9.24,2.41-14.04-.54-5.27-3.24-11.01-5.7-16.56-8.47-.68-.34-1.47-.5-2.23-.67-2.4-.53-5.69-.25-7.02-1.73-2.1-2.33-2.88-5.85-4.17-8.75.89-5.12,1.63-9.72,2.49-14.29.37-1.99.8-3.35,1.3-5.28,4.59-17.69,6.92-19.59,8.7-20.26,1.74-.65,2.77-.06,4.45-1.27ZM719.89,386.21c3.34,3.32-7.08,16.85-8.86,37.26-.37,4.28,2.58,8.85,4.23,13.94-6.63,6.08-15.05,7.22-24.1,7.44-9.69.24-19.06-.87-28.38-3.44-3.21-.88-6.72-.68-10.1-.93-1.3-.1-2.64.08-3.9-.17-7.51-1.48-10.87-2.53-16.76-3.31-2.95-.39-6.97.19-15,1.36-9.8,1.42-14.38,2.85-14.52,2.42-.27-.85,17.58-6.44,39.71-15.8,14.09-5.96,24.45-11.13,26.48-12.15,31.97-16.04,47.75-30.04,51.19-26.62ZM749.63,453.43c4.77-.89,9.39-.92,13.2-2.7,3.9-1.82,7.29-5.06,10.4-8.19,4.91-4.94,11.2-8.59,13.95-15.61,2.7-6.89,5.49-13.61,1.81-20.47,7.01-5.58,12.91-10.27,19.7-15.68-2.32,14.71-8.42,26.11-15.98,37.02-9.65,13.92-18.4,28.47-28.23,42.25-8.33,11.67-17.62,22.64-26.56,33.87-1.06,1.33-2.54,2.33-5.16,2.79,5.67-17.89,11.33-35.78,16.87-53.27ZM802.93,366.23c1.54,5.57.7,11.79.97,18.8-4.51,3.26-9.87,7.12-16.19,11.68-3.21-6.81-5.82-12.63-8.67-18.34-4.17-8.38-12.88-11.05-20.2-15.22-.53-.3-1.07-.55-1.61-.75,7.26-3.43,17.65-8.68,28.26-14.65,10.26-5.76,18.53-10.96,24.21-14.65,1.38,4.6-.84,7.41-2.48,10.13-4.3,7.17-6.72,14.25-4.3,22.98ZM419.22,430.9c-2.93.06-4.57-.99-11.65-4.75-9.03-4.78-8.86-4.45-9.63-5.25-3.45-3.6-5.25-8.64-5.19-14.52.03-2.77-.38-3.28-.99-5.26-1.6-5.15-3.82-5.96-4-8.95-.14-2.38,1.23-2.7,4.45-8.44,3.66-6.53,2.7-7.72,5.66-11.18,2.07-2.41,4.61-4.42,7.65-6.06,3.64-1.97,4.35-1.13,10.15-3.19,7.09-2.52,7.79-4.3,10.79-3.79,1.59.27,3.69,1.98,7.89,5.41,2.34,1.9,4.89,4.05,6.31,5.49,6.3,6.41,7.98,17.58,8.46,21.98,1.27,10.15-.66,17.79-2.14,22.07-1.89,5.47-3.5,10.12-7.81,12.2-3.42,1.65-5.37.14-12.72,2.1-4.7,1.26-4.69,2.09-7.25,2.14ZM392.44,490.49c2.8,6.99,5.94,13.84,8.82,20.8.67,1.63.91,3.43,1.57,6.07-6.1-1.96-7.43-7.69-11.35-10.64-4.14-3.11-7.79-6.85-11.84-10.07-4.05-3.23-8.34-6.18-12.13-8.96,1.65-2.67,3.67-6.81,3.93-12.01.21-4.11-.79-6.78-1.97-10.73-4.99-16.75-.91-20.93-6.74-26.3-3.5-3.22-7.48-5.94-11.95-9.45,1.38-1.78,3.23-4.18,4.72-6.11,5.13.93,6.43,4.19,8.44,6.89,13.64,18.24,20.19,39.78,28.51,60.52ZM308.02,304.04c1.28-2.84,2.43-5.86,4.3-8.28,4.74-6.14,10.27-10.69,18.93-10.63,4.2.03,8.49-2.17,12.6-3.72,7.56-2.86,13.16-.46,17.61,5.86,1.5,2.13,2.96,4.39,4.89,6.08,8.88,7.82,8.99,17.6,6.62,28-.23,1.02-.63,1.99-.87,3.01-2.06,8.67-6.13,14.88-16.42,13.73-.97-.11-2,.4-3.19.66-.67,1.74-1.09,3.57-2.04,5.04-.92,1.42-2.2,3.09-3.68,3.59-3.66,1.23-7.86,3.16-11.19,2.31-2.82-.72-4.64-5.06-7.07-7.63-1.41-1.49-3.05-2.81-4.76-3.93-2.4-1.56-4.95-2.89-7.47-4.25-11.18-6.04-14.85-15.17-8.25-29.83ZM306.45,353.03c.89-5.34,1.08-10.8,1.58-16.22,5.85.09,12.32,3.63,15.85,8.85,1.31,1.94,2.32,4.1,3.74,5.95,2.77,3.6,6.12,5.37,10.88,3.54,2.89-1.11,6.05-1.52,9.1-2.18.99-.21,2.03-.22,3.66-.38.45,2.23.87,4.35,1.35,6.76-1.42.14-2.28.51-2.8.24-4.68-2.5-9.11-3.51-13.71.46-1.09.94-3.68,1.13-5.09.52-6.64-2.88-12.12-1.06-17.25,3.34-.55.48-1.41.61-2.46,1.04-4.53-3.2-5.69-6.97-4.87-11.9ZM325.13,425.27c-1.96-1.16-3.17-2.41-4.16-3.46-3.46-3.63-5.47-8.12-6.7-13.11-1.11-4.53-1.48-9.24-2.37-13.83-.36-1.84-.91-3.82-1.96-5.32-2.99-4.29-2.58-8.62,2.18-10.91,2.68-1.28,4-2.7,4.87-5.38,1.99-6.13,4.51-7.4,11.18-5.91,5.64,1.26,11.24,2.61,16.55-2.91,7.61,7.63,14.91,14.61,21.73,22.03,1.71,1.86,2.84,5.28,2.53,7.77-.58,4.83-1.92,9.7-3.8,14.2-.61,1.46-.6.49-4.68,4.6-3.43,3.46-6.4,7.99-10.44,10.79-3.67,2.54-7.37,3.01-10.68,3.43-3.4.43-8.94,1.13-14.24-2ZM314.08,456.49c.26-3.42,1.63-5.82,3.33-12.24.04-.14,0-.73,6.5-2.89,11.69-3.89,10.76-4.89,14.25-5.03,1.64-.06,5.6,1.15,13.53,3.58,3.72,1.14,5.08,1.66,6.55,2.9,2.36,1.99,3.67,4.78,4.77,8.11.33,1,.23,1.24.3,2.01,0,0,.03.41.15,1.08.22,1.21,2.07,8.35,2.43,10.13.09.45-.67,3.88-2.21,10.72-.95,4.26-2.05,8.36-4.79,11.75-.21.26-.4.46-.61.66-1.91,1.92-4.36,3.43-7.44,4.42-2.74.88-2.86,1.22-4.89,2.36-4.5,2.52-4.48,3.68-6.58,3.99-1.94.28-3.74-.62-7.34-2.44-1.33-.67-3.46-1.35-5.67-3.42-3.67-3.45-9.24-4.89-10.79-11.12,1.17-2.48,2.56-6.38,2.19-11.02-.54-6.69-4.15-7.53-3.69-13.55ZM312.24,489.37c4.66,7.49,13.07,10.25,20.04,14.44,5.22,3.14,11.79-.37,16.87-3.42,5.13-3.07,10.5-4.49,16.24-4.92,1.67-.13,3.75.26,5.05,1.22,4.19,3.08,8.47,6.17,12.04,9.91,9.35,9.8,19.31,19.28,25.23,31.7,3.57,7.48,6.08,15.48,8.81,23.34,1.94,5.59,3.44,11.33,5.65,18.73-3.14-1.85-4.68-2.61-6.05-3.61-1.9-1.38-3.53-3.15-5.5-4.41-10.83-6.89-17.98-15.87-19.67-29.23-.89-7.06-5.96-11.99-13.27-13.87-.75-.19-1.62-.34-2.19-.8-5.51-4.55-11.42-4.19-17.61-1.68-5.06,2.05-10.38,3.57-15.2,6.07-5.17,2.67-6.87,7.98-6.54,13.36.45,7.27.99,14.7,2.93,21.66,3.05,10.99,11.41,17.9,21.32,22.71,6.73,3.26,13.3,1.91,18.91-2.97,6.03-5.24,11.85-10.72,18.22-16.51,5.94,2.04,10.35,7.43,15.82,11.28,9.18,6.47,13.74,14.76,16.51,26.01,4.78,19.35,7.42,38.94,10.16,58.54,1.07,7.65.84,14.42,1.38,27.85,0,0,2.43,61.1-.65,91.66-.27,2.69-1.04,6.61-1.6,13.65-.42,5.19-1.55,10.32-2.38,15.47-.69,4.31-1.46,8.59-4.95,12.69-3.2-6.71-5.98-12.74-8.92-18.69-5.43-10.96-11.08-21.81-16.38-32.83-1.65-3.43-2.98-7.19-3.54-10.93-1.31-8.76-2.49-17.57-2.92-26.4-.63-12.74-.18-25.54-.89-38.27-.7-12.51-3.76-24.55-7.96-36.47-5.53-15.67-13.85-29.7-23.17-43.18-4.72-6.82-10.54-12.91-16.08-19.14-9.17-10.32-18.92-20.15-27.61-30.84-5.2-6.4-10.67-11.84-17.91-15.9-7.26-4.07-13.9-9.22-20.92-13.72-3.68-2.36-7.59-4.33-12.94-7.35,3.18-2.15,5.32-3.91,7.73-5.15,2.76-1.43,5.72-2.49,8.65-3.55,9.35-3.36,14.1-12.63,13.08-22.5-.35-3.37-.67-6.76-.8-10.15-.11-2.92,1.2-4.92,4.23-5.75,2.74-.75,4.99-.9,6.77,1.96ZM387.45,566.7c.04,1.58-.77,3.64-1.91,4.71-3.99,3.73-8.11,7.37-12.51,10.59-4.99,3.66-10.12,3.34-15.21-.37-5.87-4.27-10.64-9.04-11.69-16.76-.74-5.4-2.61-10.65-3.25-16.05-.71-6,.35-7.17,5.78-9.47,1.68-.71,3.53-1.2,4.99-2.24,8.22-5.83,16.63-4.07,24.68-.17,2.71,1.32,4.9,4.57,6.32,7.44,1.33,2.7,1.31,6.06,1.89,9.12-.1.01-.19.03-.29.04.44,4.38,1.08,8.76,1.2,13.15ZM295.86,502.82c.75,11.15-3.3,16.26-15.03,19.99-2.4.76-5.57,1.11-6.9,2.81-3.01,3.84-6.51,4.65-10.95,4.23-2.02-.19-4.11.34-6.71.6-6.73-9.05-13.46-18.6-17.27-29.7-1.26-3.68-.89-8.23-.2-12.19.73-4.12,4.44-6.74,8.04-5.54,10.77,3.6,19.22-1.17,27.64-6.62,2.59-1.68,5.12-3.47,8.32-5.64,2.96,4.52,7.68,8.46,7.51,12.16-.35,7.53,5.07,12.67,5.56,19.89ZM299.1,457.22c2.84-2.31,5.1-2.03,7.24.88,4.88,6.61,3.25,13.86,1.51,20.88-.73,2.94-5.31,3.76-7.89,1.62-1.96-1.62-3.76-3.66-5-5.87-1.75-3.11-2.92-6.55-4.44-10.09,3.17-2.76,5.81-5.18,8.59-7.43ZM228.55,445.68c-.54-4.31.57-8.35,3.69-11.54,3.37-3.44,4.18-7.08,1.39-11.23-.14-.21-.24-.46-.35-.7-4.27-9.78-1.8-15.6,8.25-19.48,10.68-4.12,19.16-.9,25.09,9.27,4.23,7.24,10.38,11.39,19.09,11.31,6.93-.07,7.81.75,9.22,7.64.52,2.55.93,5.13,1.28,7.71.72,5.29.64,9.58-1.43,13.62-.9,1.76-1.74,2.49-7.03,7.04-11.09,9.54-11.04,9.51-11.3,9.7-7.25,5.43-10.88,8.15-16.48,9.09-1.76.3-6.14,1.73-10.46-.57-12.59-6.72-19.2-17.83-20.96-31.85ZM65.78,500.96c19.52,7.79,36.39,9.99,55.17,10.51,10.66.29,21.35-.55,32.02-.59,16.92-.06,33.84-.04,50.75.33,2.33.05,4.68,1.4,9.54,3.03,0,0,30.04,10.08,37.01,18.67.23.28.95,1.22,2.18,2.19,1.98,1.55,4.28,2.39,7.01,2.99,10.82,2.41,20.49,7.54,29.61,13.8,6.23,4.28,12.68,8.23,19,12.39,1.73,1.13,3.62,2.21,4.95,3.73,7.91,9.02,15.63,18.2,23.5,27.25,3.08,3.54,6.27,6.99,9.58,10.31,14.01,14.03,24.55,30.68,33.1,48.2,9.06,18.56,14.31,38.56,13.93,59.66-.19,10.68.09,21.39.55,32.06.3,6.96,1.31,13.88.68,21.66-5.48-6.01-11.26-11.77-16.39-18.07-14.8-18.18-29.47-36.46-43.92-54.91-10.29-13.14-20.68-26.16-32.92-37.56-9.34-8.7-18.87-17.19-28.22-25.87-8.53-7.92-18.93-12.84-29.1-18.03-8.1-4.13-16.63-7.41-24.98-11.07-.72-.31-1.52-.48-2.18-.87-14.86-8.93-31.72-13.68-46.69-22.45-6.96-4.07-14.74-6.74-21.72-10.78-5.04-2.91-20.21-10.91-38.06-23.15-28.78-19.72-50.33-40.07-58.36-47.58,2.7-.79,8.48,1.95,13.95,4.13ZM255.39,741.02c-.24.53-.54,1.08-.54,1.08-.25.39-.55.84-.89,1.42-4.66-1.65-9-3.26-13.4-4.72-10.39-3.45-20.86-6.67-31.2-10.29-13.83-4.84-25.05-13.5-35.28-23.89-16.14-16.4-30.84-33.93-43.28-53.27-3.34-5.2-6.31-11.03-7.75-16.98-3.47-14.31-13.16-24.7-21.15-36.2-2.81-4.05-5.8-7.98-8.34-12.2-5.38-8.92-10.82-17.82-15.66-27.03-1.11-2.12-2.17-4.26-3.19-6.42-4.5-9.48-7.54-16.51-8.63-19.07-9.07-21.39-15.8-29.72-14.03-31.17,2.87-2.36,21.48,19.08,58.44,45.76,2.16,1.56,3.74,3.07,6.38,4.52,17.12,9.41,34.27,18.74,51.44,28.05,17.88,9.7,35.61,19.7,53.73,28.9,0,0,19.44,10.57,45.66,31.41,0,0,9.13,7.25,8.08,8.79-.55.8-4.24-1.74-9.94-1.49-2.09.09-2.96,1.6-7.05,1.72-10.44.3-18.6,4.32-22.71,14.73-.92,2.34-2.61,4.68-4.57,6.25-8.41,6.75-7.25,17.88-2.77,27.3.58,1.22,1.76,7.55,6.16,14.89,6.88,11.5,21.26,26.2,20.5,27.9ZM251.65,726.1c-7.21-4.07-11.44-12.53-11.25-16.92.02-.44.13-1.78-.28-3.5-.5-2.09-1.59-3.88-3.07-5.7-7.47-9.25-6.69-17.77,1.78-26.17,2.3-2.28,4.26-5.14,5.62-8.08,2.29-4.95,5.72-8.01,11.12-8.72,3.1-.41,6.24-.57,9.34-1.01,3.49-.49,2.99-.91,6.04-1.38,7.45-1.13,11.24.38,11.24.38,3.25,1.3,2.55,3.3,6.96,8.17,5.83,6.44,9.31,5.44,12.15,10.78,1.77,3.33,2.07,6.56,2.06,9.5,0,4.39-1.11,8.76-1.43,13.16-.39,5.47-2.64,9.92-6.24,13.99-8.97,10.16-6.96,10.13-8.97,11.7-4.46,3.47-9.06,4.13-15.12,4.99-8.77,1.25-14.22,2.03-19.96-1.21ZM307.31,678.01c1.51-.89,8.86,8.58,13.42,15.12,25.69,36.9,30.11,42.76,33.73,47.78,6.08,8.44,12.98,16.29,19.37,24.51,5.59,7.19,11.09,14.46,16.43,21.85,1.26,1.75,1.69,4.1,3.02,7.49-10.36-.34-18.8-2.01-24.81-3.59-9.47-2.49-18.61-1.99-29.23-12.08-1.82-1.73-4.55-2.47-6.7-3.9-1.87-1.25-3.55-2.79-5.24-4.29-.56-.5-.82-1.33-1.32-1.93-5.52-6.67-26.61-11.8-34.19-7.5-3.76,2.13-6.26,1.29-9.31-.36-3.88-2.1-7.65-4.48-11.7-6.17-5.76-2.41-8.76-6.26-7.96-12.58.41-3.21,1.12-6.38,1.59-9.02,6.33-.01,11.47.02,16.61-.05,3.35-.04,5.74-1.55,7.84-4.31,3.6-4.76,7.68-9.18,11.59-13.7,3.11-3.59,5.69-7.22,6.67-11.76.22-1.05.06-1.25.4-4.93.52-5.8.87-6.75,1-9.08.4-7.13-2.15-10.94-1.21-11.49ZM275.01,792.26c1.59-2.64,3.01-5.47,3.95-8.39,2-6.18,1.85-6.23,8.14-12.11,2.49-.27,6.17-.87,10.44-2.35,2.41-.84,3.32-1.93,4.67-1.83,4.86.37,9.68,1.25,15.68,2.1,6.65,10.76,11.23,18.43,14.18,23.45.41.7,1.13,1.75,1.91,3.32,3.3,6.62,3.73,13.01,3.58,17.34-.89,5.23-3.82,17.81-14.14,24.64-2.83,1.88-7.95,5.24-12.48,3.19-3.49-1.59-4.78-5.66-5.21-7.3-4.17-6.84-6.56-14.08-13.34-17.92-4.05-2.29-8.08-4.65-12.26-6.68-7.05-3.42-9.19-10.72-5.12-17.47ZM272.15,782.75c-.28,1.57-.81,2.3-1.08,3.07-1.21,3.43-3,9.21-5.5,19.52-1.57-8.58-2.64-18.82-2.22-30.33.16-4.5.53-8.74,1.04-12.7,6.08-1.34,9.95,2.9,16.21,3.75-5.64,5.3-7.39,10.78-8.45,16.69ZM232.54,844.96c-1.51,4.58-3.66,5.27-4.21,10.03-.37,3.22.49,4.77-.85,6.43-.98,1.21-3.02,1.49-7.17,2.63-7.84,2.15-13.07,1.47-15.91-6.81-.38-1.1-1.61-2.13-2.71-2.73-9.29-5.14-10.53-13.06-8.53-22.58.52-2.48-.52-5.47-1.45-8.01-.79-2.15-2.66-3.88-3.67-5.97-2.55-5.3-1.83-8.73,2.71-12.42,3.42-2.78,7.09-5.25,10.75-7.94-.17-1.72-.34-3.25-.48-4.78-.32-3.5,1.69-5.37,4.7-6.25,1.73-.51,3.62-.82,5.41-.73,5.74.29,10.81-.76,13.29-5.59,4.84,1.23,9.56,1.37,13.01,3.55,5.99,3.78,12.84,7.22,14.96,15.05.82,3.04.89,5.76.06,8.24-.81,2.43-2.25,3.09-4.7,6.32-2.71,3.56-2.43,4.48-4.58,7.68-4.65,6.94-7.91,5.51-9.98,10.25-2.23,5.13,1.6,6.75-.67,13.64ZM264.7,896.33c-.85.01-2.32-.15-5.26-.47-5.41-.6-8.11-.9-9.61-1.59-3.66-1.69-2.7-4.25-7.83-8.58-3.02-2.54-3.41-1.8-4.87-3.52-3.12-3.67-2.82-8.8-2.42-14.52.27-3.81.49-3.25,1.47-9.5,1.17-7.47,1.34-14.47,1.35-15.14.14-6.93-.55-8.09.81-9.84,2.54-3.25,6.66-1.39,9.42-4.99,1.96-2.56.62-4.46,2.89-7.37,1.37-1.75,2.94-2.39,5.97-3.76,5.69-2.57,11.11-2.51,13.42-2.46.7.02.85.06,1.82.09,4.95.15,6.44-.5,8.21-.27,2.24.29,3.24,1.79,7.38,6.63,7.12,8.32,6.47,6.57,8.57,9.59,3.54,5.11,6.91,9.96,6.43,15.84-.34,4.15-2.21,4.06-3.81,11.12-1.32,5.81-.21,6.58-1.63,10.05-1.57,3.85-3.54,4.4-8.47,9.68-6.22,6.68-4.54,7.38-9.34,11.75-2.86,2.61-7.95,7.13-14.51,7.24ZM290.48,986.44c-8.66-26.1-14.38-52.76-16.15-80.26-.25-3.85.86-6.15,3.94-8.52,13.65-10.5,22.53-24.38,27.63-40.74.77-2.47,1.39-4.99,2.16-7.8,4.43-.82,8.77-1.52,13.06-2.46,2-.44,4.58-.77,5.71-2.13,5.11-6.16,10.67-10.36,12.45-13.81.56-1.09,8.1-16.11,3.65-24.26-.56-1.02-2.7-2.78-2.3-5.64.69-4.96-.35-9.16-3.32-13.23,5.43,3.76,10.22,5.9,13.49,7.14,19.99,7.6,33.35.64,47.21,10.69,3.04,2.2,5.44,3.84,7.08,6.98,10.79,20.69,15.3,45.7,15.3,45.7,1.43,38.43-3.47,81.63-6.62,118.1-2.26,26.18-1.81,22.99-5.44,74.9-1.13,16.13-2.37,32.26-3.24,48.41-.72,13.25-1.11,26.53-1.38,39.8-.36,17.21-.44,34.43-.71,51.65-.02,1.49-.59,2.96-1.29,6.2-9.03-14.7-17.34-27.58-25-40.84-10.3-17.82-19.85-36.07-30.22-53.84-6.02-10.32-13.33-19.88-19.48-30.12-3.45-5.75-6.5-11.97-8.34-18.39-1.78-6.23-3.13-11.48-4.24-16.96-.22-1.07-1.32-6.65-2.02-12.01-1.01-7.79-1.23-15.74.34-36.96,1.82-24.65,3.12-27.39,5.32-28.17,4.01-1.42,6.66,5.24,18.82,9.38,5.16,1.76,13,4.61,19,1.09,4.24-2.48,3.82-5.92,10.09-9.53,3.52-2.03,5.16-1.81,6.91-4.1,2.14-2.79.92-4.73,2.77-9.21,1.81-4.39,3.6-4.07,5.26-7.73,1.55-3.42.47-4.79.18-14.05-.34-11.01,1.09-11.91-.71-15.37-1.91-3.67-4.1-3.75-6.55-8.83-1.93-4-.95-4.74-2.59-7.2-.99-1.48-2.4-2.8-12.34-6.65-9.56-3.71-11.33-3.68-12.73-3.46-3.65.56-3.84,2.2-8.02,2.8-5.35.76-6.67-1.7-9.93-.53-3.36,1.2-2.95,4.17-7.61,10.21-4.44,5.76-5.96,4.56-8.7,9.04-1.51,2.47-1.3,3.24-4,13.95-2.85,11.26-3.19,10.83-3.02,12.7.54,6.03,1.73,8.46,3,14.66,1.43,6.93.56,11.59-.23,19.12-.63,6-.75,24.93-.98,62.78-.03,4.37-.04,7.92-.04,10.1-1.6-4.82-3.22-9.63-4.78-14.46-2.08-6.44-4.21-12.87-6.14-19.36-1.85-6.23-3.2-12.61-5.24-18.77ZM311.54,928.75c.39-4.84,1.79-8.41,3.02-11.49.61-1.51,1.27-2.97,5.44-10.28,6.82-11.94,7.91-13.06,9.68-13.91,3.44-1.65,4,.36,10.76-1.27,5.62-1.35,6.76-2.72,10.41-2.36,1.97.19,3.94,1.14,7.86,3.02,4.81,2.31,7.15,3.52,8.47,4.84,0,0,3.21,3.7,5.41,12.03.03.1.05.2.05.2.08.36.09.61.56,2.74.63,2.82,1.36,5.63,2.02,8.45.03.12.08.33.14.62,1.38,6.28-.86,15.65-1.17,16.9-1.66,6.67-2.49,10-4,12.29-2.55,3.86-5.76,6.11-9.62,8.81-2.53,1.77-4.96,3.47-8.65,4.85-3.9,1.45-8.32,3.1-12.58,1.46-2.89-1.11-2.33-2.44-7.26-6.05-4.31-3.15-5.25-2.25-9.03-5.13-4.02-3.06-6.25-6.51-7.31-8.18-1.16-1.82-2.68-4.27-3.63-7.86-1.07-4.06-.79-7.34-.6-9.68ZM117.36,856.21c.64-3.5.49-7.15.65-10.74.04-1.02-.54-2.32-.09-3.03,3.71-5.91,7.22-12.03,11.64-17.38,1.61-1.94,6.21-3.51,8.27-2.59,6.04,2.7,12.35.79,18.34,2.33,2.49.64,5.12.76,8.38,1.21,4.8,11.02,9.65,22.13,14.47,33.25.52,1.19.94,2.43,1.4,3.65,3.29,8.84.84,13.94-10.27,16.61-6.52,1.56-13.01,3.22-19.18,4.76-6.46-1.88-12.26-3.97-18.23-5.21-10.12-2.1-17.25-12.57-15.36-22.85ZM130.54,930.15c-3.99.22-7.06,1.45-9.79,4-7.26,6.78-14.97,3.12-22.56.94-.83-.24-1.91-1.43-1.97-2.25-.46-6.19-5.14-10.06-7.9-14.99-4.74-8.46-4.36-10.06,1.86-17.14,1.96-2.23,3.54-5.03,4.52-7.83,1.16-3.3,4.19-6.28,7.19-8.31,6.6-4.44,16.17-1.93,23.13-.11,3.64.95,11.63,3.51,15.15,2.79,2.47-.5,4.43,1.27,4.85,4.05.35,2.32,1.07,4.67.89,6.95-.56,7.25-1.22,14.52-2.31,21.71-.81,5.38-6.2,9.79-13.06,10.17ZM188.74,950.66c-5.17-2.28-9.29,1.4-12.72,3.92-4.24,3.12-7.03,3.42-12.36,1.92-6.83-1.92-11.38-5.57-15.88-10.25-3.4-3.54-4.6-7.45-2.95-12.12,1.12-3.19,2.31-6.35,3.43-9.54.86-2.45,2.3-4.91,2.35-7.39.1-5.38.37-10.07,5.75-13.47,1.66-1.05,1.48-5.26,1.86-8.06.81-5.89,2.58-7.65,8.49-8.42,9.55.44,19.12.66,28.65,1.4,4.5.35,8.78,1.71,9.45,7.52.15,1.31,1.87,2.38,2.62,3.7,1.26,2.22,3.3,4.56,3.29,6.84-.03,6.01,1.53,11.74,2.09,17.59.76,7.95-1.82,14.78-10.01,18.4-1.7.75-2.96,2.76-4.15,4.39-2.54,3.47-5.28,5.6-9.91,3.56ZM208.86,954.26c-3.36,3.55-5.76,6.09-8.07,8.54-3.34-1.57-3.69-3.6-2.21-5.94,2.11-3.34,5.21-3.74,10.28-2.59ZM254.69,1008.93c-.2,1.47-.97,2.93-1.76,4.22-.81,1.32-2.53,2.28-2.88,3.65-2.42,9.48-10.49,12.24-18.14,15.37-1.94.79-4.82,1.24-6.47.35-3.48-1.87-6.45-1.44-9.65.12-.94.46-1.88.91-2.85,1.29-9.45,3.7-20.81-1.7-22.23-11.68-1.09-7.61-3.26-14.68-5.79-21.79-.69-1.94-.98-4.03-1.11-4.55-1.11-12.54,6.03-21.09,17.24-21.99,3.39-.27,5-2.02,6.4-4.81,2.95-5.87,6.83-7.29,12.59-4.37,4.02,2.04,7.92,4,12.59,3.46.5-.06,1.26-.08,1.52.21,3.75,4.28,9.03,6.66,13.05,10.42,3.1,2.91,4.91,7.28,7.01,11.15.95,1.75,1.77,3.88,1.73,5.82-.09,4.39-.64,8.78-1.24,13.13ZM90.9,1151.82c4.23,5.56,8.37,11.21,12.42,16.91,9.51,13.39,22.43,23.15,35.18,33.07,18.1,14.09,36.33,28.02,54.48,42.06,8.66,6.7,17.13,13.65,25.9,20.19,21.27,15.86,37.2,36.11,50.65,58.81,15.07,25.42,27.13,52.24,38.93,79.21,5.22,11.93,8.97,24.51,14.32,36.37,7.17,15.9,15.2,31.42,22.95,47.06,4.4,8.88,9.2,17.56,13.44,26.51,7.52,15.9,17.85,30,27.8,44.36.69.99,1.19,2.11.84,4.02-2.82-2.53-5.93-4.8-8.4-7.63-9.23-10.63-18.15-21.52-27.35-32.17-12.09-14.01-23.04-28.9-33.86-43.88-7.94-11-15.84-22.04-23.29-33.37-11.01-16.76-21.1-34.13-32.49-50.62-10.86-15.73-22.43-31.05-36.65-44.06,0,0,0,0,.01,0-2.49-3.28-4.74-6.78-7.5-9.81-7.15-7.86-14.5-15.53-21.81-23.24-.5-.52-1.99-1.7-3.9-3.49h0c-2.48-2.48-6.74-6.87-7.06-7.2-.81-.84-23.28-24.5-44.43-55.56-28.14-41.31-48.12-87.13-53.59-99.97,1.16.81,2.6,1.39,3.42,2.45ZM293.25,1534.6c-.27-.12-1.33-.61-2.76-1.29-4.02-1.91-11.64-5.65-20.57-10.94-7.8-4.61-15.54-9.79-24.22-16.24-5.59-4.14-10.18-9.67-15-14.78-10.59-11.2-19.19-23.91-27.68-36.72-7.78-11.73-16.41-22.92-23.82-34.87-8.78-14.15-16.81-28.78-24.87-43.37-6.17-11.17-12.39-22.37-17.65-33.98-6.93-15.28-10.33-31.63-13.24-48.14-2.17-12.3-5.68-24.36-8.63-36.53-.24-1.01-.9-1.92-1.12-2.92-4.27-19.69-12.37-38.15-18.38-57.28-2.27-7.22-4.15-14.56-6.11-21.87-.38-1.42-.33-2.96-.62-5.89,1.8,1.45,2.72,1.86,3.1,2.56,11.99,22.22,18.41,30.25,34.26,57.77,8.37,14.54,19.52,29.73,30.24,44.33,1.09,1.49,1.91,2.6,2.53,3.43,15.42,20.58,22.98,30.98,50.27,63.31,28.4,33.66,58.94,87.84,84.4,127.08,17.57,27.08,44.51,65.04,83.47,107.97-54.05-27.28-76.66-38.46-83.58-41.64ZM934.67,1252.57c-16.08,1.48-28.12,1.49-32,1.73-15.87.98-31.74,2.15-47.61,3.12-17.12,1.04-32.77,6.07-46.15,17.06-2.78,2.28-4.93,5.35-7.22,8.18-12.64,15.61-25.04,31.36-34.65,49.15-6.81,12.6-13.66,25.32-21.89,36.99-11,15.61-23.7,29.76-41.87,37.83-9.51,4.22-18.75,9.17-27.79,14.34-9.83,5.63-20.08,10.13-31.16,12.24-14.08,2.68-26.33,9.85-39.34,15.16-11.58,4.73-23.08,9.66-34.52,14.71-3.29,1.45-6.46,3.36-9.37,5.49-6.73,4.93-13.24,10.17-19.91,15.19-1.56,1.18-3.41,1.98-5.13,2.95-.6-.55-1.2-1.09-1.8-1.64,16.11-29.82,31.24-48.92,42.45-61.08,31.59-36.47,43.35-50.14,46.88-54.33.42-.49,1.85-2.21,3.84-4.47,15.21-17.25,16.88-16.99,51.3-51.29,0,0,39.83-39.69,59.43-54.58,5.58-4.24,11.25-8.05,11.25-8.05,4.74-3.18,10.08-6.51,16.14-9.9,8.61-4.83,17.73-8.84,26.92-12.48,22.58-8.96,46.07-10.71,70.04-7.82,13.49,1.62,27.02,3.29,39.57,8.81,7.11,3.13,13.79,7.24,20.66,10.91,2.96,1.58,5.93,3.14,8.84,4.81,2.83,1.63,5.58,3.39,7.99,6.51-1.13.12-2.83.29-4.9.48ZM484.77,1528.61c7.66-24.41,15.57-48.74,23.03-73.21,4.72-15.47,8.94-31.11,13.08-46.75,4.22-15.9,9.42-31.4,15.9-46.55,6.35-14.85,12.02-30.02,17.57-45.19,7.4-20.2,19.44-37.62,33.34-53.54,14.04-16.08,29.59-30.97,47.81-42.37,14.8-9.26,30.44-17.18,45.49-26.06,13.88-8.19,28.94-13.4,44.35-17.19,14.64-3.61,29.73-5.37,44.59-8.13,12.02-2.23,23.96-4.92,35.99-7.08,6.88-1.23,13.91-2.68,20.82-2.45,10.13.33,20.24,1.62,29.85,5.64,6.73,2.82,13.77,4.92,20.75,7.09,17.28,5.36,28.96,17.64,37.9,32.33,5.85,9.63,12.49,18.55,19.08,27.59,3.03,4.16,5.7,8.57,8.53,12.86-.36.48-.73.97-1.09,1.45-3.79-1.92-7.89-3.4-11.34-5.82-21.89-15.34-46.64-21.81-72.83-23.22-11.92-.64-24.04-.54-35.87.86-24.08,2.85-40.99,10.69-57.88,18.36-25.77,11.69-44.04,24.49-51.95,30.31-6.6,4.85-23.43,21.06-56.83,53.3-17.64,17.03-29.67,29.62-45.67,46.08-6.36,6.54-12.42,13.4-18.17,20.47-9.88,12.15-19.44,24.55-29.07,36.9-7.71,9.88-15.3,19.84-22.99,29.73-8.33,10.72-16.43,21.51-23.15,33.43-6.39,11.33-14.31,21.79-21.58,32.61-3.03,4.51-6.11,8.98-10.18,13.22.17-1.56.08-3.21.54-4.68ZM720.14,908.74c-1.21,1.45-1.25,4.34-1,6.47.73,6.25-1.02,11.03-6.18,14.99-7.01,5.38-13.59,11.31-20.66,17.26-2.18-1.48-4.27-2.4-7.5-1.55-4.33,1.13-9.13.51-13.72.6-.51.01-1.3,0-1.49-.29-3.07-4.76-8.02-7.35-12.17-10.87-1.89-1.6-2.87-4.29-4.2-6.52-.52-.88-1.29-1.91-1.2-2.8.7-6.65,1.54-13.29,2.46-19.91.13-.96.91-1.83,1.52-3.01,1.84-5.91,5.7-15.16,14.25-23.25,2.41-2.28,3.56-3.76,5.89-4.58,12.45-4.4,34.07.36,40.13,14.33.82,1.89,2.03,3.71,3.42,5.23,4.2,4.58,4.61,8.9.45,13.9ZM696.9,820.8c1.89.79,4.64.61,6.63-.13,6.64-2.46,11.93-.83,17.15,3.7,4.3,3.73,9.57,6.47,11.28,12.41.76,2.65,1.51,5.48,1.35,8.17-.42,7.09-3.17,13.39-7.12,19.31-2.53,3.81-4.32,8.11-6.26,11.83-5.14-2.34-8.92-4.49-12.98-5.82-7.9-2.58-15.89-4.27-24.43-4.23-7.12.04-14.25-2.05-21.63-3.23-.29-6.34,1.65-10.99,5.01-15.07,6.45-7.84,13.15-15.48,19.52-23.39,3.15-3.91,6.4-5.67,11.47-3.56ZM686.94,810.57c.8-1.33,1.47-2.77,2.5-3.91,14.13-15.65,28.21-31.34,42.54-46.8,3.49-3.77,7.82-6.78,11.76-10.13.41.33.82.67,1.24,1-3.14,3.43-6.39,6.77-9.4,10.32-8.05,9.49-16.04,19.02-23.96,28.61-5.14,6.22-10.03,12.64-15.21,18.82-2.24,2.67-5.15,4.38-8.87,3.48-.21-.27-.4-.44-.49-.65-.09-.23-.21-.57-.11-.74ZM767.68,873.2c-11.65,9.67-24.18,17.46-36.36,26.61-3.66-5.17-7-9.88-9.91-13.99,4.42-6.17,8.28-11.55,11.88-16.58,11.31,1.3,22.4,2.58,34.39,3.96ZM660.66,840.94c-2.91,4.52-5.2,9.6-6.83,14.73-2.34,7.36.52,11.41,8.12,12.87,1.75.34,3.55.48,4.93.67-1.76,4.53-3.38,8.86-5.12,13.14-2.43,5.95-7.58,8.47-13.82,11.31.26-5.07.23-9.18.72-13.23.94-7.72-1.61-13.61-8.79-16.24-7.46-2.73-15.34-4.32-24.17-6.71,2.16-8.04,3.06-16.84,9.32-23.91,3.3-3.72,6.61-5.68,11.55-4.16,3.57,1.1,6.87.85,10.49-.81,2.54-1.17,6.11-1.13,8.95-.46,8.39,1.99,9.28,5.63,4.66,12.8ZM616.58,870.85c1.46-.9,3.08-2.27,4.95-2.97,2.64-.99,5.47-2.08,7.29,1.74.57,1.19,2.27,1.95,3.59,2.66,7.53,4.04,9.66,10.57,8.24,19-1.59,9.43-7.37,16.98-10.01,25.97-1.79,6.09-7.31,10.54-14.75,11.24-4.08.38-8.12,1.59-12.07,2.78-6.36,1.91-12.24-.95-18.29-1.73-1.28-.16-2.55-3.08-3.22-4.94-1.5-4.16-2.81-8.41-3.85-12.7-.73-3.01-1.22-6.15-1.2-9.23.02-3.5,3.73-3.82,5.66-5.68,2.36-2.27,4.03-5.43,5.45-8.46,3.79-8.12,5.03-9.33,13.79-11.56,2.11-8.19,4.01-10.15,14.41-6.12ZM597.92,948.12c5.02-9.16,18.02-13.05,27.65-8.84,12.14,5.31,18.84,14.96,21.48,23.67,1.84,13.94-2.29,22.23-9.11,29.06-5.68,5.68-11.96,10.91-19.69,13.77-1.89.7-4.5,1.55-6.01.8-5.67-2.86-12.6-3.54-16.73-9.23-.57-.78-1.45-1.63-2.34-1.85-8.73-2.18-9.28-9.57-10.19-16.4-.51-3.82.03-7.81.4-11.7.52-5.61,3.75-9.73,8.26-12.7,2.68-1.76,4.67-3.62,6.28-6.57ZM638.47,935.61c-4.65-5.4-4.56-6.06-1.59-12.39,1.27-2.71,2.48-5.87,2.33-8.76-.34-6.84,5.57-9.81,8.21-14.83-1.61,7.87-.05,15.59-2.19,23.27-1.95,7.02,2.37,14.8,7.88,19.36,4.68,3.88,7.81,8.54,12.09,13.7-2.7,2.74-5.44,5.51-9.11,9.24-2.65-13.06-10.38-21.17-17.63-29.6ZM731.16,915.19c-.84.34-1.69.52-1.69.52-.71.06-1.54.07-2.41.21.19-4.9,3-7.57,5.93-9.94,2.62-2.11,5.64-3.73,8.46-5.6.5-.33,3.97-2.62,10.88-7.26,14.98-10.05,28.04-23.82,29.18-22.79,2.11,1.91-47.75,43.81-50.35,44.85ZM773.34,861.26c-3.58,2.71-6.87,5.12-10.72,4.6-1.65-.22-2.11.08-4.26-1.29-1.97-1.26-5.49-.05-8.3-.02-3.75.05-7.5.05-12.16.07,1.24-7.78,2.13-14.41,3.41-20.96.69-3.53.35-6.35-1.78-9.51-1.95-2.88-3.13-6.56-3.63-10.03-.27-1.88,1.25-4.37,2.62-6.04,2.63-3.18,5.37-6.49,8.74-8.76,2.86-1.92,6.68-2.38,10.02-3.62,3.65-1.35,6.01-.18,8.82,2.56,1.88,1.83,5.69,1.67,9.49,2.61,3.65,7.15,3.64,7.1,12.54,6.18,1.68-.17,3.42.26,4.99.4-.42,4.83-.8,9.11-1.2,13.61-.14,2.12-.58,5.4-2.06,9.06-2.05,5.06-4.54,8.42-7.45,12.05-4.4,5.49-8.14,8.37-9.07,9.07ZM819.21,818.68c3.17,1.31,6.15,2.52,9.73,1.24,1.23-.44,3.08.32,4.45.96,3.53,1.66,7.02,3.43,10.4,5.38,3.13,1.81,7.27,3.28,8.76,6.08,1.24,2.32-.83,6.33-1.25,9.62-.23,1.78-.35,3.65-.09,5.42,1.83,12.61-4.67,17.72-13.47,20.45-3.81,1.18-6.17,3.07-8.42,6.19-2.22,3.08-5.14,5.88-8.28,8.03-6.05,4.15-6.73,3.84-12.73-1.04-1.61-1.31-3.35-2.49-5.18-3.48-5.55-3-9.91-7.51-14.72-11.36.21-5.33.52-9.94.54-14.56.02-3.95,2.36-6.64,5.39-7.92,3.6-1.52,4.52-3.86,4.54-7.22,0-1.3.52-2.66.26-3.88-1.2-5.77,1.79-9.19,6.08-12.34,4.5-3.31,9.09-3.6,13.99-1.57ZM806.5,754.82c4.02,1.49,6.13,5.52,6.22,10.09q.17,9.17,9.72,8.98c2.48,3.44,1.73,6.8.67,10.85-4.82,18.38-19.4,22.73-35.26,25.56-.77.14-1.54.26-2.32.35-.76.1-1.53.16-3.06.31-2.14-5.64-4.42-10.55-10.56-7.78-3.77-3.51-7.03-6.54-10.29-9.57-.25.26-.5.52-.75.78-.97-3.5-2.18-6.95-2.87-10.5-1.73-8.94,4.19-14.47,9.47-20.15,1.57-1.69,3.84-2.7,5.47-4.35,11.08-11.24,19.46-9.8,33.55-4.56ZM815.33,690.71c-5.3,12.31-10.31,23.67-15.05,35.14-1.38,3.34-1.87,7.03-2.99,10.49-1.22,3.78-3.5,6.15-7.97,6.06-6.9-.13-12,3.28-17.28,7.72-5.44,4.57-10.49,9.27-14.63,14.95-5.33,7.32-7.45,15.21-4.11,24.19,1.04,2.8.73,6.1,1.09,9.74-11.88,3.35-20.05,11.84-28.73,20.26-8.21-4.59-16.11-9.7-26.48-6.3,3.93-5.3,7.81-10.63,11.79-15.89,6.76-8.95,13.23-18.15,20.46-26.71,6.37-7.55,13.29-14.69,20.52-21.43,12.39-11.54,25.3-22.53,37.82-33.95,5.19-4.73,9.84-10.06,14.9-14.95,3.24-3.14,6.78-5.97,10.66-9.35ZM557.41,920.92c.7-6.47,1.42-12.95,1.77-19.44,1.17-22,8.76-42.26,16.79-62.38,3.09-7.74,6.58-15.39,10.69-22.64,3.03-5.35,6.53-11.03,11.27-14.68,9.23-7.11,16.58-15.91,23.91-24.6,10.81-12.81,22.4-24.84,35.4-35.21,10.55-8.42,22.55-15.08,36.15-17.87,2.01-.41,4.19-.37,6.24-.13,12.5,1.46,24.23-2.18,36.04-5.27,1.73-.45,3.28-1.57,4.93-2.33,5.17-2.38,10.32-4.84,15.55-7.09,9.32-3.99,18.7-7.86,28.07-11.76,8.31-3.46,16.63-6.9,24.95-10.34.47.61.94,1.21,1.41,1.82-5.43,5.84-10.34,12.3-16.4,17.39-13.57,11.4-27.73,22.12-41.63,33.13-7.53,5.97-15.34,11.64-22.47,18.06-6.18,5.56-11.7,11.87-17.28,18.05-8.22,9.1-16.47,18.19-24.28,27.64-5.8,7.02-10.89,14.61-16.33,21.93-.75,1.01-1.69,1.89-2.56,2.85-.98-.42-1.95-.51-2.33-1.03-5.97-8.13-14.24-7.2-22.7-6.05-4.09.55-8.32,1.11-12.37.62-3.62-.44-6.34.6-8.37,3.02-3.34,3.98-6.87,8.02-9.15,12.62-3.8,7.65-6.18,16.02-10.14,23.58-2.05,3.92-5.72,7.52-9.52,9.88-6.24,3.87-11.3,8.16-13.6,15.44-.62,1.95-2.74,3.64-4.54,4.94-6.93,5.02-8.8,10.15-6.44,18.28,1.6,5.5,3.31,10.98,4.51,16.58,1.31,6.12,6.66,7.56,10.99,10.12,1.93,1.14,4.36,1.46,6.89,2.25-1.32,5.39-3.97,9.62-7.95,13.03-3.06,2.62-6.02,2.38-6.69-1.16-1.92-10.24-10.36-13.67-17.69-18.39-1.31-.84-2.69-1.55-4.61-2.65.51-2.69,1.21-5.42,1.51-8.19ZM536.78,997.11c-1.36-1.63-2.61-2.95-3.65-4.42-2.34-3.28-5.27-3.62-8.95-2.52-8.07,2.41-12.79-1.15-12.83-9.88-.04-9.18,3.47-17.32,8.61-24.72,2.05-2.95,4.28-5.26,4.59-9.45.43-5.86,7.49-9.53,13.35-7.89,2.84.8,5.2.58,8.14-.63,3.09-1.27,7.01-.58,10.57-.62,4.05-.04,5.52,2.78,7.3,5.95,1.97,3.49,5.62,6.02,7.61,9.49,1.59,2.78,1.94,6.32,2.54,9.58.32,1.75-.7,4.02.08,5.36,3.14,5.38.46,9.5-2.29,13.72-1.86,2.84-4.1,5.47-5.64,8.46-3.64,7.08-9.35,10.97-18.25,12.26-1.93-5.59-5.97-6.74-11.17-4.71ZM544.81,1016.86c1.2-4.39,6.01-7.33,12.63-8.11-5.34,9.42-10.4,18.37-15.46,27.31-.47-.11-.94-.22-1.41-.34,1.39-6.3,2.55-12.65,4.25-18.86ZM542.51,1043.94c8.16-13.56,15.31-27.71,23.2-41.44,2.93-5.11,6.77-9.71,10.95-15.6,3.57,6.36,6.55,11.66,10.08,17.92-4.42,5.69-8.55,12.41-14.02,17.78-12.41,12.2-24.93,24.23-34.77,39.01-.47-6.52,1.2-12.06,4.56-17.66ZM523.79,1115.78c.75-2.39,7.15-23.49,9.67-33.77,1.17-4.75,3.04-8.76,6.08-12.4,8.52-10.17,16.55-20.82,25.71-30.39,7.92-8.29,16.22-16.13,22.68-25.7,1.54-2.28,3.79-4.08,5.68-6.07,4.45,1.89,8.21,3.64,12.09,5.08,3.54,1.32,7.21,2.32,11.8,3.76-6.18,9.23-12.58,16.91-19.37,24.32-4.73,5.17-9.18,10.6-13.7,15.97-9.63,11.46-18.96,23.2-28.74,34.52-6.2,7.17-5.37,5.82-10.63,11.87-19.67,22.57-28.14,36.59-29.67,35.68-1.1-.65,3.64-7.62,8.4-22.87ZM579.22,696.88c-20.72,21.37-40.53,43.43-57.84,67.72-11.95,16.78-24.75,32.95-36.9,49.6-2.32,3.18-3.93,7.37-6.34,12.46-38.4,80.91-48.67,158.44-48.67,158.44-2.2,16.62-3.32,33.41-4.71,67.04-1.22,29.66-1.87,59.36-2.16,89.05-.27,27.64.07,55.28.52,82.92.19,11.36,1.93,23.48,1.93,23.48.27,2.99.24,2.56.33,3.65,2.39,27.72,3.36,41.59,3.5,43.51.21,2.72.29,5.6,3.45,6.18,3.5.63,4.66-1.71,5.62-4.94,2.68-8.97,5.9-17.77,8.96-26.62.69-1.99,2.36-7,5.94-16.94,2.7-7.52,10.85-30.15,23.84-52.66,18.55-32.14,37.93-48.36,48.25-63.81,4.24-6.35,6.72-8.22,8.46-10.22,12.17-13.99,18.15-18,28.96-30.74,5.31-6.26,3.3-4.78,9.6-12.2,9.1-10.73,18.34-21.33,27.48-32.02,1.34-1.57,2.73-3.2,3.67-5.02,9.54-18.53,21.76-34.83,38.72-47.28,1.2-.88,2.34-2.25,2.84-3.63,2.41-6.64,7.37-11.8,10.77-17.86,4.33-7.71,11.79-13.82,18.54-19.92,2.36-2.13,6.61-2.16,10.56-3.31.15,4.41-2.28,6.13-4.25,7.97-12.97,12.11-24.84,25.18-35.89,39.08-9.54,12-19.96,23.3-29.71,35.14-11.72,14.24-23.18,28.7-34.7,43.1-17.01,21.26-18.38,23.44-21.5,27.41,0,0-1.54,1.95-3.15,3.9-11.6,14.05-48.48,51.61-72.12,94.7-7.05,12.86-10.86,22.46-18.15,40.76-8.21,20.6-15.44,41.66-19.71,63.41-4.87,24.8-5.23,43.39-5.37,66.8-.44,69.23,11.31,122.98,12.16,157.86.2,8.08.33,15.51,1.78,26.74.86,6.65,1.92,13.29,2.9,19.93.43,2.89-.19,5.5.55,9.33.75,3.88,3.12,12.41,5.76,12.42,4.3.02,4.07-22.48,16.26-47.56,1.55-3.18,4.35-8.7,7.25-13.88,3.69-6.59,7.4-13.19,11.42-19.58,7.78-12.35,15.48-24.77,23.76-36.79,10.65-15.47,21.56-30.77,32.86-45.78,12.4-16.47,24.91-32.89,38.22-48.62,10.6-12.52,22.43-24.01,33.79-35.88,9.56-9.98,19.12-19.96,28.88-29.74,10.31-10.33,20.76-20.53,31.32-30.6,6.16-5.88,12.64-11.42,18.99-17.11,0,.01-.02.03-.01.03.06.08,3-2.19,4.77-3.56,9.42-7.28,10.36-7.75,12.04-9,2.01-1.49,4.1-2.86,6.98-3.3-8.33,7.62-88.24,81.06-141.72,142.79-14.79,17.08-38.88,45.1-57.43,77.32-3.74,6.49-6.68,12.16-14.12,24.7-12.03,20.29-18.78,29.29-27.78,47.99-2.04,4.23-4,8.5-6.03,12.74-8.58,17.97-12.21,37-13.09,56.82-.68,15.3,1.69,30.04,5.39,44.74,2.66,10.58,4.11,18.85,5.36,23.65,11.49,44.09,25.43,84.17,25.43,84.17,15,43.71,25.59,73.9,32.67,93.86,7.76,21.87,11.63,32.81,11.79,33.17,11.5,26.42,21.56,37.17,18.15,50.81-1.11,4.44-4.38,12.08-5.22,20.08-.13,1.25-.49,5.23-2.12,10.22-.67,2.05-1.36,3.68-1.83,4.72-6.38-18.05-11.74-33.41-15.84-45.21-16.98-48.96-17.96-54.6-19.45-59.46-3.36-10.95-5.47-22.29-8.29-33.41-1.15-4.53-2.63-8.99-4.07-13.44-.8-2.48-1.94-4.84-2.76-7.32-2.83-8.66-5.49-17.37-8.4-26-4.33-12.84-8.96-25.58-13.19-38.45-2.36-7.2-1.39-6.19-3.91-15.94-6.42-24.87-14.63-47.46-14.63-47.46-7.45-20.3-11.21-30.56-18.87-44.44-1.88-3.42-8.65-15.49-19.68-29.9-4.55-5.94-8.33-10.24-10.21-12.38-16.76-19.06-96.19-106.98-106.61-124.03-.4-.66-3.3-5.43-7.53-11.81-1.59-2.4-3.41-5.06-5.5-8.02-10.23-14.45-16.14-20.13-26.78-38.55-8.95-15.49-11.07-21.23-19.35-35.38-13.67-23.34-28.08-42.19-40.79-56.85.02-.02.46-.33.49-.35l.49-.35c22.39,24.55,32.12,37.02,36.39,42.82,1.28,1.74,9.68,13.23,20.2,27.73.46.63,1.02,1.21,1.37,1.89,5.99,11.57,12.97,22.51,20.51,33.13,8.56,12.07,16.57,24.55,25.33,36.47,10.94,14.89,21.98,29.76,33.76,43.98,12.45,15.03,25.07,30.07,39.01,43.67,23.27,22.71,33.71,41.9,33.71,41.9,16.51,21.87,20.76,29.68,23.74,28.58,4.15-1.54-.02-18.33-7.36-70.86-3.1-22.18-4.77-35.56-6.66-54.3-1.52-15.04-1.97-30.18-3.33-45.24-1.55-17.15-3.81-34.23-5.32-51.38-1.01-11.4-.99-22.89-1.89-34.31-.84-10.66-2.46-21.26-3.42-31.91-2.15-23.75-1.82-30.54-3.03-43.55-2.38-25.55-8.92-44.28-15.79-63.98-5.46-15.64-12-32.7-29.49-64.54-10.14-18.46-20.1-37.02-30.35-55.42-3.03-5.44-6.71-10.52-10.24-15.67-8.27-12.08-14.7-22.14-23.51-34.05-6.68-9.04-10.03-13.56-13.97-18.09-17.13-19.7-25.94-29.27-28.68-31.89-6.67-6.38-6.94-8.58-1.42-18.2,8.55,8.97,16.79,17.91,25.36,26.53,9.09,9.13,15.85,19.92,22.93,30.54,5.62,8.44,12.31,16.19,17.69,24.76,8.3,13.22,15.87,26.9,23.78,40.36,2.11,3.6,4.4,7.09,6.5,10.69,20.64,35.45,32.01,52.54,36.46,62.82,4.07,9.39,6.86,17.67,9.39,17.26,2.59-.42,3.44-9.79,3.89-14.83.64-7.06.04-12.34.07-14.84.13-11.16.39-22.32.37-33.48-.01-11.63-.3-18.56-.42-24.13-.41-18,.78-28.63,3.64-65.42.93-11.95-.72-29.86,4.73-64.69,2.47-15.78,2.62-27.72,4.1-51.45.98-15.67,1.98-31.69,2.37-52.97.53-28.11.74-42.38-1.81-53.23-4.41-18.75-12.21-31.66-22.27-47.73-7.33-11.71-18.2-27.13-33.68-43.59,0,0,0,0,0,0-8.5-12.74-15.4-21.82-17.17-24.19-14.14-18.93-16.03-24.37-28.31-39.53,0,0-18.94-23.38-45.35-45.61-4.3-3.62-9.75-8-12.13-9.82-5.96-4.58-12.03-9.03-18.12-13.44-.59-.43-1.06-.7-1.41-.93-5.03-3.31-13.09-8.37-25.42-15.3,12.86,4.93,28.5,12.46,44.62,24.16,1.84,1.33,3.61,2.67,5.33,4.01,0,0,0,0,0,0,0,0,0,0,0,0,5.58,4.35,10.55,8.72,14.94,12.93-.06.03-.11.05-.16.07,9.48,8.72,17.16,16.54,23.08,22.86,16.02,17.13,31.75,36.77,43.84,51.87.73.91,3.63,4.55,7.73,9.63,5.6,6.95,9.82,12.14,16.22,20.07,5.47,6.77,11.38,13.26,16.68,20.15.54.71,2.81,3.78,5.2,7.25,8.99,13.07,13.54,23.47,19.69,35.39,10.24,19.87,15.37,29.8,18.79,29.34,5.79-.77,4.77-19.69,14.93-63.08,2.44-10.44,3.22-11.8,6.3-25.82,3.13-14.25,5.86-28.59,9-42.83,3.09-13.99,6.58-27.89,9.68-41.88,1.23-5.57,1.68-11.32,2.81-16.92,1.6-7.9,3.69-15.71,5.23-23.62,2.19-11.24,3.86-22.59,6.17-33.81,1.42-6.88,3.59-13.61,5.47-20.4,4.82-17.32,9.34-34.73,14.58-51.93,0,0,11.01-37.65,23.21-73.02,40.1-116.23,93.67-201.95,94.01-201.77.02,0-.07.2-.26.56,2.69-4.42,5.32-8.67,8.66-14.6,8.3-14.76,9.93-20.2,16.75-33.93,15.05-30.32,31.03-52.02,31.5-51.74,0,0,0,.02,0,.02,2.75-4.76,5.48-9.53,8.24-14.28,1.25-2.16,3.04-4.02,4.58-6.01.51.28,1.03.56,1.54.84-1.87,4.06-3.4,8.33-5.67,12.16-9.74,16.44-13.4,22.79-26.25,43.27-4.46,7.11-19.84,31.87-29.41,52.66-.58,1.26-1,2.51-2.04,4.36-5.5,9.76-11.27,19.38-16.78,29.13-4.38,7.76-4.06,8.23-8.81,16.48-4.31,7.48-7.81,12.77-8.31,13.54-5.42,8.32-19.62,39.45-50.86,116.13h0c-.15.4-19.15,51.86-12.8,54.85,1.18.56,2.83-.76,13.79-9.6,4.03-3.26,9.39-7.36,16.64-12.37,6.86-4.74,13.83-9.48,21.26-13.21,5.02-2.51,10.91-4.43,16.44-4.48,6.67-.06,12.4-2.64,17.87-5.07,22.87-10.16,45.59-20.73,67.92-32.01,3.17-1.6,6.29-3.31,9.37-5.08,13.83-7.97,20.15-12.55,26.93-16.48,3.68-2.14,8.41-4.56,14.31-6.83,9.21-6.65,36.75-20.9,52.58-26.35-2.49,1.81-4.88,3.8-7.51,5.39-2.89,1.75-6.02,3.08-9.01,4.68-2.09,1.12-3.75,2.02-8.19,4.59-5.79,3.35-10.39,6.01-13.85,8.04-.15-.02-.31-.02-.46-.04-6.91,3.19-16.59,7.84-27.88,13.9-32.32,17.35-34.03,22.79-59.94,35.34-15.47,7.49-31.64,13.55-47.56,20.1-6.75,2.78-13.76,4.93-20.44,7.85-5.22,2.28-10.36,4.95-15.11,8.09-19.67,12.99-30.34,18.17-37.26,24.36-16.39,14.66-22.79,32.36-30.12,52.63-1.76,4.87-6.71,17.7-12.16,44.41-2.13,10.46-5.33,20.69-7.95,31.06-2.36,9.34-4.59,18.71-6.84,28.07-3.82,15.92-8.04,31.76-11.31,47.79-4.13,20.18-7.75,40.47-11.09,60.8-2.8,17.08-4.53,28.44-5.77,37.05-2.67,18.55-2.4,17.87-3.77,26.63-1.45,9.27-8.8,38.13-12.1,61.15-1.2,8.35-3.56,24.79-1.21,25.41,2.53.66,9.47-17.36,15.12-33.27,0,0,18.05-44.39,32.62-64.03.55-.74,4.98-6.72,10.96-15.01,1.24-1.73,2.48-3.46,3.7-5.2,13.33-19.04,27.98-37,43.31-54.46,6.69-7.63,12.18-16.31,18.42-24.34,4.48-5.75,9.33-11.22,13.98-16.83,2.27-2.74,4.66-2.77,7.51-.78,1.88,1.31,4.07,2.19,6.98,3.72-5.79,6.93-11.16,14.22-17.41,20.67ZM597.12,666.61c-1.01.22-2.17.75-3.03.46-5.9-2.02-11.75-3.88-18.18-3.34-1.07.09-2.88-2.27-3.45-3.82-1.83-4.97-5.05-7.75-11.82-7.31.64-3.82.98-6.33,1.49-8.8,1.04-5.06,2.74-10.06,3.11-15.17.47-6.6,3.05-11.88,6.96-17.01,2.44-3.21,4.34-7.04,5.59-10.88,2.56-7.91,10.82-11.38,17.72-7.22,1.81,1.09,4.23,1.18,6.37,1.7.24.06.51-.08.77-.09,15.76-.76,25.9,6.94,28.62,22.49.58,3.32-.62,7.17-1.75,10.52-1.65,4.89-4.21,9.25-3.53,14.96.34,2.83-2.11,6.31-4,9.02-2.37,3.39-5.24,6.52-8.31,9.31-1.6,1.45-4.01,2.17-6.17,2.8-3.41.99-6.92,1.63-10.39,2.39ZM607.52,677.86c-.03-3.63,1.59-5.76,4.39-7.39,7.08-4.1,12.94-9.42,17.04-16.7,1.5-2.66,4.06-4.7,6.1-7.06,5.81-6.68,11.57-13.4,17.41-20.05,1.12-1.27,2.51-2.31,4.2-2.95-3.21,5.25-6.88,10.28-9.51,15.81-2.88,6.04.54,11.55,4.21,17.65-15.35,7.35-31.22,10.45-43.84,20.68ZM711.82,641.67c-2.07,7.38-5.95,13.97-12.21,18.61-2.1,1.56-5.44,1.34-7.85,2.61-4.99,2.62-9.56,2.85-14.61-.06-1.78-1.03-4.64-.66-6.9-.28-4.83.8-7.9-1.28-10.47-5.08-8.55-12.65-10.22-10.94-.33-24.07,4.08-5.41,8.24-10.8,7.38-18.36-.15-1.3,1.58-3.07,2.82-4.22,3.61-3.36,7.41-6.51,11.43-10,8.4-.11,14.69,3.77,20.52,8.89-2.75,7.34,1.28,12.82,6.01,16.65,5.62,4.54,5.8,9.66,4.21,15.31ZM691.08,593.94c6.8-8.16,13.31-15.97,19.82-23.79.83.13,1.66.25,2.48.38,2.73,8.52,5.45,17.04,8.28,25.89-1.5,1.56-2.76,3.18-4.31,4.44-7.35,5.99-8.86,5.98-16.64.25-3.1-2.29-6.18-4.6-9.63-7.17ZM752.9,623.4c-2.21,1.9-5.27,3.05-9.57,3.3-7.29.42-14.41,3.83-20.51,5.6-3.46-4.12-6.02-7.56-9.01-10.58-2.27-2.3-3.14-4.66-2.31-7.91,2.66-1.86,5.48-3.71,8.17-5.73,4.8-3.6,6.69-2.61,11.38-5.57,4.74-2.98,4.95-4.42,7.82-5.27,4.23-1.25,8.45.49,11.26,2.06,4.85,2.64,7.94,7.59,7.98,12.92.04,4.59-2.25,8.65-5.21,11.19ZM799.47,590.19c.52-.03,1.04-.07,1.55-.16q10.23-1.87,14.7,7.93c.32.71.44,1.65.98,2.11,5.82,5.03,5.76,11.77,5.07,18.45-.68,6.55-5.41,11.13-9.28,15.93-2.24,2.78-5.39,4.86-8.24,7.11-.97.77-2.31,1.6-3.45,1.56-10.8-.41-21.61-.55-30.92-7.59-5.11-3.87-6.27-4.94-6.98-13.3.51-1.41,1.35-4.67,2.87-7.57,1.39-2.66,4.06-4.46,4.06-8.12,0-1.28,2.72-2.73,4.38-3.81,2.81-1.81,6.27-2.87,8.56-5.16,4.72-4.7,10.2-7.01,16.69-7.38ZM755.72,534.82c3.51-1.16,3.86-1.08,4.48-1.36,13.98-6.31,26.68,6.17,28.32,17.32.47,3.19,1.47,6.73,3.41,9.18,2.69,3.39,2.85,6.66,1.51,10.18-4.3,11.32-11.21,20.46-22.39,25.86-3.47,1.67-6.91,3.38-11.18,5.47-.56-3.91-2.12-6.21-3.23-7.46-5.37-6.04-17.04-6.59-28.64-.6-3.01-4.94-7.27-13.67-7.24-24.77,0-3.58.08-8.49,2.68-14.06,3.4-7.28,9.04-11.23,11.75-12.87,4.74-1.62,11.76-4,20.53-6.9ZM757.82,495.83c-3.5,4.21-9.9,12.48-18.42,24.21-3.79,5.22-6.88,10.93-10.54,16.24-2.77,4.03-6.44,7.5-8.82,11.72-2.73,4.83-6.08,8.79-10.09,12.64-4.82,4.64-8.46,10.49-12.75,15.7-2.71,3.29-5.7,6.36-8.56,9.53-.53-.37-1.06-.73-1.59-1.1,2.98-9.43,4.55-19.39,11.7-27.21,10.72-11.7,21.46-23.39,31.97-35.28,2.25-2.55,4.49-5.11,6.71-7.68,11.26-13.06,19.33-22.64,19.7-23.08,9.45-11.33,31.97-45.92,59.76-93-34.36,62.26-50.74,87.27-59.07,97.3ZM875.87,362.63c-1.48,8.12-4.87,13.24-12.77,15.78-3.13,1.01-5.86,3.33-8.71,5.14-5.7,3.61-11.36,7.29-17.53,11.26-5.98-3.33-11.13-6.2-16.28-9.04-1.37-.75-2.72-1.58-4.17-2.11-7.29-2.64-7.78-3.48-7.17-11.29.22-2.83.76-6.02-.24-8.47-2.83-6.94-.04-12.42,4.07-17.26,2.75-3.23,3.96-6.5,4.09-10.54.17-5.23,2.91-8.6,7.67-10.77,5.53-2.53,11.09-4.27,17.29-4.2,2.32.03,4.84-1.27,6.95-2.51,4.68-2.72,9.03-1.74,10.38,3.4.96,3.65,3.35,5.51,5.66,7.99,8.51,9.13,13.18,19.45,10.77,32.62ZM990.49,268.4c-10.65,9.97-21.51,19.73-31.87,29.99-5.36,5.31-9,11.82-11.62,19.18-3.59,10.07-11.23,17.44-19.82,23.63-9.76,7.03-20.3,12.7-31.55,16.91-3.75,1.4-7.83,1.96-12.79,3.15-.27-4.85-.51-8.4-.65-11.95-.25-6.49-1.83-12.03-7.44-16.42-3.33-2.61-5.38-6.92-7.76-10.63-1.81-2.83-3.23-5.91-5.25-9.66,1.24-.93,2.65-2.38,4.37-3.22,23.41-11.48,46.78-23.05,70.34-34.21,8.22-3.9,17.02-6.54,25.39-10.15,11.25-4.86,22.43-9.9,33.46-15.24,8.66-4.19,12.37-5.53,20.34-4.89-9.23,8.63-17.19,16.07-25.14,23.51Z"/></g></svg>